<svg xmlns="http://www.w3.org/2000/svg" xmlns:xlink="http://www.w3.org/1999/xlink" width="464" height="266" xmlns:v="https://vecta.io/nano"><style><![CDATA[.B{fill:#002c66}.C{fill-rule:nonzero}.D{fill-opacity:.15}.E{fill:#006bb8}.F{fill:#3389c6}]]></style><defs><path id="A" d="M0 0h463v43.187H0z"/><path id="B" d="M0 0h378.9v97H0z"/><path d="M237.973 0l35.402 34.754 13.731 16.566 24.794 11.835 6.908 30.004-17.758 22.072v1.081h-.87l-.726.905h-31.041l-.728-.905h-215.9l-1.391 1.73H19.354L0 93.984 6.908 63.98l27.966-13.35 12.403 5.92 5.753-24.986 27.966-13.35 27.968 13.35 1.643 7.135 27.413-13.086 19.23 9.18 3.118-13.543L188.334 7.9l27.968 13.35.352 1.533L237.973 0z" id="C"/><path id="D" d="M66.212 51.992H52.041v72.464h14.171z"/><path d="M87.807 62.007v54.021l18.622 18.62-11.799 11.799-23.571-23.569.161-.161-.098.001V69.424l-7.111-7.411 7.111.009v-.015h16.686z" id="E"/><path d="M173.131 56.98l15.865.022-.011.011 11.857 11.705-77.722 77.724-11.799-11.799 69.573-69.574-7.761-8.089z" id="F"/><path id="G" d="M278.754 30.495l-3.421 12.781-9.357-9.351z"/><path id="H" d="M175.656 214.188c-1.103 1.038-2.465 1.622-4.022 1.622-1.622 0-2.919-.519-4.022-1.622-1.103-1.038-1.622-2.4-1.622-3.957s.519-2.919 1.622-3.957 2.465-1.622 4.022-1.622c1.622 0 2.919.519 4.022 1.622 1.103 1.038 1.622 2.4 1.622 3.957s-.519 2.919-1.622 3.957zm-.778-3.957c0-.973-.324-1.816-.908-2.465-.649-.649-1.362-1.038-2.27-1.038s-1.687.324-2.27 1.038c-.649.649-.908 1.492-.908 2.465s.324 1.752.908 2.465c.649.649 1.362 1.038 2.27 1.038s1.687-.324 2.27-1.038c.584-.649.908-1.492.908-2.465z"/><path id="I" d="M238.192 204.911h2.4v10.834h-2.4l-5.125-6.747v6.747h-2.4v-10.834h2.27l5.319 6.941v-6.941z"/></defs><g fill="none" fill-rule="evenodd"><g transform="translate(.5 104)"><mask id="J" fill="#fff"><use xlink:href="#A"/></mask><g mask="url(#J)" fill="#14ba5a" class="C"><path d="M422.339 10.981H43.674L9.438 45.434h447.136l-34.236-34.453zm-.559 1.344l31.562 31.763H12.671l31.562-31.763h377.547z"/></g></g><g class="C"><path d="M454.8 147H12v119h442.8z" class="E"/><g fill="#fff"><path d="M105.651 244c.122 0 .21-.02.264-.059s.098-.12.132-.242h0l1.406-5.054 1.589 5.039c.044.122.095.205.154.249s.144.066.256.066h.52c.093 0 .16-.024.201-.073s.07-.149.084-.3h0l1.04-7.324h.088c.186 0 .325-.04.417-.121s.139-.204.139-.37a.52.52 0 0 0-.125-.355c-.083-.095-.178-.143-.286-.143h0-2.366c-.273 0-.46.037-.56.11s-.15.203-.15.388c0 .171.052.295.157.374s.27.117.494.117h1.15l-.718 5.823-1.428-4.409c-.044-.132-.096-.22-.157-.264s-.162-.066-.304-.066h0-.33c-.146 0-.248.021-.304.062s-.106.14-.15.297h0l-1.26 4.38-.791-5.823h1.033c.22 0 .382-.039.487-.117s.157-.203.157-.374c0-.186-.05-.315-.15-.388s-.284-.11-.553-.11h0-2.373a.36.36 0 0 0-.286.139c-.078.093-.117.212-.117.359 0 .161.048.283.143.366s.238.125.428.125h.088l1.113 7.31c.02.166.052.272.099.319s.118.07.216.07h.549zm10.774.183c.513 0 1.029-.063 1.549-.19s1.024-.31 1.512-.549c.225-.112.388-.227.491-.344s.154-.247.154-.388a.45.45 0 0 0-.146-.344.51.51 0 0 0-.366-.139c-.142 0-.549.153-1.223.458s-1.296.458-1.868.458c-.757 0-1.354-.192-1.791-.575s-.675-.927-.714-1.63h5.032c.508 0 .819-.046.934-.139s.172-.276.172-.549c0-.889-.339-1.646-1.018-2.271s-1.533-.937-2.563-.937c-1.138 0-2.061.334-2.769 1.003s-1.062 1.543-1.062 2.622c0 1.06.334 1.91 1.003 2.552s1.56.963 2.673.963zm2.402-4.204h-4.768c.142-.605.435-1.079.879-1.421s.991-.513 1.641-.513c.601 0 1.107.177 1.52.531s.656.822.729 1.403h0zm14.597 4.204c.498 0 .983-.095 1.454-.286a4.41 4.41 0 0 0 1.307-.828h0l.059.447a.64.64 0 0 0 .176.359.47.47 0 0 0 .337.125h1.15c.195 0 .342-.044.439-.132s.146-.22.146-.396c0-.19-.059-.322-.176-.396s-.349-.11-.696-.11h0-.359v-3.318c0-.854-.22-1.5-.659-1.937s-1.089-.656-1.948-.656c-.84 0-1.53.1-2.069.3s-.809.444-.809.732a.68.68 0 0 0 .139.443c.093.115.21.172.352.172.151 0 .461-.103.93-.308s.894-.308 1.274-.308c.566 0 .984.134 1.252.403s.403.684.403 1.245h0v.051c-.303-.078-.598-.135-.886-.172a6.79 6.79 0 0 0-.857-.055c-1.074 0-1.908.212-2.501.637s-.89 1.023-.89 1.794c0 .649.223 1.177.67 1.582s1.034.608 1.761.608zm.183-1.128c-.42 0-.765-.107-1.036-.322a1 1 0 0 1-.406-.82c0-.43.217-.771.652-1.025s1.028-.381 1.78-.381a4.67 4.67 0 0 1 .751.062 5.27 5.27 0 0 1 .78.194h0v.791c0 .352-.265.69-.795 1.014a3.24 3.24 0 0 1-1.725.487zm11.565.945c.229 0 .387-.038.472-.114s.128-.214.128-.414c0-.176-.045-.304-.135-.385s-.231-.121-.421-.121h0-2.432v-3.032c.513-.586.98-1.014 1.403-1.285s.824-.406 1.205-.406c.21 0 .448.074.714.223s.455.223.568.223c.161 0 .309-.07.443-.209a.67.67 0 0 0 .201-.48c0-.278-.134-.505-.403-.681s-.62-.264-1.055-.264a3.26 3.26 0 0 0-1.626.425c-.503.283-.986.715-1.45 1.296h0v-1.245c0-.098-.034-.172-.103-.223s-.168-.077-.3-.077h0-1.67c-.195 0-.341.043-.436.128s-.143.214-.143.385c0 .2.059.338.176.414s.413.114.886.114h.498v4.695h-1.274c-.21 0-.365.042-.465.125s-.15.21-.15.381.049.308.146.396.242.132.432.132h4.79zm7.258.183c.513 0 1.029-.063 1.549-.19s1.024-.31 1.512-.549c.225-.112.388-.227.491-.344s.154-.247.154-.388a.45.45 0 0 0-.146-.344.51.51 0 0 0-.366-.139c-.142 0-.549.153-1.223.458s-1.296.458-1.868.458c-.757 0-1.354-.192-1.791-.575s-.675-.927-.714-1.63h5.032c.508 0 .819-.046.934-.139s.172-.276.172-.549c0-.889-.339-1.646-1.018-2.271s-1.533-.937-2.563-.937c-1.138 0-2.061.334-2.769 1.003s-1.062 1.543-1.062 2.622c0 1.06.334 1.91 1.003 2.552s1.56.963 2.673.963zm2.402-4.204h-4.768c.142-.605.435-1.079.879-1.421s.991-.513 1.641-.513c.601 0 1.107.177 1.52.531s.656.822.729 1.403h0zm14.597 4.204c.498 0 .983-.095 1.454-.286a4.41 4.41 0 0 0 1.307-.828h0l.059.447a.64.64 0 0 0 .176.359.47.47 0 0 0 .337.125h1.15c.195 0 .342-.044.439-.132s.146-.22.146-.396c0-.19-.059-.322-.176-.396s-.349-.11-.696-.11h0-.359v-3.318c0-.854-.22-1.5-.659-1.937s-1.089-.656-1.948-.656c-.84 0-1.53.1-2.069.3s-.809.444-.809.732a.68.68 0 0 0 .139.443c.093.115.21.172.352.172.151 0 .461-.103.93-.308s.894-.308 1.274-.308c.566 0 .984.134 1.252.403s.403.684.403 1.245h0v.051c-.303-.078-.598-.135-.886-.172a6.79 6.79 0 0 0-.857-.055c-1.074 0-1.908.212-2.501.637s-.89 1.023-.89 1.794c0 .649.223 1.177.67 1.582s1.034.608 1.761.608zm.183-1.128c-.42 0-.765-.107-1.036-.322a1 1 0 0 1-.406-.82c0-.43.217-.771.652-1.025s1.028-.381 1.78-.381a4.67 4.67 0 0 1 .751.062 5.27 5.27 0 0 1 .78.194h0v.791c0 .352-.265.69-.795 1.014a3.24 3.24 0 0 1-1.725.487zm19.138 1.157c.459 0 .896-.063 1.311-.19s.828-.325 1.238-.593c.313-.195.526-.36.641-.494a.64.64 0 0 0 .172-.421.49.49 0 0 0-.157-.37c-.105-.1-.233-.15-.385-.15-.098 0-.261.082-.491.245l-.542.348c-.283.161-.571.282-.864.363a3.25 3.25 0 0 1-.864.121c-.869 0-1.569-.316-2.098-.948s-.795-1.481-.795-2.545.261-1.913.784-2.545 1.216-.948 2.08-.948c.474 0 .886.116 1.238.348s.574.531.667.897l.081.315c.098.459.308.688.63.688.2 0 .339-.04.417-.121s.117-.236.117-.465a28.98 28.98 0 0 1-.015-.538l-.015-1.337c0-.273-.037-.454-.11-.542s-.2-.132-.381-.132c-.166 0-.293.027-.381.081s-.156.146-.205.278c-.371-.156-.724-.273-1.058-.352a4.32 4.32 0 0 0-.985-.117c-1.206 0-2.207.435-3.003 1.304s-1.194 1.96-1.194 3.274c0 1.328.393 2.418 1.179 3.27s1.782 1.278 2.988 1.278zm11.389-.095c.239 0 .392-.027.458-.081s.099-.151.099-.293h0v-7.375h.088c.278 0 .47-.039.575-.117s.157-.215.157-.41c0-.176-.043-.308-.128-.396s-.216-.132-.392-.132h0-2.102c-.327 0-.542.038-.645.114s-.154.214-.154.414c0 .181.06.314.179.399s.311.128.575.128h.806v5.786l-3.691-6.372c-.122-.21-.228-.341-.319-.392s-.248-.077-.472-.077h0-.688l-.293.007-.146.007c-.278 0-.48.04-.604.121s-.187.211-.187.392c0 .195.072.332.216.41s.421.117.831.117h.183v6.599h-.139c-.288 0-.482.035-.582.106s-.15.204-.15.399c0 .176.044.308.132.396s.22.132.396.132h2.175c.356 0 .587-.038.692-.114s.157-.214.157-.414c0-.181-.056-.31-.168-.388s-.3-.117-.564-.117h0-.916v-5.984l3.896 6.716c.132.225.226.35.282.377s.204.04.443.04zm6.614.095c.459 0 .896-.063 1.311-.19s.828-.325 1.238-.593c.313-.195.526-.36.641-.494a.64.64 0 0 0 .172-.421.49.49 0 0 0-.157-.37c-.105-.1-.233-.15-.385-.15-.098 0-.261.082-.491.245l-.542.348c-.283.161-.571.282-.864.363a3.25 3.25 0 0 1-.864.121c-.869 0-1.569-.316-2.098-.948s-.795-1.481-.795-2.545.261-1.913.784-2.545 1.216-.948 2.08-.948c.474 0 .886.116 1.238.348s.574.531.667.897l.081.315c.098.459.308.688.63.688.2 0 .339-.04.417-.121s.117-.236.117-.465a28.98 28.98 0 0 1-.015-.538l-.015-1.337c0-.273-.037-.454-.11-.542s-.2-.132-.381-.132c-.166 0-.293.027-.381.081s-.156.146-.205.278c-.371-.156-.724-.273-1.058-.352a4.32 4.32 0 0 0-.985-.117c-1.206 0-2.207.435-3.003 1.304s-1.194 1.96-1.194 3.274c0 1.328.393 2.418 1.179 3.27s1.782 1.278 2.988 1.278zm9.06-.212c.166 0 .293-.045.381-.135s.132-.221.132-.392-.046-.304-.139-.385-.242-.121-.447-.121h0-1.56v-3.245h1.934v.212c0 .356.034.596.103.718s.19.183.366.183c.166 0 .282-.046.348-.139s.099-.261.099-.505h0v-1.86c0-.205-.035-.354-.106-.447s-.184-.139-.341-.139c-.176 0-.298.061-.366.183s-.103.361-.103.718h0v.19h-1.934v-2.468h3.977v1.047c0 .376.037.618.11.725s.212.161.417.161c.166 0 .292-.043.377-.128s.128-.214.128-.385h0v-1.89c0-.19-.043-.336-.128-.436s-.211-.15-.377-.15h0-6.482c-.166 0-.293.045-.381.135s-.132.221-.132.392c0 .2.052.338.157.414s.343.114.714.114h.461v6.599h-.703c-.229 0-.392.039-.487.117s-.143.208-.143.388c0 .171.044.302.132.392s.215.135.381.135h3.611zm14.978.33c.19 0 .33-.043.417-.128s.144-.238.168-.458c.391.176.759.305 1.106.388s.696.125 1.047.125c1.021 0 1.836-.248 2.446-.743s.916-1.154.916-1.974c0-.693-.215-1.244-.645-1.652s-1.069-.668-1.919-.78h0l-1.172-.146c-.566-.078-.988-.225-1.263-.439s-.414-.508-.414-.879c0-.474.184-.857.553-1.15s.848-.439 1.439-.439c.386 0 .73.066 1.033.198s.535.32.696.564a2.01 2.01 0 0 1 .205.461c.142.361.342.542.601.542.176 0 .313-.048.41-.143s.146-.228.146-.399h0v-.073l-.103-1.531c-.02-.239-.071-.391-.154-.454s-.232-.095-.447-.095c-.166 0-.283.027-.352.081s-.107.151-.117.293c-.376-.151-.713-.262-1.011-.333s-.581-.106-.85-.106c-.923 0-1.693.254-2.311.762s-.927 1.135-.927 1.882c0 .708.232 1.257.696 1.648s1.201.657 2.212.798h0l1.084.146c.464.068.817.22 1.058.454s.363.544.363.93c0 .464-.197.845-.59 1.143s-.905.447-1.534.447c-.513 0-.953-.093-1.322-.278s-.638-.449-.809-.791a2.73 2.73 0 0 1-.168-.476c-.127-.42-.337-.63-.63-.63-.21 0-.36.049-.45.146s-.135.264-.135.498h0v.132l.095 1.699c.015.269.072.463.172.582s.253.179.458.179zm10.649-.146c.498 0 .983-.095 1.454-.286a4.41 4.41 0 0 0 1.307-.828h0l.059.447a.64.64 0 0 0 .176.359.47.47 0 0 0 .337.125h1.15c.195 0 .342-.044.439-.132s.146-.22.146-.396c0-.19-.059-.322-.176-.396s-.349-.11-.696-.11h0-.359v-3.318c0-.854-.22-1.5-.659-1.937s-1.089-.656-1.948-.656c-.84 0-1.53.1-2.069.3s-.809.444-.809.732a.68.68 0 0 0 .139.443c.093.115.21.172.352.172.151 0 .461-.103.93-.308s.894-.308 1.274-.308c.566 0 .984.134 1.252.403s.403.684.403 1.245h0v.051c-.303-.078-.598-.135-.886-.172a6.79 6.79 0 0 0-.857-.055c-1.074 0-1.908.212-2.501.637s-.89 1.023-.89 1.794c0 .649.223 1.177.67 1.582s1.034.608 1.761.608zm.183-1.128c-.42 0-.765-.107-1.036-.322a1 1 0 0 1-.406-.82c0-.43.217-.771.652-1.025s1.028-.381 1.78-.381a4.67 4.67 0 0 1 .751.062 5.27 5.27 0 0 1 .78.194h0v.791c0 .352-.265.69-.795 1.014a3.24 3.24 0 0 1-1.725.487zm8.503.945c.342 0 .557-.037.645-.11s.132-.212.132-.417c0-.19-.051-.322-.154-.396s-.3-.11-.593-.11h0-.256v-3.047a1.6 1.6 0 0 1 .571-1.252 1.93 1.93 0 0 1 1.318-.505c.493 0 .869.15 1.128.45s.388.736.388 1.307h0v3.047h-.256c-.283 0-.476.037-.579.11s-.154.205-.154.396c0 .205.044.344.132.417s.288.11.601.11h1.619c.293 0 .497-.04.612-.121s.172-.216.172-.406c0-.176-.054-.304-.161-.385s-.283-.121-.527-.121h0-.344v-3.318c0-.811-.211-1.445-.634-1.904s-1.002-.688-1.74-.688a2.6 2.6 0 0 0-1.088.238c-.349.159-.702.404-1.058.736h0v-.498a.26.26 0 0 0-.11-.22.51.51 0 0 0-.308-.081h0-1.047c-.229 0-.396.04-.498.121s-.154.211-.154.392c0 .195.062.332.187.41s.353.117.685.117h.139v4.695h-.154c-.332 0-.555.035-.67.106s-.172.204-.172.399c0 .181.05.314.15.399s.25.128.45.128h1.729zm9.792.183a3.37 3.37 0 0 0 1.428-.304c.439-.203.806-.487 1.099-.853h0v.601c0 .146.021.245.062.297s.114.077.216.077h1.414c.156 0 .281-.046.374-.139s.139-.222.139-.388c0-.176-.054-.304-.161-.385s-.281-.121-.52-.121h0-.33v-8.254c0-.103-.033-.178-.099-.227s-.172-.073-.319-.073h0-1.501c-.19 0-.336.044-.436.132s-.15.22-.15.396c0 .2.062.338.187.414s.399.114.824.114h.388v2.805a2.82 2.82 0 0 0-1.033-.787 3.3 3.3 0 0 0-1.355-.267c-.991 0-1.819.336-2.483 1.007s-.996 1.512-.996 2.523c0 .977.311 1.793.934 2.45s1.395.985 2.318.985zm.315-1.172c-.669 0-1.221-.215-1.655-.645s-.652-.981-.652-1.655c0-.718.212-1.299.637-1.743s.981-.667 1.67-.667c.679 0 1.234.22 1.666.659s.648.999.648 1.677c0 .688-.217 1.256-.652 1.703s-.989.67-1.663.67zm9.785 1.121c.967 0 1.786-.334 2.457-1.003a3.32 3.32 0 0 0 1.007-2.446c0-.977-.327-1.796-.981-2.457s-1.472-.992-2.454-.992c-.518 0-.981.09-1.392.271a2.67 2.67 0 0 0-1.025.784h0v-3.574c0-.103-.033-.178-.099-.227s-.172-.073-.319-.073h0-1.113c-.19 0-.334.044-.432.132s-.146.22-.146.396c0 .195.061.332.183.41s.349.117.681.117h.139v7.5h-.154c-.332 0-.554.035-.667.106s-.168.204-.168.399c0 .176.046.308.139.396s.234.132.425.132h1.34c.107 0 .184-.029.231-.088s.07-.154.07-.286h0v-.586a2.29 2.29 0 0 0 .938.82c.381.18.828.271 1.34.271zm-.103-1.15c-.679 0-1.234-.22-1.666-.659s-.648-1.001-.648-1.685.216-1.244.648-1.681.988-.656 1.666-.656 1.229.22 1.666.659.656.999.656 1.677c0 .693-.215 1.257-.645 1.692s-.989.652-1.677.652zm8.606 1.201c1.138 0 2.063-.332 2.776-.996s1.069-1.519 1.069-2.563-.358-1.892-1.073-2.556-1.639-.996-2.772-.996-2.056.331-2.769.992-1.069 1.515-1.069 2.56.356 1.899 1.069 2.563 1.636.996 2.769.996zm0-1.025c-.752 0-1.367-.237-1.846-.71s-.718-1.082-.718-1.824.24-1.346.721-1.827 1.095-.721 1.842-.721 1.362.24 1.846.721.725 1.09.725 1.827-.24 1.344-.721 1.82-1.097.714-1.849.714zm7.639.842c.259 0 .448-.042.568-.125s.179-.212.179-.388c0-.166-.068-.294-.205-.385s-.327-.135-.571-.135h0-.212l1.685-1.802 1.846 1.802h-.41c-.205 0-.366.046-.483.139a.46.46 0 0 0-.176.381c0 .176.061.305.183.388s.313.125.571.125h1.494c.366 0 .608-.037.725-.11s.176-.208.176-.403c0-.166-.051-.294-.154-.385s-.247-.135-.432-.135h0-.073l-2.563-2.505 2.102-2.19h.205c.269 0 .464-.043.586-.128s.183-.219.183-.399a.5.5 0 0 0-.513-.513h0-1.904c-.264 0-.454.043-.571.128s-.176.223-.176.414a.41.41 0 0 0 .198.377c.132.081.334.121.608.121h.154l-1.501 1.545-1.575-1.545h.059c.254 0 .448-.044.582-.132s.201-.215.201-.381c0-.181-.06-.314-.179-.399s-.311-.128-.575-.128h0-1.501c-.352 0-.59.038-.714.114s-.187.214-.187.414c0 .19.055.323.165.399s.306.114.59.114h.103l2.329 2.263-2.373 2.432h-.146c-.288 0-.498.042-.63.125s-.198.215-.198.396c0 .146.049.269.146.366s.22.146.366.146h2.021zm19.175 2.922c.229 0 .389-.039.48-.117s.135-.212.135-.403c0-.176-.046-.308-.139-.396s-.232-.132-.417-.132h0-1.758v-2.922c.293.342.657.604 1.091.787s.911.275 1.428.275c.972 0 1.77-.31 2.395-.93s.938-1.411.938-2.373c0-1.001-.33-1.833-.989-2.498s-1.479-.996-2.461-.996a3.29 3.29 0 0 0-1.3.256 3.36 3.36 0 0 0-1.102.769h0v-.71c0-.103-.033-.178-.099-.227s-.172-.073-.319-.073h0-1.113c-.195 0-.343.043-.443.128s-.15.214-.15.385c0 .195.062.332.187.41s.355.117.692.117h.139v7.603h-.139c-.337 0-.568.039-.692.117s-.187.215-.187.41c0 .171.05.3.15.388s.248.132.443.132h3.23zm.571-3.984c-.679 0-1.232-.215-1.659-.645s-.641-.981-.641-1.655.215-1.218.645-1.648.981-.645 1.655-.645 1.229.216 1.666.648.656.98.656 1.644c0 .679-.217 1.232-.652 1.659s-.991.641-1.67.641zM316.201 244c.229 0 .387-.038.472-.114s.128-.214.128-.414c0-.176-.045-.304-.135-.385s-.231-.121-.421-.121h0-2.432v-3.032c.513-.586.98-1.014 1.403-1.285s.824-.406 1.205-.406c.21 0 .448.074.714.223s.455.223.568.223c.161 0 .309-.07.443-.209a.67.67 0 0 0 .201-.48c0-.278-.134-.505-.403-.681s-.62-.264-1.055-.264a3.26 3.26 0 0 0-1.626.425c-.503.283-.986.715-1.45 1.296h0v-1.245c0-.098-.034-.172-.103-.223s-.168-.077-.3-.077h0-1.67c-.195 0-.341.043-.436.128s-.143.214-.143.385c0 .2.059.338.176.414s.413.114.886.114h.498v4.695h-1.274c-.21 0-.365.042-.465.125s-.15.21-.15.381.049.308.146.396.242.132.432.132h4.79zm7.332.183c1.138 0 2.063-.332 2.776-.996s1.069-1.519 1.069-2.563-.358-1.892-1.073-2.556-1.639-.996-2.772-.996-2.056.331-2.769.992-1.069 1.515-1.069 2.56.356 1.899 1.069 2.563 1.636.996 2.769.996zm0-1.025c-.752 0-1.367-.237-1.846-.71s-.718-1.082-.718-1.824.24-1.346.721-1.827 1.095-.721 1.842-.721 1.362.24 1.846.721.725 1.09.725 1.827-.24 1.344-.721 1.82-1.097.714-1.849.714zm10.042-7.317c.313 0 .513-.048.601-.143s.132-.358.132-.787-.048-.708-.143-.82-.292-.168-.59-.168c-.317 0-.525.07-.623.209s-.146.47-.146.992c0 .288.049.48.146.575s.305.143.623.143zm-2.146 11.052c.664 0 1.243-.094 1.736-.282s.879-.463 1.157-.824c.166-.215.286-.483.359-.806s.11-.793.11-1.414h0v-6.035c0-.093-.038-.166-.114-.22a.53.53 0 0 0-.311-.081h0-4.036c-.195 0-.342.043-.439.128s-.146.214-.146.385c0 .2.06.338.179.414s.416.114.89.114h2.864v5.266c0 .811-.151 1.381-.454 1.71s-.811.494-1.523.494c-.142 0-.352-.018-.63-.055l-.615-.055a.63.63 0 0 0-.443.172c-.125.115-.187.248-.187.399 0 .234.129.408.388.52s.664.168 1.216.168zm10.034-2.71c.513 0 1.029-.063 1.549-.19s1.024-.31 1.512-.549c.225-.112.388-.227.491-.344s.154-.247.154-.388a.45.45 0 0 0-.146-.344.51.51 0 0 0-.366-.139c-.142 0-.549.153-1.223.458s-1.296.458-1.868.458c-.757 0-1.354-.192-1.791-.575s-.675-.927-.714-1.63h5.032c.508 0 .819-.046.934-.139s.172-.276.172-.549c0-.889-.339-1.646-1.018-2.271s-1.533-.937-2.563-.937c-1.138 0-2.061.334-2.769 1.003s-1.062 1.543-1.062 2.622c0 1.06.334 1.91 1.003 2.552s1.56.963 2.673.963zm2.402-4.204h-4.768c.142-.605.435-1.079.879-1.421s.991-.513 1.641-.513c.601 0 1.107.177 1.52.531s.656.822.729 1.403h0zm6.584 4.204a4.74 4.74 0 0 0 2.325-.604c.73-.403 1.095-.797 1.095-1.183a.5.5 0 0 0-.513-.513c-.181 0-.43.129-.747.388l-.374.271a3.06 3.06 0 0 1-.839.406c-.295.09-.607.135-.934.135-.718 0-1.305-.231-1.761-.692s-.685-1.056-.685-1.783c0-.713.238-1.294.714-1.743s1.095-.674 1.857-.674a2.18 2.18 0 0 1 1.154.304c.335.203.619.502.853.897.137.239.253.397.348.472a.53.53 0 0 0 .341.114c.186 0 .325-.045.417-.135s.139-.226.139-.406h0v-1.362c0-.366-.038-.608-.114-.725s-.214-.176-.414-.176-.339.038-.432.114-.139.194-.139.355h0v.029a6.37 6.37 0 0 0-1.19-.465 4.3 4.3 0 0 0-1.117-.15c-1.055 0-1.934.341-2.637 1.022s-1.055 1.53-1.055 2.545.353 1.863 1.058 2.542 1.588 1.018 2.648 1.018zm9.646-.051c.337 0 .697-.044 1.08-.132a9.07 9.07 0 0 0 1.293-.417c.288-.112.492-.228.612-.348s.179-.26.179-.421c0-.142-.048-.261-.143-.359s-.211-.146-.348-.146c-.146 0-.53.129-1.15.388s-1.152.388-1.597.388c-.503 0-.858-.127-1.066-.381s-.311-.781-.311-1.582h0v-2.446h2.966c.205 0 .359-.043.461-.128s.154-.214.154-.385c0-.181-.055-.312-.165-.396s-.284-.125-.524-.125h0-2.893v-1.487c0-.435-.042-.713-.125-.835s-.232-.183-.447-.183c-.19 0-.331.05-.421.15s-.135.255-.135.465h0v1.89h-.828c-.415 0-.686.037-.813.11s-.19.21-.19.41c0 .181.046.311.139.392s.242.121.447.121h1.245v2.673c0 .488.021.85.062 1.084s.111.437.209.608c.19.361.48.634.868.817s.868.275 1.439.275zm8.445-.029c.43 0 .778-.12 1.044-.359s.399-.554.399-.945-.132-.706-.396-.945-.613-.359-1.047-.359c-.425 0-.77.122-1.036.366s-.399.557-.399.938c0 .391.132.706.396.945s.61.359 1.04.359zm-203.134-50.739c2.141 0 3.827-.843 5.19-2.53l2.789 2.854c-2.206 2.465-4.736 3.698-7.72 3.698s-5.384-.908-7.33-2.789-2.854-4.217-2.854-7.071.973-5.255 2.919-7.136 4.346-2.854 7.201-2.854c3.179 0 5.838 1.233 7.914 3.633l-2.66 3.049c-1.362-1.687-3.049-2.53-5.06-2.53-1.622 0-2.984.519-4.152 1.557s-1.752 2.465-1.752 4.282.519 3.244 1.622 4.346c1.038.908 2.335 1.492 3.892 1.492h0zm11.353 3.762V177.86h4.282v15.439h8.239v3.827zm31.332-2.659c-1.946 1.881-4.346 2.854-7.201 2.854s-5.255-.973-7.201-2.854-2.919-4.282-2.919-7.071c0-2.854.973-5.19 2.919-7.071s4.346-2.854 7.201-2.854 5.255.973 7.201 2.854 2.919 4.282 2.919 7.071c0 2.854-.973 5.19-2.919 7.071zm-1.492-7.071c0-1.687-.584-3.179-1.687-4.411s-2.465-1.816-4.087-1.816-2.984.584-4.087 1.816a6.34 6.34 0 0 0-1.687 4.411c0 1.687.584 3.179 1.687 4.411s2.465 1.816 4.087 1.816 2.984-.584 4.087-1.816c1.168-1.233 1.687-2.66 1.687-4.411zm13.169 4.8c.714.908 1.687 1.362 2.919 1.362s2.206-.454 2.854-1.362c.714-.908 1.038-2.141 1.038-3.633v-10.639h4.282v10.769c0 2.789-.778 4.93-2.335 6.422s-3.503 2.27-5.903 2.27-4.411-.778-5.968-2.27-2.335-3.633-2.335-6.422v-10.769h4.282v10.639c.065 1.492.454 2.725 1.168 3.633h0zm30.295-11.806c1.816 1.687 2.789 4.022 2.789 7.006s-.908 5.384-2.66 7.136c-1.816 1.752-4.541 2.595-8.174 2.595h-6.682V177.86h6.811c3.438 0 6.098.843 7.914 2.53zm-3.114 11.482c1.038-.973 1.557-2.465 1.557-4.346s-.519-3.373-1.557-4.346c-1.038-1.038-2.66-1.557-4.865-1.557h-2.4v11.742h2.725c1.946 0 3.438-.519 4.541-1.492zm30.36-14.012h4.282v19.267h-4.282l-9.212-12.066v12.066h-4.282V177.86h4.022l9.471 12.39zm22.77 19.266l-1.816-4.152h-8.109l-1.816 4.152h-4.606l8.304-19.267h4.152l8.304 19.267h-4.411zm-5.774-13.493l-2.4 5.579h4.8l-2.4-5.579zm19.397-2.011v15.569h-4.282v-15.569h-5.449v-3.698h15.245v3.698zm8.563-3.762h4.282v19.267h-4.282zm16.153 12.26l4.93-12.261h4.671l-7.72 19.267h-3.633l-7.72-19.267h4.671zm25.754-12.26v3.827h-9.601v3.957h8.628v3.698h-8.628v4.022h9.925v3.827h-14.207v-19.267h13.882zm-203.696 35.679c1.168 0 2.141-.454 2.919-1.427l1.557 1.622c-1.233 1.362-2.66 2.076-4.346 2.076s-3.049-.519-4.087-1.557c-1.103-1.038-1.622-2.4-1.622-3.957 0-1.622.519-2.919 1.622-4.022s2.465-1.622 4.022-1.622c1.752 0 3.244.649 4.476 2.011l-1.492 1.687c-.778-.973-1.687-1.427-2.854-1.427-.908 0-1.687.324-2.335.908s-.973 1.362-.973 2.4.324 1.816.908 2.4c.584.649 1.362.908 2.206.908h0z"/><use xlink:href="#H"/><path d="M189.019 208.868l-2.919 5.903h-1.427l-2.919-5.903v6.811h-2.4v-10.834h3.244l2.789 5.903 2.789-5.903h3.244v10.834h-2.4zm12.52-2.984c.778.649 1.168 1.622 1.168 2.984s-.389 2.335-1.168 2.919c-.778.649-1.946.908-3.568.908h-1.427v2.984h-2.4v-10.834h3.827c1.622.065 2.789.389 3.568 1.038h0zm-1.752 4.217c.259-.324.454-.778.454-1.427s-.195-1.038-.584-1.297-.973-.389-1.752-.389h-1.362v3.633h1.622c.778 0 1.297-.195 1.622-.519zm7.656 2.789c.389.519.973.778 1.622.778s1.233-.259 1.622-.778.584-1.168.584-2.076v-5.968h2.4v6.033c0 1.557-.454 2.789-1.297 3.633s-1.946 1.233-3.308 1.233-2.465-.454-3.308-1.297-1.297-2.076-1.297-3.633v-6.033h2.4v5.968c0 .973.195 1.687.584 2.141h0zm13.298-5.903v8.693h-2.4v-8.693h-3.049v-2.076h8.563v2.076zm4.866-2.076h2.4v10.834h-2.4z"/><use xlink:href="#I"/><path d="M250.323 210.23h2.4v3.827c-1.103 1.168-2.53 1.816-4.476 1.816-1.557 0-2.919-.519-4.022-1.557s-1.622-2.4-1.622-3.957c0-1.622.519-2.919 1.622-4.022a5.33 5.33 0 0 1 3.957-1.622c1.557 0 2.919.519 4.022 1.557l-1.233 1.816c-.454-.454-.908-.714-1.362-.843-.389-.13-.843-.259-1.297-.259-.908 0-1.687.324-2.335.908-.649.649-.973 1.427-.973 2.465s.324 1.816.908 2.465a2.94 2.94 0 0 0 2.141.908c.843 0 1.557-.13 2.076-.454v-3.049h.195zm16.023-5.319v2.141h-4.995v2.335h4.736v2.141h-4.736v4.217h-2.4v-10.834zm11.158 9.277c-1.103 1.038-2.465 1.622-4.022 1.622-1.622 0-2.919-.519-4.022-1.622-1.103-1.038-1.622-2.4-1.622-3.957s.519-2.919 1.622-3.957 2.465-1.622 4.022-1.622c1.622 0 2.919.519 4.022 1.622 1.103 1.038 1.622 2.4 1.622 3.957s-.519 2.919-1.622 3.957zm-.843-3.957c0-.973-.324-1.816-.908-2.465-.649-.649-1.362-1.038-2.27-1.038s-1.687.324-2.27 1.038c-.649.649-.908 1.492-.908 2.465s.324 1.752.908 2.465c.649.649 1.362 1.038 2.27 1.038s1.687-.324 2.27-1.038c.649-.649.908-1.492.908-2.465zm7.395 2.659c.389.519.973.778 1.622.778s1.233-.259 1.622-.778.584-1.168.584-2.076v-5.968h2.4v6.033c0 1.557-.454 2.789-1.297 3.633s-1.946 1.233-3.308 1.233-2.465-.454-3.308-1.297-1.297-2.076-1.297-3.633v-6.033h2.4v5.968c-.065.973.195 1.687.584 2.141h0z"/><use xlink:href="#I" x="62.146"/><path d="M313.637 206.338c1.038.973 1.557 2.27 1.557 3.957s-.519 2.984-1.492 3.957-2.53 1.492-4.606 1.492h-3.698V204.91h3.827c1.946 0 3.438.454 4.411 1.427h0zm-1.752 6.422c.584-.584.908-1.362.908-2.4s-.324-1.881-.908-2.465-1.492-.843-2.725-.843h-1.362v6.552h1.557c1.103-.065 1.946-.324 2.53-.843h0zm12.78 2.92l-.973-2.335h-4.541l-.973 2.335h-2.595l4.671-10.834h2.335l4.671 10.834h-2.595zm-3.244-7.59l-1.362 3.114h2.725l-1.362-3.114zm10.899-1.103v8.693h-2.4v-8.693h-3.114v-2.076h8.563v2.076zm4.8-2.076h2.4v10.834h-2.4z"/><use xlink:href="#H" x="175.606"/><path d="M362.485 204.911h2.4v10.834h-2.4l-5.125-6.747v6.747h-2.4v-10.834h2.27l5.319 6.941zM109.163 202.9h-5.903v13.882h13.818v-5.968h-7.914zm29.711.065v7.849h-7.914v-.065 6.033h13.818V202.9h-5.968zm-35.615-13.883h5.968l-.065-.065v-7.849h7.914V175.2h-13.818zM130.96 175.2v5.968h7.914v7.914h5.903V175.2z"/><path d="M130.181 189.082l-7.914-7.914h8.693V175.2h-13.882v5.968l7.914 7.914zm-7.136 13.818h-5.19l6.552 6.552 1.297 1.362h-8.628v5.968h13.882v-6.033l-3.957-3.892zm15.829-13.818v8.628l-7.914-7.914v5.255l7.849 7.849h5.968v-13.818zm-21.797 7.85l-7.849-7.849h-5.968V202.9h5.903v-8.628l7.914 7.914z" opacity=".8"/></g></g><g transform="translate(40.9 50)"><mask id="K" fill="#fff"><use xlink:href="#B"/></mask><g mask="url(#K)" class="C"><g transform="translate(30.6 4.5)"><use xlink:href="#C" class="B"/><use fill-opacity=".6" xlink:href="#C" class="E"/></g></g></g><g class="C"><g transform="translate(201.9 .5)"><g transform="matrix(1 0 0 -1 0 176.448054)"><use xlink:href="#D" class="B"/><use fill="#000" xlink:href="#D" class="D"/></g><g transform="matrix(1 0 0 -1 0 208.454804)"><use xlink:href="#E" class="B"/><use fill="#000" xlink:href="#E" class="D"/></g><g transform="matrix(1 0 0 -1 0 203.421506)"><use xlink:href="#F" class="B"/><use fill="#000" xlink:href="#F" class="D"/></g><path fill="#14ba5a" d="M3.07 139.891h41.25l45.584-45.98-2.557-2.535-44.528 44.915H3.07z"/><path d="M23.314 116.94l-15.007 7.226-2.297 10.062h34.546l-2.233-10.062z" class="F"/><path d="M47.884 126.52l10.101-10.127 8.227 8.21-10.101 10.125z" class="B"/><path d="M63.31 127.512l1.444-1.447-8.184-8.163-1.443 1.447 8.183 8.163zm-2.929 2.937L61.825 129l-8.229-8.209-1.443 1.449 8.227 8.209zm-2.835 2.842l1.444-1.449-8.227-8.209-1.444 1.449 8.227 8.209z" fill="#fff"/><g class="E"><path d="M123.369 57.204L90.26 90.265 52.04 51.993 85.149 18.93z"/><path d="M51.605 40.541l6.563-6.548 5.962 5.976 9.347-9.324-11.666-11.694 2.505-2.499-4.225-4.235-2.505 2.499-7.203-7.222-15.911 15.872 6.179 6.195 1.836 6.543 2.351-2.345.187.185 6.579 6.597z"/></g><path d="M36.249 25.181l-.048-.098L52.063 9.265 47.562 0l-4.756 4.743.098.048-11.155 11.128v-.003l-4.756 4.743 9.152 4.471.006.004.001-.001.098.048zM76.853 43.4l1.312-17.51-18.82 18.808z" fill="#f2f7fb"/><path d="M89.216 101.428l10.019-10.044h.081V18.921H85.146l-.001 70.131-4.158 4.167 8.229 8.209z" class="F"/></g><g transform="matrix(1 0 0 -1 0 73.770664)"><use xlink:href="#G" class="B"/><use fill="#000" xlink:href="#G" class="D"/></g></g><path d="M306.4 106.017h36.9v6.3h-36.9zm0 9.9h36.9l-3.6 31H310z" class="F"/><path d="M303.475 109.392c0 11.681 9.469 21.15 21.15 21.15s21.15-9.469 21.15-21.15" stroke="#14ba5a" stroke-width="1.8"/></g></svg>