<svg xmlns="http://www.w3.org/2000/svg" width="24" height="24"  xmlns:v="https://vecta.io/nano"><path d="M23 5.233c-.822.374-1.696.62-2.592.729a4.62 4.62 0 0 0 1.985-2.56 8.89 8.89 0 0 1-2.868 1.122 4.45 4.45 0 0 0-3.294-1.461c-2.491 0-4.512 2.072-4.512 4.628 0 .363.039.715.116 1.054-3.751-.194-7.077-2.034-9.304-4.838a4.71 4.71 0 0 0-.611 2.329 4.66 4.66 0 0 0 2.008 3.852 4.43 4.43 0 0 1-2.045-.577v.057c0 2.243 1.556 4.114 3.622 4.538-.387.11-.787.165-1.189.163-.291 0-.575-.028-.85-.083.575 1.838 2.24 3.177 4.216 3.213-1.545 1.242-3.492 1.982-5.605 1.982A9.08 9.08 0 0 1 1 19.318c1.998 1.311 4.371 2.078 6.919 2.078 8.303 0 12.842-7.051 12.842-13.168 0-.201-.004-.402-.012-.599.887-.658 1.649-1.469 2.251-2.396" fill="#fff"/></svg>