<svg xmlns="http://www.w3.org/2000/svg" xmlns:xlink="http://www.w3.org/1999/xlink" width="320" height="494" xmlns:v="https://vecta.io/nano"><style><![CDATA[.B{fill-rule:nonzero}.C{fill:#14ba5a}.D{mask:url(#Y)}.E{fill:#de3737}.F{fill:#fff}.G{fill:#96c2e2}.H{fill:#96c1e1}.I{fill:#eca529}.J{fill:#000}.K{fill:#262626}.L{fill:#006bb8}.M{mask:url(#Z)}.N{fill:#cde2f1}.O{fill:#3389c6}.P{fill-opacity:.5}.Q{fill:#d8e8f4}.R{stroke:#006bb8}.S{opacity:.441}.T{fill:#002c66}.U{fill:#4b96cd}.V{stroke-width:2}.W{mask:url(#a)}.X{stroke:#96c2e2}.Y{stroke-width:1.423}.Z{fill:#70abd7}.a{stroke-linejoin:round}.b{stroke-linecap:round}]]></style><defs><rect id="A" width="280" height="204.5" rx="6.5"/><filter x="-11.8%" y="-13.2%" width="123.6%" height="132.3%" id="B"><feOffset dy="6" in="SourceAlpha"/><feGaussianBlur stdDeviation="10"/><feColorMatrix values="0 0 0 0 0.0352941176   0 0 0 0 0.2   0 0 0 0 0.31372549  0 0 0 0.2 0"/></filter><rect id="C" x="98.5" y="57.5" width="92.5" height="67.5" rx="2.5"/><filter x="-3.2%" y="-4.4%" width="106.5%" height="108.9%" id="D"><feOffset in="SourceAlpha"/><feGaussianBlur stdDeviation="1"/><feColorMatrix values="0 0 0 0 0   0 0 0 0 0   0 0 0 0 0  0 0 0 0.272372159 0"/></filter><rect id="E" x="199.5" y="57.5" width="92.5" height="67.5" rx="2.5"/><path id="F" d="M-2.5 0h566v23.5h-566z"/><path d="M4 0h127a4 4 0 0 1 4 4v20a4 4 0 0 1-4 4H4a4 4 0 0 1-4-4V4a4 4 0 0 1 4-4z" id="G"/><filter x="-41.1%" y="-233.9%" width="197.0%" height="567.9%" id="H"><feMorphology radius="0.5" operator="dilate" in="SourceAlpha"/><feOffset dx="10"/><feGaussianBlur stdDeviation="20"/><feComposite in2="SourceAlpha" operator="out"/><feColorMatrix values="0 0 0 0 0.0352941176   0 0 0 0 0.2   0 0 0 0 0.31372549  0 0 0 0.2 0"/></filter><rect id="I" y=".752" width="258" height="133" rx="6.5"/><filter x="-9.7%" y="-26.3%" width="127.1%" height="152.6%" id="J"><feOffset dx="10" in="SourceAlpha"/><feGaussianBlur stdDeviation="10"/><feColorMatrix values="0 0 0 0 0.0352941176   0 0 0 0 0.2   0 0 0 0 0.31372549  0 0 0 0.2 0"/></filter><rect id="K" width="258" height="86" rx="6.5"/><filter x="-9.7%" y="-32.6%" width="127.1%" height="181.4%" id="L"><feOffset dx="10" dy="7" in="SourceAlpha"/><feGaussianBlur stdDeviation="10"/><feComposite in2="SourceAlpha" operator="out"/><feColorMatrix values="0 0 0 0 0.0087678976   0 0 0 0 0.246924617   0 0 0 0 0.418308424  0 0 0 0.1 0"/></filter><mask id="M" x="0" y="0" width="258" height="86" class="F"><use xlink:href="#K"/></mask><path d="M12.157 21.278c-.109-.109-.189-.257-.371-.259h0c-.035 1.097.967 2.258 1.955 2.261 1.047.003 1.958-1.038 1.955-2.232-.395.203-.646.622-1.1.746-.905.248-1.737.186-2.438-.516z" id="N"/><path d="M17.947 13.229c-.484-.035-.92.419-.876.908.047.525.357.823.887.814.54-.009.79-.354.861-.837-.062-.542-.354-.846-.873-.884z" id="O"/><path d="M9.557 13.232c-.486-.041-.926.41-.887.896.041.528.357.828.882.823.531-.006.802-.336.867-.834-.05-.545-.351-.843-.861-.884z" id="P"/><path id="Q" d="M3.205 1.132H6.41v7.923H3.205z"/><path id="R" d="M12.813 23.617L8.1 9.114H1.496z"/><path id="S" d="M12.813 23.617l4.712-14.503h6.604z"/><path d="M40.069 83.219l6.408 6.423h.051v46.339h-9.062V91.134l-2.659-2.666 5.262-5.249z" id="T"/><path id="U" d="M17.745 8.563c.521 0 .907-.198 1.16-.594s.379-.994.379-1.796c0-.774-.131-1.366-.392-1.774s-.644-.613-1.147-.613c-.516 0-.9.196-1.152.587s-.378.991-.378 1.8c0 .783.13 1.377.39 1.782s.64.608 1.139.608zm0-.454c-.347 0-.6-.154-.759-.462s-.238-.799-.238-1.474.079-1.165.238-1.471.412-.459.759-.459.606.155.763.465.236.798.236 1.465-.079 1.156-.236 1.468-.412.468-.763.468z"/><path id="V" d="M15.35 16.294c-.645-.019-1.228-.096-1.738-.24.035-.209-.03-.414.022-.565.142-.102.381-.101.596-.125-.186-.091-.447-.128-.662-.075-.005-.145-.07-.235-.11-.349.363-.129 1.219-.978 1.701-.697.229.134.327.897.345 1.268.015.308-.028.619-.153.782z"/><path id="W" d="M12.632 15.942c-.056-.321-.121-.413-.096-.693.856-.571 1.017.98.096.693z"/><path id="X" d="M13.655 17.058a.21.21 0 0 1-.209.209.21.21 0 0 1-.209-.209.21.21 0 0 1 .209-.209.21.21 0 0 1 .209.209z"/></defs><g transform="translate(20)" fill="none" fill-rule="evenodd"><g transform="translate(0 94.248)"><mask id="Y" class="F"><use xlink:href="#A"/></mask><g class="B"><use filter="url(#B)" xlink:href="#A" class="J"/><use xlink:href="#A" class="F"/></g><g class="D"><use filter="url(#D)" xlink:href="#C" class="J"/><use xlink:href="#C" class="F"/><g transform="translate(106 87.5)"><g stroke="#e2e2e2" class="V"><circle cx="5.5" cy="5.5" r="4.5"/><circle cx="31.5" cy="5.5" r="4.5"/><circle cx="57.5" cy="5.5" r="4.5"/></g><g fill="#333" class="B"><use xlink:href="#U"/><use xlink:href="#U" x="26.5"/><use xlink:href="#U" x="53"/></g></g><use filter="url(#D)" xlink:href="#E" class="J"/><use fill="#f8f8f8" xlink:href="#E"/><g class="B K"><path d="M108.642 73.098c.71 0 1.248-.269 1.616-.806h.054l.2.708h.898v-7.598h-1.152v1.968c0 .225.028.531.083.918h0-.059c-.371-.524-.911-.786-1.621-.786-.677 0-1.207.247-1.589.74s-.574 1.182-.574 2.068.189 1.567.566 2.056.903.732 1.577.732zm.308-.928c-.423 0-.741-.157-.952-.471s-.317-.771-.317-1.37c0-.605.109-1.072.327-1.399s.529-.491.933-.491c.472 0 .819.143 1.04.43s.332.77.332 1.45h0v.161c-.007.596-.117 1.026-.332 1.292s-.558.398-1.03.398zm6.46.928a5.21 5.21 0 0 0 .981-.083 3.54 3.54 0 0 0 .85-.283h0v-.933a4.67 4.67 0 0 1-.886.3c-.275.06-.572.09-.891.09-.485 0-.861-.141-1.128-.422s-.409-.684-.425-1.208h3.599v-.62c0-.758-.207-1.354-.62-1.787s-.977-.649-1.689-.649c-.768 0-1.372.252-1.812.757s-.659 1.198-.659 2.08c0 .859.237 1.534.71 2.024s1.13.735 1.97.735zm.972-3.369h-2.451c.042-.443.173-.78.393-1.011s.512-.347.876-.347.651.115.859.344.316.567.322 1.013h0zM121.283 73l2.061-5.4h-1.221l-1.099 3.14-.342 1.279h-.039c-.039-.326-.153-.752-.342-1.279h0l-1.099-3.14h-1.211l2.051 5.4h1.24zm86.939.098c.716 0 1.266-.141 1.65-.422s.576-.686.576-1.213c0-.26-.049-.484-.146-.671s-.247-.352-.449-.496-.526-.301-.972-.474c-.531-.205-.875-.366-1.033-.483a.52.52 0 0 1-.237-.43c0-.345.303-.518.908-.518.397 0 .887.12 1.47.361h0l.371-.864a4.31 4.31 0 0 0-1.802-.386c-.641 0-1.148.128-1.521.383a1.23 1.23 0 0 0-.559 1.077c0 .384.11.697.33.938s.64.482 1.262.723l.747.332c.179.098.308.192.386.283s.117.205.117.342c0 .426-.353.64-1.06.64-.547 0-1.138-.146-1.772-.439h0v.991c.436.218 1.014.327 1.733.327zm5.205 0a3.38 3.38 0 0 0 .623-.056 2.32 2.32 0 0 0 .491-.139h0v-.864a2.79 2.79 0 0 1-.84.132c-.225 0-.406-.066-.544-.198s-.208-.336-.208-.613h0v-2.891h1.538V67.6h-1.538v-1.201h-.708l-.391 1.143-.791.42v.508h.737v2.91c0 1.146.544 1.719 1.631 1.719zm3.501 0c.413 0 .752-.059 1.016-.178s.526-.343.786-.671h.039l.229.752h.82v-3.638c0-.641-.175-1.112-.525-1.411s-.868-.449-1.555-.449a4.41 4.41 0 0 0-.986.12 4.01 4.01 0 0 0-.962.349h0l.371.82a5.92 5.92 0 0 1 .732-.288 2.59 2.59 0 0 1 .796-.122c.339 0 .588.085.75.256s.242.429.242.774h0v.288l-.933.029c-.846.026-1.476.181-1.89.464s-.62.703-.62 1.26c0 .524.149.929.447 1.216s.712.43 1.243.43zm.361-.879c-.286 0-.501-.066-.645-.198s-.215-.318-.215-.559c0-.332.123-.579.369-.74s.639-.251 1.179-.271h0l.693-.029v.469c0 .42-.126.746-.378.979s-.587.349-1.003.349zm5.688 3.184c.954 0 1.683-.166 2.188-.498s.757-.804.757-1.416c0-.479-.155-.845-.464-1.099s-.762-.381-1.357-.381h0-.942c-.309 0-.522-.031-.637-.093s-.173-.155-.173-.278c0-.205.124-.384.371-.537.14.026.296.039.469.039.674 0 1.203-.16 1.587-.479s.576-.757.576-1.313a1.66 1.66 0 0 0-.083-.527 1.49 1.49 0 0 0-.21-.42h0l.923-.171v-.63h-1.87a2.98 2.98 0 0 0-.378-.066 3.87 3.87 0 0 0-.481-.032c-.684 0-1.21.161-1.58.483s-.554.776-.554 1.362a1.73 1.73 0 0 0 .261.955c.174.272.401.468.681.588-.225.137-.394.275-.508.415s-.171.311-.171.513c0 .16.05.312.149.457a.86.86 0 0 0 .378.315c-.378.088-.671.245-.881.471s-.315.505-.315.837a1.26 1.26 0 0 0 .581 1.113c.387.26.949.391 1.685.391zm.264-5c-.326 0-.575-.091-.75-.273s-.261-.443-.261-.781c0-.361.085-.636.256-.825s.422-.283.754-.283.585.095.75.286.247.461.247.813c0 .71-.332 1.064-.996 1.064zm-.229 4.209c-.404 0-.717-.067-.94-.2a.63.63 0 0 1-.334-.571.76.76 0 0 1 .291-.627c.194-.155.455-.232.784-.232h.869c.456 0 .767.05.935.149s.251.266.251.5c0 .296-.153.534-.459.713s-.771.269-1.396.269zm4.551-7.812c.202 0 .359-.056.471-.168s.168-.266.168-.461c0-.205-.056-.363-.168-.474s-.269-.166-.471-.166c-.208 0-.369.055-.481.166s-.168.269-.168.474c0 .195.056.349.168.461s.273.168.481.168zm.566 6.201v-5.4h-1.147V73h1.147zm2.788 0v-2.69c0-.674.112-1.154.337-1.44s.579-.43 1.064-.43c.365 0 .631.103.798.308s.251.516.251.933h0V73h1.152v-3.521c0-1.318-.648-1.978-1.943-1.978a2.32 2.32 0 0 0-.996.21c-.299.14-.531.339-.693.596h0-.059l-.161-.708h-.898V73h1.147zm6.758 2.402c.954 0 1.683-.166 2.188-.498s.757-.804.757-1.416c0-.479-.155-.845-.464-1.099s-.762-.381-1.357-.381h0-.942c-.309 0-.522-.031-.637-.093s-.173-.155-.173-.278c0-.205.124-.384.371-.537.14.026.296.039.469.039.674 0 1.203-.16 1.587-.479s.576-.757.576-1.313a1.66 1.66 0 0 0-.083-.527 1.49 1.49 0 0 0-.21-.42h0l.923-.171v-.63h-1.87a2.98 2.98 0 0 0-.378-.066 3.87 3.87 0 0 0-.481-.032c-.684 0-1.21.161-1.58.483s-.554.776-.554 1.362a1.73 1.73 0 0 0 .261.955c.174.272.401.468.681.588-.225.137-.394.275-.508.415s-.171.311-.171.513c0 .16.05.312.149.457a.86.86 0 0 0 .378.315c-.378.088-.671.245-.881.471s-.315.505-.315.837a1.26 1.26 0 0 0 .581 1.113c.387.26.949.391 1.685.391zm.264-5c-.326 0-.575-.091-.75-.273s-.261-.443-.261-.781c0-.361.085-.636.256-.825s.422-.283.754-.283.585.095.75.286.247.461.247.813c0 .71-.332 1.064-.996 1.064zm-.229 4.209c-.404 0-.717-.067-.94-.2a.63.63 0 0 1-.334-.571.76.76 0 0 1 .291-.627c.194-.155.455-.232.784-.232h.869c.456 0 .767.05.935.149s.251.266.251.5c0 .296-.153.534-.459.713s-.771.269-1.396.269z"/></g><g transform="translate(206 87.5)"><g stroke="#e2e2e2" class="V"><circle cx="5.5" cy="5.5" r="4.5"/><circle cx="31.5" cy="5.5" r="4.5"/></g><circle cx="57.5" cy="5.5" r="4.5" class="R V"/><g fill="#333" class="B"><use xlink:href="#U"/><use xlink:href="#U" x="26.5"/><path d="M71.161 8.5V3.86h-.444l-1.228.949.279.362.755-.619.149-.14-.025.781V8.5h.514z"/></g></g></g><path opacity=".199" d="M105.75 80h78.5m-78.5 25h78.5m22-25h78.5m-78.5 25h78.5" stroke="#979797" stroke-linecap="square" class="D"/><g fill="#d8d8d8" class="D"><rect x="106" y="111" width="37.5" height="8.5" rx="4.25" class="S"/><rect x="206" y="111" width="37.5" height="8.5" rx="4.25" class="S"/><rect x="145.5" y="111" width="32.5" height="8.5" rx="4.25" class="S"/><rect x="245.5" y="111" width="32.5" height="8.5" rx="4.25" class="S"/></g><g class="K D"><path d="M-2.5 23.5h91v255h-91z"/><path style="mix-blend-mode:multiply" opacity=".25" d="M-2.5 23.5h91v33h-91z"/></g><g class="B D"><path d="M16.461 44.5v-.742h-3.149v-2.627h2.959v-.732h-2.959v-2.3h3.149v-.737h-3.979V44.5h3.979zm2.271 0v-2.808c0-.697.13-1.196.391-1.499s.671-.454 1.23-.454c.423 0 .734.107.933.322s.298.54.298.977h0V44.5h.811v-3.491c0-.684-.163-1.181-.488-1.492s-.811-.466-1.455-.466c-.368 0-.701.072-1.001.217s-.532.349-.698.613h0-.039l-.132-.732h-.659V44.5h.811zm7.446 0l2.031-5.352h-.869l-1.282 3.547-.339 1.072h-.039c-.046-.221-.199-.703-.459-1.445h0l-1.152-3.174h-.869L25.23 44.5h.947zm3.301-6.26c.13 0 .243-.045.337-.134s.142-.225.142-.408-.047-.317-.142-.405-.207-.132-.337-.132c-.137 0-.251.043-.342.129s-.137.222-.137.408.046.318.137.408.205.134.342.134zm.4 6.26v-5.352h-.811V44.5h.811zm2.529 0v-2.871c0-.524.154-.962.461-1.313s.678-.527 1.111-.527a2.76 2.76 0 0 1 .586.073h0l.112-.752a3.17 3.17 0 0 0-.64-.059c-.335 0-.643.094-.923.283s-.519.457-.718.806h0-.039l-.093-.991h-.669V44.5h.811zm5.41.098c.775 0 1.382-.245 1.821-.735s.659-1.171.659-2.043c0-.85-.221-1.523-.662-2.021s-1.036-.747-1.785-.747c-.775 0-1.38.243-1.816.73s-.654 1.166-.654 2.039c0 .563.101 1.055.303 1.475s.488.742.859.967.796.337 1.274.337zm.02-.679c-.531 0-.933-.179-1.206-.537s-.41-.879-.41-1.562c0-.69.135-1.209.405-1.558s.671-.522 1.201-.522c.537 0 .943.177 1.218.53s.413.87.413 1.55c0 .687-.138 1.208-.413 1.565s-.678.535-1.208.535zm4.692.581v-2.808c0-.697.13-1.196.391-1.499s.671-.454 1.23-.454c.423 0 .734.107.933.322s.298.54.298.977h0V44.5h.811v-3.491c0-.684-.163-1.181-.488-1.492s-.811-.466-1.455-.466c-.368 0-.701.072-1.001.217s-.532.349-.698.613h0-.039l-.132-.732h-.659V44.5h.811zm6.138 0v-2.808c0-.693.118-1.192.354-1.497s.608-.457 1.116-.457c.387 0 .672.107.854.32s.273.533.273.959h0V44.5h.811v-2.988c0-.602.12-1.048.361-1.338s.614-.435 1.118-.435c.384 0 .667.107.85.32s.273.533.273.959h0V44.5h.811v-3.491c0-.684-.151-1.181-.452-1.492s-.754-.466-1.36-.466c-.387 0-.732.081-1.035.244s-.534.384-.693.664h0-.039c-.257-.605-.804-.908-1.641-.908-.345 0-.657.073-.935.22s-.494.35-.647.61h0-.039l-.132-.732h-.659V44.5h.811zm10.752.098c.361 0 .67-.027.925-.081a4.29 4.29 0 0 0 .813-.266h0v-.723a4.31 4.31 0 0 1-1.709.361c-.547 0-.971-.163-1.272-.488s-.46-.802-.476-1.431h3.687v-.513c0-.723-.195-1.305-.586-1.746s-.921-.662-1.592-.662c-.716 0-1.287.254-1.711.762s-.637 1.193-.637 2.056c0 .856.229 1.525.686 2.007s1.082.723 1.873.723zm1.099-3.286h-2.798c.046-.495.196-.882.452-1.162s.598-.42 1.028-.42c.423 0 .749.136.977.408s.342.663.342 1.174h0zM63.58 44.5v-2.808c0-.697.13-1.196.391-1.499s.671-.454 1.23-.454c.423 0 .734.107.933.322s.298.54.298.977h0V44.5h.811v-3.491c0-.684-.163-1.181-.488-1.492s-.811-.466-1.455-.466c-.368 0-.701.072-1.001.217s-.532.349-.698.613h0-.039l-.132-.732h-.659V44.5h.811zm6.938.098c.137 0 .291-.014.461-.042s.3-.063.388-.105h0v-.62c-.078.023-.184.045-.317.066a2.65 2.65 0 0 1-.415.032c-.267 0-.477-.086-.63-.259s-.229-.42-.229-.742h0v-3.149h1.553v-.63h-1.553v-1.24h-.469l-.342 1.143-.767.337v.391h.767v3.184c0 1.09.518 1.636 1.553 1.636z" class="F"/><path d="M100.912 44.598c.869 0 1.54-.183 2.012-.549s.708-.889.708-1.57c0-.475-.138-.859-.415-1.152s-.701-.475-1.274-.547h0v-.039c.469-.098.831-.291 1.086-.581s.383-.662.383-1.118c0-.553-.192-.989-.576-1.306s-.923-.476-1.616-.476c-.423 0-.826.066-1.208.198a3.42 3.42 0 0 0-1.013.544h0l.41.547c.355-.228.671-.384.947-.469s.571-.127.884-.127c.41 0 .735.099.974.298s.359.472.359.82c0 .436-.163.777-.488 1.023s-.767.369-1.323.369h0-.713v.698h.703c1.361 0 2.041.433 2.041 1.299 0 .967-.617 1.45-1.851 1.45-.312 0-.644-.04-.994-.12a4.45 4.45 0 0 1-.989-.349h0v.771a3.55 3.55 0 0 0 .916.3 5.83 5.83 0 0 0 1.038.085zm8.374 0c.781 0 1.4-.176 1.855-.527s.684-.841.684-1.47c0-.488-.141-.885-.422-1.191s-.797-.592-1.545-.859c-.446-.16-.777-.305-.994-.437s-.37-.277-.461-.435-.137-.361-.137-.608c0-.335.124-.597.371-.786s.591-.283 1.03-.283c.557 0 1.13.124 1.719.371h0l.259-.723c-.596-.26-1.248-.391-1.958-.391-.68 0-1.227.163-1.641.488s-.62.763-.62 1.313c0 .524.142.949.427 1.274s.759.607 1.423.845c.475.169.829.321 1.062.454s.399.279.498.437.149.361.149.608c0 .374-.14.667-.42.876s-.697.315-1.25.315c-.339 0-.68-.036-1.025-.107s-.664-.169-.957-.293h0v.801c.456.218 1.107.327 1.953.327zm5.488 0c.137 0 .291-.014.461-.042s.3-.063.388-.105h0v-.62c-.078.023-.184.045-.317.066a2.65 2.65 0 0 1-.415.032c-.267 0-.477-.086-.63-.259s-.229-.42-.229-.742h0v-3.149h1.553v-.63h-1.553v-1.24h-.469l-.342 1.143-.767.337v.391h.767v3.184c0 1.09.518 1.636 1.553 1.636zm3.218 0c.397 0 .728-.059.994-.178s.531-.346.798-.681h.039l.161.762h.601v-3.652c0-.625-.154-1.079-.461-1.362s-.78-.425-1.418-.425c-.316 0-.631.041-.945.122a3.81 3.81 0 0 0-.867.337h0l.249.62c.563-.273 1.068-.41 1.514-.41.397 0 .686.1.867.3s.271.51.271.93h0v.332l-.908.029c-1.729.052-2.593.618-2.593 1.699 0 .505.151.894.452 1.167s.717.41 1.248.41zm.161-.669c-.319 0-.567-.076-.745-.229s-.266-.376-.266-.669c0-.374.142-.65.427-.828s.75-.278 1.394-.3h0l.811-.034v.483c0 .498-.144.885-.432 1.162s-.684.415-1.189.415zm5.62 2.974c.911 0 1.605-.155 2.08-.466s.713-.763.713-1.355c0-.465-.155-.82-.466-1.064s-.756-.366-1.335-.366h0-.947c-.293 0-.5-.035-.62-.105a.35.35 0 0 1-.181-.325c0-.277.173-.506.518-.688.14.026.29.039.449.039.625 0 1.117-.156 1.475-.469s.537-.731.537-1.255c0-.231-.036-.439-.107-.623s-.153-.333-.244-.447h0l.991-.117v-.513h-1.851c-.225-.065-.477-.098-.757-.098-.645 0-1.143.159-1.494.476s-.527.769-.527 1.355c0 .352.087.664.261.938s.4.467.676.581c-.225.137-.389.278-.493.425a.86.86 0 0 0-.156.513c0 .173.046.324.139.454s.208.226.344.288c-.378.085-.671.246-.879.483a1.24 1.24 0 0 0-.312.845 1.26 1.26 0 0 0 .569 1.104c.379.26.919.391 1.619.391zm.234-4.902c-.378 0-.672-.096-.884-.288s-.317-.475-.317-.85c0-.404.103-.708.308-.913s.498-.308.879-.308c.801 0 1.201.402 1.201 1.206 0 .768-.396 1.152-1.187 1.152zm-.225 4.282c-.456 0-.806-.075-1.05-.225s-.366-.369-.366-.659c0-.329.103-.581.308-.757s.492-.264.859-.264h.972c.495 0 .832.056 1.011.168s.269.313.269.603c0 .348-.164.624-.491.828s-.831.305-1.511.305zm6.211-1.685c.361 0 .67-.027.925-.081a4.29 4.29 0 0 0 .813-.266h0v-.723a4.31 4.31 0 0 1-1.709.361c-.547 0-.971-.163-1.272-.488s-.46-.802-.476-1.431h3.687v-.513c0-.723-.195-1.305-.586-1.746s-.921-.662-1.592-.662c-.716 0-1.287.254-1.711.762s-.637 1.193-.637 2.056c0 .856.229 1.525.686 2.007s1.082.723 1.873.723zm1.099-3.286h-2.798c.046-.495.196-.882.452-1.162s.598-.42 1.028-.42c.423 0 .749.136.977.408s.342.663.342 1.174h0zm3.584 3.286c.671 0 1.191-.135 1.563-.405s.557-.654.557-1.152a1.23 1.23 0 0 0-.334-.884c-.223-.234-.652-.467-1.287-.698l-.937-.396c-.163-.091-.281-.187-.354-.288s-.11-.223-.11-.366c0-.212.098-.378.293-.498s.485-.181.869-.181c.436 0 .923.111 1.46.332h0l.288-.659a4.27 4.27 0 0 0-1.689-.352c-.618 0-1.105.126-1.46.378a1.2 1.2 0 0 0-.532 1.033c0 .244.051.454.154.63a1.45 1.45 0 0 0 .469.471c.21.138.564.3 1.062.486.524.202.876.377 1.057.525a.67.67 0 0 1 .271.535.67.67 0 0 1-.342.618c-.228.135-.553.203-.977.203-.273 0-.557-.037-.852-.112s-.57-.177-.828-.308h0v.752c.397.225.951.337 1.66.337z" class="K"/><g class="F"><path d="M13.971 71.098c.781 0 1.4-.176 1.855-.527s.684-.841.684-1.47c0-.488-.141-.885-.422-1.191s-.797-.592-1.545-.859c-.446-.16-.777-.305-.994-.437s-.37-.277-.461-.435-.137-.361-.137-.608c0-.335.124-.597.371-.786s.591-.283 1.03-.283c.557 0 1.13.124 1.719.371h0l.259-.723c-.596-.26-1.248-.391-1.958-.391-.68 0-1.227.163-1.641.488a1.58 1.58 0 0 0-.62 1.313c0 .524.142.949.427 1.274s.759.607 1.423.845c.475.169.829.321 1.062.454s.399.279.498.437.149.361.149.608a1.03 1.03 0 0 1-.42.876c-.28.209-.697.315-1.25.315a5.07 5.07 0 0 1-1.025-.107c-.345-.071-.664-.169-.957-.293h0v.801c.456.218 1.107.327 1.953.327zm6.138 0a4.54 4.54 0 0 0 .925-.081 4.29 4.29 0 0 0 .813-.266h0v-.723a4.31 4.31 0 0 1-1.709.361c-.547 0-.971-.163-1.272-.488s-.46-.802-.476-1.431h3.687v-.513c0-.723-.195-1.305-.586-1.746s-.921-.662-1.592-.662c-.716 0-1.287.254-1.711.762s-.637 1.193-.637 2.056c0 .856.229 1.525.686 2.007s1.082.723 1.873.723zm1.099-3.286H18.41c.046-.495.196-.882.452-1.162s.598-.42 1.028-.42c.423 0 .749.136.977.408s.342.663.342 1.174h0zM24.269 71v-2.871c0-.524.154-.962.461-1.313s.678-.527 1.111-.527a2.76 2.76 0 0 1 .586.073h0l.112-.752a3.17 3.17 0 0 0-.64-.059c-.335 0-.643.094-.923.283s-.519.457-.718.806h0-.039l-.093-.991h-.669V71h.811zm5.391 0l2.031-5.352h-.869l-1.282 3.547-.339 1.072h-.039c-.046-.221-.199-.703-.459-1.445h0l-1.152-3.174h-.869L28.712 71h.947zm3.301-6.26c.13 0 .243-.045.337-.134s.142-.225.142-.408-.047-.317-.142-.405a.48.48 0 0 0-.337-.132c-.137 0-.251.043-.342.129s-.137.222-.137.408.046.318.137.408.205.134.342.134zm.4 6.26v-5.352h-.811V71h.811zm3.857.098c.544 0 .994-.093 1.353-.278h0v-.718c-.469.192-.926.288-1.372.288-.521 0-.914-.176-1.179-.527s-.398-.856-.398-1.514c0-1.387.544-2.08 1.631-2.08.163 0 .35.024.562.071a3.81 3.81 0 0 1 .586.178h0l.249-.688c-.146-.075-.348-.14-.605-.195a3.66 3.66 0 0 0-.771-.083c-.798 0-1.412.244-1.843.732s-.647 1.18-.647 2.075c0 .872.212 1.547.637 2.024s1.025.715 1.799.715zm4.883 0a4.54 4.54 0 0 0 .925-.081 4.29 4.29 0 0 0 .813-.266h0v-.723a4.31 4.31 0 0 1-1.709.361c-.547 0-.971-.163-1.272-.488s-.46-.802-.476-1.431h3.687v-.513c0-.723-.195-1.305-.586-1.746s-.921-.662-1.592-.662c-.716 0-1.287.254-1.711.762s-.637 1.193-.637 2.056c0 .856.229 1.525.686 2.007s1.082.723 1.873.723zm1.099-3.286h-2.798c.046-.495.196-.882.452-1.162s.598-.42 1.028-.42c.423 0 .749.136.977.408s.342.663.342 1.174h0zm3.584 3.286c.671 0 1.191-.135 1.563-.405s.557-.654.557-1.152a1.23 1.23 0 0 0-.334-.884c-.223-.234-.652-.467-1.287-.698l-.937-.396c-.163-.091-.281-.187-.354-.288s-.11-.223-.11-.366c0-.212.098-.378.293-.498s.485-.181.869-.181c.436 0 .923.111 1.46.332h0l.288-.659a4.27 4.27 0 0 0-1.689-.352c-.618 0-1.105.126-1.46.378a1.2 1.2 0 0 0-.532 1.033c0 .244.051.454.154.63a1.45 1.45 0 0 0 .469.471c.21.138.564.3 1.062.486.524.202.876.377 1.057.525a.67.67 0 0 1 .271.535.67.67 0 0 1-.342.618c-.228.135-.553.203-.977.203-.273 0-.557-.037-.852-.112a3.99 3.99 0 0 1-.828-.308h0v.752c.397.225.951.337 1.66.337zm-32.813 22c.781 0 1.4-.176 1.855-.527s.684-.841.684-1.47c0-.488-.141-.885-.422-1.191s-.797-.592-1.545-.859c-.446-.16-.777-.305-.994-.437s-.37-.277-.461-.435-.137-.361-.137-.608c0-.335.124-.597.371-.786s.591-.283 1.03-.283c.557 0 1.13.124 1.719.371h0l.259-.723c-.596-.26-1.248-.391-1.958-.391-.68 0-1.227.163-1.641.488a1.58 1.58 0 0 0-.62 1.313c0 .524.142.949.427 1.274s.759.607 1.423.845c.475.169.829.321 1.062.454s.399.279.498.437.149.361.149.608a1.03 1.03 0 0 1-.42.876c-.28.209-.697.315-1.25.315a5.07 5.07 0 0 1-1.025-.107c-.345-.071-.664-.169-.957-.293h0v.801c.456.218 1.107.327 1.953.327zM21.949 93v-.752H18.8v-6.387h-.83V93h3.979zm4.131.098c1.029 0 1.832-.327 2.41-.981s.867-1.553.867-2.695-.288-2.044-.864-2.695-1.377-.977-2.402-.977c-1.055 0-1.868.32-2.441.959s-.859 1.541-.859 2.703c0 1.172.286 2.079.857 2.722s1.383.964 2.434.964zm0-.728c-.785 0-1.383-.25-1.794-.75s-.618-1.233-.618-2.2c0-.954.206-1.681.618-2.18s1.013-.75 1.804-.75 1.383.248 1.785.745.603 1.225.603 2.185c0 .97-.202 1.704-.605 2.202s-1.001.747-1.792.747zm6.079.728c.671 0 1.191-.135 1.563-.405s.557-.654.557-1.152a1.23 1.23 0 0 0-.334-.884c-.223-.234-.652-.467-1.287-.698l-.937-.396c-.163-.091-.281-.187-.354-.288s-.11-.223-.11-.366c0-.212.098-.378.293-.498s.485-.181.869-.181c.436 0 .923.111 1.46.332h0l.288-.659a4.27 4.27 0 0 0-1.689-.352c-.618 0-1.105.126-1.46.378a1.2 1.2 0 0 0-.532 1.033c0 .244.051.454.154.63a1.45 1.45 0 0 0 .469.471c.21.138.564.3 1.062.486.524.202.876.377 1.057.525a.67.67 0 0 1 .271.535.67.67 0 0 1-.342.618c-.228.135-.553.203-.977.203-.273 0-.557-.037-.852-.112a3.99 3.99 0 0 1-.828-.308h0v.752c.397.225.951.337 1.66.337z"/><path d="M13.312 116v-2.969h1.489L16.529 116h.981l-1.938-3.208c.957-.332 1.436-.97 1.436-1.914 0-.674-.209-1.178-.627-1.514s-1.065-.503-1.941-.503h0-1.958V116h.83zm1.138-3.682h-1.138v-2.729h1.079c.615 0 1.062.104 1.34.313s.417.549.417 1.021c0 .465-.137.815-.41 1.047s-.703.349-1.289.349h0zm6.353 3.779a4.54 4.54 0 0 0 .925-.081 4.29 4.29 0 0 0 .813-.266h0v-.723a4.31 4.31 0 0 1-1.709.361c-.547 0-.971-.163-1.272-.488s-.46-.802-.476-1.431h3.687v-.513c0-.723-.195-1.305-.586-1.746s-.921-.662-1.592-.662c-.716 0-1.287.254-1.711.762s-.637 1.193-.637 2.056c0 .856.229 1.525.686 2.007s1.082.723 1.873.723zm1.099-3.286h-2.798c.046-.495.196-.882.452-1.162s.598-.42 1.028-.42c.423 0 .749.136.977.408s.342.663.342 1.174h0zm3.06 3.189v-2.808c0-.693.118-1.192.354-1.497s.608-.457 1.116-.457c.387 0 .672.107.854.32s.273.533.273.959h0V116h.811v-2.988c0-.602.12-1.048.361-1.338s.614-.435 1.118-.435c.384 0 .667.107.85.32s.273.533.273.959h0V116h.811v-3.491c0-.684-.151-1.181-.452-1.492s-.754-.466-1.36-.466a2.15 2.15 0 0 0-1.035.244 1.7 1.7 0 0 0-.693.664h0-.039c-.257-.605-.804-.908-1.641-.908a1.97 1.97 0 0 0-.935.22 1.6 1.6 0 0 0-.647.61h0-.039l-.132-.732h-.659V116h.811zm10.752.098a4.54 4.54 0 0 0 .925-.081 4.29 4.29 0 0 0 .813-.266h0v-.723a4.31 4.31 0 0 1-1.709.361c-.547 0-.971-.163-1.272-.488s-.46-.802-.476-1.431h3.687v-.513c0-.723-.195-1.305-.586-1.746s-.921-.662-1.592-.662c-.716 0-1.287.254-1.711.762s-.637 1.193-.637 2.056c0 .856.229 1.525.686 2.007s1.082.723 1.873.723zm1.099-3.286h-2.798c.046-.495.196-.882.452-1.162s.598-.42 1.028-.42c.423 0 .749.136.977.408s.342.663.342 1.174h0zm4.17 3.286c.745 0 1.305-.272 1.68-.815h.044l.107.718h.659v-7.598h-.811v2.178l.02.376.034.386h-.063c-.387-.527-.944-.791-1.67-.791-.697 0-1.24.244-1.631.732s-.586 1.174-.586 2.056.194 1.563.583 2.041.933.718 1.633.718zm.103-.679c-.485 0-.853-.174-1.104-.522s-.376-.864-.376-1.548c0-.674.126-1.195.378-1.565s.616-.554 1.091-.554c.553 0 .956.162 1.208.486s.378.865.378 1.624h0v.171c0 .671-.125 1.156-.374 1.458s-.65.452-1.204.452zm4.517-5.679c.13 0 .243-.045.337-.134s.142-.225.142-.408-.047-.317-.142-.405a.48.48 0 0 0-.337-.132c-.137 0-.251.043-.342.129s-.137.222-.137.408.046.318.137.408.205.134.342.134zm.4 6.26v-5.352h-.811V116h.811zm3.018.098c.397 0 .728-.059.994-.178s.531-.346.798-.681h.039l.161.762h.601v-3.652c0-.625-.154-1.079-.461-1.362s-.78-.425-1.418-.425a3.77 3.77 0 0 0-.945.122 3.81 3.81 0 0 0-.867.337h0l.249.62c.563-.273 1.068-.41 1.514-.41.397 0 .686.1.867.3s.271.51.271.93h0v.332l-.908.029c-1.729.052-2.593.618-2.593 1.699 0 .505.151.894.452 1.167s.717.41 1.248.41zm.161-.669c-.319 0-.567-.076-.745-.229s-.266-.376-.266-.669c0-.374.142-.65.427-.828s.75-.278 1.394-.3h0l.811-.034v.483c0 .498-.144.885-.432 1.162s-.684.415-1.189.415zm5.713.669c.137 0 .291-.014.461-.042s.3-.063.388-.105h0v-.62c-.078.023-.184.045-.317.066a2.65 2.65 0 0 1-.415.032c-.267 0-.477-.086-.63-.259s-.229-.42-.229-.742h0v-3.149h1.553v-.63h-1.553v-1.24h-.469l-.342 1.143-.767.337v.391h.767v3.184c0 1.09.518 1.636 1.553 1.636zm2.329-6.357c.13 0 .243-.045.337-.134s.142-.225.142-.408-.047-.317-.142-.405a.48.48 0 0 0-.337-.132c-.137 0-.251.043-.342.129s-.137.222-.137.408.046.318.137.408.205.134.342.134zm.4 6.26v-5.352h-.811V116h.811zm3.857.098c.775 0 1.382-.245 1.821-.735s.659-1.171.659-2.043c0-.85-.221-1.523-.662-2.021s-1.036-.747-1.785-.747c-.775 0-1.38.243-1.816.73s-.654 1.166-.654 2.039c0 .563.101 1.055.303 1.475s.488.742.859.967.796.337 1.274.337zm.02-.679c-.531 0-.933-.179-1.206-.537s-.41-.879-.41-1.562c0-.69.135-1.209.405-1.558s.671-.522 1.201-.522c.537 0 .943.177 1.218.53s.413.87.413 1.55c0 .687-.138 1.208-.413 1.565s-.678.535-1.208.535zm4.692.581v-2.808c0-.697.13-1.196.391-1.499s.671-.454 1.23-.454c.423 0 .734.107.933.322s.298.54.298.977h0V116h.811v-3.491c0-.684-.163-1.181-.488-1.492s-.811-.466-1.455-.466c-.368 0-.701.072-1.001.217a1.65 1.65 0 0 0-.698.613h0-.039l-.132-.732h-.659V116h.811zm6.66.098c.671 0 1.191-.135 1.563-.405s.557-.654.557-1.152a1.23 1.23 0 0 0-.334-.884c-.223-.234-.652-.467-1.287-.698l-.937-.396c-.163-.091-.281-.187-.354-.288s-.11-.223-.11-.366c0-.212.098-.378.293-.498s.485-.181.869-.181c.436 0 .923.111 1.46.332h0l.288-.659a4.27 4.27 0 0 0-1.689-.352c-.618 0-1.105.126-1.46.378a1.2 1.2 0 0 0-.532 1.033c0 .244.051.454.154.63a1.45 1.45 0 0 0 .469.471c.21.138.564.3 1.062.486.524.202.876.377 1.057.525a.67.67 0 0 1 .271.535.67.67 0 0 1-.342.618c-.228.135-.553.203-.977.203-.273 0-.557-.037-.852-.112a3.99 3.99 0 0 1-.828-.308h0v.752c.397.225.951.337 1.66.337zM13.312 138v-7.139h-.83V138h.83zm2.646 0v-2.808c0-.697.13-1.196.391-1.499s.671-.454 1.23-.454c.423 0 .734.107.933.322s.298.54.298.977h0V138h.811v-3.491c0-.684-.163-1.181-.488-1.492s-.811-.466-1.455-.466c-.368 0-.701.072-1.001.217a1.65 1.65 0 0 0-.698.613h0-.039l-.132-.732h-.659V138h.811zm6.938.098c.137 0 .291-.014.461-.042s.3-.063.388-.105h0v-.62c-.078.023-.184.045-.317.066a2.65 2.65 0 0 1-.415.032c-.267 0-.477-.086-.63-.259s-.229-.42-.229-.742h0v-3.149h1.553v-.63h-1.553v-1.24h-.469l-.342 1.143-.767.337v.391h.767v3.184c0 1.09.518 1.636 1.553 1.636zm4.18 0a4.54 4.54 0 0 0 .925-.081 4.29 4.29 0 0 0 .813-.266h0v-.723a4.31 4.31 0 0 1-1.709.361c-.547 0-.971-.163-1.272-.488s-.46-.802-.476-1.431h3.687v-.513c0-.723-.195-1.305-.586-1.746s-.921-.662-1.592-.662c-.716 0-1.287.254-1.711.762s-.637 1.193-.637 2.056c0 .856.229 1.525.686 2.007s1.082.723 1.873.723zm1.099-3.286h-2.798c.046-.495.196-.882.452-1.162s.598-.42 1.028-.42c.423 0 .749.136.977.408s.342.663.342 1.174h0zm3.77 5.591c.911 0 1.605-.155 2.08-.466s.713-.763.713-1.355c0-.465-.155-.82-.466-1.064s-.756-.366-1.335-.366h0-.947c-.293 0-.5-.035-.62-.105a.35.35 0 0 1-.181-.325c0-.277.173-.506.518-.688a2.46 2.46 0 0 0 .449.039c.625 0 1.117-.156 1.475-.469s.537-.731.537-1.255a1.72 1.72 0 0 0-.107-.623c-.071-.184-.153-.333-.244-.447h0l.991-.117v-.513h-1.851c-.225-.065-.477-.098-.757-.098-.645 0-1.143.159-1.494.476s-.527.769-.527 1.355a1.71 1.71 0 0 0 .261.938c.174.274.4.467.676.581-.225.137-.389.278-.493.425a.86.86 0 0 0-.156.513.76.76 0 0 0 .139.454c.093.13.208.226.344.288-.378.085-.671.246-.879.483a1.24 1.24 0 0 0-.312.845 1.26 1.26 0 0 0 .569 1.104c.379.26.919.391 1.619.391zm.234-4.902c-.378 0-.672-.096-.884-.288s-.317-.475-.317-.85c0-.404.103-.708.308-.913s.498-.308.879-.308c.801 0 1.201.402 1.201 1.206 0 .768-.396 1.152-1.187 1.152zm-.225 4.282c-.456 0-.806-.075-1.05-.225s-.366-.369-.366-.659c0-.329.103-.581.308-.757s.492-.264.859-.264h.972c.495 0 .832.056 1.011.168s.269.313.269.603c0 .348-.164.624-.491.828s-.831.305-1.511.305zM36.715 138v-2.871c0-.524.154-.962.461-1.313s.678-.527 1.111-.527a2.76 2.76 0 0 1 .586.073h0l.112-.752a3.17 3.17 0 0 0-.64-.059c-.335 0-.643.094-.923.283s-.519.457-.718.806h0-.039l-.093-.991h-.669V138h.811zm4.57.098c.397 0 .728-.059.994-.178s.531-.346.798-.681h.039l.161.762h.601v-3.652c0-.625-.154-1.079-.461-1.362s-.78-.425-1.418-.425a3.77 3.77 0 0 0-.945.122 3.81 3.81 0 0 0-.867.337h0l.249.62c.563-.273 1.068-.41 1.514-.41.397 0 .686.1.867.3s.271.51.271.93h0v.332l-.908.029c-1.729.052-2.593.618-2.593 1.699 0 .505.151.894.452 1.167s.717.41 1.248.41zm.161-.669c-.319 0-.567-.076-.745-.229s-.266-.376-.266-.669c0-.374.142-.65.427-.828s.75-.278 1.394-.3h0l.811-.034v.483c0 .498-.144.885-.432 1.162s-.684.415-1.189.415zm5.713.669c.137 0 .291-.014.461-.042s.3-.063.388-.105h0v-.62c-.078.023-.184.045-.317.066a2.65 2.65 0 0 1-.415.032c-.267 0-.477-.086-.63-.259s-.229-.42-.229-.742h0v-3.149h1.553v-.63h-1.553v-1.24h-.469l-.342 1.143-.767.337v.391h.767v3.184c0 1.09.518 1.636 1.553 1.636zm2.329-6.357c.13 0 .243-.045.337-.134s.142-.225.142-.408-.047-.317-.142-.405a.48.48 0 0 0-.337-.132c-.137 0-.251.043-.342.129s-.137.222-.137.408.046.318.137.408.205.134.342.134zm.4 6.26v-5.352h-.811V138h.811zm3.857.098c.775 0 1.382-.245 1.821-.735s.659-1.171.659-2.043c0-.85-.221-1.523-.662-2.021s-1.036-.747-1.785-.747c-.775 0-1.38.243-1.816.73s-.654 1.166-.654 2.039c0 .563.101 1.055.303 1.475s.488.742.859.967.796.337 1.274.337zm.02-.679c-.531 0-.933-.179-1.206-.537s-.41-.879-.41-1.562c0-.69.135-1.209.405-1.558s.671-.522 1.201-.522c.537 0 .943.177 1.218.53s.413.87.413 1.55c0 .687-.138 1.208-.413 1.565s-.678.535-1.208.535zm4.692.581v-2.808c0-.697.13-1.196.391-1.499s.671-.454 1.23-.454c.423 0 .734.107.933.322s.298.54.298.977h0V138h.811v-3.491c0-.684-.163-1.181-.488-1.492s-.811-.466-1.455-.466c-.368 0-.701.072-1.001.217a1.65 1.65 0 0 0-.698.613h0-.039l-.132-.732h-.659V138h.811zm6.66.098c.671 0 1.191-.135 1.563-.405s.557-.654.557-1.152a1.23 1.23 0 0 0-.334-.884c-.223-.234-.652-.467-1.287-.698l-.937-.396c-.163-.091-.281-.187-.354-.288s-.11-.223-.11-.366c0-.212.098-.378.293-.498s.485-.181.869-.181c.436 0 .923.111 1.46.332h0l.288-.659a4.27 4.27 0 0 0-1.689-.352c-.618 0-1.105.126-1.46.378a1.2 1.2 0 0 0-.532 1.033c0 .244.051.454.154.63a1.45 1.45 0 0 0 .469.471c.21.138.564.3 1.062.486.524.202.876.377 1.057.525a.67.67 0 0 1 .271.535.67.67 0 0 1-.342.618c-.228.135-.553.203-.977.203-.273 0-.557-.037-.852-.112a3.99 3.99 0 0 1-.828-.308h0v.752c.397.225.951.337 1.66.337z"/></g></g><g class="D"><use xlink:href="#F" class="T"/><use xlink:href="#F" class="L P"/><path d="M22.254 8.583l.268 1.293L15.145 19h-1.338l8.447-10.417zm.535 2.585l.535 2.357c.076.266 0 .57-.191.798h0l-3.478 4.334c-.191.19-.459.342-.764.342h0-2.408l6.307-7.832zM20.84 7.1l.803.38c.038.038.076.038.115.076h0l-9.059 11.215c0-.038-.038-.076-.076-.114h0l-.573-.722L20.84 7.1zm-1.911-.912l.917.456-8.447 10.455-.65-.798 8.18-10.113zm-3.096-1.103c.268-.114.573-.114.841 0h0l1.3.646-2.867 3.574a1.86 1.86 0 0 0-.535-.684c-.803-.684-1.949-.532-2.637.266s-.535 1.977.268 2.623c.229.19.497.304.764.38h0L10.1 15.464l-.879-1.141c-.191-.228-.268-.532-.191-.798h0l1.261-5.399c.038-.114.076-.228.153-.342.115-.114.229-.228.382-.304h0zm-3.134 4.448c.306-.342.803-.418 1.185-.114.382.266.42.798.115 1.179h0l-.08.08a.84.84 0 0 1-1.105.034c-.344-.304-.42-.798-.115-1.179z" class="B F"/></g></g><g transform="translate(134 211)"><g class="B"><use filter="url(#H)" xlink:href="#G" class="J"/><use xlink:href="#G" class="F R"/></g><circle stroke-width="3.2" cx="14.4" cy="14.4" r="7.2" class="R"/><path d="M32.291 18.2v-7.139h-.684l-1.89 1.46.43.557 1.162-.952.229-.215-.039 1.201V18.2h.791zm7.017.098c.671 0 1.191-.135 1.563-.405s.557-.654.557-1.152a1.23 1.23 0 0 0-.334-.884c-.223-.234-.652-.467-1.287-.698l-.937-.396c-.163-.091-.281-.187-.354-.288s-.11-.223-.11-.366c0-.212.098-.378.293-.498s.485-.181.869-.181c.436 0 .923.111 1.46.332h0l.288-.659a4.27 4.27 0 0 0-1.689-.352c-.618 0-1.105.126-1.46.378a1.2 1.2 0 0 0-.532 1.033c0 .244.051.454.154.63a1.45 1.45 0 0 0 .469.471c.21.138.564.3 1.062.486.524.202.876.377 1.057.525a.67.67 0 0 1 .271.535.67.67 0 0 1-.342.618c-.228.135-.553.203-.977.203-.273 0-.557-.037-.852-.112s-.57-.177-.828-.308h0v.752c.397.225.951.337 1.66.337zm5.698 0c.361 0 .67-.027.925-.081a4.29 4.29 0 0 0 .813-.266h0v-.723a4.31 4.31 0 0 1-1.709.361c-.547 0-.971-.163-1.272-.488s-.46-.802-.476-1.431h3.687v-.513c0-.723-.195-1.305-.586-1.746s-.921-.662-1.592-.662c-.716 0-1.287.254-1.711.762s-.637 1.193-.637 2.056c0 .856.229 1.525.686 2.007s1.082.723 1.873.723zm1.099-3.286h-2.798c.046-.495.196-.882.452-1.162s.598-.42 1.028-.42c.423 0 .749.136.977.408s.342.663.342 1.174h0zm3.062 3.188v-2.871c0-.524.154-.962.461-1.313s.678-.527 1.111-.527a2.76 2.76 0 0 1 .586.073h0l.112-.752a3.17 3.17 0 0 0-.64-.059c-.335 0-.643.094-.923.283s-.519.457-.718.806h0-.039l-.093-.991h-.669V18.2h.811zm5.391 0l2.031-5.352h-.869l-1.282 3.547-.339 1.072h-.039c-.046-.221-.199-.703-.459-1.445h0l-1.152-3.174h-.869L53.61 18.2h.947zm3.301-6.26c.13 0 .243-.045.337-.134s.142-.225.142-.408-.047-.317-.142-.405-.207-.132-.337-.132c-.137 0-.251.043-.342.129s-.137.222-.137.408.046.318.137.408.205.134.342.134zm.4 6.26v-5.352h-.811V18.2h.811zm3.857.098c.544 0 .994-.093 1.353-.278h0v-.718c-.469.192-.926.288-1.372.288-.521 0-.914-.176-1.179-.527s-.398-.856-.398-1.514c0-1.387.544-2.08 1.631-2.08.163 0 .35.024.562.071a3.81 3.81 0 0 1 .586.178h0l.249-.688c-.146-.075-.348-.14-.605-.195a3.66 3.66 0 0 0-.771-.083c-.798 0-1.412.244-1.843.732s-.647 1.18-.647 2.075c0 .872.212 1.547.637 2.024s1.025.715 1.799.715zm4.883 0c.361 0 .67-.027.925-.081a4.29 4.29 0 0 0 .813-.266h0v-.723a4.31 4.31 0 0 1-1.709.361c-.547 0-.971-.163-1.272-.488s-.46-.802-.476-1.431h3.687v-.513c0-.723-.195-1.305-.586-1.746s-.921-.662-1.592-.662c-.716 0-1.287.254-1.711.762s-.637 1.193-.637 2.056c0 .856.229 1.525.686 2.007s1.082.723 1.873.723zm1.099-3.286h-2.798c.046-.495.196-.882.452-1.162s.598-.42 1.028-.42c.423 0 .749.136.977.408s.342.663.342 1.174h0zm6.987 3.286c.775 0 1.382-.245 1.821-.735s.659-1.171.659-2.043c0-.85-.221-1.523-.662-2.021s-1.036-.747-1.785-.747c-.775 0-1.38.243-1.816.73s-.654 1.166-.654 2.039c0 .563.101 1.055.303 1.475s.488.742.859.967.796.337 1.274.337zm.02-.679c-.531 0-.933-.179-1.206-.537s-.41-.879-.41-1.563c0-.69.135-1.209.405-1.558s.671-.522 1.201-.522c.537 0 .943.177 1.218.53s.413.87.413 1.55c0 .687-.138 1.208-.413 1.565s-.678.535-1.208.535zm5.771.679c.378 0 .714-.07 1.008-.21s.525-.342.691-.605h.044l.117.718h.669v-5.352h-.811v2.813c0 .693-.129 1.193-.388 1.499s-.668.459-1.228.459c-.423 0-.734-.107-.933-.322s-.298-.54-.298-.977h0v-3.472h-.82v3.501c0 .68.162 1.175.486 1.484s.811.464 1.462.464zm5.859 0c.137 0 .291-.014.461-.042s.3-.063.388-.105h0v-.62c-.078.023-.184.045-.317.066a2.65 2.65 0 0 1-.415.032c-.267 0-.477-.086-.63-.259s-.229-.42-.229-.742h0v-3.149h1.553v-.63h-1.553v-1.24h-.469l-.342 1.143-.767.337v.391h.767v3.184c0 1.09.518 1.636 1.553 1.636zm3.867-2.407v-.742h-2.397v.742h2.397zm3.408 2.407c.775 0 1.382-.245 1.821-.735s.659-1.171.659-2.043c0-.85-.221-1.523-.662-2.021s-1.036-.747-1.785-.747c-.775 0-1.38.243-1.816.73s-.654 1.166-.654 2.039c0 .563.101 1.055.303 1.475s.488.742.859.967.796.337 1.274.337zm.02-.679c-.531 0-.933-.179-1.206-.537s-.41-.879-.41-1.563c0-.69.135-1.209.405-1.558s.671-.522 1.201-.522c.537 0 .943.177 1.218.53s.413.87.413 1.55c0 .687-.138 1.208-.413 1.565s-.678.535-1.208.535zm4.932.581v-4.722h1.362v-.63h-1.362v-.347c0-.449.073-.776.22-.979s.373-.305.679-.305c.221 0 .488.05.801.151h0l.21-.649c-.381-.114-.713-.171-.996-.171-1.149 0-1.724.658-1.724 1.973h0v.298l-.957.293v.366h.957V18.2h.811zm4.287-2.31v-.742h-2.397v.742h2.397zm2.603 2.407c.671 0 1.191-.135 1.563-.405s.557-.654.557-1.152a1.23 1.23 0 0 0-.334-.884c-.223-.234-.652-.467-1.287-.698l-.937-.396c-.163-.091-.281-.187-.354-.288s-.11-.223-.11-.366c0-.212.098-.378.293-.498s.485-.181.869-.181c.436 0 .923.111 1.46.332h0l.288-.659a4.27 4.27 0 0 0-1.689-.352c-.618 0-1.105.126-1.46.378a1.2 1.2 0 0 0-.532 1.033c0 .244.051.454.154.63a1.45 1.45 0 0 0 .469.471c.21.138.564.3 1.062.486.524.202.876.377 1.057.525a.67.67 0 0 1 .271.535.67.67 0 0 1-.342.618c-.228.135-.553.203-.977.203-.273 0-.557-.037-.852-.112s-.57-.177-.828-.308h0v.752c.397.225.951.337 1.66.337zm3.389 2.305c.443 0 .816-.126 1.121-.378s.57-.68.798-1.282h0l2.3-6.094h-.869l-1.326 3.708-.266.852h-.039c-.062-.309-.221-.812-.479-1.509h0l-1.172-3.052h-.869l2.158 5.381-.298.762c-.238.625-.635.938-1.191.938-.221 0-.422-.02-.601-.059h0v.649a3.26 3.26 0 0 0 .732.083zm5.898-2.402v-2.808c0-.697.13-1.196.391-1.499s.671-.454 1.23-.454c.423 0 .734.107.933.322s.298.54.298.977h0V18.2h.811v-3.491c0-.684-.163-1.181-.488-1.492s-.811-.466-1.455-.466c-.368 0-.701.072-1.001.217s-.532.349-.698.613h0-.039l-.132-.732h-.659V18.2h.811zm7.466.098c.544 0 .994-.093 1.353-.278h0v-.718c-.469.192-.926.288-1.372.288-.521 0-.914-.176-1.179-.527s-.398-.856-.398-1.514c0-1.387.544-2.08 1.631-2.08.163 0 .35.024.562.071a3.81 3.81 0 0 1 .586.178h0l.249-.688c-.146-.075-.348-.14-.605-.195a3.66 3.66 0 0 0-.771-.083c-.798 0-1.412.244-1.843.732s-.647 1.18-.647 2.075c0 .872.212 1.547.637 2.024s1.025.715 1.799.715z" fill="#333" class="B"/></g><g transform="translate(11 248)"><g transform="translate(.5 .248)"><mask id="Z" class="F"><use xlink:href="#I"/></mask><g class="B"><use filter="url(#J)" xlink:href="#I" class="J"/><use xlink:href="#I" class="F"/></g><g fill="#dedede" class="M"><rect x="32.5" y="15.475" width="28" height="3.973" rx="1.987"/><rect x="24.5" y="28.117" width="36" height="3.973" rx="1.987"/><rect x="32.5" y="40.76" width="28" height="3.973" rx="1.987"/><rect x="16" y="52.902" width="44.5" height="3.973" rx="1.987"/><rect x="23" y="66.267" width="37.5" height="3.973" rx="1.987"/><rect x="33" y="80" width="28" height="3.973" rx="1.987"/></g><path d="M66.5 12.5h6v11h-6z" class="C"/><path d="M177.5 12.5h6v11h-6z" class="E"/><path d="M125.5 12.5h6v11h-6z" class="C"/><path d="M229.5 12.5h6v11h-6zm-26 0h6v11h-6z" class="E"/><path d="M105.5 12.5h6v11h-6zm46 0h6v11h-6zm-78.5 0h6v11h-6zm111 0h6v11h-6zm-98 0h6v11h-6z" class="C"/><path d="M132 12.5h6v11h-6z" class="I"/><path d="M236 12.5h6v11h-6zm-26 0h6v11h-6zm-98 0h6v11h-6z" class="C"/><path d="M158 12.5h6v11h-6zm-78.5 0h6v11h-6zm111 0h6v11h-6zm-98 0h6v11h-6zm46 0h6v11h-6z" class="E"/><path d="M242.5 12.5h6v11h-6zm-26 0h6v11h-6z" class="C"/><path d="M118.5 12.5h6v11h-6z" class="E"/><path d="M164.5 12.5h6v11h-6z" class="C"/><path d="M197 12.5h6v11h-6z" class="I"/><path d="M99 12.5h6v11h-6zm46 0h6v11h-6zm78 0h6v11h-6z" class="C"/><path d="M171 12.5h6v11h-6z" class="I"/><path d="M177.5 37.5h6v11h-6zm-52 0h6v11h-6zm104 0h6v11h-6z" class="C"/><path d="M203.5 37.5h6v11h-6z" class="E"/><path d="M151.5 37.5h6v11h-6z" class="C"/><path d="M184 37.5h6v11h-6z" class="E"/><path d="M132 37.5h6v11h-6z" class="C"/><path d="M236 37.5h6v11h-6z" class="E"/><path d="M210 37.5h6v11h-6z" class="C"/><path d="M158 37.5h6v11h-6z" class="E"/><path d="M190.5 37.5h6v11h-6zm-52 0h6v11h-6zm104 0h6v11h-6zm-26 0h6v11h-6zm-52 0h6v11h-6zm32.5 0h6v11h-6zm-52 0h6v11h-6zm78 0h6v11h-6zm-52 0h6v11h-6zm6.5 25h6v11h-6zm-52 0h6v11h-6zm104 0h6v11h-6zm-26 0h6v11h-6zm-52 0h6v11h-6zm32.5 0h6v11h-6z" class="C"/><path d="M132 62.5h6v11h-6zm104 0h6v11h-6zm-26 0h6v11h-6z" class="E"/><path d="M158 62.5h6v11h-6z" class="C"/><path d="M190.5 62.5h6v11h-6z" class="E"/><path d="M138.5 62.5h6v11h-6zm104 0h6v11h-6zm-26 0h6v11h-6zm-52 0h6v11h-6zm32.5 0h6v11h-6zm-52 0h6v11h-6zm78 0h6v11h-6z" class="C"/><path d="M171 62.5h6v11h-6z" class="E"/><path d="M66.5 25h6v11h-6zm111 0h6v11h-6zm-52 0h6v11h-6zm104 0h6v11h-6zm-26 0h6v11h-6zm-98 0h6v11h-6zm46 0h6v11h-6zM73 25h6v11h-6zm111 0h6v11h-6zm-98 0h6v11h-6z" class="C"/><path d="M132 25h6v11h-6z" class="I"/><path d="M236 25h6v11h-6zm-26 0h6v11h-6zm-98 0h6v11h-6zm46 0h6v11h-6z" class="C"/><path d="M79.5 25h6v11h-6z" class="I"/><path d="M190.5 25h6v11h-6zm-98 0h6v11h-6zm46 0h6v11h-6z" class="C"/><path d="M242.5 25h6v11h-6z" class="I"/><path d="M216.5 25h6v11h-6zm-98 0h6v11h-6zm46 0h6v11h-6zm32.5 0h6v11h-6zm-98 0h6v11h-6zm46 0h6v11h-6zm78 0h6v11h-6zm-52 0h6v11h-6zM66.5 50h6v11h-6z" class="C"/><path d="M177.5 50h6v11h-6z" class="E"/><path d="M125.5 50h6v11h-6z" class="C"/><path d="M229.5 50h6v11h-6zm-26 0h6v11h-6z" class="E"/><path d="M105.5 50h6v11h-6zm46 0h6v11h-6zM73 50h6v11h-6zm111 0h6v11h-6zm-98 0h6v11h-6zm46 0h6v11h-6zm104 0h6v11h-6zm-26 0h6v11h-6zm-98 0h6v11h-6z" class="C"/><path d="M158 50h6v11h-6zm-78.5 0h6v11h-6zm111 0h6v11h-6zm-98 0h6v11h-6zm46 0h6v11h-6z" class="E"/><path d="M242.5 50h6v11h-6zm-26 0h6v11h-6z" class="C"/><path d="M118.5 50h6v11h-6z" class="E"/><path d="M164.5 50h6v11h-6zm32.5 0h6v11h-6zm-98 0h6v11h-6zm46 0h6v11h-6zm78 0h6v11h-6zm-52 0h6v11h-6zm6.5 25h6v11h-6zm-52 0h6v11h-6zm104 0h6v11h-6zm-26 0h6v11h-6zm-52 0h6v11h-6zm32.5 0h6v11h-6zm-52 0h6v11h-6zm104 0h6v11h-6zm-26 0h6v11h-6zm-52 0h6v11h-6zm32.5 0h6v11h-6zm-52 0h6v11h-6zm104 0h6v11h-6zm-26 0h6v11h-6zm-52 0h6v11h-6zm32.5 0h6v11h-6zm-52 0h6v11h-6zm78 0h6v11h-6zm-52 0h6v11h-6z" class="C"/></g><circle cx="158" cy="105.661" r="3.5" class="C"/><circle cx="204" cy="105.661" r="3.5" class="I"/><path d="M166.17 110.563v-2.202a7.18 7.18 0 0 0-.059-.889h.059c.195.267.437.465.725.593s.606.193.955.193c.697 0 1.241-.243 1.633-.73s.588-1.169.588-2.048-.193-1.556-.579-2.041-.933-.728-1.643-.728c-.358 0-.675.065-.952.195s-.519.342-.728.635h0-.039l-.112-.732h-.659v7.754h.811zm1.582-2.983c-.553 0-.955-.162-1.206-.486s-.376-.862-.376-1.614h0v-.181c.007-.661.132-1.143.376-1.445s.64-.454 1.187-.454c.475 0 .844.178 1.106.535s.393.868.393 1.536c0 .658-.131 1.174-.393 1.548s-.624.562-1.086.562zm5.034.679c.397 0 .728-.059.994-.178s.531-.346.798-.681h.039l.161.762h.601v-3.652c0-.625-.154-1.079-.461-1.362s-.78-.425-1.418-.425a3.77 3.77 0 0 0-.945.122 3.81 3.81 0 0 0-.867.337h0l.249.62c.563-.273 1.068-.41 1.514-.41.397 0 .686.1.867.3s.271.51.271.93h0v.332l-.908.029c-1.729.052-2.593.618-2.593 1.699 0 .505.151.894.452 1.167s.717.41 1.248.41zm.161-.669c-.319 0-.567-.076-.745-.229s-.266-.376-.266-.669c0-.374.142-.65.427-.828s.75-.278 1.394-.3h0l.811-.034v.483c0 .498-.144.885-.432 1.162s-.684.415-1.189.415zm5.435.669c.671 0 1.191-.135 1.563-.405s.557-.654.557-1.152a1.23 1.23 0 0 0-.334-.884c-.223-.234-.652-.467-1.287-.698l-.937-.396c-.163-.091-.281-.187-.354-.288s-.11-.223-.11-.366c0-.212.098-.378.293-.498s.485-.181.869-.181c.436 0 .923.111 1.46.332h0l.288-.659a4.27 4.27 0 0 0-1.689-.352c-.618 0-1.105.126-1.46.378a1.2 1.2 0 0 0-.532 1.033c0 .244.051.454.154.63a1.45 1.45 0 0 0 .469.471c.21.138.564.3 1.062.486.524.202.876.377 1.057.525a.67.67 0 0 1 .271.535.67.67 0 0 1-.342.618c-.228.135-.553.203-.977.203-.273 0-.557-.037-.852-.112a3.99 3.99 0 0 1-.828-.308h0v.752c.397.225.951.337 1.66.337zm4.771 0c.671 0 1.191-.135 1.563-.405s.557-.654.557-1.152a1.23 1.23 0 0 0-.334-.884c-.223-.234-.652-.467-1.287-.698l-.937-.396c-.163-.091-.281-.187-.354-.288s-.11-.223-.11-.366c0-.212.098-.378.293-.498s.485-.181.869-.181c.436 0 .923.111 1.46.332h0l.288-.659a4.27 4.27 0 0 0-1.689-.352c-.618 0-1.105.126-1.46.378a1.2 1.2 0 0 0-.532 1.033c0 .244.051.454.154.63a1.45 1.45 0 0 0 .469.471c.21.138.564.3 1.062.486.524.202.876.377 1.057.525a.67.67 0 0 1 .271.535.67.67 0 0 1-.342.618c-.228.135-.553.203-.977.203-.273 0-.557-.037-.852-.112a3.99 3.99 0 0 1-.828-.308h0v.752c.397.225.951.337 1.66.337zm30.857-.098l1.011-3.13a17.9 17.9 0 0 0 .342-1.318h.039l.347 1.309.981 3.14h.962l1.479-5.352h-.84l-1.018 3.94-.105.542h-.039c-.065-.381-.189-.851-.371-1.411h0l-.957-3.071h-.879l-.981 3.071-.208.701-.173.72h-.039c-.026-.244-.129-.718-.31-1.421l-.789-3.071h-.85l1.46 5.352h.938zm7.427.098c.397 0 .728-.059.994-.178s.531-.346.798-.681h.039l.161.762h.601v-3.652c0-.625-.154-1.079-.461-1.362s-.78-.425-1.418-.425a3.77 3.77 0 0 0-.945.122 3.81 3.81 0 0 0-.867.337h0l.249.62c.563-.273 1.068-.41 1.514-.41.397 0 .686.1.867.3s.271.51.271.93h0v.332l-.908.029c-1.729.052-2.593.618-2.593 1.699 0 .505.151.894.452 1.167s.717.41 1.248.41zm.161-.669c-.319 0-.567-.076-.745-.229s-.266-.376-.266-.669c0-.374.142-.65.427-.828s.75-.278 1.394-.3h0l.811-.034v.483c0 .498-.144.885-.432 1.162s-.684.415-1.189.415zm4.912.571v-2.871c0-.524.154-.962.461-1.313s.678-.527 1.111-.527a2.76 2.76 0 0 1 .586.073h0l.112-.752a3.17 3.17 0 0 0-.64-.059c-.335 0-.643.094-.923.283s-.519.457-.718.806h0-.039l-.093-.991h-.669v5.352h.811zm4.082 0v-2.808c0-.697.13-1.196.391-1.499s.671-.454 1.23-.454c.423 0 .734.107.933.322s.298.54.298.977h0v3.462h.811v-3.491c0-.684-.163-1.181-.488-1.492s-.811-.466-1.455-.466c-.368 0-.701.072-1.001.217a1.65 1.65 0 0 0-.698.613h0-.039l-.132-.732h-.659v5.352h.811zm5.737-6.26c.13 0 .243-.045.337-.134s.142-.225.142-.408-.047-.317-.142-.405a.48.48 0 0 0-.337-.132c-.137 0-.251.043-.342.129s-.137.222-.137.408.046.318.137.408.205.134.342.134zm.4 6.26v-5.352h-.811v5.352h.811zm2.529 0v-2.808c0-.697.13-1.196.391-1.499s.671-.454 1.23-.454c.423 0 .734.107.933.322s.298.54.298.977h0v3.462h.811v-3.491c0-.684-.163-1.181-.488-1.492s-.811-.466-1.455-.466c-.368 0-.701.072-1.001.217a1.65 1.65 0 0 0-.698.613h0-.039l-.132-.732h-.659v5.352h.811zm6.846 2.402c.911 0 1.605-.155 2.08-.466s.713-.763.713-1.355c0-.465-.155-.82-.466-1.064s-.756-.366-1.335-.366h0-.947c-.293 0-.5-.035-.62-.105a.35.35 0 0 1-.181-.325c0-.277.173-.506.518-.688a2.46 2.46 0 0 0 .449.039c.625 0 1.117-.156 1.475-.469s.537-.731.537-1.255a1.72 1.72 0 0 0-.107-.623c-.071-.184-.153-.333-.244-.447h0l.991-.117v-.513h-1.851c-.225-.065-.477-.098-.757-.098-.645 0-1.143.159-1.494.476s-.527.769-.527 1.355a1.71 1.71 0 0 0 .261.938c.174.274.4.467.676.581-.225.137-.389.278-.493.425a.86.86 0 0 0-.156.513.76.76 0 0 0 .139.454c.093.13.208.226.344.288-.378.085-.671.246-.879.483a1.24 1.24 0 0 0-.312.845 1.26 1.26 0 0 0 .569 1.104c.379.26.919.391 1.619.391zm.234-4.902c-.378 0-.672-.096-.884-.288s-.317-.475-.317-.85c0-.404.103-.708.308-.913s.498-.308.879-.308c.801 0 1.201.402 1.201 1.206 0 .768-.396 1.152-1.187 1.152zm-.225 4.282c-.456 0-.806-.075-1.05-.225s-.366-.369-.366-.659c0-.329.103-.581.308-.757s.492-.264.859-.264h.972c.495 0 .832.056 1.011.168s.269.313.269.603c0 .348-.164.624-.491.828s-.831.305-1.511.305z" class="B K"/><circle cx="157.5" cy="120.5" r="3.5" class="E"/><circle fill="#d6d6d6" cx="203.5" cy="120.5" r="3.5"/><g class="B"><path d="M14.47 123.098c.807 0 1.44-.181 1.899-.542s.688-.859.688-1.494c0-.322-.057-.602-.171-.84s-.293-.451-.537-.64-.628-.392-1.152-.61c-.465-.192-.788-.347-.967-.464s-.308-.242-.386-.374-.117-.291-.117-.476a.81.81 0 0 1 .293-.652c.195-.164.482-.247.859-.247.498 0 1.064.133 1.699.4h0l.371-.952c-.677-.299-1.357-.449-2.041-.449-.713 0-1.281.171-1.704.513s-.635.811-.635 1.406c0 .475.133.882.4 1.221s.726.64 1.377.903c.632.254 1.048.474 1.25.659s.303.412.303.679a.86.86 0 0 1-.33.708c-.22.176-.561.264-1.023.264a4.4 4.4 0 0 1-1.023-.132 5.39 5.39 0 0 1-1.038-.361h0v1.104c.514.251 1.175.376 1.982.376zM22.63 123v-1.001h-3.022v-6.138H18.44V123h4.189zm4.229.098c1.064 0 1.887-.322 2.468-.967s.872-1.548.872-2.71-.29-2.069-.869-2.71-1.4-.962-2.461-.962c-1.077 0-1.907.316-2.488.947s-.872 1.536-.872 2.715.289 2.087.867 2.727 1.405.959 2.483.959zm0-.996c-.697 0-1.222-.227-1.577-.681s-.532-1.121-.532-2 .178-1.54.535-1.992.885-.679 1.584-.679c.693 0 1.215.226 1.565.679s.525 1.117.525 1.992c0 .889-.177 1.558-.53 2.007s-.876.674-1.57.674zm8.75.996c.716 0 1.266-.141 1.65-.422s.576-.686.576-1.213c0-.26-.049-.484-.146-.671s-.247-.352-.449-.496-.526-.301-.972-.474c-.531-.205-.875-.366-1.033-.483a.52.52 0 0 1-.237-.43c0-.345.303-.518.908-.518.397 0 .887.12 1.47.361h0l.371-.864c-.566-.257-1.167-.386-1.802-.386-.641 0-1.148.128-1.521.383a1.23 1.23 0 0 0-.559 1.077c0 .384.11.697.33.938s.64.482 1.262.723l.747.332c.179.098.308.192.386.283s.117.205.117.342c0 .426-.353.64-1.06.64-.547 0-1.138-.146-1.772-.439h0v.991c.436.218 1.014.327 1.733.327zm5.645 0a3.94 3.94 0 0 0 .847-.078c.233-.052.452-.138.657-.259h0v-1.001c-.456.254-.939.381-1.45.381-.449 0-.79-.152-1.023-.457s-.349-.759-.349-1.365c0-1.24.467-1.86 1.401-1.86.316 0 .716.094 1.201.283h0l.347-.923a3.61 3.61 0 0 0-1.538-.317c-.84 0-1.482.244-1.926.732s-.667 1.187-.667 2.095c0 .892.212 1.576.637 2.053s1.046.715 1.863.715zm4.995 0c.807 0 1.437-.247 1.89-.742s.679-1.183.679-2.065c0-.853-.228-1.531-.684-2.034s-1.074-.754-1.855-.754c-.817 0-1.45.246-1.899.737s-.674 1.175-.674 2.051c0 .563.104 1.058.313 1.484s.506.754.894.981.833.342 1.338.342zm.02-.937c-.921 0-1.382-.623-1.382-1.87 0-.596.108-1.053.325-1.372s.566-.479 1.047-.479c.918 0 1.377.617 1.377 1.851 0 1.247-.456 1.87-1.367 1.87zm5.015.84v-2.822c0-.479.142-.868.427-1.167s.657-.449 1.116-.449a2.17 2.17 0 0 1 .508.059h0l.112-1.069c-.15-.033-.34-.049-.571-.049-.332 0-.642.094-.93.283a2.14 2.14 0 0 0-.701.767h0-.059l-.151-.952h-.898v5.4h1.147zm5.522.098a5.21 5.21 0 0 0 .981-.083c.286-.055.57-.15.85-.283h0v-.933a4.67 4.67 0 0 1-.886.3c-.275.06-.572.09-.891.09-.485 0-.861-.141-1.128-.422s-.409-.684-.425-1.208h3.599v-.62c0-.758-.207-1.354-.62-1.787s-.977-.649-1.689-.649c-.768 0-1.372.252-1.812.757s-.659 1.198-.659 2.08c0 .859.237 1.534.71 2.024s1.13.735 1.97.735zm.972-3.369h-2.451c.042-.443.173-.78.393-1.011s.512-.347.876-.347.651.115.859.344.316.567.322 1.013h0zm2.983-.757c.234 0 .414-.068.54-.203s.188-.318.188-.549-.06-.412-.181-.542-.303-.195-.547-.195c-.482 0-.723.246-.723.737 0 .234.062.418.186.552s.303.2.537.2zm0 4.17c.234 0 .414-.068.54-.203s.188-.318.188-.549-.062-.408-.186-.54-.304-.198-.542-.198-.413.063-.537.19-.186.309-.186.547.062.418.186.552.303.2.537.2z" class="K"/><path d="M66.594 123.098c1.139 0 1.992-.347 2.559-1.04s.85-1.743.85-3.149c0-.658-.103-1.222-.308-1.692s-.496-.829-.874-1.077-.82-.371-1.328-.371c-.723 0-1.293.221-1.711.662s-.627 1.034-.627 1.78c0 .687.181 1.227.542 1.621s.858.591 1.489.591c.365 0 .683-.065.955-.195s.504-.342.696-.635h.059c-.036.892-.244 1.546-.625 1.963s-.959.625-1.733.625a3.22 3.22 0 0 1-.874-.122h0v.962c.189.052.5.078.933.078zm.879-3.589c-.4 0-.699-.116-.896-.349s-.295-.553-.295-.959c0-.469.106-.833.317-1.091s.516-.388.913-.388a1.15 1.15 0 0 1 .693.22c.202.146.359.346.471.598s.168.523.168.813c0 .309-.132.579-.396.811s-.589.347-.977.347zM72.932 123l2.808-6.328v-.801h-4.937v1.011h3.711L71.692 123h1.24zm7.783-2.759c.524 0 .92-.188 1.189-.564s.403-.938.403-1.687c0-.716-.138-1.267-.413-1.653s-.668-.579-1.179-.579c-1.038 0-1.558.744-1.558 2.231 0 .723.136 1.278.408 1.667a1.32 1.32 0 0 0 1.15.583zm.83 2.759l3.96-7.139h-.947L80.598 123h.947zm-.83-3.56c-.215 0-.369-.119-.464-.356s-.142-.599-.142-1.084.047-.846.142-1.084.249-.356.464-.356c.43 0 .645.48.645 1.44s-.215 1.44-.645 1.44zm4.653 3.657c.518 0 .911-.187 1.182-.562s.405-.936.405-1.685c0-.719-.139-1.271-.417-1.655s-.668-.576-1.169-.576c-1.042 0-1.562.744-1.562 2.231 0 .726.137 1.282.41 1.667a1.33 1.33 0 0 0 1.152.579zm0-.796c-.215 0-.37-.12-.466-.361s-.144-.604-.144-1.089.048-.845.144-1.079.251-.352.466-.352c.426 0 .64.477.64 1.431 0 .967-.213 1.45-.64 1.45z" class="C"/><path d="M165.909 123v-4.722h1.362v-.63h-1.362v-.347c0-.449.073-.776.22-.979s.373-.305.679-.305c.221 0 .488.05.801.151h0l.21-.649c-.381-.114-.713-.171-.996-.171-1.149 0-1.724.658-1.724 1.973h0v.298l-.957.293v.366h.957V123h.811zm3.638.098c.397 0 .728-.059.994-.178s.531-.346.798-.681h.039l.161.762h.601v-3.652c0-.625-.154-1.079-.461-1.362s-.78-.425-1.418-.425a3.77 3.77 0 0 0-.945.122 3.81 3.81 0 0 0-.867.337h0l.249.62c.563-.273 1.068-.41 1.514-.41.397 0 .686.1.867.3s.271.51.271.93h0v.332l-.908.029c-1.729.052-2.593.618-2.593 1.699 0 .505.151.894.452 1.167s.717.41 1.248.41zm.161-.669c-.319 0-.567-.076-.745-.229s-.266-.376-.266-.669c0-.374.142-.65.427-.828s.75-.278 1.394-.3h0l.811-.034v.483c0 .498-.144.885-.432 1.162s-.684.415-1.189.415zm4.512-5.688c.13 0 .243-.045.337-.134s.142-.225.142-.408-.047-.317-.142-.405a.48.48 0 0 0-.337-.132c-.137 0-.251.043-.342.129s-.137.222-.137.408.046.318.137.408.205.134.342.134zm.4 6.26v-5.352h-.811V123h.811zm2.529 0v-7.598h-.811V123h.811zm36.121-6.261c.13 0 .243-.045.337-.134s.142-.225.142-.408-.047-.317-.142-.405a.48.48 0 0 0-.337-.132c-.137 0-.251.043-.342.129s-.137.222-.137.408.046.318.137.408.205.134.342.134zm.4 6.26v-5.352h-.811V123h.811zm2.529 0v-2.808c0-.697.13-1.196.391-1.499s.671-.454 1.23-.454c.423 0 .734.107.933.322s.298.54.298.977h0V123h.811v-3.491c0-.684-.163-1.181-.488-1.492s-.811-.466-1.455-.466c-.368 0-.701.072-1.001.217a1.65 1.65 0 0 0-.698.613h0-.039l-.132-.732h-.659V123h.811zm6.377 0v-4.722h1.362v-.63h-1.362v-.347c0-.449.073-.776.22-.979s.373-.305.679-.305c.221 0 .488.05.801.151h0l.21-.649c-.381-.114-.713-.171-.996-.171-1.149 0-1.724.658-1.724 1.973h0v.298l-.957.293v.366h.957V123h.811zm4.478.098c.775 0 1.382-.245 1.821-.735s.659-1.171.659-2.043c0-.85-.221-1.523-.662-2.021s-1.036-.747-1.785-.747c-.775 0-1.38.243-1.816.73s-.654 1.166-.654 2.039c0 .563.101 1.055.303 1.475s.488.742.859.967.796.337 1.274.337zm.02-.679c-.531 0-.933-.179-1.206-.537s-.41-.879-.41-1.562c0-.69.135-1.209.405-1.558s.671-.522 1.201-.522c.537 0 .943.177 1.218.53s.413.87.413 1.55c0 .687-.138 1.208-.413 1.565s-.678.535-1.208.535z" class="K"/></g></g><g transform="translate(11 393)"><mask id="a" class="F"><use xlink:href="#K"/></mask><g transform="matrix(1 0 0 -1 0 86)" class="B"><use filter="url(#L)" xlink:href="#K" class="J"/><use mask="url(#M)" stroke-width="1.44" xlink:href="#K" stroke-dasharray="1.5,1.5" class="Q R"/></g><g class="W"><g transform="translate(67 12)"><g transform="translate(5.148 34.747)" class="B H"><path d="M2.416 16.958l1.062 2.099-.107.286-.478 1.3-.117.323-2.343 7.072a.63.63 0 0 1-.43.419h0l2.184-6.743c-.458-.104-1.099.024-1.891.347.542-.409 1.08-.764 1.596-.796-.165-.038-.586-.182-1.149-.698.538.198 1.006.3 1.347.23-.072-.898-.554-1.815-1.19-2.736-.002-.005.887.514 1.219 1.046l.005-.07A16.18 16.18 0 0 1 2.4 17.03l.016-.073v.002zM14.122 3.407l-.118.532a6.47 6.47 0 0 1-.236.711 14.32 14.32 0 0 1-.597 1.315l-.789 1.377-.272.406c-.34.473-.69.799-1.473 1.158h0-.002-.007l-.014.008.12-.019c.415-.077.911-.233 1.198-.406l.113-.075a2.43 2.43 0 0 1-.062.28l-.083.27-.037.104-.112.292-.324.717-.091.181-.075.125c-.083.133-.173.254-.267.367l-.125.141-.212.203-.152.121a3.86 3.86 0 0 1-.837.471l-.018.003.021-.003h-.003l.034-.005c-.013.002-.024.005-.035.006l-.013.005.046-.008.203-.037a3.42 3.42 0 0 0 1.149-.503c-.436.866-1.037 1.572-1.986 1.941h0l-.006.003.163-.024.158-.03c.297-.064.567-.153.802-.278l-.57 1.561c-.227.548-.465 1.043-.717 1.49-.34.601-.708 1.113-1.113 1.548-.879.944-2.238 1.708-3.262 1.835l.038.008-.002-.001.008-.001.003.001h.003l-.003-.001c1.144.207 2.227-.066 3.161-1.026l-.334.596c-.474.762-1.011 1.22-2.08 1.7h0l.175.006c.616.006.963-.165 1.249-.527-.051.112-.107.217-.168.318-.685 1.123-2.01 1.511-3.546 1.442a1.71 1.71 0 0 1 .553 1.173c-.236-.425-.487-.799-.799-.941l.367-1.065.059-.169.428-1.195.08-.217.001-.001.008-.031.562-1.514.532-1.38.585-1.46.601-1.441.61-1.406.481-1.067.158-.34.308-.655.278-.58.091-.187.014-.029h.006l-.002-.001.232-.47.451-.886.732-1.369.772-1.348.045-.075.781-1.256c.834-.042 2.117-.212 3.161-.387zm-4.08-1.176l.811 1.53.001-.001-.536.8-.314.49-.797 1.326-.751 1.353L7.746 9.1l-.425.858-.241.503-.655 1.411-.639 1.442-.602 1.42-.577 1.409-.572 1.449-.125.323-.433 1.141-1.062-2.099.406-1.656.211-.708.297-.861.566-1.43.628-1.374.112-.228.577-1.121.716-1.297.733-1.235.053-.083.026-.043.703-1.107.823-1.219.864-1.198.728-.939.185-.225zM12.583 0c.701 0 1.233.861 1.233.861s.617.797.305 2.54l-3.161.391c.866-1.331 1.441-2 1.629-2.209l-.292.323c-.486.552-.968 1.174-1.443 1.855h0l-.813-1.529c.883-1.085 1.626-1.831 2.072-2.094a.95.95 0 0 1 .47-.137z"/></g><g opacity=".75" transform="translate(72.563 1.039)"><g transform="translate(.296)"><path d="M20.271 13.712c0 5.638-4.468 10.208-9.98 10.208S.31 19.35.31 13.712 4.778 3.504 10.29 3.504s9.98 4.571 9.98 10.209z" class="N"/><path d="M3.455 6.748C1.704 8.54.62 11.014.62 13.75s1.084 5.21 2.835 7.001 4.166 2.897 6.835 2.897 5.084-1.105 6.836-2.897 2.835-4.265 2.835-7.001-1.084-5.21-2.835-7.002-4.166-2.896-6.836-2.897-5.084 1.106-6.835 2.897zm-.443 14.437C1.15 19.282 0 16.652 0 13.75s1.15-5.532 3.011-7.435 4.436-3.084 7.279-3.083 5.418 1.18 7.279 3.083 3.012 4.534 3.012 7.435-1.15 5.532-3.012 7.435-4.436 3.083-7.279 3.083-5.418-1.18-7.279-3.083" class="B U"/><path d="M14.491 13.769l-1.521.228-2.053.228-1.331.038-1.293-.038-.989-.304-.874-.95-.684-1.939-.152-.418-.912-.304-.532-.874-.38-1.255.418-1.103.988-.342.798.38.38.836.456-.076.152-.19-.152-.874-.038-1.103.228-1.521-.009-.869.693-1.108 1.217-.874 2.129-.912 2.357.342 2.053 1.483.951 1.521.608 1.103.152 2.737-.456 2.357-.836 2.091-.798 1.103" class="N"/><g class="G"><path d="M13.199 20.346l-5.437.228v.912l.456 3.194-.228.266-3.802-1.293-.266-.456-.38-4.296-.874-2.585-.19-.608 3.042-2.091.951-.38.836 1.027.722.646.837.266.38.114.456 1.977.342.418.875-.304-.608 1.179 3.308 1.559-.418.228M4.188 7.077l.988-.342.798.38.38.836.456-.076.114-.456-.228-.874.228-2.091-.19-1.141.684-.798 1.483-1.179-.418-.57-2.091 1.027-.874.684-.494 1.065-.76 1.027-.228 1.217zm9.353 13.307l1.407-.038.342 3.498-1.445.19-.304-3.65"/><path d="M13.921 20.384l2.129-.114.874-2.319c0-.114.76-3.194.76-3.194l-1.711-1.787-.342-.304-.912.912v3.536l-.798 3.27"/></g><path d="M9.005 27.875l-.787-3.194-.391-2.357-.065-1.749 3.563-.19h2.217l-.202 3.992.342 3.08-.038.57-2.889.228-1.749-.38" class="N"/><path d="M15.355 23.54l1.483-.418 2.813-.152.418-1.293-.76-2.243-.874-.114-1.217.38-1.167.57-.62-.114-.483.19" class="G"/><path d="M13.834 20.081l-.836-2.129-.874-1.255s.19-.532.456-.532h.874l.836.304-.076 1.407-.38 2.205z" class="B N"/><path d="M7.648 14.454s1.179.494 1.559.38l.038.456-1.064-.228-.646-.456.114-.152z" class="G"/><use xlink:href="#V" fill="#d33833"/><use xlink:href="#V" class="X Y"/><path d="M12.265 15.239l-.006.147c-.201.132-.527.131-.748.242.326.014.582.093.804.203l-.014.369c-.369.253-.706.629-1.141.866-.206.112-.927.401-1.146.35-.124-.029-.135-.182-.184-.327-.105-.31-.348-.803-.369-1.27-.027-.589-.086-1.577.549-1.455.512.098 1.108.334 1.505.55.242.133.383.296.75.325" class="G"/><path d="M12.265 15.239l-.006.147c-.201.132-.527.131-.748.242.326.014.582.093.804.203l-.014.369c-.369.253-.706.629-1.141.866-.206.112-.927.401-1.146.35-.124-.029-.135-.182-.184-.327-.105-.31-.348-.803-.369-1.27-.027-.589-.086-1.577.549-1.455.512.098 1.108.334 1.505.55.242.133.383.296.75.325h0z" class="X Y"/><use xlink:href="#W" class="G"/><use xlink:href="#W" class="X Y"/><path d="M13.872 16.203s-.266-.38-.076-.494.38 0 .494-.19 0-.304.038-.532.228-.266.418-.304.722-.114.798.076l-.228-.684-.456-.152-1.445.836-.076.418v.836" class="G"/><g fill="#4b96cc"><path d="M10.88 3.987c-1.036-.241-1.551.434-1.865 1.134-.28-.068-.169-.449-.098-.644.185-.51.933-1.189 1.544-1.097.263.04.619.28.42.607m5.048 1.18l.049.002c.234.486.437 1.002.732 1.431-.198.461-1.499.869-1.478.041.281-.123.767-.025 1.016-.182-.144-.396-.352-.733-.319-1.292m-4.518.012c.222.407.294.835.61 1.143.142.139.419.308.282.693-.032.091-.266.294-.401.333-.494.146-1.644.03-1.255-.585.408.019.957.265 1.262-.031-.234-.375-.652-1.116-.498-1.553m4.333 4.14c-.743.478-1.572.997-2.791.876a.83.83 0 0 1-.107-1.062c.132.226.049.642.416.705.691.118 1.496-.423 1.993-.612.308-.52-.027-.711-.304-1.045-.569-.685-1.331-1.535-1.304-2.561.23-.167.25.254.283.331.297.695 1.044 1.584 1.589 2.178.134.146.354.287.379.384.071.282-.184.619-.154.806m-9.801-.503c-.233-.133-.289-.719-.562-.735-.391-.024-.32.76-.318 1.218-.269-.244-.316-.997-.119-1.383-.225-.111-.326.122-.451.204.161-1.167 1.707-.541 1.45.696zm10.274.989c-.346.659-.836 1.384-1.851 1.405-.021-.213-.037-.536.001-.665.776-.075 1.256-.47 1.85-.741zm-4.865.427c.648.341 1.838.377 2.718.351.047.193.046.431.048.666-1.132.056-2.47-.224-2.766-1.018zm-.123.635c.448 1.124 1.987.995 3.285.964-.057.146-.181.318-.335.381-.416.169-1.563.298-2.141-.009-.366-.195-.602-.635-.802-.893-.097-.125-.579-.443-.007-.443"/></g><path d="M15.69 17.07l-1.652 2.619c.261-.769.373-2.055.413-3.036.547-.256 1.015.058 1.239.417z" class="G"/><g class="U"><path d="M18.518 20.305c-.588.118-1.002.69-1.576.653.316-.445.868-.632 1.576-.653zm.26.921c-.48.051-1.043.128-1.529.088.23-.352 1.118-.23 1.529-.088zm.166.794c-.539.012-1.209.001-1.721-.042.303-.326 1.372-.121 1.721.042z"/></g><g class="G"><path d="M14.675 24.193c.077.677.346 1.363.312 2.104-.298.101-.469.188-.869.188l-.087-2.194c.196.013.486-.14.644-.098zm-.869-9.977c-.271.177-.501.397-.761.586-.576.029-.891-.04-1.315-.371.007-.027.05-.015.051-.047.617.275 1.401-.112 2.025-.168m-3.239 4.206c.17-.735.834-1.115 1.437-1.52.623.79 1.001 1.806 1.418 2.787-.985-.297-1.992-.779-2.855-1.267z"/></g><g class="U"><path d="M14.032 24.291c-.025.601.059 1.564.087 2.194.399.001.571-.087.869-.188.034-.741-.235-1.427-.312-2.104-.158-.042-.447.111-.644.098h0zm-6.218-3.416c.263 2.421.645 4.456 1.344 6.599 1.552.471 3.424.512 4.796.087-.252-1.21-.142-2.683-.289-3.974l-.207-2.937c-1.663-.346-4.013-.081-5.645.224h0zm6.038-.209c-.014 1.04.047 2.065.126 3.106l1.041-.181c-.12-1.002-.106-2.13-.351-3.016-.284.003-.533-.003-.816.091h0zm2.025-.168c-.189-.043-.41-.002-.591.002l.364 2.672c.285.009.437-.125.671-.171.013-.781-.068-1.857-.444-2.503h0zm3.066 2.802c.594-.144.967-.871.801-1.618-.111-.502-.31-1.447-.522-1.768-.157-.237-.582-.548-.922-.331-.553.354-1.526.457-1.93.885.202.673.265 1.597.348 2.45.691.043 1.54-.19 2.114.057-.401.13-.921.131-1.268.32.283.137.946.109 1.378.004h0zm-5.521-3.61c-.417-.981-.796-1.997-1.418-2.787-.603.405-1.268.785-1.437 1.52.863.489 1.87.97 2.855 1.267zm1.028-3.037c-.039.981-.151 2.267-.413 3.036.624-.794 1.126-1.719 1.652-2.619-.224-.36-.692-.673-1.239-.417h0zm-1.165-.414c-.236-.025-.437.272-.744.143l-.206.238c.678.818.987 1.978 1.511 2.938.281-.923.249-1.934.311-2.941-.386.025-.601-.349-.871-.378zm-.749-.989c-.025.28.04.372.096.693.92.288.76-1.263-.096-.693zm-1.021-.335c-.397-.217-.992-.453-1.505-.55-.635-.121-.575.866-.549 1.455.021.467.264.96.369 1.27.049.145.061.298.184.327.219.051.94-.237 1.146-.35.435-.237.772-.613 1.141-.866l.014-.369c-.222-.111-.478-.189-.804-.203.221-.111.546-.11.748-.242l.006-.147c-.368-.028-.508-.192-.75-.325h0zm-3.788-.688c-.329.334.923.79 1.322.814-.002-.211.121-.411.096-.563-.474-.083-1.096-.028-1.418-.252h0zm4.055.157c-.002.033-.044.021-.051.047.423.331.738.399 1.315.371l.761-.586c-.623.056-1.407.443-2.025.168h0zm3.722 1.129c-.018-.371-.115-1.135-.345-1.268-.482-.281-1.338.568-1.701.697.039.114.105.204.11.349.215-.053.476-.017.662.075-.215.024-.453.022-.596.125-.052.151.013.356-.022.565.51.144 1.093.221 1.738.24.125-.163.168-.474.153-.782h0zm-8.331-.962c-.103-.074-.803-.984-.898-.946-1.265.499-2.449 1.362-3.506 2.178 1.008 2.163 1.415 4.813 1.487 7.367 1.155.54 2.169 1.319 3.736 1.4l-.45-3.635c-.394-.166-.959.008-1.327-.051-.003-.444.563-.194.61-.493.036-.226-.311-.243-.198-.599.288.105.439.336.747.423.281-.614-.004-1.701.037-2.214.008-.096.048-.534.264-.457.191.068-.011 1.164.01 1.649.019.448-.054.881.127 1.162 1.514-.206 3.053-.339 4.691-.384-.36-.155-.789-.301-1.258-.566-.254-.143-1.057-.442-1.13-.684-.117-.385.307-.59.38-.921-.764.417-.913-.4-1.094-.978-.164-.524-.257-.915-.297-1.217-.658-.314-1.362-.632-1.929-1.034h0zm7.662-.836c1.054-.511 1.244 1.911.831 2.691.064.233.284.322.373.531l-1.842 3.079c.447-.278 1.084-.05 1.61-.258.192-.076.331-.516.477-.867.4-.968.82-2.188 1.007-3.111.042-.21.157-.669.131-.856-.046-.335-.501-.584-.732-.791l-1.14-1.078c-.18.266-.567.445-.715.662h0zM4.762 4.365c-.502.553-.397 1.588-.336 2.325.908-.571 2.113.045 2.102 1.017.434-.012.162-.541.084-.883-.256-1.115.432-2.326.031-3.346-.778.059-1.417.377-1.88.887h0zm3.594-3.208c-1.137.322-2.595 1.149-3.062 2.17.362-.053.613-.235.97-.258.135-.009.312.057.467.018.309-.077.57-.769.803-1.027.227-.252.5-.359.687-.589.12-.058.298-.054.304-.234-.052-.056-.107-.098-.169-.08h0zm5.92.303C13.096.794 11.098.293 9.842.919c-1.013.505-2.383 1.341-2.85 2.4.436 1.022-.129 1.959-.165 2.996-.019.552.26 1.034.281 1.635-.149.246-.605.277-.921.26-.106-.532-.292-1.129-.84-1.189-.775-.085-1.341.556-1.377 1.227-.042.788.605 2.094 1.522 2.003.354-.035.441-.39.827-.386.209.417-.323.548-.377.847-.014.077.044.378.078.52.167.688.538 1.579.903 2.103.464.665 1.375.765 2.355.83.175-.377.82-.346 1.24-.248-.504-.199-.972-.683-1.36-1.111-.446-.491-.897-1.018-.92-1.66.842 1.169 1.538 2.189 3.07 2.703 1.159.389 2.513-.178 3.403-.804.37-.26.59-.672.853-1.05.983-1.414 1.441-3.432 1.341-5.388-.042-.807-.04-1.611-.31-2.153-.283-.567-1.24-1.075-1.8-.562-.104-.552.466-.893 1.135-.695-.477-.616-.978-1.355-1.656-1.738h0zm2.199 18.2c.922-.459 2.646-1.234 3.224.002a10.48 10.48 0 0 1 .574 1.696c.156.663-.169 2.058-.851 2.281-.602.197-1.305.185-2.031.039-.085-.071-.181-.195-.247-.324-.518-.02-1.003.028-1.412.241.039.383-.22.445-.463.524-.18.714.36 1.647.231 2.298-.092.464-.663.536-1.083.622-.014.258.018.473.047.691-.096.353-.526.555-.934.604-1.341.161-3.378.234-4.668-.23-.36-.883-.644-1.957-.943-2.965-1.258.134-2.276-.543-3.235-.987-.332-.154-.792-.239-.916-.503-.12-.256-.071-.747-.101-1.21-.076-1.184-.141-2.325-.454-3.537-.14-.544-.385-1.024-.556-1.548-.158-.486-.433-1.086-.505-1.57-.107-.718.569-.758 1.002-1.069.668-.481 1.192-.747 1.916-1.181.214-.129.861-.454.934-.604.146-.297-.251-.716-.357-.949-.168-.368-.255-.681-.279-1.045-.607-.096-1.067-.457-1.345-.864-.46-.674-.779-1.921-.381-2.87.031-.075.187-.222.21-.336.045-.226-.085-.526-.093-.767-.042-1.233.209-2.295 1.039-2.667.337-1.342 1.543-1.789 2.679-2.456.425-.249.893-.409 1.377-.587 1.735-.638 4.396-.518 5.836.571.61.462 1.586 1.437 1.935 2.142.922 1.863.856 4.978.212 7.244-.087.304-.212.752-.388 1.117-.122.255-.503.766-.457.991.048.233.867.855 1.043 1.025.317.305.918.711.967 1.096.052.41-.181.971-.299 1.367l-1.227 3.718"/><use xlink:href="#X"/><use xlink:href="#X" x="0.209" y="0.969"/></g></g></g><g transform="translate(34.859 1.75)" class="B"><g transform="translate(.301 .023)"><g class="G"><path d="M8.256 9.031c.982-2.553 3.948-4.225 6.392-3.612h0c-.242.047-.51-.05-.808.121 1.993 1.669 2.264 3.809 1.875 6.141h0l-.29.344-.153.163c-.952.932-1.088 2.084-.834 3.305.386 1.857 2.656 3.405 5.065 2.3h0l.012.009-.136 3.382c-.147.811-.156 1.63-.147 2.45h0l-.034.096c-.064.192-.099.385.019.582l.124.407-.099.099c-.17.203-.175.432-.151.665l.028.234c.018.156.029.311-.008.458l.015-.09H8.446l-.143-1.168-.079-.37.018-.366-.018-.548c.038-.775-.053-1.542-.139-2.311h0l-.136-3.52c.607.18 1.218.286 1.86.277 2.202-.032 3.859-2.282 3.237-4.408-.599-2.043-2.771-3.385-5.195-2.261-.05-.823.109-1.613.404-2.379zm3.346 10.882l.183 1.106.001.143c.051 1.052 1.012 2.115 1.954 2.118 1.044.003 1.958-1.038 1.955-2.232-.106-.339.251-.643.109-1.032-.663.486-1.3.902-2.111.887-.793-.018-1.386-.51-2.09-.991zm-.242-12.58c-.519.012-.764.31-.814.746.009.601.357.867.82.858a.79.79 0 0 0 .784-.784c.009-.457-.239-.828-.79-.82z"/><path d="M8.227 23.631l-.171-.068c-.808-.33-1.507-.837-2.155-1.4-2.341-2.023-3.886-4.555-4.26-7.627-.425-3.491.357-6.713 2.686-9.482C6.452 2.53 9.161 1.058 12.396.719c3.594-.374 6.822.631 9.541 3.113 2.267 2.07 3.591 4.635 3.93 7.651.289 2.568-.174 5.05-1.495 7.306-1.2 2.049-2.798 3.712-4.959 4.764l-.177.086c-.083.224-.156.448-.015.678.05-.044.094-.1.153-.133 3.264-1.728 5.528-4.296 6.587-7.869.091-.304.233-.454.572-.419.46.047.584-.259.584-.643l.003-4.411c0-.315-.077-.663-.404-.699-.601-.071-.675-.51-.796-.938-.708-2.488-2.07-4.558-4.092-6.147C17.67-.204 13.106-.793 8.318 1.412 4.76 3.048 2.492 5.888 1.466 9.688c-.065.236-.035.516-.436.433-.572-.118-.787.218-.79.725l-.003 4.411c0 .489.248.749.719.634.433-.106.537.109.625.439a11.64 11.64 0 0 0 1.89 3.874c1.268 1.719 2.813 3.099 4.776 3.977l-.021-.551z"/></g><path d="M19.416 23.551c2.161-1.05 3.756-2.712 4.959-4.764 1.321-2.255 1.784-4.738 1.495-7.306-.339-3.019-1.66-5.584-3.93-7.651-2.718-2.48-5.947-3.488-9.541-3.11-3.231.336-5.944 1.81-8.07 4.334-2.332 2.768-3.11 5.991-2.686 9.482.374 3.075 1.919 5.605 4.26 7.627.652.563 1.35 1.073 2.155 1.4.056.024.112.047.171.068.038-.775-.053-1.542-.139-2.311l-.177-.127c-.599-.433-1.112-.967-1.627-1.492-.156-.159-.351-.295-.351-.554-.348.251-.599.077-.802-.2-1.132-1.545-1.816-3.258-1.908-5.186-.083-1.704.071-3.361.787-4.956.911-2.025 2.311-3.573 4.192-4.723.318-.195.501-.021.722.124.215-.021.407-.094.545-.271l-.027-.062c-.189-.398-.198-.849.257-.955s.716.262.719.743c3.411-1.12 6.584-.666 9.446 1.518 2.14 1.633 3.367 3.824 3.741 6.495.484 3.435-.678 6.283-3.072 8.692-.283.283-.601.54-.961.731-.062.032-.124.062-.186.091-.147.811-.156 1.63-.147 2.45l.171-.086z" class="Q"/><path d="M20.533 20.367c2.391-2.409 3.553-5.257 3.072-8.692-.374-2.674-1.601-4.865-3.741-6.495-2.863-2.185-6.038-2.636-9.446-1.518-.006.003-.012.009-.018.012-.268.171-.478.54-.864.31l-.068-.044c-.139.177-.327.251-.545.271-.009.035-.021.068-.032.103-.245.687-.979.867-1.471 1.28C6.083 6.71 5.093 8.049 4.509 9.67c-.938 2.612-.746 5.171.51 7.642.203.401.454.781.722 1.144.159.218.209.436.189.687 0 .265.195.404.351.563.519.525 1.029 1.058 1.627 1.492l.177.127-.136-3.52c-1.026-.672-1.775-1.527-1.905-2.801-.162-1.571.498-2.733 1.784-3.579.006-.003.012-.009.018-.012-.05-.826.109-1.616.404-2.379.982-2.55 3.948-4.225 6.392-3.612 1.63.265 2.963 1.005 3.918 2.364.764 1.088 1.159 2.288 1.076 3.626h0c.92.699 1.663 1.518 1.784 2.73.162 1.63-.534 2.822-1.905 3.653h0l-.136 3.396.186-.091c.366-.192.684-.448.967-.734h0z" class="N"/><g class="G"><path d="M16.562 11.28c1.011-.498 1.993-.23 2.969.091l.109.035c.083-1.341-.313-2.541-1.076-3.626-.955-1.359-2.288-2.099-3.909-2.362-.251.047-.519-.053-.817.118 1.993 1.669 2.267 3.809 1.875 6.141l.849-.398z"/><path d="M21.426 14.14c-.121-1.212-.864-2.031-1.784-2.73h0l-.109-.035c-.979-.321-1.958-.59-2.969-.091l-.663.315-.183.086-.442.507c-.955.932-1.088 2.084-.834 3.305.386 1.86 2.656 3.408 5.068 2.306 1.383-.84 2.082-2.034 1.916-3.662h0zm-3.606 3.258c-1.566-.012-2.786-1.256-2.771-2.827.015-1.548 1.28-2.774 2.839-2.763 1.568.012 2.768 1.247 2.757 2.833-.012 1.574-1.238 2.771-2.824 2.757zm-9.988-5.979c-1.285.846-1.946 2.008-1.784 3.579.13 1.274.879 2.129 1.899 2.798.613.183 1.221.289 1.866.28 2.199-.032 3.859-2.279 3.237-4.408-.599-2.043-2.774-3.385-5.195-2.261-.012.003-.018.009-.024.012h0zm1.757 5.979c-1.607.006-2.851-1.227-2.845-2.824.003-1.568 1.227-2.783 2.804-2.792 1.595-.009 2.869 1.247 2.863 2.816-.006 1.542-1.271 2.795-2.822 2.801z"/></g><use xlink:href="#N" class="L"/><use xlink:href="#N" class="G P"/><path d="M15.804 20.016c-.663.486-1.297.902-2.111.887-.796-.015-1.386-.51-2.09-.991l.183 1.106c.183.006.262.15.371.259.699.702 1.533.764 2.438.516.454-.124.705-.54 1.1-.746-.106-.339.251-.643.109-1.032h0z" class="Q"/><path d="M11.361 7.335c-.522.009-.767.307-.814.746.009.601.357.864.82.858a.79.79 0 0 0 .784-.784c.009-.46-.239-.831-.79-.82z" class="N"/><g class="Q"><path d="M20.645 14.644c.012-1.583-1.188-2.819-2.757-2.833-1.563-.012-2.824 1.215-2.839 2.763a2.77 2.77 0 0 0 2.771 2.827 2.74 2.74 0 0 0 2.824-2.757zm-2.686.307c-.531.009-.84-.292-.887-.814-.044-.486.392-.941.876-.908.519.038.811.342.873.884-.071.484-.318.828-.861.837zm-8.411-3.167a2.77 2.77 0 0 0-2.804 2.792A2.78 2.78 0 0 0 9.589 17.4c1.551-.006 2.816-1.259 2.822-2.798.003-1.571-1.271-2.827-2.863-2.819h0zm.003 3.167c-.525.006-.84-.295-.882-.823-.038-.486.401-.938.887-.896.513.044.814.342.861.884-.065.498-.336.828-.867.834h0z"/></g><use xlink:href="#O" class="L"/><use xlink:href="#O" class="G P"/><use xlink:href="#P" class="L"/><use xlink:href="#P" class="G P"/></g></g><g transform="translate(38.482 37.607)" class="B"><path d="M0 0h20.514v20.938c0 .938-.861 1.698-1.923 1.698H1.923C.861 22.636 0 21.876 0 20.939V0z" class="H"/><use xlink:href="#Q" class="U"/><use xlink:href="#Q" class="H P"/><g class="Q"><path d="M3.205 9.055H6.41v11.318H3.205zm5.129 11.318v-2.829h9.616v2.829z"/></g></g><g class="L"><path d="M115.434 48.607a2.39 2.39 0 0 1 2.391 2.391v5.976a2.39 2.39 0 1 1-4.781 0v-5.976a2.39 2.39 0 0 1 2.391-2.391zm5.995 5.976a2.39 2.39 0 1 1 0 4.781 2.39 2.39 0 0 1-2.391-2.391v-2.391h2.391zm-9.58-5.976v2.391a2.39 2.39 0 1 1-4.781 0 2.39 2.39 0 0 1 2.391-2.391h2.391zm15.575 0a2.39 2.39 0 1 1 0 4.781h-5.995a2.39 2.39 0 1 1 0-4.781h5.995zm-11.989-5.995a2.39 2.39 0 1 1 0 4.781h-5.995a2.39 2.39 0 1 1 0-4.781h5.995zm11.971 0a2.39 2.39 0 1 1 0 4.781h-2.391v-2.391a2.39 2.39 0 0 1 2.391-2.391zm-5.976-5.995a2.39 2.39 0 0 1 2.391 2.391v5.995a2.39 2.39 0 1 1-4.781 0v-5.995a2.39 2.39 0 0 1 2.391-2.391zm-5.995 0a2.39 2.39 0 0 1 2.391 2.391v2.391h-2.391a2.39 2.39 0 1 1 0-4.781z" opacity=".3"/><g class="B"><path d="M118.88 2.461a12.81 12.81 0 0 0-12.805 12.805 12.81 12.81 0 0 0 12.805 12.805 12.81 12.81 0 0 0 12.805-12.805A12.81 12.81 0 0 0 118.88 2.461zm0 23.966c-2.012 0-3.643-1.344-3.643-3.002h7.287c0 1.657-1.631 3.002-3.643 3.002h0zm6.018-3.996h-12.036v-2.183h12.036v2.183zm-.043-3.306h-11.959l-.119-.138c-1.232-1.496-1.522-2.277-1.804-3.073-.005-.026 1.494.306 2.557.545a32.31 32.31 0 0 0 1.346.272c-.768-.9-1.224-2.044-1.224-3.213 0-2.567 1.969-4.81 1.259-6.623.691.056 1.431 1.459 1.481 3.652.735-1.016 1.042-2.87 1.042-4.007 0-1.177.776-2.545 1.552-2.592-.692 1.14.179 2.117.953 4.542.29.911.253 2.443.477 3.415.074-2.019.421-4.964 1.702-5.981-.565 1.281.084 2.883.527 3.653.716 1.243 1.149 2.185 1.149 3.966 0 1.194-.441 2.318-1.184 3.197l1.429-.302 2.746-.536s-.399 1.641-1.932 3.221h0zM164.9 5.743l.713 7.004.219 5.773c0 .081.069.943-.736 1.714L158 27.008c-.794.748-1.656.644-1.737.644l-.38-.023.053-.011c-.024.001-.067.011-.11 0l-5.325-.46-6.992-1.07 6.21-5.888s2.933.368 7.36.219c0 0 .472 6.739-1.139 7.199l.004-.003.086-.019c.235-.063.425-.166.703-.358.667-.483.886-1.288.943-1.622l.897-6.624c.357-4.416.127-7.349.127-7.349l6.199-5.9zm-23.254 6.923c.403-1.656 7.268-.828 7.268-.828-.368 4.405-.138 7.36-.138 7.36h0l-6.199 5.9-.725-7.038-.207-5.394zm7.832-8.832c.805-.771 1.668-.656 1.748-.656l5.762.506 6.969 1.058-6.199 5.9s-2.921-.368-7.349-.23c-2.496.069-4.98.345-6.659.564-.334.046-1.162.219-1.668.863-.253.311-.368.529-.437.828h0v-.481c.005-.264.073-.968.725-1.601l7.107-6.751z" opacity=".3"/></g></g><g opacity=".8" transform="translate(70.742 36.684)" class="B"><path d="M12.813 23.617h0l4.712-14.503H8.1z" class="Z"/><use xlink:href="#R" class="H"/><use fill="#85b7dc" xlink:href="#R"/><path d="M1.496 9.114h0L.064 13.522c-.131.402.012.842.354 1.091l12.394 9.005L1.496 9.114z" class="H"/><path d="M1.496 9.114H8.1L5.262.379a.49.49 0 0 0-.928 0L1.496 9.114z" class="Z"/><use xlink:href="#S" class="H"/><use fill="#85b7dc" xlink:href="#S"/><path d="M24.129 9.114h0l1.432 4.407c.131.402-.012.842-.354 1.091l-12.394 9.005L24.129 9.114z" class="H"/><path d="M24.129 9.114h-6.604L20.363.379a.49.49 0 0 1 .928 0l2.838 8.735z" class="Z"/></g><path d="M21.16 19.033l.094.056-.101.167c-.482.778-1.057 1.48-1.707 2.092.347.292.71.695 1.042 1.174.843 1.22 1.155 2.472.698 2.796s-1.511-.402-2.353-1.622c-.307-.445-.544-.895-.699-1.302-1.34.899-2.889 1.475-4.533 1.65.126.448.201 1.007.201 1.612 0 1.489-.452 2.697-1.01 2.697s-1.01-1.207-1.01-2.697c0-.587.07-1.131.19-1.574a9.99 9.99 0 0 1-4.61-1.419 6.51 6.51 0 0 1-.587 1.032c-.843 1.22-1.896 1.946-2.353 1.622s-.144-1.576.698-2.796a6.49 6.49 0 0 1 .775-.931c-.634-.554-1.203-1.19-1.692-1.898l-.238-.36 2.203-.037c1.57 1.879 3.876 3 6.367 3 2.592 0 4.98-1.214 6.549-3.225l2.077-.038zm-.315-7.621v2.403h1.915v-2.403h1.585v6.301H22.76v-2.243h-1.915v2.243h-1.585v-6.301h1.585zm-3.403 0v6.301h-3.749v-1.369h2.164v-1.025h-1.915v-1.395h1.915v-1.159h-2.164v-1.353h3.749zm-5.487 0v6.301H10.37v-4.637H8.198v-1.663h3.757zm-10.25 0v3.234l1.577-1.504 1.585 1.495v-3.226H6.46v6.301h-.716l-2.462-2.335-2.454 2.335H.112v-6.301h1.593zM12.453.238c.558 0 1.01 1.207 1.01 2.697 0 .605-.075 1.164-.201 1.614a10.01 10.01 0 0 1 4.576 1.678c.148-.452.408-.969.762-1.482.843-1.22 1.896-1.946 2.353-1.622s.144 1.576-.698 2.796c-.377.546-.796.993-1.185 1.291.666.62 1.253 1.333 1.744 2.126l.068.111-2.219-.029c-1.569-1.949-3.92-3.122-6.467-3.122-2.471 0-4.759 1.103-6.328 2.954l-2.219-.028.217-.326a10.35 10.35 0 0 1 1.709-1.915 6.21 6.21 0 0 1-.914-1.062c-.843-1.22-1.155-2.472-.698-2.796s1.511.402 2.353 1.622a6.36 6.36 0 0 1 .664 1.211 9.99 9.99 0 0 1 4.654-1.45c-.12-.441-.191-.984-.191-1.572 0-1.489.452-2.697 1.01-2.697z" transform="matrix(-1 0 0 -1 25.610633 29.494809)" class="B H"/></g><g class="B L"><path d="M16.039 25c.461 0 .818-.026 1.07-.079a2.27 2.27 0 0 0 .682-.257 2.18 2.18 0 0 0 .8-.781c.186-.317.279-.669.279-1.054 0-.457-.108-.833-.324-1.127s-.554-.526-1.016-.695c.279-.161.49-.367.632-.619s.213-.543.213-.873c0-.669-.232-1.176-.695-1.523s-1.142-.521-2.034-.521h0-2.92c-.275 0-.474.056-.597.168s-.184.291-.184.536c0 .229.057.402.171.521s.281.178.501.178h.108v4.735h-.108c-.22 0-.387.058-.501.175s-.171.287-.171.511c0 .25.06.43.181.54s.321.165.6.165h3.313zm-.889-4.564h-.857v-1.6h1.054c.432 0 .744.063.936.19s.289.328.289.603c0 .292-.107.499-.321.622s-.581.184-1.101.184h0zm.095 3.212h-.952v-1.936h1.016c.656 0 1.115.074 1.377.222s.394.398.394.749-.138.595-.413.743-.749.222-1.422.222h0zM24.411 25c.288 0 .492-.055.613-.165s.181-.29.181-.54-.06-.421-.181-.527-.325-.159-.613-.159h0-1.498v-2.057c.377-.381.702-.662.978-.844s.514-.273.717-.273c.102 0 .282.07.543.209s.486.209.676.209c.267 0 .485-.079.654-.238s.254-.361.254-.606c0-.317-.123-.57-.368-.759s-.578-.282-.997-.282a2.72 2.72 0 0 0-1.292.317c-.4.212-.83.565-1.292 1.06h0v-.939c0-.085-.032-.151-.095-.2s-.152-.073-.267-.073h0-1.352c-.296 0-.503.053-.619.159s-.175.284-.175.533.06.428.181.536.325.162.613.162h.273v3.085h-.482c-.296 0-.505.053-.625.159s-.181.281-.181.527.061.43.184.54.33.165.622.165h3.548zm6.551-6.748c.339 0 .553-.052.644-.156s.136-.371.136-.803c0-.449-.051-.732-.152-.851s-.307-.178-.616-.178c-.334 0-.55.074-.647.222s-.146.493-.146 1.035c0 .292.048.487.143.584s.308.146.638.146zM33.253 25c.288 0 .494-.055.619-.165s.187-.29.187-.54-.061-.421-.184-.527-.33-.159-.622-.159h0-1.365v-4.202c0-.085-.032-.151-.095-.2s-.154-.073-.273-.073h0-1.911c-.292 0-.497.053-.616.159s-.178.284-.178.533.061.428.184.536.326.162.609.162h.717v3.085h-1.365c-.296 0-.505.053-.625.159s-.181.281-.181.527.062.43.187.54.331.165.619.165h4.291zm4.539 0c.284 0 .487-.055.609-.165s.184-.29.184-.54c0-.233-.059-.407-.178-.524s-.298-.175-.54-.175h0-.076v-1.834c0-.423.111-.763.333-1.019s.509-.384.86-.384c.33 0 .566.107.708.321s.213.574.213 1.082h0v1.834h-.076c-.241 0-.422.058-.543.175s-.181.291-.181.524c0 .25.062.43.187.54s.329.165.613.165h1.562c.288 0 .492-.055.613-.165s.181-.29.181-.54c0-.233-.059-.407-.178-.524s-.296-.175-.533-.175h0-.083v-2.12c0-.842-.166-1.468-.498-1.879s-.837-.616-1.514-.616a2.28 2.28 0 0 0-1.051.232c-.303.154-.551.384-.746.689h0v-.495c0-.089-.031-.157-.092-.203s-.151-.07-.27-.07h0-1.079c-.292 0-.499.055-.622.165s-.184.29-.184.54c0 .224.059.395.178.511s.292.175.521.175h.108v3.072h-.076c-.241 0-.421.058-.54.175s-.178.291-.178.524c0 .25.061.43.184.54s.326.165.609.165h1.574zm8.334 2.545c1.113 0 1.921-.209 2.425-.628s.755-1.092.755-2.019h0v-4.374h.108c.224 0 .395-.059.511-.178s.175-.292.175-.521c0-.245-.059-.422-.178-.53s-.324-.162-.616-.162h0-1.035a.47.47 0 0 0-.276.067c-.061.044-.092.109-.092.194h0v.33c-.212-.254-.461-.441-.749-.562s-.622-.181-1.003-.181c-.88 0-1.603.277-2.168.832s-.847 1.261-.847 2.12c0 .834.27 1.516.809 2.047s1.235.797 2.085.797a3.38 3.38 0 0 0 .917-.124 3.89 3.89 0 0 0 .892-.384h0v.286c0 .592-.115 1.003-.346 1.231s-.649.343-1.254.343c-.262 0-.548-.019-.857-.057l-.546-.057c-.216 0-.389.063-.521.19s-.197.292-.197.495c0 .292.162.506.486.641s.83.203 1.52.203zm.203-4.043c-.415 0-.759-.149-1.031-.448s-.409-.676-.409-1.133c0-.465.136-.848.409-1.149s.617-.451 1.031-.451a1.34 1.34 0 0 1 1.038.451c.273.3.409.683.409 1.149 0 .457-.136.835-.409 1.133s-.619.448-1.038.448zM15.791 42.533c.288 0 .494-.055.619-.165s.187-.288.187-.533-.062-.43-.187-.54-.331-.165-.619-.165h0-.286l2.609-5.605h.108c.229 0 .402-.059.521-.178s.178-.292.178-.521c0-.245-.06-.422-.181-.53s-.329-.162-.625-.162h0-1.492c-.296 0-.505.053-.625.159s-.181.284-.181.533c0 .229.06.402.181.521s.295.178.524.178h.102l-1.2 2.704-1.143-2.704h.108c.224 0 .397-.059.517-.178s.181-.292.181-.521c0-.245-.061-.422-.184-.53s-.33-.162-.622-.162h0-1.612c-.292 0-.499.053-.622.159s-.184.284-.184.533c0 .229.06.402.181.521s.295.178.524.178h.102l1.923 4.329-.597 1.276h-.984c-.292 0-.499.055-.622.165s-.184.29-.184.54.061.428.184.536.33.162.622.162h2.78zm7.408-2.374c1.028 0 1.862-.288 2.501-.863s.958-1.316.958-2.222-.319-1.64-.958-2.215-1.473-.863-2.501-.863c-1.02 0-1.85.288-2.491.863s-.962 1.314-.962 2.215.319 1.646.958 2.222 1.471.863 2.495.863zm0-1.339c-.495 0-.902-.166-1.222-.498s-.479-.752-.479-1.26.16-.917.479-1.241.727-.486 1.222-.486.909.162 1.228.486.479.737.479 1.241-.161.928-.482 1.26-.73.498-1.225.498zm7.141 1.327c.398 0 .744-.076 1.038-.229a2 2 0 0 0 .746-.686h0v.482a.25.25 0 0 0 .098.209c.066.051.158.076.276.076h1.066c.292 0 .499-.054.622-.162s.184-.289.184-.543c0-.22-.06-.389-.181-.508s-.295-.178-.524-.178h0-.102v-4.202c0-.085-.032-.151-.095-.2s-.152-.073-.267-.073h0-1.2c-.292 0-.497.053-.616.159s-.178.284-.178.533c0 .229.058.402.175.521s.289.178.517.178h.102v1.834c0 .423-.113.765-.34 1.025s-.515.39-.866.39c-.33 0-.567-.106-.711-.317s-.216-.578-.216-1.098h0v-2.952c0-.085-.03-.151-.089-.2s-.146-.073-.26-.073h0-1.193c-.296 0-.505.053-.625.159s-.181.284-.181.533c0 .229.059.402.178.521s.292.178.521.178h.108v2.12c0 .846.165 1.475.495 1.885s.836.616 1.517.616zM40.014 40c.288 0 .492-.055.613-.165s.181-.29.181-.54-.06-.421-.181-.527-.325-.159-.613-.159h0-1.498v-2.057c.377-.381.702-.662.978-.844s.514-.273.717-.273c.102 0 .282.07.543.209s.486.209.676.209c.267 0 .485-.079.654-.238s.254-.361.254-.606c0-.317-.123-.57-.368-.759s-.578-.282-.997-.282a2.72 2.72 0 0 0-1.292.317c-.4.212-.83.565-1.292 1.06h0v-.939c0-.085-.032-.151-.095-.2s-.152-.073-.267-.073h0-1.352c-.296 0-.503.053-.619.159s-.175.284-.175.533.06.428.181.536.325.162.613.162h.273v3.085h-.482c-.296 0-.505.053-.625.159s-.181.281-.181.527.061.43.184.54.33.165.622.165h3.548zM15.397 55.159c1.028 0 1.862-.288 2.501-.863s.958-1.316.958-2.222-.319-1.64-.958-2.215-1.473-.863-2.501-.863c-1.02 0-1.85.288-2.491.863s-.962 1.314-.962 2.215.319 1.646.958 2.222 1.471.863 2.495.863zm0-1.339c-.495 0-.902-.166-1.222-.498s-.479-.752-.479-1.26.16-.917.479-1.241.727-.486 1.222-.486.909.162 1.228.486.479.737.479 1.241-.161.928-.482 1.26-.73.498-1.225.498zm9.496 1.339c.292 0 .514-.05.667-.149s.25-.259.292-.479h0l.793-4.005h.108c.224 0 .397-.059.517-.178s.181-.292.181-.521c0-.245-.061-.422-.184-.53s-.33-.162-.622-.162h0-1.492c-.296 0-.505.053-.625.159s-.181.284-.181.533c0 .229.059.402.178.521s.292.178.521.178h.108l-.482 3.123-.705-2.418c-.076-.262-.169-.432-.279-.508s-.273-.114-.489-.114-.379.04-.489.121-.201.248-.273.501h0l-.679 2.418-.508-3.123h.108c.224 0 .395-.059.511-.178s.175-.292.175-.521c0-.245-.059-.422-.178-.53s-.324-.162-.616-.162h0-1.504c-.292 0-.497.054-.616.162s-.178.285-.178.53c0 .229.058.402.175.521s.287.178.511.178h.108l.806 4.005c.042.22.138.38.286.479s.368.149.66.149c.284 0 .508-.052.673-.156s.275-.261.33-.473h0l.66-2.469.743 2.469c.068.22.178.38.33.479s.372.149.66.149zM29.991 55c.284 0 .487-.055.609-.165s.184-.29.184-.54c0-.233-.059-.407-.178-.524s-.298-.175-.54-.175h0-.076v-1.834c0-.423.111-.763.333-1.019s.509-.384.86-.384c.33 0 .566.107.708.321s.213.574.213 1.082h0v1.834h-.076c-.241 0-.422.058-.543.175s-.181.291-.181.524c0 .25.062.43.187.54s.329.165.613.165h1.562c.288 0 .492-.055.613-.165s.181-.29.181-.54c0-.233-.059-.407-.178-.524s-.296-.175-.533-.175h0-.083v-2.12c0-.842-.166-1.468-.498-1.879s-.837-.616-1.514-.616a2.28 2.28 0 0 0-1.051.232c-.303.154-.551.384-.746.689h0v-.495c0-.089-.031-.157-.092-.203s-.151-.07-.27-.07h0-1.079c-.292 0-.499.055-.622.165s-.184.29-.184.54c0 .224.059.395.178.511s.292.175.521.175h.108v3.072h-.076c-.241 0-.421.058-.54.175s-.178.291-.178.524c0 .25.061.43.184.54s.326.165.609.165h1.574zM15.715 70.127c.749 0 1.419-.134 2.009-.403s.885-.566.885-.892c0-.195-.062-.361-.187-.498s-.274-.206-.448-.206c-.152 0-.453.095-.901.286s-.838.286-1.168.286c-.351 0-.597-.085-.736-.254s-.209-.482-.209-.939h0V65.88h1.936c.288 0 .494-.055.619-.165s.187-.29.187-.54-.061-.421-.184-.527-.33-.159-.622-.159h0-1.936v-1.485c0-.292-.06-.497-.181-.616s-.321-.178-.6-.178-.479.059-.6.178-.181.324-.181.616h0v1.485h-.597c-.292 0-.497.052-.616.156s-.178.28-.178.53.06.43.181.54.325.165.613.165h.597v1.765c0 .554.03.95.089 1.187s.159.44.298.609c.19.22.451.389.781.508s.713.178 1.149.178zm7.484.032c1.028 0 1.862-.288 2.501-.863s.958-1.316.958-2.222-.319-1.64-.958-2.215-1.473-.863-2.501-.863c-1.02 0-1.85.288-2.491.863s-.962 1.314-.962 2.215.319 1.646.958 2.222 1.471.863 2.495.863zm0-1.339c-.495 0-.902-.166-1.222-.498s-.479-.752-.479-1.26.16-.917.479-1.241.727-.486 1.222-.486.909.162 1.228.486.479.737.479 1.241-.161.928-.482 1.26-.73.498-1.225.498zM31 70.159c1.028 0 1.862-.288 2.501-.863s.958-1.316.958-2.222-.319-1.64-.958-2.215-1.473-.863-2.501-.863c-1.02 0-1.85.288-2.491.863s-.962 1.314-.962 2.215.319 1.646.958 2.222 1.471.863 2.495.863zm0-1.339c-.495 0-.902-.166-1.222-.498s-.479-.752-.479-1.26.16-.917.479-1.241.727-.486 1.222-.486.909.162 1.228.486.479.737.479 1.241-.161.928-.482 1.26-.73.498-1.225.498zM40.947 70c.288 0 .492-.055.613-.165s.181-.29.181-.54-.059-.421-.178-.527-.324-.159-.616-.159h0-1.365v-6.646c0-.085-.033-.151-.098-.2s-.158-.073-.276-.073h0-1.898c-.292 0-.499.055-.622.165s-.184.29-.184.54.062.424.187.536.331.168.619.168h.698v5.51h-1.365c-.292 0-.496.052-.613.156s-.175.28-.175.53.06.43.181.54.323.165.606.165h4.304zm5.865.171c.868 0 1.537-.175 2.009-.524s.708-.843.708-1.482c0-.546-.179-.957-.536-1.235s-1.015-.486-1.971-.625l-.521-.063c-.762-.102-1.143-.3-1.143-.597 0-.19.091-.34.273-.448s.438-.162.768-.162c.423 0 .845.151 1.266.454s.718.454.892.454.3-.05.394-.149.14-.24.14-.422h0v-.781c0-.216-.045-.378-.136-.486s-.223-.162-.397-.162a.72.72 0 0 0-.333.076c-.099.051-.194.129-.282.235-.305-.093-.602-.162-.892-.206a5.59 5.59 0 0 0-.847-.067c-.8 0-1.416.163-1.847.489s-.647.787-.647 1.384c0 .504.18.905.54 1.203s.908.498 1.644.6l.508.07c.978.131 1.466.368 1.466.711 0 .19-.091.345-.273.463s-.425.178-.73.178c-.351 0-.664-.047-.939-.14s-.516-.233-.724-.419c-.063-.063-.142-.161-.235-.292-.157-.241-.36-.362-.609-.362-.229 0-.389.058-.482.175s-.14.314-.14.594h0v.844c0 .267.037.449.111.546s.202.146.384.146c.123 0 .242-.022.359-.067s.23-.109.34-.194c.292.085.595.149.908.194s.639.067.978.067z"/><path d="M215.259 67.098a3.74 3.74 0 0 0 1.328-.225c.397-.15.788-.397 1.172-.742h0l.903.869h1.118l-1.46-1.421c.446-.482.78-1.188 1.001-2.119h0-.82a6.1 6.1 0 0 1-.276.891 2.36 2.36 0 0 1-.437.71h0l-1.987-1.909c.511-.303.877-.601 1.099-.896a1.57 1.57 0 0 0 .332-.964c0-.485-.151-.863-.454-1.135s-.718-.408-1.245-.408c-.57 0-1.014.137-1.333.41s-.479.654-.479 1.143a1.66 1.66 0 0 0 .088.537 2.4 2.4 0 0 0 .237.498c.099.16.287.394.564.703-.586.332-.992.661-1.218.986a1.92 1.92 0 0 0-.339 1.123c0 .609.193 1.086.579 1.431s.929.518 1.628.518zm.039-4.438c-.283-.286-.483-.531-.601-.735s-.176-.417-.176-.642a.79.79 0 0 1 .271-.63c.181-.156.416-.234.706-.234.28 0 .504.079.671.237s.251.362.251.613c0 .27-.082.509-.247.715s-.457.432-.876.676zm-.02 3.711c-.42 0-.756-.111-1.008-.334s-.378-.525-.378-.906c0-.212.036-.4.107-.566a1.45 1.45 0 0 1 .332-.466c.15-.145.405-.328.767-.549h0l2.134 2.07c-.518.501-1.169.752-1.953.752zm8.789.63v-2.808c0-.693.118-1.192.354-1.497s.608-.457 1.116-.457c.387 0 .672.107.854.32s.273.533.273.959h0V67h.811v-2.988c0-.602.12-1.048.361-1.338s.614-.435 1.118-.435c.384 0 .667.107.85.32s.273.533.273.959h0V67h.811v-3.491c0-.684-.151-1.181-.452-1.492s-.754-.466-1.36-.466c-.387 0-.732.081-1.035.244s-.534.384-.693.664h0-.039c-.257-.605-.804-.908-1.641-.908-.345 0-.657.073-.935.22s-.494.35-.647.61h0-.039l-.132-.732h-.659V67h.811zm10.63.098c.775 0 1.382-.245 1.821-.735s.659-1.171.659-2.043c0-.85-.221-1.523-.662-2.021s-1.036-.747-1.785-.747c-.775 0-1.38.243-1.816.73s-.654 1.166-.654 2.039c0 .563.101 1.055.303 1.475s.488.742.859.967.796.337 1.274.337zm.02-.679c-.531 0-.933-.179-1.206-.537s-.41-.879-.41-1.562c0-.69.135-1.209.405-1.558s.671-.522 1.201-.522c.537 0 .943.177 1.218.53s.413.87.413 1.55c0 .687-.138 1.208-.413 1.565s-.678.535-1.208.535zm4.692.581v-2.871c0-.524.154-.962.461-1.313s.678-.527 1.111-.527a2.76 2.76 0 0 1 .586.073h0l.112-.752a3.17 3.17 0 0 0-.64-.059c-.335 0-.643.094-.923.283s-.519.457-.718.806h0-.039l-.093-.991h-.669V67h.811zm5.532.098c.361 0 .67-.027.925-.081a4.29 4.29 0 0 0 .813-.266h0v-.723a4.31 4.31 0 0 1-1.709.361c-.547 0-.971-.163-1.272-.488s-.46-.802-.476-1.431h3.687v-.513c0-.723-.195-1.305-.586-1.746s-.921-.662-1.592-.662c-.716 0-1.287.254-1.711.762s-.637 1.193-.637 2.056c0 .856.229 1.525.686 2.007s1.082.723 1.873.723zm1.099-3.286h-2.798c.046-.495.196-.882.452-1.162s.598-.42 1.028-.42c.423 0 .749.136.977.408s.342.663.342 1.174h0z"/></g></g></g><g transform="matrix(-1 0 0 -1 256.995099 149.221311)"><g stroke="#14ba5a"><path d="M18.361 0v67.506m13.97-50.695c0-7.715-6.255-13.97-13.97-13.97S4.39 9.096 4.39 16.811"/><path d="M14.767 27.997h7.187M.793 13.256l3.598 3.598 3.598-3.598"/><path d="M28.733 13.256l3.598 3.598 3.598-3.598M18.361 30.543h0c-1.35 0-2.455 1.104-2.455 2.455a2.46 2.46 0 0 0 2.455 2.455 2.46 2.46 0 0 0 2.455-2.455 2.46 2.46 0 0 0-2.455-2.455z"/></g><path d="M25.358 68.493h-9.062v46.34h9.062zm13.81-14.064v34.545l11.908 11.908-7.545 7.545-15.073-15.072.102-.103-.062.001V59.172l-4.547-4.739 4.547.005v-.009h10.67zm54.563.004l10.145.014-.008.006 7.583 7.487-49.702 49.703-7.545-7.545 44.491-44.492-4.963-5.172z" class="B T"/><g class="O B"><path d="M61.909 111.499L40.736 90.357l-24.441 24.475 21.173 21.143z"/><path d="M16.017 122.155l4.197 4.186 3.812-3.821 5.977 5.963-7.46 7.478 1.602 1.598-2.702 2.708-1.602-1.598-4.606 4.618-10.175-10.15 3.951-3.961 1.175-4.185 1.503 1.5 2.146-2.15 2.181-2.187z"/></g><path d="M6.197 131.977l-.03.063 10.143 10.115-2.878 5.925-3.041-3.033.062-.032L3.32 137.9l-.001.002-3.041-3.033 5.854-2.86.002-.002.001.001.062-.031zm25.966-11.651l.839 11.197-12.035-12.027z" fill="#f2f7fb" class="B"/><path d="M32.163 120.327l-2.188 8.173-5.984-5.98z" class="B T"/><path stroke="#14ba5a" d="M18.361 67.506l21.33 21.33"/><g class="B"><path d="M13.637 67.172l6.459 6.476 5.261-5.25-6.459-6.475z" class="T"/><path d="M23.502 66.538l.924.925-5.234 5.22-.923-.925 5.233-5.22zm-1.873-1.878l.924.926-5.262 5.249-.923-.926 5.261-5.249zm-1.813-1.817l.924.926-5.261 5.249-.924-.926 5.261-5.249z" class="F"/><use xlink:href="#T" class="O"/><use xlink:href="#T" class="F"/></g></g><path d="M93.199 56.8L72.028 66.94 66.8 89.728 81.451 108h23.497L119.6 89.728l-5.228-22.788z" class="B O"/><g stroke="#fff" stroke-width="1.6" class="a"><path d="M103.905 76.154c-7.118-2.687-9.756-4.853-9.783-4.879-.302-.261-.742-.261-1.044 0-.027.026-2.638 2.166-9.783 4.879-.302.104-.495.391-.495.678 0 13.359 9.976 18.734 10.415 18.942a.93.93 0 0 0 .385.104c.137 0 .247-.026.385-.104.412-.209 10.415-5.584 10.415-18.942 0-.287-.192-.574-.495-.678z"/><path d="M90.4 82.857l2.571 2.571L97.6 80.8" class="b"/></g><g class="B"><path d="M36.999 40.8L20.96 48.405 17 65.496 28.099 79.2h17.8L57 65.496l-3.96-17.091z" class="O"/><path d="M39.576 54.141c-.426-.163-.902.05-1.065.476l-5.362 14.025c-.11.276-.063.591.124.822a.83.83 0 0 0 .777.297c.294-.048.538-.251.641-.53l5.362-14.025c.163-.426-.05-.902-.476-1.065m6.156 6.484l-4.385-2.704c-.251-.155-.565-.164-.824-.024s-.424.408-.433.702.141.571.392.726l4.176 2.574c.004.015.004.032 0 .047l-4.176 2.574c-.258.152-.413.43-.407.729s.174.571.438.711.583.126.834-.036l4.385-2.704.068-.068c.678-.68.678-1.781 0-2.461l-.068-.068m-13.015 3.899l-4.176-2.574c-.004-.015-.004-.032 0-.047l4.176-2.574c.258-.152.413-.43.407-.729s-.174-.571-.438-.711-.583-.126-.834.036l-4.385 2.704-.068.068c-.678.68-.678 1.781 0 2.461l.068.068 4.385 2.704c.388.239.896.119 1.135-.269s.119-.896-.269-1.135" fill="#fffffe"/><path d="M185.999 78l-21.171 10.14-5.228 22.788 14.651 18.272h23.497l14.653-18.272-5.228-22.788z" class="O"/></g><path stroke="#fff" stroke-width="1.6" d="M173.599 106.27h5.35l2.143-9.591 4.151 17.6 6.464-12.955 2.033 4.946h5.459" class="a b"/><g class="B"><path d="M149.599 43.4l-16.039 7.605-3.96 17.091L140.699 81.8h17.8l11.1-13.704-3.96-17.091z" class="O"/><path d="M156.267 59.279c-1.383 0-2.69.538-3.621 1.47l-6.753 5.994a3.23 3.23 0 0 1-2.305.951c-1.796 0-3.256-1.451-3.256-3.247s1.46-3.247 3.256-3.247c.874 0 1.691.336 2.344.989l1.085.961 1.451-1.287-1.21-1.066a5.16 5.16 0 0 0-3.67-1.518c-2.863 0-5.187 2.325-5.187 5.168s2.325 5.168 5.187 5.168c1.383 0 2.69-.538 3.621-1.47l6.753-5.994a3.23 3.23 0 0 1 2.305-.951c1.796 0 3.256 1.451 3.256 3.247s-1.46 3.247-3.256 3.247c-.865 0-1.691-.336-2.344-.989l-1.095-.97-1.451 1.287 1.22 1.076c.98.97 2.277 1.508 3.67 1.508 2.863 0 5.187-2.315 5.187-5.168s-2.325-5.158-5.187-5.158h0z" class="F"/></g></g></svg>