<svg height="40" viewBox="0 0 40 40" width="40" xmlns="http://www.w3.org/2000/svg"><g fill="none"><circle cx="20" cy="20" fill="#006bb8" r="20"/><path d="m21.0786573 7.97596663c-2.2669167-7.55975-5.5430833-9.32295833-13.10283332-7.055125-7.55883333 2.267375-9.32295833 5.54354167-7.055125 13.10329167 2.26829167 7.5588333 5.544 9.3229583 13.10329162 7.055125 7.55975-2.2682917 9.3229584-5.544 7.055125-13.10329167m-3.8234166 4.90737497-1.4254167.477125.4940833 1.4758334c.1998466.5971348-.1222192 1.2432159-.7193541 1.4430625-.5971349.1998465-1.243216-.1222193-1.4430625-.7193542l-.4940834-1.4749167-2.9392916.9845.493625 1.4749167c.1407803.3892094.0596195.824143-.2120553 1.1363863-.2716748.3122432-.6912065.452769-1.09614438.367163-.40493784-.085606-.73170031-.3839022-.85375867-.7793826l-.49454167-1.4749167-1.42541667.4775833c-.59233202.1840757-1.22319995-.138855-1.42024526-.7269997-.19704531-.5881448.11194675-1.2259555.69562026-1.4358753l1.42633334-.4775833-.94829167-2.8292917-1.42541667.4780417c-.2868735.0961213-.60018663.0743001-.87096613-.0606598-.27077949-.1349599-.47682735-.3719949-.57278387-.6589235-.09612133-.2868735-.07430015-.60018667.06065979-.87096617.13495993-.27077949.37199487-.47682735.65892355-.57278387l1.42541666-.47758333-.49408333-1.47445833c-.12935999-.38636043-.04277269-.81238492.22714529-1.11759414s.68215968-.44323462 1.0814376-.36208336.72493224.36915037.85429211.75551083l.493625 1.47491667 2.93975002-.9845-.4940834-1.47491667c-.1728066-.58876712.150862-1.20879304.7327177-1.40360803.5818556-.19481498 1.2136094.10531956 1.4301573.67944136l.493625 1.47491667 1.4254167-.47758333c.3863604-.12935995.8123849-.04277263 1.1175941.22714534.3052092.26991798.4432346.68215964.3620833 1.08143754-.0811512.3992779-.3691503.72493222-.7555107.85429212l-1.4254167.47666666.9478333 2.83020834 1.4254167-.4780417c.5901414-.176676 1.2139932.1468752 1.4095384.7310355.1955452.5841604-.1077955 1.2180854-.6853717 1.4322979zm-8.19958335-2.8059166.94783335 2.8292916 2.93975-.9845-.947375-2.82929164-2.93975002.98450004z" fill="#fff" transform="translate(9 9)"/></g></svg>