<svg height="32" viewBox="0 0 32 32" width="32" xmlns="http://www.w3.org/2000/svg"><path d="m16 0c8.8368 0 16 7.344 16 16.4048 0 7.2464-4.5792 13.3936-10.9328 15.5648-.8112.1616-1.0992-.3504-1.0992-.7872 0-.5408.0192-2.3072.0192-4.5024 0-1.5296-.512-2.528-1.0864-3.0368 3.5632-.4064 7.3072-1.7936 7.3072-8.0944 0-1.792-.6208-3.2544-1.648-4.4032.1664-.4144.7152-2.0832-.1568-4.3424 0 0-1.3408-.44-4.3952 1.6816-1.305025-.36375244-2.6532308-.54943348-4.008-.552-1.353726.00244332-2.7008912.1881293-4.0048.552-3.0576-2.1216-4.4016-1.6816-4.4016-1.6816-.8688 2.2592-.32 3.928-.1552 4.3424-1.0224 1.1488-1.648 2.6112-1.648 4.4032 0 6.2848 3.736 7.6928 7.2896 8.1072-.4576.4096-.872 1.1328-1.016 2.1936-.912.4192-3.2288 1.144-4.656-1.3632 0 0-.8464-1.576-2.4528-1.6912 0 0-1.56-.0208-.1088.9968 0 0 1.048.504 1.776 2.4 0 0 .9392 2.928 5.3904 1.936.008 1.3712.0224 2.664.0224 3.0544 0 .4336-.2944.9408-1.0928.7888-6.3584-2.168-10.9424-8.3184-10.9424-15.5664 0-9.0608 7.1648-16.4048 16-16.4048" fill="#fff"/></svg>