<svg height="40" viewBox="0 0 40 40" width="40" xmlns="http://www.w3.org/2000/svg"><g fill="none"><circle cx="20" cy="20" fill="#006bb8" r="20"/><path d="m16 23c.5522847 0 1-.4477153 1-1s-.4477153-1-1-1-1 .4477153-1 1 .4477153 1 1 1zm5 0c.5522847 0 1-.4477153 1-1s-.4477153-1-1-1-1 .4477153-1 1 .4477153 1 1 1zm0-4c.5522847 0 1-.4477153 1-1s-.4477153-1-1-1-1 .4477153-1 1 .4477153 1 1 1zm-5 0c.5522847 0 1-.4477153 1-1s-.4477153-1-1-1-1 .4477153-1 1 .4477153 1 1 1zm7-12h-1v-1c0-.55228475-.4477153-1-1-1s-1 .44771525-1 1v1h-8v-1c0-.55228475-.4477153-1-1-1s-1 .44771525-1 1v1h-1c-1.65685425 0-3 1.34314575-3 3v14c0 1.6568542 1.34314575 3 3 3h14c1.6568542 0 3-1.3431458 3-3v-14c0-1.65685425-1.3431458-3-3-3zm1 17c0 .5522847-.4477153 1-1 1h-14c-.55228475 0-1-.4477153-1-1v-9h16zm0-11h-16v-3c0-.55228475.44771525-1 1-1h1v1c0 .5522847.4477153 1 1 1s1-.4477153 1-1v-1h8v1c0 .5522847.4477153 1 1 1s1-.4477153 1-1v-1h1c.5522847 0 1 .44771525 1 1zm-13 6c.5522847 0 1-.4477153 1-1s-.4477153-1-1-1-1 .4477153-1 1 .4477153 1 1 1zm0 4c.5522847 0 1-.4477153 1-1s-.4477153-1-1-1-1 .4477153-1 1 .4477153 1 1 1z" fill="#fff" transform="translate(4 4)"/></g></svg>