<svg height="40" viewBox="0 0 40 40" width="40" xmlns="http://www.w3.org/2000/svg"><g fill="none"><circle cx="20" cy="20" fill="#1b4c86" r="20"/><path d="m22 4.23270833c-.821551.37418639-1.6957008.61996855-2.591875.72875.9488691-.58569012 1.6537846-1.49491719 1.9845833-2.55979166-.883408.53782956-1.853896.91736995-2.8677916 1.12154166-.820875-.89925-1.9946667-1.46070833-3.2940417-1.46070833-2.4910417 0-4.5118333 2.072125-4.5118333 4.62825 0 .36254167.0389583.715.1164166 1.05416667-3.7514583-.193875-7.07666663-2.03408334-9.30416663-4.83770834-.40179063.71044147-.61215916 1.51306373-.6105 2.32925 0 1.60508334.79658333 3.02179167 2.0075 3.85229167-.71844532-.02377035-1.42032197-.2219695-2.04508334-.5775v.05683333c0 2.24308337 1.55604167 4.11445837 3.62220834 4.53795837-.38688826.1096886-.78724066.1646117-1.189375.1631666-.29058334 0-.57475-.0279583-.84975-.0825.57475 1.8379167 2.24033333 3.1771667 4.21620833 3.2129167-1.54458333 1.2420833-3.49158333 1.9822917-5.60541667 1.9822917-.364375 0-.72416666-.0215417-1.07708333-.0637084 1.997875 1.3108334 4.371125 2.077625 6.919 2.077625 8.3027083 0 12.8420417-7.0514583 12.8420417-13.16791663 0-.20120834-.004125-.40241667-.0119167-.5995.887116-.65799356 1.6494076-1.46933509 2.250875-2.39570834" fill="#fff" transform="translate(10 10)"/></g></svg>