<?xml version="1.0" standalone="no"?>
<!DOCTYPE svg PUBLIC "-//W3C//DTD SVG 1.0//EN" "http://www.w3.org/TR/2001/REC-SVG-20010904/DTD/svg10.dtd">
<svg xmlns="http://www.w3.org/2000/svg" xmlns:xlink="http://www.w3.org/1999/xlink" id="body_1" width="1200" height="630">

<g transform="matrix(0.9533781 0 0 0.9533781 -0 121.124596)">
    <path d="M305.53168 70.28224L286.63168 61.08224L83.83168 313.28223L96.83168 329.78223C 97.53168 330.5822 98.23168 331.38223 98.93168 332.0822L98.93168 332.0822L308.33167 71.8822C 307.45624 71.253395 306.51785 70.7172 305.53168 70.28224z" stroke="none" fill="#006BB8" fill-rule="nonzero" />
    <path d="M124.932 338.182L155.332 338.182L326.232 125.582L319.732 95.882L124.932 338.182L124.932 338.182" stroke="none" fill="#006BB8" fill-rule="nonzero" />
    <path d="M242.632 39.782L148.132 157.282L148.132 157.282L148.132 157.282L53.532 274.882L68.532 293.982L264.432 50.382L242.632 39.782L242.632 39.782" stroke="none" fill="#006BB8" fill-rule="nonzero" />
    <path d="M242.43166 338.18222C 249.15292 338.1573 255.50618 335.10922 259.73166 329.88223L259.73166 329.88223L340.53168 229.28223C 344.7569 224.038 346.37518 217.16026 344.93167 210.58223L344.93167 210.58223L332.93167 155.68222L186.13167 338.18222L242.43166 338.18222z" stroke="none" fill="#006BB8" fill-rule="nonzero" />
    <path d="M126.43166 114.88224C 118.03694 108.14436 105.76954 109.48752 99.03167 117.88225C 92.2938 126.276985 93.63695 138.54437 102.03168 145.28226C 110.426414 152.02013 122.6938 150.67697 129.43167 142.28224C 136.15515 133.88333 134.81326 121.62733 126.43166 114.88224z" stroke="none" fill="#006BB8" fill-rule="nonzero" />
    <path d="M86.93166 163.98222C 74.82036 154.22887 68.8324 138.7551 71.223404 123.38972C 73.614395 108.024345 84.0211 95.10174 98.5234 89.489716C 113.0257 83.8777 129.42035 86.42886 141.53166 96.18222C 146.83289 100.39276 151.05019 105.81013 153.83167 111.98222L153.83167 111.98222L220.53166 29.082222L190.43166 14.482222C 184.3602 11.58218 177.30313 11.58218 171.23166 14.482222L171.23166 14.482222L55.13166 70.28222C 51.78627 71.87003 48.896713 74.278 46.73166 77.28222C 45.002335 79.690216 43.746696 82.40511 43.03166 85.28222L43.03166 85.28222L13.531658 210.68222C 11.9603 217.2145 13.471407 224.10661 17.631659 229.38222L17.631659 229.38222L38.331657 255.58221L105.031654 172.58221C 98.41485 171.15266 92.21941 168.20898 86.93166 163.98222z" stroke="none" fill="#006BB8" fill-rule="nonzero" />
    <path d="M613.7316 259.38223C 613.7316 245.38223 615.8316 232.98224 620.0316 222.48224C 624.2316 211.88223 629.7316 203.08224 636.6316 196.08224C 643.3866 189.20135 651.4889 183.78845 660.4316 180.18225C 669.1709 176.6593 678.509 174.85959 687.9316 174.88225C 709.9316 174.88225 727.06494 181.71558 739.3316 195.38225C 751.6316 208.98224 757.7983 229.3489 757.8316 256.48224C 757.8316 258.48224 757.7316 260.78223 757.6316 263.38223C 757.5316 265.88223 757.3316 268.18222 757.1316 270.28223L757.1316 270.28223L651.9316 270.28223C 652.9316 283.0822 657.4316 292.98224 665.53156 300.0822C 673.53156 307.0822 685.23157 310.5822 700.53156 310.5822C 708.7932 310.65082 717.03894 309.84634 725.13153 308.18222C 731.14044 306.97284 737.0303 305.23267 742.7315 302.9822L742.7315 302.9822L747.63153 333.18222C 744.92224 334.47333 742.1131 335.54346 739.2315 336.38223C 735.63153 337.48224 731.63153 338.48224 727.0315 339.48224C 722.4315 340.38223 717.5315 341.18225 712.2315 341.78223C 706.8528 342.38663 701.44403 342.68713 696.0315 342.68222C 682.0315 342.68222 669.7315 340.5822 659.4315 336.38223C 649.68066 332.61478 640.9231 326.66235 633.83154 318.98224C 627.02386 311.37796 621.9108 302.41306 618.83154 292.68225C 615.30505 281.93988 613.5817 270.68762 613.7316 259.38223zM720.93164 242.88223C 720.9567 237.97136 720.24896 233.0842 718.83167 228.38223C 717.548 224.03442 715.4058 219.988 712.5317 216.48224C 709.821 213.10353 706.3638 210.3994 702.4317 208.58224C 697.9749 206.56541 693.1224 205.57442 688.2317 205.68225C 683.05255 205.58536 677.9204 206.6802 673.2317 208.88225C 669.07025 210.87424 665.3867 213.73921 662.4317 217.28224C 659.4463 220.8098 657.1101 224.83884 655.5317 229.18224C 653.96533 233.6304 652.8268 238.21783 652.13165 242.88223L652.13165 242.88223L720.93164 242.88223z" stroke="none" fill="#002C66" fill-rule="nonzero" />
    <path d="M938.63165 258.78223C 938.733 270.1529 937.1491 281.47577 933.93164 292.38223C 931.07587 301.9194 926.46344 310.83908 920.33167 318.68222C 914.3809 326.00885 906.81744 331.86108 898.2317 335.78223C 889.33167 339.88223 879.33167 341.88223 868.1317 341.88223C 861.1068 341.94937 854.1066 341.0407 847.3317 339.18222C 841.93097 337.7051 836.7019 335.6604 831.73175 333.0822L831.73175 333.0822L831.73175 395.0822L794.8317 395.0822L794.8317 183.98221C 802.3317 181.98221 811.6317 179.98221 822.6317 178.1822C 834.13965 176.3423 845.7778 175.43938 857.4317 175.48221C 870.0317 175.48221 881.3317 177.3822 891.3317 181.28221C 900.93286 184.90506 909.6331 190.56879 916.8317 197.88222C 924.0245 205.40953 929.54517 214.37206 933.03174 224.18222C 936.7316 234.38223 938.63165 245.88223 938.63165 258.78223zM900.83167 259.38223C 900.83167 242.88223 897.13165 230.08223 889.7317 220.88223C 882.3317 211.68224 870.33167 207.18224 853.83167 207.18224C 850.33167 207.18224 846.7317 207.38223 843.0317 207.68224C 839.27606 207.9909 835.5589 208.66068 831.9317 209.68224L831.9317 209.68224L831.9317 300.98224C 836.0097 303.57272 840.3716 305.68655 844.9317 307.28223C 850.45764 309.2232 856.27496 310.20404 862.1317 310.18222C 875.53174 310.18222 885.3317 305.5822 891.6317 296.4822C 897.7316 287.0822 900.83167 274.78223 900.83167 259.38223z" stroke="none" fill="#002C66" fill-rule="nonzero" />
    <path d="M972.93164 136.58224L1009.83167 130.48224L1009.83167 178.68224L1066.6317 178.68224L1066.6317 209.48224L1009.93164 209.48224L1009.93164 274.48224C 1009.93164 287.28223 1011.93164 296.48224 1016.0316 301.98224C 1020.1316 307.48224 1027.0316 310.18225 1036.8317 310.18225C 1042.8645 310.2649 1048.8821 309.5589 1054.7317 308.08224C 1058.9462 307.0154 1063.0881 305.6793 1067.1317 304.08224L1067.1317 304.08224L1073.2317 333.38223C 1067.7534 335.59598 1062.1425 337.4663 1056.4316 338.98224C 1048.4629 341.0267 1040.2576 342.00195 1032.0316 341.88223C 1020.6316 341.88223 1011.1316 340.38223 1003.5316 337.28223C 996.38934 334.5478 990.10645 329.95642 985.3316 323.98224C 980.6522 317.73285 977.40857 310.52844 975.8316 302.88223C 973.93005 293.6052 973.0249 284.15155 973.1316 274.68222L973.1316 274.68222L973.1316 136.58221L972.93164 136.58224z" stroke="none" fill="#002C66" fill-rule="nonzero" />
    <path d="M1108.5316 183.98222C 1117.6798 181.51833 1126.9615 179.58183 1136.3317 178.18222C 1148.8756 176.29735 1161.5472 175.3946 1174.2317 175.48222C 1187.2317 175.48222 1198.1317 177.28223 1206.9316 180.78223C 1215.6316 184.38223 1222.6316 189.28223 1227.8317 195.78223C 1233.2391 202.5633 1237.004 210.50378 1238.8317 218.98222C 1241.0247 228.76216 1242.0981 238.75966 1242.0316 248.78223L1242.0316 248.78223L1242.0316 338.5822L1205.1316 338.5822L1205.1316 254.58221C 1205.214 247.27948 1204.645 239.9839 1203.4316 232.78221C 1202.5972 227.5644 1200.7272 222.5663 1197.9316 218.08221C 1195.4287 214.30936 1191.7844 211.43604 1187.5316 209.88222C 1182.4036 208.03903 1176.9795 207.15762 1171.5316 207.28221C 1166.618 207.29514 1161.71 207.59564 1156.8317 208.1822C 1151.7317 208.78221 1147.9316 209.28221 1145.5316 209.6822L1145.5316 209.6822L1145.5316 338.4822L1108.6316 338.4822L1108.6316 183.98221L1108.5316 183.98222z" stroke="none" fill="#002C66" fill-rule="nonzero" />
    <path d="M601.43164 338.18222L558.2316 338.18222L495.93164 264.18222L495.93164 338.28223L458.63165 338.28223L458.63165 104.88223L495.93164 98.682236L495.93164 239.68224C 500.63165 234.78224 505.73163 229.48224 511.03165 223.78224C 516.33167 218.08224 521.63165 212.48224 526.7316 206.78224C 531.8316 201.08224 536.7316 195.68224 541.43164 190.38225C 546.13165 185.08226 550.0316 180.58224 553.33167 176.68225L553.33167 176.68225L597.43164 176.68225C 587.13165 188.18225 576.33167 200.18225 564.93164 212.48225C 553.5316 224.78226 540.0316 240.98225 528.5316 252.68225L528.5316 252.68225L601.43164 338.18222z" stroke="none" fill="#002C66" fill-rule="nonzero" />
</g>
</svg>