<svg xmlns="http://www.w3.org/2000/svg" xmlns:xlink="http://www.w3.org/1999/xlink" width="170" height="126" xmlns:v="https://vecta.io/nano"><defs><path d="M4.627 23L.196 101.6h31.411L26.587 23H4.627z" id="A"/><linearGradient x1="80.1530624%" y1="50%" x2="2.27373675e-11%" y2="27.1193772%" id="B"><stop stop-color="#fff" stop-opacity="0" offset="0%"/><stop stop-color="#fff" offset="100%"/></linearGradient><linearGradient x1="83.0762741%" y1="58.2965334%" x2="-69.8953063%" y2="20.0946288%" id="C"><stop stop-color="#fff" stop-opacity="0" offset="0%"/><stop stop-color="#fff" offset="100%"/></linearGradient></defs><g transform="translate(0 -5)" fill="none" fill-rule="evenodd"><g transform="translate(27 12.2)"><path d="M17.8 0v5.45l6.496 4.069 2.097 9.257H5.216l2.097-9.257L13.8 5.454V0h4z" fill="#006bb8" fill-rule="nonzero"/><g fill="#fff"><path d="M11.098 10.2H7.2l-1.93 8.4h5.828zm9.472 0h3.848l1.982 8.4h-5.83z"/><path fill-opacity=".5" d="M11.098 10.2h9.472v8.4h-9.472z"/></g><mask id="D" fill="#fff"><use xlink:href="#A"/></mask><use fill="#b4cddf" xlink:href="#A"/><g mask="url(#D)"><g transform="translate(-6.745 25)"><g fill="#b5cee0"><path d="M0 0h44.706v14.8H0zm0 29.6h44.706v14.8H0zm0 29.6h44.706V74H0z"/></g><g fill="#fff"><path d="M0 14.8h44.706v14.8H0zm0 29.6h44.706v14.8H0z"/></g></g></g></g><g fill-rule="nonzero"><path d="M82.472 6.999C82.321 16.01 78.428 24.141 72.233 30L48.472 7z" fill="url(#B)" opacity=".3" transform="matrix(.866025 -.5 .5 .866025 -.478357 35.214746)"/><path d="M37.472 6.999C37.321 16.01 33.428 24.141 27.233 30L3.472 7z" fill="url(#C)" opacity=".3" transform="matrix(-.866025 -.5 -.5 .866025 47.452078 12.714746)"/></g><path d="M28.882 30.8h27.451v6.4H28.882zm-4.274 80h36v15h-36z" fill="#006bb8"/><g fill-rule="nonzero" fill="#14ba5a"><path d="M4 76.47h3v-1.333H4v1.333zm5 0h3v-1.333H9v1.333zm4.71-1.758l1.091-2.794-1.242-.485-1.091 2.794 1.242.485zm1.819-4.657l1.091-2.794-1.242-.485-1.091 2.794 1.242.485zm.512-4.071l.747 2.905 1.291-.332-.747-2.905-1.291.332zm1.245 4.842l.747 2.905 1.291-.332-.747-2.905-1.291.332zm1.245 4.842l.747 2.905 1.291-.332-.747-2.905-1.291.332zm1.245 4.842l.747 2.905 1.291-.332-.747-2.905-1.291.332zm1.245 4.842l.747 2.905 1.291-.332-.747-2.905-1.291.332zm2.605 2.861l.985-2.834-1.259-.438-.985 2.834 1.259.438zm1.642-4.723l.985-2.834-1.259-.438-.985 2.834 1.259.438zm1.642-4.723l.985-2.834-1.259-.438-.985 2.834 1.259.438zm1.642-4.723l.985-2.834-1.259-.438-.985 2.834 1.259.438zm1.642-4.723l.985-2.834-1.259-.438-.985 2.834 1.259.438zm1.642-4.723l.985-2.834-1.259-.438-.985 2.834 1.259.438zm.321-4.102l.654 2.928 1.301-.291-.654-2.928-1.301.291zm1.089 4.88l.654 2.928 1.301-.291-.654-2.928-1.301.291zm1.089 4.88l.654 2.928 1.301-.291-.654-2.928-1.301.291zm2.391 4.589l-1.301.291.297 1.332h2.703v-1.333h-2.169l.651.521-.181-.811zm3.699 1.623h3v-1.333h-3v1.333zm5-1.333v1.333h.792l1.488-2.58-1.155-.666-1.296 2.246.577.333v-.667h-.407zm3.279-2.979l1.499-2.599-1.155-.666-1.499 2.599 1.155.666zm2.498-4.331l.577-1.001-1.172-.032.833 1.646 1.19-.602-1.389-2.746-1.193 2.069 1.155.666zm1.14 2.398l1.354 2.677 1.19-.602-1.354-2.677-1.19.602zm3.447 3.86l-1.19.602.902 1.784h1.821v-1.333h-1.411l.595.366-.717-1.418zm3.533 2.385h3v-1.333h-3v1.333zm5 0H67v-1.333h-2.677v1.333z"/><path d="M55 76.47h3v-1.333h-3v1.333zm5 0h3v-1.333h-3v1.333zm4.71-1.758l1.091-2.794-1.242-.485-1.091 2.794 1.242.485zm1.819-4.657l1.091-2.794-1.242-.485-1.091 2.794 1.242.485zm.512-4.071l.747 2.905 1.291-.332-.747-2.905-1.291.332zm1.245 4.842l.747 2.905 1.291-.332-.747-2.905-1.291.332zm1.245 4.842l.747 2.905 1.291-.332-.747-2.905-1.291.332zm1.245 4.842l.747 2.905 1.291-.332-.747-2.905-1.291.332zm1.245 4.842l.747 2.905 1.291-.332-.747-2.905-1.291.332zm2.605 2.861l.985-2.834-1.259-.438-.985 2.834 1.259.438zm1.642-4.723l.985-2.834-1.259-.438-.985 2.834 1.259.438zm1.642-4.723l.985-2.834-1.259-.438-.985 2.834 1.259.438zm1.642-4.723l.985-2.834-1.259-.438-.985 2.834 1.259.438zm1.642-4.723l.985-2.834-1.259-.438-.985 2.834 1.259.438zm1.642-4.723l.985-2.834-1.259-.438-.985 2.834 1.259.438zm.321-4.102l.654 2.928 1.301-.291-.654-2.928-1.301.291zm1.089 4.88l.654 2.928 1.301-.291-.654-2.928-1.301.291zm1.089 4.88l.654 2.928 1.301-.291-.654-2.928-1.301.291zm2.391 4.589l-1.301.291.297 1.332h2.703v-1.333h-2.169l.651.521-.181-.811zm3.699 1.623h3v-1.333h-3v1.333zm5-1.333v1.333h.792l1.488-2.58-1.155-.666-1.296 2.246.577.333v-.667h-.407zm3.279-2.979l1.499-2.599-1.155-.666-1.499 2.599 1.155.666zm2.498-4.331l.577-1.001-1.172-.032.833 1.646 1.19-.602-1.389-2.746-1.193 2.069 1.155.666zm1.14 2.398l1.354 2.677 1.19-.602-1.354-2.677-1.19.602zm3.447 3.86l-1.19.602.902 1.784h1.821v-1.333h-1.411l.595.366-.717-1.418zm3.533 2.385h3v-1.333h-3v1.333zm5 0H118v-1.333h-2.677v1.333z"/></g><path stroke="#14ba5a" stroke-width="1.12" fill="#fff" d="M42 42h49.6v52.594L80.298 106H42z"/><path d="M59.684 61.182c.91 0 1.609-.194 2.098-.583s.732-.942.732-1.661c0-.582-.168-1.041-.504-1.377s-.879-.586-1.629-.75l-.398-.082c-.992-.207-1.488-.49-1.488-.85 0-.254.108-.462.325-.624s.501-.243.853-.243c.281 0 .525.062.732.185s.371.306.492.548l.047.105c.137.297.344.445.621.445.219 0 .374-.046.466-.138s.138-.253.138-.483h0v-.064l-.023-1.125c-.008-.25-.044-.417-.108-.501s-.21-.126-.437-.126c-.152 0-.266.023-.34.07s-.141.133-.199.258c-.254-.109-.509-.191-.765-.246a3.73 3.73 0 0 0-.782-.082c-.797 0-1.446.212-1.948.636s-.753.97-.753 1.638c0 .52.146.929.439 1.228s.818.548 1.576.747l.639.158c.902.215 1.354.531 1.354.949 0 .27-.1.479-.299.627s-.479.223-.838.223c-.395 0-.728-.074-.999-.223a1.53 1.53 0 0 1-.636-.674l-.094-.205c-.172-.367-.385-.551-.639-.551-.238 0-.405.051-.501.152s-.144.281-.144.539h0v.064l.023 1.377c.004.238.055.404.152.498s.27.141.516.141c.145 0 .258-.022.34-.067a.6.6 0 0 0 .217-.22 4.4 4.4 0 0 0 .812.217c.279.047.597.07.952.07zM69.475 61c.246 0 .41-.035.492-.105s.123-.211.123-.422h0v-1.799c0-.266-.051-.456-.152-.571s-.264-.173-.486-.173-.382.057-.478.17-.144.305-.144.574h0v1.043h-2.666v-4.371h.504c.254 0 .438-.051.551-.152s.17-.266.17-.492-.058-.392-.173-.495-.298-.155-.548-.155h0-2.496c-.25 0-.433.052-.548.155s-.173.269-.173.495.055.391.164.492.291.152.545.152h.516v4.371h-.516c-.258 0-.44.049-.548.146s-.161.26-.161.486.055.396.164.498.291.152.545.152h5.314zm6.264 0c.262 0 .451-.052.568-.155s.176-.269.176-.495-.058-.384-.173-.483-.306-.149-.571-.149h0-.984v-4.371h.984c.27 0 .461-.051.574-.152s.17-.266.17-.492-.055-.395-.164-.492-.303-.146-.58-.146h0-3.48c-.27 0-.461.049-.574.146s-.17.262-.17.492.058.391.173.492.306.152.571.152h.984v4.371h-.984c-.27 0-.461.049-.574.146s-.17.26-.17.486.058.396.173.498.306.152.571.152h3.48zm-8.941 13.566c.18 0 .327-.06.442-.179s.173-.271.173-.454h0v-2.027h1.945c.184 0 .335-.057.454-.17a.57.57 0 0 0 .179-.434c0-.176-.06-.319-.179-.431s-.271-.167-.454-.167h0-1.945v-2.027c0-.184-.058-.336-.173-.457s-.263-.182-.442-.182a.58.58 0 0 0-.439.179.64.64 0 0 0-.17.46h0v2.027h-1.945c-.176 0-.325.059-.448.176a.56.56 0 0 0-.185.422.57.57 0 0 0 .179.434c.119.113.271.17.454.17h1.945v2.027c0 .172.06.32.179.445s.263.188.431.188zm-7.113 14.615c.91 0 1.609-.194 2.098-.583s.732-.942.732-1.661c0-.582-.168-1.041-.504-1.377s-.879-.586-1.629-.75l-.398-.082c-.992-.207-1.488-.49-1.488-.85 0-.254.108-.462.325-.624s.501-.243.853-.243c.281 0 .525.062.732.185s.371.306.492.548l.047.105c.137.297.344.445.621.445.219 0 .374-.046.466-.138s.138-.253.138-.483h0v-.064l-.023-1.125c-.008-.25-.044-.417-.108-.501s-.21-.126-.437-.126c-.152 0-.266.023-.34.07s-.141.133-.199.258c-.254-.109-.509-.191-.765-.246a3.73 3.73 0 0 0-.782-.082c-.797 0-1.446.212-1.948.636s-.753.97-.753 1.638c0 .52.146.929.439 1.228s.818.548 1.576.747l.639.158c.902.215 1.354.531 1.354.949 0 .27-.1.479-.299.627s-.479.223-.838.223c-.395 0-.728-.074-.999-.223a1.53 1.53 0 0 1-.636-.674l-.094-.205c-.172-.367-.385-.551-.639-.551-.238 0-.405.051-.501.152s-.144.281-.144.539h0v.064l.023 1.377c.004.238.055.404.152.498s.27.141.516.141c.145 0 .258-.022.34-.067a.6.6 0 0 0 .217-.22 4.4 4.4 0 0 0 .812.217c.279.047.597.07.952.07zM69.475 89c.246 0 .41-.035.492-.105s.123-.211.123-.422h0v-1.799c0-.266-.051-.456-.152-.571s-.264-.173-.486-.173-.382.057-.478.17-.144.305-.144.574h0v1.043h-2.666v-4.371h.504c.254 0 .438-.051.551-.152s.17-.266.17-.492-.058-.392-.173-.495-.298-.155-.548-.155h0-2.496c-.25 0-.433.052-.548.155s-.173.269-.173.495.055.391.164.492.291.152.545.152h.516v4.371h-.516c-.258 0-.44.049-.548.146s-.161.26-.161.486.055.396.164.498.291.152.545.152h5.314zm4.523.182c.969 0 1.762-.342 2.379-1.025s.926-1.562.926-2.637c0-1.066-.311-1.943-.932-2.631s-1.412-1.031-2.373-1.031c-.969 0-1.763.343-2.382 1.028s-.929 1.563-.929 2.634c0 1.063.313 1.938.938 2.628s1.416 1.034 2.373 1.034zm0-1.348a1.37 1.37 0 0 1-1.184-.615c-.289-.41-.434-.977-.434-1.699s.144-1.287.431-1.693.683-.609 1.187-.609.905.203 1.192.609.431.971.431 1.693-.145 1.294-.434 1.702-.686.612-1.189.612z" fill="#006bb8" fill-rule="nonzero"/><path fill="#14ba5a" d="M79.6 106V94h12z"/></g></svg>