<svg xmlns="http://www.w3.org/2000/svg" width="170" height="126"  fill-rule="evenodd" xmlns:v="https://vecta.io/nano"><g fill-rule="nonzero"><path fill="#3389c6" d="M69.369 105.576l-32.307 2.173 32.785-37.262 32.307 28.424z"/><path d="M90.709 88.892l10.042-11.399 2.442 2.151 3.636-4.128-2.442-2.151 6.2-7.039-15.51-13.661-5.319 6.04-5.896 2.071 2.292 2.02-.365.415-.064-.056-5.504 6.348 6.348 5.505.052-.06.109.096-5.132 5.824 9.111 8.025z" fill="#006bb8"/><path d="M108.999 68.045l8.236-4.68-2.317-2.041.002-.002-13.169-11.598-4.633-4.084-3.602 8.763.087-.049 15.434 13.595-.039.096z" fill="#fff"/><path fill="#006bb8" d="M14.203 39.001l6.725-11.539 48.887 43.05-8.661 9.835z"/></g><path stroke="#14ba5a" stroke-width="1.386" fill="#fff" d="M16.833 18.922h45.549v48.01L52.003 77.343h-35.17z"/><path d="M48.571 51.097l2.887-1.05v-2.625l-2.887-1.05c-.262-.788-.525-1.575-1.05-2.363l1.313-2.625-1.837-1.837-2.625 1.313c-.788-.525-1.575-.788-2.363-1.05l-1.05-2.888h-2.625l-1.05 2.888c-.788.262-1.575.525-2.362 1.05l-2.625-1.312-1.838 1.837 1.313 2.888c-.525.788-.788 1.575-1.05 2.362l-2.887.788v2.625l2.887 1.05c.262.788.525 1.575 1.05 2.363l-1.312 2.625 1.838 1.837 2.887-1.312c.788.525 1.575.788 2.363 1.05l.787 2.888h2.625l1.05-2.888c.788-.262 1.575-.525 2.363-1.05l2.625 1.313 1.837-1.837-1.312-2.888c.525-.525.788-1.312 1.05-2.1zm-8.925 2.888a5.27 5.27 0 0 1-5.25-5.25 5.27 5.27 0 0 1 5.25-5.25 5.27 5.27 0 0 1 5.25 5.25 5.27 5.27 0 0 1-5.25 5.25z" fill="#006bb8" fill-rule="nonzero"/><path fill="#14ba5a" d="M51.49 77.343V66.451h10.892z"/><g fill-rule="nonzero"><path fill="#fff" d="M79.205 92.748l16.147.165-18.377-16.156z"/><path fill="#b5cee0" d="M79.205 92.748l11.526-3.897-9.135-8.032z"/><path d="M37.116 112.008l65.041-.041-.009-13.105-58.836.038-1.136-2.986-7.86 2.992h-.303l.024.106-1.85.703 4.678 12.293.229-.088.022.088zM19.513 22.904l4.679 12.293-9.989 3.801-4.679-12.292z" fill="#006bb8"/><path d="M10.857 30.21l9.99-3.802-.669-1.757-9.989 3.802.668 1.757zm1.313 3.45l9.99-3.802-.669-1.757-9.989 3.802.668 1.757zm1.358 3.564l9.934-3.781-.668-1.757-9.934 3.781.668 1.757z" fill="#fff"/></g></svg>