<svg width="35" height="35" viewBox="0 0 35 35" fill="none" xmlns="http://www.w3.org/2000/svg">
<path d="M29.5312 2.1875C28.5843 2.18709 27.6629 2.49404 26.9054 3.0622C26.1479 3.63036 25.5952 4.42905 25.3306 5.3382C25.0659 6.24736 25.1034 7.21786 25.4375 8.10385C25.7717 8.98984 26.3844 9.74344 27.1835 10.2514L24.3287 20.2433C24.2401 20.2376 24.1513 20.2346 24.0625 20.2344C23.1214 20.2334 22.2053 20.5374 21.4516 21.101L16.1774 16.7059C16.4271 15.965 16.4738 15.1708 16.3125 14.4059C16.1512 13.6409 15.7878 12.9331 15.2602 12.3562C14.7327 11.7792 14.0601 11.3542 13.3126 11.1253C12.5651 10.8964 11.7699 10.872 11.0097 11.0546C10.2496 11.2372 9.55222 11.6201 8.99024 12.1636C8.42825 12.7071 8.02216 13.3912 7.81421 14.1448C7.60626 14.8984 7.60404 15.694 7.8078 16.4488C8.01155 17.2035 8.41383 17.8899 8.97278 18.4365L5.87665 24.6291C5.74106 24.6162 5.60495 24.6096 5.46875 24.6094C4.42064 24.608 3.40679 24.9825 2.61123 25.6649C1.81566 26.3472 1.29111 27.2922 1.13279 28.3283C0.974475 29.3644 1.19288 30.4229 1.74837 31.3117C2.30386 32.2005 3.15961 32.8606 4.16029 33.1724C5.16097 33.4841 6.24025 33.4267 7.20222 33.0106C8.16419 32.5945 8.9451 31.8473 9.40319 30.9046C9.86127 29.9619 9.96619 28.8862 9.69887 27.8727C9.43156 26.8593 8.80975 25.9753 7.9463 25.3812L10.8721 19.5303C11.5828 19.7264 12.3316 19.7392 13.0486 19.5676C13.7656 19.396 14.4275 19.0455 14.9724 18.549L20.0789 22.8045C19.7321 23.5686 19.6124 24.4164 19.7341 25.2467C19.8558 26.077 20.2136 26.8548 20.7651 27.4873C21.3165 28.1198 22.0382 28.5804 22.8442 28.8142C23.6501 29.0479 24.5063 29.045 25.3106 28.8057C26.1149 28.5663 26.8334 28.1007 27.3805 27.4644C27.9275 26.8281 28.28 26.0478 28.3959 25.2167C28.5118 24.3856 28.3863 23.5387 28.0342 22.7769C27.6822 22.0152 27.1185 21.3708 26.4104 20.9205L29.2651 10.9286C29.3532 10.9339 29.4418 10.9375 29.5312 10.9375C30.6916 10.9375 31.8044 10.4766 32.6248 9.65609C33.4453 8.83562 33.9062 7.72282 33.9062 6.5625C33.9062 5.40218 33.4453 4.28938 32.6248 3.46891C31.8044 2.64844 30.6916 2.1875 29.5312 2.1875ZM5.46875 31.1719C5.0361 31.1719 4.61317 31.0436 4.25344 30.8032C3.89371 30.5628 3.61333 30.2212 3.44776 29.8215C3.28219 29.4218 3.23887 28.9819 3.32328 28.5576C3.40769 28.1333 3.61602 27.7435 3.92195 27.4376C4.22788 27.1317 4.61765 26.9233 5.04199 26.8389C5.46632 26.7545 5.90615 26.7978 6.30587 26.9634C6.70558 27.129 7.04722 27.4093 7.28759 27.7691C7.52795 28.1288 7.65625 28.5517 7.65625 28.9844C7.6556 29.5643 7.42492 30.1204 7.01482 30.5305C6.60473 30.9405 6.04871 31.1712 5.46875 31.1719ZM12.0312 17.5C11.5986 17.5 11.1757 17.3717 10.8159 17.1313C10.4562 16.891 10.1758 16.5493 10.0103 16.1496C9.84469 15.7499 9.80137 15.3101 9.88578 14.8857C9.97018 14.4614 10.1785 14.0716 10.4845 13.7657C10.7904 13.4598 11.1802 13.2514 11.6045 13.167C12.0288 13.0826 12.4687 13.1259 12.8684 13.2915C13.2681 13.4571 13.6097 13.7375 13.8501 14.0972C14.0905 14.4569 14.2187 14.8799 14.2187 15.3125C14.2181 15.8925 13.9874 16.4485 13.5773 16.8586C13.1672 17.2687 12.6112 17.4993 12.0312 17.5ZM24.0625 26.7969C23.6299 26.7969 23.2069 26.6686 22.8472 26.4282C22.4875 26.1878 22.2071 25.8462 22.0415 25.4465C21.8759 25.0468 21.8326 24.6069 21.917 24.1826C22.0014 23.7583 22.2098 23.3685 22.5157 23.0626C22.8216 22.7567 23.2114 22.5483 23.6357 22.4639C24.0601 22.3795 24.4999 22.4228 24.8996 22.5884C25.2993 22.754 25.641 23.0343 25.8813 23.3941C26.1217 23.7538 26.25 24.1767 26.25 24.6094C26.2493 25.1893 26.0187 25.7454 25.6086 26.1555C25.1985 26.5655 24.6425 26.7962 24.0625 26.7969ZM29.5312 8.75C29.0986 8.75 28.6757 8.62171 28.3159 8.38134C27.9562 8.14097 27.6758 7.79933 27.5103 7.39962C27.3447 6.99991 27.3014 6.56007 27.3858 6.13574C27.4702 5.71141 27.6785 5.32163 27.9845 5.0157C28.2904 4.70978 28.6802 4.50144 29.1045 4.41703C29.5288 4.33263 29.9687 4.37595 30.3684 4.54151C30.7681 4.70708 31.1097 4.98746 31.3501 5.34719C31.5905 5.70692 31.7187 6.12985 31.7187 6.5625C31.7181 7.14246 31.4874 7.69848 31.0773 8.10858C30.6672 8.51867 30.1112 8.74935 29.5312 8.75Z" fill="#C2C5CA"/>
</svg>
