<svg width="750" height="750" viewBox="0 0 750 750" fill="none" xmlns="http://www.w3.org/2000/svg">
<rect width="750" height="750" fill="white"/>
<path fill-rule="evenodd" clip-rule="evenodd" d="M470.775 632.092C357.061 664.702 44.6549 580.708 44.8926 388.287C45.4868 264.061 157.77 232.953 273.557 296.661C307.629 310.249 334.529 306.038 363.735 292.537C392.942 279.036 430.504 218.765 501.299 206.366C714.344 169.053 896.631 509.969 470.775 632.092Z" fill="#64C7FC"/>
<path d="M207.987 474.715L207.617 475.403C206.012 478.467 206.881 470.003 210.462 465.762C213.605 462.041 216.943 458.426 220.587 455.208C223.931 452.254 227.668 449.683 231.469 447.326C235.577 444.779 239.863 442.468 244.248 440.435C249.113 438.18 254.084 436.065 259.179 434.412C266.385 432.075 273.708 430.065 281.064 428.249C282.993 427.773 283.208 427.082 283.27 425.611L283.288 425.092C283.42 420.551 283.775 415.994 284.411 411.496C285.267 405.443 287.913 400.171 292.526 396.062C296.52 392.505 300.841 389.411 305.654 386.985C314.214 382.671 323.204 379.519 332.554 377.657C341.326 375.909 350.228 374.778 359.101 373.589C361.797 373.228 364.59 373.517 367.335 373.622C369.121 373.69 369.888 373.071 370.252 371.231L370.695 369.001C371.142 366.771 371.615 364.545 372.224 362.359C375.047 352.228 377.271 342.02 376.484 331.405C375.983 324.65 375.581 317.879 374.756 311.161C374.184 306.502 373.134 301.9 372.208 297.285L371.935 295.9C371.728 294.832 371.262 294.796 370.483 295.43L370.375 295.521C367.591 297.913 363.756 296.798 362.743 293.187C362.133 291.013 361.832 288.589 363.551 286.744C364.378 285.857 365.763 285.042 366.926 284.996C371.558 284.813 376.221 284.688 380.836 285.026C387.05 285.48 393.24 286.315 399.425 287.111C405.21 287.857 410.991 288.668 416.742 289.641C420.046 290.2 423.28 291.16 426.555 291.902C429.382 292.542 432.212 293.184 435.067 293.67C435.437 293.733 436.261 292.933 436.372 292.424C437.095 289.09 437.713 285.732 438.396 282.389L438.923 279.885C439.094 279.1 439.053 277.681 440.626 278.074C442.027 278.425 442.376 279.207 442.003 280.688C441.209 283.846 440.564 287.041 439.886 290.227L439.473 292.138C438.996 294.311 439.741 295.162 442.568 295.687L442.815 295.731C444.252 295.979 445.688 296.254 447.108 296.589L448.169 296.852C449.194 297.119 449.604 296.961 449.792 295.926L449.817 295.773C450.241 292.927 450.821 290.104 451.364 287.277C451.708 285.486 452.141 283.712 452.453 281.916C452.697 280.514 451.422 279.456 449.258 279.094C447.652 278.826 445.986 278.696 444.469 278.159C439.798 276.505 434.874 276.204 430.07 276.026C419.096 275.62 412.098 275.741 401.111 275.826C397.339 275.855 393.574 276.48 389.798 276.701C387.937 276.81 383.251 275.821 384.1 274.228C384.781 272.951 389.879 271.901 390.75 270.719C392.351 268.544 394.159 266.476 395.442 264.124C396.863 261.519 398.129 258.732 398.863 255.871C400.205 250.641 401.12 245.3 402.185 240C402.84 236.743 403.694 233.5 403.999 230.208C404.336 226.572 404.275 222.881 404.109 219.227C404.059 218.146 403.412 216.939 401.906 216.539C399.87 215.998 399.61 214.587 399.635 211.403C399.644 210.11 401.423 208.708 403.042 208.572C410.711 207.925 398.354 208.394 405.958 209.358C412.001 210.125 434.007 211.177 440.026 212.118C440.41 212.178 440.768 212.392 441.145 212.513C442.718 213.014 448.328 213.972 449.62 214.295L449.757 214.332C452.734 215.164 455.798 215.681 458.801 216.426C464.059 217.73 469.298 219.109 474.544 220.46C474.735 220.509 474.915 220.596 475.103 220.66C482.476 223.204 489.894 225.63 497.203 228.35C500.015 229.397 502.723 230.904 505.194 232.613C506.388 233.438 506.945 235.203 507.754 236.564C509.741 239.908 511.956 243.145 513.624 246.641C516.334 252.323 517.347 258.288 516.127 264.648L515.664 267.046C514.617 272.369 513.421 277.641 511.16 282.586C509.28 286.693 507.179 290.757 504.668 294.498C502.798 297.284 499.753 298.668 496.137 297.035C491.6 294.986 487.002 293.068 482.397 291.175C475.474 288.328 468.534 285.523 461.574 282.768C460.333 282.277 459.012 281.96 457.695 281.69L457.131 281.576C456.307 281.414 455.622 281.321 455.388 282.76C454.634 287.412 453.606 292.024 452.551 296.621C452.277 297.816 452.748 298.173 453.672 298.401C454.652 298.643 455.678 298.743 456.623 299.077L466.913 302.711C489.576 310.756 533.039 326.574 540.04 333.248C550.106 342.845 559.231 404.467 534.659 434.412C519.678 452.668 518.786 445.574 518.039 445.73C555.27 426.923 484.114 371.326 488.42 372.064C496.144 373.386 499.567 378.879 501.535 385.352C503.991 393.429 505.939 401.689 507.589 409.973C509.313 418.633 513.937 446.533 514.755 451.767C515.358 455.621 515.454 459.551 515.939 463.427C516.576 468.533 517.636 473.599 518.033 478.72C518.471 484.382 518.726 490.086 518.591 495.761L518.55 497.179C518.423 500.773 517.297 510.526 511.949 525.605C506.92 539.772 487.519 564.419 482.789 572.788C482.485 573.326 479.337 575.335 478.529 573.826C477.995 572.829 250.96 614.163 207.987 474.715Z" fill="white"/>
<path fill-rule="evenodd" clip-rule="evenodd" d="M459.607 181.225C457.777 180.572 455.764 181.525 455.11 183.354C455.033 183.571 454.977 183.795 454.943 184.022L451.017 210.502L451.006 210.618C450.99 211.118 451.352 211.562 451.859 211.637C452.405 211.718 456.012 183.232 456.012 183.232L456.041 183.086C456.041 183.086 457.633 181.776 459.021 182.113C460.225 182.405 461.47 184.134 461.22 185.374C461.22 185.374 456.118 210.603 455.476 215.671C455.319 215.637 455.162 215.604 455.005 215.57L455.005 215.57C453.245 215.193 451.487 214.815 449.757 214.332L449.62 214.296C449.128 214.172 448.011 213.957 446.729 213.711L446.728 213.71L446.728 213.71L446.728 213.71L446.727 213.71L446.727 213.71C444.641 213.308 442.119 212.823 441.145 212.513C441.001 212.467 440.86 212.407 440.719 212.348C440.491 212.251 440.264 212.156 440.026 212.118C438.35 211.856 436.674 211.585 434.998 211.315L434.997 211.314L434.997 211.314L434.996 211.314L434.996 211.314L434.995 211.314L434.994 211.314L434.994 211.314C430.655 210.613 426.316 209.911 421.958 209.359C414.354 208.394 406.711 207.925 399.042 208.572C397.423 208.709 395.644 210.11 395.635 211.404C395.61 214.588 395.87 215.998 397.906 216.539C399.412 216.939 400.059 218.146 400.109 219.227C400.275 222.881 400.336 226.572 399.999 230.208C399.775 232.624 399.255 235.014 398.736 237.402L398.735 237.406C398.547 238.271 398.359 239.135 398.185 240C397.909 241.377 397.642 242.756 397.376 244.135L397.374 244.141C396.615 248.071 395.856 252.001 394.863 255.871C394.129 258.732 392.863 261.519 391.442 264.124C390.517 265.82 389.319 267.368 388.123 268.915L388.121 268.917C387.658 269.515 387.196 270.113 386.75 270.719C386.438 271.142 386.098 271.548 385.758 271.953C385.147 272.681 384.537 273.408 384.1 274.228C383.251 275.821 383.937 276.81 385.798 276.701C387.327 276.612 388.853 276.456 390.379 276.301L390.379 276.301C392.623 276.072 394.866 275.844 397.111 275.826L399.231 275.81C409.513 275.728 419.802 275.647 430.07 276.026C434.874 276.204 439.798 276.505 444.469 278.159C445.597 278.559 446.807 278.733 448.014 278.906C448.43 278.966 448.846 279.025 449.258 279.094C451.422 279.456 452.697 280.514 452.453 281.916C452.273 282.949 452.054 283.975 451.834 285.002C451.672 285.759 451.51 286.517 451.364 287.277C451.328 287.465 451.292 287.653 451.256 287.84C451.187 288.197 451.117 288.554 451.048 288.911C450.603 291.193 450.159 293.475 449.817 295.773L449.791 295.927C449.604 296.962 449.194 297.119 448.169 296.852L447.108 296.589C445.688 296.254 444.252 295.979 442.815 295.732L442.568 295.687C439.741 295.162 438.996 294.311 439.473 292.138L439.885 290.228C440.008 289.65 440.13 289.072 440.252 288.495C440.802 285.884 441.353 283.274 442.003 280.689C442.375 279.208 442.027 278.425 440.626 278.075C439.276 277.737 439.115 278.734 438.988 279.52C438.968 279.65 438.948 279.774 438.923 279.885L438.396 282.389C438.134 283.669 437.882 284.951 437.63 286.234C437.224 288.3 436.818 290.367 436.372 292.424C436.261 292.934 435.437 293.733 435.067 293.67C432.232 293.187 429.421 292.551 426.612 291.915L426.612 291.915L426.555 291.902C425.397 291.64 424.245 291.351 423.093 291.061C420.985 290.532 418.878 290.003 416.742 289.641C410.991 288.668 405.21 287.857 399.425 287.112C398.886 287.042 398.347 286.972 397.808 286.903C392.161 286.172 386.509 285.441 380.836 285.026C376.221 284.688 371.558 284.813 366.926 284.996C365.763 285.042 364.378 285.857 363.551 286.745C361.832 288.589 362.133 291.013 362.743 293.187C363.756 296.798 367.591 297.913 370.375 295.521L370.483 295.43C371.262 294.796 371.728 294.832 371.935 295.9L372.208 297.285C372.4 298.24 372.596 299.194 372.793 300.149C373.548 303.807 374.303 307.466 374.756 311.161C375.424 316.6 375.814 322.075 376.205 327.547L376.205 327.548L376.205 327.549L376.205 327.55L376.205 327.551L376.205 327.552L376.205 327.553L376.205 327.553L376.207 327.577C376.298 328.853 376.389 330.129 376.484 331.405C377.271 342.021 375.047 352.228 372.224 362.359C371.615 364.545 371.142 366.771 370.695 369.001L370.252 371.231C369.888 373.071 369.121 373.69 367.335 373.622C366.732 373.599 366.128 373.567 365.522 373.535L365.519 373.535C363.367 373.421 361.204 373.307 359.101 373.589C358.317 373.694 357.534 373.798 356.75 373.903L356.75 373.903C348.656 374.982 340.551 376.063 332.554 377.657C323.204 379.52 314.214 382.671 305.654 386.985C300.841 389.411 296.52 392.506 292.526 396.063C287.913 400.171 285.267 405.443 284.411 411.496C283.775 415.994 283.42 420.551 283.288 425.092L283.27 425.612C283.208 427.083 282.993 427.773 281.064 428.249C273.708 430.065 266.384 432.075 259.179 434.412C254.084 436.065 249.113 438.18 244.248 440.435C239.863 442.468 235.577 444.78 231.469 447.326C227.668 449.683 223.931 452.254 220.587 455.208C216.943 458.426 213.605 462.042 210.462 465.762C209.499 466.903 208.731 468.35 208.156 469.796C203.868 470.551 199.66 471.826 195.692 473.54C182.672 479.167 171.937 489.045 162.783 499.85C157.759 505.78 153.139 512.03 148.518 518.28C144.72 523.417 140.921 528.555 136.897 533.517C127.979 544.515 117.731 554.803 105.102 561.252C96.2851 565.755 86.5967 568.243 77 570.697C96.221 572.765 115.133 563.984 130.483 552.276C139.206 545.622 147.109 538.011 155.016 530.396L155.016 530.396C161.023 524.611 167.031 518.825 173.403 513.454C175.963 511.297 179.131 509.073 182.381 509.893C180.693 518.609 180.366 527.694 182.491 536.315C184.615 544.935 189.325 553.073 196.427 558.434C189.905 550.607 185.569 540.992 184.025 530.938C183.102 524.926 183.187 518.638 185.302 512.934C187.418 507.229 191.758 502.169 197.498 500.1C196.301 510.069 195.917 520.253 197.963 530.084C200.01 539.915 204.656 549.43 212.256 556.024C201.64 542.749 196.993 524.908 199.79 508.165C200.246 505.435 200.925 502.654 202.556 500.414C204.188 498.173 206.968 496.576 209.706 497.048C201.828 514.106 207.748 536.345 223.075 547.273C213.576 537.851 208.044 524.406 208.844 511.076C209.102 506.763 210.085 502.303 212.849 498.973C215.613 495.644 220.523 493.807 224.465 495.609C218.928 502.704 218.617 512.531 219.84 521.435C220.917 529.277 224.146 538.235 231.788 540.403C222.067 532.427 218.827 517.574 224.349 506.298C226.337 502.238 230.04 498.33 234.567 498.586C237.774 498.768 240.504 501.029 242.427 503.592C243.33 504.797 244.111 506.087 244.891 507.377C245.771 508.831 246.651 510.285 247.707 511.616C252.227 501.789 252.548 489.336 245.804 480.868C243.404 477.854 240.248 475.494 236.841 473.682C232.348 471.292 227.456 469.875 222.429 469.3C222.668 469.12 222.909 468.941 223.149 468.763C230.791 463.102 239.22 458.756 247.712 454.588C252.697 452.142 257.942 450.191 263.166 448.279C267.847 446.566 272.617 445.055 277.424 443.73C286.042 441.356 294.851 440.024 303.769 439.362C305.653 439.222 307.531 439.002 309.408 438.783L309.41 438.782L309.41 438.782L309.411 438.782L309.412 438.782L309.413 438.782L309.414 438.782L309.414 438.782L309.415 438.782C311.419 438.547 313.424 438.312 315.435 438.175C318.166 437.989 320.903 437.865 323.639 437.74C327.849 437.549 332.058 437.358 336.246 436.942C340.919 436.477 345.562 435.701 350.203 434.924C351.796 434.658 353.389 434.391 354.982 434.137C358.495 433.578 361.994 432.936 365.592 432.275L365.593 432.275L365.598 432.274L365.599 432.274L366.739 432.065C367.169 431.992 367.58 431.944 367.978 431.898C368.539 431.832 369.073 431.769 369.593 431.647C370.936 431.329 372.279 431.014 373.622 430.698L373.641 430.694L373.643 430.693C379.004 429.434 384.365 428.174 389.7 426.812C395.757 425.265 401.786 423.601 407.79 421.858C410.207 421.157 412.607 420.392 415.006 419.627L415.007 419.626C417.895 418.706 420.782 417.785 423.7 416.975C429.212 415.445 433.901 412.441 438.534 409.284C438.854 409.066 439.194 408.427 439.091 408.14C438.92 407.664 438.438 407.042 438.011 406.976C437.341 406.873 436.432 406.958 435.93 407.352C430.434 411.66 424.029 414.124 417.477 416.059C406.327 419.351 395.116 422.473 383.83 425.255C376.739 427.002 369.562 428.402 362.387 429.802L362.38 429.804C360.401 430.19 358.423 430.576 356.446 430.969C352.945 431.666 349.403 432.173 345.866 432.68L345.359 432.753C344.185 432.921 343.01 433.098 341.835 433.275L341.835 433.275C338.042 433.847 334.248 434.418 330.433 434.708C326.67 434.994 322.897 435.162 319.125 435.33C314.428 435.539 309.732 435.748 305.056 436.184C295.454 437.081 285.816 438.134 276.53 440.894C269.114 443.098 261.685 445.405 254.548 448.359C248.667 450.793 243 453.756 237.341 456.713L237.34 456.714L237.339 456.715L237.338 456.715L237.337 456.716L237.336 456.716L237.335 456.717L237.334 456.717C236.154 457.334 234.975 457.95 233.794 458.562C228.158 461.48 222.808 464.89 217.971 469.008C215.833 468.969 213.684 469.073 211.545 469.31C213.517 466.72 215.717 464.304 217.958 461.933L219.024 460.81C225.55 453.959 233.554 449.19 241.884 444.979L243.402 444.219C246.277 442.792 249.265 441.593 252.254 440.393L252.255 440.393C253.735 439.799 255.216 439.204 256.683 438.582L257.747 438.14C265.922 434.802 274.456 432.753 283.069 430.854C293.467 428.562 303.968 426.969 314.49 425.49L321.256 424.549C324.511 424.097 327.78 423.731 331.048 423.364L331.049 423.364C338.94 422.479 346.83 421.595 354.544 419.52C357.751 418.658 360.964 417.818 364.176 416.979C368.087 415.956 371.998 414.934 375.898 413.871C379.66 412.846 383.418 411.769 387.096 410.483C389.988 409.472 392.835 408.332 395.683 407.192C396.904 406.703 398.125 406.214 399.35 405.735C401.452 404.913 403.564 404.112 405.675 403.311L405.677 403.31L405.677 403.31C410.436 401.504 415.194 399.698 419.85 397.657C425.908 395.001 431.893 392.177 437.878 389.353L437.883 389.35C440.97 387.893 444.057 386.436 447.154 385.003C449.036 384.132 450.949 383.299 452.912 382.637C456.992 381.26 461.088 379.93 465.184 378.6C466.988 378.014 468.793 377.428 470.596 376.837L471.691 376.481C475.528 375.239 479.412 374.116 483.481 374.275C487.672 374.438 491.782 374.923 494.772 378.637C497.263 381.733 498.566 385.311 499.62 388.973L499.902 389.974C501.222 394.747 502.241 399.61 503.23 404.468L504.304 409.744C505.553 415.9 506.773 422.063 507.797 428.258C508.267 431.105 508.54 433.983 508.814 436.862V436.862V436.862V436.863V436.863V436.863V436.863L508.814 436.865C509.056 439.403 509.297 441.941 509.673 444.459C509.923 446.136 510.394 447.779 510.866 449.423C511.273 450.844 511.681 452.266 511.947 453.711C512.242 455.318 512.354 456.957 512.467 458.597C512.543 459.703 512.618 460.81 512.75 461.907C512.983 463.841 513.252 465.771 513.521 467.7L513.521 467.701L513.521 467.702L513.521 467.703L513.521 467.704L513.522 467.705L513.522 467.705L513.522 467.706C513.946 470.747 514.369 473.788 514.651 476.842L514.729 477.693V477.693V477.694V477.694V477.694V477.694V477.695V477.695C515.339 484.283 515.943 490.813 515.02 497.55C514.354 502.414 513.266 507.145 512.178 511.878C511.793 513.553 511.408 515.228 511.041 516.909C510.988 517.153 510.817 517.371 510.646 517.59L510.645 517.59L510.631 517.609L510.588 517.664L510.554 517.709C510.506 517.771 510.46 517.834 510.419 517.897C510.415 517.846 510.41 517.794 510.404 517.742C510.4 517.705 510.395 517.668 510.39 517.631L510.379 517.552L510.371 517.489C510.329 517.195 510.288 516.901 510.336 516.622C511.548 509.486 510.577 502.464 508.6 495.66C507.467 491.759 505.969 487.963 504.47 484.168L504.47 484.167L504.47 484.166C503.775 482.407 503.081 480.648 502.423 478.879C501.784 477.16 501.14 475.444 500.496 473.727C498.733 469.027 496.969 464.327 495.308 459.591C492.959 452.898 491.849 445.964 492.135 438.866L492.142 438.674C492.275 435.12 492.313 426.907 491.581 426.921C491.028 426.932 490.096 427.736 490.014 428.288C489.609 431.024 489.332 433.789 489.19 436.553C488.81 443.925 489.557 451.124 491.79 458.246L492.049 459.072C494.392 466.551 496.73 474.014 500.125 481.246C500.195 481.432 500.263 481.615 500.329 481.794L501.262 484.343C501.69 485.503 502.134 486.656 502.578 487.809L502.579 487.811C504.38 492.486 506.178 497.152 506.89 502.218C507.774 508.502 508.353 514.683 506.706 520.925C506.498 521.715 506.598 522.585 506.699 523.456L506.699 523.457C506.749 523.891 506.799 524.325 506.811 524.75L506.821 524.958C506.823 524.989 506.825 525.021 506.827 525.052L506.833 525.139C506.862 525.577 506.892 526.026 506.738 526.389C505.182 530.048 482.981 564.699 479.233 569.896L478.885 570.372C478.479 570.948 478.252 571.437 478.156 571.877C471.496 575.114 464.242 576.973 457.054 578.807C472.106 580.423 486.915 573.562 498.935 564.414C505.766 559.215 511.954 553.268 518.146 547.319C522.849 542.799 527.555 538.277 532.544 534.081C534.548 532.396 537.029 530.658 539.574 531.299C538.253 538.109 537.997 545.208 539.66 551.943C541.324 558.678 545.012 565.037 550.573 569.225C545.466 563.11 542.071 555.598 540.862 547.742C540.139 543.045 540.206 538.132 541.862 533.675C543.518 529.218 546.917 525.264 551.412 523.647C550.475 531.437 550.174 539.393 551.777 547.074C553.379 554.756 557.017 562.191 562.968 567.342C554.655 556.97 551.016 543.031 553.206 529.949C553.564 527.816 554.096 525.643 555.373 523.893C556.65 522.142 558.828 520.894 560.972 521.263C554.803 534.591 559.438 551.967 571.441 560.505C564.002 553.143 559.67 542.639 560.296 532.223C560.499 528.853 561.268 525.368 563.433 522.767C565.598 520.166 569.442 518.73 572.529 520.138C568.193 525.682 567.949 533.36 568.907 540.317C569.75 546.444 572.279 553.443 578.263 555.137C570.651 548.905 568.114 537.3 572.438 528.49C573.995 525.318 576.895 522.265 580.44 522.465C582.951 522.607 585.089 524.373 586.594 526.376C587.302 527.317 587.913 528.325 588.524 529.333C589.213 530.469 589.902 531.605 590.729 532.645C594.268 524.967 594.519 515.237 589.239 508.621C587.359 506.266 584.888 504.422 582.22 503.006C572.417 497.804 560.193 498.5 549.998 502.896C539.802 507.291 531.396 515.01 524.228 523.452C520.294 528.085 516.676 532.968 513.058 537.852L513.057 537.852L513.056 537.853L513.056 537.854L513.055 537.855C510.081 541.868 507.108 545.881 503.958 549.757C498.856 556.035 493.198 562.016 486.664 566.749C487.933 564.881 489.384 562.791 490.939 560.553L490.943 560.547L490.943 560.546C498.516 549.644 508.538 535.214 511.949 525.605C517.296 510.526 518.423 500.773 518.55 497.179L518.591 495.761C518.726 490.086 518.471 484.382 518.033 478.72C517.79 475.593 517.301 472.487 516.811 469.379L516.811 469.378L516.811 469.377L516.811 469.376L516.811 469.374L516.811 469.373L516.81 469.372L516.81 469.37L516.81 469.369C516.498 467.39 516.186 465.412 515.939 463.427C515.729 461.747 515.592 460.057 515.455 458.367V458.367C515.275 456.158 515.096 453.95 514.755 451.767C514.316 448.957 513.755 446.166 513.195 443.375C512.712 440.968 512.229 438.56 511.823 436.14C511.269 432.838 510.774 429.524 510.28 426.21L510.28 426.21L510.28 426.21L510.28 426.209L510.28 426.209L510.28 426.209L510.279 426.208L510.279 426.208C509.469 420.779 508.659 415.351 507.589 409.974C505.939 401.689 503.991 393.429 501.535 385.352C499.567 378.879 496.144 373.386 488.42 372.064C484.114 371.327 479.928 371.26 475.785 372.3C465.43 374.9 455.25 378.176 445.489 382.457C440.396 384.691 435.352 387.038 430.309 389.385C420.108 394.133 409.906 398.881 399.29 402.689C397.32 403.395 395.371 404.157 393.421 404.918C391.596 405.631 389.771 406.343 387.93 407.011C386.847 407.404 385.558 407.822 384.503 407.591C382.611 407.177 380.74 406.669 378.868 406.161L378.868 406.161C376.673 405.566 374.479 404.971 372.254 404.526C369.53 403.982 366.759 403.673 363.988 403.364L363.988 403.364L363.987 403.364L363.987 403.364C362.939 403.247 361.891 403.131 360.846 403.001C360.486 402.957 360.117 402.988 359.748 403.019C359.577 403.033 359.406 403.048 359.236 403.055C359.301 402.869 359.351 402.671 359.401 402.474C359.51 402.048 359.618 401.623 359.868 401.31C363.666 396.545 366.207 391.079 368.627 385.577L369.257 384.142C370.328 381.693 371.09 379.108 371.851 376.524C372.142 375.54 372.432 374.555 372.739 373.578C373.219 372.053 373.639 370.504 374.005 368.947C374.327 367.572 374.645 366.196 374.959 364.819L376.84 356.558C377.077 355.526 377.347 354.498 377.618 353.47L377.618 353.47C378.188 351.302 378.758 349.136 379.015 346.932C380.008 338.409 379.911 329.831 379.084 321.307C378.219 312.382 377.293 303.428 374.767 294.781L374.718 294.603C374.351 293.171 374.979 292.997 375.978 292.888L376.484 292.836C380.415 292.196 401.187 291.08 464.277 308.162C513.284 322.361 528.24 329.141 535.586 336.738C552.241 358.109 555.27 426.923 518.039 445.73C518.147 445.707 518.258 445.837 518.415 446.02C519.341 447.098 521.85 450.021 534.659 434.412C559.231 404.468 550.106 342.845 540.04 333.248C533.039 326.574 489.576 310.756 466.913 302.711L456.623 299.077C456.034 298.869 455.414 298.752 454.793 298.635C454.417 298.564 454.041 298.493 453.672 298.401C452.748 298.173 452.277 297.816 452.551 296.622C453.606 292.024 454.634 287.413 455.388 282.76C455.622 281.321 456.307 281.414 457.131 281.577L457.695 281.69C459.012 281.96 460.333 282.277 461.574 282.768C468.534 285.523 475.474 288.328 482.396 291.175C487.002 293.068 491.6 294.986 496.137 297.035C499.753 298.668 502.798 297.284 504.668 294.499C507.179 290.757 509.28 286.693 511.16 282.586C513.421 277.642 514.617 272.37 515.664 267.047L516.127 264.649C517.346 258.289 516.334 252.323 513.624 246.642C512.446 244.172 510.995 241.831 509.544 239.492L509.542 239.489L509.54 239.486C508.938 238.515 508.336 237.545 507.754 236.565C507.518 236.169 507.305 235.739 507.09 235.309L507.09 235.308L507.09 235.307C506.567 234.256 506.041 233.198 505.194 232.613C502.723 230.904 500.015 229.397 497.203 228.35C491.985 226.409 486.712 224.617 481.439 222.825L481.439 222.824C479.325 222.106 477.212 221.388 475.103 220.66C475.033 220.636 474.964 220.609 474.895 220.582C474.779 220.536 474.663 220.491 474.544 220.46C473.114 220.092 471.685 219.722 470.256 219.352C466.441 218.363 462.626 217.375 458.801 216.426C458.063 216.243 457.321 216.074 456.577 215.91C456.593 215.864 456.607 215.817 456.616 215.768L462.533 186.403L462.57 186.189C462.897 184.049 461.664 181.961 459.607 181.225ZM207.396 475.777C207.149 476.133 206.984 476.133 206.903 475.872C195.584 478.107 185.231 484.28 176.604 491.951C167.136 500.369 159.494 510.568 151.913 520.688L151.912 520.688L151.841 520.783C144.236 530.933 136.545 541.152 127 549.543C127.343 550.356 128.583 549.942 129.287 549.404C137.415 543.191 144.653 535.97 151.896 528.745L151.896 528.744L151.897 528.744C156.736 523.915 161.578 519.085 166.689 514.552C179.449 503.235 194.76 493.484 211.849 492.297C217.151 491.929 222.477 492.4 227.749 493.071C230.928 493.476 234.135 493.964 237.095 495.182C241.67 497.066 245.476 500.715 247.523 505.182C248.721 502.077 249.398 498.677 248.747 495.416C248.181 492.576 246.64 490.006 244.804 487.753C238.178 479.622 227.623 475.372 217.007 475.023C216.885 475.256 216.771 475.495 216.664 475.741C216.495 476.129 215.989 476.37 215.483 476.612C215.249 476.723 215.016 476.834 214.815 476.96C214.733 476.644 214.603 476.308 214.473 475.971C214.349 475.65 214.224 475.328 214.141 475.024C212.873 475.066 211.61 475.165 210.357 475.319C209.363 475.441 208.376 475.594 207.396 475.777ZM366.275 295.158C368.276 295.887 369.876 293.664 370.604 291.663C371.332 289.661 370.014 287.207 368.012 286.479C366.011 285.75 364.257 287.262 363.529 289.264C362.8 291.265 364.274 294.43 366.275 295.158ZM388.817 272.864C388.651 273.047 388.538 273.279 388.425 273.51C388.373 273.616 388.321 273.722 388.264 273.824C388.371 273.828 388.479 273.837 388.587 273.846C388.823 273.866 389.06 273.886 389.29 273.857C389.66 273.81 390.029 273.744 390.397 273.679L390.398 273.678L390.398 273.678C390.937 273.582 391.476 273.487 392.019 273.449C403.229 272.674 414.437 272.354 425.68 272.909C432.766 273.258 439.786 274.008 446.644 275.694C453.088 277.279 459.44 279.283 465.747 281.364C469.245 282.518 472.653 283.953 476.056 285.387L476.061 285.389C476.745 285.677 477.43 285.965 478.114 286.251C481.796 287.787 485.44 289.417 489.067 291.08C490.598 291.782 492.088 292.578 493.577 293.373L493.577 293.374L493.579 293.374L493.58 293.375L493.614 293.393C493.844 293.516 494.073 293.638 494.303 293.76C494.412 293.819 494.521 293.877 494.63 293.935C497.555 295.484 500.893 295.003 502.481 292.405C504.48 289.136 506.344 285.754 507.918 282.263C510.678 276.139 512.205 269.626 513.284 263.012C513.836 259.622 513.865 256.192 512.582 252.994C511.069 249.224 509.311 245.539 507.422 241.94C506.483 240.151 505.27 238.318 503.718 237.091C502.362 236.02 500.611 235.389 498.902 234.809L498.118 234.543C488.849 231.39 479.565 228.279 470.257 225.243C466.904 224.15 463.5 223.175 460.064 222.385C454.735 221.16 449.373 220.062 443.997 219.057C439.101 218.141 434.185 217.297 429.248 216.647C423.197 215.85 417.119 215.232 411.042 214.65C408.885 214.444 406.707 214.434 404.534 214.424C404.199 214.422 403.864 214.421 403.529 214.419L403.389 214.413C403.354 214.411 403.318 214.408 403.282 214.406L403.196 214.398C402.571 214.346 401.791 214.281 402.133 215.39L402.183 215.538C404.237 221.186 403.645 226.988 402.881 232.704C402.458 235.869 401.789 239 401.119 242.132C400.798 243.635 400.476 245.138 400.182 246.646L399.918 248.042C398.835 253.99 397.071 259.714 394.474 265.162C394.019 266.118 393.429 267.01 392.793 267.971L392.793 267.972L392.793 267.972C392.361 268.626 391.907 269.313 391.459 270.074L389.688 271.925C389.395 272.235 389.104 272.548 388.817 272.864ZM367.946 378.633C368.628 376.897 368.134 376.168 366.275 376.18C365.773 376.183 365.271 376.184 364.768 376.184C362.583 376.184 360.392 376.185 358.236 376.448C355.826 376.742 353.43 377.144 351.034 377.547L351.033 377.547C349.01 377.887 346.988 378.227 344.956 378.502C335.603 379.766 326.431 381.745 317.606 385.155L316.268 385.678C308.036 388.934 300.207 392.789 293.782 399.243C290.269 402.773 288.316 406.969 287.431 411.532C286.88 414.379 286.746 417.303 286.612 420.232C286.527 422.101 286.441 423.971 286.247 425.824C286.098 427.242 286.651 427.127 287.351 426.981L287.353 426.981C287.419 426.967 287.487 426.953 287.556 426.94L287.645 426.923C289.972 426.521 292.298 426.11 294.624 425.699C299.442 424.848 304.259 423.996 309.089 423.221C312.324 422.702 315.578 422.298 318.833 421.909L322.74 421.445C322.823 421.435 322.904 421.427 322.98 421.419C323.548 421.364 323.888 421.331 323.549 420.575L323.491 420.452C321.48 416.374 322.054 412.141 323.189 408.041C324.195 404.406 325.586 400.859 327.052 397.375C328.258 394.506 329.918 391.73 332.726 390.22C336.652 388.11 340.694 386.14 344.857 384.564C350.484 382.434 356.47 381.856 362.419 381.281C362.735 381.251 363.051 381.22 363.367 381.189C363.867 381.141 364.413 381.552 364.958 381.963C365.211 382.154 365.464 382.344 365.712 382.489C365.529 382.635 365.35 382.786 365.17 382.937C364.734 383.304 364.297 383.672 363.813 383.959C363.6 384.086 363.31 384.08 363.016 384.073C362.859 384.07 362.701 384.066 362.553 384.083L361.041 384.261C352.982 385.239 345.044 386.715 337.776 390.621C335.987 391.584 334.047 392.712 332.879 394.285C330.953 396.878 329.455 399.827 328.058 402.759C327.554 403.815 327.266 404.97 326.977 406.128C326.824 406.742 326.67 407.357 326.484 407.958L326.314 408.475C325.281 411.43 325.12 414.436 325.601 417.482C325.985 419.916 327.411 421.142 329.215 420.835C330.679 420.586 332.145 420.348 333.612 420.111L333.614 420.11C335.602 419.788 337.59 419.466 339.573 419.115C341.082 418.848 342.593 418.591 344.105 418.335C348.359 417.612 352.615 416.889 356.818 415.938C362.369 414.681 367.881 413.251 373.393 411.821L373.393 411.821L373.394 411.821L373.394 411.821L373.395 411.82L373.395 411.82L373.396 411.82L373.397 411.82C375.538 411.264 377.679 410.709 379.822 410.164C380.007 410.116 380.175 410.002 380.343 409.888C380.421 409.835 380.5 409.781 380.58 409.735C380.522 409.656 380.468 409.562 380.415 409.468C380.299 409.263 380.182 409.058 380.02 409.01C379.21 408.773 378.379 408.601 377.55 408.43L377.286 408.375L377.07 408.33C376.158 408.138 375.247 407.929 374.337 407.721L374.334 407.72L374.334 407.72C372.236 407.239 370.137 406.757 368.012 406.487C363.009 405.851 357.976 405.396 352.943 405.05L350.983 404.92C344.451 404.51 337.933 404.397 331.576 406.672L330.877 406.942C330.057 407.241 329.045 407.453 328.668 406.241C328.262 404.933 329.518 404.29 330.595 403.817C330.809 403.723 331.038 403.66 331.267 403.601L331.496 403.541C338.23 401.767 345.031 401.369 351.921 402.262L352.687 402.367C354.111 402.571 355.589 402.472 356.51 400.888C357.65 398.925 358.808 396.973 359.986 394.987C361.359 392.671 362.759 390.311 364.189 387.837C364.56 386.933 364.933 386.029 365.306 385.126L365.308 385.122C366.2 382.964 367.093 380.806 367.946 378.633ZM459.193 218.686C455.415 217.801 451.619 216.991 447.82 216.196L444.971 215.602C444.074 215.416 443.179 215.225 442.283 215.035L442.281 215.034L442.279 215.034L442.277 215.033L442.275 215.033L442.273 215.033L442.271 215.032C438.934 214.323 435.596 213.613 432.228 213.106C427.166 212.343 422.069 211.712 416.965 211.352C413.322 211.094 409.663 211.06 406.006 211.025L406.005 211.025L406.005 211.025L406.005 211.025L406.004 211.025L406.004 211.025L406.003 211.025L406.003 211.025C404.712 211.013 403.42 211 402.13 210.978C401.917 210.975 401.702 211.113 401.487 211.251C401.387 211.315 401.287 211.379 401.187 211.429C401.291 211.483 401.393 211.551 401.496 211.618C401.719 211.764 401.941 211.91 402.168 211.918C402.989 211.947 403.812 211.946 404.634 211.946C405.952 211.945 407.269 211.943 408.574 212.066C414.588 212.631 420.595 213.267 426.593 213.981C430.473 214.444 434.347 214.998 438.194 215.682C441.12 216.202 444.033 216.797 446.943 217.408L451.307 218.328C455.194 219.146 459.082 219.965 462.944 220.891C465.991 221.621 469.015 222.458 472.02 223.345C476.856 224.773 481.69 226.215 486.483 227.778C488.662 228.488 490.812 229.287 492.962 230.085C494.173 230.535 495.385 230.985 496.601 231.419C496.762 231.476 496.957 231.437 497.152 231.397C497.243 231.379 497.333 231.361 497.421 231.352C497.369 231.285 497.323 231.206 497.276 231.128C497.176 230.96 497.076 230.793 496.93 230.731C496.207 230.424 495.487 230.111 494.766 229.797C492.689 228.891 490.611 227.986 488.473 227.259C486.866 226.713 485.216 226.299 483.565 225.885C482.3 225.568 481.035 225.251 479.79 224.874C477.073 224.053 474.379 223.157 471.533 222.211L471.533 222.211L471.532 222.211C470.529 221.877 469.507 221.537 468.459 221.192C467.504 220.932 466.551 220.662 465.598 220.393L465.598 220.393C463.471 219.791 461.343 219.19 459.193 218.686ZM474.333 431.582C473.23 433.786 472.114 436.013 470.983 438.295C470.778 438.704 470.574 439.078 470.38 439.436L470.379 439.436C470.088 439.971 469.817 440.469 469.594 440.987C468.702 443.051 467.823 445.121 466.943 447.191L466.941 447.196C465.9 449.645 464.859 452.095 463.798 454.536C462.365 457.832 460.903 461.118 459.373 464.371C457.097 469.211 454.777 474.032 452.425 478.837C450.419 482.934 448.367 487.01 446.288 491.07C443.987 495.563 441.666 500.047 439.29 504.501C436.333 510.045 433.365 515.584 430.302 521.069C428.252 524.741 426.141 528.379 424.031 532.017L424.03 532.02L424.028 532.022L424.027 532.025L424.025 532.027L424.024 532.03L424.023 532.032C423.065 533.683 422.107 535.334 421.155 536.989C420.315 538.449 419.478 539.911 418.641 541.373C416.809 544.572 414.978 547.772 413.111 550.951C412.858 551.381 412.607 551.812 412.356 552.243C412.2 552.512 412.043 552.782 411.887 553.051L411.882 553.058L411.882 553.059L411.881 553.06L411.881 553.061L411.88 553.061L411.88 553.062L411.88 553.063C410.164 556.016 408.447 558.973 406.497 561.764C405.268 563.523 403.854 565.151 402.439 566.78L402.439 566.781L402.437 566.782C401.528 567.829 400.619 568.876 399.758 569.958C399.386 570.425 399.238 571.757 399.436 571.865C399.492 571.896 399.55 571.929 399.608 571.963L399.699 572.018L399.7 572.018C400.307 572.382 400.983 572.787 401.783 571.82C402.59 570.845 403.48 569.931 404.37 569.018C405.661 567.693 406.95 566.371 407.976 564.865C410.492 561.177 412.759 557.317 415.023 553.459L415.032 553.444C415.503 552.642 415.975 551.839 416.448 551.038C417.946 548.504 419.407 545.948 420.868 543.392L420.87 543.388L420.872 543.384L420.875 543.381L420.877 543.377L420.879 543.373L420.882 543.369C422.082 541.269 423.282 539.169 424.503 537.082C425.468 535.43 426.462 533.795 427.456 532.16C428.465 530.5 429.474 528.841 430.454 527.164C432.598 523.493 434.716 519.805 436.755 516.075C437.586 514.554 438.364 513.004 439.141 511.454L439.142 511.452C439.811 510.119 440.479 508.786 441.182 507.472C442.063 505.824 442.97 504.191 443.877 502.557L443.88 502.553L443.881 502.551C445.075 500.401 446.269 498.251 447.402 496.07C448.381 494.186 449.294 492.269 450.207 490.351L450.208 490.349C450.964 488.763 451.719 487.177 452.511 485.61C453.473 483.709 454.464 481.823 455.455 479.938L455.456 479.936L455.457 479.934L455.458 479.932L455.459 479.93L455.46 479.928L455.461 479.926L455.462 479.925L455.462 479.923L455.463 479.922L455.464 479.92L455.465 479.919L455.465 479.917C456.85 477.283 458.235 474.648 459.538 471.974C461.53 467.882 463.379 463.72 465.227 459.559C465.434 459.092 465.642 458.625 465.85 458.157C466.753 456.126 467.627 454.083 468.502 452.039C469.404 449.93 470.306 447.821 471.24 445.726C473.249 441.221 475.278 436.725 477.408 432.277C478.538 429.916 479.727 427.584 480.916 425.252L480.917 425.25L480.917 425.249L480.918 425.248L480.919 425.246L480.919 425.245L480.92 425.244C481.772 423.572 482.624 421.9 483.455 420.218C484.427 418.249 485.378 416.269 486.33 414.289L486.33 414.288L486.331 414.287L486.331 414.286L486.332 414.285L486.332 414.284L486.332 414.284L486.333 414.283C488.106 410.591 489.88 406.9 491.789 403.28C492.191 402.517 492.573 401.741 492.955 400.963L492.956 400.962L492.956 400.961C494.383 398.063 495.816 395.15 498.307 392.893C498.805 392.443 498.904 391.377 498.872 390.608C498.86 390.314 497.923 389.781 497.483 389.849C496.893 389.94 496.197 390.388 495.86 390.892C494.838 392.42 493.86 393.977 492.882 395.534L492.881 395.534L492.881 395.535L492.881 395.535L492.881 395.535L492.881 395.535L492.88 395.536L492.88 395.537C492.211 396.601 491.542 397.665 490.86 398.721C486.75 405.073 483.593 411.908 480.581 418.823C479.726 420.787 478.766 422.707 477.807 424.625L477.807 424.626C477.599 425.042 477.391 425.458 477.184 425.874C476.241 427.773 475.292 429.668 474.333 431.582ZM459.868 414.127C458.963 418.445 458.034 422.644 457.021 426.823C456.635 428.42 456.152 429.993 455.669 431.566L455.665 431.579C455.564 431.911 455.462 432.242 455.362 432.573C455.305 432.76 455.248 432.947 455.191 433.135L455.083 433.496L454.987 433.812L454.825 434.354L454.824 434.355C454.202 436.43 453.579 438.504 452.871 440.549C449.344 450.721 445.775 460.879 442.205 471.036C441.51 473.012 440.787 474.979 440.065 476.946C439.733 477.849 439.401 478.753 439.072 479.657C438.516 481.186 437.977 482.723 437.438 484.26L437.437 484.261C436.214 487.75 434.99 491.24 433.559 494.642C431.912 498.557 430.054 502.383 428.196 506.208L428.195 506.21C427.543 507.553 426.89 508.895 426.247 510.242C424.632 513.625 422.982 516.993 421.306 520.347C420.311 522.336 419.304 524.319 418.296 526.302L418.293 526.307C416.777 529.29 415.261 532.272 413.791 535.278C413.093 536.704 412.454 538.16 411.815 539.616C411.061 541.333 410.307 543.05 409.457 544.719C407.837 547.897 406.06 550.997 404.284 554.094C404.096 554.422 403.908 554.75 403.72 555.078C401.831 558.376 399.915 561.66 397.909 564.887C396.975 566.39 395.856 567.791 394.704 569.138C394.435 569.452 393.997 569.622 393.559 569.792C393.359 569.87 393.158 569.948 392.974 570.039C392.938 569.814 392.87 569.573 392.802 569.333C392.654 568.81 392.506 568.286 392.684 567.922C393.725 565.792 394.945 563.746 396.166 561.709C396.919 560.452 397.697 559.208 398.475 557.965C399.806 555.837 401.137 553.708 402.346 551.512C404.873 546.92 407.226 542.228 409.558 537.531C410.324 535.988 411.026 534.412 411.728 532.837L411.729 532.836L411.73 532.835L411.73 532.833L411.731 532.832L411.731 532.831L411.732 532.83L411.732 532.829L411.733 532.828L411.733 532.827L411.733 532.827C412.387 531.361 413.04 529.896 413.744 528.455C414.814 526.271 415.928 524.108 417.042 521.945C417.898 520.285 418.753 518.625 419.588 516.955C419.891 516.349 420.196 515.743 420.5 515.138L420.501 515.137C421.911 512.333 423.322 509.528 424.581 506.657C427.62 499.729 430.563 492.758 433.453 485.766C434.149 484.082 434.755 482.36 435.362 480.639C435.823 479.329 436.284 478.02 436.785 476.726C437.194 475.671 437.655 474.635 438.115 473.6L438.116 473.599C438.583 472.55 439.05 471.5 439.463 470.43C440.69 467.249 441.854 464.042 442.961 460.817C443.291 459.855 443.561 458.872 443.83 457.889C444.077 456.988 444.324 456.088 444.618 455.203C445.002 454.047 445.427 452.905 445.853 451.762C446.241 450.719 446.63 449.676 446.987 448.622C447.236 447.886 447.486 447.151 447.737 446.416L447.742 446.4L447.747 446.385C448.923 442.932 450.099 439.479 451.146 435.988C452.543 431.328 453.939 426.652 454.983 421.906C455.711 418.599 456.315 415.265 456.919 411.93L456.919 411.93L456.919 411.929L456.919 411.929L456.919 411.928L456.919 411.926C457.476 408.854 458.032 405.782 458.685 402.731C459.664 398.157 460.387 393.633 459.646 388.941C459.59 388.59 460.079 388.152 460.568 387.714C460.795 387.511 461.021 387.307 461.194 387.113C461.357 387.328 461.553 387.538 461.749 387.747C462.173 388.202 462.598 388.656 462.692 389.171C463.385 392.958 463.076 396.759 462.387 400.523C462.074 402.229 461.752 403.934 461.428 405.644L461.428 405.647C460.898 408.446 460.366 411.261 459.868 414.127ZM591.219 519.539C591.726 522.089 591.198 524.747 590.265 527.175C588.671 523.682 585.706 520.829 582.143 519.356C579.838 518.404 577.34 518.022 574.864 517.705C570.758 517.18 566.609 516.813 562.48 517.1C549.17 518.028 537.245 525.653 527.306 534.502C523.325 538.046 519.554 541.824 515.784 545.599L515.784 545.6C510.143 551.249 504.506 556.895 498.175 561.753C497.626 562.174 496.661 562.497 496.393 561.862C503.828 555.301 509.818 547.31 515.742 539.374L515.797 539.3C521.702 531.387 527.654 523.412 535.028 516.829C542.426 510.227 551.451 505.043 561.318 503.824C571.184 502.606 581.904 505.857 588.148 513.547C589.578 515.309 590.778 517.318 591.219 519.539ZM363.505 534.582C362.784 546.566 367.77 558.651 376.332 567.122C362.517 557.298 357.182 537.306 364.282 521.972C361.815 521.548 359.309 522.984 357.839 524.998C356.369 527.012 355.756 529.511 355.345 531.966C352.825 547.017 357.013 563.054 366.581 574.988C359.731 569.061 355.544 560.507 353.699 551.669C351.855 542.832 352.201 533.677 353.28 524.716C348.107 526.575 344.195 531.124 342.288 536.252C340.382 541.381 340.306 547.033 341.137 552.437C342.529 561.476 346.437 570.119 352.314 577.155C345.914 572.335 341.669 565.02 339.754 557.271C337.84 549.521 338.134 541.354 339.656 533.519C336.726 532.782 333.871 534.781 331.564 536.72C325.822 541.548 320.406 546.749 314.993 551.949L314.993 551.95L314.993 551.95L314.992 551.95C307.922 558.741 300.856 565.53 293.067 571.477C294.211 571.279 295.365 571.262 296.498 571.55C297.644 571.841 298.609 572.419 299.556 572.985L299.698 573.07C315.912 582.751 336.939 587.843 357.688 587.112C363.212 586.917 368.815 586.302 373.779 584.484C375.039 584.022 377.112 583.756 377.355 584.788C377.392 584.943 377.183 585.125 376.762 585.324C388.978 582.823 400.734 579.075 411.572 574.187C414.246 572.981 417.352 571.656 420.309 572.407C421.455 572.698 422.42 573.276 423.367 573.842L423.509 573.927C437.859 582.496 455.979 587.469 474.34 587.992C474.35 587.99 474.359 587.988 474.368 587.986C474.382 587.983 474.396 587.981 474.411 587.979C474.439 587.975 474.469 587.972 474.499 587.971C481.933 587.661 489.33 586.892 496.597 585.686C496.931 585.576 497.262 585.461 497.59 585.341C498.435 585.031 499.644 584.81 500.424 585.008C513.625 582.521 526.337 578.585 537.987 573.33C540.661 572.124 543.767 570.799 546.724 571.55C547.87 571.841 548.835 572.419 549.782 572.985L549.924 573.07C566.138 582.751 587.165 587.843 607.914 587.112C613.438 586.917 619.041 586.302 624.005 584.484C625.265 584.022 627.338 583.756 627.581 584.788C627.955 586.377 602.762 590.653 587.904 588.676C578.369 587.408 571.589 585.975 564.903 584.561L564.902 584.561C561.17 583.772 557.467 582.989 553.329 582.245C550.573 581.749 547.78 581.291 544.945 581.256C541.207 581.211 537.531 581.901 533.907 582.587L513.491 586.451C505.402 587.982 497.146 589.521 488.868 590.018C479.89 591.19 470.511 590.74 461.489 589.533C454.093 588.543 446.842 587.065 439.59 585.585L439.59 585.585L439.588 585.585L439.586 585.584L439.584 585.584C435.371 584.725 431.158 583.865 426.914 583.102C424.158 582.605 421.365 582.148 418.53 582.113C414.792 582.067 411.116 582.758 407.492 583.444L387.076 587.308C374.763 589.638 362.067 591.986 349.49 590.653C348.792 590.579 348.029 590.465 347.59 590.054C347.336 589.816 347.306 589.453 347.461 589.184C343.98 589.214 340.626 589.068 337.678 588.676C328.143 587.408 321.363 585.975 314.677 584.561L314.676 584.561C310.944 583.772 307.241 582.989 303.103 582.245C300.347 581.749 297.554 581.291 294.719 581.256C290.981 581.211 287.305 581.901 283.681 582.587L265.979 585.937C261.601 587.266 257.119 588.122 252.586 588.373C247.962 589.127 243.306 589.738 238.642 590.018C229.664 591.19 220.285 590.74 211.263 589.533C203.867 588.543 196.616 587.065 189.364 585.585L189.364 585.585L189.362 585.585L189.36 585.584L189.358 585.584C185.145 584.725 180.931 583.865 176.688 583.102C173.932 582.605 171.139 582.148 168.304 582.113C164.566 582.067 160.89 582.758 157.266 583.444L136.85 587.308C124.537 589.638 111.841 591.986 99.2639 590.653C98.5657 590.579 97.803 590.465 97.364 590.054C96.9251 589.642 97.1537 588.857 97.8578 588.828C120.197 587.896 142.203 582.821 161.346 574.187C164.02 572.981 167.126 571.656 170.083 572.407C171.229 572.698 172.194 573.276 173.141 573.842L173.283 573.927C187.633 582.496 205.753 587.469 224.114 587.992C224.123 587.99 224.131 587.988 224.14 587.986C224.149 587.985 224.158 587.983 224.167 587.982C224.183 587.979 224.199 587.977 224.215 587.975C224.234 587.973 224.253 587.972 224.273 587.971C231.707 587.661 239.104 586.892 246.371 585.686C246.705 585.576 247.036 585.461 247.364 585.341C248.209 585.031 249.418 584.81 250.198 585.008C256.215 583.875 262.13 582.44 267.89 580.717C268.601 580.387 269.307 580.045 270.007 579.688C281.389 573.891 290.625 564.642 298.663 554.755C302.289 550.296 305.712 545.677 309.135 541.06L309.135 541.059L309.136 541.059L309.136 541.058C313.301 535.44 317.465 529.822 321.993 524.491C330.242 514.778 339.918 505.897 351.652 500.84C363.387 495.782 377.455 494.982 388.739 500.967C391.809 502.596 394.653 504.717 396.816 507.427C402.894 515.039 402.605 526.234 398.531 535.068C397.58 533.872 396.787 532.565 395.994 531.257L395.994 531.257L395.993 531.256L395.993 531.256L395.993 531.256C395.29 530.097 394.586 528.937 393.772 527.855C392.04 525.551 389.579 523.518 386.689 523.355C382.609 523.125 379.271 526.638 377.479 530.287C372.503 540.423 375.423 553.776 384.184 560.946C377.297 558.997 374.386 550.944 373.416 543.895C372.313 535.891 372.594 527.056 377.584 520.678C374.031 519.058 369.607 520.71 367.115 523.703C364.624 526.696 363.739 530.705 363.505 534.582ZM397.998 528.774C399.071 525.981 399.679 522.922 399.095 519.989C398.587 517.433 397.207 515.122 395.56 513.095C388.375 504.247 376.036 500.507 364.681 501.909C353.325 503.31 342.937 509.275 334.423 516.871C325.936 524.444 319.085 533.62 312.289 542.724L312.225 542.809C305.408 551.941 298.513 561.134 289.957 568.683C290.264 569.414 291.376 569.042 292.007 568.557C299.293 562.968 305.782 556.472 312.274 549.972C316.613 545.628 320.954 541.282 325.536 537.204C336.974 527.023 350.699 518.25 366.018 517.183C370.771 516.852 375.546 517.275 380.271 517.879C383.121 518.243 385.996 518.682 388.65 519.778C392.751 521.473 396.162 524.756 397.998 528.774Z" fill="#00160A"/>
<path fill-rule="evenodd" clip-rule="evenodd" d="M406.255 459.827C404.616 463.82 402.067 466.925 398.92 469.472C394.2 473.293 388.838 474.75 382.914 472.793C379.238 471.578 375.619 470.309 372.667 467.474C369.048 463.999 367.779 459.826 367.99 455.045C368.071 453.195 368.056 451.176 368.79 449.555C370.551 445.667 372.435 441.8 376.21 439.263C380.716 436.234 385.496 434.188 391.025 434.338C398.297 434.534 403.681 437.923 407.135 444.243C408.973 447.607 408.417 451.256 407.64 454.819C407.286 456.445 406.767 458.035 406.255 459.827M371.274 454.049C371.482 456.481 371.125 459.142 372.004 461.301C374.485 467.398 379.97 469.8 385.969 470.591C392.41 471.439 397.101 467.947 400.863 463.056C403.179 460.045 404.306 456.509 404.955 452.859C405.582 449.33 405.309 445.882 402.863 442.912C400.89 440.516 398.486 438.822 395.436 438.214C393.248 437.778 390.911 436.95 388.826 437.327C380.515 438.828 372.967 443.006 371.274 454.049Z" fill="#FFB61D"/>
<path fill-rule="evenodd" clip-rule="evenodd" d="M479.052 496.016C479.403 488.523 482.494 482.582 488.152 478.07C491.662 475.271 495.741 476.53 498.043 480.727C500.947 486.021 501.252 491.526 498.86 496.951C497.006 501.156 494.128 504.626 489.739 506.689C486.47 508.226 482.324 506.708 480.971 503.59C479.967 501.276 479.623 498.675 479.052 496.016M482.47 492.414C482.41 492.965 482.327 493.515 482.293 494.068C482.111 497.032 482.2 499.932 483.802 502.605C484.798 504.266 487.245 505.04 488.785 503.983C492.656 501.326 495.702 497.965 496.849 493.313C497.728 489.746 497.732 486.127 495.881 482.765C494.515 480.286 491.976 479.31 490.071 480.556C489.21 481.119 488.485 481.899 487.727 482.612C484.985 485.19 483.741 488.587 482.47 492.414Z" fill="#FFB61D"/>
<path fill-rule="evenodd" clip-rule="evenodd" d="M384.091 443.438C386.357 441.518 391.124 441.436 393.654 443.037C401.88 448.244 398.59 458.879 392.835 462.714C387.217 466.457 379.752 462.641 377.953 457.772C377.037 455.294 377.403 452.991 378.378 450.539C379.56 447.564 381.262 445.179 384.091 443.438M383.386 455.507C383.081 454.8 382.511 454.084 382.533 453.388C382.569 452.273 383.03 451.176 383.248 450.059C383.364 449.463 383.347 448.84 383.391 448.229C382.959 448.749 382.344 449.205 382.132 449.803C381.621 451.243 381.257 452.739 380.91 454.23C380.123 457.617 383.673 461.745 387.221 461.414C391.387 461.026 393.816 458.515 395.109 454.626C396.427 450.666 395.235 447.241 391.631 445.234C390.392 444.543 388.134 444.917 387.701 446.088C386.898 448.26 386.373 450.534 385.638 452.734C385.24 453.928 385.995 456.018 383.386 455.507Z" fill="#FFB61D"/>
<path fill-rule="evenodd" clip-rule="evenodd" d="M489.429 499.055C485.082 498.281 483.24 495.053 484.667 491.005C485.448 488.789 486.108 486.53 488.109 484.984C489.811 483.669 491.538 483.598 493.477 484.385C495.15 485.065 495.691 486.457 495.821 487.983C496.222 492.684 494.091 497.714 490.284 498.957C490.06 499.029 489.799 498.986 489.429 499.055M491.706 493.668C492.089 492.616 492.556 491.584 492.824 490.503C492.989 489.839 492.848 489.099 492.844 488.394C492.515 488.855 492.192 489.321 491.856 489.777C491.602 490.121 491.397 490.599 491.052 490.753C490.592 490.958 489.908 491.11 489.525 490.904C489.198 490.728 489.023 490.009 489.039 489.539C489.051 489.164 489.504 488.822 489.666 488.427C489.806 488.084 489.812 487.687 489.878 487.314C489.531 487.509 488.973 487.63 488.874 487.912C488.397 489.281 488.046 490.695 487.643 492.091C487.219 493.563 487.06 495.287 488.511 495.972C489.906 496.631 490.766 495.07 491.706 493.668Z" fill="#FFB61D"/>
<path fill-rule="evenodd" clip-rule="evenodd" d="M681.847 272.506C679.375 272.435 679.126 272.169 679.107 269.334C679.052 269.083 678.975 268.865 678.904 268.668V268.668V268.668C678.805 268.39 678.721 268.152 678.734 267.92C678.824 266.32 677.632 266.327 676.794 266.65C676.285 266.847 675.867 267.904 675.843 268.589C675.824 269.143 675.942 269.7 676.062 270.259L676.062 270.259C676.165 270.744 676.268 271.229 676.283 271.715C676.294 272.101 675.782 272.695 675.377 272.85C674.966 273.008 674.468 272.964 673.984 272.921C673.861 272.91 673.739 272.899 673.62 272.892C672.526 272.823 671.26 272.913 671.319 274.197C671.343 274.723 672.864 275.639 673.648 275.584C675.932 275.42 677.24 276.091 677.808 278.428C677.917 278.878 678.489 279.215 679.06 279.551C679.322 279.706 679.584 279.861 679.801 280.026C679.894 279.793 680.026 279.551 680.158 279.308L680.158 279.307C680.446 278.777 680.733 278.247 680.619 277.825C680.071 275.797 680.967 275.345 682.715 275.226C683.171 275.195 683.61 274.91 684.049 274.625C684.249 274.495 684.449 274.365 684.651 274.259C684.493 274.104 684.338 273.943 684.184 273.783L684.182 273.781L684.178 273.778C683.791 273.376 683.404 272.975 682.964 272.643C682.764 272.492 682.436 272.499 682.123 272.505C682.028 272.507 681.935 272.508 681.847 272.506ZM177.194 272.443C177.186 272.391 177.174 272.32 177.105 272.205C174.987 271.298 174.104 271.743 174.055 273.699C174.027 274.834 173.632 275.363 172.49 275.746C171.694 276.013 170.603 276.982 170.593 277.651C170.578 278.732 171.767 278.992 172.826 278.837C174.18 278.639 174.464 279.338 174.462 280.543C174.46 281.805 174.518 283.125 174.906 284.303C175.033 284.69 175.55 284.949 176.068 285.207L176.068 285.207C176.302 285.324 176.536 285.441 176.735 285.57C176.821 285.405 176.914 285.242 177.008 285.078C177.226 284.697 177.444 284.316 177.574 283.907C177.666 283.617 177.643 283.291 177.62 282.965C177.61 282.82 177.6 282.675 177.6 282.532C177.6 278.868 177.609 278.865 180.794 277.743L180.867 277.717C181.245 277.584 181.57 277.302 181.896 277.02C182.046 276.89 182.196 276.76 182.352 276.644C182.188 276.502 182.031 276.341 181.874 276.18C181.526 275.823 181.178 275.466 180.757 275.317C179.608 274.91 177.594 273.48 177.207 272.5C177.2 272.483 177.197 272.465 177.194 272.443L177.194 272.443L177.194 272.443ZM616.769 343.871C617.784 343.871 618.222 347.379 618.411 348.891L618.412 348.893C618.445 349.16 618.471 349.364 618.49 349.476C618.544 349.783 619.511 349.794 620.479 349.806C621.445 349.817 622.412 349.829 622.473 350.133C622.532 350.431 621.57 350.949 620.664 351.436C619.9 351.848 619.175 352.238 619.137 352.456C619.106 352.633 619.081 352.888 619.051 353.186L619.051 353.188C618.917 354.532 618.696 356.759 617.479 356.759C617.272 356.759 617.047 356.198 616.758 355.481L616.758 355.481C616.248 354.213 615.542 352.456 614.394 352.456C614.064 352.456 609.169 352.281 609.101 351.885C609.035 351.493 613.685 350.025 614.394 349.818C615.022 349.634 615.429 347.929 615.796 346.392C616.111 345.069 616.397 343.871 616.769 343.871ZM121.415 360.981C121.641 362.011 121.873 363.072 123.744 362.79C124.14 362.28 124.514 361.768 124.505 361.262C124.495 360.755 124.399 360.243 124.303 359.731C124.066 358.465 123.829 357.2 124.906 356.014C124.982 355.929 124.731 355.426 124.526 355.227C123.251 353.989 122.827 352.523 122.855 350.747C122.862 350.283 121.725 349.642 121.008 349.414C120.769 349.339 119.992 350.242 119.837 350.802C119.637 351.524 119.576 352.463 119.879 353.11C120.453 354.339 119.746 354.549 119.03 354.76C118.925 354.791 118.82 354.822 118.718 354.857C118.479 354.938 118.219 354.976 117.961 355.014C117.594 355.068 117.23 355.122 116.935 355.298C116.23 355.72 115.041 356.638 115.142 356.871C115.535 357.769 116.281 358.315 117.545 357.791C118.376 357.447 119.529 357.484 120.387 357.782C120.589 357.852 120.644 358.242 120.706 358.68C120.762 359.081 120.825 359.522 121.01 359.797C121.226 360.117 121.32 360.546 121.415 360.981Z" fill="#00160A"/>
<path d="M475.05 453.187L684.143 453.2Z" fill="#4A0DBF"/>
<path fill-rule="evenodd" clip-rule="evenodd" d="M456.9 205.31C456.9 205.31 457.23 191.615 460.119 189.131C461.716 187.758 462.002 195.289 467.74 196.846C471.687 197.917 476.219 195.688 480.526 196.732C482.373 197.18 486.766 200.681 485.703 201.677C484.574 202.734 482.808 200.031 476.142 200.84C473.523 201.158 469.297 204.913 465.496 205.149C460.14 205.481 456.9 205.31 456.9 205.31Z" fill="#FFB61D"/>
</svg>
