<svg width="750" height="750" viewBox="0 0 750 750" fill="none" xmlns="http://www.w3.org/2000/svg">
<rect width="750" height="750" fill="white"/>
<path d="M638.487 538.299C634.32 619.563 569.209 693.205 489.395 709.045C409.581 724.886 322.229 682.753 283.339 611.278C279.047 603.39 275.225 595.117 271.404 586.845C261.538 565.489 251.675 544.14 233.74 529.451C213.263 512.678 186.927 508.192 160.326 503.661C143.434 500.784 126.435 497.888 110.761 491.817C72.977 477.181 43.6396 442.508 35.4615 402.822C22.2087 338.511 64.187 272.85 120.167 238.531C176.146 204.211 243.413 194.652 308.662 187.287C333.621 184.47 353.896 165.66 368.377 145.136C373.983 137.191 379.027 128.841 384.067 120.499C392.046 107.291 400.015 94.0988 410.191 82.5474C453.279 33.6346 533.518 25.3808 588.401 60.552C643.283 95.7232 669.552 168.045 654.957 231.575C652.443 242.517 648.875 253.172 645.307 263.827L645.306 263.829C641.89 274.029 638.474 284.229 635.982 294.683C630.657 317.028 629.64 340.152 629.034 363.115C628.311 390.493 628.141 417.943 630.705 445.211C631.597 454.697 632.819 464.17 634.042 473.642C636.819 495.165 639.596 516.678 638.487 538.299Z" fill="#64C7FC"/>
<path d="M308.571 167.878C338.414 153.032 362.166 127.248 377.124 97.4605C379.085 93.5549 380.943 89.4051 380.875 85.0352C380.806 80.6654 378.263 76.0368 374.036 74.927C367.978 73.3366 362.769 79.1448 358.991 84.1404C333.041 118.458 295.27 145.399 252.648 151.274C236.279 153.531 219.659 152.683 203.157 151.831L177.381 150.5C156.621 149.428 135.572 148.378 115.251 152.759C94.93 157.139 75.0737 167.675 63.9127 185.213C60.3602 190.795 57.6992 197.373 58.6822 203.917C59.6894 210.622 64.4558 216.313 70.1972 219.921C75.9385 223.528 82.6087 225.333 89.2191 226.843C94.0589 227.949 99.0022 228.928 103.954 228.58C112.051 228.01 119.398 223.984 126.547 220.066C127.024 219.805 127.499 219.545 127.974 219.286C140.469 212.469 153.416 206.415 166.92 201.917C186.613 195.358 207.319 192.148 227.975 188.946C255.801 184.632 283.535 180.333 308.571 167.878Z" fill="#64C7FC"/>
<path d="M153.377 563.395L153.395 563.396C154.611 563.444 155.827 563.493 157.039 563.556C176.216 564.553 195.193 569.255 212.617 577.325C219.261 580.402 225.989 584.253 229.721 590.552C234.338 598.347 239.88 605.593 246.193 612.089C248.643 614.609 251.295 617.074 254.565 618.362C257.836 619.649 261.874 619.531 264.527 617.227C267.75 614.427 267.959 609.455 266.966 605.303C265.338 598.498 261.278 592.568 257.26 586.84C244.075 568.044 230.194 549.251 211.845 535.449C193.496 521.648 169.816 513.291 147.357 518.059C139.602 519.705 131.916 523.06 126.775 529.095C121.633 535.129 119.601 544.211 123.304 551.22C126.242 556.781 132.197 560.203 138.295 561.745C143.209 562.987 148.298 563.191 153.376 563.395H153.377Z" fill="#64C7FC"/>
<path d="M672.086 280.686C666.959 278.753 661.153 281.087 656.814 284.432C648.244 291.039 643.174 301.374 640.867 311.946C638.56 322.518 638.746 333.454 638.944 344.274L640.638 437.235C640.762 444.026 641.064 451.346 645.24 456.703C646.547 458.379 648.336 459.851 650.451 460.067C653.014 460.328 655.385 458.71 657.236 456.918C667.358 447.117 668.687 431.679 669.899 417.608L669.943 417.097C671.723 396.441 674.806 375.898 679.167 355.63C680.393 349.93 681.741 344.194 684.306 338.959C692.348 322.546 690.425 301.711 679.514 287.048C677.54 284.396 675.179 281.852 672.086 280.686Z" fill="#64C7FC"/>
<path d="M488.456 406.516C493.865 408.005 498.71 412.51 499.242 418.095C500.267 415.873 502.521 414.268 504.956 414.024L501.421 417.78L505.894 417.87L499.739 421.307C503.555 428.364 502.937 437.068 500.491 444.709C498.994 449.386 496.828 454.07 497.251 458.962C497.666 463.774 501.939 468.69 506.61 467.705L506.844 467.651C512.458 466.233 518.605 467.054 523.65 469.896C530.898 473.979 535.295 481.562 540.277 488.225C544.675 494.107 549.88 499.577 556.386 502.985C562.892 506.392 570.869 507.517 577.647 504.688C581.01 503.284 584.021 500.96 587.589 500.221C591.157 499.481 594.813 501.465 596.124 504.847C596.704 506.343 595.458 511.886 592.282 518.359C592.798 518.211 593.338 518.115 593.904 518.079C610.596 516.995 627.442 513.366 641.806 504.796C646.373 502.072 650.638 498.88 654.873 495.661L657.34 493.781L658.834 492.63C668.126 485.432 677.299 477.408 681.12 466.459L681.319 465.87L681.742 464.576C682.56 462.126 683.596 459.594 685.961 458.833C689.234 457.78 692.215 460.949 694.204 463.753L708.541 483.966C708.91 484.485 709.286 485.022 709.427 485.643C710.048 488.39 705.948 489.777 703.306 488.802C698.501 487.028 694.645 481.744 689.605 482.651C686.061 483.288 683.944 486.719 682.193 489.951L681.75 490.775C671.141 510.639 653.288 526.53 632.328 534.766C626.926 536.889 621.343 538.516 615.77 540.139L604.51 543.419L606.494 543.773C623.294 546.719 641.219 548.517 656.476 541.072C666.633 536.115 674.459 527.582 681.841 518.958L684.519 515.81L685.624 514.496C690.154 509.061 694.459 503.243 695.781 496.355C696.289 493.71 699.627 492.449 702.224 493.165C704.82 493.882 706.796 495.935 708.635 497.904L722.573 512.821C723.671 513.997 724.826 515.294 724.987 516.894C725.148 518.494 723.713 520.305 722.169 519.857L707.055 515.467C705.638 515.055 704.068 514.653 702.733 515.284C701.71 515.767 701.05 516.758 700.465 517.736L684.216 545.175C679.641 552.902 671.162 557.381 662.831 560.732C642.852 568.766 621.172 572.541 599.653 571.732C597.316 571.645 594.976 571.503 592.666 571.139C583.986 569.771 576.146 565.358 568.555 560.893C569.886 565.76 568.7 569.866 560.796 570.178C553.794 570.455 536.644 541.627 531.311 540.131C502.2 531.968 497.42 515.854 488.068 504.847C488.068 504.847 469.168 507.289 456.689 504.688C427.439 498.59 407.782 479.831 400.696 478.636C393.609 477.442 388.936 481.984 386.748 479.229L386.748 477.233C387.086 476.684 390.473 473.52 400.133 475.575C413.623 478.445 435.187 489.279 451.655 491.303C468.943 493.427 483.587 490.615 483.506 490.144C483.342 489.181 487.687 485.09 484.215 483.025C480.744 480.959 430.341 460.73 419.385 443.872L419.254 443.661C417.371 440.535 415.94 432.765 419.73 436.322L420.791 434.441C424.872 438.289 438.271 447.086 452.19 455.759C466.906 464.928 487.687 470.8 488.068 470.543C496.537 464.815 489.025 460.668 487.623 459.45C484.343 456.601 479.986 455.047 477.159 451.747C470.377 443.829 475.221 429.667 467.469 422.697C466.297 421.642 464.874 420.812 464.024 419.483C462.568 417.207 463.284 414.038 465.047 411.99C466.811 409.942 469.39 408.798 471.941 407.908C477.238 406.058 483.046 405.026 488.456 406.516Z" fill="white"/>
<circle cx="493" cy="447" r="2" fill="#FFB61D"/>
<ellipse cx="480.806" cy="447" rx="1.48322" ry="2" fill="#FFB61D"/>
<path d="M408.328 456.692C389.734 451.884 370.19 450.774 351.171 453.447C352.609 446.339 354.411 439.304 356.566 432.379C350.377 434.376 343.071 428.704 343.471 422.214C343.871 415.723 351.819 410.992 357.715 413.734C359.741 409.061 359.869 403.597 358.066 398.833C357.2 396.548 360.649 395.229 363.093 395.229L376.595 395.226C378.482 395.225 381.114 394.349 380.645 392.521C379.533 388.185 382.514 383.232 386.866 382.184C391.138 381.156 395.947 384.081 397.051 388.321L397.109 388.557C398.133 393.111 403.901 394.556 408.567 394.467L410.89 394.411C414.926 394.326 419.132 394.457 421.833 397.28C425.064 400.656 424.342 406.033 423.277 410.617L423.205 410.921C421.697 417.283 420.088 423.622 418.38 429.934C421.697 456.626 413.483 458.025 408.328 456.692Z" fill="white"/>
<path d="M253.236 434.406C251.265 421.576 251.268 408.446 253.244 395.617L253.344 394.996C253.835 392.085 254.696 389.011 257.129 387.408C258.95 386.207 261.25 386.117 263.444 386.116L280.239 386.162C281.003 386.164 281.841 386.193 282.416 386.697C282.99 387.201 282.975 388.358 282.238 388.562C280.479 389.05 279.468 391.078 279.681 392.891C279.895 394.704 281.074 396.274 282.458 397.464C285.759 400.302 290.891 401.31 294.545 398.944C298.199 396.578 299.058 390.482 295.596 387.844C303.441 387.684 311.29 387.709 319.134 387.917L322.075 388.004C323.026 388.035 324.077 388.111 324.741 388.792C325.24 389.303 325.404 390.046 325.516 390.751C326.385 396.181 325.435 401.886 322.854 406.742C322.443 407.516 321.491 408.368 320.842 407.779C318.086 405.277 313.451 405.618 310.631 408.048C307.81 410.477 306.72 414.513 307.219 418.202C307.698 421.752 310.286 425.544 313.865 425.365C316.683 425.224 319.817 422.759 321.946 424.611L318.358 440.641C317.721 443.489 316.577 446.868 313.723 447.478C297.249 451.002 279.976 450.735 263.618 446.705L262.824 446.504C260.839 445.985 258.862 445.312 257.313 443.987C254.617 441.679 253.775 437.913 253.236 434.406Z" fill="white"/>
<path d="M382.484 308.607L422.295 309.408V309.408L422.946 309.423C424.141 309.461 425.346 309.566 426.423 310.068C428.856 311.204 429.972 314.004 430.712 316.586C434.662 330.366 434.174 345.382 429.339 358.877L429.135 359.429C428.506 361.09 427.683 362.745 426.197 363.679C424.973 364.448 423.482 364.609 422.031 364.686L421.721 364.702C415.801 364.983 409.861 364.831 403.963 364.249C407.034 362.358 407.81 357.755 405.86 354.721C403.909 351.687 399.788 350.42 396.319 351.405C394.204 352.006 392.234 353.451 391.469 355.512C390.703 357.573 391.443 360.22 393.398 361.227C394.75 361.923 394.517 364.115 393.333 365.069C392.149 366.024 390.504 366.092 388.984 366.116L369.01 366.44C367.509 366.465 365.93 366.471 364.612 365.752C362.743 364.732 361.883 362.535 361.357 360.472C360.086 355.494 359.914 350.238 360.857 345.188C361.993 349.176 366.908 351.599 370.763 350.069C374.617 348.54 376.535 343.407 374.627 339.725C372.719 336.043 367.419 334.649 363.947 336.916L363.803 335.629C363.304 331.119 362.917 326.549 363.784 322.107C364.732 317.241 367.439 312.462 371.876 310.251C375.112 308.638 378.849 308.549 382.484 308.607V308.607Z" fill="white"/>
<path d="M261.741 353.39C256.135 353.412 250.528 353.182 244.943 352.699L244.401 352.649C242.4 352.45 240.303 352.049 238.992 350.562C237.224 348.554 237.655 345.528 238.187 342.879L238.24 342.616C240.614 330.996 241.546 319.083 241.011 307.235L240.911 305.193C240.762 301.519 240.997 297.354 244.048 295.465C244.977 294.89 246.054 294.623 247.129 294.407L247.486 294.336C267.023 290.531 287.364 290.916 306.742 295.46C309.294 296.058 310.004 299.515 309.158 301.995C308.312 304.475 306.494 306.56 305.815 309.092C305.135 311.623 306.381 315.049 309 315.131C314.452 315.302 319.073 320.841 318.34 326.246C317.608 331.65 311.766 335.75 306.418 334.676C305.163 334.425 304.719 336.279 304.857 337.552L306.383 351.661V351.661C306.632 353.964 303.364 354.691 301.055 354.512L287.582 353.463V353.463C285.465 353.298 282.626 353.663 282.3 355.761C281.488 360.985 276.132 365.064 270.881 364.458C265.629 363.852 261.343 358.661 261.741 353.39Z" fill="white"/>
<path fill-rule="evenodd" clip-rule="evenodd" d="M225.476 440.223C226.971 440.586 229.111 441.232 228.992 442.645C226.6 471.136 216.302 465.893 207.119 474.062C204.693 476.221 203.243 481.326 202.2 481.443C206.065 483.228 211.673 490.388 221.325 490.716C248.217 491.628 258.006 472.005 258.006 472.005C258.638 465.713 255.447 454.382 259.43 457.555C262.179 459.745 261.636 449.075 265.391 450.137C266.52 450.457 264.549 457.551 265.391 457.975C265.857 458.21 266.546 456.276 267.747 454.737C268.749 453.454 270.294 452.504 270.613 452.784C270.83 452.974 270.622 454.808 269.72 456.359C268.453 458.54 266.333 460.639 266.629 460.988C266.956 461.373 272.546 456.171 272.887 456.626C275.149 459.643 260.822 494.372 236.646 500.929L234.732 501.443C220.639 505.187 214.721 505.698 201.664 500.929C195.473 498.667 191.622 519.789 188.181 526.819C186.008 531.258 175.454 542.137 170.635 538.847C164.276 534.506 159.092 526.427 153.681 522.341L153.333 522.085C149.645 519.441 141.305 515.429 128.311 510.048L128.896 509.778C131.607 508.546 138.59 505.532 143.952 500.929C151.57 494.388 155.696 480.338 161.007 472.761C166.251 465.28 173.287 466.382 169.04 465.059C169.04 465.059 158.28 459.358 153.333 458.836C136.812 457.092 115.276 464.9 108.386 469.931C98.9325 476.835 108.325 486.995 95.2629 482.015C90.9095 480.356 102.578 458.855 118.672 450.137C141.044 438.02 162.197 434.687 183.404 453.976C192.035 461.826 192.89 468.815 195.204 474.143L194.73 472.837C220.314 471.15 181.981 445.537 213.984 439.127C217.345 438.453 220.872 439.154 224.241 439.933L225.476 440.223Z" fill="white"/>
<circle cx="209" cy="458" r="2" fill="#FFB61D"/>
<circle cx="220" cy="462" r="2" fill="#FFB61D"/>
<path fill-rule="evenodd" clip-rule="evenodd" d="M103.894 535.563C125.572 550.574 97.835 529.839 121.521 554.549C126.305 559.539 150.523 531.041 153.021 547.93C153.932 554.09 151.945 560.503 153.157 566.611C154.287 572.311 179.078 568.889 180.992 566.396C187.934 557.359 166.331 534.145 161.802 530.435C136.525 509.728 128.184 511.165 104.566 532.588L103.894 535.563Z" fill="white"/>
<path fill-rule="evenodd" clip-rule="evenodd" d="M667.836 160.355C672.088 160.863 676.042 161.335 676.042 156.38C676.042 155.2 661.731 144.842 657.491 148.831C652.038 153.961 647.707 159.843 643.513 165.541C634.706 177.502 626.499 188.65 609.765 190.311L609.563 190.333C603.077 191.116 615.162 196.874 628.734 190.311C638.065 185.798 650.48 171.523 656.377 164.742C657.921 162.968 659.017 161.706 659.496 161.268L659.619 161.163C661.629 159.613 664.808 159.993 667.836 160.355ZM688.024 173.767L702.183 185.006C704.942 187.196 701.711 191.915 698.197 192.141C696.158 192.272 694.202 191.644 692.236 191.014C690.814 190.557 689.386 190.099 687.918 189.926C679.603 188.943 673.264 196.774 668.105 203.369C663.392 209.396 658.23 215.074 652.678 220.338L651.927 221.044L651.144 221.764C646.678 225.825 641.668 229.503 635.776 230.562C627.1 232.123 618.481 227.68 611.395 222.438C609.665 221.158 607.967 219.816 606.267 218.473C601.004 214.314 595.732 210.147 589.491 207.812C584.081 210.763 579.019 214.33 574.396 218.399L574.602 218.236C582.363 226.015 587.791 236.094 590.013 246.856L588.528 246.595L587.548 246.428C578.377 244.89 568.556 243.98 560.805 248.888C558.074 250.617 555.638 253.033 553.229 255.421C551.552 257.083 549.889 258.733 548.148 260.129C548.59 260.391 549.043 260.664 549.506 260.948C558.082 264.456 567.172 266.703 576.395 267.594C577.805 267.73 579.23 267.838 580.659 267.947C587.274 268.449 593.975 268.958 599.628 272.279L601.611 273.465C604.793 275.348 608.335 277.141 611.001 274.96C611.768 274.333 612.27 273.473 612.773 272.609L612.774 272.609C613.08 272.083 613.387 271.556 613.756 271.079C614.73 269.818 616.662 268.931 617.873 269.966L618.364 273.82C618.721 271.341 621.113 269.326 623.616 269.395C626.12 269.465 628.396 271.61 628.614 274.105C629.01 278.634 623.875 281.344 619.517 282.786L596.928 290.066C588.857 292.666 579.909 291.319 572.128 287.947C564.884 284.808 558.493 280.03 552.385 275.009L551.032 273.889C546.419 270.051 540.185 265.882 534.952 268.817C544.045 269.37 550.677 277.206 556.1 284.617L556.621 285.333C557.499 286.543 558.403 287.817 558.62 289.297C559.227 293.438 554.523 296.187 550.549 297.504C553.898 299.297 552.238 304.505 549.644 307.279C545.869 311.315 540.926 314.22 535.594 315.658L535.107 317.343C535.076 317.456 535.062 317.515 535.065 317.517C537.58 317.342 539.131 320.721 538.106 323.024C537.082 325.328 534.553 326.554 532.127 327.24C524.133 329.5 515.104 327.717 508.569 322.588L507.299 323.25C501.778 326.107 496.067 328.764 489.931 329.665C483.323 330.635 476.049 329.273 471.272 324.606L471.587 325.293C472.262 326.791 472.869 328.341 472.891 329.974C472.916 331.857 471.942 333.891 470.158 334.495C467.213 335.493 464.641 332.346 463.113 329.639C462.276 331.723 463.139 334.068 463.978 336.349C464.936 338.95 465.862 341.467 464.198 343.415C462.465 345.443 459.177 344.924 456.792 343.727C447.858 339.246 443.66 327.966 445.596 318.16C447.531 308.353 454.582 300.141 462.978 294.718C457.278 290.54 453.108 284.319 451.409 277.459C451.861 278.043 453.882 276.164 456.753 273.496L456.753 273.496C462.005 268.614 470.101 261.09 476.642 261.16C477.895 261.173 479.919 262.143 481.901 263.092L481.901 263.092L481.901 263.092C483.336 263.78 484.749 264.457 485.833 264.754C485.923 264.638 486.032 264.533 486.158 264.442L484.92 263.553C482.43 261.784 479.831 260.121 476.883 259.388C473.444 258.533 469.372 259.237 467.181 262.022C461.823 268.832 455.035 274.512 447.387 278.585L451.921 286.956C450.047 287.851 447.712 287.687 445.973 286.558L445.759 286.413L445.893 286.58C448.505 289.986 446.21 295.925 441.935 296.598C437.597 298.419 433.222 292.981 433.649 288.296C433.949 285.012 435.575 282.102 437.205 279.187C437.9 277.942 438.597 276.697 439.19 275.421C441.196 271.111 442.078 266.323 442.955 261.565C444.156 255.044 445.346 248.581 449.406 243.484C452.25 239.914 456.232 237.432 460.317 235.396C476.527 227.316 495.71 225.384 513.206 230.069C516.186 219.393 522.093 209.549 530.113 201.898L530.591 201.449C533.659 198.623 537.476 196.097 541.545 196.561L541.867 196.604C545.908 197.22 549.42 194.102 552.357 191.216L553.263 190.327L553.972 189.643C559.801 184.077 566.567 178.939 574.53 178.385C581.614 177.892 588.395 181.144 594.509 184.755C601.427 188.841 608.008 193.498 614.162 198.662L615.243 199.579L615.56 199.85L615.912 200.153L616.114 200.326C621.918 205.311 628.268 210.766 635.823 210.314C643.569 209.85 649.227 203.421 654.441 197.496L654.442 197.494L654.445 197.492C654.865 197.014 655.283 196.539 655.699 196.071C662.131 188.831 669.455 182.457 676.868 176.213L680.048 173.543C681.01 172.736 682.046 171.896 683.291 171.734C685.043 171.507 686.64 172.669 688.024 173.767ZM548.03 296.499C546.456 296.185 544.308 296.322 541.587 296.909C543.379 296.916 544.887 296.884 546.112 296.813C546.705 296.74 547.295 296.648 547.875 296.531L548.03 296.499ZM489.726 261.831C490.3 261.241 490.906 260.62 491.578 260.088C492.828 259.429 494.236 259.095 495.654 259.229C500.45 259.685 504.083 264.787 503.455 269.564C500.923 275.838 494.657 279.419 488.459 282.96L488.459 282.96C484.641 285.141 480.85 287.308 477.973 290.08C478.695 288.889 479.485 287.939 480.286 287.356C482.788 285.535 485.403 283.957 487.868 282.47L487.869 282.469C489.941 281.219 491.907 280.033 493.609 278.821C496.288 276.914 498.087 275.101 499.481 273.696L499.482 273.696L499.482 273.696L499.482 273.696L499.482 273.696C500.548 272.622 501.377 271.787 502.182 271.33C502.247 271.292 505.27 265.165 497.963 261.16C492.445 258.136 489.987 261.961 488.666 264.017C488.237 264.684 487.928 265.165 487.674 265.165C487.607 265.165 487.515 265.155 487.4 265.134C487.582 264.482 487.86 263.852 488.215 263.263C488.71 262.873 489.205 262.365 489.726 261.831ZM491.286 260.25C490.031 260.977 488.954 262.033 488.215 263.263L488.033 263.4C487.669 263.665 487.304 263.859 486.928 263.948C486.168 264.127 484.36 262.74 482.828 261.565C481.912 260.862 481.095 260.235 480.66 260.065C477.796 258.941 477.46 258.926 475.474 258.831C475.139 258.815 474.756 258.797 474.306 258.771L473.482 258.72C473.302 258.709 473.103 258.701 472.891 258.692L472.891 258.692L472.891 258.692C471.244 258.623 468.875 258.523 469.348 257.243C477.81 234.341 513.965 229.357 507.987 255.246C507.493 257.387 506.195 259.26 504.897 261.134C504.248 262.071 503.6 263.008 503.051 263.978C500.715 260.658 498.169 258.908 495.414 258.728C493.878 258.627 492.645 259.244 491.578 260.088L491.286 260.25ZM556.868 239.704L556.875 239.691C554.885 243.473 552.748 248.026 550.465 253.349C552.182 248.619 554.333 244.051 556.868 239.704ZM572.988 243.192L572.71 243.203C570.504 243.295 568.525 243.625 566.773 244.193C564.83 244.823 562.761 245.876 560.569 247.352C564.406 245.227 568.646 243.805 572.988 243.192Z" fill="white"/>
<path fill-rule="evenodd" clip-rule="evenodd" d="M460.176 339.112C458.442 341.141 455.93 340.487 453.628 338.243C448.811 333.547 446.876 324.487 448.811 314.68C450.747 304.874 458.291 300.834 466.687 295.411C462.919 293.859 456.094 284.02 455.409 274.459C457.731 277.455 457.853 282.833 460.176 285.83C462.379 288.674 466.783 292.135 468.987 294.979C469.268 295.342 469.511 295.952 469.111 296.179C461.062 300.751 455.846 302.264 451.099 314.68C446.352 327.096 455.99 338.581 457.271 338.243C458.849 337.826 458.29 335.733 457.383 334.376C454.827 330.547 457.259 325.443 459.343 321.338C460.457 322.587 457.778 326.17 458.343 329.895C458.893 333.532 461.719 337.306 460.176 339.112Z" fill="#E7EAEE"/>
<circle cx="493" cy="298" r="2" fill="#FFB61D"/>
<circle cx="486" cy="290" r="2" fill="#FFB61D"/>
<path d="M186.911 309.642C188.067 311.8 186.249 314.885 183.801 314.92C181.705 303.135 179.444 290.94 172.622 281.104C159.56 262.27 132.642 256.084 121.459 236.078C113.844 241.497 102.2 240.116 96.0652 233.065C92.2498 228.679 85.5991 228.141 79.8693 229.119C74.1394 230.098 68.5415 232.261 62.7317 232.077C60.2107 231.997 57.464 231.319 55.9968 229.267C54.5296 227.216 55.3772 223.605 57.874 223.248C68.7515 221.691 79.629 220.134 90.5064 218.577C91.3606 218.455 92.2671 218.309 92.9156 217.74C93.6493 217.096 93.8797 216.066 94.07 215.109C95.6447 207.183 96.7793 197.736 90.9436 192.147C86.107 187.515 78.4735 187.675 71.9027 188.967C65.3319 190.259 58.56 192.385 52.0844 190.679C45.6088 188.973 40.1933 181.28 43.6842 175.566C46.0224 171.738 43.3859 166.633 39.7793 163.967C36.1727 161.301 31.6843 159.987 28.1885 157.177C24.6927 154.367 22.4741 148.945 25.2586 145.429C26.4832 143.882 28.4007 143.068 30.2819 142.474C36.5081 140.51 43.4505 140.36 49.4521 142.93C55.4537 145.5 60.3274 151.008 61.3041 157.463C62.0997 162.722 60.5879 168.84 64.0644 172.865C68.6096 178.128 77.0104 175.176 83.964 175.113C91.0759 175.048 98.1086 178.818 101.991 184.778C105.872 190.737 106.479 198.694 103.545 205.173C111.806 196.768 122.932 190.32 134.709 190.759C145.587 191.164 155.582 197.421 162.857 205.518C170.132 213.615 175.095 223.477 179.962 233.214C181.775 236.841 186.374 238.807 190.249 237.612C194.124 236.416 196.815 232.2 196.269 228.182C199.646 228.918 199.998 233.483 200.102 236.938C200.32 244.197 202.949 251.363 207.476 257.042C208.99 254.248 210.146 251.26 210.905 248.175C214.209 251.974 215.442 257.472 214.076 262.318C212.71 267.164 208.788 271.209 203.986 272.723C201.431 273.529 198.307 273.916 197.038 276.276C201.83 284.666 205.951 293.439 209.35 302.483C211.173 307.333 212.488 313.574 208.651 317.056C204.216 313.782 201.696 308.588 199.342 303.602C195.672 295.825 192.001 288.048 188.33 280.271" fill="white"/>
<path fill-rule="evenodd" clip-rule="evenodd" d="M199.018 231.793C198.055 241.211 201.579 250.989 208.33 257.625C210.737 256.173 212.277 253.385 212.223 250.574C214.753 254.733 213.336 260.374 210.19 264.09C207.044 267.805 202.531 270.033 198.152 272.159C195.642 273.378 193.037 274.62 190.249 274.704C185.995 274.831 182.183 272.273 178.705 269.82L168.5 262.625C173.773 272.463 185.774 278.193 196.739 276.106C204.364 286.803 209.033 299.585 210.098 312.679L208.048 308.892C208.029 308.846 208.005 308.8 207.974 308.754L208.048 308.892C208.343 309.618 207.191 310.421 206.415 310.046C205.59 309.646 205.279 308.653 205.035 307.769C202.033 296.883 196.653 286.66 189.38 278.021L200.393 301.353C202.746 306.338 205.266 311.533 209.701 314.807C213.538 311.325 212.223 305.084 210.4 300.234C207.001 291.19 202.88 282.417 198.089 274.027C199.118 272.111 201.372 271.495 203.551 270.9L203.552 270.9L203.552 270.9L203.552 270.9L203.552 270.899L203.553 270.899C204.057 270.762 204.556 270.625 205.036 270.474C209.838 268.96 213.761 264.915 215.126 260.069C216.492 255.223 215.259 249.724 211.955 245.926C211.196 249.011 210.041 251.999 208.526 254.792C203.999 249.114 201.371 241.948 201.152 234.689C201.048 231.234 200.696 226.669 197.319 225.932C197.865 229.951 195.174 234.167 191.299 235.362C187.424 236.558 182.825 234.592 181.012 230.965C176.146 221.228 171.183 211.366 163.907 203.269C156.632 195.172 146.637 188.915 135.759 188.51C123.983 188.071 112.856 194.519 104.595 202.924C107.529 196.445 106.923 188.488 103.041 182.529C99.1588 176.569 92.1261 172.799 85.0142 172.863C83.2102 172.88 81.3088 173.091 79.4026 173.302C73.9612 173.905 68.4807 174.513 65.1146 170.616C62.7372 167.863 62.6926 164.132 62.6476 160.366C62.6267 158.625 62.6058 156.876 62.3543 155.214C61.3776 148.758 56.5039 143.251 50.5023 140.681C44.5007 138.111 37.5583 138.261 31.3321 140.225C29.4509 140.818 27.5334 141.633 26.3088 143.18C23.5243 146.696 25.7429 152.118 29.2387 154.928C31.0785 156.407 33.1933 157.471 35.3098 158.537C37.2147 159.495 39.1211 160.455 40.8295 161.718C44.4362 164.384 47.0726 169.489 44.7344 173.317C41.2435 179.031 46.659 186.724 53.1346 188.43C58.4877 189.84 64.0432 188.632 69.5202 187.441C70.6688 187.191 71.8139 186.942 72.9529 186.718C79.5238 185.426 87.1572 185.266 91.9938 189.898C97.8295 195.486 96.6949 204.934 95.1202 212.859C94.9299 213.817 94.6995 214.847 93.9658 215.491C93.3173 216.06 92.4108 216.205 91.5566 216.328L58.9242 220.999C56.4274 221.356 55.5798 224.967 57.047 227.018C58.5142 229.07 61.2609 229.748 63.7819 229.828C67.6365 229.95 71.3978 229.039 75.1663 228.126C77.0778 227.663 78.9912 227.2 80.9195 226.87C86.6493 225.892 93.3 226.43 97.1154 230.815C103.25 237.867 114.894 239.248 122.509 233.829C128.394 244.356 138.635 251.057 148.922 257.787C158.184 263.848 167.483 269.932 173.672 278.855C180.494 288.691 182.755 300.886 184.851 312.671C187.299 312.636 189.117 309.55 187.961 307.393L185.661 310.426C184.811 291.852 175.324 273.85 160.482 262.65C156.807 259.876 152.776 257.444 148.754 255.018C139.916 249.687 131.121 244.38 126.227 235.525C125.786 234.727 125.376 233.882 125.305 232.974C125.214 231.825 125.672 230.717 126.115 229.647L126.178 229.494C127.942 225.215 129.174 220.519 128.307 215.973C127.441 211.426 124.018 207.126 119.44 206.442C127.189 211.398 128.777 223.699 122.542 230.461C116.307 237.223 103.918 236.635 98.3509 229.313C93.8892 223.445 84.9674 224.163 77.7861 225.828C70.6047 227.492 62.1478 229.234 56.6002 224.379C68.469 221.116 80.682 219.107 92.9706 218.396C95.8981 218.226 97.0464 214.574 97.4407 211.669C98.0468 207.202 98.653 202.663 97.9889 198.205C97.3249 193.746 95.2057 189.298 91.4223 186.848C86.879 183.905 81.0138 184.361 75.6301 184.924L61.3229 186.421C58.2402 186.744 55.072 187.06 52.0831 186.239C49.0942 185.419 46.2819 183.19 45.7088 180.144C45.3469 178.22 45.8977 176.325 46.4529 174.415C46.8527 173.04 47.2548 171.657 47.3203 170.25C47.507 166.241 44.9174 162.568 41.7708 160.078C39.8429 158.552 37.6946 157.351 35.5444 156.149C34.1851 155.39 32.825 154.63 31.5193 153.786C29.0615 152.2 26.5397 149.636 27.2231 146.791C27.6601 144.972 29.3063 143.711 30.9614 142.839C36.5493 139.893 43.5338 139.761 49.2293 142.492C54.9249 145.224 59.1938 150.754 60.3946 156.955C60.6909 158.485 60.8255 160.083 60.9598 161.677C61.2706 165.366 61.5799 169.037 63.8846 171.809C66.6375 175.119 71.3953 175.953 75.696 175.748C77.1705 175.678 78.6449 175.512 80.118 175.347C82.9416 175.031 85.7606 174.716 88.5677 175.069C98.007 176.258 105.444 186.079 104.029 195.487C103.951 196.007 103.85 196.532 103.749 197.059C103.389 198.935 103.025 200.83 103.666 202.593C104.487 204.85 108.078 206.052 109.215 203.937C114.313 194.458 126.004 189.683 136.693 190.935C147.382 192.187 156.948 198.623 163.966 206.782C170.984 214.942 175.757 224.761 180.111 234.603C181.645 238.07 186.211 239.325 189.859 238.294C193.506 237.262 196.401 234.535 199.018 231.793ZM179.863 248.313C179.967 248.298 180.207 248.769 180.57 249.479C181.462 251.225 183.094 254.419 185.245 255.391C185.15 256.296 183.726 255.811 183.134 255.12C181.452 253.154 179.667 250.893 179.863 248.313ZM184.942 263.827C186.052 265.455 179.402 266.264 177.191 264.845C177.58 264.77 178.093 264.81 178.661 264.854C179.335 264.906 180.086 264.965 180.8 264.845C181.845 264.669 182.854 264.348 183.616 264.106C184.355 263.871 184.861 263.71 184.942 263.827ZM183.345 257.78C180.698 258.234 177.446 254.708 177.446 251.392C178.208 253.843 180.919 255.788 182.417 256.863C183.179 257.41 183.627 257.731 183.345 257.78ZM192.83 271.647C189.304 271.647 187.706 265.701 189.304 265.319C189.686 265.146 189.704 265.678 189.731 266.465C189.759 267.291 189.796 268.399 190.277 269.261C190.811 270.22 191.942 270.86 192.602 271.234C193.101 271.516 193.331 271.647 192.83 271.647ZM196.758 263.551C197.532 263.977 198.238 264.638 198.439 265.499C198.639 266.36 198.158 267.403 197.292 267.583C197.021 267.184 197.168 266.931 197.323 266.664C197.551 266.272 197.796 265.85 196.758 264.894C196.321 264.491 195.812 264.316 195.455 264.193C195.181 264.099 194.996 264.035 195.003 263.923C195.048 263.207 196.13 263.205 196.758 263.551ZM190.158 255.803C189.984 255.924 189.864 256.008 189.967 256.104C190.285 256.4 190.66 256.541 191.035 256.326C191.321 256.162 191.465 255.829 191.533 255.507C191.909 253.705 190.007 251.845 188.214 252.261C188.373 252.681 188.678 252.815 189.047 252.978C189.474 253.166 189.987 253.392 190.464 254.138C191.107 255.144 190.517 255.554 190.158 255.803ZM189.556 272.784C187.479 272.179 185.426 267.276 186.532 266.905C187.221 266.673 187.217 266.71 187.177 267.098C187.14 267.454 187.073 268.103 187.479 269.109C187.984 270.359 188.69 271.373 189.14 272.018C189.449 272.461 189.636 272.73 189.556 272.784ZM665.077 161.468C660.62 162.015 657.107 165.61 654.892 169.517C653.821 171.406 652.963 173.404 652.106 175.403C651.191 177.538 650.276 179.672 649.1 181.671C643.491 191.209 632.835 196.423 622.623 200.684C620.863 201.419 617.778 201.073 618.327 199.246C635.046 196.073 649.44 182.836 653.997 166.44C654.534 164.508 652.022 162.878 650.083 163.389C648.329 163.851 647.08 165.314 645.953 166.766L645.601 167.222C636.288 179.335 622.919 189.576 607.654 190.237C606.574 190.284 605.028 189.625 605.503 188.653C616.809 188.274 627.467 182.694 635.863 175.112C644.258 167.529 650.659 158.026 656.649 148.429C657.575 146.945 659.799 147.262 661.455 147.827C666.537 149.56 671.412 151.897 675.946 154.774C678.379 156.319 676.451 160.44 673.685 161.248C672.095 161.712 670.434 161.6 668.766 161.486C667.532 161.403 666.294 161.319 665.077 161.468ZM660.735 152.016L660.345 151.898C659.155 151.556 657.827 151.367 656.87 152.105C656.499 152.392 656.233 152.787 655.99 153.19L652.808 158.555C654.478 158.941 656.078 159.625 657.512 160.566C658.683 161.334 660.296 161.363 661.495 160.639C662.693 159.914 663.416 158.471 663.279 157.077C663.228 156.557 664.081 156.416 664.436 156.798C664.702 157.084 664.782 157.476 664.861 157.866C664.887 157.999 664.914 158.131 664.948 158.258C665.082 158.763 665.494 159.307 666.006 159.203C666.525 158.71 666.809 157.979 666.76 157.265C666.945 156.527 668.095 157.185 668.273 157.924C668.451 158.663 668.785 159.714 669.519 159.517C670.599 159.25 670.938 157.747 670.412 156.767C669.886 155.788 668.828 155.234 667.819 154.767C665.519 153.701 663.152 152.782 660.735 152.016ZM651.065 160.738C652.726 162.41 655.143 163.299 657.491 163.103C656.052 161.29 653.603 160.343 651.318 160.694L651.065 160.738ZM532.127 327.24C524.133 329.501 515.104 327.717 508.569 322.588C502.654 325.688 496.539 328.695 489.931 329.665C483.323 330.635 476.049 329.273 471.272 324.606C472.061 326.316 472.866 328.09 472.891 329.974C472.916 331.857 471.942 333.891 470.158 334.495C467.213 335.493 464.641 332.346 463.113 329.639C462.276 331.723 463.139 334.068 463.978 336.349C464.936 338.95 465.862 341.467 464.198 343.415C462.465 345.443 459.177 344.924 456.792 343.727C447.858 339.246 443.66 327.966 445.596 318.16C447.531 308.353 454.582 300.141 462.978 294.718C457.278 290.54 453.108 284.319 451.409 277.459C452.57 278.957 453.431 280.697 454.292 282.438L454.292 282.438C455.154 284.179 456.015 285.92 457.176 287.418C458.278 288.84 459.68 290.019 461.081 291.199L461.082 291.199C462.483 292.378 463.885 293.558 464.987 294.979C465.269 295.342 465.511 295.952 465.112 296.179C457.063 300.751 450.178 308.036 447.893 317.006C445.609 325.977 448.787 336.566 456.67 341.42C458.059 342.275 459.716 342.962 461.293 342.545C462.871 342.128 464.054 340.148 463.148 338.791C460.592 334.963 460.281 329.745 462.365 325.64L468.97 333.047C470.489 332.656 470.864 330.613 470.46 329.098C470.332 328.618 470.157 328.144 469.982 327.671L469.981 327.67C469.604 326.651 469.228 325.635 469.329 324.569C469.478 323.008 471.515 321.611 472.591 322.752C476.887 327.305 483.788 328.596 489.966 327.594C496.145 326.592 501.805 323.626 507.339 320.703L513.872 317.254C513.4 319.138 511.873 320.72 510.007 321.257C516.312 325.787 524.744 327.211 532.188 325.002C533.47 324.621 534.787 324.095 535.618 323.047C536.449 321.999 536.584 320.295 535.58 319.412C535.457 319.305 535.32 319.21 535.183 319.116C534.915 318.93 534.647 318.745 534.494 318.463C534.262 318.038 534.621 317.322 535.065 317.517C537.58 317.342 539.131 320.721 538.106 323.024C537.082 325.328 534.553 326.554 532.127 327.24ZM487.497 293.806C486.061 293.344 484.449 294.335 483.825 295.708C483.201 297.081 483.378 298.695 483.85 300.128C484 298.512 484.206 297.294 484.818 296.231C485.082 295.773 485.898 295.341 486.616 294.961C487.544 294.47 488.307 294.066 487.497 293.806ZM486.279 289.745C488.375 289.223 490.741 290.029 492.081 291.722C493.421 293.415 493.663 295.903 492.675 297.823C492.438 297.536 492.381 297.016 492.311 296.364C492.103 294.438 491.771 291.36 486.279 289.745ZM484.462 304.626C483.799 305.454 486.108 307.641 489.72 306.133C490.388 305.853 489.842 305.821 488.982 305.771C488.197 305.725 487.151 305.664 486.527 305.385C485.999 305.15 485.729 304.773 485.526 304.49C485.226 304.072 485.075 303.862 484.462 304.626ZM491.779 307.394C494.093 306.242 492.641 309.622 487.801 309.207C487.364 309.17 486.793 309.002 486.798 308.562C486.799 308.407 487.209 308.371 487.845 308.316C488.834 308.23 490.371 308.096 491.779 307.394ZM477.501 300.979C478.372 301.829 479.64 301.852 480.486 301.688C481.001 301.589 481.254 301.128 480.782 300.979C480.671 300.944 480.488 300.915 480.268 300.88C479.766 300.801 479.071 300.692 478.604 300.41C478.305 300.23 478.135 299.614 477.988 299.086C477.838 298.543 477.713 298.093 477.501 298.304C477.083 298.721 476.63 300.128 477.501 300.979ZM478.274 303.856C478.695 304.498 477.09 304.277 476.745 303.856C476.4 303.435 476.059 301.852 476.638 301.852C476.805 301.852 476.863 302.101 476.931 302.4C476.995 302.676 477.068 302.994 477.246 303.196C477.593 303.589 477.825 303.648 477.995 303.69C478.111 303.719 478.198 303.741 478.274 303.856ZM550.493 300.671C551.359 302.4 549.844 304.339 548.384 305.607C542.448 310.761 535.353 314.573 527.779 316.679C535.942 316.735 544.068 313.241 549.644 307.279C552.238 304.505 553.898 299.297 550.549 297.504C554.523 296.187 559.227 293.438 558.62 289.297C558.403 287.817 557.499 286.543 556.621 285.333L556.1 284.617C550.677 277.206 544.045 269.37 534.952 268.817C540.185 265.882 546.419 270.051 551.032 273.889L552.385 275.009C558.493 280.03 564.884 284.808 572.128 287.947C579.909 291.319 588.857 292.666 596.928 290.066L619.517 282.786C623.875 281.344 629.01 278.634 628.614 274.105C628.396 271.61 626.12 269.465 623.616 269.395C621.113 269.326 618.721 271.341 618.364 273.82L617.873 269.967C616.662 268.931 614.73 269.818 613.756 271.079C613.387 271.556 613.08 272.083 612.773 272.609C612.27 273.473 611.768 274.333 611.001 274.96C608.335 277.141 604.793 275.348 601.612 273.465L599.628 272.279C593.975 268.958 587.274 268.449 580.658 267.947C579.23 267.838 577.805 267.73 576.395 267.594C567.172 266.703 558.082 264.456 549.506 260.948C557.37 267.397 567.646 268.48 578.012 269.572C583.236 270.122 588.482 270.675 593.455 271.918C597.398 272.904 601.757 274.914 602.725 278.862C604.13 284.596 597.32 289.037 591.441 289.573C581.828 290.45 572.459 286.361 564.297 281.143L563.378 280.548C560.424 278.609 557.561 276.523 554.7 274.438L554.699 274.437L554.698 274.437C549.447 270.61 544.201 266.787 538.405 263.882C544.392 264.183 548.764 259.848 553.229 255.421C555.638 253.033 558.074 250.617 560.805 248.888C568.832 243.805 579.082 244.962 588.528 246.595L590.013 246.856C587.791 236.094 582.363 226.015 574.602 218.236L587.939 244.456C573.897 239.778 557.057 245.624 548.934 257.996C555.204 236.838 570.119 218.382 589.491 207.812C595.732 210.147 601.004 214.314 606.268 218.473L606.268 218.474L606.269 218.474C607.968 219.817 609.665 221.159 611.395 222.438C618.482 227.68 627.1 232.123 635.776 230.563C642.015 229.44 647.264 225.383 651.927 221.044L652.678 220.338C658.23 215.074 663.392 209.397 668.105 203.369C673.264 196.774 679.603 188.943 687.918 189.926C689.386 190.099 690.814 190.557 692.236 191.014C694.202 191.644 696.158 192.272 698.197 192.141C701.711 191.915 704.942 187.196 702.183 185.007L688.024 173.767C686.64 172.669 685.043 171.507 683.291 171.734C682.046 171.896 681.01 172.736 680.048 173.543L676.868 176.213C669.455 182.457 662.131 188.831 655.699 196.071C655.282 196.541 654.863 197.017 654.441 197.496C649.227 203.421 643.569 209.851 635.823 210.314C628.268 210.766 621.918 205.311 616.114 200.326C615.822 200.076 615.532 199.826 615.243 199.579L614.162 198.662C608.008 193.498 601.427 188.841 594.509 184.756C588.395 181.145 581.614 177.892 574.53 178.385C566.242 178.962 559.251 184.504 553.263 190.327L552.357 191.216C549.42 194.102 545.908 197.22 541.867 196.604L541.545 196.561C537.476 196.097 533.659 198.623 530.591 201.45L530.113 201.898C522.093 209.55 516.186 219.393 513.206 230.069C495.71 225.385 476.527 227.317 460.317 235.396C456.232 237.432 452.25 239.914 449.406 243.484C445.346 248.581 444.156 255.045 442.955 261.565L442.955 261.566C442.078 266.323 441.196 271.111 439.19 275.421C438.597 276.697 437.9 277.943 437.205 279.187C435.575 282.102 433.949 285.012 433.649 288.296C433.222 292.982 437.597 298.419 441.935 296.598C446.281 295.914 448.581 289.787 445.759 286.412C447.517 287.672 449.969 287.888 451.921 286.956L447.387 278.585C455.035 274.513 461.823 268.833 467.181 262.022C469.372 259.237 473.444 258.533 476.883 259.388C479.831 260.121 482.43 261.784 484.92 263.553L486.158 264.442C484.715 265.491 485.546 268.279 487.327 268.367C486.178 263.688 490.857 258.774 495.654 259.23C500.45 259.685 504.083 264.787 503.455 269.564C500.923 275.839 494.656 279.419 488.458 282.96C481.733 286.802 475.09 290.598 473.385 297.739C471.668 304.934 477.216 312.991 484.55 313.953C491.883 314.915 499.322 308.561 499.518 301.167C499.518 301.167 500.603 301.279 500.987 300.128C501.593 298.314 502.166 296.306 502.734 294.315C503.802 290.572 504.852 286.892 506.065 284.694C509.465 278.53 515.793 273.65 522.83 273.48C525.065 273.426 527.286 273.095 529.504 272.763C532.338 272.34 535.168 271.918 538.019 272.075C543.104 272.355 548.677 275.332 549.41 280.371C543.772 279.276 537.889 279.461 532.331 280.907L552.009 283.248C556.33 283.762 557.138 290.452 554.059 293.527C551.155 296.425 546.731 296.902 542.59 297.086L541.84 297.117C542.564 298.593 544.363 298.746 546.164 298.899C547.961 299.052 549.759 299.204 550.493 300.671ZM655.167 214.683C649.066 221.456 641.935 228.735 632.826 229.075C624.86 229.372 617.893 224.239 611.448 219.491L610.972 219.14L609.434 218.016C602.233 212.793 594.776 207.925 587.097 203.435C581.151 199.958 574.312 196.599 567.644 198.324L578.201 201.647C576.421 202.601 575.786 205.2 576.926 206.868C577.171 204.371 580.059 202.783 582.537 203.173C585.016 203.564 587.032 205.383 588.567 207.368C575.257 212.471 563.934 222.575 557.353 235.219C556.129 237.571 555.064 240.003 553.999 242.435C552.557 245.73 551.115 249.024 549.279 252.112C546.087 257.48 541.362 262.362 535.282 263.784C534.43 263.983 533.557 264.114 532.685 264.245C530.938 264.506 529.195 264.767 527.64 265.577C527.504 265.648 527.364 265.722 527.222 265.798L527.1 265.864C525.274 266.838 523.023 268.04 521.898 266.455C520.055 263.859 517.117 262.067 513.965 261.618C519.176 244.108 532.585 229.228 549.46 222.227C550.415 221.831 550.05 220.402 549.528 219.509L541.852 206.375C541.143 205.162 541.973 203.512 543.222 202.869C544.471 202.225 545.96 202.322 547.355 202.495C556.233 203.601 564.782 207.244 571.729 212.883C572.84 213.785 574.661 214.671 575.473 213.493C567.548 205.501 556.213 201.795 545.057 200.302C554.7 199.359 564.672 202.396 572.153 208.553L572.517 208.851C574.304 210.302 576.467 211.844 578.528 210.955C570.174 202.941 558.749 198.212 547.175 197.975C549.557 196.204 551.781 194.235 554.005 192.266L554.006 192.265L554.007 192.264C556.266 190.265 558.525 188.265 560.949 186.472C565.761 182.914 571.512 180.137 577.486 180.485C581.823 180.739 585.89 182.61 589.727 184.648C597.837 188.954 605.474 194.152 612.456 200.118C612.938 200.53 613.423 200.948 613.911 201.369L613.948 201.401C620.583 207.119 627.822 213.357 636.398 212.551C641.628 212.06 646.261 208.9 649.942 205.153C651.978 203.08 653.794 200.809 655.61 198.538L655.611 198.536C657.077 196.703 658.544 194.869 660.127 193.138C662.412 190.641 665.057 188.292 668.305 187.339C671.552 186.385 675.51 187.175 677.439 189.956L655.167 214.683ZM444.997 261.071C446.173 254.635 447.336 248.27 451.686 243.585C453.816 241.29 456.54 239.638 459.315 238.187C473.506 230.764 490.056 227.939 505.906 230.233C509.785 230.794 514.591 232.97 514.528 236.653C514.505 236.878 514.484 237.104 514.464 237.329C514.503 237.098 514.524 236.873 514.528 236.653C516.109 221.255 525.078 206.768 538.181 198.518C539.343 206.621 542.893 214.367 548.273 220.538C534.015 226.543 522.177 238.09 515.817 252.194L515.716 252.416C513.91 256.37 511.045 261.225 506.862 260.241L508.933 247.445C509.123 246.271 509.299 245.001 508.743 243.95C508.122 242.778 506.793 242.237 505.499 241.847L505.044 241.715C497.547 239.593 489.136 237.555 482.29 241.274C478.667 243.241 476.067 246.539 473.636 249.924L471.831 252.46C467.546 258.442 462.749 264.058 457.509 269.224C455.398 271.305 453.117 273.373 450.291 274.269C447.466 275.165 443.955 274.562 442.279 272.118C443.616 268.625 444.309 264.836 444.997 261.071ZM491.202 310.932C486.751 312.583 483.129 311.769 479.654 309.746C478.167 308.88 476.767 307.766 475.93 306.263C474.674 304.009 474.862 301.211 475.587 298.734C476.669 295.032 478.884 291.67 481.859 289.214C483.915 287.516 486.284 286.269 488.651 285.023L488.652 285.023C489.469 284.593 490.285 284.163 491.089 283.715C498.941 279.335 505.714 273.037 510.652 265.524C511.638 264.024 513.716 263.538 515.455 263.981C517.194 264.424 518.644 265.615 519.898 266.899C520.795 267.817 521.461 269.644 520.263 270.108C511.879 273.354 505.128 280.557 502.43 289.132C502.357 289.367 502.285 289.603 502.214 289.84C501.804 291.196 501.389 292.569 500.51 293.667C499.476 294.956 497.402 299.495 498.46 301.647C498.46 301.647 495.654 309.281 491.202 310.932ZM502.834 242.997C504.192 243.301 505.671 243.739 506.417 244.915C507.027 245.878 506.988 247.102 506.892 248.237C506.514 252.73 505.569 257.174 504.088 261.432C503.838 262.152 503.065 263.017 502.501 262.504C501.862 259.281 498.917 256.66 495.641 256.4C492.365 256.14 489.043 258.263 487.904 261.345C487.679 261.954 486.889 262.18 486.262 262.012C485.792 261.886 485.391 261.602 485.007 261.295L484.627 260.986C480.725 257.816 475.443 256.409 470.48 257.216C473.124 252.767 476.478 248.741 480.376 245.336C481.971 243.943 483.702 242.629 485.717 241.976C487.613 241.361 489.65 241.367 491.641 241.468C495.406 241.66 499.155 242.172 502.834 242.997ZM680.781 186.373C678.884 184.351 676.284 182.998 673.537 182.613L676.654 178.655C677.642 177.414 678.797 176.141 680.355 175.945C681.48 175.804 682.585 176.265 683.608 176.753C687.031 178.384 690.258 180.427 693.196 182.824C694.177 183.624 695.163 184.517 695.589 185.708C696.016 186.9 695.672 188.46 694.53 189.005C693.388 189.55 691.743 188.356 692.211 187.18L692.256 187.048C692.448 186.38 692.146 185.59 691.541 185.239L690.438 187.354C690.337 187.539 690.218 187.718 690.036 187.818C689.3 188.225 688.701 187.081 688.654 186.241L688.645 186.124C688.566 185.297 688.132 184.242 687.372 184.5C687.269 185.917 686.256 187.226 684.909 187.68C683.563 188.134 681.964 187.706 681.024 186.641L680.781 186.373ZM443.16 290.795L441.828 285.742C441.195 285.565 440.577 286.199 440.487 286.851C440.428 287.285 440.524 287.714 440.654 288.138L440.859 288.769C441.543 290.914 441.526 293.276 440.811 295.411C439.491 292.708 438.802 289.7 438.815 286.692C437.954 286.219 437.367 287.661 437.429 288.641L437.801 294.49C435.996 292.864 435.36 290.224 435.668 287.813C435.977 285.403 437.109 283.177 438.381 281.107C439.045 280.026 439.781 278.943 440.838 278.241C441.894 277.539 443.349 277.299 444.429 277.965C445.325 278.519 445.741 279.503 446.163 280.5C446.482 281.254 446.804 282.016 447.34 282.606C447.53 282.815 447.752 283.028 447.977 283.246C448.85 284.087 449.781 284.986 449.171 285.892C447.293 284.739 445.575 283.325 444.082 281.704C443.542 285.052 444.037 288.561 445.483 291.629C445.778 292.257 444.801 292.855 444.186 292.534C443.571 292.212 443.337 291.466 443.16 290.795ZM623.544 274.264C624.506 273.413 625.386 272.634 625.811 272.846C627.051 273.465 623.683 276.182 621.9 276.95C622.029 277.811 623.279 277.425 624.008 276.95C624.738 276.475 626.781 275.963 626.381 276.48C623.889 279.704 619.077 282.266 614.628 282.767C612.825 282.97 610.595 282.489 610.021 280.767C609.497 279.197 610.664 277.647 611.898 276.48L612.194 276.208C612.713 275.744 613.546 275.291 614.024 275.797C615.295 277.142 617.517 276.042 618.982 274.91C618.982 274.91 622.787 271.238 623.425 271.474C624.059 271.707 621.526 275.847 621.526 275.847C622.154 275.494 622.869 274.861 623.544 274.264L623.544 274.264ZM605.328 277.672C605.784 277.568 606.258 277.752 606.651 278.004C608.081 278.922 608.764 280.858 608.227 282.47C607.69 284.082 605.982 285.221 604.287 285.098C604.047 285.081 603.795 285.035 603.607 284.884C603.211 284.567 603.262 283.962 603.349 283.462L603.988 279.811C604.142 278.929 604.455 277.87 605.328 277.672ZM524.721 269.38C527.173 268.966 529.711 269.067 532.122 269.675C531.983 270.67 530.822 271.122 529.838 271.325C526.804 271.952 523.669 272.087 520.592 271.724C521.363 270.275 523.103 269.653 524.721 269.38ZM678.423 188.405L671.988 184.605C675.158 184.132 678.539 185.797 680.096 188.599C679.65 189.006 678.943 188.712 678.423 188.405ZM537.432 264.609C534.704 265.331 532.007 266.171 529.352 267.125C532.11 268.65 536.027 267.431 537.432 264.609ZM510.769 261.16C511.52 261.315 511.179 262.496 510.58 262.975C508.757 264.431 505.987 264.556 504.039 263.271L510.769 261.16ZM681.99 173.023C682.432 172.919 682.887 173.097 683.301 173.284C685.988 174.498 688.449 176.209 690.522 178.306L681.276 173.585C681.418 173.306 681.686 173.096 681.99 173.023ZM541.122 198.53L541.214 198.593C542.048 198.473 542.909 198.544 543.713 198.798C543.011 200.124 542.035 201.304 540.864 202.241C540.278 201.079 540.381 199.599 541.122 198.53ZM699.343 185.557L699.363 185.615C700.384 186.03 701.08 187.138 701.009 188.239C698.904 187.147 697.201 185.301 696.283 183.116C697.54 183.551 698.639 184.428 699.343 185.557ZM507.9 266.259L507.747 266.468C507.214 267.192 506.579 267.979 505.686 268.083C504.793 268.186 503.877 267.031 504.507 266.389C505.565 265.915 506.808 265.867 507.9 266.259ZM444.62 275.231C445.417 275.417 446.318 275.998 446.192 276.807C444.366 276.569 442.564 276.147 440.823 275.549C442.014 275.051 443.363 274.938 444.62 275.231ZM614.199 275.076C613.785 275.256 613.409 274.499 613.803 274.278C613.803 274.278 616.526 269.503 616.644 272.846C616.702 273.679 614.942 274.696 614.199 275.076ZM499.152 299.593C499.354 298.143 499.735 295.411 500.51 295.411C501.606 295.295 501.184 297.163 500.887 298.48C500.805 298.843 500.733 299.164 500.704 299.39C500.604 300.181 499.866 300.802 499.019 300.421C499.053 300.305 499.095 300 499.152 299.594L499.152 299.593ZM243.943 349.699C249.528 350.182 255.135 350.412 260.742 350.39C260.343 355.661 264.63 360.852 269.881 361.458C275.132 362.064 280.488 357.985 281.3 352.761C281.626 350.663 284.465 350.298 286.582 350.463L300.055 351.512C302.364 351.691 305.632 350.964 305.383 348.661L303.857 334.552C303.719 333.28 304.163 331.425 305.418 331.676C310.766 332.75 316.608 328.65 317.34 323.246C318.073 317.841 313.452 312.302 308.001 312.131C305.381 312.049 304.135 308.623 304.815 306.092C305.18 304.731 305.875 303.499 306.57 302.265C307.168 301.204 307.767 300.142 308.158 298.995C309.004 296.515 308.294 293.058 305.742 292.46C286.365 287.916 266.023 287.531 246.487 291.336L246.129 291.407C245.055 291.623 243.977 291.89 243.049 292.465C239.997 294.354 239.763 298.519 239.911 302.193L240.011 304.235C240.547 316.083 239.614 327.996 237.24 339.616L237.187 339.879C236.656 342.528 236.224 345.554 237.993 347.562C239.303 349.049 241.401 349.45 243.401 349.649L243.943 349.699ZM278.312 352.541C278.469 353.303 278.273 354.098 277.966 354.814L277.868 355.032C276.066 358.838 270.699 360.471 267.102 358.244C263.438 355.976 262.539 350.276 265.328 346.99C258.241 347.839 251.06 347.894 243.961 347.156C241.764 346.927 238.892 345.741 239.341 343.579C242.431 328.706 243.396 313.395 242.198 298.252C241.981 295.508 245.359 294.084 248.067 293.587C265.536 290.38 283.612 290.512 301.033 293.976C303.262 294.419 306.13 296.112 305.142 298.159C302.817 302.977 301.888 308.458 302.495 313.773C302.65 315.128 303.711 316.902 304.894 316.223C308.081 314.393 312.692 315.86 314.235 319.195C315.778 322.529 313.911 326.994 310.453 328.238C306.996 329.482 302.713 327.229 301.778 323.676C300.942 330.995 301.24 338.441 302.657 345.67C303.149 348.175 299.5 349.121 296.954 348.931L276.629 347.417C276.006 348.398 276.645 349.412 277.316 350.479C277.735 351.144 278.166 351.83 278.312 352.541ZM383.485 306.608L423.296 307.408L423.946 307.424C425.142 307.461 426.346 307.566 427.423 308.069C429.857 309.204 430.972 312.004 431.712 314.586C435.662 328.366 435.175 343.382 430.339 356.877L430.136 357.43C429.506 359.09 428.683 360.745 427.197 361.679C425.973 362.448 424.482 362.609 423.031 362.686L422.721 362.702C416.801 362.983 410.861 362.831 404.963 362.249C408.035 360.359 408.81 355.755 406.86 352.721C404.91 349.687 400.789 348.42 397.319 349.405C395.204 350.006 393.234 351.451 392.469 353.512C391.703 355.574 392.443 358.221 394.398 359.227C395.75 359.923 395.517 362.115 394.333 363.07C393.15 364.024 391.505 364.092 389.984 364.117L370.01 364.441C368.509 364.465 366.93 364.471 365.612 363.752C363.743 362.732 362.884 360.535 362.357 358.472C361.086 353.494 360.915 348.239 361.858 343.188C362.993 347.177 367.908 349.599 371.763 348.07C375.618 346.54 377.535 341.407 375.627 337.725C373.719 334.043 368.42 332.649 364.947 334.917L364.803 333.63C364.305 329.119 363.918 324.55 364.784 320.107C365.733 315.241 368.439 310.462 372.876 308.251C376.112 306.639 379.849 306.55 383.485 306.608ZM426.943 310.772C425.946 310.172 424.744 310.069 423.575 310.02L423.283 310.008C410.9 309.546 398.507 309.312 386.115 309.306L381.984 309.313C379.371 309.322 376.672 309.359 374.281 310.412C370.712 311.984 368.399 315.629 367.456 319.413C366.513 323.196 366.739 327.161 366.971 331.054C373.246 329.325 379.996 335.702 379.252 342.168C378.507 348.634 371.339 353.304 364.95 352.057C364.66 354.1 364.375 356.22 364.975 358.195C365.575 360.169 367.327 361.954 369.39 361.888L387.908 361.292C389.055 361.255 390.639 360.662 390.306 359.564C388.414 353.331 393.873 346.055 400.387 346.128C406.901 346.202 412.194 353.599 410.162 359.788C414.232 360.705 418.464 360.897 422.601 360.355C423.944 360.178 425.347 359.894 426.376 359.012C427.387 358.146 427.884 356.835 428.306 355.572C432.604 342.694 433.074 328.566 429.643 315.431C429.2 313.732 428.584 311.905 427.162 310.914L426.943 310.772ZM251.237 433.406C249.265 420.576 249.268 407.446 251.245 394.617L251.344 393.996C251.835 391.085 252.696 388.012 255.129 386.408C256.95 385.207 259.25 385.117 261.444 385.116L278.239 385.162C279.003 385.165 279.841 385.193 280.416 385.697C280.991 386.201 280.975 387.358 280.238 387.562C278.479 388.05 277.468 390.078 277.682 391.891C277.895 393.704 279.074 395.274 280.458 396.464C283.76 399.302 288.891 400.31 292.545 397.944C296.199 395.578 297.059 389.482 293.596 386.844C301.441 386.684 309.29 386.709 317.134 386.917L320.075 387.004C321.026 387.035 322.077 387.111 322.741 387.792C323.24 388.303 323.404 389.046 323.517 389.751C324.385 395.181 323.435 400.887 320.854 405.743C320.443 406.516 319.491 407.368 318.842 406.78C316.086 404.278 311.451 404.618 308.631 407.048C305.811 409.478 304.721 413.513 305.219 417.202C305.699 420.752 308.287 424.544 311.865 424.365C312.873 424.315 313.922 423.967 314.95 423.626L314.951 423.626C316.797 423.013 318.579 422.422 319.947 423.611L316.359 439.642C315.721 442.489 314.577 445.868 311.723 446.478C295.249 450.002 277.976 449.736 261.618 445.705L260.824 445.505C258.839 444.985 256.862 444.313 255.313 442.987C252.617 440.679 251.775 436.913 251.237 433.406ZM316.766 426.477C312.106 428.669 306.034 426.788 303.117 422.543C300.201 418.299 300.486 412.233 303.479 408.041C306.472 403.85 311.851 401.622 316.983 402.06L317.411 402.098C318.13 402.159 318.868 402.185 319.479 401.826C320.251 401.371 320.581 400.436 320.796 399.566C321.653 396.093 321.605 392.402 320.66 388.953L298.947 389.111C299.343 395.139 294.382 401.02 288.374 401.646C282.366 402.272 276.299 397.539 275.444 391.56L275.324 390.671C275.196 389.774 274.994 388.888 274.325 388.319C273.854 387.919 273.236 387.761 272.626 387.64L272.397 387.596C266.08 386.402 258.072 385.906 254.756 391.415C253.627 393.29 253.324 395.535 253.094 397.712C251.775 410.211 252.089 422.881 254.025 435.3L254.119 435.881C254.434 437.729 254.927 439.627 256.302 440.867C257.248 441.719 258.49 442.142 259.721 442.489L260.028 442.575C275.782 446.907 292.554 447.486 308.569 444.257L309.458 444.074C310.246 443.908 311.064 443.717 311.683 443.203C312.489 442.532 312.799 441.451 313.068 440.438L316.766 426.477ZM433.937 458.24C433.937 458.24 434.027 455.742 434.343 454.921C434.912 453.439 436.591 451.331 436.591 451.331C436.475 451.901 436.311 452.512 436.143 453.142C435.565 455.301 434.927 457.686 435.897 459.45C436.644 460.811 447.583 467.98 451.343 469.66C467.421 476.845 483.579 483.347 499.813 489.879L499.813 489.88L499.815 489.88L499.816 489.881L499.826 489.885C506.461 492.555 513.109 495.23 519.769 497.959C508.324 496.564 497.787 491.235 487.52 485.991C485.303 498.286 492.154 510.681 501.398 519.086C508.128 525.206 516.051 529.743 523.973 534.28L523.973 534.28L523.974 534.28C526.93 535.973 529.887 537.666 532.781 539.442L533.845 540.101C544.115 546.53 553.938 554.645 558.472 565.839C559.303 567.892 561.857 569.061 563.954 568.349C566.052 567.636 567.366 565.155 566.776 563.019C568.971 564.821 567.704 568.848 565.044 569.844C562.384 570.839 559.335 569.488 557.372 567.436C555.893 565.89 554.86 564.001 553.829 562.114L553.829 562.113L553.828 562.112L553.828 562.112L553.828 562.111L553.825 562.106C553.489 561.491 553.153 560.876 552.802 560.274C546.462 549.405 535.263 542.656 524.153 536.478L518.938 533.591C506.881 526.858 494.528 518.771 489.364 506.027C470.617 509.001 451.102 506.984 433.36 500.237C429.565 498.794 425.849 497.139 422.135 495.485L422.135 495.485C416.218 492.85 410.306 490.218 404.087 488.446C400.621 487.458 395.845 487.352 394.547 490.714C394.547 490.712 394.545 490.715 394.541 490.722C394.504 490.788 394.257 491.22 393.152 491.315C392.633 491.359 392.157 490.45 392.009 489.848C391.883 489.679 391.84 489.203 391.84 488.225C391.84 487.699 392.913 485.396 394.933 483.972C396.338 482.982 397.919 482.622 398.747 482.434C399.121 482.349 399.341 482.299 399.323 482.242C399.281 482.109 397.844 481.736 396.539 482.369C395.531 482.858 394.577 483.504 393.701 484.097L393.7 484.097C392.344 485.015 391.172 485.809 390.27 485.704C389.049 485.563 388.183 484.993 388.169 483.764C388.156 482.535 388.482 481.041 389.43 480.269C391.456 478.62 394.071 477.711 396.684 477.748C397.248 477.756 397.873 477.837 398.241 478.264C398.609 478.692 398.428 479.546 397.864 479.571C394.478 479.723 390.563 480.29 389.245 483.764C388.861 484.775 391.285 484.938 392.222 484.398C392.765 484.086 393.232 483.665 393.7 483.244C394.038 482.939 394.377 482.634 394.745 482.369C395.846 481.577 397.214 481.163 398.569 481.211C399.115 481.231 399.717 481.357 400.039 481.799C400.362 482.24 400.134 483.043 399.588 483.052C396.077 483.109 392.873 486.152 392.633 489.654C392.646 489.78 392.743 490.359 393.152 490.496C393.629 490.657 394.157 490.267 394.178 490.229C396.006 486.965 399.343 484.784 402.93 485.876C404.286 486.289 405.592 486.918 406.891 487.544C409.164 488.638 411.418 489.725 413.896 489.633L412.409 481.746C406.38 476.22 397.293 474.271 389.528 476.84C388.697 477.115 387.799 477.514 387.46 478.321C387.121 479.128 387.865 480.3 388.682 479.987C387.397 481.176 385.224 479.158 385.713 477.476C386.202 475.795 388.047 474.931 389.741 474.49C399.252 472.018 408.732 476.327 417.892 480.491C419.592 481.263 421.282 482.031 422.958 482.75C441.611 490.745 462.686 492.981 482.602 489.079C481.738 491.443 478.793 492.158 476.292 492.439C458.553 494.434 440.332 491.993 423.744 485.399C421.718 487.973 422.683 491.972 424.989 494.299C427.295 496.625 430.556 497.682 433.695 498.62C451.283 503.877 469.93 507.897 487.902 504.16L484.989 487.118L484.931 486.807C484.786 486.127 484.522 485.424 483.887 485.208L483.726 485.153C460.69 477.331 443.134 471.369 420.339 449.639C420.293 449.595 420.248 449.55 420.205 449.505C420.037 456.036 417.965 457.473 409.329 455.692C390.485 451.808 371.191 449.774 352.171 452.447C353.61 445.339 355.411 438.304 357.566 431.379C351.378 433.376 344.071 427.704 344.472 421.214C344.872 414.723 352.819 409.992 358.716 412.734C360.741 408.061 360.87 402.597 359.066 397.833C358.201 395.548 361.65 394.229 364.093 394.229L377.595 394.226C379.483 394.225 382.114 393.349 381.646 391.521C380.534 387.185 383.515 382.232 387.866 381.184C392.138 380.156 396.948 383.081 398.051 387.321L398.109 387.557C399.134 392.111 404.901 393.556 409.567 393.467L411.89 393.411C415.926 393.326 420.132 393.457 422.833 396.28C426.064 399.656 425.342 405.033 424.277 409.617L424.206 409.921C423.686 412.111 422.929 413.891 422.168 415.681C420.717 419.091 419.25 422.538 419.38 428.934C419.433 431.541 419.528 433.934 419.634 436.125C420.009 434.586 420.339 433.569 420.339 433.569C420.339 433.569 464.348 466.337 491.528 470.785C494.784 467.907 492.904 462.3 489.624 459.45C488.241 458.249 486.667 457.278 485.097 456.31C482.942 454.981 480.795 453.656 479.159 451.747C475.91 447.953 475.33 442.727 474.754 437.545C474.128 431.91 473.508 426.328 469.47 422.697C469.11 422.373 468.726 422.071 468.343 421.768L468.342 421.767C467.477 421.085 466.613 420.404 466.025 419.483C464.568 417.207 465.284 414.038 467.048 411.99C468.811 409.942 471.39 408.798 473.942 407.908C479.239 406.058 485.047 405.026 490.456 406.516C495.865 408.005 500.71 412.51 501.242 418.095C502.268 415.873 504.521 414.268 506.956 414.024L503.421 417.78L507.894 417.87L501.739 421.307C505.555 428.364 504.937 437.068 502.491 444.709C502.192 445.643 501.867 446.577 501.54 447.513L501.54 447.514L501.538 447.518C500.231 451.268 498.913 455.049 499.251 458.962C499.666 463.774 503.94 468.69 508.61 467.705L508.844 467.651C514.458 466.233 520.605 467.054 525.65 469.896C531.533 473.21 535.538 478.83 539.502 484.392C540.421 485.683 541.339 486.97 542.277 488.225C546.675 494.107 551.88 499.577 558.386 502.985C564.892 506.392 572.87 507.517 579.647 504.688C580.894 504.168 582.092 503.521 583.287 502.876C585.318 501.779 587.343 500.686 589.589 500.221C593.158 499.481 597.701 501.227 598.124 504.847C596.278 501.763 591.906 501.216 588.465 502.256C586.523 502.843 584.732 503.802 582.939 504.762L582.938 504.763C581.554 505.504 580.168 506.246 578.711 506.818C571.413 509.684 562.912 507.947 556.193 503.906C549.684 499.991 544.585 494.145 539.985 488.089L539.541 487.502C539.075 486.882 538.61 486.258 538.146 485.634L538.145 485.632L538.144 485.631L538.143 485.63L538.142 485.628L538.141 485.627L538.14 485.626L538.139 485.624L538.138 485.623C534.903 481.276 531.645 476.898 527.376 473.591C522.587 469.883 516.156 467.691 510.391 469.471L510.039 469.585C504.524 471.453 498.683 466.177 497.691 460.439C496.698 454.702 499.037 448.969 501.326 443.615C503.687 438.092 499.351 431.649 493.885 429.16C488.813 426.85 482.722 426.902 477.69 429.298C476.06 430.075 475.765 432.214 475.82 434.043L475.827 434.245C476.11 440.701 477.834 447.487 482.547 451.909C483.949 453.223 485.568 454.285 487.184 455.345C489.206 456.671 491.224 457.994 492.804 459.806C495.648 463.066 496.085 469.172 492.135 470.936C498.913 472.159 505.619 473.78 512.208 475.786C476.758 472.159 444.163 455.439 420.762 435.242C420.283 436.177 419.946 437.166 419.74 438.181C419.795 439.193 419.85 440.157 419.903 441.075C419.978 442.371 420.047 443.574 420.101 444.688C421.228 448.396 423.861 451.664 427.477 453.1C427.19 450.496 428.068 447.786 429.827 445.844C428.686 448.395 426.875 453.287 433.937 458.24ZM488.39 408.335C485.235 407.747 482.029 407.434 478.82 407.401C478.602 407.805 478.52 408.281 478.589 408.734C482.167 409.032 485.69 409.974 488.938 411.503C487.581 412.861 485.337 412.048 483.515 411.387L483.408 411.348C480.295 410.221 476.877 409.949 473.624 410.568C471.965 410.884 470.305 411.452 469.028 412.556C467.75 413.66 466.914 415.379 467.199 417.043C467.563 419.169 469.563 420.622 471.559 421.44C476.507 423.467 482.438 422.895 486.908 419.961C487.27 419.724 487.781 420.121 487.802 420.553C487.823 420.986 487.531 421.369 487.224 421.675C485.443 423.448 482.792 424.013 480.282 424.159C479.55 424.201 478.813 424.216 478.076 424.23H478.076H478.075C476.289 424.265 474.504 424.3 472.779 424.737C473.012 426.16 474.789 426.65 476.227 426.754C481.723 427.153 487.298 426.413 492.5 424.595C493.802 424.14 495 425.445 495.768 426.591L501.371 434.953C503.212 433.22 503.101 430.226 502.234 427.852C501.894 426.924 501.463 426.029 501.031 425.136C500.359 423.743 499.688 422.353 499.373 420.846C499.199 420.015 499.136 419.163 499.074 418.312V418.312C498.986 417.117 498.899 415.925 498.503 414.801C497.109 410.841 492.517 409.103 488.39 408.335ZM420.703 484.662L415.617 481.74C415.053 481.416 414.013 481.362 414.07 482.01C413.896 484.635 414.111 487.851 415.798 490.039C416.862 491.418 417.63 492.124 421.386 493.057L421.109 485.704C421.095 485.314 421.042 484.857 420.703 484.662ZM498.15 444.665C498.769 444.307 499.163 443.668 499.531 443.055C500.189 441.959 500.868 440.798 500.897 439.52C500.926 438.242 500.043 436.847 498.765 436.797C498.129 436.772 497.525 437.074 497.006 437.442C495.854 438.257 494.964 439.439 494.5 440.772C495.088 441.619 496.418 440.862 497.01 440.017C497.602 439.172 498.479 438.104 499.421 438.526C498.799 440.682 497.7 442.698 496.225 444.388C496.619 444.985 497.532 445.024 498.15 444.665ZM508.325 506.768C506.911 504.522 505.383 502.097 502.863 501.366C508.454 511.889 517.12 520.755 527.512 526.586C531.141 528.622 534.968 530.294 538.791 531.964C544.123 534.294 549.448 536.62 554.218 539.926C560.193 544.068 565.135 549.689 568.479 556.145C567.164 546.939 559.467 539.892 551.249 535.54C547.529 533.569 543.621 531.981 539.714 530.394L539.714 530.393C534.991 528.474 530.271 526.556 525.89 523.966C518.907 519.836 512.923 514.031 508.583 507.177C508.497 507.042 508.411 506.905 508.325 506.768ZM525.888 509.881L526.043 510.228C526.732 511.82 527.208 513.821 525.916 514.899C524.887 515.758 523.326 515.43 522.112 514.86C519.487 513.628 517.317 511.451 516.092 508.822C517.625 508.518 519.061 507.747 520.162 506.638C521.076 505.717 522.693 505.904 523.723 506.693C524.754 507.482 525.339 508.705 525.888 509.881ZM525.054 513.649C526.376 511.274 523.678 507.772 522.361 507.544C521.788 507.445 521.196 508.013 520.56 508.623C519.908 509.249 519.209 509.919 518.437 509.958C518.437 509.958 523.731 516.023 525.054 513.649ZM591.761 520.477C623.878 519.421 655.232 503.775 675.387 478.747C676.43 477.452 678.496 477.43 679.946 478.244C681.396 479.058 682.376 480.488 683.303 481.869C684.314 481.721 684.344 480.153 683.648 479.406C683.304 479.037 682.873 478.769 682.442 478.502C681.999 478.227 681.556 477.952 681.209 477.568C679.805 476.014 680.555 473.57 681.377 471.645L685.041 463.064C685.532 461.915 686.3 460.574 687.55 460.591C688.464 460.604 689.168 461.368 689.748 462.075C696.071 469.779 701.937 477.857 707.304 486.255C703.996 486.768 700.814 485.138 697.676 483.529C694.171 481.734 690.72 479.965 687.205 481.239C684.142 482.35 682.337 485.434 680.716 488.259C675.411 497.502 669.334 506.404 661.636 513.774C643.759 530.889 618.814 538.296 594.512 542.98C609.544 548.67 626.103 550.266 641.945 547.552C651.011 545.999 660.051 542.94 667.117 537.051C669.978 534.666 672.46 531.867 674.93 529.079L693.128 508.536C694.194 507.333 696.16 508.488 697.153 509.751C698.146 511.015 699.492 512.59 701.006 512.051C699.923 509.624 698.042 507.562 695.725 506.26C695.587 503.363 695.501 500.259 697.041 497.801C698.582 495.343 702.423 494.146 704.421 496.248C710.974 503.142 717.254 510.296 723.239 517.688C719.727 518.24 716.39 516.728 713.077 515.228L713.077 515.228L713.076 515.228L713.076 515.228L713.075 515.227L713.075 515.227C712.052 514.764 711.031 514.301 710.008 513.901C705.674 512.206 699.598 512.242 697.621 516.456C692.214 527.98 686.597 539.8 677.317 548.514C661.819 563.066 639.174 566.351 618.049 568.747C608.681 569.809 599.057 570.817 589.936 568.431C583.296 566.695 577.255 563.241 571.303 559.824L566.58 557.112C565.19 557.46 566.307 559.567 567.541 560.295C575.448 564.958 583.599 569.71 592.666 571.139C594.977 571.503 597.316 571.645 599.653 571.732C621.172 572.541 642.852 568.766 662.831 560.732C671.162 557.381 679.641 552.902 684.217 545.175L700.34 517.946C700.958 516.903 701.638 515.802 702.733 515.284C704.068 514.653 705.638 515.055 707.056 515.467L722.169 519.857C723.714 520.305 725.149 518.494 724.988 516.894C724.827 515.294 723.671 513.997 722.573 512.821L708.636 497.904C706.797 495.935 704.82 493.882 702.224 493.165C699.627 492.449 696.289 493.71 695.781 496.355C694.282 504.164 688.949 510.599 683.8 516.658C675.832 526.037 667.537 535.675 656.477 541.072C640.617 548.811 621.876 546.563 604.51 543.419L615.77 540.139C621.344 538.516 626.926 536.889 632.329 534.766C653.288 526.53 671.141 510.639 681.751 490.775C683.592 487.328 685.758 483.343 689.605 482.651C692.767 482.082 695.462 483.949 698.218 485.857C699.856 486.992 701.515 488.141 703.307 488.802C705.948 489.777 710.048 488.389 709.427 485.643C709.286 485.022 708.91 484.485 708.542 483.966L694.204 463.753C692.215 460.949 689.234 457.78 685.961 458.833C683.332 459.679 682.345 462.715 681.475 465.392L681.396 465.635L681.36 465.746L681.319 465.87C677.238 478.305 666.265 486.992 655.85 494.918C651.293 498.386 646.724 501.862 641.807 504.796C627.442 513.366 610.596 516.995 593.904 518.079C589.188 518.385 586.224 522.809 583.511 526.858C583.189 527.34 582.87 527.816 582.552 528.279C577.906 535.049 571.29 540.449 563.728 543.646C564.993 545.044 567.297 544.206 568.896 543.206C576.485 538.464 582.922 531.893 587.508 524.208C588.519 522.514 589.789 520.542 591.761 520.477ZM490.994 447.923C490.255 449.541 488.609 450.705 486.838 450.863C485.068 451.02 483.241 450.164 482.229 448.703C481.857 448.166 481.861 447.117 482.512 447.173C483.866 448.972 486.69 449.437 488.549 448.167C489.355 447.617 490.751 446.979 490.994 447.923ZM476.758 436.17C476.919 434.815 478.061 433.638 479.41 433.437C480.759 433.236 482.195 434.028 482.744 435.277C481.758 435.277 481.096 435.099 480.546 434.95C479.426 434.648 478.765 434.47 476.758 436.17ZM487.215 443.717L485.68 444.375L485.591 444.324C485.193 445.082 484.021 444.224 483.93 443.372C483.912 443.196 483.903 443.01 483.894 442.821C483.86 442.1 483.824 441.35 483.228 441.026C482.482 442.1 482.141 443.512 482.575 444.746C483.009 445.979 484.328 446.914 485.614 446.682C486.9 446.45 487.824 444.873 487.215 443.717ZM489.058 433.25C491 433.406 491.517 433.511 492.053 434.788C492.158 435.039 491.328 434.803 490.537 434.577L490.536 434.577C489.955 434.411 489.394 434.251 489.243 434.296C482.744 436.223 487.116 433.094 489.058 433.25ZM488.51 436.607C489.582 437.457 489.272 440.845 487.688 440.208C487.024 439.941 486.232 434.8 488.51 436.607ZM539.88 527.342C539.368 526.704 539.949 525.565 540.766 525.605C541.127 525.839 541.373 526.242 541.414 526.67C541.105 527.174 540.464 527.45 539.885 527.328L539.88 527.342ZM525.287 520.737L526.402 520.567L526.491 520.535C526.88 519.811 525.612 518.984 525.106 519.631C524.995 520.002 525.064 520.421 525.287 520.737ZM533.232 525.138C532.585 525.314 532.497 524.203 532.861 523.64L534.406 524.343C534.168 524.761 533.726 525.055 533.249 525.114L533.232 525.138ZM513.941 508.947C513.77 508.523 513.156 508.36 512.798 508.645L512.896 508.743C512.586 509.148 512.832 509.839 513.328 509.958C513.783 509.914 514.112 509.371 513.941 508.947ZM480.005 440.287C479.384 440.287 478.733 439.678 478.765 438.622C478.797 437.565 479.084 436.589 480.005 437.108C480.927 437.626 480.646 440.287 480.005 440.287ZM190.375 311.906C190.75 312.399 191.606 312.182 191.935 311.659C192.265 311.135 192.223 310.468 192.164 309.853C191.302 300.949 188.991 292.187 185.35 284.017C184.313 281.69 183.222 278.788 184.81 276.795C188.481 285.97 192.182 295.258 193.519 305.049C193.884 307.721 194.015 310.647 192.525 312.895C191.036 315.143 187.324 316.005 185.668 313.876C188.214 313.344 190.162 310.766 189.978 308.172C191.154 308.974 191.357 310.875 190.375 311.906ZM220.047 488.694C233.366 487.963 248.796 486.04 255.783 474.677C257.594 471.73 257.208 467.098 256.89 463.28C256.634 460.213 256.422 457.672 257.429 456.955C259.689 455.343 261.498 459.499 261.498 459.499C261.564 459.224 261.64 458.883 261.726 458.499C262.357 455.668 263.519 450.453 265.346 451.432C266.097 451.835 265.839 454.371 265.661 456.113L265.661 456.114C265.619 456.522 265.582 456.887 265.563 457.171C265.521 457.44 265.515 457.665 265.547 457.824C265.572 457.814 265.599 457.799 265.626 457.78C265.637 457.778 265.65 457.772 265.663 457.761C265.674 457.752 265.685 457.741 265.697 457.727C265.992 457.477 266.396 456.861 266.846 456.176L266.847 456.176C267.779 454.756 268.907 453.038 269.663 453.669C270.85 454.661 266.63 460.988 266.63 460.988C266.63 460.988 271.642 455.48 272.065 457.824C272.488 460.169 261.073 481.34 250.769 489.644C240.465 497.947 225.946 502.596 212.818 500.931C213.111 495.725 214.84 488.98 220.047 488.694ZM265.697 457.727C265.672 457.747 265.649 457.765 265.626 457.78C265.547 457.793 265.538 457.558 265.563 457.171C265.66 456.558 265.946 455.719 266.404 454.917C266.317 455.192 266.231 455.458 266.149 455.709C265.783 456.831 265.519 457.644 265.793 457.58C265.773 457.616 265.754 457.646 265.737 457.672C265.723 457.693 265.709 457.712 265.697 457.727ZM268.177 452.949C267.439 453.416 266.843 454.149 266.404 454.917C267.088 452.751 267.78 450.019 266.097 449.801C263.242 449.43 260.452 454.077 260.947 456.545C260.155 454.578 256.859 455.429 256.06 457.393C255.448 458.9 255.708 460.551 255.967 462.19L255.967 462.19L255.967 462.19C256.045 462.687 256.124 463.182 256.177 463.672C257.035 471.504 251.163 478.824 244.045 482.202C237.334 485.386 229.718 485.834 222.269 486.065L220.531 486.115C216.278 486.227 211.672 486.129 208.426 483.414C205.082 480.617 205.086 473.98 209.285 472.807C219.945 469.83 228.076 459.443 228.407 448.38C228.505 445.111 230.626 442.39 232.675 439.761C232.859 439.525 233.043 439.289 233.224 439.054L233.674 438.465C235.968 435.422 237.854 431.229 235.928 427.941C232.944 431.77 227.353 433.314 222.827 431.56C220.938 430.827 219.265 429.604 217.602 428.389C215.376 426.761 213.168 425.146 210.486 424.743C205.242 423.953 200.04 429.263 200.938 434.49C199.518 433.298 197.315 435.102 197.161 436.949C197.071 438.034 197.357 439.09 197.643 440.151C197.844 440.895 198.046 441.642 198.119 442.402C198.204 443.288 198.114 444.174 198.023 445.061C197.961 445.661 197.9 446.261 197.893 446.862C197.855 449.973 199.241 452.853 200.606 455.688L200.608 455.692L200.609 455.696C200.746 455.979 200.883 456.263 201.017 456.546L201.383 457.324C202.937 460.694 204.09 464.704 202.433 468.026C200.777 471.347 195.138 472.387 193.541 469.037C185.712 452.62 167.967 441.441 149.778 441.468C128.718 441.5 109.77 455.379 97.3586 472.393C95.8107 474.515 94.2957 476.801 93.9584 479.406C93.6211 482.01 94.8298 485 97.3076 485.871C99.7855 486.743 102.999 484.306 102.191 481.806C103.448 483.273 106.019 481.886 106.612 480.046C106.944 479.013 106.94 477.923 106.936 476.829C106.933 475.976 106.93 475.121 107.086 474.289C107.854 470.209 112.051 467.852 115.828 466.129L116.59 465.783C125.488 461.757 134.758 458.162 144.49 457.478C154.501 456.775 165.183 459.557 172.062 466.863C162.676 469.091 157.224 478.509 152.879 487.209L152.276 488.422C147.889 497.232 142.143 506.844 132.522 508.712C132.888 510.61 134.564 512.18 136.481 512.421L101.211 533.39L103.917 536.746C95.3295 549.908 85.617 562.335 74.9203 573.848C69.1044 580.108 61.5526 586.594 53.1334 585.137C51.611 584.874 50.1349 584.351 48.6639 583.83C46.51 583.067 44.367 582.308 42.1055 582.373C38.2995 582.482 34.48 587.112 37.0635 589.908C42.785 596.103 49.3151 601.549 56.4357 606.066L56.6201 606.182C57.4869 606.722 58.4404 607.226 59.4454 607.111C60.4615 606.994 61.2888 606.271 62.0446 605.582L109.812 562.028C113.724 558.49 118.029 554.95 123.241 554.43L123.681 554.377C127.535 553.84 130.71 551.404 133.895 548.96C135.281 547.896 136.67 546.83 138.116 545.92C143.012 542.839 151.132 542.523 153.036 547.984C154.048 550.887 152.723 553.839 151.418 556.749L151.418 556.749C151.029 557.616 150.642 558.479 150.318 559.336C148.911 563.069 150.064 568.812 154.053 568.741L176.377 568.346C177.18 568.338 178.024 568.383 178.648 568.874C179.301 569.387 179.53 570.242 179.656 571.08L179.707 571.464C180.548 578.301 180.432 585.256 179.364 592.061C178.206 599.437 175.126 607.549 168.167 610.253C163.778 611.958 158.889 611.073 154.266 610.014L126.176 603.453C126.129 600.051 129.207 597.282 132.487 596.38C135.269 595.616 138.19 595.849 141.083 596.08H141.084C141.262 596.094 141.439 596.108 141.617 596.122L142.637 596.198C149.746 596.687 156.933 596.027 163.834 594.251L153.876 569.331C154.892 577.604 157.129 585.726 160.494 593.351L127.76 594.413C124.909 594.493 121.745 594.367 119.829 592.287C119.337 591.753 118.927 591.096 118.52 590.444C117.686 589.107 116.867 587.795 115.386 587.624C114.106 587.475 112.947 588.33 111.967 589.166C105.567 594.625 100.253 601.352 96.4244 608.842C97.8047 612.26 102.378 613.216 105.931 612.235C108.009 611.662 109.906 610.628 111.807 609.592C113.155 608.857 114.505 608.122 115.923 607.548C123.836 604.35 132.535 606.518 140.892 609.034L145.855 610.545C155.664 613.492 167.624 615.003 174.975 607.871C179.313 603.662 180.893 597.4 181.752 591.417C184.23 574.154 182.221 556.267 175.975 539.983C182.939 537.297 186.225 529.506 188.78 522.493L193.784 508.757C195.455 504.168 199.253 498.537 203.774 500.386C216.697 505.671 231.961 503.437 243.992 496.352C256.024 489.268 265.03 477.793 271.097 465.218L271.259 464.878C272.446 462.379 273.959 456.549 272.608 455.902C272.104 455.507 271.206 456.164 270.595 456.611C270.264 456.853 270.017 457.034 269.961 456.955C269.927 456.906 270.037 456.583 270.194 456.125C270.812 454.325 272.146 450.439 268.177 452.949ZM182.659 530.052C181.096 533.567 178.509 537.704 174.69 537.237C172.646 536.987 171.101 535.444 169.712 533.858L168.967 532.996C160.897 523.628 149.934 517.401 138.915 511.67L135.244 509.774C144.219 508.008 149.756 499.131 153.71 490.882L154.97 488.253C158.585 480.758 162.699 473.046 170.156 469.672C171.187 469.205 172.369 468.834 173.432 469.221C173.593 469.28 173.767 469.347 173.948 469.417C175.26 469.921 176.95 470.571 176.924 469.328C174.531 468.363 174.137 464.874 175.517 462.694C176.778 460.704 178.96 459.555 181.121 458.566L181.738 458.287C180.359 456.386 177.371 457.984 175.81 459.739L175.681 459.882C174.115 461.6 171.71 463.482 169.902 462.085C162.431 456.312 152.473 454.459 143.074 455.365C133.676 456.271 124.709 459.708 116.123 463.636C112.976 465.076 109.78 466.646 107.445 469.2C105.638 471.175 105.451 473.805 105.263 476.448C105.208 477.222 105.152 477.997 105.057 478.757C104.825 480.594 103.814 480.665 102.923 480.727C102.446 480.76 102.004 480.79 101.734 481.09C101.712 481.114 101.643 481.221 101.538 481.382C101.003 482.203 99.5564 484.425 98.903 484.203C97.9434 483.878 98.4327 481.806 98.4327 481.806C98.4327 481.806 95.5849 482.62 95.3729 481.806C94.6313 478.958 98.903 473.131 98.903 473.131C106.085 462.565 116.736 453.798 128.445 448.702C140.371 443.512 154.288 442.51 166.48 447.041C180.225 452.15 191.11 464.354 194.619 478.591C195.493 482.141 199.622 483.708 203.23 484.298C203.352 484.318 203.475 484.338 203.598 484.357C203.816 484.392 204.034 484.426 204.254 484.461L204.259 484.461C207.589 484.981 211.129 485.535 213.252 488.077C213.877 488.826 213.704 489.935 213.489 490.887L213.426 491.162C212.635 494.557 211.254 498.357 207.955 499.388C204.957 500.324 201.404 497.907 201.174 494.774C201.154 494.498 201.148 494.206 201.142 493.91C201.117 492.693 201.09 491.41 200.068 490.908L182.659 530.052ZM154.304 548.621C153.183 542.859 149.775 537.676 145.303 533.873C145.478 536.138 146.436 538.335 147.977 540.004C140.4 542.413 133.255 546.172 126.979 551.053C125.299 552.36 122.445 553.551 121.461 551.664C117.59 544.241 111.429 538.032 104.035 534.106L134.433 516.637C135.807 515.848 137.26 515.035 138.844 515.02C140.073 515.008 141.239 515.478 142.35 516.026L142.901 516.305C154.276 522.163 164.459 530.326 172.652 540.155C174.681 542.588 175.625 545.704 176.429 548.787L180.045 562.913C180.284 563.848 180.46 565.006 179.727 565.635C179.314 565.989 178.733 566.05 178.191 566.091L177.557 566.14C168.556 566.833 161.294 567.392 152.276 566.091C150.931 563.512 151.948 560.315 152.997 557.013C153.897 554.185 154.821 551.279 154.304 548.621ZM109.082 539.934C112.455 542.905 115.495 546.252 118.129 549.894C118.411 550.283 118.701 550.718 118.671 551.198C118.636 551.758 118.182 552.189 117.76 552.558L78.4712 586.945C76.833 588.379 74.2197 588.127 72.3847 586.956C70.779 585.931 69.631 584.359 68.5777 582.757L68.131 582.07C78.3702 576.689 84.9384 567.05 91.565 557.324C95.7216 551.224 99.9011 545.09 105.024 539.952C105.522 539.453 106.084 538.936 106.784 538.857C107.651 538.76 108.427 539.358 109.082 539.934ZM223.495 444.018L224.498 444.326C226.452 444.931 226.776 447.548 226.528 449.577C225.498 457.981 220.275 466.299 212.221 468.91L211.933 469.007C206.685 470.86 202.933 476.35 203.157 481.919C199.634 482.579 195.858 479.761 195.487 476.196C195.414 475.485 195.624 474.562 196.33 474.453C199.531 473.962 202.475 471.998 204.157 469.231C205.84 466.465 206.23 462.947 205.194 459.879C204.983 459.252 204.714 458.625 204.445 457.997C203.679 456.21 202.911 454.417 203.449 452.616C204.675 452.729 204.908 454.411 204.779 455.636L204.765 455.785C204.665 456.993 204.879 458.542 206.05 458.703C206.822 456.93 206.983 454.945 207.142 452.975C207.344 450.487 207.543 448.023 208.969 446.041C210.6 443.775 213.526 442.733 216.318 442.701C218.761 442.672 221.15 443.306 223.495 444.018ZM46.9664 585.704L47.2184 585.413C48.6244 585.105 49.9672 586.906 49.2708 588.166C48.824 588.974 50.198 589.774 50.9652 589.26C51.7323 588.746 51.8871 587.701 51.9714 586.782C52.7433 586.54 53.4109 587.424 53.5566 588.22C53.5951 588.43 53.619 588.647 53.6429 588.865L53.643 588.865C53.7095 589.471 53.7762 590.078 54.1585 590.534C54.6782 591.154 56.0551 590.833 55.8293 590.057C55.4924 588.898 56.861 587.952 58.0554 587.781C58.3426 587.74 58.6391 587.716 58.9364 587.692C59.8757 587.615 60.8226 587.537 61.5063 586.927L61.6094 586.845C62.4772 586.229 63.5515 587.368 64.2065 588.379L64.5111 588.869C65.9512 591.108 68.3991 592.676 71.0381 593.034C71.5552 593.104 71.2921 593.91 70.9122 594.268L62.0056 602.656C61.5739 603.062 60.8743 602.773 60.3685 602.463C55.0817 599.226 50.2011 595.326 45.8774 590.884C44.5152 589.485 45.6704 587.252 46.9664 585.704ZM124.856 601.315C124.599 602.373 123.868 603.557 122.783 603.477C120.167 603.283 117.514 603.599 115.016 604.4C115.245 603.335 114.779 602.153 113.885 601.531C113.232 602.465 113.499 603.911 114.442 604.551L111.951 607.011L110.759 604.272C110.171 604.428 110.154 605.149 110.195 605.811L110.224 606.221C110.343 607.956 108.872 609.642 107.138 609.759C105.403 609.876 103.719 608.403 103.605 606.668C103.48 604.778 104.927 603.193 106.272 601.861L115.826 592.401C116.029 592.208 116.262 592.028 116.536 592.032C116.839 592.038 117.085 592.268 117.298 592.483L121.026 596.245C121.749 596.975 121.292 598.091 120.847 599.179C120.389 600.298 119.943 601.388 120.808 601.995C121.651 602.045 122.353 601.313 122.677 600.534C122.842 600.136 122.942 599.716 123.043 599.296C123.139 598.893 123.236 598.49 123.39 598.106C123.704 597.323 124.382 596.577 125.226 596.595C126.07 596.613 126.721 597.819 126.068 598.354C125.372 598.925 125.174 599.853 124.981 600.755L124.98 600.756C124.94 600.945 124.9 601.132 124.856 601.315ZM59.5352 605.498C50.9481 600.905 43.3576 594.459 37.4329 586.731C38.2097 585.994 39.3781 586.777 40.1295 587.611L40.3156 587.829C45.9449 594.795 53.0147 600.592 60.9489 604.747C60.8846 605.373 60.0905 605.795 59.5352 605.498ZM100.718 603.739C104.438 598.874 108.559 594.317 113.026 590.128C113.719 589.479 115.157 589.041 115.333 589.974C110.132 594.939 105.157 600.14 100.43 605.558C99.9165 605.112 100.305 604.279 100.718 603.739ZM72.1503 591.576C69.5546 590.653 67.2405 588.953 65.5826 586.753C64.9588 585.925 64.5653 584.487 65.5105 584.061C66.2576 583.725 66.9752 584.431 67.4963 585.116L67.887 585.647C69.566 587.863 71.9608 589.529 74.6244 590.326C74.6291 591.036 74.0408 591.702 73.335 591.785C72.933 591.832 72.5316 591.712 72.1503 591.576ZM199.527 447.613C200.747 447.642 201.781 448.914 201.559 450.115L201.588 450.132C201.756 451.002 201.645 451.924 201.275 452.729C199.94 451.421 199.272 449.465 199.527 447.613ZM222.774 447.643C222.928 447.63 223.09 447.615 223.255 447.613C223.46 447.611 223.698 447.648 223.922 447.682C224.526 447.776 225.031 447.854 224.554 447.107C223.899 446.082 221.984 445.967 221.67 447.141C221.758 447.733 222.214 447.692 222.774 447.643ZM224.316 452.71C224.325 452.675 224.334 452.639 224.343 452.604C224.809 450.84 224.54 449.448 223.255 449.448C222.759 449.486 222.002 452.011 222.074 452.776C222.146 453.542 223.009 454.251 223.677 453.87C224.074 453.645 224.201 453.155 224.316 452.71ZM215.839 452.174C214.943 450.93 214.849 449.159 215.608 447.826C215.722 447.628 215.859 447.432 216.057 447.318C216.56 447.03 217.232 447.42 217.454 447.956C217.675 448.491 217.579 449.098 217.478 449.669C217.478 449.669 216.735 453.419 215.839 452.174ZM405.624 452.211C389.257 448.197 372.16 447.181 355.434 449.233C358.337 442.47 359.611 435.014 359.119 427.67C354.76 430.725 347.605 427.141 347.44 421.821C347.274 416.502 354.194 412.481 358.734 415.26C359.937 415.996 361.26 414.469 361.741 413.143C363.38 408.625 363.396 403.537 361.786 399.009C361.158 397.246 363.82 396.289 365.691 396.326L381.574 396.64C382.641 396.661 383.773 396.666 384.684 396.11C385.595 395.555 386.113 394.219 385.443 393.389C382.695 389.978 385.854 383.875 390.225 384.15C394.596 384.424 396.967 390.875 393.813 393.915C393.225 394.482 394.368 395.211 395.185 395.23L415.952 395.708C420.083 395.803 423.002 400.204 423.17 404.332C423.313 407.825 422.072 411.171 420.847 414.475C420.74 414.763 420.633 415.051 420.528 415.339L420.189 416.274C416.51 426.595 415.327 437.795 416.766 448.658C417.047 450.777 415.096 452.662 413.008 453.121C411.166 453.525 409.269 453.124 407.425 452.663L405.624 452.211Z" fill="#00160A"/>
<path fill-rule="evenodd" clip-rule="evenodd" d="M184.261 262.125C184.413 261.146 185.717 260.581 186.66 260.917C187.603 261.253 188.444 262.605 187.754 263.37C186.66 264.581 183.968 264.025 184.261 262.125Z" fill="#FFB61D"/>
<path fill-rule="evenodd" clip-rule="evenodd" d="M594.67 515.609C594.053 516.126 592.817 516.313 592.702 515.517C595.108 513.069 596.763 509.894 597.391 506.52C598.176 506.31 598.403 507.56 598.206 508.349C597.542 511.007 596.768 513.848 594.67 515.609Z" fill="#00160A"/>
<path d="M63.626 224.025C63.6016 224.814 62.4048 224.768 61.6811 224.453C61.9416 223.749 62.9977 223.513 63.5327 224.04L63.626 224.025Z" fill="black"/>
<path fill-rule="evenodd" clip-rule="evenodd" d="M405.136 440.768C404.302 441.51 402.899 440.376 403.023 439.267C403.147 438.157 404.13 437.364 405.072 436.766C408.451 434.626 412.364 433.336 416.354 433.047C416.461 434.569 414.489 435.197 412.992 435.489C409.816 436.108 406.79 437.484 404.236 439.471C404.698 439.754 405.032 440.237 405.136 440.768V440.768Z" fill="#00160A"/>
<path fill-rule="evenodd" clip-rule="evenodd" d="M416.467 442.709C414.595 443.612 412.69 444.447 410.757 445.211C410.976 446.026 412.148 445.999 412.943 445.713C413.737 445.426 414.782 445.124 415.297 445.794C413.99 447.789 410.752 448.1 409.089 446.39C408.366 445.647 407.057 446.136 406.123 445.685C404.787 445.04 405.036 443.022 405.823 441.764C407.465 439.137 410.597 437.517 413.69 437.695C414.868 437.763 416.275 438.344 416.353 439.521C412.659 439.289 408.893 440.812 406.399 443.547C407.816 444.643 409.848 443.825 411.446 443.015C413.044 442.206 415.154 441.49 416.467 442.709Z" fill="#00160A"/>
<path fill-rule="evenodd" clip-rule="evenodd" d="M219.826 453.187C220.886 454.248 221.326 454.733 221.326 456.294C221.326 457.854 220.48 458.855 219.051 459.313C218.393 459.525 217.481 459.363 217.31 458.693C222.07 457.721 220.321 455.646 219.826 453.187Z" fill="#00160A"/>
<path fill-rule="evenodd" clip-rule="evenodd" d="M213.476 446.55C213.983 444.866 216.192 443.956 217.738 444.794C218.35 445.125 218.859 445.728 218.891 446.423C217.086 446.465 215.599 445.298 213.476 446.55Z" fill="#00160A"/>
<path fill-rule="evenodd" clip-rule="evenodd" d="M217.797 461.59C207.728 456 215.611 463.163 217.797 461.59Z" fill="#00160A"/>
</svg>
