<svg width="35" height="35" viewBox="0 0 35 35" fill="none" xmlns="http://www.w3.org/2000/svg">
<path d="M11.6667 4.375H5.83333C5.44656 4.375 5.07563 4.52865 4.80214 4.80214C4.52865 5.07563 4.375 5.44656 4.375 5.83333V11.6667M11.6667 30.625H5.83333C5.44656 30.625 5.07563 30.4714 4.80214 30.1979C4.52865 29.9244 4.375 29.5534 4.375 29.1667V23.3333M23.3333 30.625H29.1667C29.5534 30.625 29.9244 30.4714 30.1979 30.1979C30.4714 29.9244 30.625 29.5534 30.625 29.1667V23.3333M23.3333 4.375H29.1667C29.5534 4.375 29.9244 4.52865 30.1979 4.80214C30.4714 5.07563 30.625 5.44656 30.625 5.83333V11.6667" stroke="#C2C5CA" stroke-width="2.91667" stroke-linecap="round" stroke-linejoin="round"/>
<path d="M13.854 13.125H21.1457V21.875H13.854V13.125Z" stroke="#C2C5CA" stroke-width="2.91667" stroke-linejoin="round"/>
<path d="M17.5 13.125V8.75M17.5 26.25V21.875" stroke="#C2C5CA" stroke-width="2.91667" stroke-linecap="round" stroke-linejoin="round"/>
</svg>
