<?xml version="1.0" encoding="utf-8"?>
<!-- Generator: Adobe Illustrator 23.0.1, SVG Export Plug-In . SVG Version: 6.00 Build 0)  -->
<svg version="1.1" id="Layer_1" xmlns="http://www.w3.org/2000/svg" xmlns:xlink="http://www.w3.org/1999/xlink" x="0px" y="0px"
	 viewBox="0 0 54 54" style="enable-background:new 0 0 54 54;" xml:space="preserve">
<style type="text/css">
	.st0{fill:#006BB8;}
</style>
<title>Group 2</title>
<desc>Created with Sketch.</desc>
<g>
	<path class="st0" d="M47.3,9.9l-3.1-1.5L11.5,49.2l2.1,2.7c0.1,0.1,0.2,0.3,0.3,0.4l33.8-42C47.6,10.1,47.5,10,47.3,9.9z"/>
	<polygon class="st0" points="18.1,53.2 23.1,53.2 50.7,18.9 49.6,14.1 	"/>
	<polygon class="st0" points="37.2,5 21.9,24 21.9,24 21.9,24 6.6,43 9,46.1 40.7,6.7 	"/>
	<path class="st0" d="M37.1,53.2c1.1,0,2.1-0.5,2.8-1.3L53,35.6c0.7-0.9,1-2,0.7-3l-1.9-8.9L28,53.2H37.1z"/>
	<path class="st0" d="M18.4,17.1C17,16,15,16.2,14,17.6S13.1,21,14.4,22c1.4,1.1,3.3,0.9,4.4-0.5l0,0C20,20.2,19.7,18.2,18.4,17.1z"
		/>
	<path class="st0" d="M12,25.1c-3-2.4-3.5-6.9-1.1-9.9s6.9-3.5,9.9-1.1c0.9,0.7,1.6,1.6,2,2.6L33.6,3.3l-4.9-2.4
		c-1-0.5-2.1-0.5-3.1,0l-18.8,9c-0.5,0.3-1,0.6-1.4,1.1c-0.3,0.4-0.5,0.8-0.6,1.3L0.1,32.6c-0.3,1.1,0,2.2,0.7,3l3.3,4.2l10.8-13.4
		C13.9,26.2,12.9,25.8,12,25.1z"/>
</g>
</svg>
