<svg width="35" height="35" viewBox="0 0 35 35" fill="none" xmlns="http://www.w3.org/2000/svg">
<path fill-rule="evenodd" clip-rule="evenodd" d="M3.5 7.875C3.5 6.94674 3.86875 6.0565 4.52513 5.40013C5.1815 4.74375 6.07174 4.375 7 4.375H27.559C28.4873 4.375 29.3775 4.74375 30.0339 5.40013C30.6903 6.0565 31.059 6.94674 31.059 7.875V21.2642C31.059 22.1925 30.6903 23.0827 30.0339 23.7391C29.3775 24.3955 28.4873 24.7642 27.559 24.7642H18.1545V29.6258C18.1545 29.8578 18.0623 30.0804 17.8982 30.2445C17.7341 30.4086 17.5116 30.5008 17.2795 30.5008C17.0474 30.5008 16.8249 30.4086 16.6608 30.2445C16.4967 30.0804 16.4045 29.8578 16.4045 29.6258V24.7625H14.875C14.6429 24.7625 14.4204 24.6703 14.2563 24.5062C14.0922 24.3421 14 24.1196 14 23.8875C14 23.6554 14.0922 23.4329 14.2563 23.2688C14.4204 23.1047 14.6429 23.0125 14.875 23.0125H27.559C28.0231 23.0125 28.4682 22.8281 28.7964 22.4999C29.1246 22.1717 29.309 21.7266 29.309 21.2625V7.875C29.309 7.41087 29.1246 6.96575 28.7964 6.63756C28.4682 6.30937 28.0231 6.125 27.559 6.125H7C6.53587 6.125 6.09075 6.30937 5.76256 6.63756C5.43437 6.96575 5.25 7.41087 5.25 7.875V12.25C5.25 12.4821 5.15781 12.7046 4.99372 12.8687C4.82962 13.0328 4.60706 13.125 4.375 13.125C4.14294 13.125 3.92038 13.0328 3.75628 12.8687C3.59219 12.7046 3.5 12.4821 3.5 12.25V7.875Z" fill="#C2C5CA"/>
<path fill-rule="evenodd" clip-rule="evenodd" d="M9.95226 30.7825C9.95226 30.5504 10.0444 30.3279 10.2085 30.1638C10.3726 29.9997 10.5952 29.9075 10.8273 29.9075H23.7318C23.9638 29.9075 24.1864 29.9997 24.3505 30.1638C24.5146 30.3279 24.6068 30.5504 24.6068 30.7825C24.6068 31.0146 24.5146 31.2371 24.3505 31.4012C24.1864 31.5653 23.9638 31.6575 23.7318 31.6575H10.8273C10.5952 31.6575 10.3726 31.5653 10.2085 31.4012C10.0444 31.2371 9.95226 31.0146 9.95226 30.7825ZM9.92426 15.645C9.37711 15.3463 8.77613 15.1591 8.15613 15.0943C7.53613 15.0294 6.90942 15.0882 6.3123 15.2673C5.71519 15.4463 5.15953 15.7421 4.6775 16.1374C4.19548 16.5327 3.79667 17.0197 3.50417 17.5702C3.21167 18.1207 3.0313 18.7237 2.97349 19.3444C2.91569 19.9651 2.9816 20.5911 3.16742 21.1862C3.35323 21.7812 3.65525 22.3335 4.05599 22.811C4.45673 23.2885 4.94823 23.6818 5.50201 23.968C6.60326 24.5286 7.8806 24.6342 9.05894 24.2621C10.2373 23.89 11.2223 23.07 11.802 21.9786C12.3816 20.8873 12.5094 19.612 12.1579 18.4274C11.8063 17.2427 11.0053 16.2435 9.92426 15.645ZM2.00551 16.7738C2.58794 15.6781 3.47349 14.7733 4.55635 14.1673C5.63922 13.5614 6.87362 13.2801 8.1121 13.3569C9.35057 13.4337 10.5408 13.8654 11.5405 14.6004C12.5402 15.3355 13.3072 16.3428 13.7498 17.502C14.1924 18.6613 14.2919 19.9234 14.0364 21.1377C13.781 22.352 13.1814 23.467 12.3092 24.3497C11.437 25.2323 10.3292 25.8452 9.11809 26.1152C7.90695 26.3851 6.64371 26.3007 5.47926 25.872L2.20501 32.032C2.15101 32.1335 2.07755 32.2233 1.98882 32.2964C1.9001 32.3695 1.79785 32.4243 1.68792 32.4579C1.4659 32.5257 1.22605 32.5025 1.02114 32.3934C0.816225 32.2843 0.663033 32.0983 0.595262 31.8763C0.527491 31.6543 0.550693 31.4144 0.659763 31.2095L3.93226 25.0495C2.66503 24.1356 1.77167 22.7936 1.41746 21.2719C1.06324 19.7502 1.27214 18.1516 2.00551 16.772" fill="#C2C5CA"/>
</svg>
