<svg width="35" height="35" viewBox="0 0 35 35" fill="none" xmlns="http://www.w3.org/2000/svg">
<path d="M13.9476 12.7312L14.6987 15.4481C15.406 18.0075 15.7589 19.2879 16.7987 19.8698C17.8385 20.4531 19.1582 20.1089 21.7978 19.4235L24.5978 18.6944C27.2374 18.0089 28.5572 17.6662 29.158 16.6585C29.7589 15.6494 29.406 14.3689 28.6972 11.8096L27.9476 9.09414C27.2403 6.53331 26.886 5.25289 25.8476 4.67102C24.8064 4.08768 23.4866 4.43185 20.847 5.11873L18.047 5.84498C15.4074 6.53039 14.0876 6.87456 13.4882 7.88373C12.8874 8.89144 13.2403 10.1719 13.9476 12.7312Z" fill="#C2C5CA"/>
<path d="M3.32041 7.65184C3.35883 7.51334 3.42418 7.38376 3.51271 7.27053C3.60124 7.15729 3.71123 7.06262 3.83638 6.99192C3.96152 6.92122 4.09938 6.87588 4.24206 6.8585C4.38474 6.84111 4.52945 6.85202 4.66791 6.89059L7.15145 7.57893C7.80946 7.75808 8.40992 8.10445 8.89443 8.58436C9.37895 9.06428 9.73103 9.6614 9.91645 10.3177L13.0533 21.6723L13.2837 22.47C14.2138 22.8128 14.9976 23.4652 15.5033 24.3177L15.9554 24.1777L28.8908 20.8162C29.0299 20.78 29.1747 20.7716 29.317 20.7913C29.4593 20.8111 29.5963 20.8587 29.7202 20.9314C29.8441 21.0041 29.9525 21.1006 30.0391 21.2152C30.1258 21.3298 30.189 21.4603 30.2252 21.5993C30.2614 21.7384 30.2699 21.8832 30.2501 22.0255C30.2303 22.1678 30.1827 22.3048 30.11 22.4287C30.0373 22.5526 29.9409 22.661 29.8263 22.7476C29.7117 22.8343 29.5811 22.8975 29.4421 22.9337L16.5548 26.2821L16.0735 26.4308C16.0648 28.2829 14.7858 29.9775 12.8506 30.4791C10.5319 31.0829 8.14749 29.7471 7.52624 27.4983C6.90499 25.2496 8.28166 22.9352 10.6004 22.3329C10.7161 22.3037 10.8313 22.2784 10.946 22.2571L7.8077 10.8996C7.72283 10.608 7.56415 10.3432 7.34699 10.1309C7.12983 9.9186 6.86156 9.76593 6.56812 9.68768L4.08312 8.99788C3.94464 8.95961 3.81506 8.89442 3.70178 8.80606C3.5885 8.71769 3.49374 8.60787 3.42291 8.48287C3.35208 8.35787 3.30657 8.22014 3.28899 8.07755C3.2714 7.93496 3.28208 7.79031 3.32041 7.65184Z" fill="#C2C5CA"/>
</svg>
