<svg width="35" height="35" viewBox="0 0 35 35" fill="none" xmlns="http://www.w3.org/2000/svg">
<g clip-path="url(#clip0_229_1172)">
<path d="M33.125 33.125L26.9575 26.9575M16.5625 31.25C20.4579 31.25 24.1937 29.7026 26.9481 26.9481C29.7026 24.1937 31.25 20.4579 31.25 16.5625C31.25 12.6671 29.7026 8.93131 26.9481 6.17687C24.1937 3.42243 20.4579 1.875 16.5625 1.875C12.6671 1.875 8.93131 3.42243 6.17687 6.17687C3.42243 8.93131 1.875 12.6671 1.875 16.5625C1.875 20.4579 3.42243 24.1937 6.17687 26.9481C8.93131 29.7026 12.6671 31.25 16.5625 31.25Z" stroke="#C2C5CA" stroke-width="2.5" stroke-linecap="round" stroke-linejoin="round"/>
<path d="M13.75 11.25L8.75 16.25L13.75 21.25M18.75 11.25L23.75 16.25L18.75 21.25" stroke="#C2C5CA" stroke-width="2.5" stroke-linecap="round" stroke-linejoin="round"/>
</g>
<defs>
<clipPath id="clip0_229_1172">
<rect width="35" height="35" fill="white"/>
</clipPath>
</defs>
</svg>
