<svg width="35" height="35" viewBox="0 0 35 35" fill="none" xmlns="http://www.w3.org/2000/svg">
<path d="M2.9165 29.1667C3.24779 29.6282 3.68646 30.0022 4.19462 30.2563C4.70278 30.5103 5.26516 30.6369 5.83317 30.625C6.40119 30.6369 6.96356 30.5103 7.47172 30.2563C7.97988 30.0022 8.41855 29.6282 8.74984 29.1667C9.08113 28.7051 9.5198 28.3311 10.028 28.0771C10.5361 27.823 11.0985 27.6964 11.6665 27.7083C12.2345 27.6964 12.7969 27.823 13.3051 28.0771C13.8132 28.3311 14.2519 28.7051 14.5832 29.1667C14.9145 29.6282 15.3531 30.0022 15.8613 30.2563C16.3694 30.5103 16.9318 30.6369 17.4998 30.625C18.0679 30.6369 18.6302 30.5103 19.1384 30.2563C19.6465 30.0022 20.0852 29.6282 20.4165 29.1667C20.7478 28.7051 21.1865 28.3311 21.6946 28.0771C22.2028 27.823 22.7652 27.6964 23.3332 27.7083C23.9012 27.6964 24.4636 27.823 24.9717 28.0771C25.4799 28.3311 25.9185 28.7051 26.2498 29.1667C26.5811 29.6282 27.0198 30.0022 27.528 30.2563C28.0361 30.5103 28.5985 30.6369 29.1665 30.625C29.7345 30.6369 30.2969 30.5103 30.805 30.2563C31.3132 30.0022 31.7519 29.6282 32.0832 29.1667M5.83317 26.25L4.37484 18.9583H30.6248L27.7082 24.7917M7.2915 18.9583V10.2083H18.9582L24.7915 18.9583M10.2082 10.2083V4.375H8.74984" stroke="#C2C5CA" stroke-width="3" stroke-linecap="round" stroke-linejoin="round"/>
</svg>
