<svg xmlns="http://www.w3.org/2000/svg" width="200" height="63"  xmlns:v="https://vecta.io/nano"><path d="M137.256 26.8c2.015 0 3.886.286 5.469 1.002 1.583.572 3.022 1.574 4.173 2.718s2.015 2.575 2.59 4.292c.863 1.574 1.151 3.434 1.151 5.437s-.288 3.72-.72 5.437c-.576 1.717-1.295 3.005-2.159 4.292-1.007 1.145-2.159 2.146-3.598 2.718-1.439.715-3.022 1.002-4.893 1.002a14.27 14.27 0 0 1-3.454-.429c-1.007-.286-1.871-.572-2.59-1.002v10.015h-6.044V28.231l4.461-1.002c1.727-.286 3.742-.429 5.612-.429zm-27.487-.143c3.598 0 6.332 1.145 8.347 3.291s3.022 5.437 3.022 9.872v1.145c0 .429 0 .715-.144 1.145h-16.981c.144 2.003.863 3.72 2.159 4.865s3.166 1.717 5.756 1.717c1.439 0 2.734-.143 4.029-.429l2.878-.858.863 4.865c-.288.143-.72.286-1.439.572-.576.143-1.295.286-2.015.572l-2.446.429s-1.727.143-2.59.143c-2.303 0-4.317-.286-5.9-1.002-1.727-.715-3.022-1.574-4.173-2.862-1.151-1.145-1.871-2.575-2.446-4.292-.72-1.717-1.007-3.434-1.007-5.437 0-2.289.288-4.292 1.007-6.009s1.583-3.148 2.734-4.292 2.446-2.003 3.886-2.575 2.878-.858 4.461-.858zm52.527-7.154v7.869h9.21v5.008h-9.21v10.445c0 2.003.288 3.577 1.007 4.435s1.727 1.288 3.454 1.288c1.151 0 2.015-.143 2.878-.286.863-.286 1.583-.429 2.015-.715l1.007 4.722c-.72.286-1.583.572-2.734.858s-2.446.429-4.029.429c-1.871 0-3.454-.286-4.605-.715-1.295-.572-2.159-1.145-3.022-2.146-.72-1.002-1.295-2.003-1.583-3.434-.288-1.288-.432-2.862-.432-4.578V20.505l6.044-1.002zm26.623 7.297c2.159 0 3.886.286 5.325.858s2.59 1.431 3.454 2.432 1.439 2.289 1.727 3.72.576 3.005.576 4.865V53.27h-6.044V39.677c0-1.431-.144-2.575-.288-3.577s-.432-1.717-.863-2.432c-.432-.572-1.007-1.002-1.727-1.288s-1.583-.429-2.59-.429c-.72 0-1.583 0-2.446.143s-1.439.143-1.871.286V53.27h-6.044l.144-25.039 4.461-1.002c1.871-.286 3.886-.429 6.188-.429zM49.903 13.923l1.007 4.865-27.774 34.339h-5.037l31.804-39.203zm2.015 9.729l2.015 8.871c.288 1.002 0 2.146-.72 3.005h0L40.117 51.839c-.72.715-1.727 1.288-2.878 1.288h0-9.066l23.745-29.474zm26.623-9.3v22.749c.72-.858 1.583-1.717 2.446-2.575s1.727-1.86 2.59-2.718 1.583-1.86 2.446-2.718a19.35 19.35 0 0 0 1.871-2.146h7.195l-5.325 5.723-5.9 6.438 11.801 14.022h-7.052L78.541 41.108v12.019h-6.044V15.354l6.044-1.002zM44.578 8.343L47.6 9.774c.144.143.288.143.432.286h0L13.926 52.268c0-.143-.144-.286-.288-.429h0l-2.159-2.718L44.578 8.343zm92.102 23.608c-.576 0-1.151 0-1.727.143-.576 0-1.151.143-1.871.286v14.737c.576.286 1.295.715 2.159 1.002s1.871.429 2.734.429c2.159 0 3.742-.715 4.749-2.146 1.295-1.574 1.727-3.577 1.727-6.009 0-2.718-.576-4.722-1.871-6.295-1.151-1.431-3.166-2.146-5.9-2.146zM37.383 4.909l3.454 1.717L9.033 45.973l-2.446-3.005L37.383 4.909zM25.726.76c1.007-.429 2.159-.429 3.166 0h0l4.893 2.432-10.793 13.449c-.432-1.002-1.151-1.86-2.015-2.575-3.022-2.575-7.339-2.003-9.93 1.002s-2.015 7.44 1.007 9.872c.863.715 1.871 1.145 2.878 1.431h0L4.14 39.82.83 35.528c-.72-.858-1.007-2.003-.72-3.005h0l4.749-20.317c.144-.429.288-.858.576-1.288.432-.429.863-.858 1.439-1.145h0zm84.331 31.048c-.863 0-1.727.143-2.446.572-.72.286-1.295.858-1.727 1.431s-.863 1.145-1.151 1.86-.432 1.431-.576 2.146l11.081-.143c0-.858-.144-1.574-.288-2.289-.288-.715-.576-1.431-1.007-1.86-.432-.572-1.007-1.002-1.583-1.288s-1.439-.429-2.303-.429zM13.926 17.5c1.151-1.288 3.022-1.574 4.461-.429 1.439 1.002 1.583 3.005.432 4.435h0l-.131.139c-1.158 1.168-2.945 1.393-4.33.29-1.295-1.145-1.583-3.005-.432-4.435z" fill="#fff"/></svg>