<svg xmlns="http://www.w3.org/2000/svg" xmlns:xlink="http://www.w3.org/1999/xlink" width="170" height="126" xmlns:v="https://vecta.io/nano"><defs><path id="A" d="M141.747 51.815H82.676V37.052h59.071z"/><mask id="B" x="0" y="0" width="59.071" height="14.762" fill="#fff"><use xlink:href="#A"/></mask></defs><g transform="matrix(1 0 0 -1 1.998481 103.668359)" fill="none" fill-rule="evenodd"><g fill-rule="nonzero"><path fill="#b5cee0" d="M148.552 66.577h-36.341V51.815h36.341z"/><path fill="#809ebe" d="M112.211 66.577h-51V51.815h51z"/><path fill="#fff" d="M158.993 51.815h-17.246V37.052h17.246z"/></g><use stroke="#14ba5a" mask="url(#B)" stroke-width="2.667" stroke-dasharray="3,2" xlink:href="#A"/><g fill-rule="nonzero"><path fill="#fff" d="M82.676 51.815H46.377l-4.284-3.804L53.14 37.086l29.535-.034z"/><path fill="#809ebe" d="M148.552 37.086h-36.341V22.324h36.341z"/><path fill="#b5cee0" d="M112.211 37.086H53.14l14.761-14.762h44.31z"/><path fill="#fff" d="M127.762 22.324h-59.86l14.8-14.762h45.06z"/><path d="M87.975.461l-.009.008h.009l-4.541 4.733v34.022h-.062l.102.102-4.638 4.636 10.428 10.444 27.074-27.072 6.397 6.397-32.711 32.711-.046-.046-15.5 15.477-24.39-24.443L.622 7.964 8.19.489 8.183.483l.013-.001.005-.003.003.003L18.311.469l-4.955 5.164 44.27 44.27 13.591-13.57.093.092 1.472-1.472V.465L87.975.461z" fill="#006bb8"/><path d="M90.476 86.159l-2.697-2.704 1.599-1.595-3.642-3.651 10.157-10.132 4.319 4.329 1.502-1.496 1.171 4.176 3.945 3.956-10.157 10.132-4.599-4.61-1.599 1.596zm-2.578-17.717l3.806 3.815-5.967 5.952-3.806-3.815 5.967-5.952z" fill="#3389c6"/><g fill="#f2f7fb"><path d="M105.76 77.912L95.603 88.044l4.343 4.354 10.157-10.132z"/><path d="M105.698 77.882l5.909 2.888-3.036 3.027zM95.602 88.043l5.909 2.888-3.036 3.027z"/></g><path d="M72.809 43.048l6.397 6.397-14.455 14.454 13.837 13.837-6.397 6.397-13.837-13.837-.017.018-6.397-6.397 20.869-20.869z" fill="#3389c6"/></g><path fill="#14ba5a" d="M68.637 46.1l59.071.143.036-14.762-59.071-.143z"/><g fill-rule="nonzero"><path fill="#006bb8" d="M125.545 34.676l-9.13.011-.009-7.42 9.13-.011z"/><path d="M124.247 34.677l-1.305.002-.009-7.42 1.305-.002zm-2.562.003l-1.305.002-.009-7.419 1.305-.002zm-2.647-.038l-1.305.002-.009-7.379 1.305-.002z" fill="#fff"/><path fill="#3389c6" d="M83.851 50.595l-9.13.011-.009-7.42 9.13-.011z"/><path d="M79.983 43.18l.009 7.42-1.305.002-.009-7.42 1.305-.002zm2.562-.003l.009 7.42-1.305.002-.009-7.42 1.305-.002zm-5.21.006l.009 7.379-1.305.002-.01-7.379 1.305-.002z" fill="#fff"/></g></g></svg>