<svg xmlns="http://www.w3.org/2000/svg" xmlns:xlink="http://www.w3.org/1999/xlink" width="170" height="126" xmlns:v="https://vecta.io/nano"><g fill="none" fill-rule="evenodd"><path d="M44.084 57.553l2.52 2.52-1.12 1.12-2.52-2.52 1.12-1.12zm4.201 4.201l2.52 2.52-1.12 1.12-2.52-2.52 1.12-1.12zm4.201 4.201l2.52 2.52-1.12 1.12-2.52-2.52 1.12-1.12zm4.201 4.201l2.52 2.52-1.12 1.12-2.52-2.52 1.12-1.12zm4.201 4.201l2.52 2.52-1.12 1.12-2.52-2.52 1.12-1.12zm4.201 4.201l2.52 2.52-1.12 1.12-2.52-2.52 1.12-1.12zm2.682 5.321l-2.52 2.52-1.12-1.12 2.52-2.52 1.12 1.12zm-4.201 4.201l-2.52 2.52-1.12-1.12 2.52-2.52 1.12 1.12zm-4.201 4.201l-2.52 2.52-1.12-1.12 2.52-2.52 1.12 1.12zm-4.201 4.201l-2.52 2.52-1.12-1.12 2.52-2.52 1.12 1.12zm-4.201 4.201l-.679.679v-1.12l1.841 1.841-1.12 1.12-2.401-2.401 1.239-1.239 1.12 1.12zm2.843 3.08l2.52 2.52-1.12 1.12-2.52-2.52 1.12-1.12zm4.201 4.201l2.52 2.52-1.12 1.12-2.52-2.52 1.12-1.12zm4.201 4.201l2.52 2.52-1.12 1.12-2.52-2.52 1.12-1.12zm4.201 4.201l.929.929h-1.12l1.591-1.591 1.12 1.12-2.151 2.151-1.489-1.489 1.12-1.12zm3.08-2.342l2.52-2.52 1.12 1.12-2.52 2.52-1.12-1.12zm5.321-3.08l-1.12-1.12 2.959-2.959.682.682-1.12 1.12-.122-.122.56-.56.56.56-2.399 2.399zm4.201-1.717l2.52 2.52-1.12 1.12-2.52-2.52 1.12-1.12zm4.201 4.201l2.52 2.52-1.12 1.12-2.52-2.52 1.12-1.12zm4.201 4.201l2.52 2.52-1.12 1.12-2.52-2.52 1.12-1.12zm3.08 3.263l2.52-2.52 1.12 1.12-2.52 2.52-1.12-1.12zm4.201-4.201l2.52-2.52 1.12 1.12-2.52 2.52-1.12-1.12zm4.201-4.201l2.52-2.52 1.12 1.12-2.52 2.52-1.12-1.12zm4.201-4.201l2.52-2.52 1.12 1.12-2.52 2.52-1.12-1.12zm4.201-4.201l2.52-2.52 1.12 1.12-2.52 2.52-1.12-1.12zm2.672-3.08l-2.52-2.52 1.12-1.12 2.52 2.52-1.12 1.12zm-4.201-4.201l-2.52-2.52 1.12-1.12 2.52 2.52-1.12 1.12zm-3.536-5.321l2.52-2.52 1.12 1.12-2.52 2.52-1.12-1.12zm4.201-4.201l2.52-2.52 1.12 1.12-2.52 2.52-1.12-1.12zm4.201-4.201l2.52-2.52 1.12 1.12-2.52 2.52-1.12-1.12zm4.201-4.201l2.52-2.52 1.12 1.12-2.52 2.52-1.12-1.12zm4.201-4.201l2.52-2.52 1.12 1.12-2.52 2.52-1.12-1.12zm4.201-4.201l2.52-2.52 1.12 1.12-2.52 2.52-1.12-1.12zm4.201-4.201l2.52-2.52 1.12 1.12-2.52 2.52-1.12-1.12zm4.201-4.201l2.52-2.52 1.12 1.12-2.52 2.52-1.12-1.12zm4.201-4.201l2.52-2.52 1.12 1.12-2.52 2.52-1.12-1.12zm1.666-3.08l-2.52-2.52 1.12-1.12 2.52 2.52-1.12 1.12zm-4.201-4.201l-2.52-2.52 1.12-1.12 2.52 2.52-1.12 1.12zm-4.201-4.201l-2.52-2.52 1.12-1.12 2.52 2.52-1.12 1.12zm-4.201-4.201l-2.52-2.52 1.12-1.12 2.52 2.52-1.12 1.12zm-4.201-4.201l-2.52-2.52 1.12-1.12 2.52 2.52-1.12 1.12zm-4.201-4.201l-2.52-2.52 1.12-1.12 2.52 2.52-1.12 1.12zm-4.201-4.201l-2.52-2.52 1.12-1.12 2.52 2.52-1.12 1.12zm-3.08-2.347l-2.52 2.52-1.12-1.12 2.52-2.52 1.12 1.12zm-4.201 4.201l-2.52 2.52-1.12-1.12 2.52-2.52 1.12 1.12zm-4.201 4.201l-2.52 2.52-1.12-1.12 2.52-2.52 1.12 1.12zm-4.201 4.201l-2.52 2.52-1.12-1.12 2.52-2.52 1.12 1.12zm-4.201 4.201l-2.52 2.52-1.12-1.12 2.52-2.52 1.12 1.12zm-5.321 3.08l1.12 1.12-1.412 1.412-2.228-2.228 1.12-1.12 1.668 1.668h-1.12l.852-.852zm-4.201-1.376l-2.52-2.52 1.12-1.12 2.52 2.52-1.12 1.12zm-4.201-4.201l-2.52-2.52 1.12-1.12 2.52 2.52-1.12 1.12zm-4.201-4.201l-2.52-2.52 1.12-1.12 2.52 2.52-1.12 1.12zm-4.201-4.201l-.942-.942h1.12l-1.578 1.578-1.12-1.12 2.138-2.138 1.502 1.502-1.12 1.12zm-3.08 2.316l-2.52 2.52-1.12-1.12 2.52-2.52 1.12 1.12zm-4.201 4.201l-2.52 2.52-1.12-1.12 2.52-2.52 1.12 1.12zm-4.201 4.201l-2.52 2.52-1.12-1.12 2.52-2.52 1.12 1.12zm-4.201 4.201l-2.52 2.52-1.12-1.12 2.52-2.52 1.12 1.12zm-4.201 4.201l-2.52 2.52-1.12-1.12 2.52-2.52 1.12 1.12zm-4.201 4.201l-1.133 1.133-1.12-1.12 1.133-1.133 1.12 1.12z" fill="#14ba5a" fill-rule="nonzero"/><g transform="matrix(.707107 -.707107 -.707107 -.707107 97.383525 91.072179)"><path d="M22.015 30.431V7.986M8.332 23.395V7.986m23.109 14.826V7.986" stroke="#006bb8" stroke-width=".726"/><g fill-rule="nonzero"><path fill="#006bb8" d="M8.082 0h25.065v7.986H8.082z"/><path d="M17.118 11.47h10.257v17.046H17.118zm-13.914 0h10.257v10.257H3.204z" fill="#3389c6"/><g fill="#006bb8"><path d="M33.272 1.07l.494-.494 9.773 9.774-.493.493z"/><path d="M33.171 0l-7.929 7.986H41.1zM8.082 0L.154 7.986h15.857z"/></g><path d="M41.562 11.471H31.289v10.273z" fill="#3389c6"/><g fill="#f2f7fb"><use xlink:href="#B"/><use xlink:href="#B" x="-8.066"/><use xlink:href="#B" x="-16.27"/></g></g></g><g fill-rule="nonzero"><path d="M7.48 78.586L0 86.067l7.48 7.481 7.278-7.278 14.815 14.814 22.295-22.295-14.814-14.813 6.826-6.827-7.481-7.481L7.48 78.586zm85.194-49.447l11.881-11.881L92.674 5.376l-4.5 4.499-5.592-5.592-7.48 7.481 2.057 2.058-6.06 6.06 7.481 7.48 6.158-6.159 7.936 7.935z" fill="#d9e9f4"/><g fill="#006bb8"><use xlink:href="#C"/><use xlink:href="#C" x="27.921" y="-26.331"/><use xlink:href="#C" x="68.541" y="42.84"/><use xlink:href="#C" x="5.829" y="42.105"/></g><path fill="#d9e9f4" d="M127.936 108.265l16.582-16.583-16.582-16.582-16.583 16.582z"/><path fill="#14ba5a" d="M147.01 29l15.246 7.531 3.764 16.919-10.552 13.57h-16.92L128 53.45l3.764-16.919z"/><path d="M153.56 44.168c-1.412 0-2.746.549-3.698 1.501l-6.895 6.12a3.3 3.3 0 0 1-2.354.971 3.32 3.32 0 0 1-3.325-3.315 3.32 3.32 0 0 1 3.325-3.315c.893 0 1.726.343 2.393 1.01l1.108.981 1.481-1.314-1.236-1.089c-1-1-2.334-1.55-3.747-1.55-2.923 0-5.296 2.374-5.296 5.277s2.374 5.277 5.296 5.277c1.412 0 2.746-.549 3.698-1.501l6.895-6.12a3.3 3.3 0 0 1 2.354-.971 3.32 3.32 0 0 1 3.325 3.315 3.32 3.32 0 0 1-3.325 3.315 3.35 3.35 0 0 1-2.393-1.01l-1.118-.991-1.481 1.314 1.246 1.099a5.28 5.28 0 0 0 3.747 1.54 5.29 5.29 0 0 0 5.296-5.277c0-2.913-2.374-5.267-5.296-5.267h0z" fill="#fff"/></g></g><defs ><path id="B" d="M28.75 6.091l1.253-.604.31-1.356-.867-1.088h-1.391l-.867 1.088.31 1.356z"/><path id="C" d="M43.524 54.466l3.39 1.633.837 3.668-2.346 2.942h-3.762l-2.346-2.942.837-3.668z"/></defs></svg>