<svg xmlns="http://www.w3.org/2000/svg" xmlns:xlink="http://www.w3.org/1999/xlink" width="170" height="126" xmlns:v="https://vecta.io/nano"><defs><path id="A" d="M0 0h72v22.968H0z"/><path id="B" d="M0 0h66v22.968H0z"/><path id="C" d="M.05.17c3.104 0 5.856 1.481 7.609 3.768C9.411 1.651 12.163.17 15.267.17s5.856 1.481 7.608 3.768C24.629 1.651 27.38.17 30.484.17c3.129 0 5.899 1.505 7.65 3.823C39.885 1.675 42.656.17 45.785.17c3.049 0 5.759 1.427 7.516 3.644C55.058 1.597 57.769.17 60.818.17c3.124 0 5.891 1.501 7.642 3.813C70.211 1.671 72.977.17 76.101.17c3.136 0 5.911 1.511 7.661 3.839C85.513 1.681 88.288.17 91.424.17c3.104 0 5.856 1.481 7.608 3.768 1.753-2.287 4.504-3.768 7.608-3.768s5.856 1.481 7.608 3.768c1.753-2.287 4.505-3.768 7.609-3.768 3.129 0 5.899 1.505 7.65 3.823 1.75-2.318 4.521-3.823 7.65-3.823 3.049 0 5.759 1.427 7.516 3.644 1.757-2.218 4.468-3.644 7.516-3.644 3.124 0 5.89 1.501 7.642 3.813 1.751-2.312 4.518-3.813 7.641-3.813 3.083 0 5.819 1.46 7.574 3.721 1.755-2.26 4.491-3.721 7.574-3.721 3.104 0 5.856 1.481 7.608 3.768 1.753-2.287 4.504-3.768 7.608-3.768s5.856 1.481 7.608 3.768c1.753-2.287 4.505-3.768 7.608-3.768 3.129 0 5.9 1.505 7.651 3.823 1.75-2.318 4.521-3.823 7.65-3.823 3.048 0 5.759 1.427 7.516 3.644C237.629 1.597 240.34.17 243.389.17c3.124 0 5.891 1.501 7.642 3.813 1.751-2.312 4.518-3.813 7.642-3.813"/></defs><g transform="matrix(1 0 0 -1 18.019017 128.884693)" fill="none" fill-rule="evenodd"><g stroke-width="1.226"><path stroke="#14ba5a" d="M52.106 117.61l.197-72.983"/><path d="M24.974 74.107V44.561m50.464 29.897V44.571" stroke="#3389c6"/></g><path d="M67.355 27.246c3.104 0 5.856 1.481 7.608 3.768 1.189-1.552 2.838-2.732 4.745-3.331l16.822 16.944H7.114L24.077 27.54a9.6 9.6 0 0 1 5.154 3.35c1.757-2.218 4.468-3.644 7.517-3.644 3.124 0 5.891 1.501 7.642 3.813 1.751-2.312 4.518-3.813 7.642-3.813 3.136 0 5.911 1.511 7.661 3.839 1.75-2.327 4.526-3.839 7.662-3.839z" fill="#006bb8" fill-rule="nonzero"/><path stroke="#14ba5a" stroke-width=".952" fill="#fff" d="M52.233 60.385l30.052 30.052-30.052 30.052-30.052-30.052z"/><g fill-rule="nonzero"><path fill="#3389c6" d="M13.775 52.235h22.399v17.85H13.775z"/><path fill="#006bb8" d="M79.437 29.523l1.078-1.078 21.342 21.343-1.076 1.077z"/><path d="M97.69 51.386H75.256V73.82z" fill="#3389c6"/><path d="M69.561 40.489l2.737-1.318.676-2.961-1.894-2.375h-3.037l-1.894 2.375.676 2.961zm-17.614 0l2.736-1.318.677-2.961-1.894-2.375h-3.038l-1.893 2.375.676 2.961zm-17.915 0l2.736-1.318.676-2.961-1.894-2.375h-3.037l-1.894 2.375.677 2.961z" fill="#f2f7fb"/></g><g transform="matrix(1 0 0 -1 44.980983 33.684693)"><mask id="D" fill="#fff"><use xlink:href="#A"/></mask><g mask="url(#D)"><g transform="matrix(1 0 0 -1 -114.628001 15.708)"><g stroke="#7aafd5"><use xlink:href="#C" stroke-width="1.584"/></g></g></g></g><g transform="matrix(1 0 0 -1 .980983 24.684693)"><mask id="E" fill="#fff"><use xlink:href="#B"/></mask><g mask="url(#E)"><g transform="matrix(1 0 0 -1 -101.628001 15.708)"><g stroke="#7aafd5"><use xlink:href="#C" stroke-width="1.584"/></g></g></g></g><path fill="#006bb8" d="M52.067 108.062l17.678-17.678-17.678-17.678-17.678 17.678z"/><path d="M52.481 99.985a2.6 2.6 0 0 0 1.164-4.926l-.001-9.304 3.497 3.496a2.59 2.59 0 0 0-.26 1.134 2.6 2.6 0 1 0 5.2 0 2.6 2.6 0 0 0-2.6-2.6c-.293 0-.575.049-.838.138l-3.7-3.699c.09-.263.138-.546.138-.839a2.6 2.6 0 0 0-2.6-2.6c-.293 0-.575.049-.838.138l-6.605-6.603-1.414 1.414 6.517 6.517a2.59 2.59 0 0 0-.26 1.134 2.6 2.6 0 0 0 1.763 2.462v9.076a2.6 2.6 0 0 0 .837 5.062z" fill="#fff" fill-rule="nonzero"/></g></svg>