<svg xmlns="http://www.w3.org/2000/svg" xmlns:xlink="http://www.w3.org/1999/xlink" width="656" height="348" xmlns:v="https://vecta.io/nano"><style><![CDATA[.B{fill-rule:nonzero}.C{opacity:.441}.D{mask:url(#J)}.E{fill:#262626}.F{fill:#f8f8f8}.G{fill:#d8d8d8}]]></style><defs><path d="M13 0h582c7.18 0 13 5.82 13 13v274c0 7.18-5.82 13-13 13H13c-7.18 0-13-5.82-13-13V13C0 5.82 5.82 0 13 0z" id="A"/><filter x="-6.9%" y="-10.0%" width="113.8%" height="128.0%" id="B"><feOffset dy="12" in="SourceAlpha"/><feGaussianBlur stdDeviation="12"/><feColorMatrix values="0 0 0 0 0.0352941176   0 0 0 0 0.2   0 0 0 0 0.31372549  0 0 0 0.15 0"/></filter><rect id="C" width="70" height="32" rx="16"/><filter x="-6.4%" y="-14.1%" width="112.9%" height="128.1%" id="D"><feOffset in="SourceAlpha"/><feGaussianBlur stdDeviation="1.5"/><feColorMatrix values="0 0 0 0 0   0 0 0 0 0   0 0 0 0 0  0 0 0 0.272372159 0"/></filter><rect id="E" x="173" width="125" height="32" rx="16"/><filter x="-3.6%" y="-14.1%" width="107.2%" height="128.1%" id="F"><feOffset in="SourceAlpha"/><feGaussianBlur stdDeviation="1.5"/><feColorMatrix values="0 0 0 0 0   0 0 0 0 0   0 0 0 0 0  0 0 0 0.272372159 0"/></filter><rect id="G" x="78" width="87" height="32" rx="16"/><filter x="-5.2%" y="-14.1%" width="110.3%" height="128.1%" id="H"><feOffset in="SourceAlpha"/><feGaussianBlur stdDeviation="1.5"/><feColorMatrix values="0 0 0 0 0   0 0 0 0 0   0 0 0 0 0  0 0 0 0.272372159 0"/></filter><path id="I" d="M150.816 161.054a.58.58 0 0 1 .478.266h0l2.143 3.347c.106.177.124.407.018.584-.089.195-.283.301-.496.301h0-1.24v.177c0 2.639 2.143 4.781 4.781 4.781.779 0 1.558-.195 2.249-.567a.92.92 0 0 1 1.222.372.91.91 0 0 1-.372 1.24 6.49 6.49 0 0 1-3.099.779c-3.648 0-6.605-2.957-6.605-6.605h0v-.177h-1.24c-.212 0-.39-.124-.496-.301-.106-.195-.089-.407.018-.584h0l2.16-3.347a.58.58 0 0 1 .478-.266zm5.684-1.93c3.648 0 6.605 2.957 6.605 6.605h0v.177h1.24c.213 0 .39.124.496.301.106.195.089.407-.018.584h0l-2.16 3.347a.58.58 0 0 1-.478.266.58.58 0 0 1-.478-.266h0l-2.143-3.347c-.106-.177-.124-.407-.018-.584.089-.195.283-.301.496-.301h1.24v-.177c0-2.639-2.143-4.781-4.781-4.781-.779 0-1.558.195-2.231.567-.443.23-1.009.071-1.24-.372a.91.91 0 0 1 .372-1.24 6.49 6.49 0 0 1 3.099-.779z"/></defs><g transform="translate(24 12)" fill="none" fill-rule="evenodd"><mask id="J" fill="#fff"><use xlink:href="#A"/></mask><g class="B"><use fill="#000" filter="url(#B)" xlink:href="#A"/><use fill="#fff" xlink:href="#A"/></g><g class="D"><g transform="translate(-6 23)"><g transform="translate(153 17)"><use fill="#000" filter="url(#D)" xlink:href="#C"/><use xlink:href="#C" class="F"/><use fill="#000" filter="url(#F)" xlink:href="#E"/><use xlink:href="#E" class="F"/><use fill="#000" filter="url(#H)" xlink:href="#G"/><use xlink:href="#G" class="F"/><g class="B E"><path d="M24.262 21.646c1.064 0 1.873-.403 2.424-1.208h.081l.3 1.062h1.348V10.104h-1.729v2.952c0 .337.042.796.125 1.377h0-.088c-.557-.786-1.367-1.179-2.432-1.179-1.016 0-1.81.37-2.384 1.11s-.861 1.774-.861 3.102.283 2.351.85 3.083 1.355 1.099 2.366 1.099zm.461-1.392c-.635 0-1.111-.236-1.428-.707s-.476-1.156-.476-2.054c0-.908.164-1.608.491-2.098a1.58 1.58 0 0 1 1.399-.736c.708 0 1.228.215 1.56.645s.498 1.155.498 2.175h0v.242c-.01.894-.176 1.539-.498 1.937s-.837.597-1.545.597zm9.69 1.392c.552 0 1.042-.042 1.472-.125s.854-.225 1.274-.425h0v-1.399c-.474.21-.917.36-1.329.45s-.858.135-1.337.135c-.728 0-1.292-.211-1.692-.634s-.613-1.027-.637-1.813h5.398v-.93c0-1.138-.31-2.031-.93-2.681s-1.465-.974-2.534-.974c-1.152 0-2.058.378-2.717 1.135s-.989 1.797-.989 3.12c0 1.289.355 2.301 1.066 3.036s1.696 1.102 2.955 1.102zm1.458-5.054h-3.677c.063-.664.26-1.169.59-1.516s.768-.52 1.315-.52.977.172 1.289.516.474.851.483 1.52h0zm7.354 4.907l3.091-8.101h-1.831l-1.648 4.709-.513 1.919h-.059c-.059-.488-.229-1.128-.513-1.919h0l-1.648-4.709h-1.816l3.076 8.101h1.86zm54.408.147c1.074 0 1.899-.211 2.476-.634s.864-1.029.864-1.82c0-.391-.073-.726-.22-1.007s-.371-.529-.674-.743-.789-.452-1.458-.71c-.796-.308-1.312-.549-1.549-.725s-.355-.391-.355-.645c0-.518.454-.776 1.362-.776.596 0 1.331.181 2.205.542h0l.557-1.296a6.46 6.46 0 0 0-2.703-.579c-.962 0-1.722.192-2.281.575s-.839.922-.839 1.615c0 .576.165 1.045.494 1.406s.961.723 1.893 1.084l1.121.498c.269.146.461.288.579.425a.76.76 0 0 1 .176.513c0 .64-.53.959-1.589.959-.82 0-1.707-.22-2.659-.659h0v1.487c.654.327 1.521.491 2.6.491zm7.808 0a5.07 5.07 0 0 0 .934-.084c.3-.056.546-.126.736-.209h0v-1.296c-.42.132-.84.198-1.26.198-.337 0-.609-.099-.817-.297s-.311-.504-.311-.919h0v-4.336h2.307v-1.304h-2.307v-1.802h-1.062l-.586 1.714-1.187.63v.762h1.106v4.365c0 1.719.815 2.578 2.446 2.578zm5.251 0c.62 0 1.128-.089 1.523-.267s.789-.514 1.179-1.007h.059l.344 1.128h1.23v-5.457c0-.962-.262-1.667-.787-2.117s-1.302-.674-2.333-.674a6.64 6.64 0 0 0-1.479.179 5.99 5.99 0 0 0-1.443.524h0l.557 1.23a9.01 9.01 0 0 1 1.099-.432 3.89 3.89 0 0 1 1.194-.183c.508 0 .883.128 1.124.385s.363.643.363 1.161h0v.432l-1.399.044c-1.27.039-2.214.271-2.834.696s-.93 1.055-.93 1.89c0 .786.223 1.394.67 1.824s1.068.645 1.864.645zm.542-1.318c-.43 0-.752-.099-.967-.297s-.322-.477-.322-.839c0-.498.184-.868.553-1.11s.958-.377 1.769-.406h0l1.04-.044v.703c0 .63-.189 1.119-.568 1.469s-.88.524-1.505.524zm8.533 4.775c1.431 0 2.524-.249 3.281-.747s1.135-1.206 1.135-2.124c0-.718-.232-1.267-.696-1.648s-1.143-.571-2.036-.571h0-1.414c-.464 0-.782-.046-.956-.139s-.26-.232-.26-.417c0-.308.186-.576.557-.806a3.86 3.86 0 0 0 .703.059c1.011 0 1.804-.239 2.38-.718s.864-1.135.864-1.97c0-.278-.042-.542-.125-.791s-.188-.459-.315-.63h0l1.384-.256V13.4h-2.805c-.127-.034-.316-.067-.568-.099s-.492-.048-.721-.048c-1.025 0-1.815.242-2.369.725s-.831 1.165-.831 2.043c0 .547.131 1.024.392 1.432s.602.702 1.022.883c-.337.205-.591.413-.762.623s-.256.466-.256.769c0 .239.074.468.223.685a1.29 1.29 0 0 0 .568.472c-.566.132-1.007.367-1.322.707s-.472.758-.472 1.256c0 .723.291 1.279.872 1.67s1.423.586 2.527.586zm.396-7.5c-.488 0-.863-.137-1.124-.41s-.392-.664-.392-1.172c0-.542.128-.955.385-1.238s.634-.425 1.132-.425.878.143 1.124.428.37.692.37 1.219c0 1.064-.498 1.597-1.494 1.597zm-.344 6.313c-.605 0-1.075-.1-1.41-.3s-.502-.486-.502-.857a1.14 1.14 0 0 1 .436-.941c.291-.232.682-.348 1.176-.348h1.304c.684 0 1.151.074 1.403.223s.377.399.377.751c0 .444-.229.801-.688 1.069s-1.157.403-2.095.403zm6.826-11.719c.303 0 .538-.084.707-.253s.253-.399.253-.692c0-.308-.084-.544-.253-.71s-.404-.249-.707-.249c-.312 0-.553.083-.721.249s-.253.403-.253.71c0 .293.084.524.253.692s.409.253.721.253zm.85 9.302v-8.101h-1.721V21.5h1.721zm4.182 0v-4.036c0-1.011.168-1.731.505-2.161s.869-.645 1.597-.645c.547 0 .946.154 1.198.461s.377.774.377 1.399h0v4.98h1.729v-5.281c0-1.978-.972-2.966-2.915-2.966-.547 0-1.045.105-1.494.315s-.796.508-1.04.894h0-.088l-.242-1.062h-1.348V21.5h1.721zm10.137 3.604c1.431 0 2.524-.249 3.281-.747s1.135-1.206 1.135-2.124c0-.718-.232-1.267-.696-1.648s-1.143-.571-2.036-.571h0-1.414c-.464 0-.782-.046-.956-.139s-.26-.232-.26-.417c0-.308.186-.576.557-.806a3.86 3.86 0 0 0 .703.059c1.011 0 1.804-.239 2.38-.718s.864-1.135.864-1.97c0-.278-.042-.542-.125-.791s-.188-.459-.315-.63h0l1.384-.256V13.4h-2.805c-.127-.034-.316-.067-.568-.099s-.492-.048-.721-.048c-1.025 0-1.815.242-2.369.725s-.831 1.165-.831 2.043c0 .547.131 1.024.392 1.432s.602.702 1.022.883c-.337.205-.591.413-.762.623s-.256.466-.256.769c0 .239.074.468.223.685a1.29 1.29 0 0 0 .568.472c-.566.132-1.007.367-1.322.707s-.472.758-.472 1.256c0 .723.291 1.279.872 1.67s1.423.586 2.527.586zm.396-7.5c-.488 0-.863-.137-1.124-.41s-.392-.664-.392-1.172c0-.542.128-.955.385-1.238s.634-.425 1.132-.425.878.143 1.124.428.37.692.37 1.219c0 1.064-.498 1.597-1.494 1.597zm-.344 6.313c-.605 0-1.075-.1-1.41-.3s-.502-.486-.502-.857a1.14 1.14 0 0 1 .436-.941c.291-.232.682-.348 1.176-.348h1.304c.684 0 1.151.074 1.403.223s.377.399.377.751c0 .444-.229.801-.688 1.069s-1.157.403-2.095.403zm56.386 1.188v-3.318c0-.146-.034-.562-.103-1.245h.103c.566.737 1.362 1.106 2.388 1.106 1.011 0 1.803-.371 2.377-1.113s.861-1.775.861-3.098-.282-2.351-.846-3.083-1.351-1.099-2.362-1.099c-1.074 0-1.88.41-2.417 1.23h0-.088l-.242-1.084h-1.392v11.704h1.721zm2-4.863c-.708 0-1.218-.221-1.531-.663s-.469-1.156-.469-2.142h0v-.256c0-.879.157-1.519.472-1.919s.814-.601 1.498-.601c.62 0 1.09.233 1.41.699s.48 1.154.48 2.062-.161 1.599-.483 2.087a1.55 1.55 0 0 1-1.377.732zm7.346 1.26v-4.233c0-.718.214-1.301.641-1.75s.985-.674 1.674-.674a3.23 3.23 0 0 1 .762.088h0l.168-1.604c-.225-.049-.51-.073-.857-.073a2.5 2.5 0 0 0-1.395.425 3.21 3.21 0 0 0-1.051 1.15h0-.088l-.227-1.428h-1.348V21.5h1.721zm8.079.146c1.211 0 2.156-.371 2.834-1.113s1.018-1.775 1.018-3.098c0-1.279-.342-2.296-1.025-3.051s-1.611-1.132-2.783-1.132c-1.226 0-2.175.369-2.849 1.106s-1.011 1.763-1.011 3.076c0 .845.156 1.587.469 2.227s.759 1.13 1.34 1.472 1.25.513 2.007.513zm.029-1.406c-1.382 0-2.073-.935-2.073-2.805 0-.894.162-1.58.487-2.058s.848-.718 1.571-.718c1.377 0 2.065.925 2.065 2.776 0 1.87-.684 2.805-2.051 2.805zm8.533 1.406c1.064 0 1.873-.403 2.424-1.208h.081l.3 1.062h1.348V10.104h-1.729v2.952c0 .337.042.796.125 1.377h0-.088c-.557-.786-1.367-1.179-2.432-1.179-1.016 0-1.81.37-2.384 1.11s-.861 1.774-.861 3.102.283 2.351.85 3.083 1.355 1.099 2.366 1.099zm.461-1.392c-.635 0-1.111-.236-1.428-.707s-.476-1.156-.476-2.054c0-.908.164-1.608.491-2.098a1.58 1.58 0 0 1 1.399-.736c.708 0 1.228.215 1.56.645s.498 1.155.498 2.175h0v.242c-.01.894-.176 1.539-.498 1.937s-.837.597-1.545.597zm9.001 1.392c.566 0 1.071-.107 1.512-.322s.782-.51 1.022-.886h.088l.242 1.062h1.355V13.4h-1.729v4.036c0 1.016-.17 1.74-.509 2.172s-.87.648-1.593.648c-.542 0-.94-.155-1.194-.465s-.381-.775-.381-1.395h0v-4.995h-1.736v5.295c0 .991.242 1.731.725 2.219s1.216.732 2.197.732zm9.939 0c.498 0 .922-.039 1.271-.117a3.4 3.4 0 0 0 .985-.388h0V19.64a4.4 4.4 0 0 1-2.175.571c-.674 0-1.185-.228-1.534-.685s-.524-1.139-.524-2.047c0-1.86.701-2.791 2.102-2.791.474 0 1.074.142 1.802.425h0l.52-1.384c-.684-.317-1.453-.476-2.307-.476-1.26 0-2.223.366-2.889 1.099s-1 1.78-1 3.142c0 1.338.319 2.365.956 3.08s1.569 1.073 2.794 1.073zm6.768 0a5.07 5.07 0 0 0 .934-.084c.3-.056.546-.126.736-.209h0v-1.296c-.42.132-.84.198-1.26.198-.337 0-.609-.099-.817-.297s-.311-.504-.311-.919h0v-4.336h2.307V13.4h-2.307v-1.802h-1.062l-.586 1.714-1.187.63v.762h1.106v4.365c0 1.719.815 2.578 2.446 2.578zm4.16-9.448c.303 0 .538-.084.707-.253s.253-.399.253-.692c0-.308-.084-.544-.253-.71s-.404-.249-.707-.249c-.312 0-.553.083-.721.249s-.253.403-.253.71c0 .293.084.524.253.692s.409.253.721.253zm.85 9.302V13.4h-1.721v8.1h1.721zm5.793.146c1.211 0 2.156-.371 2.834-1.113s1.018-1.775 1.018-3.098c0-1.279-.342-2.296-1.025-3.051s-1.611-1.132-2.783-1.132c-1.226 0-2.175.369-2.849 1.106s-1.011 1.763-1.011 3.076c0 .845.156 1.587.469 2.227s.759 1.13 1.34 1.472 1.25.513 2.007.513zm.029-1.406c-1.382 0-2.073-.935-2.073-2.805 0-.894.162-1.58.487-2.058s.848-.718 1.571-.718c1.377 0 2.065.925 2.065 2.776 0 1.87-.684 2.805-2.051 2.805zm7.522 1.26v-4.036c0-1.011.168-1.731.505-2.161s.869-.645 1.597-.645c.547 0 .946.154 1.198.461s.377.774.377 1.399h0v4.98h1.729v-5.281c0-1.978-.972-2.966-2.915-2.966-.547 0-1.045.105-1.494.315s-.796.508-1.04.894h0-.088l-.242-1.062h-1.348V21.5h1.721z"/></g></g><g class="E"><path d="M0 0h137v459H0z"/><path style="mix-blend-mode:multiply" opacity=".25" d="M0 123h137v48H0z"/></g><g class="B"><path d="M25.641 34v-1.113h-4.724v-3.94h4.438v-1.099h-4.438v-3.45h4.724v-1.106h-5.969V34h5.969zm3.406 0v-4.211c0-1.045.195-1.794.586-2.249s1.006-.681 1.846-.681c.635 0 1.101.161 1.399.483s.447.811.447 1.465h0V34h1.216v-5.237c0-1.025-.244-1.771-.732-2.238s-1.216-.699-2.183-.699c-.552 0-1.052.109-1.501.326s-.798.524-1.047.919h0-.059l-.198-1.099h-.989V34h1.216zm11.169 0l3.047-8.027H41.96l-.811 2.23-.1.275-.187.517-.825 2.299-.509 1.608h-.059c-.068-.332-.298-1.055-.688-2.168h0l-1.729-4.761h-1.304L38.796 34h1.421zm4.951-9.39a.71.71 0 0 0 .505-.201c.142-.134.212-.338.212-.612s-.071-.476-.212-.608-.31-.198-.505-.198c-.205 0-.376.065-.513.194s-.205.333-.205.612.068.477.205.612.308.201.513.201zm.601 9.39v-8.027h-1.216V34h1.216zm3.794 0v-4.307c0-.786.231-1.443.692-1.97s1.017-.791 1.666-.791c.254 0 .547.037.879.11h0l.168-1.128c-.283-.059-.603-.088-.959-.088-.503 0-.964.142-1.384.425s-.779.686-1.077 1.208h0-.059l-.139-1.487h-1.003V34h1.216zm8.115.146c1.162 0 2.073-.367 2.732-1.102s.989-1.757.989-3.065c0-1.274-.331-2.285-.992-3.032s-1.554-1.121-2.677-1.121c-1.162 0-2.07.365-2.725 1.095s-.981 1.749-.981 3.058c0 .845.151 1.582.454 2.212s.732 1.113 1.289 1.45 1.194.505 1.912.505zm.029-1.018c-.796 0-1.399-.269-1.809-.806s-.615-1.318-.615-2.344c0-1.035.203-1.814.608-2.336s1.006-.784 1.802-.784c.806 0 1.415.265 1.827.795s.619 1.305.619 2.325c0 1.03-.206 1.813-.619 2.347s-1.017.802-1.813.802zm7.039.872v-4.211c0-1.045.195-1.794.586-2.249s1.006-.681 1.846-.681c.635 0 1.101.161 1.399.483s.447.811.447 1.465h0V34h1.216v-5.237c0-1.025-.244-1.771-.732-2.238s-1.216-.699-2.183-.699c-.552 0-1.052.109-1.501.326s-.798.524-1.047.919h0-.059l-.198-1.099h-.989V34h1.216zm9.207 0v-4.211c0-1.04.177-1.788.531-2.245s.912-.685 1.674-.685c.581 0 1.008.16 1.282.48s.41.8.41 1.439h0V34h1.216v-4.482c0-.903.181-1.572.542-2.007s.92-.652 1.677-.652c.576 0 1.001.16 1.274.48s.41.8.41 1.439h0V34h1.216v-5.237c0-1.025-.226-1.771-.677-2.238s-1.132-.699-2.04-.699c-.581 0-1.099.122-1.553.366a2.56 2.56 0 0 0-1.04.996h0-.059c-.386-.908-1.206-1.362-2.461-1.362-.518 0-.985.11-1.403.33a2.39 2.39 0 0 0-.97.916h0-.059l-.198-1.099h-.989V34h1.216zm16.128.146c.542 0 1.005-.04 1.388-.121s.79-.214 1.219-.399h0v-1.084c-.845.361-1.699.542-2.563.542-.82 0-1.456-.244-1.908-.732s-.69-1.204-.714-2.146h5.53v-.769c0-1.084-.293-1.957-.879-2.618s-1.382-.992-2.388-.992c-1.074 0-1.93.381-2.567 1.143s-.956 1.79-.956 3.083c0 1.284.343 2.288 1.029 3.01s1.622 1.084 2.809 1.084zm1.648-4.929h-4.197c.068-.742.294-1.323.677-1.743s.897-.63 1.542-.63c.635 0 1.123.204 1.465.612s.513.995.513 1.761h0zM96.32 34v-4.211c0-1.045.195-1.794.586-2.249s1.006-.681 1.846-.681c.635 0 1.101.161 1.399.483s.447.811.447 1.465h0V34h1.216v-5.237c0-1.025-.244-1.771-.732-2.238s-1.216-.699-2.183-.699c-.552 0-1.052.109-1.501.326s-.798.524-1.047.919h0-.059l-.198-1.099h-.989V34h1.216zm10.408.146c.205 0 .436-.021.692-.062s.45-.094.582-.157h0v-.93a4.03 4.03 0 0 1-.476.099 3.97 3.97 0 0 1-.623.048c-.4 0-.715-.129-.945-.388s-.344-.63-.344-1.113h0v-4.724h2.329v-.945h-2.329v-1.86h-.703l-.513 1.714-1.15.505v.586h1.15v4.775c0 1.636.776 2.454 2.329 2.454zm-84.822 40c1.172 0 2.1-.264 2.783-.791s1.025-1.262 1.025-2.205c0-.732-.211-1.328-.634-1.787s-1.195-.889-2.318-1.289c-.669-.239-1.166-.458-1.49-.656s-.555-.415-.692-.652-.205-.541-.205-.912c0-.503.186-.896.557-1.179s.886-.425 1.545-.425c.835 0 1.694.186 2.578.557h0l.388-1.084c-.894-.391-1.873-.586-2.937-.586-1.021 0-1.841.244-2.461.732s-.93 1.145-.93 1.97c0 .786.214 1.423.641 1.912s1.139.911 2.135 1.267c.713.254 1.244.481 1.593.681s.598.419.747.656.223.541.223.912c0 .562-.21 1-.63 1.315s-1.045.472-1.875.472c-.508 0-1.021-.054-1.538-.161s-.996-.254-1.436-.439h0v1.201c.684.327 1.66.491 2.93.491zm9.207 0c.542 0 1.005-.04 1.388-.121s.79-.214 1.219-.399h0v-1.084c-.845.361-1.699.542-2.563.542-.82 0-1.456-.244-1.908-.732s-.69-1.204-.714-2.146h5.53v-.769c0-1.084-.293-1.957-.879-2.618s-1.382-.992-2.388-.992c-1.074 0-1.93.381-2.567 1.143s-.956 1.79-.956 3.083c0 1.284.343 2.288 1.029 3.01s1.622 1.084 2.809 1.084zm1.648-4.929h-4.197c.068-.742.294-1.323.677-1.743s.897-.63 1.542-.63c.635 0 1.123.204 1.465.612s.513.995.513 1.761h0zM37.353 74v-4.307c0-.786.231-1.443.692-1.97s1.017-.791 1.666-.791c.254 0 .547.037.879.11h0l.168-1.128c-.283-.059-.603-.088-.959-.088-.503 0-.964.142-1.384.425s-.779.686-1.077 1.208h0-.059l-.139-1.487h-1.003V74h1.216zm8.086 0l3.047-8.027h-1.304l-.811 2.23-.195.539-.916 2.552-.509 1.608h-.059c-.068-.332-.298-1.055-.688-2.168h0l-1.729-4.761h-1.304L44.018 74h1.421zm4.951-9.39a.71.71 0 0 0 .505-.201c.142-.134.212-.338.212-.612s-.071-.476-.212-.608-.31-.198-.505-.198c-.205 0-.376.065-.513.194s-.205.333-.205.612.068.477.205.612.308.201.513.201zm.601 9.39v-8.027h-1.216V74h1.216zm5.786.146c.815 0 1.492-.139 2.029-.417h0v-1.077c-.703.288-1.389.432-2.058.432-.781 0-1.371-.264-1.769-.791s-.597-1.284-.597-2.271c0-2.08.815-3.12 2.446-3.12.244 0 .525.035.842.106s.61.16.879.267h0l.374-1.033c-.22-.112-.522-.21-.908-.293s-.771-.125-1.157-.125c-1.196 0-2.118.366-2.765 1.099s-.97 1.77-.97 3.113c0 1.309.319 2.321.956 3.036s1.537 1.073 2.699 1.073zm7.324 0c.542 0 1.005-.04 1.388-.121s.79-.214 1.219-.399h0v-1.084c-.845.361-1.699.542-2.563.542-.82 0-1.456-.244-1.908-.732s-.69-1.204-.714-2.146h5.53v-.769c0-1.084-.293-1.957-.879-2.618s-1.382-.992-2.388-.992c-1.074 0-1.93.381-2.567 1.143s-.956 1.79-.956 3.083c0 1.284.343 2.288 1.029 3.01s1.622 1.084 2.809 1.084zm1.648-4.929h-4.197c.068-.742.294-1.323.677-1.743s.897-.63 1.542-.63c.635 0 1.123.204 1.465.612s.513.995.513 1.761h0zm5.376 4.929c1.006 0 1.787-.203 2.344-.608s.835-.981.835-1.729c0-.532-.167-.974-.502-1.326s-.978-.701-1.93-1.047l-1.406-.593c-.244-.137-.421-.281-.531-.432a.91.91 0 0 1-.165-.549c0-.317.146-.566.439-.747s.728-.271 1.304-.271c.654 0 1.384.166 2.19.498h0l.432-.989c-.825-.352-1.67-.527-2.534-.527-.928 0-1.658.189-2.19.568a1.8 1.8 0 0 0-.798 1.549c0 .366.077.681.231.945s.388.499.703.707.846.45 1.593.729c.786.303 1.315.565 1.586.787s.406.49.406.802c0 .415-.171.724-.513.927s-.83.304-1.465.304c-.41 0-.836-.056-1.278-.168s-.856-.266-1.241-.461h0v1.128c.596.337 1.426.505 2.49.505zm-49.219 40c1.172 0 2.1-.264 2.783-.791s1.025-1.262 1.025-2.205c0-.732-.211-1.328-.634-1.787s-1.195-.889-2.318-1.289c-.669-.239-1.166-.458-1.49-.656s-.555-.415-.692-.652-.205-.541-.205-.912c0-.503.186-.896.557-1.179s.886-.425 1.545-.425c.835 0 1.694.186 2.578.557h0l.388-1.084c-.894-.391-1.873-.586-2.937-.586-1.021 0-1.841.244-2.461.732s-.93 1.145-.93 1.97c0 .786.214 1.423.641 1.912s1.139.911 2.135 1.267c.713.254 1.244.481 1.593.681s.598.419.747.656.223.541.223.912c0 .562-.21 1-.63 1.315s-1.045.472-1.875.472c-.508 0-1.021-.054-1.538-.161s-.996-.254-1.436-.439h0v1.201c.684.327 1.66.491 2.93.491zM33.874 114v-1.128H29.15v-9.58h-1.245V114h5.969zm6.196.146c1.543 0 2.748-.491 3.615-1.472s1.3-2.329 1.3-4.043-.432-3.066-1.296-4.043-2.065-1.465-3.604-1.465c-1.582 0-2.803.48-3.662 1.439s-1.289 2.311-1.289 4.054c0 1.758.428 3.119 1.285 4.083s2.074 1.447 3.651 1.447zm0-1.091c-1.177 0-2.074-.375-2.692-1.124s-.927-1.849-.927-3.3c0-1.431.309-2.521.927-3.27s1.52-1.124 2.706-1.124 2.074.372 2.677 1.117.905 1.837.905 3.278c0 1.455-.303 2.556-.908 3.303s-1.501 1.121-2.688 1.121zm9.119 1.091c1.006 0 1.787-.203 2.344-.608s.835-.981.835-1.729c0-.532-.167-.974-.502-1.326s-.978-.701-1.93-1.047l-1.406-.593c-.244-.137-.421-.281-.531-.432a.91.91 0 0 1-.165-.549c0-.317.146-.566.439-.747s.728-.271 1.304-.271c.654 0 1.384.166 2.19.498h0l.432-.989c-.825-.352-1.67-.527-2.534-.527-.928 0-1.658.189-2.19.568a1.8 1.8 0 0 0-.798 1.549c0 .366.077.681.231.945s.388.499.703.707.846.45 1.593.729c.786.303 1.315.565 1.586.787s.406.49.406.802c0 .415-.171.724-.513.927s-.83.304-1.465.304c-.41 0-.836-.056-1.278-.168s-.856-.266-1.241-.461h0v1.128c.596.337 1.426.505 2.49.505zM20.917 154v-4.453h2.234L25.744 154h1.472l-2.908-4.812c1.436-.498 2.153-1.455 2.153-2.871 0-1.011-.314-1.768-.941-2.271s-1.598-.754-2.911-.754h0-2.937V154h1.245zm1.707-5.522h-1.707v-4.094h1.619c.923 0 1.593.156 2.01.469s.626.823.626 1.531c0 .698-.205 1.222-.615 1.571s-1.055.524-1.934.524h0zm9.529 5.669c.542 0 1.005-.04 1.388-.121s.79-.214 1.219-.399h0v-1.084c-.845.361-1.699.542-2.563.542-.82 0-1.456-.244-1.908-.732s-.69-1.204-.714-2.146h5.53v-.769c0-1.084-.293-1.957-.879-2.618s-1.382-.992-2.388-.992c-1.074 0-1.93.381-2.567 1.143s-.956 1.79-.956 3.083c0 1.284.343 2.288 1.029 3.01s1.622 1.084 2.809 1.084zm1.648-4.929h-4.197c.068-.742.294-1.323.677-1.743s.897-.63 1.542-.63c.635 0 1.123.204 1.465.612s.513.995.513 1.761h0zM38.393 154v-4.211c0-1.04.177-1.788.531-2.245s.912-.685 1.674-.685c.581 0 1.008.16 1.282.48s.41.8.41 1.439h0V154h1.216v-4.482c0-.903.181-1.572.542-2.007s.92-.652 1.677-.652c.576 0 1.001.16 1.274.48s.41.8.41 1.439h0V154h1.216v-5.237c0-1.025-.226-1.771-.677-2.238s-1.132-.699-2.04-.699c-.581 0-1.099.122-1.553.366a2.56 2.56 0 0 0-1.04.996h0-.059c-.386-.908-1.206-1.362-2.461-1.362-.518 0-.985.11-1.403.33a2.39 2.39 0 0 0-.97.916h0-.059l-.198-1.099h-.989V154h1.216zm16.128.146c.542 0 1.005-.04 1.388-.121s.79-.214 1.219-.399h0v-1.084c-.845.361-1.699.542-2.563.542-.82 0-1.456-.244-1.908-.732s-.69-1.204-.714-2.146h5.53v-.769c0-1.084-.293-1.957-.879-2.618s-1.382-.992-2.388-.992c-1.074 0-1.93.381-2.567 1.143s-.956 1.79-.956 3.083c0 1.284.343 2.288 1.029 3.01s1.622 1.084 2.809 1.084zm1.648-4.929h-4.197c.068-.742.294-1.323.677-1.743s.897-.63 1.542-.63c.635 0 1.123.204 1.465.612s.513.995.513 1.761h0zm6.255 4.929c1.118 0 1.958-.408 2.52-1.223h.066L65.17 154h.989v-11.396h-1.216v3.267l.029.564.051.579h-.095c-.581-.791-1.416-1.187-2.505-1.187-1.045 0-1.86.366-2.446 1.099s-.879 1.76-.879 3.083.292 2.344.875 3.062 1.4 1.077 2.45 1.077zm.154-1.018c-.728 0-1.279-.261-1.655-.784s-.564-1.296-.564-2.322c0-1.011.189-1.793.568-2.347s.924-.831 1.637-.831c.83 0 1.434.243 1.813.729s.568 1.298.568 2.435h0v.256c0 1.006-.187 1.735-.56 2.186s-.975.677-1.805.677zm6.775-8.518a.71.71 0 0 0 .505-.201c.142-.134.212-.338.212-.612s-.071-.476-.212-.608-.31-.198-.505-.198c-.205 0-.376.065-.513.194s-.205.333-.205.612.068.477.205.612.308.201.513.201zm.601 9.39v-8.027h-1.216V154h1.216zm4.526.146c.596 0 1.093-.089 1.49-.267s.797-.519 1.198-1.022h.059l.242 1.143h.901v-5.479c0-.937-.231-1.619-.692-2.043s-1.171-.637-2.128-.637a5.63 5.63 0 0 0-1.417.183c-.471.122-.905.291-1.3.505h0l.374.93c.845-.41 1.602-.615 2.271-.615.596 0 1.029.15 1.3.45s.406.765.406 1.395h0v.498l-1.362.044c-2.593.078-3.889.928-3.889 2.549 0 .757.226 1.34.677 1.75s1.075.615 1.871.615zm.242-1.003c-.479 0-.851-.115-1.117-.344s-.399-.564-.399-1.003c0-.562.214-.975.641-1.241s1.124-.416 2.091-.45h0l1.216-.051v.725c0 .747-.216 1.328-.648 1.743s-1.027.623-1.783.623zm8.569 1.003c.205 0 .436-.021.692-.062s.45-.094.582-.157h0v-.93a4.03 4.03 0 0 1-.476.099 3.97 3.97 0 0 1-.623.048c-.4 0-.715-.129-.945-.388s-.344-.63-.344-1.113h0v-4.724h2.329v-.945h-2.329v-1.86h-.703l-.513 1.714-1.15.505v.586h1.15v4.775c0 1.636.776 2.454 2.329 2.454zm3.494-9.536a.71.71 0 0 0 .505-.201c.142-.134.212-.338.212-.612s-.071-.476-.212-.608-.31-.198-.505-.198c-.205 0-.376.065-.513.194s-.205.333-.205.612.068.477.205.612.308.201.513.201zm.601 9.39v-8.027h-1.216V154h1.216zm5.786.146c1.162 0 2.073-.367 2.732-1.102s.989-1.757.989-3.065c0-1.274-.331-2.285-.992-3.032s-1.554-1.121-2.677-1.121c-1.162 0-2.07.365-2.725 1.095s-.981 1.749-.981 3.058c0 .845.151 1.582.454 2.212s.732 1.113 1.289 1.45 1.194.505 1.912.505zm.029-1.018c-.796 0-1.399-.269-1.809-.806s-.615-1.318-.615-2.344c0-1.035.203-1.814.608-2.336s1.006-.784 1.802-.784c.806 0 1.415.265 1.827.795s.619 1.305.619 2.325c0 1.03-.206 1.813-.619 2.347s-1.017.802-1.813.802zm7.039.872v-4.211c0-1.045.195-1.794.586-2.249s1.006-.681 1.846-.681c.635 0 1.101.161 1.399.483s.447.811.447 1.465h0V154h1.216v-5.237c0-1.025-.244-1.771-.732-2.238s-1.216-.699-2.183-.699c-.552 0-1.052.109-1.501.326s-.798.524-1.047.919h0-.059l-.198-1.099h-.989V154h1.216zm9.99.146c1.006 0 1.787-.203 2.344-.608s.835-.981.835-1.729c0-.532-.167-.974-.502-1.326s-.978-.701-1.93-1.047l-1.406-.593c-.244-.137-.421-.281-.531-.432a.91.91 0 0 1-.165-.549c0-.317.146-.566.439-.747s.728-.271 1.304-.271c.654 0 1.384.166 2.19.498h0l.432-.989c-.825-.352-1.67-.527-2.534-.527-.928 0-1.658.189-2.19.568a1.8 1.8 0 0 0-.798 1.549c0 .366.077.681.231.945s.388.499.703.707.846.45 1.593.729c.786.303 1.315.565 1.586.787s.406.49.406.802c0 .415-.171.724-.513.927s-.83.304-1.465.304c-.41 0-.836-.056-1.278-.168s-.856-.266-1.241-.461h0v1.128c.596.337 1.426.505 2.49.505zM20.917 194v-10.708h-1.245V194h1.245zm3.97 0v-4.211c0-1.045.195-1.794.586-2.249s1.006-.681 1.846-.681c.635 0 1.101.161 1.399.483s.447.811.447 1.465h0V194h1.216v-5.237c0-1.025-.244-1.771-.732-2.238s-1.216-.699-2.183-.699c-.552 0-1.052.109-1.501.326s-.798.524-1.047.919h0-.059l-.198-1.099h-.989V194h1.216zm10.408.146c.205 0 .436-.021.692-.062s.45-.094.582-.157h0v-.93a4.03 4.03 0 0 1-.476.099 3.97 3.97 0 0 1-.623.048c-.4 0-.715-.129-.945-.388s-.344-.63-.344-1.113h0v-4.724h2.329v-.945h-2.329v-1.86h-.703l-.513 1.714-1.15.505v.586h1.15v4.775c0 1.636.776 2.454 2.329 2.454zm6.27 0c.542 0 1.005-.04 1.388-.121s.79-.214 1.219-.399h0v-1.084c-.845.361-1.699.542-2.563.542-.82 0-1.456-.244-1.908-.732s-.69-1.204-.714-2.146h5.53v-.769c0-1.084-.293-1.957-.879-2.618s-1.382-.992-2.388-.992c-1.074 0-1.93.381-2.567 1.143s-.956 1.79-.956 3.083c0 1.284.343 2.288 1.029 3.01s1.622 1.084 2.809 1.084zm1.648-4.929h-4.197c.068-.742.294-1.323.677-1.743s.897-.63 1.542-.63c.635 0 1.123.204 1.465.612s.513.995.513 1.761h0zm5.654 8.386c1.367 0 2.407-.233 3.12-.699s1.069-1.144 1.069-2.032c0-.698-.233-1.23-.699-1.597s-1.134-.549-2.003-.549h0-1.421c-.439 0-.75-.052-.93-.157s-.271-.267-.271-.487c0-.415.259-.759.776-1.033.21.039.435.059.674.059.938 0 1.675-.234 2.212-.703s.806-1.096.806-1.882c0-.347-.054-.658-.161-.934s-.229-.499-.366-.67h0l1.487-.176v-.769h-2.776c-.337-.098-.715-.146-1.135-.146-.967 0-1.714.238-2.241.714s-.791 1.154-.791 2.032a2.56 2.56 0 0 0 .392 1.406c.261.41.599.701 1.014.872-.337.205-.583.417-.74.637s-.234.476-.234.769c0 .259.07.486.209.681a1.27 1.27 0 0 0 .516.432c-.566.127-1.006.369-1.318.725s-.469.779-.469 1.267c0 .713.284 1.265.853 1.655s1.378.586 2.428.586zm.352-7.354c-.566 0-1.008-.144-1.326-.432s-.476-.713-.476-1.274c0-.605.154-1.062.461-1.37s.747-.461 1.318-.461c1.201 0 1.802.603 1.802 1.809 0 1.152-.593 1.729-1.78 1.729zm-.337 6.423c-.684 0-1.208-.112-1.575-.337s-.549-.554-.549-.989c0-.493.154-.872.461-1.135s.737-.396 1.289-.396h1.458c.742 0 1.248.084 1.516.253s.403.47.403.905c0 .522-.245.936-.736 1.241s-1.246.458-2.267.458zM56.022 194v-4.307c0-.786.231-1.443.692-1.97s1.017-.791 1.666-.791c.254 0 .547.037.879.11h0l.168-1.128c-.283-.059-.603-.088-.959-.088-.503 0-.964.142-1.384.425s-.779.686-1.077 1.208h0-.059l-.139-1.487h-1.003V194h1.216zm6.855.146c.596 0 1.093-.089 1.49-.267s.797-.519 1.198-1.022h.059l.242 1.143h.901v-5.479c0-.937-.231-1.619-.692-2.043s-1.171-.637-2.128-.637a5.63 5.63 0 0 0-1.417.183c-.471.122-.905.291-1.3.505h0l.374.93c.845-.41 1.602-.615 2.271-.615.596 0 1.029.15 1.3.45s.406.765.406 1.395h0v.498l-1.362.044c-2.593.078-3.889.928-3.889 2.549 0 .757.226 1.34.677 1.75s1.075.615 1.871.615zm.242-1.003c-.479 0-.851-.115-1.117-.344s-.399-.564-.399-1.003c0-.562.214-.975.641-1.241s1.124-.416 2.091-.45h0l1.216-.051v.725c0 .747-.216 1.328-.648 1.743s-1.027.623-1.783.623zm8.569 1.003c.205 0 .436-.021.692-.062s.45-.094.582-.157h0v-.93a4.03 4.03 0 0 1-.476.099 3.97 3.97 0 0 1-.623.048c-.4 0-.715-.129-.945-.388s-.344-.63-.344-1.113h0v-4.724h2.329v-.945h-2.329v-1.86h-.703l-.513 1.714-1.15.505v.586h1.15v4.775c0 1.636.776 2.454 2.329 2.454zm3.494-9.536a.71.71 0 0 0 .505-.201c.142-.134.212-.338.212-.612s-.071-.476-.212-.608-.31-.198-.505-.198c-.205 0-.376.065-.513.194s-.205.333-.205.612.068.477.205.612.308.201.513.201zm.601 9.39v-8.027h-1.216V194h1.216zm5.786.146c1.162 0 2.073-.367 2.732-1.102s.989-1.757.989-3.065c0-1.274-.331-2.285-.992-3.032s-1.554-1.121-2.677-1.121c-1.162 0-2.07.365-2.725 1.095s-.981 1.749-.981 3.058c0 .845.151 1.582.454 2.212s.732 1.113 1.289 1.45 1.194.505 1.912.505zm.029-1.018c-.796 0-1.399-.269-1.809-.806s-.615-1.318-.615-2.344c0-1.035.203-1.814.608-2.336s1.006-.784 1.802-.784c.806 0 1.415.265 1.827.795s.619 1.305.619 2.325c0 1.03-.206 1.813-.619 2.347s-1.017.802-1.813.802zm7.039.872v-4.211c0-1.045.195-1.794.586-2.249s1.006-.681 1.846-.681c.635 0 1.101.161 1.399.483s.447.811.447 1.465h0V194h1.216v-5.237c0-1.025-.244-1.771-.732-2.238s-1.216-.699-2.183-.699c-.552 0-1.052.109-1.501.326s-.798.524-1.047.919h0-.059l-.198-1.099h-.989V194h1.216zm9.99.146c1.006 0 1.787-.203 2.344-.608s.835-.981.835-1.729c0-.532-.167-.974-.502-1.326s-.978-.701-1.93-1.047l-1.406-.593c-.244-.137-.421-.281-.531-.432a.91.91 0 0 1-.165-.549c0-.317.146-.566.439-.747s.728-.271 1.304-.271c.654 0 1.384.166 2.19.498h0l.432-.989c-.825-.352-1.67-.527-2.534-.527-.928 0-1.658.189-2.19.568a1.8 1.8 0 0 0-.798 1.549c0 .366.077.681.231.945s.388.499.703.707.846.45 1.593.729c.786.303 1.315.565 1.586.787s.406.49.406.802c0 .415-.171.724-.513.927s-.83.304-1.465.304c-.41 0-.836-.056-1.278-.168s-.856-.266-1.241-.461h0v1.128c.596.337 1.426.505 2.49.505z" fill="#fff"/><path d="M156.417 85v-4.62h1.867l2.769 4.62h2.152l-3.267-5.118c1.498-.612 2.246-1.637 2.246-3.077 0-1.129-.359-1.972-1.076-2.531s-1.822-.838-3.314-.838h0-3.267V85h1.891zm1.313-6.186h-1.313v-3.781h1.25c.86 0 1.503.142 1.93.427s.641.754.641 1.408c0 .643-.198 1.129-.593 1.455s-1.034.49-1.914.49h0zm10.774 6.344a8.44 8.44 0 0 0 1.59-.134c.464-.09.923-.243 1.376-.459h0v-1.511c-.512.227-.99.389-1.436.486s-.927.146-1.444.146c-.786 0-1.395-.228-1.827-.684s-.662-1.109-.688-1.958h5.83V80.04c0-1.229-.335-2.194-1.005-2.895s-1.582-1.052-2.737-1.052c-1.245 0-2.223.409-2.935 1.226s-1.068 1.941-1.068 3.37c0 1.392.384 2.485 1.151 3.279s1.831 1.19 3.192 1.19zm1.574-5.458h-3.971c.069-.717.281-1.263.637-1.637s.829-.562 1.42-.562 1.055.186 1.392.558.512.919.522 1.641h0zm7.467 5.458c.538 0 .995-.042 1.372-.127a3.67 3.67 0 0 0 1.064-.419h0v-1.622c-.738.411-1.521.617-2.349.617-.728 0-1.28-.247-1.657-.74s-.566-1.23-.566-2.211c0-2.009.757-3.014 2.27-3.014.512 0 1.16.153 1.946.459h0l.562-1.495c-.738-.343-1.569-.514-2.492-.514-1.361 0-2.401.396-3.121 1.187s-1.08 1.922-1.08 3.393c0 1.445.344 2.554 1.032 3.326s1.694 1.159 3.018 1.159zm8.314 0a8.44 8.44 0 0 0 1.59-.134c.464-.09.923-.243 1.376-.459h0v-1.511c-.512.227-.99.389-1.436.486s-.927.146-1.444.146c-.786 0-1.395-.228-1.827-.684s-.662-1.109-.688-1.958h5.83V80.04c0-1.229-.335-2.194-1.005-2.895s-1.582-1.052-2.737-1.052c-1.245 0-2.223.409-2.935 1.226s-1.068 1.941-1.068 3.37c0 1.392.384 2.485 1.151 3.279s1.831 1.19 3.192 1.19zm1.574-5.458h-3.971c.069-.717.281-1.263.637-1.637s.829-.562 1.42-.562 1.055.186 1.392.558.512.919.522 1.641h0zm5.798 5.3v-4.358c0-1.092.182-1.869.546-2.333s.939-.696 1.724-.696c.591 0 1.022.166 1.293.498s.407.836.407 1.511h0V85h1.867v-5.703c0-2.136-1.049-3.204-3.148-3.204-.591 0-1.129.113-1.614.34s-.86.548-1.123.965h0-.095l-.261-1.147h-1.455V85h1.859zm11.24.158c.348 0 .684-.03 1.009-.091s.589-.136.795-.225h0v-1.4a4.52 4.52 0 0 1-1.361.214c-.364 0-.658-.107-.882-.32s-.336-.544-.336-.993h0v-4.683h2.492v-1.408h-2.492v-1.946h-1.147l-.633 1.851-1.281.68v.823h1.194v4.714c0 1.856.881 2.784 2.642 2.784zm10.03 0c1.16 0 2.051-.228 2.674-.684s.933-1.111.933-1.966c0-.422-.079-.784-.237-1.088s-.401-.571-.728-.803-.852-.488-1.574-.767c-.86-.332-1.417-.593-1.673-.783s-.384-.422-.384-.696c0-.559.49-.838 1.471-.838.643 0 1.437.195 2.381.585h0l.601-1.4a6.98 6.98 0 0 0-2.919-.625c-1.039 0-1.86.207-2.464.621s-.906.995-.906 1.744c0 .622.178 1.129.534 1.519s1.038.78 2.045 1.171l1.21.538c.29.158.498.311.625.459a.82.82 0 0 1 .19.554c0 .691-.572 1.036-1.717 1.036-.886 0-1.843-.237-2.871-.712h0v1.606c.707.353 1.643.53 2.808.53zm9.437 0a8.44 8.44 0 0 0 1.59-.134c.464-.09.923-.243 1.376-.459h0v-1.511c-.512.227-.99.389-1.436.486s-.927.146-1.444.146c-.786 0-1.395-.228-1.827-.684s-.662-1.109-.688-1.958h5.83V80.04c0-1.229-.335-2.194-1.005-2.895s-1.582-1.052-2.737-1.052c-1.245 0-2.223.409-2.935 1.226s-1.068 1.941-1.068 3.37c0 1.392.384 2.485 1.151 3.279s1.831 1.19 3.192 1.19zm1.574-5.458h-3.971c.069-.717.281-1.263.637-1.637s.829-.562 1.42-.562 1.055.186 1.392.558.512.919.522 1.641h0zm11.375 9.192v-12.64h-1.542l-.206 1.147h-.063c-.343-.464-.732-.798-1.167-1.001s-.927-.305-1.475-.305c-1.092 0-1.949.402-2.571 1.206s-.933 1.918-.933 3.342.306 2.533.918 3.326 1.458 1.19 2.539 1.19c1.197 0 2.07-.435 2.618-1.305h.103l-.055.593-.032.736v3.71h1.867zm-3.971-5.221c-1.382 0-2.072-.999-2.072-2.998 0-.986.174-1.743.522-2.27s.854-.791 1.519-.791c.78 0 1.346.237 1.697.712s.526 1.252.526 2.333h0v.293c0 .912-.17 1.594-.51 2.045s-.9.676-1.681.676zm9.706 1.487c.612 0 1.156-.116 1.633-.348s.845-.551 1.103-.957h.095l.261 1.147h1.463v-8.749h-1.867v4.358c0 1.097-.183 1.879-.55 2.345s-.94.7-1.72.7c-.585 0-1.015-.167-1.289-.502s-.411-.837-.411-1.507h0v-5.395h-1.875v5.719c0 1.071.261 1.869.783 2.397s1.313.791 2.373.791zm11.027 0a8.44 8.44 0 0 0 1.59-.134c.464-.09.923-.243 1.376-.459h0v-1.511c-.512.227-.99.389-1.436.486s-.927.146-1.444.146c-.786 0-1.395-.228-1.827-.684s-.662-1.109-.688-1.958h5.83V80.04c0-1.229-.335-2.194-1.005-2.895s-1.582-1.052-2.737-1.052c-1.245 0-2.223.409-2.935 1.226s-1.068 1.941-1.068 3.37c0 1.392.384 2.485 1.151 3.279s1.831 1.19 3.192 1.19zm1.574-5.458h-3.971c.069-.717.281-1.263.637-1.637s.829-.562 1.42-.562 1.055.186 1.392.558.512.919.522 1.641h0zm5.798 5.3v-4.358c0-1.092.182-1.869.546-2.333s.939-.696 1.724-.696c.591 0 1.022.166 1.293.498s.407.836.407 1.511h0V85h1.867v-5.703c0-2.136-1.049-3.204-3.148-3.204-.591 0-1.129.113-1.614.34s-.86.548-1.123.965h0-.095l-.261-1.147h-1.455V85h1.859zm11.952.158c.538 0 .995-.042 1.372-.127a3.67 3.67 0 0 0 1.064-.419h0v-1.622c-.738.411-1.521.617-2.349.617-.728 0-1.28-.247-1.657-.74s-.566-1.23-.566-2.211c0-2.009.757-3.014 2.27-3.014.512 0 1.16.153 1.946.459h0l.562-1.495c-.738-.343-1.569-.514-2.492-.514-1.361 0-2.401.396-3.121 1.187s-1.08 1.922-1.08 3.393c0 1.445.344 2.554 1.032 3.326s1.694 1.159 3.018 1.159zm8.314 0a8.44 8.44 0 0 0 1.59-.134c.464-.09.923-.243 1.376-.459h0v-1.511c-.512.227-.99.389-1.436.486s-.927.146-1.444.146c-.786 0-1.395-.228-1.827-.684s-.662-1.109-.688-1.958h5.83V80.04c0-1.229-.335-2.194-1.005-2.895s-1.582-1.052-2.737-1.052c-1.245 0-2.223.409-2.935 1.226s-1.068 1.941-1.068 3.37c0 1.392.384 2.485 1.151 3.279s1.831 1.19 3.192 1.19zm1.574-5.458h-3.971c.069-.717.281-1.263.637-1.637s.829-.562 1.42-.562 1.055.186 1.392.558.512.919.522 1.641h0zm6.209 5.458c1.16 0 2.051-.228 2.674-.684s.933-1.111.933-1.966c0-.422-.079-.784-.237-1.088s-.401-.571-.728-.803-.852-.488-1.574-.767c-.86-.332-1.417-.593-1.673-.783s-.384-.422-.384-.696c0-.559.49-.838 1.471-.838.643 0 1.437.195 2.381.585h0l.601-1.4a6.98 6.98 0 0 0-2.919-.625c-1.039 0-1.86.207-2.464.621s-.906.995-.906 1.744c0 .622.178 1.129.534 1.519s1.038.78 2.045 1.171l1.21.538c.29.158.498.311.625.459a.82.82 0 0 1 .19.554c0 .691-.572 1.036-1.717 1.036-.886 0-1.843-.237-2.871-.712h0v1.606c.707.353 1.643.53 2.808.53z" class="E"/></g><rect x="183" y="109" width="105" height="16" rx="8" class="C G"/><g fill="#333" class="B"><path d="M367.475 120v-1.289h-3.732v-2.914h3.498v-1.27h-3.498v-2.526h3.732v-1.282h-5.25V120h5.25zm4.859 0l2.679-7.021h-1.587l-1.428 4.082-.444 1.663h-.051c-.051-.423-.199-.978-.444-1.663h0l-1.428-4.082h-1.574l2.666 7.021h1.612zm5.246.127c.537 0 .978-.077 1.32-.232s.683-.445 1.022-.873h.051l.298.978h1.066v-4.729c0-.834-.227-1.445-.682-1.834s-1.129-.584-2.022-.584c-.402 0-.829.052-1.282.156a5.19 5.19 0 0 0-1.25.454h0l.482 1.066a7.81 7.81 0 0 1 .952-.375 3.37 3.37 0 0 1 1.035-.159c.44 0 .765.111.974.333s.314.558.314 1.006h0v.375l-1.212.038c-1.1.034-1.919.235-2.457.603s-.806.914-.806 1.638c0 .681.194 1.208.581 1.581s.926.559 1.615.559zm.47-1.143c-.372 0-.652-.086-.838-.257s-.279-.414-.279-.727c0-.432.16-.752.479-.962s.83-.327 1.533-.352h0l.901-.038v.609c0 .546-.164.97-.492 1.273s-.763.454-1.304.454zm6.662 1.016v-9.877h-1.492V120h1.492zm4.402.127c.491 0 .928-.093 1.311-.279a2.11 2.11 0 0 0 .885-.768h.076l.209.92h1.174v-7.021h-1.498v3.498c0 .88-.147 1.508-.441 1.882s-.754.562-1.381.562c-.47 0-.815-.134-1.035-.403s-.33-.672-.33-1.209h0v-4.329h-1.504v4.589c0 .859.209 1.5.628 1.923s1.054.635 1.904.635zm7.284 0c.537 0 .978-.077 1.32-.232s.683-.445 1.022-.873h.051l.298.978h1.066v-4.729c0-.834-.227-1.445-.682-1.834s-1.129-.584-2.022-.584c-.402 0-.829.052-1.282.156a5.19 5.19 0 0 0-1.25.454h0l.482 1.066a7.81 7.81 0 0 1 .952-.375 3.37 3.37 0 0 1 1.035-.159c.44 0 .765.111.974.333s.314.558.314 1.006h0v.375l-1.212.038c-1.1.034-1.919.235-2.457.603s-.806.914-.806 1.638c0 .681.194 1.208.581 1.581s.926.559 1.615.559zm.47-1.143c-.372 0-.652-.086-.838-.257s-.279-.414-.279-.727c0-.432.16-.752.479-.962s.83-.327 1.533-.352h0l.901-.038v.609c0 .546-.164.97-.492 1.273s-.763.454-1.304.454zm7.43 1.143c.279 0 .549-.024.809-.073a3.01 3.01 0 0 0 .638-.181h0v-1.124c-.364.114-.728.171-1.092.171-.292 0-.528-.086-.708-.257s-.27-.437-.27-.797h0v-3.758h2v-1.13h-2v-1.562h-.92l-.508 1.485-1.028.546v.66h.958v3.783c0 1.49.707 2.234 2.12 2.234zm3.405-8.188c.262 0 .467-.073.613-.219s.219-.346.219-.6c0-.267-.073-.472-.219-.616s-.35-.216-.613-.216c-.271 0-.479.072-.625.216s-.219.349-.219.616c0 .254.073.454.219.6s.354.219.625.219zm.736 8.062v-7.021h-1.492V120h1.492zm4.821.127c1.049 0 1.868-.322 2.457-.965s.882-1.538.882-2.685c0-1.109-.296-1.99-.889-2.644s-1.396-.981-2.412-.981c-1.062 0-1.885.319-2.469.958s-.876 1.528-.876 2.666c0 .732.135 1.375.406 1.93s.658.98 1.162 1.276 1.083.444 1.739.444zm.025-1.219c-1.198 0-1.796-.81-1.796-2.431 0-.774.141-1.369.422-1.784s.735-.622 1.362-.622c1.193 0 1.79.802 1.79 2.406 0 1.621-.592 2.431-1.777 2.431zm6.319 1.092v-3.498c0-.876.146-1.5.438-1.873s.753-.559 1.384-.559c.474 0 .82.133 1.038.4s.327.671.327 1.212h0V120h1.498v-4.577c0-1.714-.842-2.571-2.526-2.571a3.02 3.02 0 0 0-1.295.273c-.389.182-.69.44-.901.774h0-.076l-.209-.92h-1.168V120h1.492zm11.559.127c.931 0 1.646-.183 2.146-.549s.749-.892.749-1.577c0-.339-.063-.629-.19-.873a1.84 1.84 0 0 0-.584-.644c-.262-.186-.683-.391-1.263-.616-.69-.267-1.137-.476-1.343-.628s-.308-.339-.308-.559c0-.449.394-.673 1.181-.673.516 0 1.153.157 1.911.47h0l.482-1.124a5.6 5.6 0 0 0-2.342-.501c-.834 0-1.493.166-1.977.498a1.6 1.6 0 0 0-.727 1.4c0 .499.143.906.428 1.219s.833.626 1.641.939l.971.432c.233.127.4.25.501.368a.66.66 0 0 1 .152.444c0 .554-.459.832-1.377.832-.711 0-1.479-.19-2.304-.571h0v1.289c.567.284 1.318.425 2.253.425zm6.567 0c.279 0 .549-.024.809-.073a3.01 3.01 0 0 0 .638-.181h0v-1.124c-.364.114-.728.171-1.092.171-.292 0-.528-.086-.708-.257s-.27-.437-.27-.797h0v-3.758h2v-1.13h-2v-1.562h-.92l-.508 1.485-1.028.546v.66h.958v3.783c0 1.49.707 2.234 2.12 2.234zm4.351 0c.537 0 .978-.077 1.32-.232s.683-.445 1.022-.873h.051l.298.978h1.066v-4.729c0-.834-.227-1.445-.682-1.834s-1.129-.584-2.022-.584c-.402 0-.829.052-1.282.156a5.19 5.19 0 0 0-1.25.454h0l.482 1.066a7.81 7.81 0 0 1 .952-.375 3.37 3.37 0 0 1 1.035-.159c.44 0 .765.111.974.333s.314.558.314 1.006h0v.375l-1.212.038c-1.1.034-1.919.235-2.457.603s-.806.914-.806 1.638c0 .681.194 1.208.581 1.581s.926.559 1.615.559zm.47-1.143c-.372 0-.652-.086-.838-.257s-.279-.414-.279-.727c0-.432.16-.752.479-.962s.83-.327 1.533-.352h0l.901-.038v.609c0 .546-.164.97-.492 1.273s-.763.454-1.304.454zm6.662 1.016v-3.669c0-.622.185-1.128.555-1.517s.854-.584 1.45-.584a2.82 2.82 0 0 1 .66.076h0l.146-1.39a3.59 3.59 0 0 0-.743-.063c-.432 0-.835.123-1.209.368a2.78 2.78 0 0 0-.911.997h0-.076l-.197-1.238h-1.168V120h1.492zm6.173.127c.279 0 .549-.024.809-.073a3.01 3.01 0 0 0 .638-.181h0v-1.124c-.364.114-.728.171-1.092.171-.292 0-.528-.086-.708-.257s-.27-.437-.27-.797h0v-3.758h2v-1.13h-2v-1.562h-.92l-.508 1.485-1.028.546v.66h.958v3.783c0 1.49.707 2.234 2.12 2.234zm5.716 0c.478 0 .903-.036 1.276-.108a4.58 4.58 0 0 0 1.104-.368h0v-1.212c-.41.182-.795.312-1.152.39a5.43 5.43 0 0 1-1.158.117c-.631 0-1.119-.183-1.466-.549s-.531-.89-.552-1.571h4.678v-.806c0-.986-.269-1.76-.806-2.323s-1.27-.844-2.196-.844c-.999 0-1.784.328-2.355.984s-.857 1.557-.857 2.704c0 1.117.308 1.994.924 2.631s1.469.955 2.561.955zm1.263-4.38h-3.187c.055-.576.225-1.014.511-1.314s.665-.451 1.139-.451.846.149 1.117.448.41.737.419 1.317h0zm5.329 4.38c.923 0 1.623-.349 2.101-1.047h.07l.26.92h1.168v-9.877h-1.498v2.558c0 .292.036.69.108 1.193h0-.076c-.482-.681-1.185-1.022-2.107-1.022-.88 0-1.569.321-2.066.962s-.746 1.537-.746 2.688.245 2.038.736 2.672 1.174.952 2.05.952zm.4-1.206c-.55 0-.963-.204-1.238-.613s-.413-1.002-.413-1.781c0-.787.142-1.393.425-1.819a1.37 1.37 0 0 1 1.212-.638c.614 0 1.064.186 1.352.559s.432 1.001.432 1.885h0v.209c-.008.774-.152 1.334-.432 1.679s-.726.517-1.339.517zm72.868 1.205c1.075 0 1.918-.273 2.53-.819s.917-1.299.917-2.26c0-.842-.28-1.505-.841-1.99s-1.33-.727-2.307-.727a7.43 7.43 0 0 0-1.454.146h0l.235-2.787h3.713v-.971h-4.615l-.349 4.342.546.349c.673-.123 1.21-.184 1.612-.184 1.587 0 2.38.647 2.38 1.942 0 .664-.206 1.172-.619 1.523s-.991.527-1.736.527a5.45 5.45 0 0 1-1.301-.162c-.44-.108-.808-.257-1.104-.448h0v1.016c.55.334 1.348.501 2.393.501zm10.023 0c.872 0 1.549-.176 2.031-.527s.724-.851.724-1.498c0-.461-.145-.844-.435-1.149s-.847-.607-1.673-.908l-1.219-.514c-.212-.118-.365-.243-.46-.375s-.143-.29-.143-.476c0-.275.127-.491.381-.647s.631-.235 1.13-.235c.567 0 1.2.144 1.898.432h0l.375-.857c-.715-.305-1.447-.457-2.196-.457-.804 0-1.437.164-1.898.492a1.56 1.56 0 0 0-.692 1.343c0 .317.067.59.2.819s.336.433.609.613.733.39 1.381.632c.681.262 1.139.49 1.374.682s.352.424.352.695a.87.87 0 0 1-.444.803c-.296.176-.719.263-1.27.263-.355 0-.725-.049-1.108-.146a5.22 5.22 0 0 1-1.076-.4h0v.978c.516.292 1.236.438 2.158.438zm7.208 0a5.94 5.94 0 0 0 1.203-.105c.332-.07.684-.185 1.057-.346h0v-.939c-.732.313-1.473.47-2.222.47-.711 0-1.262-.212-1.654-.635s-.598-1.043-.619-1.86h4.792v-.667c0-.939-.254-1.696-.762-2.269s-1.198-.86-2.069-.86c-.931 0-1.673.33-2.225.99s-.828 1.551-.828 2.672c0 1.113.297 1.983.892 2.609s1.406.939 2.434.939zm1.428-4.272h-3.637c.059-.643.255-1.147.587-1.511s.778-.546 1.336-.546c.55 0 .973.177 1.27.53s.444.862.444 1.527h0zm5.507 4.272c.707 0 1.293-.121 1.758-.362h0v-.933c-.609.25-1.204.375-1.784.375-.677 0-1.188-.229-1.533-.686s-.517-1.113-.517-1.968c0-1.803.707-2.704 2.12-2.704a3.4 3.4 0 0 1 .73.092 4.94 4.94 0 0 1 .762.232h0l.324-.895c-.19-.097-.453-.182-.787-.254a4.75 4.75 0 0 0-1.003-.108c-1.037 0-1.836.317-2.396.952s-.841 1.534-.841 2.698c0 1.134.276 2.011.828 2.631s1.332.93 2.339.93zm8.074 0c.516 0 .947-.077 1.292-.232s.691-.45 1.038-.885h.051l.209.99h.781v-4.748c0-.812-.2-1.403-.6-1.771s-1.015-.552-1.844-.552a4.88 4.88 0 0 0-1.228.159 4.95 4.95 0 0 0-1.127.438h0l.324.806c.732-.355 1.388-.533 1.968-.533.516 0 .892.13 1.127.39s.352.663.352 1.209h0v.432l-1.181.038c-2.247.068-3.371.804-3.371 2.209 0 .656.196 1.162.587 1.517s.932.533 1.622.533zm.209-.87c-.415 0-.737-.099-.968-.298s-.346-.489-.346-.87c0-.487.185-.845.555-1.076s.974-.361 1.812-.39h0l1.054-.044v.628c0 .647-.187 1.151-.562 1.511s-.89.54-1.546.54zm7.106 3.866c1.185 0 2.086-.202 2.704-.606s.927-.991.927-1.761c0-.605-.202-1.066-.606-1.384s-.983-.476-1.736-.476h0-1.231c-.381 0-.65-.045-.806-.136s-.235-.232-.235-.422c0-.36.224-.658.673-.895a3.18 3.18 0 0 0 .584.051c.813 0 1.451-.203 1.917-.609s.698-.95.698-1.631c0-.3-.047-.57-.14-.809s-.199-.433-.317-.581h0l1.289-.152v-.667h-2.406a3.52 3.52 0 0 0-.984-.127c-.838 0-1.485.206-1.942.619s-.686 1-.686 1.761a2.22 2.22 0 0 0 .34 1.219c.226.355.519.607.879.755-.292.178-.506.362-.641.552a1.12 1.12 0 0 0-.203.667.99.99 0 0 0 .181.59c.121.169.27.294.448.375-.491.11-.872.319-1.143.628a1.61 1.61 0 0 0-.406 1.098c0 .618.247 1.096.74 1.435s1.194.508 2.104.508zm.305-6.373c-.491 0-.874-.125-1.149-.375s-.413-.618-.413-1.104c0-.525.133-.92.4-1.187s.647-.4 1.143-.4c1.041 0 1.562.523 1.562 1.568 0 .999-.514 1.498-1.542 1.498zm-.292 5.567c-.592 0-1.047-.097-1.365-.292a.94.94 0 0 1-.476-.857c0-.427.133-.755.4-.984s.639-.343 1.117-.343h1.263c.643 0 1.081.073 1.314.219s.349.407.349.784c0 .453-.213.811-.638 1.076s-1.08.397-1.965.397zm7.716-2.19c1.007 0 1.796-.318 2.368-.955s.857-1.522.857-2.656c0-1.104-.287-1.98-.86-2.628s-1.347-.971-2.32-.971c-1.007 0-1.794.316-2.361.949s-.851 1.516-.851 2.65c0 .732.131 1.371.394 1.917a2.89 2.89 0 0 0 1.117 1.257c.482.292 1.035.438 1.657.438zm.025-.882c-.69 0-1.212-.233-1.568-.698s-.533-1.143-.533-2.031c0-.897.176-1.572.527-2.025s.872-.679 1.562-.679c.698 0 1.226.23 1.584.689s.536 1.131.536 2.015c0 .893-.179 1.571-.536 2.034s-.881.695-1.571.695z"/><path d="M363.742 176v-3.707h1.498l2.222 3.707h1.727l-2.622-4.107c1.202-.491 1.803-1.314 1.803-2.469 0-.906-.288-1.583-.863-2.031s-1.462-.673-2.66-.673h0-2.622V176h1.517zm1.054-4.964h-1.054v-3.034h1.003c.69 0 1.206.114 1.549.343s.514.605.514 1.13c0 .516-.159.906-.476 1.168s-.829.394-1.536.394h0zm8.446 5.091c.478 0 .903-.036 1.276-.108a4.58 4.58 0 0 0 1.104-.368h0v-1.212c-.41.182-.795.312-1.152.39a5.43 5.43 0 0 1-1.158.117c-.631 0-1.119-.183-1.466-.549s-.531-.89-.552-1.571h4.678v-.806c0-.986-.269-1.76-.806-2.323s-1.27-.844-2.196-.844c-.999 0-1.784.328-2.355.984s-.857 1.557-.857 2.704c0 1.117.308 1.994.924 2.631s1.469.955 2.561.955zm1.263-4.38h-3.187c.055-.576.225-1.014.511-1.314s.665-.451 1.139-.451.846.149 1.117.448.41.737.419 1.317h0zm4.453 4.253v-3.498c0-.872.134-1.495.403-1.869s.691-.562 1.266-.562c.432 0 .749.132.952.397s.305.665.305 1.203h0V176h1.498v-3.72c0-.749.134-1.304.403-1.666s.693-.543 1.273-.543c.432 0 .75.132.955.397s.308.665.308 1.203h0V176h1.492v-4.577c0-.868-.191-1.513-.574-1.936s-.993-.635-1.831-.635a2.78 2.78 0 0 0-1.295.292 2.14 2.14 0 0 0-.876.813h0-.102c-.351-.736-1.066-1.104-2.146-1.104-.444 0-.852.091-1.222.273s-.653.44-.847.774h0-.076l-.209-.92h-1.168V176h1.492zm13.803.127c.478 0 .903-.036 1.276-.108a4.58 4.58 0 0 0 1.104-.368h0v-1.212c-.41.182-.795.312-1.152.39a5.43 5.43 0 0 1-1.158.117c-.631 0-1.119-.183-1.466-.549s-.531-.89-.552-1.571h4.678v-.806c0-.986-.269-1.76-.806-2.323s-1.27-.844-2.196-.844c-.999 0-1.784.328-2.355.984s-.857 1.557-.857 2.704c0 1.117.308 1.994.924 2.631s1.469.955 2.561.955zm1.263-4.38h-3.187c.055-.576.225-1.014.511-1.314s.665-.451 1.139-.451.846.149 1.117.448.41.737.419 1.317h0zm5.329 4.38c.923 0 1.623-.349 2.101-1.047h.07l.26.92h1.168v-9.877h-1.498v2.558c0 .292.036.69.108 1.193h0-.076c-.482-.681-1.185-1.022-2.107-1.022-.88 0-1.569.321-2.066.962s-.746 1.537-.746 2.688.245 2.038.736 2.672 1.174.952 2.05.952zm.4-1.206c-.55 0-.963-.204-1.238-.613s-.413-1.002-.413-1.781c0-.787.142-1.393.425-1.819a1.37 1.37 0 0 1 1.212-.638c.614 0 1.064.186 1.352.559s.432 1.001.432 1.885h0v.209c-.008.774-.152 1.334-.432 1.679s-.726.517-1.339.517zm5.887-6.982c.262 0 .467-.073.613-.219s.219-.346.219-.6c0-.267-.073-.472-.219-.616s-.35-.216-.613-.216c-.271 0-.479.072-.625.216s-.219.349-.219.616c0 .254.073.454.219.6s.354.219.625.219zm.736 8.062v-7.021h-1.492V176h1.492zm3.634.127c.537 0 .978-.077 1.32-.232s.683-.445 1.022-.873h.051l.298.978h1.066v-4.729c0-.834-.227-1.445-.682-1.834s-1.129-.584-2.022-.584c-.402 0-.829.052-1.282.156a5.19 5.19 0 0 0-1.25.454h0l.482 1.066a7.81 7.81 0 0 1 .952-.375 3.37 3.37 0 0 1 1.035-.159c.44 0 .765.111.974.333s.314.558.314 1.006h0v.375l-1.212.038c-1.1.034-1.919.235-2.457.603s-.806.914-.806 1.638c0 .681.194 1.208.581 1.581s.926.559 1.615.559zm.47-1.143c-.372 0-.652-.086-.838-.257s-.279-.414-.279-.727c0-.432.16-.752.479-.962s.83-.327 1.533-.352h0l.901-.038v.609c0 .546-.164.97-.492 1.273s-.763.454-1.304.454zm7.43 1.143c.279 0 .549-.024.809-.073a3.01 3.01 0 0 0 .638-.181h0v-1.124c-.364.114-.728.171-1.092.171-.292 0-.528-.086-.708-.257s-.27-.437-.27-.797h0v-3.758h2v-1.13h-2v-1.562h-.92l-.508 1.485-1.028.546v.66h.958v3.783c0 1.49.707 2.234 2.12 2.234zm3.405-8.188c.262 0 .467-.073.613-.219s.219-.346.219-.6c0-.267-.073-.472-.219-.616s-.35-.216-.613-.216c-.271 0-.479.072-.625.216s-.219.349-.219.616c0 .254.073.454.219.6s.354.219.625.219zm.736 8.062v-7.021h-1.492V176h1.492zm4.821.127c1.049 0 1.868-.322 2.457-.965s.882-1.538.882-2.685c0-1.109-.296-1.99-.889-2.644s-1.396-.981-2.412-.981c-1.062 0-1.885.319-2.469.958s-.876 1.528-.876 2.666c0 .732.135 1.375.406 1.93s.658.98 1.162 1.276 1.083.444 1.739.444zm.025-1.219c-1.198 0-1.796-.81-1.796-2.431 0-.774.141-1.369.422-1.784s.735-.622 1.362-.622c1.193 0 1.79.802 1.79 2.406 0 1.621-.592 2.431-1.777 2.431zm6.319 1.092v-3.498c0-.876.146-1.5.438-1.873s.753-.559 1.384-.559c.474 0 .82.133 1.038.4s.327.671.327 1.212h0V176h1.498v-4.577c0-1.714-.842-2.571-2.526-2.571a3.02 3.02 0 0 0-1.295.273c-.389.182-.69.44-.901.774h0-.076l-.209-.92h-1.168V176h1.492zm11.559.127c.931 0 1.646-.183 2.146-.549s.749-.892.749-1.577c0-.339-.063-.629-.19-.873a1.84 1.84 0 0 0-.584-.644c-.262-.186-.683-.391-1.263-.616-.69-.267-1.137-.476-1.343-.628s-.308-.339-.308-.559c0-.449.394-.673 1.181-.673.516 0 1.153.157 1.911.47h0l.482-1.124a5.6 5.6 0 0 0-2.342-.501c-.834 0-1.493.166-1.977.498a1.6 1.6 0 0 0-.727 1.4c0 .499.143.906.428 1.219s.833.626 1.641.939l.971.432c.233.127.4.25.501.368a.66.66 0 0 1 .152.444c0 .554-.459.832-1.377.832-.711 0-1.479-.19-2.304-.571h0v1.289c.567.284 1.318.425 2.253.425zm6.567 0c.279 0 .549-.024.809-.073a3.01 3.01 0 0 0 .638-.181h0v-1.124c-.364.114-.728.171-1.092.171-.292 0-.528-.086-.708-.257s-.27-.437-.27-.797h0v-3.758h2v-1.13h-2v-1.562h-.92l-.508 1.485-1.028.546v.66h.958v3.783c0 1.49.707 2.234 2.12 2.234zm4.351 0c.537 0 .978-.077 1.32-.232s.683-.445 1.022-.873h.051l.298.978h1.066v-4.729c0-.834-.227-1.445-.682-1.834s-1.129-.584-2.022-.584c-.402 0-.829.052-1.282.156a5.19 5.19 0 0 0-1.25.454h0l.482 1.066a7.81 7.81 0 0 1 .952-.375 3.37 3.37 0 0 1 1.035-.159c.44 0 .765.111.974.333s.314.558.314 1.006h0v.375l-1.212.038c-1.1.034-1.919.235-2.457.603s-.806.914-.806 1.638c0 .681.194 1.208.581 1.581s.926.559 1.615.559zm.47-1.143c-.372 0-.652-.086-.838-.257s-.279-.414-.279-.727c0-.432.16-.752.479-.962s.83-.327 1.533-.352h0l.901-.038v.609c0 .546-.164.97-.492 1.273s-.763.454-1.304.454zm6.662 1.016v-3.669c0-.622.185-1.128.555-1.517s.854-.584 1.45-.584a2.82 2.82 0 0 1 .66.076h0l.146-1.39a3.59 3.59 0 0 0-.743-.063c-.432 0-.835.123-1.209.368a2.78 2.78 0 0 0-.911.997h0-.076l-.197-1.238h-1.168V176h1.492zm6.173.127c.279 0 .549-.024.809-.073a3.01 3.01 0 0 0 .638-.181h0v-1.124c-.364.114-.728.171-1.092.171-.292 0-.528-.086-.708-.257s-.27-.437-.27-.797h0v-3.758h2v-1.13h-2v-1.562h-.92l-.508 1.485-1.028.546v.66h.958v3.783c0 1.49.707 2.234 2.12 2.234zm5.716 0c.478 0 .903-.036 1.276-.108a4.58 4.58 0 0 0 1.104-.368h0v-1.212c-.41.182-.795.312-1.152.39a5.43 5.43 0 0 1-1.158.117c-.631 0-1.119-.183-1.466-.549s-.531-.89-.552-1.571h4.678v-.806c0-.986-.269-1.76-.806-2.323s-1.27-.844-2.196-.844c-.999 0-1.784.328-2.355.984s-.857 1.557-.857 2.704c0 1.117.308 1.994.924 2.631s1.469.955 2.561.955zm1.263-4.38h-3.187c.055-.576.225-1.014.511-1.314s.665-.451 1.139-.451.846.149 1.117.448.41.737.419 1.317h0zm5.329 4.38c.923 0 1.623-.349 2.101-1.047h.07l.26.92h1.168v-9.877h-1.498v2.558c0 .292.036.69.108 1.193h0-.076c-.482-.681-1.185-1.022-2.107-1.022-.88 0-1.569.321-2.066.962s-.746 1.537-.746 2.688.245 2.038.736 2.672 1.174.952 2.05.952zm.4-1.206c-.55 0-.963-.204-1.238-.613s-.413-1.002-.413-1.781c0-.787.142-1.393.425-1.819a1.37 1.37 0 0 1 1.212-.638c.614 0 1.064.186 1.352.559s.432 1.001.432 1.885h0v.209c-.008.774-.152 1.334-.432 1.679s-.726.517-1.339.517zm55.581 1.204c1.075 0 1.918-.273 2.53-.819s.917-1.299.917-2.26c0-.842-.28-1.505-.841-1.99s-1.33-.727-2.307-.727a7.43 7.43 0 0 0-1.454.146h0l.235-2.787h3.713v-.971h-4.615l-.349 4.342.546.349c.673-.123 1.21-.184 1.612-.184 1.587 0 2.38.647 2.38 1.942 0 .664-.206 1.172-.619 1.523s-.991.527-1.736.527a5.45 5.45 0 0 1-1.301-.162c-.44-.108-.808-.257-1.104-.448h0v1.016c.55.334 1.348.501 2.393.501zm9.344-.127v-3.65c0-.901.153-1.55.46-1.946s.79-.594 1.45-.594c.504 0 .874.139 1.111.416s.355.693.355 1.247h0V176h1.054v-3.885c0-.783.157-1.363.47-1.739s.798-.565 1.454-.565c.499 0 .868.139 1.104.416s.355.693.355 1.247h0V176h1.054v-4.539c0-.889-.196-1.535-.587-1.939s-.981-.606-1.768-.606c-.504 0-.952.106-1.346.317s-.694.499-.901.863h0-.051c-.334-.787-1.045-1.181-2.133-1.181a2.57 2.57 0 0 0-1.216.286 2.07 2.07 0 0 0-.841.793h0-.051l-.171-.952h-.857V176h1.054zm11.372-8.138c.169 0 .315-.058.438-.175s.184-.293.184-.53-.061-.413-.184-.527a.62.62 0 0 0-.438-.171.62.62 0 0 0-.444.168c-.118.112-.178.289-.178.53s.059.414.178.53a.61.61 0 0 0 .444.175zm.521 8.138v-6.957h-1.054V176h1.054zm3.088 0v-3.65c0-.906.169-1.555.508-1.949s.872-.59 1.6-.59c.55 0 .954.14 1.212.419s.387.702.387 1.27h0v4.5h1.054v-4.539c0-.889-.212-1.535-.635-1.939s-1.054-.606-1.892-.606a2.95 2.95 0 0 0-1.301.282 2.15 2.15 0 0 0-.908.797h0-.051l-.171-.952h-.857V176h1.054zm11.591.127c.516 0 .947-.077 1.292-.232s.691-.45 1.038-.885h.051l.209.99h.781v-4.748c0-.812-.2-1.403-.6-1.771s-1.015-.552-1.844-.552a4.88 4.88 0 0 0-1.228.159 4.95 4.95 0 0 0-1.127.438h0l.324.806c.732-.355 1.388-.533 1.968-.533.516 0 .892.13 1.127.39s.352.663.352 1.209h0v.432l-1.181.038c-2.247.068-3.371.804-3.371 2.209 0 .656.196 1.162.587 1.517s.932.533 1.622.533zm.209-.87c-.415 0-.737-.099-.968-.298s-.346-.489-.346-.87c0-.487.185-.845.555-1.076s.974-.361 1.812-.39h0l1.054-.044v.628c0 .647-.187 1.151-.562 1.511s-.89.54-1.546.54zm7.106 3.866c1.185 0 2.086-.202 2.704-.606s.927-.991.927-1.761c0-.605-.202-1.066-.606-1.384s-.983-.476-1.736-.476h0-1.231c-.381 0-.65-.045-.806-.136s-.235-.232-.235-.422c0-.36.224-.658.673-.895a3.18 3.18 0 0 0 .584.051c.813 0 1.451-.203 1.917-.609s.698-.95.698-1.631c0-.3-.047-.57-.14-.809s-.199-.433-.317-.581h0l1.289-.152v-.667h-2.406a3.52 3.52 0 0 0-.984-.127c-.838 0-1.485.206-1.942.619s-.686 1-.686 1.761a2.22 2.22 0 0 0 .34 1.219c.226.355.519.607.879.755-.292.178-.506.362-.641.552a1.12 1.12 0 0 0-.203.667.99.99 0 0 0 .181.59c.121.169.27.294.448.375-.491.11-.872.319-1.143.628a1.61 1.61 0 0 0-.406 1.098c0 .618.247 1.096.74 1.435s1.194.508 2.104.508zm.305-6.373c-.491 0-.874-.125-1.149-.375s-.413-.618-.413-1.104c0-.525.133-.92.4-1.187s.647-.4 1.143-.4c1.041 0 1.562.523 1.562 1.568 0 .999-.514 1.498-1.542 1.498zm-.292 5.567c-.592 0-1.047-.097-1.365-.292a.94.94 0 0 1-.476-.857c0-.427.133-.755.4-.984s.639-.343 1.117-.343h1.263c.643 0 1.081.073 1.314.219s.349.407.349.784c0 .453-.213.811-.638 1.076s-1.08.397-1.965.397zm7.716-2.19c1.007 0 1.796-.318 2.368-.955s.857-1.522.857-2.656c0-1.104-.287-1.98-.86-2.628s-1.347-.971-2.32-.971c-1.007 0-1.794.316-2.361.949s-.851 1.516-.851 2.65c0 .732.131 1.371.394 1.917a2.89 2.89 0 0 0 1.117 1.257c.482.292 1.035.438 1.657.438zm.025-.882c-.69 0-1.212-.233-1.568-.698s-.533-1.143-.533-2.031c0-.897.176-1.572.527-2.025s.872-.679 1.562-.679c.698 0 1.226.23 1.584.689s.536 1.131.536 2.015c0 .893-.179 1.571-.536 2.034s-.881.695-1.571.695z"/><path d="M363.742 148v-3.707h1.498l2.222 3.707h1.727l-2.622-4.107c1.202-.491 1.803-1.314 1.803-2.469 0-.906-.288-1.583-.863-2.031s-1.462-.673-2.66-.673h0-2.622V148h1.517zm1.054-4.964h-1.054v-3.034h1.003c.69 0 1.206.114 1.549.343s.514.605.514 1.13c0 .516-.159.906-.476 1.168s-.829.394-1.536.394h0zm8.446 5.091c.478 0 .903-.036 1.276-.108a4.58 4.58 0 0 0 1.104-.368h0v-1.212c-.41.182-.795.312-1.152.39a5.43 5.43 0 0 1-1.158.117c-.631 0-1.119-.183-1.466-.549s-.531-.89-.552-1.571h4.678v-.806c0-.986-.269-1.76-.806-2.323s-1.27-.844-2.196-.844c-.999 0-1.784.328-2.355.984s-.857 1.557-.857 2.704c0 1.117.308 1.994.924 2.631s1.469.955 2.561.955zm1.263-4.38h-3.187c.055-.576.225-1.014.511-1.314s.665-.451 1.139-.451.846.149 1.117.448.41.737.419 1.317h0zm4.453 4.253v-3.498c0-.872.134-1.495.403-1.869s.691-.562 1.266-.562c.432 0 .749.132.952.397s.305.665.305 1.203h0V148h1.498v-3.72c0-.749.134-1.304.403-1.666s.693-.543 1.273-.543c.432 0 .75.132.955.397s.308.665.308 1.203h0V148h1.492v-4.577c0-.868-.191-1.513-.574-1.936s-.993-.635-1.831-.635a2.78 2.78 0 0 0-1.295.292 2.14 2.14 0 0 0-.876.813h0-.102c-.351-.736-1.066-1.104-2.146-1.104-.444 0-.852.091-1.222.273s-.653.44-.847.774h0-.076l-.209-.92h-1.168V148h1.492zm13.803.127c.478 0 .903-.036 1.276-.108a4.58 4.58 0 0 0 1.104-.368h0v-1.212c-.41.182-.795.312-1.152.39a5.43 5.43 0 0 1-1.158.117c-.631 0-1.119-.183-1.466-.549s-.531-.89-.552-1.571h4.678v-.806c0-.986-.269-1.76-.806-2.323s-1.27-.844-2.196-.844c-.999 0-1.784.328-2.355.984s-.857 1.557-.857 2.704c0 1.117.308 1.994.924 2.631s1.469.955 2.561.955zm1.263-4.38h-3.187c.055-.576.225-1.014.511-1.314s.665-.451 1.139-.451.846.149 1.117.448.41.737.419 1.317h0zm5.329 4.38c.923 0 1.623-.349 2.101-1.047h.07l.26.92h1.168v-9.877h-1.498v2.558c0 .292.036.69.108 1.193h0-.076c-.482-.681-1.185-1.022-2.107-1.022-.88 0-1.569.321-2.066.962s-.746 1.537-.746 2.688.245 2.038.736 2.672 1.174.952 2.05.952zm.4-1.206c-.55 0-.963-.204-1.238-.613s-.413-1.002-.413-1.781c0-.787.142-1.393.425-1.819a1.37 1.37 0 0 1 1.212-.638c.614 0 1.064.186 1.352.559s.432 1.001.432 1.885h0v.209c-.008.774-.152 1.334-.432 1.679s-.726.517-1.339.517zm5.887-6.982c.262 0 .467-.073.613-.219s.219-.346.219-.6c0-.267-.073-.472-.219-.616s-.35-.216-.613-.216c-.271 0-.479.072-.625.216s-.219.349-.219.616c0 .254.073.454.219.6s.354.219.625.219zm.736 8.062v-7.021h-1.492V148h1.492zm3.634.127c.537 0 .978-.077 1.32-.232s.683-.445 1.022-.873h.051l.298.978h1.066v-4.729c0-.834-.227-1.445-.682-1.834s-1.129-.584-2.022-.584c-.402 0-.829.052-1.282.156a5.19 5.19 0 0 0-1.25.454h0l.482 1.066a7.81 7.81 0 0 1 .952-.375 3.37 3.37 0 0 1 1.035-.159c.44 0 .765.111.974.333s.314.558.314 1.006h0v.375l-1.212.038c-1.1.034-1.919.235-2.457.603s-.806.914-.806 1.638c0 .681.194 1.208.581 1.581s.926.559 1.615.559zm.47-1.143c-.372 0-.652-.086-.838-.257s-.279-.414-.279-.727c0-.432.16-.752.479-.962s.83-.327 1.533-.352h0l.901-.038v.609c0 .546-.164.97-.492 1.273s-.763.454-1.304.454zm7.43 1.143c.279 0 .549-.024.809-.073a3.01 3.01 0 0 0 .638-.181h0v-1.124c-.364.114-.728.171-1.092.171-.292 0-.528-.086-.708-.257s-.27-.437-.27-.797h0v-3.758h2v-1.13h-2v-1.562h-.92l-.508 1.485-1.028.546v.66h.958v3.783c0 1.49.707 2.234 2.12 2.234zm3.405-8.188c.262 0 .467-.073.613-.219s.219-.346.219-.6c0-.267-.073-.472-.219-.616s-.35-.216-.613-.216c-.271 0-.479.072-.625.216s-.219.349-.219.616c0 .254.073.454.219.6s.354.219.625.219zm.736 8.062v-7.021h-1.492V148h1.492zm4.821.127c1.049 0 1.868-.322 2.457-.965s.882-1.538.882-2.685c0-1.109-.296-1.99-.889-2.644s-1.396-.981-2.412-.981c-1.062 0-1.885.319-2.469.958s-.876 1.528-.876 2.666c0 .732.135 1.375.406 1.93s.658.98 1.162 1.276 1.083.444 1.739.444zm.025-1.219c-1.198 0-1.796-.81-1.796-2.431 0-.774.141-1.369.422-1.784s.735-.622 1.362-.622c1.193 0 1.79.802 1.79 2.406 0 1.621-.592 2.431-1.777 2.431zm6.319 1.092v-3.498c0-.876.146-1.5.438-1.873s.753-.559 1.384-.559c.474 0 .82.133 1.038.4s.327.671.327 1.212h0V148h1.498v-4.577c0-1.714-.842-2.571-2.526-2.571a3.02 3.02 0 0 0-1.295.273c-.389.182-.69.44-.901.774h0-.076l-.209-.92h-1.168V148h1.492zm11.546 0v-5.891h1.714v-1.13h-1.714v-.457c0-.419.077-.733.232-.943s.401-.314.74-.314a3.44 3.44 0 0 1 1.054.178h0l.394-1.13a4.76 4.76 0 0 0-1.549-.26c-.8 0-1.394.2-1.784.6s-.584 1.015-.584 1.844h0v.457l-1.155.457v.698h1.155V148h1.498zm3.663-8.062c.262 0 .467-.073.613-.219s.219-.346.219-.6c0-.267-.073-.472-.219-.616s-.35-.216-.613-.216c-.271 0-.479.072-.625.216s-.219.349-.219.616c0 .254.073.454.219.6s.354.219.625.219zm.736 8.062v-7.021h-1.492V148h1.492zm3.431 0v-3.498c0-.876.146-1.5.438-1.873s.753-.559 1.384-.559c.474 0 .82.133 1.038.4s.327.671.327 1.212h0V148h1.498v-4.577c0-1.714-.842-2.571-2.526-2.571a3.02 3.02 0 0 0-1.295.273c-.389.182-.69.44-.901.774h0-.076l-.209-.92h-1.168V148h1.492zm7.316-8.062c.262 0 .467-.073.613-.219s.219-.346.219-.6c0-.267-.073-.472-.219-.616s-.35-.216-.613-.216c-.271 0-.479.072-.625.216s-.219.349-.219.616c0 .254.073.454.219.6s.354.219.625.219zm.736 8.062v-7.021h-1.492V148h1.492zm3.755.127c.931 0 1.646-.183 2.146-.549s.749-.892.749-1.577c0-.339-.063-.629-.19-.873a1.84 1.84 0 0 0-.584-.644c-.262-.186-.683-.391-1.263-.616-.69-.267-1.137-.476-1.343-.628s-.308-.339-.308-.559c0-.449.394-.673 1.181-.673.516 0 1.153.157 1.911.47h0l.482-1.124a5.6 5.6 0 0 0-2.342-.501c-.834 0-1.493.166-1.977.498a1.6 1.6 0 0 0-.727 1.4c0 .499.143.906.428 1.219s.833.626 1.641.939l.971.432c.233.127.4.25.501.368a.66.66 0 0 1 .152.444c0 .554-.459.832-1.377.832-.711 0-1.479-.19-2.304-.571h0v1.289c.567.284 1.318.425 2.253.425zm5.799-.127v-3.485c0-.88.147-1.508.441-1.882s.754-.562 1.381-.562c.474 0 .82.133 1.038.4s.327.671.327 1.212h0V148h1.498v-4.577c0-1.714-.851-2.571-2.552-2.571-.482 0-.905.093-1.266.279a2.07 2.07 0 0 0-.847.787h0-.095a11.7 11.7 0 0 0 .076-1.289h0v-2.507h-1.492V148h1.492zm9.626.127c.478 0 .903-.036 1.276-.108a4.58 4.58 0 0 0 1.104-.368h0v-1.212c-.41.182-.795.312-1.152.39a5.43 5.43 0 0 1-1.158.117c-.631 0-1.119-.183-1.466-.549s-.531-.89-.552-1.571h4.678v-.806c0-.986-.269-1.76-.806-2.323s-1.27-.844-2.196-.844c-.999 0-1.784.328-2.355.984s-.857 1.557-.857 2.704c0 1.117.308 1.994.924 2.631s1.469.955 2.561.955zm1.263-4.38H477.9c.055-.576.225-1.014.511-1.314s.665-.451 1.139-.451.846.149 1.117.448.41.737.419 1.317h0zm5.329 4.38c.923 0 1.623-.349 2.101-1.047h.07l.26.92h1.168v-9.877h-1.498v2.558c0 .292.036.69.108 1.193h0-.076c-.482-.681-1.185-1.022-2.107-1.022-.88 0-1.569.321-2.066.962s-.746 1.537-.746 2.688.245 2.038.736 2.672 1.174.952 2.05.952zm.4-1.206c-.55 0-.963-.204-1.238-.613s-.413-1.002-.413-1.781c0-.787.142-1.393.425-1.819a1.37 1.37 0 0 1 1.212-.638c.614 0 1.064.186 1.352.559s.432 1.001.432 1.885h0v.209c-.008.774-.152 1.334-.432 1.679s-.726.517-1.339.517zM535.03 148v-9.28h-.889l-2.457 1.898.559.724 1.511-1.238.298-.279-.051 1.562V148h1.028zm6.402.127c1.041 0 1.814-.396 2.32-1.187s.759-1.989.759-3.593c0-1.549-.261-2.732-.784-3.548s-1.288-1.225-2.295-1.225c-1.033 0-1.801.391-2.304 1.174s-.755 1.983-.755 3.599c0 1.566.26 2.754.781 3.564s1.28 1.216 2.279 1.216zm0-.908a1.59 1.59 0 0 1-1.517-.924c-.317-.616-.476-1.599-.476-2.948s.159-2.331.476-2.942a1.59 1.59 0 0 1 1.517-.917 1.59 1.59 0 0 1 1.527.93c.315.62.473 1.596.473 2.929s-.158 2.312-.473 2.936a1.59 1.59 0 0 1-1.527.936zm9.553.908c.872 0 1.549-.176 2.031-.527s.724-.851.724-1.498c0-.461-.145-.844-.435-1.149s-.847-.607-1.673-.908l-1.219-.514c-.212-.118-.365-.243-.46-.375s-.143-.29-.143-.476c0-.275.127-.491.381-.647s.631-.235 1.13-.235c.567 0 1.2.144 1.898.432h0l.375-.857c-.715-.305-1.447-.457-2.196-.457-.804 0-1.437.164-1.898.492a1.56 1.56 0 0 0-.692 1.343c0 .317.067.59.2.819s.336.433.609.613.733.39 1.381.632c.681.262 1.139.49 1.374.682s.352.424.352.695a.87.87 0 0 1-.444.803c-.296.176-.719.263-1.27.263-.355 0-.725-.049-1.108-.146a5.22 5.22 0 0 1-1.076-.4h0v.978c.516.292 1.236.438 2.158.438zm7.208 0a5.94 5.94 0 0 0 1.203-.105c.332-.07.684-.185 1.057-.346h0v-.939c-.732.313-1.473.47-2.222.47-.711 0-1.262-.212-1.654-.635s-.598-1.043-.619-1.86h4.792v-.667c0-.939-.254-1.696-.762-2.269s-1.198-.86-2.069-.86c-.931 0-1.673.33-2.225.99s-.828 1.551-.828 2.672c0 1.113.297 1.983.892 2.609s1.406.939 2.434.939zm1.428-4.272h-3.637c.059-.643.255-1.147.587-1.511s.778-.546 1.336-.546c.55 0 .973.177 1.27.53s.444.862.444 1.527h0zm5.507 4.272c.707 0 1.293-.121 1.758-.362h0v-.933c-.609.25-1.204.375-1.784.375-.677 0-1.188-.229-1.533-.686s-.517-1.113-.517-1.968c0-1.803.707-2.704 2.12-2.704a3.4 3.4 0 0 1 .73.092 4.94 4.94 0 0 1 .762.232h0l.324-.895c-.19-.097-.453-.182-.787-.254a4.75 4.75 0 0 0-1.003-.108c-1.037 0-1.836.317-2.396.952s-.841 1.534-.841 2.698c0 1.134.276 2.011.828 2.631s1.332.93 2.339.93zm8.074 0c.516 0 .947-.077 1.292-.232s.691-.45 1.038-.885h.051l.209.99h.781v-4.748c0-.812-.2-1.403-.6-1.771s-1.015-.552-1.844-.552a4.88 4.88 0 0 0-1.228.159 4.95 4.95 0 0 0-1.127.438h0l.324.806c.732-.355 1.388-.533 1.968-.533.516 0 .892.13 1.127.39s.352.663.352 1.209h0v.432l-1.181.038c-2.247.068-3.371.804-3.371 2.209 0 .656.196 1.162.587 1.517s.932.533 1.622.533zm.209-.87c-.415 0-.737-.099-.968-.298s-.346-.489-.346-.87c0-.487.185-.845.555-1.076s.974-.361 1.812-.39h0l1.054-.044v.628c0 .647-.187 1.151-.562 1.511s-.89.54-1.546.54zm7.106 3.866c1.185 0 2.086-.202 2.704-.606s.927-.991.927-1.761c0-.605-.202-1.066-.606-1.384s-.983-.476-1.736-.476h0-1.231c-.381 0-.65-.045-.806-.136s-.235-.232-.235-.422c0-.36.224-.658.673-.895a3.18 3.18 0 0 0 .584.051c.813 0 1.451-.203 1.917-.609s.698-.95.698-1.631c0-.3-.047-.57-.14-.809s-.199-.433-.317-.581h0l1.289-.152v-.667h-2.406a3.52 3.52 0 0 0-.984-.127c-.838 0-1.485.206-1.942.619s-.686 1-.686 1.761a2.22 2.22 0 0 0 .34 1.219c.226.355.519.607.879.755-.292.178-.506.362-.641.552a1.12 1.12 0 0 0-.203.667.99.99 0 0 0 .181.59c.121.169.27.294.448.375-.491.11-.872.319-1.143.628a1.61 1.61 0 0 0-.406 1.098c0 .618.247 1.096.74 1.435s1.194.508 2.104.508zm.305-6.373c-.491 0-.874-.125-1.149-.375s-.413-.618-.413-1.104c0-.525.133-.92.4-1.187s.647-.4 1.143-.4c1.041 0 1.562.523 1.562 1.568 0 .999-.514 1.498-1.542 1.498zm-.292 5.567c-.592 0-1.047-.097-1.365-.292a.94.94 0 0 1-.476-.857c0-.427.133-.755.4-.984s.639-.343 1.117-.343h1.263c.643 0 1.081.073 1.314.219s.349.407.349.784c0 .453-.213.811-.638 1.076s-1.08.397-1.965.397zm7.716-2.19c1.007 0 1.796-.318 2.368-.955s.857-1.522.857-2.656c0-1.104-.287-1.98-.86-2.628s-1.347-.971-2.32-.971c-1.007 0-1.794.316-2.361.949s-.851 1.516-.851 2.65c0 .732.131 1.371.394 1.917a2.89 2.89 0 0 0 1.117 1.257c.482.292 1.035.438 1.657.438zm.025-.882c-.69 0-1.212-.233-1.568-.698s-.533-1.143-.533-2.031c0-.897.176-1.572.527-2.025s.872-.679 1.562-.679c.698 0 1.226.23 1.584.689s.536 1.131.536 2.015c0 .893-.179 1.571-.536 2.034s-.881.695-1.571.695z"/><path d="M362.6 204l.908-2.577h3.548l.927 2.577h1.612l-3.472-9.318h-1.65L361 204h1.6zm4.056-3.885h-2.704l.838-2.418c.22-.618.387-1.187.501-1.708l.232.8.263.8.87 2.526zm5.297 3.885v-9.877h-1.492V204h1.492zm4.999.127c.478 0 .903-.036 1.276-.108a4.58 4.58 0 0 0 1.104-.368h0v-1.212c-.41.182-.795.312-1.152.39a5.43 5.43 0 0 1-1.158.117c-.631 0-1.119-.183-1.466-.549s-.531-.89-.552-1.571h4.678v-.806c0-.986-.269-1.76-.806-2.323s-1.27-.844-2.196-.844c-.999 0-1.784.328-2.355.984s-.857 1.557-.857 2.704c0 1.117.308 1.994.924 2.631s1.469.955 2.561.955zm1.263-4.38h-3.187c.055-.576.225-1.014.511-1.314s.665-.451 1.139-.451.846.149 1.117.448.41.737.419 1.317h0zm4.453 4.253v-3.669c0-.622.185-1.128.555-1.517s.854-.584 1.45-.584a2.82 2.82 0 0 1 .66.076h0l.146-1.39a3.59 3.59 0 0 0-.743-.063c-.432 0-.835.123-1.209.368a2.78 2.78 0 0 0-.911.997h0-.076l-.197-1.238h-1.168V204h1.492zm6.173.127c.279 0 .549-.024.809-.073a3.01 3.01 0 0 0 .638-.181h0v-1.124c-.364.114-.728.171-1.092.171-.292 0-.528-.086-.708-.257s-.27-.437-.27-.797h0v-3.758h2v-1.13h-2v-1.562h-.92l-.508 1.485-1.028.546v.66h.958v3.783c0 1.49.707 2.234 2.12 2.234zm7.319-.127v-3.669c0-.622.185-1.128.555-1.517s.854-.584 1.45-.584a2.82 2.82 0 0 1 .66.076h0l.146-1.39a3.59 3.59 0 0 0-.743-.063c-.432 0-.835.123-1.209.368a2.78 2.78 0 0 0-.911.997h0-.076l-.197-1.238h-1.168V204h1.492zm6.979.127c.478 0 .903-.036 1.276-.108a4.58 4.58 0 0 0 1.104-.368h0v-1.212c-.41.182-.795.312-1.152.39a5.43 5.43 0 0 1-1.158.117c-.631 0-1.119-.183-1.466-.549s-.531-.89-.552-1.571h4.678v-.806c0-.986-.269-1.76-.806-2.323s-1.27-.844-2.196-.844c-.999 0-1.784.328-2.355.984s-.857 1.557-.857 2.704c0 1.117.308 1.994.924 2.631s1.469.955 2.561.955zm1.263-4.38h-3.187c.055-.576.225-1.014.511-1.314s.665-.451 1.139-.451.846.149 1.117.448.41.737.419 1.317h0zm5.792 4.38c.432 0 .799-.034 1.101-.102a2.98 2.98 0 0 0 .854-.336h0v-1.301c-.592.33-1.221.495-1.885.495-.584 0-1.027-.198-1.33-.594s-.454-.987-.454-1.774c0-1.612.607-2.418 1.822-2.418.41 0 .931.123 1.562.368h0l.451-1.2c-.592-.275-1.259-.413-2-.413-1.092 0-1.927.317-2.504.952s-.866 1.542-.866 2.723c0 1.16.276 2.049.828 2.669s1.359.93 2.422.93zm6.471 0c.478 0 .903-.036 1.276-.108a4.58 4.58 0 0 0 1.104-.368h0v-1.212c-.41.182-.795.312-1.152.39a5.43 5.43 0 0 1-1.158.117c-.631 0-1.119-.183-1.466-.549s-.531-.89-.552-1.571h4.678v-.806c0-.986-.269-1.76-.806-2.323s-1.27-.844-2.196-.844c-.999 0-1.784.328-2.355.984s-.857 1.557-.857 2.704c0 1.117.308 1.994.924 2.631s1.469.955 2.561.955zm1.263-4.38h-3.187c.055-.576.225-1.014.511-1.314s.665-.451 1.139-.451.846.149 1.117.448.41.737.419 1.317h0zm3.717-3.809c.262 0 .467-.073.613-.219s.219-.346.219-.6c0-.267-.073-.472-.219-.616s-.35-.216-.613-.216c-.271 0-.479.072-.625.216s-.219.349-.219.616c0 .254.073.454.219.6s.354.219.625.219zm.736 8.062v-7.021h-1.492V204h1.492zm5.145 0l2.679-7.021h-1.587l-1.428 4.082-.444 1.663h-.051c-.051-.423-.199-.978-.444-1.663h0l-1.428-4.082h-1.574l2.666 7.021h1.612zm6.611.127c.478 0 .903-.036 1.276-.108a4.58 4.58 0 0 0 1.104-.368h0v-1.212c-.41.182-.795.312-1.152.39a5.43 5.43 0 0 1-1.158.117c-.631 0-1.119-.183-1.466-.549s-.531-.89-.552-1.571h4.678v-.806c0-.986-.269-1.76-.806-2.323s-1.27-.844-2.196-.844c-.999 0-1.784.328-2.355.984s-.857 1.557-.857 2.704c0 1.117.308 1.994.924 2.631s1.469.955 2.561.955zm1.263-4.38h-3.187c.055-.576.225-1.014.511-1.314s.665-.451 1.139-.451.846.149 1.117.448.41.737.419 1.317h0zm5.329 4.38c.923 0 1.623-.349 2.101-1.047h.07l.26.92h1.168v-9.877h-1.498v2.558c0 .292.036.69.108 1.193h0-.076c-.482-.681-1.185-1.022-2.107-1.022-.88 0-1.569.321-2.066.962s-.746 1.537-.746 2.688.245 2.038.736 2.672 1.174.952 2.05.952zm.4-1.206c-.55 0-.963-.204-1.238-.613s-.413-1.002-.413-1.781c0-.787.142-1.393.425-1.819a1.37 1.37 0 0 1 1.212-.638c.614 0 1.064.186 1.352.559s.432 1.001.432 1.885h0v.209c-.008.774-.152 1.334-.432 1.679s-.726.517-1.339.517zm96.158 1.206c1.075 0 1.918-.273 2.53-.819s.917-1.299.917-2.26c0-.842-.28-1.505-.841-1.99s-1.33-.727-2.307-.727a7.43 7.43 0 0 0-1.454.146h0l.235-2.787h3.713v-.971h-4.615l-.349 4.342.546.349c.673-.123 1.21-.184 1.612-.184 1.587 0 2.38.647 2.38 1.942 0 .664-.206 1.172-.619 1.523s-.991.527-1.736.527a5.45 5.45 0 0 1-1.301-.162c-.44-.108-.808-.257-1.104-.448h0v1.016c.55.334 1.348.501 2.393.501zm9.344-.127v-3.65c0-.901.153-1.55.46-1.946s.79-.594 1.45-.594c.504 0 .874.139 1.111.416s.355.693.355 1.247h0V204h1.054v-3.885c0-.783.157-1.363.47-1.739s.798-.565 1.454-.565c.499 0 .868.139 1.104.416s.355.693.355 1.247h0V204h1.054v-4.539c0-.889-.196-1.535-.587-1.939s-.981-.606-1.768-.606c-.504 0-.952.106-1.346.317s-.694.499-.901.863h0-.051c-.334-.787-1.045-1.181-2.133-1.181a2.57 2.57 0 0 0-1.216.286 2.07 2.07 0 0 0-.841.793h0-.051l-.171-.952h-.857V204h1.054zm11.372-8.138c.169 0 .315-.058.438-.175s.184-.293.184-.53-.061-.413-.184-.527a.62.62 0 0 0-.438-.171.62.62 0 0 0-.444.168c-.118.112-.178.289-.178.53s.059.414.178.53a.61.61 0 0 0 .444.175zm.521 8.138v-6.957h-1.054V204h1.054zm3.088 0v-3.65c0-.906.169-1.555.508-1.949s.872-.59 1.6-.59c.55 0 .954.14 1.212.419s.387.702.387 1.27h0v4.5h1.054v-4.539c0-.889-.212-1.535-.635-1.939s-1.054-.606-1.892-.606a2.95 2.95 0 0 0-1.301.282 2.15 2.15 0 0 0-.908.797h0-.051l-.171-.952h-.857V204h1.054zm11.591.127c.516 0 .947-.077 1.292-.232s.691-.45 1.038-.885h.051l.209.99h.781v-4.748c0-.812-.2-1.403-.6-1.771s-1.015-.552-1.844-.552a4.88 4.88 0 0 0-1.228.159 4.95 4.95 0 0 0-1.127.438h0l.324.806c.732-.355 1.388-.533 1.968-.533.516 0 .892.13 1.127.39s.352.663.352 1.209h0v.432l-1.181.038c-2.247.068-3.371.804-3.371 2.209 0 .656.196 1.162.587 1.517s.932.533 1.622.533zm.209-.87c-.415 0-.737-.099-.968-.298s-.346-.489-.346-.87c0-.487.185-.845.555-1.076s.974-.361 1.812-.39h0l1.054-.044v.628c0 .647-.187 1.151-.562 1.511s-.89.54-1.546.54zm7.106 3.866c1.185 0 2.086-.202 2.704-.606s.927-.991.927-1.761c0-.605-.202-1.066-.606-1.384s-.983-.476-1.736-.476h0-1.231c-.381 0-.65-.045-.806-.136s-.235-.232-.235-.422c0-.36.224-.658.673-.895a3.18 3.18 0 0 0 .584.051c.813 0 1.451-.203 1.917-.609s.698-.95.698-1.631c0-.3-.047-.57-.14-.809s-.199-.433-.317-.581h0l1.289-.152v-.667h-2.406a3.52 3.52 0 0 0-.984-.127c-.838 0-1.485.206-1.942.619s-.686 1-.686 1.761a2.22 2.22 0 0 0 .34 1.219c.226.355.519.607.879.755-.292.178-.506.362-.641.552a1.12 1.12 0 0 0-.203.667.99.99 0 0 0 .181.59c.121.169.27.294.448.375-.491.11-.872.319-1.143.628a1.61 1.61 0 0 0-.406 1.098c0 .618.247 1.096.74 1.435s1.194.508 2.104.508zm.305-6.373c-.491 0-.874-.125-1.149-.375s-.413-.618-.413-1.104c0-.525.133-.92.4-1.187s.647-.4 1.143-.4c1.041 0 1.562.523 1.562 1.568 0 .999-.514 1.498-1.542 1.498zm-.292 5.567c-.592 0-1.047-.097-1.365-.292a.94.94 0 0 1-.476-.857c0-.427.133-.755.4-.984s.639-.343 1.117-.343h1.263c.643 0 1.081.073 1.314.219s.349.407.349.784c0 .453-.213.811-.638 1.076s-1.08.397-1.965.397zm7.716-2.19c1.007 0 1.796-.318 2.368-.955s.857-1.522.857-2.656c0-1.104-.287-1.98-.86-2.628s-1.347-.971-2.32-.971c-1.007 0-1.794.316-2.361.949s-.851 1.516-.851 2.65c0 .732.131 1.371.394 1.917a2.89 2.89 0 0 0 1.117 1.257c.482.292 1.035.438 1.657.438zm.025-.882c-.69 0-1.212-.233-1.568-.698s-.533-1.143-.533-2.031c0-.897.176-1.572.527-2.025s.872-.679 1.562-.679c.698 0 1.226.23 1.584.689s.536 1.131.536 2.015c0 .893-.179 1.571-.536 2.034s-.881.695-1.571.695z"/><path d="M367.475 232v-1.289h-3.732v-2.914h3.498v-1.27h-3.498v-2.526h3.732v-1.282h-5.25V232h5.25zm4.859 0l2.679-7.021h-1.587l-1.428 4.082-.444 1.663h-.051c-.051-.423-.199-.978-.444-1.663h0l-1.428-4.082h-1.574l2.666 7.021h1.612zm5.246.127c.537 0 .978-.077 1.32-.232s.683-.445 1.022-.873h.051l.298.978h1.066v-4.729c0-.834-.227-1.445-.682-1.834s-1.129-.584-2.022-.584c-.402 0-.829.052-1.282.156a5.19 5.19 0 0 0-1.25.454h0l.482 1.066a7.81 7.81 0 0 1 .952-.375 3.37 3.37 0 0 1 1.035-.159c.44 0 .765.111.974.333s.314.558.314 1.006h0v.375l-1.212.038c-1.1.034-1.919.235-2.457.603s-.806.914-.806 1.638c0 .681.194 1.208.581 1.581s.926.559 1.615.559zm.47-1.143c-.372 0-.652-.086-.838-.257s-.279-.414-.279-.727c0-.432.16-.752.479-.962s.83-.327 1.533-.352h0l.901-.038v.609c0 .546-.164.97-.492 1.273s-.763.454-1.304.454zm6.662 1.016v-9.877h-1.492V232h1.492zm4.402.127c.491 0 .928-.093 1.311-.279a2.11 2.11 0 0 0 .885-.768h.076l.209.92h1.174v-7.021h-1.498v3.498c0 .88-.147 1.508-.441 1.882s-.754.562-1.381.562c-.47 0-.815-.134-1.035-.403s-.33-.672-.33-1.209h0v-4.329h-1.504v4.589c0 .859.209 1.5.628 1.923s1.054.635 1.904.635zm7.284 0c.537 0 .978-.077 1.32-.232s.683-.445 1.022-.873h.051l.298.978h1.066v-4.729c0-.834-.227-1.445-.682-1.834s-1.129-.584-2.022-.584c-.402 0-.829.052-1.282.156a5.19 5.19 0 0 0-1.25.454h0l.482 1.066a7.81 7.81 0 0 1 .952-.375 3.37 3.37 0 0 1 1.035-.159c.44 0 .765.111.974.333s.314.558.314 1.006h0v.375l-1.212.038c-1.1.034-1.919.235-2.457.603s-.806.914-.806 1.638c0 .681.194 1.208.581 1.581s.926.559 1.615.559zm.47-1.143c-.372 0-.652-.086-.838-.257s-.279-.414-.279-.727c0-.432.16-.752.479-.962s.83-.327 1.533-.352h0l.901-.038v.609c0 .546-.164.97-.492 1.273s-.763.454-1.304.454zm7.43 1.143c.279 0 .549-.024.809-.073a3.01 3.01 0 0 0 .638-.181h0v-1.124c-.364.114-.728.171-1.092.171-.292 0-.528-.086-.708-.257s-.27-.437-.27-.797h0v-3.758h2v-1.13h-2v-1.562h-.92l-.508 1.485-1.028.546v.66h.958v3.783c0 1.49.707 2.234 2.12 2.234zm3.405-8.188c.262 0 .467-.073.613-.219s.219-.346.219-.6c0-.267-.073-.472-.219-.616s-.35-.216-.613-.216c-.271 0-.479.072-.625.216s-.219.349-.219.616c0 .254.073.454.219.6s.354.219.625.219zm.736 8.062v-7.021h-1.492V232h1.492zm4.821.127c1.049 0 1.868-.322 2.457-.965s.882-1.538.882-2.685c0-1.109-.296-1.99-.889-2.644s-1.396-.981-2.412-.981c-1.062 0-1.885.319-2.469.958s-.876 1.528-.876 2.666c0 .732.135 1.375.406 1.93s.658.98 1.162 1.276 1.083.444 1.739.444zm.025-1.219c-1.198 0-1.796-.81-1.796-2.431 0-.774.141-1.369.422-1.784s.735-.622 1.362-.622c1.193 0 1.79.802 1.79 2.406 0 1.621-.592 2.431-1.777 2.431zm6.319 1.092v-3.498c0-.876.146-1.5.438-1.873s.753-.559 1.384-.559c.474 0 .82.133 1.038.4s.327.671.327 1.212h0V232h1.498v-4.577c0-1.714-.842-2.571-2.526-2.571a3.02 3.02 0 0 0-1.295.273c-.389.182-.69.44-.901.774h0-.076l-.209-.92h-1.168V232h1.492zm11.546 0v-5.891h1.714v-1.13h-1.714v-.457c0-.419.077-.733.232-.943s.401-.314.74-.314a3.44 3.44 0 0 1 1.054.178h0l.394-1.13a4.76 4.76 0 0 0-1.549-.26c-.8 0-1.394.2-1.784.6s-.584 1.015-.584 1.844h0v.457l-1.155.457v.698h1.155V232h1.498zm3.663-8.062c.262 0 .467-.073.613-.219s.219-.346.219-.6c0-.267-.073-.472-.219-.616s-.35-.216-.613-.216c-.271 0-.479.072-.625.216s-.219.349-.219.616c0 .254.073.454.219.6s.354.219.625.219zm.736 8.062v-7.021h-1.492V232h1.492zm3.431 0v-3.498c0-.876.146-1.5.438-1.873s.753-.559 1.384-.559c.474 0 .82.133 1.038.4s.327.671.327 1.212h0V232h1.498v-4.577c0-1.714-.842-2.571-2.526-2.571a3.02 3.02 0 0 0-1.295.273c-.389.182-.69.44-.901.774h0-.076l-.209-.92h-1.168V232h1.492zm7.316-8.062c.262 0 .467-.073.613-.219s.219-.346.219-.6c0-.267-.073-.472-.219-.616s-.35-.216-.613-.216c-.271 0-.479.072-.625.216s-.219.349-.219.616c0 .254.073.454.219.6s.354.219.625.219zm.736 8.062v-7.021h-1.492V232h1.492zm3.755.127c.931 0 1.646-.183 2.146-.549s.749-.892.749-1.577c0-.339-.063-.629-.19-.873a1.84 1.84 0 0 0-.584-.644c-.262-.186-.683-.391-1.263-.616-.69-.267-1.137-.476-1.343-.628s-.308-.339-.308-.559c0-.449.394-.673 1.181-.673.516 0 1.153.157 1.911.47h0l.482-1.124a5.6 5.6 0 0 0-2.342-.501c-.834 0-1.493.166-1.977.498a1.6 1.6 0 0 0-.727 1.4c0 .499.143.906.428 1.219s.833.626 1.641.939l.971.432c.233.127.4.25.501.368a.66.66 0 0 1 .152.444c0 .554-.459.832-1.377.832-.711 0-1.479-.19-2.304-.571h0v1.289c.567.284 1.318.425 2.253.425zm5.799-.127v-3.485c0-.88.147-1.508.441-1.882s.754-.562 1.381-.562c.474 0 .82.133 1.038.4s.327.671.327 1.212h0V232h1.498v-4.577c0-1.714-.851-2.571-2.552-2.571-.482 0-.905.093-1.266.279a2.07 2.07 0 0 0-.847.787h0-.095a11.7 11.7 0 0 0 .076-1.289h0v-2.507h-1.492V232h1.492zm9.626.127c.478 0 .903-.036 1.276-.108a4.58 4.58 0 0 0 1.104-.368h0v-1.212c-.41.182-.795.312-1.152.39a5.43 5.43 0 0 1-1.158.117c-.631 0-1.119-.183-1.466-.549s-.531-.89-.552-1.571h4.678v-.806c0-.986-.269-1.76-.806-2.323s-1.27-.844-2.196-.844c-.999 0-1.784.328-2.355.984s-.857 1.557-.857 2.704c0 1.117.308 1.994.924 2.631s1.469.955 2.561.955zm1.263-4.38h-3.187c.055-.576.225-1.014.511-1.314s.665-.451 1.139-.451.846.149 1.117.448.41.737.419 1.317h0zm5.329 4.38c.923 0 1.623-.349 2.101-1.047h.07l.26.92h1.168v-9.877h-1.498v2.558c0 .292.036.69.108 1.193h0-.076c-.482-.681-1.185-1.022-2.107-1.022-.88 0-1.569.321-2.066.962s-.746 1.537-.746 2.688.245 2.038.736 2.672 1.174.952 2.05.952zm.4-1.206c-.55 0-.963-.204-1.238-.613s-.413-1.002-.413-1.781c0-.787.142-1.393.425-1.819a1.37 1.37 0 0 1 1.212-.638c.614 0 1.064.186 1.352.559s.432 1.001.432 1.885h0v.209c-.008.774-.152 1.334-.432 1.679s-.726.517-1.339.517zM555.765 232v-.978h-4.773v-.051l2.031-1.987c.906-.88 1.523-1.608 1.854-2.184s.495-1.157.495-1.746c0-.753-.248-1.353-.743-1.8s-1.179-.67-2.05-.67c-1.007 0-1.938.355-2.793 1.066h0l.559.717c.423-.334.807-.565 1.152-.692s.71-.19 1.095-.19c.533 0 .95.145 1.25.435s.451.682.451 1.177a2.69 2.69 0 0 1-.178.984c-.118.305-.296.618-.533.939s-.728.859-1.473 1.612h0l-2.444 2.457V232h6.1zm5.846 0v-3.637c0-.906.168-1.557.505-1.955s.871-.597 1.603-.597c.55 0 .954.14 1.212.419s.387.702.387 1.27h0v4.5h1.054v-4.539c0-.88-.213-1.522-.638-1.927s-1.063-.606-1.914-.606c-.491 0-.928.096-1.311.289a2.15 2.15 0 0 0-.885.79h0-.063c.034-.237.051-.535.051-.895h0v-2.99h-1.054V232h1.054zm11.591.127c.516 0 .947-.077 1.292-.232s.691-.45 1.038-.885h.051l.209.99h.781v-4.748c0-.812-.2-1.403-.6-1.771s-1.015-.552-1.844-.552a4.88 4.88 0 0 0-1.228.159 4.95 4.95 0 0 0-1.127.438h0l.324.806c.732-.355 1.388-.533 1.968-.533.516 0 .892.13 1.127.39s.352.663.352 1.209h0v.432l-1.181.038c-2.247.068-3.371.804-3.371 2.209 0 .656.196 1.162.587 1.517s.932.533 1.622.533zm.209-.87c-.415 0-.737-.099-.968-.298s-.346-.489-.346-.87c0-.487.185-.845.555-1.076s.974-.361 1.812-.39h0l1.054-.044v.628c0 .647-.187 1.151-.562 1.511s-.89.54-1.546.54zm7.106 3.866c1.185 0 2.086-.202 2.704-.606s.927-.991.927-1.761c0-.605-.202-1.066-.606-1.384s-.983-.476-1.736-.476h0-1.231c-.381 0-.65-.045-.806-.136s-.235-.232-.235-.422c0-.36.224-.658.673-.895a3.18 3.18 0 0 0 .584.051c.813 0 1.451-.203 1.917-.609s.698-.95.698-1.631c0-.3-.047-.57-.14-.809s-.199-.433-.317-.581h0l1.289-.152v-.667h-2.406a3.52 3.52 0 0 0-.984-.127c-.838 0-1.485.206-1.942.619s-.686 1-.686 1.761a2.22 2.22 0 0 0 .34 1.219c.226.355.519.607.879.755-.292.178-.506.362-.641.552a1.12 1.12 0 0 0-.203.667.99.99 0 0 0 .181.59c.121.169.27.294.448.375-.491.11-.872.319-1.143.628a1.61 1.61 0 0 0-.406 1.098c0 .618.247 1.096.74 1.435s1.194.508 2.104.508zm.305-6.373c-.491 0-.874-.125-1.149-.375s-.413-.618-.413-1.104c0-.525.133-.92.4-1.187s.647-.4 1.143-.4c1.041 0 1.562.523 1.562 1.568 0 .999-.514 1.498-1.542 1.498zm-.292 5.567c-.592 0-1.047-.097-1.365-.292a.94.94 0 0 1-.476-.857c0-.427.133-.755.4-.984s.639-.343 1.117-.343h1.263c.643 0 1.081.073 1.314.219s.349.407.349.784c0 .453-.213.811-.638 1.076s-1.08.397-1.965.397zm7.716-2.19c1.007 0 1.796-.318 2.368-.955s.857-1.522.857-2.656c0-1.104-.287-1.98-.86-2.628s-1.347-.971-2.32-.971c-1.007 0-1.794.316-2.361.949s-.851 1.516-.851 2.65c0 .732.131 1.371.394 1.917a2.89 2.89 0 0 0 1.117 1.257c.482.292 1.035.438 1.657.438zm.025-.882c-.69 0-1.212-.233-1.568-.698s-.533-1.143-.533-2.031c0-.897.176-1.572.527-2.025s.872-.679 1.562-.679c.698 0 1.226.23 1.584.689s.536 1.131.536 2.015c0 .893-.179 1.571-.536 2.034s-.881.695-1.571.695z"/></g><g class="G"><rect x="183" y="134" width="115" height="16" rx="8" class="C"/><rect x="183" y="162" width="95" height="16" rx="8" class="C"/><rect x="183" y="190" width="145" height="16" rx="8" class="C"/><rect x="183" y="218" width="145" height="16" rx="8" class="C"/></g></g><path fill="#006bb8" d="M-3-2h1132v28H-3z"/></g><g class="B"><g fill="#fff" class="D"><ellipse cx="14.769" cy="13" rx="2.769" ry="3"/><ellipse cx="24" cy="13" rx="2.769" ry="3"/><ellipse cx="33.231" cy="13" rx="2.769" ry="3"/></g><path d="M358.821 281c1.6 0 2.825-.405 3.675-1.216s1.276-1.982 1.276-3.513c0-1.443-.41-2.562-1.231-3.358s-1.97-1.193-3.447-1.193h0-2.869V281h2.596zm0-1.276h-1.079v-6.735h1.314c2.078 0 3.117 1.111 3.117 3.333 0 2.268-1.117 3.402-3.352 3.402h0zm9.652 1.403c.478 0 .903-.036 1.276-.108a4.58 4.58 0 0 0 1.104-.368h0v-1.212c-.41.182-.795.312-1.152.39a5.43 5.43 0 0 1-1.158.117c-.631 0-1.119-.183-1.466-.549s-.531-.89-.552-1.571h4.678v-.806c0-.986-.269-1.76-.806-2.323s-1.27-.844-2.196-.844c-.999 0-1.784.328-2.355.984s-.857 1.557-.857 2.704c0 1.117.308 1.994.924 2.631s1.469.955 2.561.955zm1.263-4.38h-3.187c.055-.576.225-1.014.511-1.314s.665-.451 1.139-.451.846.149 1.117.448.41.737.419 1.317h0zm4.453 7.376v-2.875c0-.127-.03-.487-.089-1.079h.089c.491.639 1.181.958 2.069.958.876 0 1.563-.322 2.06-.965s.746-1.538.746-2.685-.244-2.038-.733-2.672-1.171-.952-2.047-.952c-.931 0-1.629.355-2.095 1.066h0-.076l-.209-.939h-1.206v10.144h1.492zm1.733-4.215c-.614 0-1.056-.191-1.327-.574s-.406-1.002-.406-1.857h0v-.222c0-.762.136-1.316.409-1.663s.706-.521 1.298-.521c.537 0 .945.202 1.222.606s.416 1 .416 1.787-.14 1.386-.419 1.809-.677.635-1.193.635zm6.167 1.092v-9.877h-1.492V281h1.492zm4.821.127c1.049 0 1.868-.322 2.457-.965s.882-1.538.882-2.685c0-1.109-.296-1.99-.889-2.644s-1.396-.981-2.412-.981c-1.062 0-1.885.319-2.469.958s-.876 1.528-.876 2.666c0 .732.135 1.375.406 1.93s.658.98 1.162 1.276 1.083.444 1.739.444zm.025-1.219c-1.198 0-1.796-.81-1.796-2.431 0-.774.141-1.369.422-1.784s.735-.622 1.362-.622c1.193 0 1.79.802 1.79 2.406 0 1.621-.592 2.431-1.777 2.431zm4.999 4.215c1.274 0 2.184-.73 2.729-2.19h0l3.002-7.954h-1.612l-1.612 4.732a6.59 6.59 0 0 0-.209.847h0-.051c-.072-.499-.216-1.033-.432-1.6h0l-1.428-3.98h-1.625l2.818 7.021-.26.66c-.292.834-.798 1.25-1.517 1.25a3.48 3.48 0 0 1-.768-.076h0v1.181c.313.072.635.108.965.108zm8.09-3.123v-3.498c0-.872.134-1.495.403-1.869s.691-.562 1.266-.562c.432 0 .749.132.952.397s.305.665.305 1.203h0V281h1.498v-3.72c0-.749.134-1.304.403-1.666s.693-.543 1.273-.543c.432 0 .75.132.955.397s.308.665.308 1.203h0V281h1.492v-4.577c0-.868-.191-1.513-.574-1.936s-.993-.635-1.831-.635a2.78 2.78 0 0 0-1.295.292 2.14 2.14 0 0 0-.876.813h0-.102c-.351-.736-1.066-1.104-2.146-1.104-.444 0-.852.091-1.222.273s-.653.44-.847.774h0-.076l-.209-.92h-1.168V281h1.492zm13.803.127c.478 0 .903-.036 1.276-.108a4.58 4.58 0 0 0 1.104-.368h0v-1.212c-.41.182-.795.312-1.152.39a5.43 5.43 0 0 1-1.158.117c-.631 0-1.119-.183-1.466-.549s-.531-.89-.552-1.571h4.678v-.806c0-.986-.269-1.76-.806-2.323s-1.27-.844-2.196-.844c-.999 0-1.784.328-2.355.984s-.857 1.557-.857 2.704c0 1.117.308 1.994.924 2.631s1.469.955 2.561.955zm1.263-4.38h-3.187c.055-.576.225-1.014.511-1.314s.665-.451 1.139-.451.846.149 1.117.448.41.737.419 1.317h0zm4.453 4.253v-3.498c0-.876.146-1.5.438-1.873s.753-.559 1.384-.559c.474 0 .82.133 1.038.4s.327.671.327 1.212h0V281h1.498v-4.577c0-1.714-.842-2.571-2.526-2.571a3.02 3.02 0 0 0-1.295.273c-.389.182-.69.44-.901.774h0-.076l-.209-.92h-1.168V281h1.492zm8.82.127c.279 0 .549-.024.809-.073a3.01 3.01 0 0 0 .638-.181h0v-1.124c-.364.114-.728.171-1.092.171-.292 0-.528-.086-.708-.257s-.27-.437-.27-.797h0v-3.758h2v-1.13h-2v-1.562h-.92l-.508 1.485-1.028.546v.66h.958v3.783c0 1.49.707 2.234 2.12 2.234zm7.636-.127v-5.891h1.714v-1.13h-1.714v-.457c0-.419.077-.733.232-.943s.401-.314.74-.314a3.44 3.44 0 0 1 1.054.178h0l.394-1.13a4.76 4.76 0 0 0-1.549-.26c-.8 0-1.394.2-1.784.6s-.584 1.015-.584 1.844h0v.457l-1.155.457v.698h1.155V281H436zm3.663-8.062c.262 0 .467-.073.613-.219s.219-.346.219-.6c0-.267-.073-.472-.219-.616s-.35-.216-.613-.216c-.271 0-.479.072-.625.216s-.219.349-.219.616c0 .254.073.454.219.6s.354.219.625.219zm.736 8.062v-7.021h-1.492V281h1.492zm3.431 0v-3.498c0-.876.146-1.5.438-1.873s.753-.559 1.384-.559c.474 0 .82.133 1.038.4s.327.671.327 1.212h0V281h1.498v-4.577c0-1.714-.842-2.571-2.526-2.571a3.02 3.02 0 0 0-1.295.273c-.389.182-.69.44-.901.774h0-.076l-.209-.92h-1.168V281h1.492zm7.316-8.062c.262 0 .467-.073.613-.219s.219-.346.219-.6c0-.267-.073-.472-.219-.616s-.35-.216-.613-.216c-.271 0-.479.072-.625.216s-.219.349-.219.616c0 .254.073.454.219.6s.354.219.625.219zm.736 8.062v-7.021h-1.492V281h1.492zm3.755.127c.931 0 1.646-.183 2.146-.549s.749-.892.749-1.577c0-.339-.063-.629-.19-.873a1.84 1.84 0 0 0-.584-.644c-.262-.186-.683-.391-1.263-.616-.69-.267-1.137-.476-1.343-.628s-.308-.339-.308-.559c0-.449.394-.673 1.181-.673.516 0 1.153.157 1.911.47h0l.482-1.124a5.6 5.6 0 0 0-2.342-.501c-.834 0-1.493.166-1.977.498a1.6 1.6 0 0 0-.727 1.4c0 .499.143.906.428 1.219s.833.626 1.641.939l.971.432c.233.127.4.25.501.368a.66.66 0 0 1 .152.444c0 .554-.459.832-1.377.832-.711 0-1.479-.19-2.304-.571h0v1.289c.567.284 1.318.425 2.253.425zm5.799-.127v-3.485c0-.88.147-1.508.441-1.882s.754-.562 1.381-.562c.474 0 .82.133 1.038.4s.327.671.327 1.212h0V281h1.498v-4.577c0-1.714-.851-2.571-2.552-2.571-.482 0-.905.093-1.266.279a2.07 2.07 0 0 0-.847.787h0-.095a11.7 11.7 0 0 0 .076-1.289h0v-2.507h-1.492V281h1.492zm9.626.127c.478 0 .903-.036 1.276-.108a4.58 4.58 0 0 0 1.104-.368h0v-1.212c-.41.182-.795.312-1.152.39a5.43 5.43 0 0 1-1.158.117c-.631 0-1.119-.183-1.466-.549s-.531-.89-.552-1.571h4.678v-.806c0-.986-.269-1.76-.806-2.323s-1.27-.844-2.196-.844c-.999 0-1.784.328-2.355.984s-.857 1.557-.857 2.704c0 1.117.308 1.994.924 2.631s1.469.955 2.561.955zm1.263-4.38h-3.187c.055-.576.225-1.014.511-1.314s.665-.451 1.139-.451.846.149 1.117.448.41.737.419 1.317h0zm5.329 4.38c.923 0 1.623-.349 2.101-1.047h.07l.26.92h1.168v-9.877h-1.498v2.558c0 .292.036.69.108 1.193h0-.076c-.482-.681-1.185-1.022-2.107-1.022-.88 0-1.569.321-2.066.962s-.746 1.537-.746 2.688.245 2.038.736 2.672 1.174.952 2.05.952zm.4-1.206c-.55 0-.963-.204-1.238-.613s-.413-1.002-.413-1.781c0-.787.142-1.393.425-1.819a1.37 1.37 0 0 1 1.212-.638c.614 0 1.064.186 1.352.559s.432 1.001.432 1.885h0v.209c-.008.774-.152 1.334-.432 1.679s-.726.517-1.339.517zM549.765 281v-.978h-4.773v-.051l2.031-1.987c.906-.88 1.523-1.608 1.854-2.184s.495-1.157.495-1.746c0-.753-.248-1.353-.743-1.8s-1.179-.67-2.05-.67c-1.007 0-1.938.355-2.793 1.066h0l.559.717c.423-.334.807-.565 1.152-.692s.71-.19 1.095-.19c.533 0 .95.145 1.25.435s.451.682.451 1.177a2.69 2.69 0 0 1-.178.984c-.118.305-.296.618-.533.939s-.728.859-1.473 1.612h0l-2.444 2.457V281h6.1zm5.846 0v-3.637c0-.906.168-1.557.505-1.955s.871-.597 1.603-.597c.55 0 .954.14 1.212.419s.387.702.387 1.27h0v4.5h1.054v-4.539c0-.88-.213-1.522-.638-1.927s-1.063-.606-1.914-.606c-.491 0-.928.096-1.311.289a2.15 2.15 0 0 0-.885.79h0-.063c.034-.237.051-.535.051-.895h0v-2.99h-1.054V281h1.054zm11.591.127c.516 0 .947-.077 1.292-.232s.691-.45 1.038-.885h.051l.209.99h.781v-4.748c0-.812-.2-1.403-.6-1.771s-1.015-.552-1.844-.552a4.88 4.88 0 0 0-1.228.159 4.95 4.95 0 0 0-1.127.438h0l.324.806c.732-.355 1.388-.533 1.968-.533.516 0 .892.13 1.127.39s.352.663.352 1.209h0v.432l-1.181.038c-2.247.068-3.371.804-3.371 2.209 0 .656.196 1.162.587 1.517s.932.533 1.622.533zm.209-.87c-.415 0-.737-.099-.968-.298s-.346-.489-.346-.87c0-.487.185-.845.555-1.076s.974-.361 1.812-.39h0l1.054-.044v.628c0 .647-.187 1.151-.562 1.511s-.89.54-1.546.54zm7.106 3.866c1.185 0 2.086-.202 2.704-.606s.927-.991.927-1.761c0-.605-.202-1.066-.606-1.384s-.983-.476-1.736-.476h0-1.231c-.381 0-.65-.045-.806-.136s-.235-.232-.235-.422c0-.36.224-.658.673-.895a3.18 3.18 0 0 0 .584.051c.813 0 1.451-.203 1.917-.609s.698-.95.698-1.631c0-.3-.047-.57-.14-.809s-.199-.433-.317-.581h0l1.289-.152v-.667h-2.406a3.52 3.52 0 0 0-.984-.127c-.838 0-1.485.206-1.942.619s-.686 1-.686 1.761a2.22 2.22 0 0 0 .34 1.219c.226.355.519.607.879.755-.292.178-.506.362-.641.552a1.12 1.12 0 0 0-.203.667.99.99 0 0 0 .181.59c.121.169.27.294.448.375-.491.11-.872.319-1.143.628a1.61 1.61 0 0 0-.406 1.098c0 .618.247 1.096.74 1.435s1.194.508 2.104.508zm.305-6.373c-.491 0-.874-.125-1.149-.375s-.413-.618-.413-1.104c0-.525.133-.92.4-1.187s.647-.4 1.143-.4c1.041 0 1.562.523 1.562 1.568 0 .999-.514 1.498-1.542 1.498zm-.292 5.567c-.592 0-1.047-.097-1.365-.292a.94.94 0 0 1-.476-.857c0-.427.133-.755.4-.984s.639-.343 1.117-.343h1.263c.643 0 1.081.073 1.314.219s.349.407.349.784c0 .453-.213.811-.638 1.076s-1.08.397-1.965.397zm7.716-2.19c1.007 0 1.796-.318 2.368-.955s.857-1.522.857-2.656c0-1.104-.287-1.98-.86-2.628s-1.347-.971-2.32-.971c-1.007 0-1.794.316-2.361.949s-.851 1.516-.851 2.65c0 .732.131 1.371.394 1.917a2.89 2.89 0 0 0 1.117 1.257c.482.292 1.035.438 1.657.438zm.025-.882c-.69 0-1.212-.233-1.568-.698s-.533-1.143-.533-2.031c0-.897.176-1.572.527-2.025s.872-.679 1.562-.679c.698 0 1.226.23 1.584.689s.536 1.131.536 2.015c0 .893-.179 1.571-.536 2.034s-.881.695-1.571.695z" fill="#333"/></g><rect x="177" y="267" width="145" height="16" rx="8" class="C G"/><g class="B"><path d="M150.441 273.534l1.738.721c-.196.495-.352 1.004-.467 1.523l-.066.3 2.491 2.493.3-.064c.519-.115 1.029-.271 1.523-.467l.721 1.738c.014.035.045.06.082.068s.075-.005.102-.032l1.089-1.089a1.8 1.8 0 0 0 .524-1.362l-.039-.7c2.016-1.489 4.057-4.1 4.612-8.657a.75.75 0 0 0-.84-.845c-4.555.56-7.168 2.602-8.657 4.612l-.698-.036a1.8 1.8 0 0 0-1.362.517l-1.089 1.089c-.031.026-.045.067-.038.106s.036.072.074.085zm6.987-2.654a1.35 1.35 0 0 1 1.906.002 1.35 1.35 0 0 1 0 1.906 1.35 1.35 0 0 1-2.302-.953 1.35 1.35 0 0 1 .397-.955zm-7.312 7.89a1.77 1.77 0 0 0-.899-.072c-.054.012-.111-.005-.15-.045-.049-.048-.062-.122-.033-.184.319-.686 1.165-2.066 2.698-.951.016.014.025.035.025.057s-.009.042-.025.057c-.416.328-.651.834-.634 1.363.002.064.053.115.117.117.527.021 1.033-.209 1.363-.62.015-.018.036-.028.059-.028s.045.01.059.028c.213.253.798 1.08.15 1.879-.283.34-.689.556-1.13.599-.629.067-1.792.273-2.266.815-.039.046-.1.067-.159.054s-.106-.056-.123-.114c-.168-.572-.428-1.852.947-2.954z" fill="#14ba5a"/><path d="M157.285 131.5c1.261.004 2.282 1.025 2.285 2.285v11.429c-.004 1.261-1.025 2.282-2.285 2.285h-2.287c-1.261-.004-2.282-1.025-2.285-2.285v-11.429c.004-1.261 1.025-2.282 2.285-2.285h2.287zm-5.715 11.429v2.863l-2.195-2.388c-.195-.263-.069-.475.283-.475h1.912zm4.571-.566c-.694 0-1.32.418-1.585 1.06s-.117 1.379.375 1.869 1.23.635 1.871.367 1.056-.895 1.054-1.589c-.004-.944-.77-1.708-1.715-1.708zm0-4.578v.007c-.694 0-1.32.418-1.585 1.06s-.117 1.379.375 1.869 1.23.635 1.871.367 1.056-.895 1.054-1.589c0-.947-.768-1.715-1.715-1.715zm-4.571.564v2.863l-2.195-2.387c-.195-.263-.069-.477.283-.477h1.912zm4.571-5.135c-.947 0-1.715.768-1.715 1.715s.768 1.715 1.715 1.715 1.715-.768 1.715-1.715c0-.455-.181-.891-.502-1.212s-.758-.502-1.212-.502zm-4.571.571v2.851l-2.195-2.376c-.195-.261-.069-.475.283-.475h1.912z" class="E"/></g><g transform="matrix(0 -1 1 0 160.5 147.5)"><rect fill="#cdcdcd" y=".5" width="16" height="3" rx="1"/><path d="M1.5.5H8v3H1.5a1.5 1.5 0 1 1 0-3z" fill="#006bb8"/></g><g class="B"><g fill="#14ba5a"><path d="M157.285 240.5c1.261.004 2.282 1.025 2.285 2.285v11.429c-.004 1.261-1.025 2.282-2.285 2.285h-2.287c-1.261-.004-2.282-1.025-2.285-2.285v-11.429c.004-1.261 1.025-2.282 2.285-2.285h2.287zm5.339 11.429c.352 0 .478.212.283.475h0l-2.195 2.388v-2.863zm-11.053 0v2.863l-2.195-2.388c-.195-.263-.069-.475.283-.475h1.912zm4.571-.566c-.694 0-1.32.418-1.585 1.06s-.117 1.379.375 1.869 1.23.635 1.871.367 1.056-.895 1.054-1.589c-.004-.944-.77-1.708-1.715-1.708zm0-4.578v.007c-.694 0-1.32.418-1.585 1.06s-.117 1.379.375 1.869 1.23.635 1.871.367 1.056-.895 1.054-1.589c0-.947-.768-1.715-1.715-1.715zm6.483.564c.352 0 .478.214.283.477h0l-2.195 2.387v-2.863zm-11.053 0v2.863l-2.195-2.387c-.195-.263-.069-.477.283-.477h1.912zm4.571-5.135c-.947 0-1.715.768-1.715 1.715s.768 1.715 1.715 1.715 1.715-.768 1.715-1.715c0-.455-.181-.891-.502-1.212s-.758-.502-1.212-.502zm6.483.571c.352 0 .478.214.283.475h0l-2.195 2.376v-2.851zm-11.053 0v2.851l-2.195-2.376c-.195-.261-.069-.475.283-.475h1.912z"/><use xlink:href="#I"/><use xlink:href="#I" y="28"/></g><path d="M156.001 213.064c.452 0 .924.411 1.295 1.128l5.857 11.324c.373.722.449 1.393.209 1.843s-.817.705-1.579.705h-11.564c-.762 0-1.338-.258-1.579-.705s-.166-1.121.207-1.843l5.858-11.324c.372-.717.844-1.128 1.297-1.128zM156 224.242a1.04 1.04 0 0 0-1.041 1.041c0 .576.467 1.043 1.041 1.043s1.042-.467 1.042-1.043a1.04 1.04 0 0 0-1.042-1.041zm0-7.242a1.04 1.04 0 0 0-1.041 1.041c0 .031.006.059.008.088h-.005l.416 4.741a.63.63 0 0 0 .623.573c.328 0 .593-.253.62-.573l.419-4.741h-.005c.003-.029.008-.057.008-.088A1.04 1.04 0 0 0 156 217z" fill="#de3737"/></g></g></svg>