<svg xmlns="http://www.w3.org/2000/svg" xmlns:xlink="http://www.w3.org/1999/xlink" width="320" height="332" xmlns:v="https://vecta.io/nano"><style><![CDATA[.B{fill:#fff}.C{opacity:.232}.D{fill-rule:nonzero}.E{fill:#006bb8}.F{mask:url(#Q)}.G{mask:url(#P)}.H{fill:#14ba5a}.I{fill:#002c66}.J{fill:#b5cee0}.K{stroke:#7aafd5}.L{stroke-width:1.529}.M{filter:url(#B)}.N{stroke:#006bb8}.O{stroke-width:1.103}.P{stroke-dasharray:2.482758554919013,1.655172479563746}.Q{stroke-width:1.379}]]></style><defs><rect id="A" width="88" height="150" rx="5"/><filter x="-36.9%" y="-21.7%" width="189.8%" height="152.7%" id="B"><feOffset dx="7" dy="7" in="SourceAlpha"/><feGaussianBlur stdDeviation="12"/><feColorMatrix values="0 0 0 0 0.0352941176   0 0 0 0 0.2   0 0 0 0 0.31372549  0 0 0 0.12 0"/></filter><rect id="C" width="88" height="150" rx="5"/><rect id="D" width="88" height="150" rx="5"/><linearGradient x1="87.1768124%" y1="56.4172548%" x2="14.6396479%" y2="27.2739213%" id="E"><stop stop-color="#14ba5a" stop-opacity="0" offset="0%"/><stop stop-color="#14ba5a" offset="100%"/></linearGradient><linearGradient x1="78.3411479%" y1="50%" x2="14.7243746%" y2="27.2739213%" id="F"><stop stop-color="#de3737" stop-opacity="0" offset="0%"/><stop stop-color="#de3737" offset="100%"/></linearGradient><path d="M40.977 12.488l-.001 5.213 6.251 3.903 2.015 8.865H28.893l2.015-8.865 6.225-3.888v-5.228h3.844z" id="G"/><path d="M28.605 34.483l-4.278 77.931h30.328l-4.847-77.931H28.605z" id="H"/><path id="I" d="M0 0h43.448v22.176H0z"/><path id="J" d="M0 0h43.164v14.29H0z"/><path id="K" d="M13.103 75.913h7.128l3.354-8.593 5.032 19.577 8.386-24.138 2.935 13.154h7.967l4.468-7.749 3.918 7.749h9.225"/><path id="L" d="M58.518 112.91v16.498c-1.196-.606-2.243-1.449-3.076-2.462-1.761 2.141-4.477 3.519-7.531 3.519-3.136 0-5.911-1.453-7.665-3.691-1.754 2.238-4.53 3.691-7.666 3.691-3.11 0-5.866-1.43-7.623-3.638a9.64 9.64 0 0 1-4.369 3.091V112.91h37.931z"/><path id="M" d="M39.558 98.621c-6.612 0-11.972 5.36-11.972 11.972s5.36 11.972 11.972 11.972 11.972-5.36 11.972-11.972-5.36-11.972-11.972-11.972zm0 22.407c-1.881 0-3.406-1.257-3.406-2.806h6.813c0 1.549-1.525 2.806-3.406 2.806h0zm5.626-3.736H33.931v-2.041h11.253v2.041zm-.04-3.091H33.963l-.111-.129c-1.152-1.399-1.423-2.129-1.687-2.873-.004-.025 1.397.286 2.39.51a30.21 30.21 0 0 0 1.259.255c-.718-.841-1.144-1.911-1.144-3.004 0-2.4 1.841-4.497 1.177-6.192.646.053 1.338 1.364 1.384 3.414.687-.95.975-2.683.975-3.747 0-1.101.725-2.379 1.451-2.423-.647 1.066.167 1.98.891 4.246.271.851.237 2.284.446 3.193.07-1.887.394-4.641 1.591-5.592-.528 1.197.078 2.695.493 3.416.669 1.162 1.075 2.042 1.075 3.707 0 1.116-.412 2.167-1.107 2.989.791-.148 1.336-.282 1.336-.282l2.567-.501c0 0-.373 1.534-1.806 3.012h0z"/><path id="N" d="M.048.164c2.997 0 5.654 1.43 7.347 3.638C9.087 1.594 11.744.164 14.741.164s5.654 1.43 7.346 3.638C23.779 1.594 26.436.164 29.433.164c3.021 0 5.696 1.453 7.386 3.691C38.51 1.617 41.185.164 44.206.164c2.944 0 5.56 1.377 7.256 3.519C53.159 1.541 55.777.164 58.72.164c3.016 0 5.688 1.449 7.378 3.681C67.789 1.613 70.461.164 73.477.164c3.028 0 5.708 1.459 7.397 3.706 1.69-2.247 4.37-3.706 7.398-3.706 2.997 0 5.654 1.43 7.346 3.638C97.31 1.594 99.966.164 102.964.164s5.654 1.43 7.346 3.638c1.693-2.208 4.35-3.638 7.347-3.638 3.021 0 5.696 1.453 7.386 3.691 1.69-2.238 4.365-3.691 7.386-3.691 2.944 0 5.56 1.377 7.257 3.519C141.382 1.541 144 .164 146.943.164c3.016 0 5.687 1.449 7.379 3.681 1.69-2.232 4.362-3.681 7.378-3.681 2.977 0 5.618 1.41 7.312 3.593 1.694-2.182 4.336-3.593 7.312-3.593 2.997 0 5.654 1.43 7.346 3.638 1.693-2.208 4.349-3.638 7.346-3.638s5.654 1.43 7.346 3.638c1.693-2.208 4.35-3.638 7.346-3.638 3.022 0 5.696 1.453 7.387 3.691 1.69-2.238 4.365-3.691 7.386-3.691 2.943 0 5.56 1.377 7.257 3.519 1.696-2.141 4.313-3.519 7.257-3.519 3.016 0 5.688 1.449 7.378 3.681 1.691-2.232 4.362-3.681 7.379-3.681"/></defs><g transform="translate(-38)" fill="none" fill-rule="evenodd"><path d="M146.694 0l-18.999 18.999 9.9 9.9-18.9 18.9 1.55 1.549-18.816 18.815-7.252-7.643 14.518-14.519L87.694 25 71.806 40.888 60.918 30l-8.612 8.611L33.694 20 14.695 38.999 33.307 57.61 8.195 82.722l23.815 23.815L5.336 130l29.201 30.387L0 192.462l25.485 25.397-11.79 11.79 22.176 22.175-12.176 12.175L44.696 285l18.999-18.999-14.824-14.825 5.015-5.015 30.643 30.538 16.813-16.754L119.397 278l5.988-5.987L138.371 285l12.824-12.824-8.662-8.663 8.675-8.675L162.371 266l10.555-10.556 5.598 5.556 25.181-24.992L217.696 250l18.999-18.999-13.919-13.92 4.431-4.399L285.525 271l12.085-12.086L315.696 277l18.999-18.999-15.436-15.437 6.964-6.963L344.622 254l27.073-27.074-18.399-18.399 34.399-34.398-19.913-19.913 12.913-12.913-6.151-6.151 13.151-13.151L366.694 101l-13.151 13.151-6.01-6.011 20.162-20.162-10.488-10.488 12.168-12.17 6.846 6.68 19.474-18.999L374.169 32l-18.968 18.506L348.694 44l-12.488 12.489-30.168-30.168 2.657-2.57L292.42 8l-14.724 14.249 4.966 4.806-15.869 15.869-2.51-2.51 4.413-4.413L247.694 15l-18.999 18.999 11.587 11.587-11.914 11.913-3.385-3.385 5.712-5.713L201.294 19l-25.713 25.712L168.869 38l-7.188 7.187-9.086-9.086 15.1-15.1L146.694 0zm66.328 77.499l42.173 42.173-46.189 46.187L171.867 129l-40.906 40.598-2.516-2.588 36.25-32.168-20.321-21.418 21.073-21.073L193.097 120l26.598-26.599-11.287-11.287 4.614-4.615zM326.695 79h-267v133h267V79z" fill="#d9e9f4" opacity=".4" class="D"/><g transform="translate(57.695 49)"><g transform="translate(0 28)"><mask id="O" class="B"><use xlink:href="#A"/></mask><g class="D"><use fill="#000" xlink:href="#A" class="M"/><use xlink:href="#A" class="B"/><g mask="url(#O)"><g transform="translate(9 7)"><g class="E"><path transform="matrix(1 0 0 -1 0 75)" d="M12.5 46l-6.817-3.367L4 35.067 8.717 29h7.565L21 35.067l-1.683 7.566z" class="C"/><path transform="matrix(1 0 0 -1 0 125)" d="M12.5 71l-6.817-3.367L4 60.067 8.717 54h7.565L21 60.067l-1.683 7.566z" class="C"/><path transform="matrix(1 0 0 -1 0 179)" d="M12.5 98l-6.817-3.367L4 87.067 8.717 81h7.565L21 87.067l-1.683 7.566z" class="C"/><path transform="matrix(1 0 0 -1 0 75)" d="M33.5 46l-6.817-3.367L25 35.067 29.717 29h7.565L42 35.067l-1.683 7.566z" class="C"/><g transform="matrix(1 0 0 -1 0 125)"><path d="M33.5 71l-6.817-3.367L25 60.067 29.717 54h7.565L42 60.067l-1.683 7.566z" class="C"/></g></g><path stroke-opacity=".362" stroke-width="2" transform="matrix(1 0 0 -1 0 125)" d="M56.5 71l-6.817-3.367L48 60.067 52.717 54h7.565L65 60.067l-1.683 7.566z" class="N"/><g class="E"><path transform="matrix(1 0 0 -1 0 179)" d="M33.5 98l-6.817-3.367L25 87.067 29.717 81h7.565L42 87.067l-1.683 7.566z" class="C"/><path d="M3.352 13.159c.406 0 .772-.075 1.098-.225a2.02 2.02 0 0 0 .8-.651h0v.444c0 .085.033.151.098.2s.16.073.282.073h.971c.288 0 .492-.055.613-.165s.181-.29.181-.54c0-.224-.057-.395-.171-.511s-.286-.175-.514-.175h0-.108v-6.5c0-.161-.026-.271-.079-.33s-.151-.089-.295-.089h0-1.974c-.292 0-.499.055-.622.165s-.184.29-.184.54.061.424.184.536.33.168.622.168h.844v1.606a2.78 2.78 0 0 0-.784-.422c-.286-.099-.579-.149-.879-.149-.872 0-1.59.29-2.155.87s-.847 1.31-.847 2.19c0 .846.279 1.552.838 2.117s1.253.847 2.082.847zm.273-1.352a1.31 1.31 0 0 1-1.035-.467c-.271-.311-.406-.712-.406-1.203 0-.478.136-.873.409-1.184s.617-.467 1.031-.467a1.32 1.32 0 0 1 1.035.47c.275.313.413.707.413 1.181 0 .487-.136.887-.409 1.2s-.619.47-1.038.47zm7.795 1.352c.868 0 1.595-.144 2.184-.432s.882-.631.882-1.028c0-.182-.05-.331-.149-.448a.48.48 0 0 0-.384-.175c-.106 0-.415.128-.927.384s-1.03.384-1.555.384-.945-.116-1.26-.349-.528-.584-.638-1.054h4.094c.377 0 .625-.047.746-.14s.181-.264.181-.514c0-.783-.3-1.444-.901-1.984s-1.358-.809-2.272-.809c-1.024 0-1.857.288-2.498.863s-.962 1.314-.962 2.215.321 1.646.962 2.222 1.474.863 2.498.863zm1.574-3.707H9.572c.11-.415.306-.725.587-.93s.653-.308 1.114-.308c.478 0 .866.108 1.165.324s.483.521.555.914h0zm5.643 3.707c.233 0 .405-.033.517-.098s.238-.242.378-.53h0l1.885-4.005h.108c.229 0 .402-.059.521-.178s.178-.292.178-.521c0-.245-.06-.422-.181-.53s-.329-.162-.625-.162h0-1.492c-.296 0-.505.053-.625.159s-.181.284-.181.533c0 .229.06.402.181.521s.295.178.524.178h.102l-1.2 2.704-1.143-2.704h.108c.224 0 .397-.059.517-.178s.181-.292.181-.521c0-.245-.061-.422-.184-.53s-.33-.162-.622-.162h0-1.612c-.292 0-.499.053-.622.159s-.184.284-.184.533c0 .229.06.402.181.521s.295.178.524.178h.102l1.771 4.005.038.095c.148.355.434.533.857.533z"/></g></g></g></g></g><g transform="translate(96 28)"><mask id="P" class="B"><use xlink:href="#C"/></mask><g class="D"><use fill="#000" xlink:href="#C" class="M"/><use xlink:href="#C" class="B"/><g class="E G"><path d="M21.5 53l-6.817-3.367L13 42.067 17.717 36h7.565L30 42.067l-1.683 7.566zm21 0l-6.817-3.367L34 42.067 38.717 36h7.565L51 42.067l-1.683 7.566z" class="C" transform="matrix(1 0 0 -1 0 89)"/><path d="M42.5 78l-6.817-3.367L34 67.067 38.717 61h7.565L51 67.067l-1.683 7.566zm-21 0l-6.817-3.367L13 67.067 17.717 61h7.565L30 67.067l-1.683 7.566z" class="C" transform="matrix(1 0 0 -1 0 139)"/></g><path transform="matrix(1 0 0 -1 0 139)" d="M65.5 78l-6.817-3.367L57 67.067 61.717 61h7.565L74 67.067l-1.683 7.566z" class="G H"/><path d="M13.107 20.171c.868 0 1.537-.175 2.009-.524s.708-.843.708-1.482c0-.546-.179-.957-.536-1.235s-1.015-.486-1.971-.625l-.521-.063c-.762-.102-1.143-.3-1.143-.597 0-.19.091-.34.273-.448s.438-.162.768-.162c.423 0 .845.151 1.266.454s.718.454.892.454.3-.05.394-.149.14-.24.14-.422h0v-.781c0-.216-.045-.378-.136-.486s-.223-.162-.397-.162a.72.72 0 0 0-.333.076c-.099.051-.194.129-.282.235-.305-.093-.602-.162-.892-.206a5.59 5.59 0 0 0-.847-.067c-.8 0-1.416.163-1.847.489s-.647.787-.647 1.384c0 .504.18.905.54 1.203s.908.498 1.644.6l.508.07c.978.131 1.466.368 1.466.711 0 .19-.091.345-.273.463s-.425.178-.73.178c-.351 0-.664-.047-.939-.14s-.516-.233-.724-.419c-.063-.063-.142-.161-.235-.292-.157-.241-.36-.362-.609-.362-.229 0-.389.058-.482.175s-.14.314-.14.594h0v.844c0 .267.037.449.111.546s.202.146.384.146c.123 0 .242-.022.359-.067s.23-.109.34-.194c.292.085.595.149.908.194s.639.067.978.067zm7.509-.044c.749 0 1.419-.134 2.009-.403s.885-.566.885-.892c0-.195-.062-.361-.187-.498s-.274-.206-.448-.206c-.152 0-.453.095-.901.286s-.838.286-1.168.286c-.351 0-.597-.085-.736-.254s-.209-.482-.209-.939h0V15.88h1.936c.288 0 .494-.055.619-.165s.187-.29.187-.54-.061-.421-.184-.527-.33-.159-.622-.159h0-1.936v-1.485c0-.292-.06-.497-.181-.616s-.321-.178-.6-.178-.479.059-.6.178-.181.324-.181.616h0v1.485h-.597c-.292 0-.497.052-.616.156s-.178.28-.178.53.06.43.181.54.325.165.613.165h.597v1.765c0 .554.03.95.089 1.187s.159.44.298.609c.19.22.451.389.781.508s.713.178 1.149.178zm6.037.032c.402 0 .8-.061 1.193-.184a4.37 4.37 0 0 0 1.117-.533c.068.212.153.358.257.438s.261.121.473.121h.597c.288 0 .494-.054.619-.162s.187-.285.187-.53c0-.224-.06-.397-.181-.517s-.295-.181-.524-.181h0-.102v-2.355c0-.829-.195-1.418-.584-1.765s-1.035-.521-1.936-.521c-.863 0-1.546.101-2.047.302s-.752.473-.752.816c0 .19.061.344.184.46s.284.175.482.175.522-.104.955-.311.79-.311 1.07-.311c.36 0 .632.099.816.298s.276.489.276.87h0v.121l-.768-.102-.647-.032c-.91 0-1.617.176-2.12.527s-.755.844-.755 1.479c0 .588.195 1.052.584 1.39s.925.508 1.606.508zm.514-1.276c-.317 0-.561-.065-.73-.194s-.254-.316-.254-.562c0-.275.132-.491.397-.647s.629-.235 1.095-.235a3.83 3.83 0 0 1 .495.035l.584.105v.978c-.25.178-.504.309-.762.394s-.533.127-.825.127zm7.458 3.663c1.113 0 1.921-.209 2.425-.628s.755-1.092.755-2.019h0v-4.374h.108c.224 0 .395-.059.511-.178s.175-.292.175-.521c0-.245-.059-.422-.178-.53s-.324-.162-.616-.162h0-1.035a.47.47 0 0 0-.276.067c-.061.044-.092.109-.092.194h0v.33c-.212-.254-.461-.441-.749-.562s-.622-.181-1.003-.181c-.88 0-1.603.277-2.168.832s-.847 1.261-.847 2.12c0 .834.27 1.516.809 2.047s1.235.797 2.085.797a3.38 3.38 0 0 0 .917-.124 3.89 3.89 0 0 0 .892-.384h0v.286c0 .592-.115 1.003-.346 1.231s-.649.343-1.254.343c-.262 0-.548-.019-.857-.057l-.546-.057c-.216 0-.389.063-.521.19s-.197.292-.197.495c0 .292.162.506.486.641s.83.203 1.52.203zm.203-4.043c-.415 0-.759-.149-1.031-.448s-.409-.676-.409-1.133c0-.465.136-.848.409-1.149s.617-.451 1.031-.451a1.34 1.34 0 0 1 1.038.451c.273.3.409.683.409 1.149 0 .457-.136.835-.409 1.133s-.619.448-1.038.448zm7.636-5.25c.339 0 .553-.052.644-.156s.136-.371.136-.803c0-.449-.051-.732-.152-.851s-.307-.178-.616-.178c-.334 0-.55.074-.647.222s-.146.493-.146 1.035c0 .292.048.487.143.584s.308.146.638.146zM44.756 20c.288 0 .494-.055.619-.165s.187-.29.187-.54-.061-.421-.184-.527-.33-.159-.622-.159h0-1.365v-4.202c0-.085-.032-.151-.095-.2s-.154-.073-.273-.073h0-1.911c-.292 0-.497.053-.616.159s-.178.284-.178.533.061.428.184.536.326.162.609.162h.717v3.085h-1.365c-.296 0-.505.053-.625.159s-.181.281-.181.527.062.43.187.54.331.165.619.165h4.291zm4.139 0c.284 0 .487-.055.609-.165s.184-.29.184-.54c0-.233-.059-.407-.178-.524s-.298-.175-.54-.175h0-.076v-1.834c0-.423.111-.763.333-1.019s.509-.384.86-.384c.33 0 .566.107.708.321s.213.574.213 1.082h0v1.834h-.076c-.241 0-.422.058-.543.175s-.181.291-.181.524c0 .25.062.43.187.54s.329.165.613.165h1.562c.288 0 .492-.055.613-.165s.181-.29.181-.54c0-.233-.059-.407-.178-.524s-.296-.175-.533-.175h0-.083v-2.12c0-.842-.166-1.468-.498-1.879s-.837-.616-1.514-.616a2.28 2.28 0 0 0-1.051.232c-.303.154-.551.384-.746.689h0v-.495c0-.089-.031-.157-.092-.203s-.151-.07-.27-.07h0-1.079c-.292 0-.499.055-.622.165s-.184.29-.184.54c0 .224.059.395.178.511s.292.175.521.175h.108v3.072h-.076c-.241 0-.421.058-.54.175s-.178.291-.178.524c0 .25.061.43.184.54s.326.165.609.165h1.574zm7.934 2.545c1.113 0 1.921-.209 2.425-.628s.755-1.092.755-2.019h0v-4.374h.108c.224 0 .395-.059.511-.178s.175-.292.175-.521c0-.245-.059-.422-.178-.53s-.324-.162-.616-.162h0-1.035a.47.47 0 0 0-.276.067c-.061.044-.092.109-.092.194h0v.33c-.212-.254-.461-.441-.749-.562s-.622-.181-1.003-.181c-.88 0-1.603.277-2.168.832s-.847 1.261-.847 2.12c0 .834.27 1.516.809 2.047s1.235.797 2.085.797a3.38 3.38 0 0 0 .917-.124 3.89 3.89 0 0 0 .892-.384h0v.286c0 .592-.115 1.003-.346 1.231s-.649.343-1.254.343c-.262 0-.548-.019-.857-.057l-.546-.057c-.216 0-.389.063-.521.19s-.197.292-.197.495c0 .292.162.506.486.641s.83.203 1.52.203zm.203-4.043c-.415 0-.759-.149-1.031-.448s-.409-.676-.409-1.133c0-.465.136-.848.409-1.149s.617-.451 1.031-.451a1.34 1.34 0 0 1 1.038.451c.273.3.409.683.409 1.149 0 .457-.136.835-.409 1.133s-.619.448-1.038.448z" class="E G"/></g></g><path d="M69.375 12V7.02l-.139-3.42h.066L71.879 12h2.08l2.761-8.386h.066l-.099 2.49-.011.828V12h2.117V1.292h-3.091L73.015 9.48h-.044l-2.534-8.188h-3.091V12h2.029zm14.802.146c.562 0 1.062-.104 1.501-.311s.779-.502 1.018-.883h.117l.3 1.047h1.714V3.812h-2.234v3.853c0 .967-.139 1.659-.417 2.076s-.73.626-1.355.626c-.459 0-.793-.148-1.003-.443s-.315-.739-.315-1.329h0V3.812h-2.234v5.339c0 .967.244 1.708.732 2.223s1.213.773 2.175.773zM93.405 12V.604h-2.234V12h2.234zm5.149.146c.811 0 1.494-.125 2.051-.374h0V10.11c-.547.171-1.016.256-1.406.256-.293 0-.529-.076-.707-.227s-.267-.386-.267-.703h0V5.489h2.292V3.812h-2.292V2.068h-1.428l-.645 1.729-1.23.747v.945h1.069v3.948c0 .903.204 1.581.612 2.032s1.058.677 1.952.677zm4.827-9.353c.405 0 .709-.096.912-.289s.304-.463.304-.809c0-.728-.405-1.091-1.216-1.091s-1.216.364-1.216 1.091.405 1.099 1.216 1.099zM104.494 12V3.812h-2.234V12h2.234zm5.552-3.105V7.063h-3.933v1.831h3.933zm3.838 3.252c1.162 0 2.035-.22 2.618-.659s.875-1.079.875-1.919c0-.405-.071-.754-.212-1.047s-.361-.552-.659-.776-.767-.466-1.406-.725c-.718-.288-1.183-.505-1.395-.652s-.319-.32-.319-.52c0-.356.33-.535.989-.535a3.61 3.61 0 0 1 1.091.168c.356.112.74.256 1.15.432h0l.674-1.611c-.933-.43-1.892-.645-2.878-.645-1.035 0-1.835.199-2.399.597s-.846.961-.846 1.688c0 .425.067.782.201 1.073s.349.548.645.773.758.469 1.388.732l1.055.487c.264.139.449.264.557.374s.161.253.161.428c0 .469-.405.703-1.216.703-.396 0-.853-.066-1.373-.198s-.988-.295-1.403-.491h0v1.846c.366.156.759.275 1.179.355s.928.121 1.523.121zm8.042 0c.811 0 1.494-.125 2.051-.374h0V10.11c-.547.171-1.016.256-1.406.256-.293 0-.529-.076-.707-.227s-.267-.386-.267-.703h0V5.489h2.292V3.812h-2.292V2.068h-1.428l-.645 1.729-1.23.747v.945h1.069v3.948c0 .903.204 1.581.612 2.032s1.058.677 1.952.677zm5.698 0c.64 0 1.158-.092 1.556-.275s.785-.511 1.161-.985h.059l.432 1.113h1.56V6.543c0-.977-.293-1.704-.879-2.183s-1.428-.718-2.527-.718c-1.147 0-2.192.247-3.135.74h0l.74 1.509c.884-.396 1.653-.593 2.307-.593.85 0 1.274.415 1.274 1.245h0v.359l-1.421.044c-1.226.044-2.142.272-2.75.685s-.912 1.053-.912 1.923c0 .83.226 1.47.677 1.919s1.071.674 1.857.674zm.842-1.633c-.723 0-1.084-.315-1.084-.945 0-.439.159-.767.476-.981s.801-.332 1.45-.352h0l.864-.029v.674c0 .493-.155.889-.465 1.187s-.724.447-1.241.447zm8.621 5.09c1.494 0 2.64-.264 3.439-.791s1.198-1.27 1.198-2.227c0-.747-.236-1.313-.707-1.699s-1.156-.579-2.054-.579h0-1.392c-.82 0-1.23-.161-1.23-.483 0-.215.115-.41.344-.586h0l.33.037.403.022c1.089 0 1.94-.245 2.552-.736s.919-1.176.919-2.054c0-.454-.117-.864-.352-1.23h0l1.282-.33V3.812h-2.856c-.088-.02-.289-.05-.604-.092s-.587-.062-.817-.062c-1.079 0-1.909.244-2.49.732s-.872 1.179-.872 2.073c0 .557.126 1.04.377 1.45s.592.708 1.022.894c-.342.2-.603.404-.784.612s-.271.468-.271.78a1.14 1.14 0 0 0 .256.707c.171.222.371.382.601.48-.596.142-1.047.378-1.355.71s-.461.745-.461 1.238c0 .718.302 1.276.905 1.674s1.476.597 2.618.597zm.454-7.668c-.415 0-.724-.129-.927-.388s-.304-.61-.304-1.055c0-.986.41-1.479 1.23-1.479.811 0 1.216.493 1.216 1.479 0 .444-.098.796-.293 1.055s-.503.388-.923.388zm-.359 6.211c-.532 0-.946-.088-1.241-.264s-.443-.417-.443-.725a.89.89 0 0 1 .414-.765c.276-.193.619-.289 1.029-.289h1.157c.562 0 .977.059 1.245.176s.403.33.403.637c0 .381-.227.681-.681.901s-1.082.33-1.882.33zm9.69-2c.64 0 1.182-.048 1.626-.143s.862-.24 1.252-.436h0V9.839a7 7 0 0 1-1.377.491c-.439.103-.906.154-1.399.154-.635 0-1.128-.178-1.479-.535s-.54-.852-.564-1.487h5.281V7.378c0-1.162-.322-2.073-.967-2.732s-1.545-.989-2.703-.989c-1.211 0-2.159.375-2.845 1.124s-1.029 1.81-1.029 3.182c0 1.333.371 2.363 1.113 3.091s1.772 1.091 3.091 1.091zm1.245-5.171h-3.135c.039-.552.193-.978.461-1.278s.64-.45 1.113-.45.85.15 1.128.45.422.726.432 1.278h0zm10.4 5.171c1.04 0 1.814-.403 2.322-1.208h.095l.432 1.062h1.714V.604h-2.241v2.622c0 .479.056 1.023.168 1.633h0-.073c-.542-.801-1.328-1.201-2.358-1.201-.981 0-1.752.375-2.311 1.124s-.839 1.796-.839 3.138c0 1.323.275 2.358.824 3.105s1.305 1.121 2.267 1.121zm.784-1.78c-.518 0-.916-.201-1.194-.604s-.417-1.007-.417-1.813.138-1.42.414-1.842a1.31 1.31 0 0 1 1.161-.634c.61 0 1.051.19 1.322.571s.406 1.011.406 1.89h0v.242c-.024.796-.17 1.36-.436 1.692s-.685.498-1.256.498zm9.822 1.78c.64 0 1.182-.048 1.626-.143s.862-.24 1.252-.436h0V9.839a7 7 0 0 1-1.377.491c-.439.103-.906.154-1.399.154-.635 0-1.128-.178-1.479-.535s-.54-.852-.564-1.487h5.281V7.378c0-1.162-.322-2.073-.967-2.732s-1.545-.989-2.703-.989c-1.211 0-2.159.375-2.845 1.124s-1.029 1.81-1.029 3.182c0 1.333.371 2.363 1.113 3.091s1.772 1.091 3.091 1.091zm1.245-5.171h-3.135c.039-.552.193-.978.461-1.278s.64-.45 1.113-.45.85.15 1.128.45.422.726.432 1.278h0zM176.513 12V.604h-2.234V12h2.234zm3.464-9.207c.405 0 .709-.096.912-.289s.304-.463.304-.809c0-.728-.405-1.091-1.216-1.091s-1.216.364-1.216 1.091.405 1.099 1.216 1.099zM181.091 12V3.812h-2.234V12h2.234zm6.584 0l3.12-8.188h-2.336l-1.575 4.666c-.195.649-.305 1.208-.33 1.677h0-.044c-.044-.527-.154-1.086-.33-1.677h0l-1.582-4.666h-2.336l3.12 8.188h2.292zm7.998.146c.64 0 1.182-.048 1.626-.143s.862-.24 1.252-.436h0V9.839a7 7 0 0 1-1.377.491c-.439.103-.906.154-1.399.154-.635 0-1.128-.178-1.479-.535s-.54-.852-.564-1.487h5.281V7.378c0-1.162-.322-2.073-.967-2.732s-1.545-.989-2.703-.989c-1.211 0-2.159.375-2.845 1.124s-1.029 1.81-1.029 3.182c0 1.333.371 2.363 1.113 3.091s1.772 1.091 3.091 1.091zm1.245-5.171h-3.135c.039-.552.193-.978.461-1.278s.64-.45 1.113-.45.85.15 1.128.45.422.726.432 1.278h0zM203.063 12V7.833c0-.659.199-1.172.597-1.538s.953-.549 1.666-.549a2.56 2.56 0 0 1 .659.073h0l.168-2.095c-.2-.044-.452-.066-.754-.066-.508 0-.978.14-1.41.421a3.08 3.08 0 0 0-1.029 1.11h0-.11l-.33-1.377h-1.692V12h2.234zm5.054 3.604c.786 0 1.473-.212 2.062-.637s1.041-1.064 1.359-1.919h0l3.464-9.236h-2.395l-1.516 4.607a6.28 6.28 0 0 0-.315 1.421h0-.044c-.049-.547-.139-1.021-.271-1.421h0l-1.545-4.607h-2.446l3.252 8.13-.132.403c-.166.488-.397.853-.692 1.095s-.641.363-1.036.363a3.82 3.82 0 0 1-.879-.095h0v1.772c.371.083.75.125 1.135.125z" fill="#262626" class="D"/><g transform="translate(192 28)"><mask id="Q" class="B"><use xlink:href="#D"/></mask><g class="D"><use fill="#000" xlink:href="#D" class="M"/><use xlink:href="#D" class="B"/><g class="E F"><path transform="matrix(1 0 0 -1 0 89)" d="M20.5 53l-6.817-3.367L12 42.067 16.717 36h7.565L29 42.067l-1.683 7.566z" class="C"/><path transform="matrix(1 0 0 -1 0 193)" d="M20.5 105l-6.817-3.367L12 94.067 16.717 88h7.565L29 94.067l-1.683 7.566z" class="C"/><path transform="matrix(1 0 0 -1 0 89)" d="M41.5 53l-6.817-3.367L33 42.067 37.717 36h7.565L50 42.067l-1.683 7.566z" class="C"/><path d="M41.5 78l-6.817-3.367L33 67.067 37.717 61h7.565L50 67.067l-1.683 7.566zm-21 0l-6.817-3.367L12 67.067 16.717 61h7.565L29 67.067l-1.683 7.566z" class="C" transform="matrix(1 0 0 -1 0 139)"/></g><g class="H F"><path transform="matrix(1 0 0 -1 0 139)" d="M64.5 78l-6.817-3.367L56 67.067 60.717 61h7.565L73 67.067l-1.683 7.566z"/><path transform="matrix(1 0 0 -1 0 89)" d="M64.5 53l-6.817-3.367L56 42.067 60.717 36h7.565L73 42.067l-1.683 7.566z"/></g><path d="M11.498 22.52c.292 0 .499-.053.622-.159s.184-.281.184-.527-.062-.43-.187-.54-.331-.165-.619-.165h0-.806v-1.727c.22.182.479.321.778.416s.619.143.962.143c.842 0 1.54-.289 2.095-.866s.832-1.307.832-2.187c0-.842-.286-1.54-.857-2.095s-1.291-.832-2.158-.832c-.385 0-.731.073-1.038.219a2.1 2.1 0 0 0-.784.651h0v-.457c0-.085-.03-.149-.089-.194s-.15-.067-.273-.067h0-.978c-.292 0-.497.053-.616.159s-.178.284-.178.533c0 .229.059.402.178.521s.29.178.514.178h.102v5.605h-.375c-.288 0-.492.055-.613.165s-.181.29-.181.54.059.426.178.53.324.156.616.156h2.691zm.66-3.885c-.419 0-.764-.154-1.035-.463s-.406-.705-.406-1.187.135-.878.406-1.187.616-.463 1.035-.463a1.32 1.32 0 0 1 1.041.463c.271.309.406.705.406 1.187s-.136.873-.409 1.184a1.32 1.32 0 0 1-1.038.467zM20.511 20c.288 0 .492-.055.613-.165s.181-.29.181-.54-.06-.421-.181-.527-.325-.159-.613-.159h0-1.498v-2.057c.377-.381.702-.662.978-.844s.514-.273.717-.273c.102 0 .282.07.543.209s.486.209.676.209c.267 0 .485-.079.654-.238s.254-.361.254-.606c0-.317-.123-.57-.368-.759s-.578-.282-.997-.282a2.72 2.72 0 0 0-1.292.317c-.4.212-.83.565-1.292 1.06h0v-.939c0-.085-.032-.151-.095-.2s-.152-.073-.267-.073h0-1.352c-.296 0-.503.053-.619.159s-.175.284-.175.533.06.428.181.536.325.162.613.162h.273v3.085h-.482c-.296 0-.505.053-.625.159s-.181.281-.181.527.061.43.184.54.33.165.622.165h3.548zm6.189.159c1.028 0 1.862-.288 2.501-.863s.958-1.316.958-2.222-.319-1.64-.958-2.215-1.473-.863-2.501-.863c-1.02 0-1.85.288-2.491.863s-.962 1.314-.962 2.215.319 1.646.958 2.222 1.471.863 2.495.863zm0-1.339c-.495 0-.902-.166-1.222-.498s-.479-.752-.479-1.26.16-.917.479-1.241.727-.486 1.222-.486.909.162 1.228.486.479.737.479 1.241-.161.928-.482 1.26-.73.498-1.225.498zm6.855 1.339c.406 0 .772-.075 1.098-.225a2.02 2.02 0 0 0 .8-.651h0v.444c0 .085.033.151.098.2s.16.073.282.073h.971c.288 0 .492-.055.613-.165s.181-.29.181-.54c0-.224-.057-.395-.171-.511s-.286-.175-.514-.175h0-.108v-6.5c0-.161-.026-.271-.079-.33s-.151-.089-.295-.089h0-1.974c-.292 0-.499.055-.622.165s-.184.29-.184.54.061.424.184.536.33.168.622.168h.844v1.606a2.78 2.78 0 0 0-.784-.422c-.286-.099-.579-.149-.879-.149-.872 0-1.59.29-2.155.87s-.847 1.31-.847 2.19c0 .846.279 1.552.838 2.117s1.253.847 2.082.847zm.273-1.352a1.31 1.31 0 0 1-1.035-.467c-.271-.311-.406-.712-.406-1.203 0-.478.136-.873.409-1.184s.617-.467 1.031-.467a1.32 1.32 0 0 1 1.035.47c.275.313.413.707.413 1.181 0 .487-.136.887-.409 1.2s-.619.47-1.038.47zm7.014 1.339c.398 0 .744-.076 1.038-.229a2 2 0 0 0 .746-.686h0v.482a.25.25 0 0 0 .098.209c.066.051.158.076.276.076h1.066c.292 0 .499-.054.622-.162s.184-.289.184-.543c0-.22-.06-.389-.181-.508s-.295-.178-.524-.178h0-.102v-4.202c0-.085-.032-.151-.095-.2s-.152-.073-.267-.073h0-1.2c-.292 0-.497.053-.616.159s-.178.284-.178.533c0 .229.058.402.175.521s.289.178.517.178h.102v1.834c0 .423-.113.765-.34 1.025s-.515.39-.866.39c-.33 0-.567-.106-.711-.317s-.216-.578-.216-1.098h0v-2.952c0-.085-.03-.151-.089-.2s-.146-.073-.26-.073h0-1.193c-.296 0-.505.053-.625.159s-.181.284-.181.533c0 .229.059.402.178.521s.292.178.521.178h.108v2.12c0 .846.165 1.475.495 1.885s.836.616 1.517.616zm8.182.013c.829 0 1.546-.157 2.149-.47s.905-.669.905-1.066c0-.182-.052-.333-.156-.454s-.234-.181-.39-.181c-.11 0-.412.139-.905.416s-.989.416-1.489.416c-.55 0-.988-.161-1.314-.482s-.489-.747-.489-1.276c0-.504.158-.917.473-1.241s.72-.486 1.216-.486c.398 0 .734.069 1.009.206s.497.35.667.638c.118.203.231.341.336.413s.237.108.394.108c.22 0 .383-.061.489-.184s.159-.313.159-.571h0v-1.041c0-.339-.049-.577-.146-.714s-.26-.206-.489-.206c-.169 0-.308.041-.416.124s-.187.206-.238.371c-.305-.169-.611-.294-.92-.375s-.626-.121-.952-.121c-.965 0-1.765.294-2.399.882s-.952 1.325-.952 2.209c0 .906.321 1.646.962 2.222s1.474.863 2.498.863zm7.598-.032c.749 0 1.419-.134 2.009-.403s.885-.566.885-.892c0-.195-.062-.361-.187-.498s-.274-.206-.448-.206c-.152 0-.453.095-.901.286s-.838.286-1.168.286c-.351 0-.597-.085-.736-.254s-.209-.482-.209-.939h0V15.88h1.936c.288 0 .494-.055.619-.165s.187-.29.187-.54-.061-.421-.184-.527-.33-.159-.622-.159h0-1.936v-1.485c0-.292-.06-.497-.181-.616s-.321-.178-.6-.178-.479.059-.6.178-.181.324-.181.616h0v1.485h-.597c-.292 0-.497.052-.616.156s-.178.28-.178.53.06.43.181.54.325.165.613.165h.597v1.765c0 .554.03.95.089 1.187s.159.44.298.609c.19.22.451.389.781.508s.713.178 1.149.178zm7.046-6.875c.339 0 .553-.052.644-.156s.136-.371.136-.803c0-.449-.051-.732-.152-.851s-.307-.178-.616-.178c-.334 0-.55.074-.647.222s-.146.493-.146 1.035c0 .292.048.487.143.584s.308.146.638.146zM65.96 20c.288 0 .494-.055.619-.165s.187-.29.187-.54-.061-.421-.184-.527-.33-.159-.622-.159h0-1.365v-4.202c0-.085-.032-.151-.095-.2s-.154-.073-.273-.073h0-1.911c-.292 0-.497.053-.616.159s-.178.284-.178.533.061.428.184.536.326.162.609.162h.717v3.085h-1.365c-.296 0-.505.053-.625.159s-.181.281-.181.527.062.43.187.54.331.165.619.165h4.291zm5.148.159c1.028 0 1.862-.288 2.501-.863s.958-1.316.958-2.222-.319-1.64-.958-2.215-1.473-.863-2.501-.863c-1.02 0-1.85.288-2.491.863s-.962 1.314-.962 2.215.319 1.646.958 2.222 1.471.863 2.495.863zm0-1.339c-.495 0-.902-.166-1.222-.498s-.479-.752-.479-1.26.16-.917.479-1.241.727-.486 1.222-.486.909.162 1.228.486.479.737.479 1.241-.161.928-.482 1.26-.73.498-1.225.498zM77.5 20c.284 0 .487-.055.609-.165s.184-.29.184-.54c0-.233-.059-.407-.178-.524s-.298-.175-.54-.175h0-.076v-1.834c0-.423.111-.763.333-1.019s.509-.384.86-.384c.33 0 .566.107.708.321s.213.574.213 1.082h0v1.834h-.076c-.241 0-.422.058-.543.175s-.181.291-.181.524c0 .25.062.43.187.54s.329.165.613.165h1.562c.288 0 .492-.055.613-.165s.181-.29.181-.54c0-.233-.059-.407-.178-.524s-.296-.175-.533-.175h0-.083v-2.12c0-.842-.166-1.468-.498-1.879s-.837-.616-1.514-.616a2.28 2.28 0 0 0-1.051.232c-.303.154-.551.384-.746.689h0v-.495c0-.089-.031-.157-.092-.203s-.151-.07-.27-.07h0-1.079c-.292 0-.499.055-.622.165s-.184.29-.184.54c0 .224.059.395.178.511s.292.175.521.175h.108v3.072h-.076c-.241 0-.421.058-.54.175s-.178.291-.178.524c0 .25.061.43.184.54s.326.165.609.165H77.5z" class="E F"/></g></g><g transform="translate(51 73)"><g transform="translate(0 .607)"><g transform="translate(.345 .083)"><g class="D"><g transform="translate(.044 .211)" opacity=".3"><path d="M74.646 7.076c-.146 8.629-3.887 16.415-9.84 22.025L41.975 7.076z" fill="url(#E)" transform="matrix(.866025 -.5 .5 .866025 -1.232146 31.578711)"/><path d="M36.209 7.076c-.146 8.629-3.887 16.415-9.84 22.025L3.538 7.076z" fill="url(#F)" transform="matrix(-.866025 -.5 -.5 .866025 46.129236 12.360292)"/></g><use xlink:href="#G" class="I"/></g><path fill="#de3737" d="M30.78 22.256h3.765V30.3h-5.652z"/><path d="M47.4 22.256h-3.765V30.3h5.652z" class="H"/><path d="M34.546 22.256V30.3h9.089v-8.044z" class="J"/></g><mask id="R" class="B"><use xlink:href="#H"/></mask><use fill="#b4cddf" xlink:href="#H"/><g mask="url(#R)"><g transform="translate(17.625 36.414)"><g class="J"><use xlink:href="#J"/><use xlink:href="#J" y="28.579"/><use xlink:href="#J" y="57.159"/></g><g class="B"><use xlink:href="#J" y="14.29"/><use xlink:href="#J" y="42.869"/></g></g></g></g><use xlink:href="#K" stroke="#14ba5a" class="O P"/><g class="I"><path d="M25.955 30.841H52.46v6.179H25.955z"/><use xlink:href="#L"/></g><circle cx="39.711" cy="110.746" r="11.435" class="B N Q"/><use xlink:href="#M" class="D E"/><g transform="translate(33.517 121.655)"><mask id="S" class="B"><use xlink:href="#I"/></mask><g mask="url(#S)" class="K L"><g transform="matrix(1 0 0 -1 -118.399553 15.166379)"><use xlink:href="#N"/></g></g></g><g transform="translate(18.345 128.414)"><mask id="T" class="B"><use xlink:href="#L" href="#I"/></mask><g mask="url(#T)" class="K L"><g transform="matrix(1 0 0 -1 -118.399553 15.166103)"><use xlink:href="#N"/></g></g></g></g><g transform="translate(149 73)"><g transform="translate(0 .607)"><g transform="translate(.345 .083)"><g class="D"><g transform="translate(.044 .211)" opacity=".3"><path d="M74.646 7.076c-.146 8.629-3.887 16.415-9.84 22.025L41.975 7.076z" fill="url(#E)" transform="matrix(.866025 -.5 .5 .866025 -1.232146 31.578711)"/><path d="M36.209 7.076c-.146 8.629-3.887 16.415-9.84 22.025L3.538 7.076z" fill="url(#F)" transform="matrix(-.866025 -.5 -.5 .866025 46.129236 12.360292)"/></g><use xlink:href="#M" class="I" href="#G"/></g><path fill="#de3737" d="M30.78 22.256h3.765V30.3h-5.652z"/><path d="M47.4 22.256h-3.765V30.3h5.652z" class="H"/><path d="M34.546 22.256V30.3h9.089v-8.044z" class="J"/></g><mask id="U" class="B"><use xlink:href="#N" href="#H"/></mask><use fill="#b4cddf" xlink:href="#N" href="#H"/><g mask="url(#U)"><g transform="translate(17.625 36.414)"><g class="J"><use xlink:href="#J"/><use xlink:href="#J" y="28.579"/><use xlink:href="#J" y="57.159"/></g><g class="B"><use xlink:href="#J" y="14.29"/><use xlink:href="#J" y="42.869"/></g></g></g></g><use xlink:href="#K" stroke="#14ba5a" class="O P"/><g class="I"><path d="M25.955 30.841H52.46v6.179H25.955z"/><use xlink:href="#L"/></g><circle cx="39.711" cy="110.746" r="11.435" class="B N Q"/><use xlink:href="#M" class="D E"/><g transform="translate(33.517 121.655)"><mask id="V" class="B"><use xlink:href="#O" href="#I"/></mask><g mask="url(#V)" class="K L"><g transform="matrix(1 0 0 -1 -118.399553 15.166379)"><use xlink:href="#N"/></g></g></g><g transform="translate(18.345 128.414)"><mask id="W" class="B"><use xlink:href="#P" href="#I"/></mask><g mask="url(#W)" class="K L"><g transform="matrix(1 0 0 -1 -118.399553 15.166103)"><use xlink:href="#N"/></g></g></g></g><g class="D E"><path d="M100.1 261.227c1.138 0 2.012-.243 2.622-.729s.916-1.178.916-2.076c0-.728-.21-1.301-.63-1.721s-1.099-.732-2.036-.938l-.498-.103c-1.24-.259-1.86-.613-1.86-1.062 0-.317.135-.577.406-.78s.626-.304 1.066-.304c.352 0 .657.077.916.231s.464.382.615.685l.059.132c.171.371.43.557.776.557.273 0 .468-.057.582-.172s.172-.316.172-.604h0v-.081l-.029-1.406c-.01-.312-.055-.521-.135-.626s-.262-.157-.546-.157c-.19 0-.332.029-.425.088s-.176.166-.249.322c-.317-.137-.636-.239-.956-.308s-.646-.103-.978-.103c-.996 0-1.808.265-2.435.795s-.941 1.212-.941 2.047c0 .649.183 1.161.549 1.534s1.023.685 1.97.934l.798.198c1.128.269 1.692.664 1.692 1.187 0 .337-.125.598-.374.784s-.598.278-1.047.278c-.493 0-.909-.093-1.249-.278s-.604-.466-.795-.842l-.117-.256c-.215-.459-.481-.688-.798-.688-.298 0-.507.063-.626.19s-.179.352-.179.674h0v.081l.029 1.721c.005.298.068.505.19.623s.337.176.645.176c.181 0 .322-.028.425-.084a.75.75 0 0 0 .271-.275 5.5 5.5 0 0 0 1.014.271c.349.059.746.088 1.19.088zm12.239-.227c.308 0 .513-.044.615-.132s.154-.264.154-.527h0v-2.249c0-.332-.063-.57-.19-.714s-.33-.216-.608-.216-.477.071-.597.212-.179.381-.179.718h0v1.304H108.2v-5.464h.63c.317 0 .547-.063.688-.19s.212-.332.212-.615-.072-.49-.216-.619-.372-.194-.685-.194h0-3.12c-.312 0-.541.065-.685.194s-.216.336-.216.619.068.488.205.615.364.19.681.19h.645v5.464h-.645c-.322 0-.551.061-.685.183s-.201.325-.201.608.068.496.205.623.364.19.681.19h6.643zm5.654.227c1.211 0 2.202-.427 2.974-1.282s1.157-1.953 1.157-3.296c0-1.333-.388-2.429-1.165-3.289s-1.765-1.289-2.966-1.289c-1.211 0-2.203.428-2.977 1.285s-1.161 1.954-1.161 3.292c0 1.328.391 2.423 1.172 3.285s1.77 1.293 2.966 1.293zm0-1.685c-.625 0-1.118-.256-1.479-.769s-.542-1.221-.542-2.124.179-1.609.538-2.117.853-.762 1.483-.762 1.132.254 1.49.762.538 1.213.538 2.117-.181 1.617-.542 2.128-.857.765-1.487.765zm12.019-1.091c.088 0 .17-.042.245-.125s.114-.176.114-.278h0v-.916c0-.112-.031-.198-.092-.256s-.15-.088-.267-.088h0-6.072c-.093 0-.168.032-.227.095s-.088.146-.088.249h0v.916c0 .122.028.22.084.293s.133.11.231.11h6.072zm5.354 2.732c.469 0 .891-.087 1.267-.26s.684-.424.923-.751h0v.513c0 .098.038.175.114.231a.54.54 0 0 0 .326.084h1.121c.332 0 .568-.063.707-.19s.209-.334.209-.623c0-.259-.066-.455-.198-.59s-.33-.201-.593-.201h0-.125v-7.5c0-.186-.031-.312-.092-.381s-.175-.103-.341-.103h0-2.278c-.337 0-.576.063-.718.19s-.212.334-.212.623.071.49.212.619.381.194.718.194h.974v1.853c-.273-.21-.575-.372-.905-.487s-.668-.172-1.014-.172c-1.006 0-1.835.334-2.487 1.003s-.978 1.511-.978 2.527c0 .977.322 1.791.967 2.443s1.445.978 2.402.978zm.315-1.56a1.51 1.51 0 0 1-1.194-.538c-.312-.359-.469-.822-.469-1.388 0-.552.157-1.007.472-1.366s.712-.538 1.19-.538a1.52 1.52 0 0 1 1.194.542c.317.361.476.815.476 1.362 0 .562-.157 1.023-.472 1.384a1.52 1.52 0 0 1-1.198.542zM146.396 261c.332 0 .568-.063.707-.19s.209-.334.209-.623-.07-.486-.209-.608-.375-.183-.707-.183h0-1.729v-2.373c.435-.439.811-.764 1.128-.974s.593-.315.828-.315c.117 0 .326.081.626.242s.56.242.78.242c.308 0 .559-.092.754-.275s.293-.416.293-.699c0-.366-.142-.658-.425-.875s-.667-.326-1.15-.326a3.14 3.14 0 0 0-1.49.366c-.461.244-.958.652-1.49 1.223h0v-1.084c0-.098-.037-.175-.11-.231s-.176-.084-.308-.084h0-1.56c-.342 0-.58.061-.714.183s-.201.327-.201.615.07.494.209.619.375.187.707.187h.315v3.56h-.557c-.342 0-.582.061-.721.183s-.209.325-.209.608.071.496.212.623.381.19.718.19h4.094zm7.559-7.786c.391 0 .638-.06.743-.179s.157-.428.157-.927c0-.518-.059-.845-.176-.981s-.354-.205-.71-.205c-.386 0-.635.085-.747.256s-.168.569-.168 1.194c0 .337.055.562.165.674s.355.168.736.168zm2.644 7.786c.332 0 .57-.063.714-.19s.216-.334.216-.623-.071-.486-.212-.608-.381-.183-.718-.183h0-1.575v-4.849c0-.098-.037-.175-.11-.231s-.178-.084-.315-.084h0-2.205c-.337 0-.574.061-.71.183s-.205.327-.205.615.071.494.212.619.376.187.703.187h.828v3.56h-1.575c-.342 0-.582.061-.721.183s-.209.325-.209.608.072.496.216.623.382.19.714.19h4.951zm6.328.183c.269 0 .468-.038.597-.114s.275-.28.436-.612h0l2.175-4.622h.125c.264 0 .464-.068.601-.205s.205-.337.205-.601c0-.283-.07-.487-.209-.612s-.38-.187-.721-.187h0-1.721c-.342 0-.582.061-.721.183s-.209.327-.209.615c0 .264.07.464.209.601s.341.205.604.205h.117l-1.384 3.12-1.318-3.12h.125c.259 0 .458-.068.597-.205s.209-.337.209-.601c0-.283-.071-.487-.212-.612s-.381-.187-.718-.187h0-1.86c-.337 0-.576.061-.718.183s-.212.327-.212.615c0 .264.07.464.209.601s.341.205.604.205h.117l2.043 4.622.044.11c.171.41.5.615.989.615zm9.214 0c1.001 0 1.841-.166 2.52-.498s1.018-.728 1.018-1.187c0-.21-.057-.382-.172-.516s-.262-.201-.443-.201c-.122 0-.479.148-1.069.443s-1.189.443-1.794.443-1.09-.134-1.454-.403-.609-.674-.736-1.216h4.724c.435 0 .721-.054.861-.161s.209-.305.209-.593c0-.903-.347-1.666-1.04-2.289s-1.567-.934-2.622-.934c-1.182 0-2.142.332-2.882.996s-1.11 1.516-1.11 2.556.37 1.899 1.11 2.563 1.7.996 2.882.996zm1.816-4.277h-3.948c.127-.479.353-.836.677-1.073s.753-.355 1.285-.355c.552 0 1 .125 1.344.374a1.6 1.6 0 0 1 .641 1.055h0zm5.881 4.094c.327 0 .562-.063.703-.19s.212-.334.212-.623c0-.269-.068-.47-.205-.604s-.344-.201-.623-.201h0-.088v-2.117c0-.488.128-.88.385-1.176s.587-.443.992-.443c.381 0 .653.123.817.37s.245.663.245 1.249h0v2.117h-.088c-.278 0-.487.067-.626.201s-.209.336-.209.604c0 .288.072.496.216.623s.38.19.707.19h1.802c.332 0 .568-.063.707-.19s.209-.334.209-.623c0-.269-.068-.47-.205-.604s-.342-.201-.615-.201h0-.095v-2.446c0-.972-.192-1.694-.575-2.168s-.966-.71-1.747-.71c-.459 0-.863.089-1.212.267s-.636.443-.861.795h0v-.571c0-.103-.035-.181-.106-.234s-.175-.081-.311-.081h0-1.245c-.337 0-.576.063-.718.19s-.212.334-.212.623c0 .259.068.455.205.59s.337.201.601.201h.125v3.545h-.088c-.278 0-.486.067-.623.201s-.205.336-.205.604c0 .288.071.496.212.623s.376.19.703.19h1.816zm-95.431 20.358c.103 0 .371-.095.806-.286s.825-.286 1.172-.286c.229 0 .601.077 1.113.231s.933.231 1.26.231c.479 0 .883-.098 1.212-.293s.494-.432.494-.71c0-.21-.06-.385-.179-.524a.57.57 0 0 0-.45-.209c-.088 0-.258.052-.509.157s-.455.157-.612.157c-.093 0-.353-.057-.78-.172s-.834-.172-1.219-.172c-.195 0-.394.017-.597.051a4.32 4.32 0 0 0-.619.154h0l.571-.571.245.011.238.004c1.177 0 2.148-.427 2.915-1.282s1.15-1.941 1.15-3.259-.386-2.407-1.157-3.252-1.763-1.267-2.974-1.267-2.209.421-2.981 1.263-1.157 1.927-1.157 3.256c0 1.006.242 1.896.725 2.67s1.133 1.31 1.948 1.608h0l-.74.747c-.234.244-.398.443-.491.597a.85.85 0 0 0-.139.436c0 .195.073.363.22.502s.325.209.535.209zm2.08-3.816c-.625 0-1.118-.256-1.479-.769s-.542-1.221-.542-2.124.179-1.609.538-2.117.853-.762 1.483-.762 1.132.254 1.49.762.538 1.213.538 2.117-.181 1.617-.542 2.128-.857.765-1.487.765zm8.24 1.626c.459 0 .858-.088 1.198-.264s.626-.439.861-.791h0v.557c0 .103.038.183.114.242a.51.51 0 0 0 .319.088h1.23c.337 0 .576-.062.718-.187s.212-.333.212-.626c0-.254-.07-.449-.209-.586s-.341-.205-.604-.205h0-.117v-4.849c0-.098-.037-.175-.11-.231s-.176-.084-.308-.084h0-1.384c-.337 0-.574.061-.71.183s-.205.327-.205.615c0 .264.067.464.201.601s.333.205.597.205h.117v2.117c0 .488-.131.883-.392 1.183s-.594.45-1 .45c-.381 0-.654-.122-.82-.366s-.249-.667-.249-1.267h0v-3.406c0-.098-.034-.175-.103-.231s-.168-.084-.3-.084h0-1.377c-.342 0-.582.061-.721.183s-.209.327-.209.615c0 .264.068.464.205.601s.337.205.601.205h.125v2.446c0 .977.19 1.702.571 2.175s.964.71 1.75.71zm8.555.015a4.6 4.6 0 0 0 1.377-.212 5.04 5.04 0 0 0 1.289-.615c.078.244.177.413.297.505s.302.139.546.139h.688c.332 0 .57-.062.714-.187s.216-.328.216-.612c0-.259-.07-.458-.209-.597s-.341-.209-.604-.209h0-.117v-2.717c0-.957-.225-1.636-.674-2.036s-1.194-.601-2.234-.601c-.996 0-1.783.116-2.362.348s-.868.546-.868.941c0 .22.071.397.212.531s.327.201.557.201.602-.12 1.102-.359.912-.359 1.234-.359c.415 0 .729.115.941.344s.319.564.319 1.003h0v.139l-.886-.117-.747-.037c-1.05 0-1.865.203-2.446.608s-.872.974-.872 1.707c0 .679.225 1.213.674 1.604s1.067.586 1.853.586zm.593-1.472c-.366 0-.647-.074-.842-.223s-.293-.365-.293-.648c0-.317.153-.566.458-.747s.726-.271 1.263-.271a4.42 4.42 0 0 1 .571.04l.674.121v1.128a3.28 3.28 0 0 1-.879.454c-.298.098-.615.146-.952.146zM115.968 279c.332 0 .568-.063.707-.19s.209-.334.209-.623-.068-.486-.205-.608-.374-.183-.71-.183h0-1.575v-7.668c0-.098-.038-.175-.114-.231s-.182-.084-.319-.084h0-2.19c-.337 0-.576.063-.718.19s-.212.334-.212.623.072.49.216.619.382.194.714.194h.806v6.357h-1.575c-.337 0-.573.06-.707.179s-.201.323-.201.612.07.496.209.623.372.19.699.19h4.966zm6.482-7.786c.391 0 .638-.06.743-.179s.157-.428.157-.927c0-.518-.059-.845-.176-.981s-.354-.205-.71-.205c-.386 0-.635.085-.747.256s-.168.569-.168 1.194c0 .337.055.562.165.674s.355.168.736.168zm2.644 7.786c.332 0 .57-.063.714-.19s.216-.334.216-.623-.071-.486-.212-.608-.381-.183-.718-.183h0-1.575v-4.849c0-.098-.037-.175-.11-.231s-.178-.084-.315-.084h0-2.205c-.337 0-.574.061-.71.183s-.205.327-.205.615.071.494.212.619.376.187.703.187h.828v3.56h-1.575c-.342 0-.582.061-.721.183s-.209.325-.209.608.072.496.216.623.382.19.714.19h4.951zm6.768.146c.864 0 1.637-.155 2.318-.465s1.022-.653 1.022-1.029c0-.225-.072-.416-.216-.575s-.316-.238-.516-.238c-.176 0-.522.11-1.04.33s-.967.33-1.348.33c-.405 0-.688-.098-.85-.293s-.242-.557-.242-1.084h0v-1.875h2.234c.332 0 .57-.063.714-.19s.216-.334.216-.623-.071-.486-.212-.608-.381-.183-.718-.183h0-2.234v-1.714c0-.337-.07-.574-.209-.71s-.37-.205-.692-.205-.553.068-.692.205-.209.374-.209.71h0v1.714h-.688c-.337 0-.574.06-.71.179s-.205.323-.205.612.07.496.209.623.375.19.707.19h.688v2.036c0 .64.034 1.096.103 1.37s.183.508.344.703c.22.254.52.449.901.586s.823.205 1.326.205zm9.089 2.776c.332 0 .57-.063.714-.19s.216-.332.216-.615-.072-.496-.216-.623-.382-.19-.714-.19h0-.33l3.01-6.467h.125c.264 0 .464-.068.601-.205s.205-.337.205-.601c0-.283-.07-.487-.209-.612s-.38-.187-.721-.187h0-1.721c-.342 0-.582.061-.721.183s-.209.327-.209.615c0 .264.07.464.209.601s.341.205.604.205h.117l-1.384 3.12-1.318-3.12h.125c.259 0 .458-.068.597-.205s.209-.337.209-.601c0-.283-.071-.487-.212-.612s-.381-.187-.718-.187h0-1.86c-.337 0-.576.061-.718.183s-.212.327-.212.615c0 .264.07.464.209.601s.341.205.604.205h.117l2.219 4.995-.688 1.472h-1.135c-.337 0-.576.063-.718.19s-.212.334-.212.623.071.494.212.619.381.187.718.187h3.208zm17.717-2.695c.62 0 1.233-.063 1.838-.19s1.047-.273 1.326-.439c.103-.063.171-.126.205-.187s.051-.17.051-.326h0v-1.831h.117c.264 0 .465-.07.604-.209s.209-.338.209-.597c0-.288-.07-.493-.209-.615s-.38-.183-.721-.183h0-2.644c-.332 0-.568.062-.707.187s-.209.333-.209.626c0 .283.07.486.209.608s.375.183.707.183h.828v1.157l-.791.194c-.225.042-.425.062-.601.062-.767 0-1.359-.262-1.776-.787s-.626-1.268-.626-2.23.199-1.697.597-2.205.973-.762 1.725-.762c.493 0 .876.1 1.15.3s.476.535.608 1.003c.073.259.167.438.282.538s.275.15.48.15c.293 0 .494-.059.604-.176s.165-.344.165-.681h0l-.015-1.904c0-.308-.05-.525-.15-.652s-.27-.19-.509-.19c-.156 0-.287.037-.392.11s-.204.198-.297.374c-.381-.166-.741-.288-1.08-.366a4.54 4.54 0 0 0-1.022-.117c-1.23 0-2.246.435-3.047 1.304s-1.201 1.96-1.201 3.274c0 1.362.396 2.466 1.187 3.311s1.826 1.267 3.105 1.267zm7.625-.044a4.6 4.6 0 0 0 1.377-.212 5.04 5.04 0 0 0 1.289-.615c.078.244.177.413.297.505s.302.139.546.139h.688c.332 0 .57-.062.714-.187s.216-.328.216-.612c0-.259-.07-.458-.209-.597s-.341-.209-.604-.209h0-.117v-2.717c0-.957-.225-1.636-.674-2.036s-1.194-.601-2.234-.601c-.996 0-1.783.116-2.362.348s-.868.546-.868.941c0 .22.071.397.212.531s.327.201.557.201.602-.12 1.102-.359.912-.359 1.234-.359c.415 0 .729.115.941.344s.319.564.319 1.003h0v.139l-.886-.117-.747-.037c-1.05 0-1.865.203-2.446.608s-.872.974-.872 1.707c0 .679.225 1.213.674 1.604s1.067.586 1.853.586zm.593-1.472c-.366 0-.647-.074-.842-.223s-.293-.365-.293-.648c0-.317.153-.566.458-.747s.726-.271 1.263-.271a4.42 4.42 0 0 1 .571.04l.674.121v1.128a3.28 3.28 0 0 1-.879.454c-.298.098-.615.146-.952.146zm9.983 1.436c.864 0 1.637-.155 2.318-.465s1.022-.653 1.022-1.029c0-.225-.072-.416-.216-.575s-.316-.238-.516-.238c-.176 0-.522.11-1.04.33s-.967.33-1.348.33c-.405 0-.688-.098-.85-.293s-.242-.557-.242-1.084h0v-1.875h2.234c.332 0 .57-.063.714-.19s.216-.334.216-.623-.071-.486-.212-.608-.381-.183-.718-.183h0-2.234v-1.714c0-.337-.07-.574-.209-.71s-.37-.205-.692-.205-.553.068-.692.205-.209.374-.209.71h0v1.714h-.688c-.337 0-.574.06-.71.179s-.205.323-.205.612.07.496.209.623.375.19.707.19h.688v2.036c0 .64.034 1.096.103 1.37s.183.508.344.703c.22.254.52.449.901.586s.823.205 1.326.205zm8.774.037c1.001 0 1.841-.166 2.52-.498s1.018-.728 1.018-1.187c0-.21-.057-.382-.172-.516s-.262-.201-.443-.201c-.122 0-.479.148-1.069.443s-1.189.443-1.794.443-1.09-.134-1.454-.403-.609-.674-.736-1.216h4.724c.435 0 .721-.054.861-.161s.209-.305.209-.593c0-.903-.347-1.666-1.04-2.289s-1.567-.934-2.622-.934c-1.182 0-2.142.332-2.882.996s-1.11 1.516-1.11 2.556.37 1.899 1.11 2.563 1.7.996 2.882.996zm1.816-4.277h-3.948c.127-.479.353-.836.677-1.073s.753-.355 1.285-.355c.552 0 1 .125 1.344.374a1.6 1.6 0 0 1 .641 1.055h0zm7.288 4.292c1.001 0 1.774-.201 2.318-.604s.817-.973.817-1.71c0-.63-.206-1.105-.619-1.425s-1.171-.56-2.274-.721l-.601-.073c-.879-.117-1.318-.347-1.318-.688 0-.22.105-.392.315-.516s.505-.187.886-.187c.488 0 .975.175 1.461.524s.829.524 1.029.524.347-.057.454-.172.161-.277.161-.487h0v-.901c0-.249-.052-.436-.157-.56s-.258-.187-.458-.187c-.142 0-.27.029-.385.088s-.223.149-.326.271a7.32 7.32 0 0 0-1.029-.238 6.45 6.45 0 0 0-.978-.077c-.923 0-1.633.188-2.131.564s-.747.908-.747 1.597c0 .581.208 1.044.623 1.388s1.047.575 1.897.692l.586.081c1.128.151 1.692.425 1.692.82 0 .22-.105.398-.315.535s-.491.205-.842.205c-.405 0-.767-.054-1.084-.161s-.596-.269-.835-.483c-.073-.073-.164-.186-.271-.337-.181-.278-.415-.417-.703-.417-.264 0-.449.067-.557.201s-.161.363-.161.685h0v.974c0 .308.043.518.128.63s.233.168.443.168a1.15 1.15 0 0 0 .414-.077 1.55 1.55 0 0 0 .392-.223c.337.098.686.172 1.047.223s.737.077 1.128.077z"/><path d="M157.129 239.94a1 1 0 0 1-.078-1.327l.078-.087 7.675-7.674-5.864-.001a1 1 0 0 1-.992-.875l-.008-.125a1 1 0 0 1 .875-.992l.125-.008h8.278a1 1 0 0 1 .992.875l.008.125v8.278a1 1 0 0 1-1.992.125l-.008-.125v-5.863l-7.675 7.674a1 1 0 0 1-1.414 0zm-31.016-.207a1 1 0 0 1-1.327.078l-.087-.078-7.674-7.675-.001 5.864a1 1 0 0 1-.875.992l-.125.008a1 1 0 0 1-.992-.875l-.008-.125v-8.278a1 1 0 0 1 .875-.992l.125-.008h8.278a1 1 0 0 1 .125 1.992l-.125.008h-5.863l7.674 7.675a1 1 0 0 1 0 1.414z" opacity=".45"/></g></g></g></svg>