<svg xmlns="http://www.w3.org/2000/svg" xmlns:xlink="http://www.w3.org/1999/xlink" width="675" height="597" xmlns:v="https://vecta.io/nano"><style><![CDATA[.B{fill:#fff}.C{fill-rule:nonzero}.D{fill:#006bb8}.E{fill:#14ba5a}.F{font-family:Courier}.G{font-size:15px}.H{fill:#262626}.I{stroke:#006bb8}.J{stroke-width:1.584}]]></style><defs><linearGradient x1="14.6020874%" y1="52.9372218%" x2="92.9583193%" y2="94.5590022%" id="A"><stop stop-color="#d9e9f4" stop-opacity="0" offset="0%"/><stop stop-color="#d9e9f4" stop-opacity=".371" offset="27.8041454%"/><stop stop-color="#d9e9f4" offset="100%"/></linearGradient><circle id="B" cx="36" cy="35" r="35"/><filter x="-57.1%" y="-68.6%" width="214.3%" height="214.3%" id="C"><feOffset dy="-8" in="SourceAlpha"/><feGaussianBlur stdDeviation="12"/><feColorMatrix values="0 0 0 0 0   0 0 0 0 0.419607843   0 0 0 0 0.721568627  0 0 0 0.112543706 0"/></filter><path id="D" d="M.4 0h67.2v69.6H.4z"/><path id="E" d="M0 0h77.616v22.968H0z"/><linearGradient x1="38.7734039%" y1="50%" x2="68.2615887%" y2="25.2853183%" id="F"><stop stop-color="#14ba5a" stop-opacity="0" offset="0%"/><stop stop-color="#14ba5a" offset="100%"/></linearGradient><path d="M14 0h237c7.732 0 14 6.268 14 14v31.308a14 14 0 0 1-11.505 13.776L132.5 81 11.505 59.084A14 14 0 0 1 0 45.308V14C0 6.268 6.268 0 14 0z" id="G"/><filter x="-12.3%" y="-40.1%" width="129.8%" height="197.5%" id="H"><feOffset dx="7" dy="7" in="SourceAlpha"/><feGaussianBlur stdDeviation="12"/><feColorMatrix values="0 0 0 0 0.0352941176   0 0 0 0 0.2   0 0 0 0 0.31372549  0 0 0 0.15 0"/></filter><path d="M14 309h238c7.732 0 14 6.268 14 14v41c0 7.732-6.268 14-14 14H14c-7.732 0-14-6.268-14-14v-41c0-7.732 6.268-14 14-14z" id="I"/><filter x="-12.2%" y="-47.1%" width="129.7%" height="214.5%" id="J"><feOffset dx="7" dy="7" in="SourceAlpha"/><feGaussianBlur stdDeviation="12"/><feColorMatrix values="0 0 0 0 0.0352941176   0 0 0 0 0.2   0 0 0 0 0.31372549  0 0 0 0.15 0"/></filter><path d="M140.122.556l124.614 42.738a5 5 0 0 1 .352 9.324l-124.614 53.535a5 5 0 0 1-3.947 0L11.912 52.618a5 5 0 0 1 .352-9.324L136.878.556a5 5 0 0 1 3.244 0z" id="K"/><filter x="-8.9%" y="-31.0%" width="122.8%" height="175.0%" id="L"><feMorphology radius="1" operator="dilate" in="SourceAlpha"/><feOffset dx="7" dy="7"/><feGaussianBlur stdDeviation="12"/><feComposite in2="SourceAlpha" operator="out"/><feColorMatrix values="0 0 0 0 0.0352941176   0 0 0 0 0.2   0 0 0 0 0.31372549  0 0 0 0.15 0"/></filter><path id="M" d="M.05.17c3.104 0 5.856 1.481 7.609 3.768C9.411 1.651 12.163.17 15.267.17s5.856 1.481 7.608 3.768C24.629 1.651 27.38.17 30.484.17c3.129 0 5.899 1.505 7.65 3.823C39.885 1.675 42.656.17 45.785.17c3.049 0 5.759 1.427 7.516 3.644C55.058 1.597 57.769.17 60.818.17c3.124 0 5.891 1.501 7.642 3.813C70.211 1.671 72.977.17 76.101.17c3.136 0 5.911 1.511 7.661 3.839C85.513 1.681 88.288.17 91.424.17c3.104 0 5.856 1.481 7.608 3.768 1.753-2.287 4.504-3.768 7.608-3.768s5.856 1.481 7.608 3.768c1.753-2.287 4.505-3.768 7.609-3.768 3.129 0 5.899 1.505 7.65 3.823 1.75-2.318 4.521-3.823 7.65-3.823 3.049 0 5.759 1.427 7.516 3.644 1.757-2.218 4.468-3.644 7.516-3.644 3.124 0 5.89 1.501 7.642 3.813 1.751-2.312 4.518-3.813 7.641-3.813 3.083 0 5.819 1.46 7.574 3.721 1.755-2.26 4.491-3.721 7.574-3.721 3.104 0 5.856 1.481 7.608 3.768 1.753-2.287 4.504-3.768 7.608-3.768s5.856 1.481 7.608 3.768c1.753-2.287 4.505-3.768 7.608-3.768 3.129 0 5.9 1.505 7.651 3.823 1.75-2.318 4.521-3.823 7.65-3.823 3.048 0 5.759 1.427 7.516 3.644C237.629 1.597 240.34.17 243.389.17c3.124 0 5.891 1.501 7.642 3.813 1.751-2.312 4.518-3.813 7.642-3.813"/></defs><g fill="none" fill-rule="evenodd"><g class="C"><path d="M142.777-38.5l14.202 14.202 6.201-6.202 19.799 19.798L200.777-28.5l25.612 25.612L250.002-26.5l37.349 37.35 27.35-27.35 8.5 8.5 18.5-18.5L368.493.291 398.931-30l34.218 34.052L459.701-22.5 492 9.798l-26.475 26.475 25.589 25.465L532.352 20.5 577 65.148l-18.55 18.549 43.05 42.749-43.018 42.717L605 215.681l-13.784 11.46 16.36 16.358 8-7.999L636 255.924 613.424 278.5l-18.001-18-7.999 8L567 248.076l4.751-4.751-28.008 23.286L572 294.868l-4.239 3.264-20.351 20.35 22.092 22.092 13.074-13.074L603 347.924 580.424 370.5l-18.926-18.926-20.247 20.247L592 422.569l-35.252 35.251L571 472.072l-48.501 48.5 19.501 19.5-61.428 61.428-20.637-20.637-30.637 30.637L397 579.202l12.174-12.175-11.155-11.155-45.627 45.628-29.5-29.5-10.409 10.408L327 596.924 304.424 619.5l-14.517-14.516-30.515 30.516-56.287-56.287-43.286 43.287L52 514.681l25.914-25.915L46 456.852l33-33-1-1 12.086-12.086L39 359.681l48.5-48.501L39 262.681l89.499-89.5L44 88.681l62.651-62.652L95 14.377l2.55-2.55L95 9.277 142.777-38.5z" transform="matrix(0 -1 -1 0 636 636)" fill="url(#A)" opacity=".7"/><path d="M209.507 277.655a1 1 0 0 1 1.327-.078l.087.078 15.673 15.674.002-5.863a1 1 0 0 1 .875-.992l.125-.008a1 1 0 0 1 .992.875l.008.125v8.278a1 1 0 0 1-.875.992l-.125.008h-8.278a1 1 0 0 1-.125-1.992l.125-.008 5.864.001-15.675-15.676a1 1 0 0 1 0-1.414zm0 119.156a1 1 0 0 0 1.327.078l.087-.078 15.673-15.674.002 5.863a1 1 0 0 0 .875.992l.125.008a1 1 0 0 0 .992-.875l.008-.125v-8.278a1 1 0 0 0-.875-.992l-.125-.008h-8.278a1 1 0 0 0-.125 1.992l.125.008 5.864-.001-15.675 15.676a1 1 0 0 0 0 1.414zm108.497-57.456a1 1 0 0 1 .883-.993l.117-.007 22.166.001-4.145-4.147a1 1 0 0 1-.083-1.32l.083-.094a1 1 0 0 1 1.32-.083l.094.083 5.854 5.854a1 1 0 0 1 .083 1.32l-.083.094-5.854 5.854a1 1 0 0 1-1.497-1.32l.083-.094 4.147-4.146-22.168-.001a1 1 0 0 1-1-1z" class="D"/></g><g transform="translate(233.5 301)"><g class="C"><use fill="#000" filter="url(#C)" xlink:href="#B"/><use xlink:href="#B" class="D"/></g><g transform="translate(0 1)" class="B"><mask id="N"><use xlink:href="#D"/></mask><g mask="url(#N)" class="C"><path d="M114.197 23.195c1.676 0 3.233.239 4.55.836 1.317.478 2.514 1.313 3.472 2.268s1.676 2.149 2.155 3.581c.718 1.313.958 2.865.958 4.536s-.239 3.104-.599 4.536c-.479 1.433-1.078 2.507-1.796 3.581-.838.955-1.796 1.791-2.993 2.268-1.197.597-2.514.836-4.071.836-.958 0-1.916-.119-2.874-.358-.838-.239-1.557-.478-2.155-.836V52.8h-5.029V24.389l3.712-.836c1.437-.239 3.113-.358 4.67-.358zm-22.869-.119c2.993 0 5.268.955 6.944 2.746s2.514 4.536 2.514 8.237v.955c0 .358 0 .597-.12.955H86.539c.12 1.671.718 3.104 1.796 4.059s2.634 1.433 4.789 1.433a15.19 15.19 0 0 0 3.353-.358l2.395-.716.718 4.059c-.239.119-.599.239-1.197.478-.479.119-1.078.239-1.676.478l-2.035.358c-.718.119-1.437.119-2.155.119-1.916 0-3.592-.239-4.909-.836-1.437-.597-2.514-1.313-3.472-2.388-.958-.955-1.557-2.149-2.035-3.581-.599-1.433-.838-2.865-.838-4.536 0-1.91.239-3.581.838-5.014s1.317-2.626 2.275-3.581a9.57 9.57 0 0 1 3.233-2.149 9.78 9.78 0 0 1 3.712-.716zm43.702-5.969v6.566h7.663v4.178h-7.663v8.714c0 1.671.239 2.984.838 3.701s1.437 1.074 2.874 1.074c.958 0 1.676-.119 2.395-.239.718-.239 1.317-.358 1.676-.597l.838 3.939c-.599.239-1.317.478-2.275.716s-2.035.358-3.353.358c-1.557 0-2.874-.239-3.831-.597-1.078-.478-1.796-.955-2.514-1.791-.599-.836-1.078-1.671-1.317-2.865-.239-1.074-.359-2.388-.359-3.82V17.942l5.029-.836zm22.15 6.088c1.796 0 3.233.239 4.43.716s2.155 1.194 2.874 2.029 1.197 1.91 1.437 3.104.479 2.507.479 4.059v12.176h-5.029V33.939c0-1.194-.12-2.149-.239-2.984a5.1 5.1 0 0 0-.718-2.029c-.359-.478-.838-.836-1.437-1.074s-1.317-.358-2.155-.358c-.599 0-1.317 0-2.035.119s-1.197.119-1.557.239v17.429h-5.029l.12-20.891 3.712-.836c1.557-.239 3.233-.358 5.148-.358zM41.519 12.451l.838 4.059-23.108 28.65h-4.191l26.461-32.709zm1.676 8.118l1.676 7.401c.239.836 0 1.791-.599 2.507h0L33.377 44.086c-.599.597-1.437 1.074-2.395 1.074h0-7.543l19.756-24.591zm22.15-7.759V31.79c.599-.716 1.317-1.433 2.035-2.149l2.155-2.268c.718-.716 1.317-1.552 2.035-2.268a16.13 16.13 0 0 0 1.557-1.791h5.987l-4.43 4.775-4.909 5.372 9.818 11.699h-5.867l-8.381-10.028V45.16h-5.029V13.645l5.029-.836zM37.089 7.795l2.514 1.194c.12.119.239.119.359.239h0L11.586 44.444c0-.119-.12-.239-.239-.358h0l-1.796-2.268L37.089 7.795zm76.629 19.697c-.479 0-.958 0-1.437.119-.479 0-.958.119-1.557.239v12.296c.479.239 1.078.597 1.796.836a7.54 7.54 0 0 0 2.275.358c1.796 0 3.113-.597 3.951-1.791 1.078-1.313 1.437-2.984 1.437-5.014 0-2.268-.479-3.939-1.557-5.253-.958-1.194-2.634-1.791-4.909-1.791zM31.102 4.93l2.874 1.433L7.515 39.191 5.48 36.684 31.102 4.93zm-9.698-3.462c.838-.358 1.796-.358 2.634 0h0l4.071 2.029-8.98 11.221c-.359-.836-.958-1.552-1.676-2.149-2.514-2.149-6.106-1.671-8.262.836s-1.676 6.208.838 8.237c.718.597 1.557.955 2.395 1.194h0l-8.98 11.221L.69 30.477c-.599-.716-.838-1.671-.599-2.507h0l3.951-16.951c.12-.358.239-.716.479-1.074.359-.358.718-.716 1.197-.955h0zm70.163 25.904c-.718 0-1.437.119-2.035.478-.599.239-1.078.716-1.437 1.194s-.718.955-.958 1.552-.359 1.194-.479 1.791l9.219-.119c0-.716-.12-1.313-.239-1.91-.239-.597-.479-1.194-.838-1.552a3.74 3.74 0 0 0-1.317-1.074c-.479-.239-1.197-.358-1.916-.358zM11.586 15.436c.958-1.074 2.514-1.313 3.712-.358 1.197.836 1.317 2.507.359 3.701h0l-.123.13c-.964.962-2.441 1.143-3.589.228-1.078-.955-1.317-2.507-.359-3.701z" transform="translate(13.2 10.4)"/></g></g></g><g transform="translate(80.5 114)"><g transform="translate(0 26)"><g class="C"><path d="M67.715 0l20.643 22.486 4.899 27.864c-1.206.55-2.546.857-3.959.857-3.083 0-5.819-1.46-7.574-3.721-1.755 2.26-4.491 3.721-7.574 3.721-3.124 0-5.89-1.501-7.641-3.813-1.752 2.312-4.518 3.813-7.642 3.813-3.048 0-5.759-1.427-7.516-3.644-1.757 2.218-4.467 3.644-7.516 3.644-.609 0-1.204-.057-1.781-.166l5.021-28.555L67.715 0z" fill="#003b7a"/><path d="M41.975 12.672l15.561 16.776L61.279 50.9a9.56 9.56 0 0 1-2.413.308c-3.048 0-5.759-1.427-7.516-3.644-1.757 2.218-4.467 3.644-7.516 3.644-3.129 0-5.9-1.505-7.65-3.823-1.751 2.318-4.521 3.823-7.65 3.823-2.092 0-4.024-.673-5.598-1.811l3.479-19.948 15.56-16.776z" fill="#0058a0"/><path d="M67.715 17.424l13.338 14.634 2.98 17.57c-.882-.583-1.663-1.308-2.31-2.141-1.755 2.26-4.491 3.721-7.574 3.721-3.124 0-5.89-1.501-7.641-3.813-1.752 2.312-4.518 3.813-7.642 3.813-2.863 0-5.429-1.259-7.185-3.249l2.697-15.9 13.337-14.634z" class="D"/><g opacity=".2"><path fill="#003b7a" d="M67.66 95.909L47.225 73.648l-5.047-27.135h36.823l14.256 3.626-5.162 23.51z"/><path fill="#0058a0" d="M42.177 83.364L26.773 66.756l-3.837-17.768 10.693-2.476h27.759l-3.805 20.244z"/><path d="M67.66 78.66L54.456 64.172l-3.261-17.66h32.931l-3.261 17.66z" class="D"/></g></g><g transform="translate(29.304 42.469)"><mask id="O" class="B"><use xlink:href="#E"/></mask><g mask="url(#O)" class="I J"><g transform="matrix(1 0 0 -1 -122.628001 15.708)"><use xlink:href="#M"/></g></g></g><g transform="translate(0 49.597)"><mask id="P" class="B"><use xlink:href="#F" href="#E"/></mask><g mask="url(#P)" class="I J"><g transform="matrix(1 0 0 -1 -122.628001 15.708)"><use xlink:href="#M"/></g></g></g></g><g transform="translate(54)"><g transform="translate(11.922 18.521)" class="C"><g stroke="#14ba5a" stroke-width="1.4"><ellipse opacity=".4" cx="42.426" cy="42.67" rx="12.724" ry="12.801"/><ellipse opacity=".6" cx="42.426" cy="42.67" rx="24.035" ry="24.18"/><ellipse opacity=".8" cx="42.426" cy="42.67" rx="32.518" ry="32.714"/><path d="M42.426 85.34c23.425 0 42.415-19.104 42.415-42.67S65.851 0 42.426 0 .011 19.104.011 42.67s18.99 42.67 42.415 42.67z" stroke-dasharray="2.015999984741211"/></g><path d="M84.835 42.48a42.66 42.66 0 0 1-12.773 29.815L42.426 42.48z" fill="url(#F)" opacity=".85"/></g><text class="E F G"><tspan x="50.423" y="14.35">N</tspan><tspan x="100.917" y="67.264">E</tspan><tspan x="0.631" y="67.264">W</tspan><tspan x="50.423" y="116.65">S</tspan></text></g></g><g class="C"><g class="D"><path d="M95.217 258c.332 0 .57-.063.714-.19s.216-.334.216-.623c0-.278-.072-.48-.216-.604s-.382-.187-.714-.187h0-.256l.315-.857h3.164l.3.857h-.256c-.337 0-.576.061-.718.183s-.212.325-.212.608c0 .293.071.502.212.626s.381.187.718.187h2.205c.332 0 .57-.063.714-.19s.216-.334.216-.623c0-.259-.068-.455-.205-.59s-.337-.201-.601-.201h0-.125l-2.322-6.357v-.022c-.176-.469-.481-.703-.916-.703h0-2.747c-.332 0-.57.063-.714.19s-.216.334-.216.623.072.488.216.615.382.19.714.19h.586l-1.963 5.464h-.125c-.264 0-.464.067-.601.201s-.205.331-.205.59c0 .288.071.496.212.623s.381.19.718.19h1.89zm2.695-3.977h-2.124l1.062-3.091 1.062 3.091zM108.474 258c.332 0 .568-.063.707-.19s.209-.334.209-.623-.068-.486-.205-.608-.374-.183-.71-.183h0-1.575v-7.668c0-.098-.038-.175-.114-.231s-.182-.084-.319-.084h0-2.19c-.337 0-.576.063-.718.19s-.212.334-.212.623.072.49.216.619.382.194.714.194h.806v6.357h-1.575c-.337 0-.573.06-.707.179s-.201.323-.201.612.07.496.209.623.372.19.699.19h4.966zm6.665.183c1.001 0 1.841-.166 2.52-.498s1.018-.728 1.018-1.187c0-.21-.057-.382-.172-.516s-.262-.201-.443-.201c-.122 0-.479.148-1.069.443s-1.189.443-1.794.443-1.09-.134-1.454-.403-.609-.674-.736-1.216h4.724c.435 0 .721-.054.861-.161s.209-.305.209-.593c0-.903-.347-1.666-1.04-2.289s-1.567-.934-2.622-.934c-1.182 0-2.142.332-2.882.996s-1.11 1.516-1.11 2.556.37 1.899 1.11 2.563 1.7.996 2.882.996zm1.816-4.277h-3.948c.127-.479.353-.836.677-1.073s.753-.355 1.285-.355c.552 0 1 .125 1.344.374a1.6 1.6 0 0 1 .641 1.055h0zM125.4 258c.332 0 .568-.063.707-.19s.209-.334.209-.623-.07-.486-.209-.608-.375-.183-.707-.183h0-1.729v-2.373c.435-.439.811-.764 1.128-.974s.593-.315.828-.315c.117 0 .326.081.626.242s.56.242.78.242c.308 0 .559-.092.754-.275s.293-.416.293-.699c0-.366-.142-.658-.425-.875s-.667-.326-1.15-.326a3.14 3.14 0 0 0-1.49.366c-.461.244-.958.652-1.49 1.223h0v-1.084c0-.098-.037-.175-.11-.231s-.176-.084-.308-.084h0-1.56c-.342 0-.58.061-.714.183s-.201.327-.201.615.07.494.209.619.375.187.707.187h.315v3.56h-.557c-.342 0-.582.061-.721.183s-.209.325-.209.608.071.496.212.623.381.19.718.19h4.094zm7.969.146c.864 0 1.637-.155 2.318-.465s1.022-.653 1.022-1.029c0-.225-.072-.416-.216-.575s-.316-.238-.516-.238c-.176 0-.522.11-1.04.33s-.967.33-1.348.33c-.405 0-.688-.098-.85-.293s-.242-.557-.242-1.084h0v-1.875h2.234c.332 0 .57-.063.714-.19s.216-.334.216-.623-.071-.486-.212-.608-.381-.183-.718-.183h0-2.234v-1.714c0-.337-.07-.574-.209-.71s-.37-.205-.692-.205-.553.068-.692.205-.209.374-.209.71h0v1.714h-.688c-.337 0-.574.06-.71.179s-.205.323-.205.612.07.496.209.623.375.19.707.19h.688v2.036c0 .64.034 1.096.103 1.37s.183.508.344.703c.22.254.52.449.901.586s.823.205 1.326.205zm15.542.71a.54.54 0 0 0 .396-.168c.112-.112.234-.312.366-.601h0l4.292-9.192a3.2 3.2 0 0 0 .168-.41.97.97 0 0 0 .044-.278.65.65 0 0 0-.264-.527.92.92 0 0 0-.593-.212.54.54 0 0 0-.396.168c-.112.112-.237.317-.374.615h0l-4.299 9.207c-.132.298-.198.518-.198.659 0 .21.087.386.26.527s.372.212.597.212zm19.863-.857c.313 0 .537-.063.674-.19s.205-.334.205-.623-.067-.486-.201-.608-.36-.183-.677-.183h0-.754v-1.501h1.245c1.201 0 2.107-.242 2.717-.725s.916-1.196.916-2.139c0-.894-.306-1.57-.919-2.029s-1.517-.688-2.714-.688h0-3.025c-.317 0-.547.065-.688.194s-.212.336-.212.619c0 .259.067.458.201.597s.326.209.575.209h.125v5.464h-.125c-.254 0-.447.067-.579.201s-.198.331-.198.59c0 .288.07.496.209.623s.37.19.692.19h2.534zm.286-4.753h-1.04v-2.314h1.04c.557 0 .985.099 1.285.297s.45.48.45.846c0 .391-.145.684-.436.879s-.724.293-1.3.293h0zM179.409 258c.332 0 .568-.063.707-.19s.209-.334.209-.623-.07-.486-.209-.608-.375-.183-.707-.183h0-1.729v-2.373c.435-.439.811-.764 1.128-.974s.593-.315.828-.315c.117 0 .326.081.626.242s.56.242.78.242c.308 0 .559-.092.754-.275s.293-.416.293-.699c0-.366-.142-.658-.425-.875s-.667-.326-1.15-.326a3.14 3.14 0 0 0-1.49.366c-.461.244-.958.652-1.49 1.223h0v-1.084c0-.098-.037-.175-.11-.231s-.176-.084-.308-.084h0-1.56c-.342 0-.58.061-.714.183s-.201.327-.201.615.07.494.209.619.375.187.707.187h.315v3.56h-.557c-.342 0-.582.061-.721.183s-.209.325-.209.608.071.496.212.623.381.19.718.19h4.094zm7.603.183c1.187 0 2.148-.332 2.886-.996s1.106-1.519 1.106-2.563-.369-1.892-1.106-2.556-1.699-.996-2.886-.996c-1.177 0-2.135.332-2.875.996s-1.11 1.516-1.11 2.556.369 1.899 1.106 2.563 1.697.996 2.878.996zm0-1.545c-.571 0-1.041-.192-1.41-.575s-.553-.868-.553-1.454.184-1.058.553-1.432.839-.56 1.41-.56 1.049.187 1.417.56.553.851.553 1.432-.186 1.071-.557 1.454-.842.575-1.414.575zm9.514 1.545c1.001 0 1.831-.321 2.49-.963a3.21 3.21 0 0 0 .989-2.399c0-1.05-.323-1.91-.97-2.582s-1.478-1.007-2.494-1.007c-.352 0-.688.059-1.011.176s-.601.278-.835.483h0v-2.996c0-.171-.035-.294-.106-.37s-.184-.114-.341-.114h0-1.37c-.337 0-.576.063-.718.19s-.212.334-.212.623c0 .264.07.465.209.604s.341.209.604.209h.117v6.357h-.117c-.264 0-.463.067-.597.201s-.201.331-.201.59c0 .293.07.502.209.626s.375.187.707.187h1.128c.137 0 .243-.028.319-.084s.114-.133.114-.231h0v-.483a2.07 2.07 0 0 0 .853.736c.349.164.76.245 1.234.245zm-.212-1.56a1.51 1.51 0 0 1-1.194-.538c-.312-.359-.469-.822-.469-1.388 0-.552.157-1.007.472-1.366s.712-.538 1.19-.538a1.52 1.52 0 0 1 1.194.542c.317.361.476.815.476 1.362 0 .562-.157 1.023-.472 1.384a1.52 1.52 0 0 1-1.198.542zM207.49 258c.332 0 .568-.063.707-.19s.209-.334.209-.623-.068-.486-.205-.608-.374-.183-.71-.183h0-1.575v-7.668c0-.098-.038-.175-.114-.231s-.182-.084-.319-.084h0-2.19c-.337 0-.576.063-.718.19s-.212.334-.212.623.072.49.216.619.382.194.714.194h.806v6.357h-1.575c-.337 0-.573.06-.707.179s-.201.323-.201.612.07.496.209.623.372.19.699.19h4.966zm6.665.183c1.001 0 1.841-.166 2.52-.498s1.018-.728 1.018-1.187c0-.21-.057-.382-.172-.516s-.262-.201-.443-.201c-.122 0-.479.148-1.069.443s-1.189.443-1.794.443-1.09-.134-1.454-.403-.609-.674-.736-1.216h4.724c.435 0 .721-.054.861-.161s.209-.305.209-.593c0-.903-.347-1.666-1.04-2.289s-1.567-.934-2.622-.934c-1.182 0-2.142.332-2.882.996s-1.11 1.516-1.11 2.556.37 1.899 1.11 2.563 1.7.996 2.882.996zm1.816-4.277h-3.948c.127-.479.353-.836.677-1.073s.753-.355 1.285-.355c.552 0 1 .125 1.344.374a1.6 1.6 0 0 1 .641 1.055h0zm4.885 4.094c.288 0 .493-.062.615-.187s.183-.333.183-.626c0-.264-.057-.461-.172-.593s-.287-.198-.516-.198h0-.11v-2.563c0-.4.07-.71.209-.93s.331-.33.575-.33a.48.48 0 0 1 .439.242c.098.161.146.405.146.732h0v4.138c0 .098.039.175.117.231s.183.084.315.084h1.245c.288 0 .493-.062.615-.187s.183-.333.183-.626c0-.259-.059-.455-.176-.59s-.288-.201-.513-.201h0-.11v-2.563c0-.405.067-.717.201-.934s.323-.326.568-.326c.195 0 .344.081.447.242s.154.405.154.732h0v4.138c0 .098.037.175.11.231s.176.084.308.084h1.245c.288 0 .492-.062.612-.187s.179-.333.179-.626c0-.259-.057-.455-.172-.59s-.287-.201-.516-.201h0-.103v-2.776c0-.923-.146-1.581-.439-1.974s-.771-.59-1.436-.59c-.308 0-.596.057-.864.172s-.505.282-.71.502c-.156-.229-.339-.399-.549-.509s-.457-.165-.74-.165c-.312 0-.596.065-.85.194s-.471.319-.652.568c0-.229-.035-.385-.106-.465s-.206-.121-.406-.121h0-.989c-.288 0-.494.062-.619.187s-.187.328-.187.612c0 .259.06.458.179.597s.294.209.524.209h.103v3.56h-.103c-.229 0-.402.067-.516.201s-.172.331-.172.59c0 .288.061.496.183.623s.325.19.608.19h1.663z"/><path d="M114.898 512c.332 0 .568-.063.707-.19s.209-.334.209-.623c0-.259-.067-.455-.201-.59s-.333-.201-.597-.201h0-.117v-1.934h.688a.51.51 0 0 1 .278.084c.088.056.166.138.234.245h0l1.794 2.761.022.015c.186.288.444.432.776.432h.901c.332 0 .57-.063.714-.19s.216-.334.216-.623c0-.264-.072-.461-.216-.593s-.358-.198-.641-.198h0-.227l-1.194-1.89-.051-.073c-.122-.205-.247-.347-.374-.425.552-.19.975-.486 1.271-.886s.443-.874.443-1.421c0-.786-.266-1.381-.798-1.783s-1.316-.604-2.351-.604h0-3.376c-.322 0-.555.065-.699.194s-.216.336-.216.619c0 .259.068.458.205.597s.332.209.586.209h.125v5.464h-.125c-.259 0-.455.067-.59.201s-.201.331-.201.59c0 .288.071.496.212.623s.376.19.703.19h1.89zm.901-5.039h-.989v-2.073h1.23c.493 0 .851.082 1.073.245s.333.428.333.795-.122.636-.366.795-.671.238-1.282.238h0zm9.331 5.222c1.001 0 1.841-.166 2.52-.498s1.018-.728 1.018-1.187c0-.21-.057-.382-.172-.516s-.262-.201-.443-.201c-.122 0-.479.148-1.069.443s-1.189.443-1.794.443-1.09-.134-1.454-.403-.609-.674-.736-1.216h4.724c.435 0 .721-.054.861-.161s.209-.305.209-.593c0-.903-.347-1.666-1.04-2.289s-1.567-.934-2.622-.934c-1.182 0-2.142.332-2.882.996s-1.11 1.516-1.11 2.556.37 1.899 1.11 2.563 1.7.996 2.882.996zm1.816-4.277h-3.948c.127-.479.353-.836.677-1.073s.753-.355 1.285-.355c.552 0 1 .125 1.344.374a1.6 1.6 0 0 1 .641 1.055h0zm4.885 4.094c.288 0 .493-.062.615-.187s.183-.333.183-.626c0-.264-.057-.461-.172-.593s-.287-.198-.516-.198h0-.11v-2.563c0-.4.07-.71.209-.93s.331-.33.575-.33a.48.48 0 0 1 .439.242c.098.161.146.405.146.732h0v4.138c0 .098.039.175.117.231a.53.53 0 0 0 .315.084h1.245c.288 0 .493-.062.615-.187s.183-.333.183-.626c0-.259-.059-.455-.176-.59s-.288-.201-.513-.201h0-.11v-2.563c0-.405.067-.717.201-.934a.63.63 0 0 1 .568-.326.5.5 0 0 1 .447.242c.103.161.154.405.154.732h0v4.138c0 .098.037.175.11.231s.176.084.308.084h1.245c.288 0 .492-.062.612-.187s.179-.333.179-.626c0-.259-.057-.455-.172-.59s-.287-.201-.516-.201h0-.103v-2.776c0-.923-.146-1.581-.439-1.974s-.771-.59-1.436-.59c-.308 0-.596.057-.864.172s-.505.282-.71.502c-.156-.229-.339-.399-.549-.509s-.457-.165-.74-.165c-.312 0-.596.065-.85.194s-.471.319-.652.568c0-.229-.035-.385-.106-.465s-.206-.121-.406-.121h0-.989c-.288 0-.494.062-.619.187s-.187.328-.187.612c0 .259.06.458.179.597s.294.209.524.209h.103v3.56h-.103c-.229 0-.402.067-.516.201s-.172.331-.172.59c0 .288.061.496.183.623s.325.19.608.19h1.663zm11.301.183c1.001 0 1.841-.166 2.52-.498s1.018-.728 1.018-1.187c0-.21-.057-.382-.172-.516s-.262-.201-.443-.201c-.122 0-.479.148-1.069.443s-1.189.443-1.794.443-1.09-.134-1.454-.403-.609-.674-.736-1.216h4.724c.435 0 .721-.054.861-.161s.209-.305.209-.593c0-.903-.347-1.666-1.04-2.289s-1.567-.934-2.622-.934c-1.182 0-2.142.332-2.882.996s-1.11 1.516-1.11 2.556.37 1.899 1.11 2.563 1.7.996 2.882.996zm1.816-4.277H141c.127-.479.353-.836.677-1.073s.753-.355 1.285-.355c.552 0 1 .125 1.344.374a1.6 1.6 0 0 1 .641 1.055h0zm6.416 4.277c.469 0 .891-.087 1.267-.26a2.33 2.33 0 0 0 .923-.751h0v.513a.27.27 0 0 0 .114.231.54.54 0 0 0 .326.084h1.121c.332 0 .568-.063.707-.19s.209-.334.209-.623c0-.259-.066-.455-.198-.59s-.33-.201-.593-.201h0-.125v-7.5c0-.186-.031-.312-.092-.381s-.175-.103-.341-.103h0-2.278c-.337 0-.576.063-.718.19s-.212.334-.212.623.071.49.212.619.381.194.718.194h.974v1.853a3.2 3.2 0 0 0-.905-.487 3.06 3.06 0 0 0-1.014-.172c-1.006 0-1.835.334-2.487 1.003s-.978 1.511-.978 2.527c0 .977.322 1.791.967 2.443a3.24 3.24 0 0 0 2.402.978zm.315-1.56a1.51 1.51 0 0 1-1.194-.538c-.312-.359-.469-.822-.469-1.388 0-.552.157-1.007.472-1.366s.712-.538 1.19-.538a1.52 1.52 0 0 1 1.194.542c.317.361.476.815.476 1.362 0 .562-.157 1.023-.472 1.384a1.52 1.52 0 0 1-1.198.542zm9.272-6.409c.391 0 .638-.06.743-.179s.157-.428.157-.927c0-.518-.059-.845-.176-.981s-.354-.205-.71-.205c-.386 0-.635.085-.747.256s-.168.569-.168 1.194c0 .337.055.562.165.674s.355.168.736.168zm2.644 7.786c.332 0 .57-.063.714-.19s.216-.334.216-.623-.071-.486-.212-.608-.381-.183-.718-.183h0-1.575v-4.849c0-.098-.037-.175-.11-.231s-.178-.084-.315-.084h0-2.205c-.337 0-.574.061-.71.183s-.205.327-.205.615.071.494.212.619.376.187.703.187h.828v3.56h-1.575c-.342 0-.582.061-.721.183s-.209.325-.209.608.072.496.216.623.382.19.714.19h4.951zm5.193.183a4.6 4.6 0 0 0 1.377-.212 5.04 5.04 0 0 0 1.289-.615c.078.244.177.413.297.505s.302.139.546.139h.688c.332 0 .57-.062.714-.187s.216-.328.216-.612c0-.259-.07-.458-.209-.597s-.341-.209-.604-.209h0-.117v-2.717c0-.957-.225-1.636-.674-2.036s-1.194-.601-2.234-.601c-.996 0-1.783.116-2.362.348s-.868.546-.868.941c0 .22.071.397.212.531s.327.201.557.201.602-.12 1.102-.359.912-.359 1.234-.359c.415 0 .729.115.941.344s.319.564.319 1.003h0v.139l-.886-.117-.747-.037c-1.05 0-1.865.203-2.446.608s-.872.974-.872 1.707c0 .679.225 1.213.674 1.604s1.067.586 1.853.586zm.593-1.472c-.366 0-.647-.074-.842-.223s-.293-.365-.293-.648c0-.317.153-.566.458-.747s.726-.271 1.263-.271a4.42 4.42 0 0 1 .571.04l.674.121v1.128a3.28 3.28 0 0 1-.879.454c-.298.098-.615.146-.952.146zm9.983 1.436c.864 0 1.637-.155 2.318-.465s1.022-.653 1.022-1.029c0-.225-.072-.416-.216-.575s-.316-.238-.516-.238c-.176 0-.522.11-1.04.33s-.967.33-1.348.33c-.405 0-.688-.098-.85-.293s-.242-.557-.242-1.084h0v-1.875h2.234c.332 0 .57-.063.714-.19s.216-.334.216-.623-.071-.486-.212-.608-.381-.183-.718-.183h0-2.234v-1.714c0-.337-.07-.574-.209-.71s-.37-.205-.692-.205-.553.068-.692.205-.209.374-.209.71h0v1.714h-.688c-.337 0-.574.06-.71.179s-.205.323-.205.612.07.496.209.623.375.19.707.19h.688v2.036c0 .64.034 1.096.103 1.37a1.76 1.76 0 0 0 .344.703c.22.254.52.449.901.586s.823.205 1.326.205zm8.591-7.932c.391 0 .638-.06.743-.179s.157-.428.157-.927c0-.518-.059-.845-.176-.981s-.354-.205-.71-.205c-.386 0-.635.085-.747.256s-.168.569-.168 1.194c0 .337.055.562.165.674s.355.168.736.168zm2.644 7.786c.332 0 .57-.063.714-.19s.216-.334.216-.623-.071-.486-.212-.608-.381-.183-.718-.183h0-1.575v-4.849c0-.098-.037-.175-.11-.231s-.178-.084-.315-.084h0-2.205c-.337 0-.574.061-.71.183s-.205.327-.205.615.071.494.212.619.376.187.703.187h.828v3.56h-1.575c-.342 0-.582.061-.721.183s-.209.325-.209.608.072.496.216.623.382.19.714.19h4.951zm6.401.183c1.187 0 2.148-.332 2.886-.996s1.106-1.519 1.106-2.563-.369-1.892-1.106-2.556-1.699-.996-2.886-.996c-1.177 0-2.135.332-2.875.996s-1.11 1.516-1.11 2.556.369 1.899 1.106 2.563 1.697.996 2.878.996zm0-1.545c-.571 0-1.041-.192-1.41-.575s-.553-.868-.553-1.454.184-1.058.553-1.432.839-.56 1.41-.56 1.049.187 1.417.56.553.851.553 1.432-.186 1.071-.557 1.454-.842.575-1.414.575zm7.84 1.361c.327 0 .562-.063.703-.19s.212-.334.212-.623c0-.269-.068-.47-.205-.604s-.344-.201-.623-.201h0-.088v-2.117c0-.488.128-.88.385-1.176a1.25 1.25 0 0 1 .992-.443c.381 0 .653.123.817.37s.245.663.245 1.249h0v2.117h-.088c-.278 0-.487.067-.626.201s-.209.336-.209.604c0 .288.072.496.216.623s.38.19.707.19h1.802c.332 0 .568-.063.707-.19s.209-.334.209-.623c0-.269-.068-.47-.205-.604s-.342-.201-.615-.201h0-.095v-2.446c0-.972-.192-1.694-.575-2.168s-.966-.71-1.747-.71c-.459 0-.863.089-1.212.267a2.2 2.2 0 0 0-.861.795h0v-.571c0-.103-.035-.181-.106-.234s-.175-.081-.311-.081h0-1.245c-.337 0-.576.063-.718.19s-.212.334-.212.623c0 .259.068.455.205.59s.337.201.601.201h.125v3.545h-.088c-.278 0-.486.067-.623.201s-.205.336-.205.604c0 .288.071.496.212.623s.376.19.703.19h1.816zm-75.106 18.198c1.001 0 1.774-.201 2.318-.604s.817-.973.817-1.71c0-.63-.206-1.105-.619-1.425s-1.171-.56-2.274-.721l-.601-.073c-.879-.117-1.318-.347-1.318-.688 0-.22.105-.392.315-.516s.505-.187.886-.187c.488 0 .975.175 1.461.524s.829.524 1.029.524.347-.057.454-.172.161-.277.161-.487h0v-.901c0-.249-.052-.436-.157-.56s-.258-.187-.458-.187a.83.83 0 0 0-.385.088c-.115.059-.223.149-.326.271a7.32 7.32 0 0 0-1.029-.238 6.45 6.45 0 0 0-.978-.077c-.923 0-1.633.188-2.131.564s-.747.908-.747 1.597c0 .581.208 1.044.623 1.388s1.047.575 1.897.692l.586.081c1.128.151 1.692.425 1.692.82 0 .22-.105.398-.315.535s-.491.205-.842.205c-.405 0-.767-.054-1.084-.161a2.38 2.38 0 0 1-.835-.483c-.073-.073-.164-.186-.271-.337-.181-.278-.415-.417-.703-.417-.264 0-.449.067-.557.201s-.161.363-.161.685h0v.974c0 .308.043.518.128.63s.233.168.443.168a1.15 1.15 0 0 0 .414-.077 1.55 1.55 0 0 0 .392-.223c.337.098.686.172 1.047.223a8.06 8.06 0 0 0 1.128.077zm8.899-.015c1.001 0 1.841-.166 2.52-.498s1.018-.728 1.018-1.187c0-.21-.057-.382-.172-.516s-.262-.201-.443-.201c-.122 0-.479.148-1.069.443s-1.189.443-1.794.443-1.09-.134-1.454-.403-.609-.674-.736-1.216h4.724c.435 0 .721-.054.861-.161s.209-.305.209-.593c0-.903-.347-1.666-1.04-2.289s-1.567-.934-2.622-.934c-1.182 0-2.142.332-2.882.996s-1.11 1.516-1.11 2.556.37 1.899 1.11 2.563 1.7.996 2.882.996zm1.816-4.277h-3.948c.127-.479.353-.836.677-1.073s.753-.355 1.285-.355c.552 0 1 .125 1.344.374a1.6 1.6 0 0 1 .641 1.055h0zm10.605 7.002c.332 0 .568-.061.707-.183s.209-.325.209-.608-.071-.496-.212-.623-.376-.19-.703-.19h0-.439v-6.467h.125c.259 0 .455-.068.59-.205s.201-.337.201-.601c0-.283-.068-.487-.205-.612s-.374-.187-.71-.187h0-1.121c-.142 0-.248.026-.319.077s-.106.126-.106.223h0v.527c-.244-.332-.544-.582-.901-.751a2.76 2.76 0 0 0-1.194-.253c-1.006 0-1.835.32-2.487.959s-.978 1.445-.978 2.417c0 1.016.317 1.857.952 2.523s1.436 1 2.402 1a3.65 3.65 0 0 0 1.117-.165 2.66 2.66 0 0 0 .897-.48h0v1.992h-.93c-.332 0-.568.062-.707.187s-.209.333-.209.626.068.492.205.612.374.179.71.179h3.105zm-3.875-4.482c-.483 0-.881-.178-1.194-.535s-.469-.813-.469-1.37.156-1.013.469-1.37.71-.535 1.194-.535.889.178 1.201.535.469.813.469 1.37-.157 1.007-.472 1.366-.714.538-1.198.538zm8.555 1.743c.459 0 .858-.088 1.198-.264s.626-.439.861-.791h0v.557c0 .103.038.183.114.242a.51.51 0 0 0 .319.088h1.23c.337 0 .576-.062.718-.187s.212-.333.212-.626c0-.254-.07-.449-.209-.586s-.341-.205-.604-.205h0-.117v-4.849c0-.098-.037-.175-.11-.231s-.176-.084-.308-.084h0-1.384c-.337 0-.574.061-.71.183s-.205.327-.205.615c0 .264.067.464.201.601s.333.205.597.205h.117v2.117c0 .488-.131.883-.392 1.183s-.594.45-1 .45c-.381 0-.654-.122-.82-.366s-.249-.667-.249-1.267h0v-3.406a.28.28 0 0 0-.103-.231c-.069-.056-.168-.084-.3-.084h0-1.377c-.342 0-.582.061-.721.183s-.209.327-.209.615c0 .264.068.464.205.601s.337.205.601.205h.125v2.446c0 .977.19 1.702.571 2.175s.964.71 1.75.71zm9.902.015c1.001 0 1.841-.166 2.52-.498s1.018-.728 1.018-1.187c0-.21-.057-.382-.172-.516s-.262-.201-.443-.201c-.122 0-.479.148-1.069.443s-1.189.443-1.794.443-1.09-.134-1.454-.403-.609-.674-.736-1.216h4.724c.435 0 .721-.054.861-.161s.209-.305.209-.593c0-.903-.347-1.666-1.04-2.289s-1.567-.934-2.622-.934c-1.182 0-2.142.332-2.882.996s-1.11 1.516-1.11 2.556.37 1.899 1.11 2.563 1.7.996 2.882.996zm1.816-4.277h-3.948c.127-.479.353-.836.677-1.073s.753-.355 1.285-.355c.552 0 1 .125 1.344.374a1.6 1.6 0 0 1 .641 1.055h0zm5.881 4.094c.327 0 .562-.063.703-.19s.212-.334.212-.623c0-.269-.068-.47-.205-.604s-.344-.201-.623-.201h0-.088v-2.117c0-.488.128-.88.385-1.176a1.25 1.25 0 0 1 .992-.443c.381 0 .653.123.817.37s.245.663.245 1.249h0v2.117h-.088c-.278 0-.487.067-.626.201s-.209.336-.209.604c0 .288.072.496.216.623s.38.19.707.19h1.802c.332 0 .568-.063.707-.19s.209-.334.209-.623c0-.269-.068-.47-.205-.604s-.342-.201-.615-.201h0-.095v-2.446c0-.972-.192-1.694-.575-2.168s-.966-.71-1.747-.71c-.459 0-.863.089-1.212.267a2.2 2.2 0 0 0-.861.795h0v-.571c0-.103-.035-.181-.106-.234s-.175-.081-.311-.081h0-1.245c-.337 0-.576.063-.718.19s-.212.334-.212.623c0 .259.068.455.205.59s.337.201.601.201h.125v3.545h-.088c-.278 0-.486.067-.623.201s-.205.336-.205.604c0 .288.071.496.212.623s.376.19.703.19h1.816zm10.305.183c.957 0 1.783-.181 2.479-.542s1.044-.771 1.044-1.23c0-.21-.06-.385-.179-.524a.57.57 0 0 0-.45-.209c-.127 0-.475.16-1.044.48s-1.141.48-1.718.48c-.635 0-1.14-.186-1.516-.557s-.564-.862-.564-1.472c0-.581.182-1.058.546-1.432s.831-.56 1.403-.56c.459 0 .847.079 1.165.238a1.84 1.84 0 0 1 .769.736c.137.234.266.393.388.476a.79.79 0 0 0 .454.125c.254 0 .442-.071.564-.212s.183-.361.183-.659h0v-1.201c0-.391-.056-.665-.168-.824s-.3-.238-.564-.238c-.195 0-.355.048-.48.143s-.216.238-.275.428a4.54 4.54 0 0 0-1.062-.432c-.356-.093-.723-.139-1.099-.139-1.113 0-2.036.339-2.769 1.018s-1.099 1.528-1.099 2.549c0 1.045.37 1.899 1.11 2.563s1.7.996 2.882.996zm9.001 0c1.001 0 1.841-.166 2.52-.498s1.018-.728 1.018-1.187c0-.21-.057-.382-.172-.516s-.262-.201-.443-.201c-.122 0-.479.148-1.069.443s-1.189.443-1.794.443-1.09-.134-1.454-.403-.609-.674-.736-1.216h4.724c.435 0 .721-.054.861-.161s.209-.305.209-.593c0-.903-.347-1.666-1.04-2.289s-1.567-.934-2.622-.934c-1.182 0-2.142.332-2.882.996s-1.11 1.516-1.11 2.556.37 1.899 1.11 2.563 1.7.996 2.882.996zm1.816-4.277h-3.948c.127-.479.353-.836.677-1.073s.753-.355 1.285-.355c.552 0 1 .125 1.344.374a1.6 1.6 0 0 1 .641 1.055h0zm-23.241-49.418l-34.284 1.219 33.109-37.631 32.627 28.705-6.781 7.707z"/><path d="M191.108 458.663l10.141-11.512 2.467 2.172 3.672-4.169-2.467-2.172 6.262-7.109-15.664-13.796-5.372 6.099-5.954 2.091 2.315 2.041-.369.419-.064-.056-5.559 6.411 6.411 5.559.052-.061.111.095-5.183 5.884 9.201 8.104z"/></g><path d="M209.579 437.609l8.317-4.727-2.34-2.06.002-.003-14.408-12.689-3.57-3.148-3.637 8.849.087-.05 15.588 13.73-.04.097z" fill="#b8d2e5"/><path fill="#002c66" d="M113.844 408.279l6.792-11.653 49.371 43.476-8.747 9.932z"/></g><path stroke="#14ba5a" stroke-width="1.4" d="M116.5 388h46v48.485L152.018 447H116.5z" class="B"/><path d="M151.5 447v-11h11z" class="E"/><g class="C"><path fill="#b8d2e5" d="M179.49 462.558l16.307.167-18.559-16.316z"/><path d="M179.49 462.558l11.64-3.936-9.225-8.112zm-42.506 19.45l65.685-.041-.009-13.235-59.418.038-1.147-3.015-7.938 3.021h-.306l.024.107-1.868.71 4.724 12.415.232-.089.021.089zm-17.778-89.986l4.725 12.415-10.088 3.839-4.725-12.413z" fill="#002c66"/><path d="M110.465 399.401l10.089-3.84-.676-1.775-10.088 3.84.675 1.775zm1.326 3.484l10.089-3.84-.676-1.775-10.088 3.84.675 1.775zm1.371 3.599l10.032-3.819-.675-1.775-10.032 3.819.675 1.775z" class="B"/><g transform="translate(330.5 143)"><g transform="translate(6)"><use fill="#000" filter="url(#H)" xlink:href="#G"/><use xlink:href="#G" class="B"/><path d="M79.177 40.594v-8.818h2.908v-1.89h-8.086v1.89h2.908v8.818h2.271zm6.614 0v-4.167c0-.659.199-1.172.597-1.538s.953-.549 1.666-.549a2.56 2.56 0 0 1 .659.073h0l.168-2.095c-.2-.044-.452-.066-.754-.066-.508 0-.978.14-1.41.421a3.08 3.08 0 0 0-1.029 1.11h0-.11l-.33-1.377h-1.692v8.188h2.234zm5.698-9.207c.405 0 .709-.096.912-.289s.304-.463.304-.809c0-.728-.405-1.091-1.216-1.091s-1.216.364-1.216 1.091.405 1.099 1.216 1.099zm1.113 9.207v-8.188h-2.234v8.188h2.234zm4.739 3.604c1.494 0 2.64-.264 3.439-.791s1.198-1.27 1.198-2.227c0-.747-.236-1.313-.707-1.699s-1.156-.579-2.054-.579h0-1.392c-.82 0-1.23-.161-1.23-.483 0-.215.115-.41.344-.586h0l.33.037.403.022c1.089 0 1.94-.245 2.552-.736s.919-1.176.919-2.054c0-.454-.117-.864-.352-1.23h0l1.282-.33v-1.135h-2.856c-.088-.02-.289-.05-.604-.092s-.587-.062-.817-.062c-1.079 0-1.909.244-2.49.732s-.872 1.179-.872 2.073c0 .557.126 1.04.377 1.45s.592.708 1.022.894c-.342.2-.603.404-.784.612s-.271.468-.271.78a1.14 1.14 0 0 0 .256.707c.171.222.371.382.601.48-.596.142-1.047.378-1.355.71s-.461.745-.461 1.238c0 .718.302 1.276.905 1.674s1.476.597 2.618.597zm.454-7.668c-.415 0-.724-.129-.927-.388s-.304-.61-.304-1.055c0-.986.41-1.479 1.23-1.479.811 0 1.216.493 1.216 1.479 0 .444-.098.796-.293 1.055s-.503.388-.923.388zm-.359 6.211c-.532 0-.946-.088-1.241-.264s-.443-.417-.443-.725a.89.89 0 0 1 .414-.765c.276-.193.619-.289 1.029-.289h1.157c.562 0 .977.059 1.245.176s.403.33.403.637c0 .381-.227.681-.681.901s-1.082.33-1.882.33zm8.379 1.458c1.494 0 2.64-.264 3.439-.791s1.198-1.27 1.198-2.227c0-.747-.236-1.313-.707-1.699s-1.156-.579-2.054-.579h0-1.392c-.82 0-1.23-.161-1.23-.483 0-.215.115-.41.344-.586h0l.33.037.403.022c1.089 0 1.94-.245 2.552-.736s.919-1.176.919-2.054c0-.454-.117-.864-.352-1.23h0l1.282-.33v-1.135h-2.856c-.088-.02-.289-.05-.604-.092s-.587-.062-.817-.062c-1.079 0-1.909.244-2.49.732s-.872 1.179-.872 2.073c0 .557.126 1.04.377 1.45s.592.708 1.022.894c-.342.2-.603.404-.784.612s-.271.468-.271.78a1.14 1.14 0 0 0 .256.707c.171.222.371.382.601.48-.596.142-1.047.378-1.355.71s-.461.745-.461 1.238c0 .718.302 1.276.905 1.674s1.476.597 2.618.597zm.454-7.668c-.415 0-.724-.129-.927-.388s-.304-.61-.304-1.055c0-.986.41-1.479 1.23-1.479.811 0 1.216.493 1.216 1.479 0 .444-.098.796-.293 1.055s-.503.388-.923.388zm-.359 6.211c-.532 0-.946-.088-1.241-.264s-.443-.417-.443-.725a.89.89 0 0 1 .414-.765c.276-.193.619-.289 1.029-.289h1.157c.562 0 .977.059 1.245.176s.403.33.403.637c0 .381-.227.681-.681.901s-1.082.33-1.882.33zm9.69-2c.64 0 1.182-.048 1.626-.143s.862-.24 1.252-.436h0v-1.729a7 7 0 0 1-1.377.491c-.439.103-.906.154-1.399.154-.635 0-1.128-.178-1.479-.535s-.54-.852-.564-1.487h5.281v-1.084c0-1.162-.322-2.073-.967-2.732s-1.545-.989-2.703-.989c-1.211 0-2.159.375-2.845 1.124s-1.029 1.81-1.029 3.182c0 1.333.371 2.363 1.113 3.091s1.772 1.091 3.091 1.091zm1.245-5.171h-3.135c.039-.552.193-.978.461-1.278s.64-.45 1.113-.45.85.15 1.128.45.422.726.432 1.278h0zm6.145 5.024v-4.167c0-.659.199-1.172.597-1.538s.953-.549 1.666-.549a2.56 2.56 0 0 1 .659.073h0l.168-2.095c-.2-.044-.452-.066-.754-.066-.508 0-.978.14-1.41.421a3.08 3.08 0 0 0-1.029 1.11h0-.11l-.33-1.377h-1.692v8.188h2.234zm10.693.146c1.162 0 2.035-.22 2.618-.659s.875-1.079.875-1.919c0-.405-.071-.754-.212-1.047s-.361-.552-.659-.776-.767-.466-1.406-.725c-.718-.288-1.183-.505-1.395-.652s-.319-.32-.319-.52c0-.356.33-.535.989-.535a3.61 3.61 0 0 1 1.091.168c.356.112.74.256 1.15.432h0l.674-1.611c-.933-.43-1.892-.645-2.878-.645-1.035 0-1.835.199-2.399.597s-.846.961-.846 1.688c0 .425.067.782.201 1.073s.349.548.645.773.758.469 1.388.732l1.055.487c.264.139.449.264.557.374s.161.253.161.428c0 .469-.405.703-1.216.703-.396 0-.853-.066-1.373-.198s-.988-.295-1.403-.491h0v1.846c.366.156.759.275 1.179.355s.928.121 1.523.121zm8.562 0c.562 0 1.027-.044 1.395-.132a3.6 3.6 0 0 0 1.095-.476h0v-1.912a4.31 4.31 0 0 1-1.099.538c-.366.115-.764.172-1.194.172-1.162 0-1.743-.801-1.743-2.402 0-1.65.581-2.476 1.743-2.476.303 0 .605.045.908.135s.63.206.981.348h0l.659-1.729c-.752-.371-1.602-.557-2.549-.557-1.294 0-2.288.367-2.981 1.102s-1.04 1.798-1.04 3.19c0 2.798 1.274 4.197 3.823 4.197zm6.379 0c.64 0 1.158-.092 1.556-.275s.785-.511 1.161-.985h.059l.432 1.113h1.56v-5.457c0-.977-.293-1.704-.879-2.183s-1.428-.718-2.527-.718c-1.147 0-2.192.247-3.135.74h0l.74 1.509c.884-.396 1.653-.593 2.307-.593.85 0 1.274.415 1.274 1.245h0v.359l-1.421.044c-1.226.044-2.142.272-2.75.685s-.912 1.053-.912 1.923c0 .83.226 1.47.677 1.919s1.071.674 1.857.674zm.842-1.633c-.723 0-1.084-.315-1.084-.945 0-.439.159-.767.476-.981s.801-.332 1.45-.352h0l.864-.029v.674c0 .493-.155.889-.465 1.187s-.724.447-1.241.447zm8.459 1.487V29.198h-2.234v11.396h2.234zm6.05.146c.64 0 1.182-.048 1.626-.143s.862-.24 1.252-.436h0v-1.729a7 7 0 0 1-1.377.491c-.439.103-.906.154-1.399.154-.635 0-1.128-.178-1.479-.535s-.54-.852-.564-1.487h5.281v-1.084c0-1.162-.322-2.073-.967-2.732s-1.545-.989-2.703-.989c-1.211 0-2.159.375-2.845 1.124s-1.029 1.81-1.029 3.182c0 1.333.371 2.363 1.113 3.091s1.772 1.091 3.091 1.091zm1.245-5.171h-3.135c.039-.552.193-.978.461-1.278s.64-.45 1.113-.45.85.15 1.128.45.422.726.432 1.278h0zm10.671 5.171c.562 0 1.062-.104 1.501-.311s.779-.502 1.018-.883h.117l.3 1.047h1.714v-8.188h-2.234v3.853c0 .967-.139 1.659-.417 2.076s-.73.626-1.355.626c-.459 0-.793-.148-1.003-.443s-.315-.739-.315-1.329h0v-4.783h-2.234v5.339c0 .967.244 1.708.732 2.223s1.213.773 2.175.773zm9.229 3.457V40.88c0-.107-.039-.503-.117-1.187h.117c.547.698 1.301 1.047 2.263 1.047.64 0 1.196-.168 1.67-.505s.839-.828 1.095-1.472.385-1.404.385-2.278c0-1.328-.273-2.366-.82-3.113s-1.304-1.121-2.271-1.121c-1.025 0-1.799.405-2.322 1.216h0-.103l-.315-1.062h-1.816v11.792h2.234zm1.633-5.266c-.566 0-.98-.19-1.241-.571s-.392-1.011-.392-1.89h0v-.242c.01-.781.142-1.342.396-1.681s.657-.509 1.208-.509c.527 0 .914.201 1.161.604s.37 1.007.37 1.813c0 1.65-.5 2.476-1.501 2.476z" class="H"/></g><g transform="translate(5 29)"><use fill="#000" filter="url(#J)" xlink:href="#I"/><use xlink:href="#I" class="B"/><path d="M63.199 348.74c1.084 0 2.065-.183 2.944-.549h0v-1.904c-1.069.376-1.98.564-2.732.564-1.792 0-2.688-1.194-2.688-3.582 0-1.147.234-2.042.703-2.684s1.13-.963 1.985-.963c.391 0 .789.071 1.194.212s.808.308 1.208.498h0l.732-1.846c-1.05-.503-2.095-.754-3.135-.754-1.021 0-1.91.223-2.67.67s-1.342 1.089-1.747 1.926-.608 1.813-.608 2.926c0 1.768.413 3.124 1.238 4.069s2.017 1.417 3.574 1.417zm7.28-.146v-11.396h-2.234v11.396h2.234zm5.793.146c1.255 0 2.234-.376 2.937-1.128s1.055-1.794 1.055-3.127c0-.859-.161-1.609-.483-2.249a3.42 3.42 0 0 0-1.384-1.472c-.601-.342-1.294-.513-2.08-.513-1.265 0-2.246.371-2.944 1.113s-1.047 1.782-1.047 3.12c0 .859.161 1.611.483 2.256s.784 1.139 1.384 1.483 1.294.516 2.08.516zm.029-1.794c-.601 0-1.034-.208-1.3-.623s-.399-1.028-.399-1.838.132-1.425.396-1.827.693-.604 1.289-.604 1.033.203 1.296.608.396 1.013.396 1.824-.131 1.429-.392 1.842-.69.619-1.285.619zm8.027 1.794c1.162 0 2.035-.22 2.618-.659s.875-1.079.875-1.919c0-.405-.071-.754-.212-1.047s-.361-.552-.659-.776-.767-.466-1.406-.725c-.718-.288-1.183-.505-1.395-.652s-.319-.32-.319-.52c0-.356.33-.535.989-.535a3.61 3.61 0 0 1 1.091.168c.356.112.74.256 1.15.432h0l.674-1.611c-.933-.43-1.892-.645-2.878-.645-1.035 0-1.835.199-2.399.597s-.846.961-.846 1.688c0 .425.067.782.201 1.073s.349.548.645.773.758.469 1.388.732l1.055.487c.264.139.449.264.557.374s.161.253.161.428c0 .469-.405.703-1.216.703-.396 0-.853-.066-1.373-.198s-.988-.295-1.403-.491h0v1.846c.366.156.759.275 1.179.355s.928.121 1.523.121zm8.943 0c.64 0 1.182-.048 1.626-.143s.862-.24 1.252-.436h0v-1.729a7 7 0 0 1-1.377.491c-.439.103-.906.154-1.399.154-.635 0-1.128-.178-1.479-.535s-.54-.852-.564-1.487h5.281v-1.084c0-1.162-.322-2.073-.967-2.732s-1.545-.989-2.703-.989c-1.211 0-2.159.375-2.845 1.124s-1.029 1.81-1.029 3.182c0 1.333.371 2.363 1.113 3.091s1.772 1.091 3.091 1.091zm1.245-5.171h-3.135c.039-.552.193-.978.461-1.278s.64-.45 1.113-.45.85.15 1.128.45.422.726.432 1.278h0zm10.042 5.024v-4.167c0-.659.199-1.172.597-1.538s.953-.549 1.666-.549a2.56 2.56 0 0 1 .659.073h0l.168-2.095c-.2-.044-.452-.066-.754-.066-.508 0-.978.14-1.41.421a3.08 3.08 0 0 0-1.029 1.11h0-.11l-.33-1.377h-1.692v8.188h2.234zm8.284.146c.64 0 1.182-.048 1.626-.143s.862-.24 1.252-.436h0v-1.729a7 7 0 0 1-1.377.491c-.439.103-.906.154-1.399.154-.635 0-1.128-.178-1.479-.535s-.54-.852-.564-1.487h5.281v-1.084c0-1.162-.322-2.073-.967-2.732s-1.545-.989-2.703-.989c-1.211 0-2.159.375-2.845 1.124s-1.029 1.81-1.029 3.182c0 1.333.371 2.363 1.113 3.091s1.772 1.091 3.091 1.091zm1.245-5.171h-3.135c.039-.552.193-.978.461-1.278s.64-.45 1.113-.45.85.15 1.128.45.422.726.432 1.278h0zm6.145 8.628v-3.318c0-.107-.039-.503-.117-1.187h.117c.547.698 1.301 1.047 2.263 1.047.64 0 1.196-.168 1.67-.505s.839-.828 1.095-1.472.385-1.404.385-2.278c0-1.328-.273-2.366-.82-3.113s-1.304-1.121-2.271-1.121c-1.025 0-1.799.405-2.322 1.216h0-.103l-.315-1.062h-1.816v11.792h2.234zm1.633-5.266c-.566 0-.98-.19-1.241-.571s-.392-1.011-.392-1.89h0v-.242c.01-.781.142-1.342.396-1.681s.657-.509 1.208-.509c.527 0 .914.201 1.161.604s.37 1.007.37 1.813c0 1.65-.5 2.476-1.501 2.476zm9.075 1.809c1.255 0 2.234-.376 2.937-1.128s1.055-1.794 1.055-3.127c0-.859-.161-1.609-.483-2.249a3.42 3.42 0 0 0-1.384-1.472c-.601-.342-1.294-.513-2.08-.513-1.265 0-2.246.371-2.944 1.113s-1.047 1.782-1.047 3.12c0 .859.161 1.611.483 2.256s.784 1.139 1.384 1.483 1.294.516 2.08.516zm.029-1.794c-.601 0-1.034-.208-1.3-.623s-.399-1.028-.399-1.838.132-1.425.396-1.827.693-.604 1.289-.604 1.033.203 1.296.608.396 1.013.396 1.824-.131 1.429-.392 1.842-.69.619-1.285.619zm8.042 1.648v-4.167c0-.659.199-1.172.597-1.538s.953-.549 1.666-.549a2.56 2.56 0 0 1 .659.073h0l.168-2.095c-.2-.044-.452-.066-.754-.066-.508 0-.978.14-1.41.421a3.08 3.08 0 0 0-1.029 1.11h0-.11l-.33-1.377h-1.692v8.188h2.234zm7.383.146c.811 0 1.494-.125 2.051-.374h0v-1.663c-.547.171-1.016.256-1.406.256-.293 0-.529-.076-.707-.227s-.267-.386-.267-.703h0v-3.948h2.292v-1.677h-2.292v-1.743h-1.428l-.645 1.729-1.23.747v.945h1.069v3.948c0 .903.204 1.581.612 2.032s1.058.677 1.952.677zm7.412 0c.64 0 1.182-.048 1.626-.143s.862-.24 1.252-.436h0v-1.729a7 7 0 0 1-1.377.491c-.439.103-.906.154-1.399.154-.635 0-1.128-.178-1.479-.535s-.54-.852-.564-1.487h5.281v-1.084c0-1.162-.322-2.073-.967-2.732s-1.545-.989-2.703-.989c-1.211 0-2.159.375-2.845 1.124s-1.029 1.81-1.029 3.182c0 1.333.371 2.363 1.113 3.091s1.772 1.091 3.091 1.091zm1.245-5.171h-3.135c.039-.552.193-.978.461-1.278s.64-.45 1.113-.45.85.15 1.128.45.422.726.432 1.278h0zm6.504 5.171c1.04 0 1.814-.403 2.322-1.208h.095l.432 1.062h1.714v-11.396h-2.241v2.622c0 .479.056 1.023.168 1.633h0-.073c-.542-.801-1.328-1.201-2.358-1.201-.981 0-1.752.375-2.311 1.124s-.839 1.796-.839 3.138c0 1.323.275 2.358.824 3.105s1.305 1.121 2.267 1.121zm.784-1.78c-.518 0-.916-.201-1.194-.604s-.417-1.007-.417-1.813.138-1.42.414-1.842a1.31 1.31 0 0 1 1.161-.634c.61 0 1.051.19 1.322.571s.406 1.011.406 1.89h0v.242c-.024.796-.17 1.36-.436 1.692s-.685.498-1.256.498zm11.133-7.573c.405 0 .709-.096.912-.289s.304-.463.304-.809c0-.728-.405-1.091-1.216-1.091s-1.216.364-1.216 1.091.405 1.099 1.216 1.099zm1.113 9.207v-8.188h-2.234v8.188h2.234zm4.563.146c1.162 0 2.035-.22 2.618-.659s.875-1.079.875-1.919c0-.405-.071-.754-.212-1.047s-.361-.552-.659-.776-.767-.466-1.406-.725c-.718-.288-1.183-.505-1.395-.652s-.319-.32-.319-.52c0-.356.33-.535.989-.535a3.61 3.61 0 0 1 1.091.168c.356.112.74.256 1.15.432h0l.674-1.611c-.933-.43-1.892-.645-2.878-.645-1.035 0-1.835.199-2.399.597s-.846.961-.846 1.688c0 .425.067.782.201 1.073s.349.548.645.773.758.469 1.388.732l1.055.487c.264.139.449.264.557.374s.161.253.161.428c0 .469-.405.703-1.216.703-.396 0-.853-.066-1.373-.198s-.988-.295-1.403-.491h0v1.846c.366.156.759.275 1.179.355s.928.121 1.523.121zm7.456 0c1.162 0 2.035-.22 2.618-.659s.875-1.079.875-1.919c0-.405-.071-.754-.212-1.047s-.361-.552-.659-.776-.767-.466-1.406-.725c-.718-.288-1.183-.505-1.395-.652s-.319-.32-.319-.52c0-.356.33-.535.989-.535a3.61 3.61 0 0 1 1.091.168c.356.112.74.256 1.15.432h0l.674-1.611c-.933-.43-1.892-.645-2.878-.645-1.035 0-1.835.199-2.399.597s-.846.961-.846 1.688c0 .425.067.782.201 1.073s.349.548.645.773.758.469 1.388.732l1.055.487c.264.139.449.264.557.374s.161.253.161.428c0 .469-.405.703-1.216.703-.396 0-.853-.066-1.373-.198s-.988-.295-1.403-.491h0v1.846c.366.156.759.275 1.179.355s.928.121 1.523.121zm8.101 0c.562 0 1.062-.104 1.501-.311s.779-.502 1.018-.883h.117l.3 1.047h1.714v-8.188h-2.234v3.853c0 .967-.139 1.659-.417 2.076s-.73.626-1.355.626c-.459 0-.793-.148-1.003-.443s-.315-.739-.315-1.329h0v-4.783h-2.234v5.339c0 .967.244 1.708.732 2.223s1.213.773 2.175.773zm10.701 0c.64 0 1.182-.048 1.626-.143s.862-.24 1.252-.436h0v-1.729a7 7 0 0 1-1.377.491c-.439.103-.906.154-1.399.154-.635 0-1.128-.178-1.479-.535s-.54-.852-.564-1.487h5.281v-1.084c0-1.162-.322-2.073-.967-2.732s-1.545-.989-2.703-.989c-1.211 0-2.159.375-2.845 1.124s-1.029 1.81-1.029 3.182c0 1.333.371 2.363 1.113 3.091s1.772 1.091 3.091 1.091zm1.245-5.171h-3.135c.039-.552.193-.978.461-1.278s.64-.45 1.113-.45.85.15 1.128.45.422.726.432 1.278h0z" class="H"/><path d="M292.47 208.727v1.333h-7.403v-1.333h7.403zm12.196-2.609v3.942h-4.794v-1.333h3.459l.001-2.609h1.333zm0-14.805v7.403h-1.333v-7.403h1.333zm0-14.805v7.403h-1.333v-7.403h1.333zm0-14.805v7.403h-1.333v-7.403h1.333zm0-14.805v7.403h-1.333v-7.403h1.333zm0-14.805v7.403h-1.333v-7.403h1.333zm0-14.805v7.403h-1.333v-7.403h1.333zm0-14.805v7.403h-1.333v-7.403h1.333zm0-14.805v7.403h-1.333v-7.403h1.333zm0-14.805v7.403h-1.333V72.87h1.333zm0-14.805v7.403h-1.333v-7.403h1.333zm0-14.805v7.403h-1.333V43.26h1.333zm0-14.805v7.403h-1.333v-7.403h1.333zm0-14.805v7.403h-1.333v-7.403h1.333zM288.101-4.826l.672 1.152L280.758 1l8.015 4.674-.672 1.152L278.114 1l9.987-5.826zM304.666.333v5.913h-1.333l-.001-4.58-1.489.001V.333h2.823zm-10.226 0v1.333h-7.403V.333h7.403z" class="E"/></g><path d="M138.878 310.853a1 1 0 0 1 .993.883l.007.117-.001 10.853 4.147-4.145a1 1 0 0 1 1.32-.083l.094.083a1 1 0 0 1 .083 1.32l-.083.094-5.854 5.854a1 1 0 0 1-1.32.083l-.094-.083-5.854-5.854a1 1 0 0 1 1.32-1.497l.094.083 4.146 4.145.001-10.853a1 1 0 0 1 1-1z" class="D"/><g transform="translate(6 95)"><use fill="#000" filter="url(#H)" xlink:href="#L" href="#G"/><use xlink:href="#L" class="B" href="#G"/><path d="M88.07 41v-1.875h-3.896v-2.761h3.625v-1.86h-3.625v-2.351h3.896v-1.86h-6.167V41h6.167zm6.299 0l3.12-8.188h-2.336l-1.575 4.666c-.195.649-.305 1.208-.33 1.677h0-.044c-.044-.527-.154-1.086-.33-1.677h0l-1.582-4.666h-2.336L92.076 41h2.292zm6.284.146c.64 0 1.158-.092 1.556-.275s.785-.511 1.161-.985h.059l.432 1.113h1.56v-5.457c0-.977-.293-1.704-.879-2.183s-1.428-.718-2.527-.718c-1.147 0-2.192.247-3.135.74h0l.74 1.509c.884-.396 1.653-.593 2.307-.593.85 0 1.274.415 1.274 1.245h0v.359l-1.421.044c-1.226.044-2.142.272-2.75.685s-.912 1.053-.912 1.923c0 .83.226 1.47.677 1.919s1.071.674 1.857.674zm.842-1.633c-.723 0-1.084-.315-1.084-.945 0-.439.159-.767.476-.981s.801-.332 1.45-.352h0l.864-.029v.674c0 .493-.155.889-.465 1.187s-.724.447-1.241.447zM109.954 41V29.604h-2.234V41h2.234zm5.208.146c.562 0 1.062-.104 1.501-.311s.779-.502 1.018-.883h.117l.3 1.047h1.714v-8.188h-2.234v3.853c0 .967-.139 1.659-.417 2.076s-.73.626-1.355.626c-.459 0-.793-.148-1.003-.443s-.315-.739-.315-1.329h0v-4.783h-2.234v5.339c0 .967.244 1.708.732 2.223s1.213.773 2.175.773zm8.987 0c.64 0 1.158-.092 1.556-.275s.785-.511 1.161-.985h.059l.432 1.113h1.56v-5.457c0-.977-.293-1.704-.879-2.183s-1.428-.718-2.527-.718c-1.147 0-2.192.247-3.135.74h0l.74 1.509c.884-.396 1.653-.593 2.307-.593.85 0 1.274.415 1.274 1.245h0v.359l-1.421.044c-1.226.044-2.142.272-2.75.685s-.912 1.053-.912 1.923c0 .83.226 1.47.677 1.919s1.071.674 1.857.674zm.842-1.633c-.723 0-1.084-.315-1.084-.945 0-.439.159-.767.476-.981s.801-.332 1.45-.352h0l.864-.029v.674c0 .493-.155.889-.465 1.187s-.724.447-1.241.447zm9.031 1.633c.811 0 1.494-.125 2.051-.374h0V39.11c-.547.171-1.016.256-1.406.256-.293 0-.529-.076-.707-.227s-.267-.386-.267-.703h0v-3.948h2.292v-1.677h-2.292v-1.743h-1.428l-.645 1.729-1.23.747v.945h1.069v3.948c0 .903.204 1.581.612 2.032s1.058.677 1.952.677zm7.412 0c.64 0 1.182-.048 1.626-.143s.862-.24 1.252-.436h0v-1.729a7 7 0 0 1-1.377.491c-.439.103-.906.154-1.399.154-.635 0-1.128-.178-1.479-.535s-.54-.852-.564-1.487h5.281v-1.084c0-1.162-.322-2.073-.967-2.732s-1.545-.989-2.703-.989c-1.211 0-2.159.375-2.845 1.124s-1.029 1.81-1.029 3.182c0 1.333.371 2.363 1.113 3.091s1.772 1.091 3.091 1.091zm1.245-5.171h-3.135c.039-.552.193-.978.461-1.278s.64-.45 1.113-.45.85.15 1.128.45.422.726.432 1.278h0zm10.356 5.171c1.24 0 2.208-.278 2.904-.835s1.044-1.318 1.044-2.285c0-.698-.186-1.288-.557-1.769s-1.057-.961-2.058-1.439l-1.439-.751a1.53 1.53 0 0 1-.443-.432.97.97 0 0 1-.139-.524.99.99 0 0 1 .344-.784c.229-.2.559-.3.989-.3a4.56 4.56 0 0 1 1.102.139c.374.093.846.256 1.417.491h0l.732-1.765a10.95 10.95 0 0 0-1.586-.557c-.505-.132-1.036-.198-1.593-.198-1.133 0-2.02.271-2.662.813s-.963 1.287-.963 2.234c0 .503.098.942.293 1.318s.457.706.784.989.818.579 1.472.886l1.388.725c.227.151.399.309.516.472s.176.35.176.56c0 .376-.133.659-.399.85s-.648.286-1.146.286c-.415 0-.873-.066-1.373-.198s-1.112-.359-1.835-.681h0v2.109c.879.43 1.89.645 3.032.645zM165.538 41v-1.875h-4.343v-8.833h-2.271V41h6.614zm6.482.146c1.641 0 2.9-.476 3.779-1.428s1.318-2.314 1.318-4.087-.436-3.14-1.307-4.087-2.13-1.421-3.776-1.421-2.909.47-3.79 1.41-1.322 2.301-1.322 4.083.439 3.149 1.318 4.102 2.139 1.428 3.779 1.428zm0-1.904c-.903 0-1.582-.303-2.036-.908s-.681-1.506-.681-2.703.229-2.098.688-2.706 1.14-.912 2.043-.912c1.802 0 2.703 1.206 2.703 3.618s-.906 3.611-2.717 3.611zm9.36 1.904c1.162 0 2.035-.22 2.618-.659s.875-1.079.875-1.919c0-.405-.071-.754-.212-1.047s-.361-.552-.659-.776-.767-.466-1.406-.725c-.718-.288-1.183-.505-1.395-.652s-.319-.32-.319-.52c0-.356.33-.535.989-.535a3.61 3.61 0 0 1 1.091.168c.356.112.74.256 1.15.432h0l.674-1.611c-.933-.43-1.892-.645-2.878-.645-1.035 0-1.835.199-2.399.597s-.846.961-.846 1.688c0 .425.067.782.201 1.073s.349.548.645.773.758.469 1.388.732l1.055.487c.264.139.449.264.557.374s.161.253.161.428c0 .469-.405.703-1.216.703-.396 0-.853-.066-1.373-.198s-.988-.295-1.403-.491h0v1.846c.366.156.759.275 1.179.355s.928.121 1.523.121z" class="H"/></g><g transform="translate(0 190)"><use fill="#000" filter="url(#L)" xlink:href="#K"/><use stroke-width="2" xlink:href="#K" class="B I"/><path d="M93.318 55.594v-4.109h1.208l2.556 4.109h2.52l-3.149-4.666c.635-.278 1.125-.663 1.472-1.154a2.84 2.84 0 0 0 .52-1.681c0-1.079-.349-1.884-1.047-2.413s-1.775-.795-3.23-.795h0-3.12v10.708h2.271zm.732-5.955h-.732v-2.893h.688c.732 0 1.273.107 1.622.322s.524.576.524 1.084-.171.889-.513 1.128-.872.359-1.589.359h0zm10.43 6.101c.64 0 1.182-.048 1.626-.143s.862-.24 1.252-.436h0v-1.729a7 7 0 0 1-1.377.491c-.439.103-.906.154-1.399.154-.635 0-1.128-.178-1.479-.535s-.54-.852-.564-1.487h5.281v-1.084c0-1.162-.322-2.073-.967-2.732s-1.545-.989-2.703-.989c-1.211 0-2.159.375-2.845 1.124s-1.029 1.81-1.029 3.182c0 1.333.371 2.363 1.113 3.091s1.772 1.091 3.091 1.091zm1.245-5.171h-3.135c.039-.552.193-.978.461-1.278s.64-.45 1.113-.45.85.15 1.128.45.422.726.432 1.278h0zm6.145 5.024v-3.853c0-.962.129-1.653.388-2.073s.674-.63 1.245-.63c.425 0 .736.148.934.443s.297.739.297 1.329h0v4.783h2.234v-4.109c0-.85.135-1.47.406-1.86s.68-.586 1.227-.586c.425 0 .736.148.934.443s.297.739.297 1.329h0v4.783h2.241v-5.339c0-1.05-.238-1.813-.714-2.289s-1.178-.714-2.106-.714c-.537 0-1.019.105-1.447.315s-.751.505-.97.886h0-.198c-.435-.801-1.265-1.201-2.49-1.201-.537 0-1.013.106-1.428.319a2.27 2.27 0 0 0-.952.883h0-.125l-.3-1.047h-1.707v8.188h2.234zm16.201.146c.64 0 1.182-.048 1.626-.143s.862-.24 1.252-.436h0v-1.729a7 7 0 0 1-1.377.491c-.439.103-.906.154-1.399.154-.635 0-1.128-.178-1.479-.535s-.54-.852-.564-1.487h5.281v-1.084c0-1.162-.322-2.073-.967-2.732s-1.545-.989-2.703-.989c-1.211 0-2.159.375-2.845 1.124s-1.029 1.81-1.029 3.182c0 1.333.371 2.363 1.113 3.091s1.772 1.091 3.091 1.091zm1.245-5.171h-3.135c.039-.552.193-.978.461-1.278s.64-.45 1.113-.45.85.15 1.128.45.422.726.432 1.278h0zm6.504 5.171c1.04 0 1.814-.403 2.322-1.208h.095l.432 1.062h1.714V44.198h-2.241v2.622c0 .479.056 1.023.168 1.633h0-.073c-.542-.801-1.328-1.201-2.358-1.201-.981 0-1.752.375-2.311 1.124s-.839 1.796-.839 3.138c0 1.323.275 2.358.824 3.105s1.305 1.121 2.267 1.121zm.784-1.78c-.518 0-.916-.201-1.194-.604s-.417-1.007-.417-1.813.138-1.42.414-1.842a1.31 1.31 0 0 1 1.161-.634c.61 0 1.051.19 1.322.571s.406 1.011.406 1.89h0v.242c-.024.796-.17 1.36-.436 1.692s-.685.498-1.256.498zm7.236-7.573c.405 0 .709-.096.912-.289s.304-.463.304-.809c0-.728-.405-1.091-1.216-1.091s-1.216.364-1.216 1.091.405 1.099 1.216 1.099zm1.113 9.207v-8.188h-2.234v8.188h2.234zm4.336.146c.64 0 1.158-.092 1.556-.275s.785-.511 1.161-.985h.059l.432 1.113h1.56v-5.457c0-.977-.293-1.704-.879-2.183s-1.428-.718-2.527-.718c-1.147 0-2.192.247-3.135.74h0l.74 1.509c.884-.396 1.653-.593 2.307-.593.85 0 1.274.415 1.274 1.245h0v.359l-1.421.044c-1.226.044-2.142.272-2.75.685s-.912 1.053-.912 1.923c0 .83.226 1.47.677 1.919s1.071.674 1.857.674zm.842-1.633c-.723 0-1.084-.315-1.084-.945 0-.439.159-.767.476-.981s.801-.332 1.45-.352h0l.864-.029v.674c0 .493-.155.889-.465 1.187s-.724.447-1.241.447zm9.031 1.633c.811 0 1.494-.125 2.051-.374h0v-1.663c-.547.171-1.016.256-1.406.256-.293 0-.529-.076-.707-.227s-.267-.386-.267-.703h0v-3.948h2.292v-1.677h-2.292v-1.743h-1.428l-.645 1.729-1.23.747v.945h1.069v3.948c0 .903.204 1.581.612 2.032s1.058.677 1.952.677zm7.412 0c.64 0 1.182-.048 1.626-.143s.862-.24 1.252-.436h0v-1.729a7 7 0 0 1-1.377.491c-.439.103-.906.154-1.399.154-.635 0-1.128-.178-1.479-.535s-.54-.852-.564-1.487h5.281v-1.084c0-1.162-.322-2.073-.967-2.732s-1.545-.989-2.703-.989c-1.211 0-2.159.375-2.845 1.124s-1.029 1.81-1.029 3.182c0 1.333.371 2.363 1.113 3.091s1.772 1.091 3.091 1.091zm1.245-5.171h-3.135c.039-.552.193-.978.461-1.278s.64-.45 1.113-.45.85.15 1.128.45.422.726.432 1.278h0zm6.504 5.171c1.04 0 1.814-.403 2.322-1.208h.095l.432 1.062h1.714V44.198h-2.241v2.622c0 .479.056 1.023.168 1.633h0-.073c-.542-.801-1.328-1.201-2.358-1.201-.981 0-1.752.375-2.311 1.124s-.839 1.796-.839 3.138c0 1.323.275 2.358.824 3.105s1.305 1.121 2.267 1.121zm.784-1.78c-.518 0-.916-.201-1.194-.604s-.417-1.007-.417-1.813.138-1.42.414-1.842a1.31 1.31 0 0 1 1.161-.634c.61 0 1.051.19 1.322.571s.406 1.011.406 1.89h0v.242c-.024.796-.17 1.36-.436 1.692s-.685.498-1.256.498zm8.906-1.919v-.439c0-.293.062-.53.187-.71s.421-.444.89-.791c.684-.488 1.147-.928 1.392-1.318s.366-.854.366-1.392c0-.806-.297-1.45-.89-1.934s-1.393-.725-2.399-.725c-1.221 0-2.375.305-3.464.916h0l.798 1.604c.938-.479 1.772-.718 2.505-.718.42 0 .747.083.981.249s.352.408.352.725c0 .283-.082.54-.245.769s-.502.527-1.014.894c-.532.391-.898.759-1.099 1.106s-.3.754-.3 1.223h0v.542h1.941zm-.886 3.75c.4 0 .713-.111.938-.333s.337-.526.337-.912c0-.4-.111-.708-.333-.923s-.536-.322-.941-.322c-.42 0-.74.105-.959.315s-.33.52-.33.93c0 .396.112.702.337.919s.542.326.952.326z" class="H"/></g></g></g></g></svg>