<svg xmlns="http://www.w3.org/2000/svg" xmlns:xlink="http://www.w3.org/1999/xlink" width="396" height="357" xmlns:v="https://vecta.io/nano"><style><![CDATA[.B{fill:#fff}.C{fill-rule:nonzero}.D{fill:#006bb8}.E{fill:#14ba5a}.F{stroke:#14ba5a}.G{stroke-width:1.267}]]></style><defs><path d="M12 0h168a5 5 0 0 1 5 5v11.982a5 5 0 0 1-3.958 4.89L96 40 10.958 21.872A5 5 0 0 1 7 16.982V5a5 5 0 0 1 5-5z" id="A"/><filter x="-19.4%" y="-86.2%" width="142.1%" height="287.5%" id="B"><feOffset dx="3" dy="3" in="SourceAlpha"/><feGaussianBlur stdDeviation="12"/><feColorMatrix values="0 0 0 0 0.0352941176   0 0 0 0 0.2   0 0 0 0 0.31372549  0 0 0 0.2 0"/></filter><path d="M12 44h168a5 5 0 0 1 5 5v11.982a5 5 0 0 1-3.958 4.89L96 84 10.958 65.872A5 5 0 0 1 7 60.982V49a5 5 0 0 1 5-5z" id="C"/><path d="M95.058 89l87.362 21.382a3 3 0 0 1 .166 5.782L95.058 143l-84.977-26.844a3 3 0 0 1 .17-5.77L95.058 89z" id="D"/><filter x="-10.1%" y="-51.0%" width="127.3%" height="227.9%" id="E"><feMorphology radius="1" operator="dilate" in="SourceAlpha"/><feOffset dx="7" dy="7"/><feGaussianBlur stdDeviation="10"/><feComposite in2="SourceAlpha" operator="out"/><feColorMatrix values="0 0 0 0 0.0352941176   0 0 0 0 0.2   0 0 0 0 0.31372549  0 0 0 0.11 0"/></filter><path id="F" d="M0 0h62.093v18.374H0z"/><ellipse id="G" cx="33.941" cy="34.235" rx="33.932" ry="34.235"/><mask id="H" x="0" y="0" width="67.863" height="68.47" class="B"><use xlink:href="#G"/></mask><linearGradient x1="38.7734039%" y1="50%" x2="68.2615887%" y2="25.1423158%" id="I"><stop stop-color="#14ba5a" stop-opacity="0" offset="0%"/><stop stop-color="#14ba5a" offset="100%"/></linearGradient><circle id="J" cx="28.8" cy="28" r="28"/><filter x="-56.2%" y="-67.0%" width="212.5%" height="212.5%" id="K"><feOffset dy="-6" in="SourceAlpha"/><feGaussianBlur stdDeviation="9.5"/><feColorMatrix values="0 0 0 0 0   0 0 0 0 0.419607843   0 0 0 0 0.721568627  0 0 0 0.112543706 0"/></filter><path id="L" d="M.32 0h53.76v55.68H.32z"/><path id="M" d="M.04.136c2.483 0 4.684 1.185 6.087 3.014C7.529 1.321 9.731.136 12.214.136s4.684 1.185 6.087 3.014C19.703 1.321 21.904.136 24.388.136c2.503 0 4.719 1.204 6.12 3.059C31.908 1.34 34.125.136 36.628.136a7.65 7.65 0 0 1 6.012 2.915C44.046 1.277 46.215.136 48.654.136c2.499 0 4.713 1.2 6.113 3.05 1.401-1.85 3.614-3.05 6.113-3.05a7.65 7.65 0 0 1 6.129 3.071c1.4-1.862 3.621-3.071 6.129-3.071 2.483 0 4.684 1.185 6.087 3.014C80.628 1.321 82.83.136 85.313.136S89.997 1.321 91.4 3.15C92.802 1.321 95.004.136 97.487.136c2.503 0 4.719 1.204 6.12 3.059 1.4-1.854 3.617-3.059 6.12-3.059 2.439 0 4.607 1.141 6.013 2.915 1.405-1.774 3.574-2.915 6.013-2.915 2.499 0 4.712 1.2 6.114 3.05 1.401-1.85 3.614-3.05 6.113-3.05 2.466 0 4.655 1.168 6.059 2.977 1.404-1.808 3.593-2.977 6.059-2.977 2.483 0 4.684 1.185 6.087 3.014 1.402-1.829 3.603-3.014 6.087-3.014s4.684 1.185 6.087 3.014c1.403-1.829 3.604-3.014 6.087-3.014 2.504 0 4.72 1.204 6.121 3.059 1.4-1.854 3.617-3.059 6.12-3.059 2.439 0 4.607 1.141 6.013 2.915 1.405-1.774 3.574-2.915 6.013-2.915 2.499 0 4.713 1.2 6.113 3.05 1.401-1.85 3.614-3.05 6.114-3.05"/></defs><g fill="none" fill-rule="evenodd"><g transform="translate(58)"><g transform="translate(40 194)" class="C"><use fill="#000" filter="url(#B)" xlink:href="#A"/><use xlink:href="#A" class="B"/><path d="M202.434 112.335v1.33h-3v-1.33h3zm5 0v1.33h-3v-1.33h3zm5 0v1.33h-3v-1.33h3zm4.231-.769v2.099h-2.231v-1.33h.901v-.769h1.33zm0-5v3h-1.33v-3h1.33zm0-5v3h-1.33v-3h1.33zm0-5v3h-1.33v-3h1.33zm0-5v3h-1.33v-3h1.33zm0-5v3h-1.33v-3h1.33zm0-5v3h-1.33v-3h1.33zm0-5v3h-1.33v-3h1.33zm0-5v3h-1.33v-3h1.33zm0-5v3h-1.33v-3h1.33zm0-5v3h-1.33v-3h1.33zm0-5v3h-1.33v-3h1.33zm0-5v3h-1.33v-3h1.33zm0-5v3h-1.33v-3h1.33zm0-5v3h-1.33v-3h1.33zm0-5v3h-1.33v-3h1.33zm0-5v3h-1.33v-3h1.33zm0-5v3h-1.33v-3h1.33zm0-5v3h-1.33v-3h1.33zm0-5v3h-1.33v-3h1.33zm-13.562-9.383l.669 1.149-6.874 4.003h.668v1.33h-.665l6.871 4.003-.669 1.149L193.116 13l9.986-5.817zm13.562 5.152v2.231h-1.33v-.901h-.769v-1.33h2.099zm-4.099 0v1.33h-3v-1.33h3zm-5 0v1.33h-3v-1.33h3zm-5 0v1.33h-3v-1.33h3z" class="E"/><use fill="#000" filter="url(#B)" xlink:href="#C"/><use xlink:href="#C" class="B"/><path d="M214.5 35l17.243 8.517L236 62.653 224.066 78H204.93L193 62.653l4.257-19.136z" class="E"/><path d="M221.276 52.711c-1.597 0-3.106.621-4.182 1.697l-7.798 6.922a3.73 3.73 0 0 1-2.662 1.098c-2.074 0-3.761-1.675-3.761-3.749s1.686-3.749 3.761-3.749a3.77 3.77 0 0 1 2.707 1.143l1.254 1.109 1.675-1.486-1.398-1.231c-1.131-1.131-2.64-1.753-4.238-1.753-3.306 0-5.99 2.684-5.99 5.968s2.684 5.968 5.99 5.968c1.597 0 3.106-.621 4.182-1.697l7.798-6.922a3.73 3.73 0 0 1 2.662-1.098c2.074 0 3.761 1.675 3.761 3.749s-1.686 3.749-3.761 3.749c-.998 0-1.952-.388-2.707-1.143l-1.265-1.12-1.675 1.486 1.409 1.242c1.131 1.12 2.629 1.742 4.238 1.742 3.306 0 5.99-2.673 5.99-5.968s-2.684-5.957-5.99-5.957h0z" class="B"/><use fill="#000" filter="url(#E)" xlink:href="#D"/><use stroke-width="2" xlink:href="#D" class="B F"/><path d="M57.545 119c.288 0 .492-.055.613-.165s.181-.29.181-.54c0-.224-.058-.395-.175-.511s-.289-.175-.517-.175h0-.102v-1.676h.597a.44.44 0 0 1 .241.073c.076.049.144.12.203.213h0l1.555 2.393.019.013c.161.25.385.375.673.375h.781c.288 0 .494-.055.619-.165s.187-.29.187-.54c0-.229-.062-.4-.187-.514s-.31-.171-.555-.171h0-.197l-1.035-1.638-.044-.063c-.106-.178-.214-.3-.324-.368.478-.165.845-.421 1.101-.768s.384-.757.384-1.231c0-.681-.231-1.197-.692-1.546s-1.14-.524-2.038-.524h0-2.926c-.279 0-.481.056-.606.168s-.187.291-.187.536c0 .224.059.397.178.517s.288.181.508.181h.108v4.735h-.108c-.224 0-.395.058-.511.175s-.175.287-.175.511c0 .25.061.43.184.54s.326.165.609.165h1.638zm.781-4.367h-.857v-1.796h1.066c.427 0 .737.071.93.213s.289.371.289.689-.106.551-.317.689-.582.206-1.111.206h0zm8.087 4.526c.868 0 1.595-.144 2.184-.432s.882-.631.882-1.028c0-.182-.05-.331-.149-.448a.48.48 0 0 0-.384-.175c-.106 0-.415.128-.927.384s-1.03.384-1.555.384-.945-.116-1.26-.349-.528-.584-.638-1.054h4.094c.377 0 .625-.047.746-.14s.181-.264.181-.514c0-.783-.3-1.444-.901-1.984s-1.358-.809-2.272-.809c-1.024 0-1.857.288-2.498.863s-.962 1.314-.962 2.215.321 1.646.962 2.222 1.474.863 2.498.863zm1.574-3.707h-3.421c.11-.415.306-.725.587-.93s.653-.308 1.114-.308c.478 0 .866.108 1.165.324s.483.521.555.914h0zM72.22 119c.25 0 .427-.054.533-.162s.159-.289.159-.543c0-.229-.05-.4-.149-.514s-.249-.171-.448-.171h0-.095v-2.222c0-.347.06-.616.181-.806a.56.56 0 0 1 .498-.286c.169 0 .296.07.381.209s.127.351.127.635h0v3.586c0 .085.034.151.102.2s.159.073.273.073h1.079c.25 0 .427-.054.533-.162s.159-.289.159-.543c0-.224-.051-.395-.152-.511s-.25-.175-.444-.175h0-.095v-2.222c0-.351.058-.621.175-.809s.28-.282.492-.282a.43.43 0 0 1 .387.209c.089.14.133.351.133.635h0v3.586c0 .085.032.151.095.2s.152.073.267.073h1.079c.25 0 .426-.054.53-.162s.156-.289.156-.543c0-.224-.05-.395-.149-.511s-.249-.175-.448-.175h0-.089v-2.406c0-.8-.127-1.37-.381-1.711s-.669-.511-1.244-.511c-.267 0-.516.05-.749.149s-.438.244-.616.435c-.135-.199-.294-.346-.476-.441s-.396-.143-.641-.143c-.271 0-.516.056-.736.168s-.408.276-.565.492c0-.199-.031-.333-.092-.403s-.179-.105-.352-.105h0-.857c-.25 0-.428.054-.536.162s-.162.285-.162.53c0 .224.052.397.156.517s.255.181.454.181h.089v3.085h-.089c-.199 0-.348.058-.448.175s-.149.287-.149.511c0 .25.053.43.159.54s.281.165.527.165h1.441zm9.794.159c.868 0 1.595-.144 2.184-.432s.882-.631.882-1.028c0-.182-.05-.331-.149-.448a.48.48 0 0 0-.384-.175c-.106 0-.415.128-.927.384s-1.03.384-1.555.384-.945-.116-1.26-.349-.528-.584-.638-1.054h4.094c.377 0 .625-.047.746-.14s.181-.264.181-.514c0-.783-.3-1.444-.901-1.984s-1.358-.809-2.272-.809c-1.024 0-1.857.288-2.498.863s-.962 1.314-.962 2.215.321 1.646.962 2.222 1.474.863 2.498.863zm1.574-3.707h-3.421c.11-.415.306-.725.587-.93s.653-.308 1.114-.308c.478 0 .866.108 1.165.324s.483.521.555.914h0zm5.561 3.707c.406 0 .772-.075 1.098-.225a2.02 2.02 0 0 0 .8-.651h0v.444c0 .085.033.151.098.2s.16.073.282.073h.971c.288 0 .492-.055.613-.165s.181-.29.181-.54c0-.224-.057-.395-.171-.511s-.286-.175-.514-.175h0-.108v-6.5c0-.161-.026-.271-.079-.33s-.151-.089-.295-.089h0-1.974c-.292 0-.499.055-.622.165s-.184.29-.184.54.061.424.184.536.33.168.622.168h.844v1.606a2.78 2.78 0 0 0-.784-.422c-.286-.099-.579-.149-.879-.149-.872 0-1.59.29-2.155.87s-.847 1.31-.847 2.19c0 .846.279 1.552.838 2.117s1.253.847 2.082.847zm.273-1.352a1.31 1.31 0 0 1-1.035-.467c-.271-.311-.406-.712-.406-1.203 0-.478.136-.873.409-1.184s.617-.467 1.031-.467a1.32 1.32 0 0 1 1.035.47c.275.313.413.707.413 1.181 0 .487-.136.887-.409 1.2s-.619.47-1.038.47zm8.036-5.554c.339 0 .553-.052.644-.156s.136-.371.136-.803c0-.449-.051-.732-.152-.851s-.307-.178-.616-.178c-.334 0-.55.074-.647.222s-.146.493-.146 1.035c0 .292.048.487.143.584s.308.146.638.146zM99.75 119c.288 0 .494-.055.619-.165s.187-.29.187-.54-.061-.421-.184-.527-.33-.159-.622-.159h0-1.365v-4.202c0-.085-.032-.151-.095-.2s-.154-.073-.273-.073h0-1.911c-.292 0-.497.053-.616.159s-.178.284-.178.533.061.428.184.536.326.162.609.162h.717v3.085h-1.365c-.296 0-.505.053-.625.159s-.181.281-.181.527.062.43.187.54.331.165.619.165h4.291zm4.5.159c.402 0 .8-.061 1.193-.184a4.37 4.37 0 0 0 1.117-.533c.068.212.153.358.257.438s.261.121.473.121h.597c.288 0 .494-.054.619-.162s.187-.285.187-.53c0-.224-.06-.397-.181-.517s-.295-.181-.524-.181h0-.102v-2.355c0-.829-.195-1.418-.584-1.765s-1.035-.521-1.936-.521c-.863 0-1.546.101-2.047.302s-.752.473-.752.816c0 .19.061.344.184.46s.284.175.482.175.522-.104.955-.311.79-.311 1.07-.311c.36 0 .632.099.816.298s.276.489.276.87h0v.121l-.768-.102-.647-.032c-.91 0-1.617.176-2.12.527s-.755.844-.755 1.479c0 .588.195 1.052.584 1.39s.925.508 1.606.508zm.514-1.276c-.317 0-.561-.065-.73-.194s-.254-.316-.254-.562c0-.275.132-.491.397-.647s.629-.235 1.095-.235a3.83 3.83 0 0 1 .495.035l.584.105v.978c-.25.178-.504.309-.762.394s-.533.127-.825.127zm8.652 1.244c.749 0 1.419-.134 2.009-.403s.885-.566.885-.892c0-.195-.062-.361-.187-.498s-.274-.206-.448-.206c-.152 0-.453.095-.901.286s-.838.286-1.168.286c-.351 0-.597-.085-.736-.254s-.209-.482-.209-.939h0v-1.625h1.936c.288 0 .494-.055.619-.165s.187-.29.187-.54-.061-.421-.184-.527-.33-.159-.622-.159h0-1.936v-1.485c0-.292-.06-.497-.181-.616s-.321-.178-.6-.178-.479.059-.6.178-.181.324-.181.616h0v1.485h-.597c-.292 0-.497.052-.616.156s-.178.28-.178.53.06.43.181.54.325.165.613.165h.597v1.765c0 .554.03.95.089 1.187s.159.44.298.609c.19.22.451.389.781.508s.713.178 1.149.178zm7.604.032c.868 0 1.595-.144 2.184-.432s.882-.631.882-1.028c0-.182-.05-.331-.149-.448a.48.48 0 0 0-.384-.175c-.106 0-.415.128-.927.384s-1.03.384-1.555.384-.945-.116-1.26-.349-.528-.584-.638-1.054h4.094c.377 0 .625-.047.746-.14s.181-.264.181-.514c0-.783-.3-1.444-.901-1.984s-1.358-.809-2.272-.809c-1.024 0-1.857.288-2.498.863s-.962 1.314-.962 2.215.321 1.646.962 2.222 1.474.863 2.498.863zm1.574-3.707h-3.421c.11-.415.306-.725.587-.93s.653-.308 1.114-.308c.478 0 .866.108 1.165.324s.483.521.555.914h0zm5.561 3.707c.406 0 .772-.075 1.098-.225a2.02 2.02 0 0 0 .8-.651h0v.444c0 .085.033.151.098.2s.16.073.282.073h.971c.288 0 .492-.055.613-.165s.181-.29.181-.54c0-.224-.057-.395-.171-.511s-.286-.175-.514-.175h0-.108v-6.5c0-.161-.026-.271-.079-.33s-.151-.089-.295-.089h0-1.974c-.292 0-.499.055-.622.165s-.184.29-.184.54.061.424.184.536.33.168.622.168h.844v1.606a2.78 2.78 0 0 0-.784-.422c-.286-.099-.579-.149-.879-.149-.872 0-1.59.29-2.155.87s-.847 1.31-.847 2.19c0 .846.279 1.552.838 2.117s1.253.847 2.082.847zm.273-1.352a1.31 1.31 0 0 1-1.035-.467c-.271-.311-.406-.712-.406-1.203 0-.478.136-.873.409-1.184s.617-.467 1.031-.467a1.32 1.32 0 0 1 1.035.47c.275.313.413.707.413 1.181 0 .487-.136.887-.409 1.2s-.619.47-1.038.47zm7.554-1.162c.22 0 .392-.05.517-.149s.187-.236.187-.409h0v-.495c.753-.19 1.332-.483 1.736-.879s.606-.869.606-1.419c0-.694-.223-1.242-.67-1.644s-1.057-.603-1.831-.603c-.681 0-1.259.08-1.733.241s-.711.358-.711.59h0v.806c0 .216.043.373.13.473s.221.149.403.149c.195 0 .341-.038.438-.114s.174-.237.229-.482c.042-.199.13-.329.263-.39s.365-.092.695-.092c.36 0 .643.09.851.27s.311.424.311.733c0 .436-.322.808-.965 1.117l-.413.209c-.288.152-.483.307-.587.463s-.156.391-.156.705h0v.375a.48.48 0 0 0 .187.4c.125.097.295.146.511.146zm.032 2.444c.368 0 .668-.094.898-.282s.346-.431.346-.727-.114-.543-.343-.727-.529-.276-.901-.276-.672.092-.898.276a.89.89 0 0 0-.34.727.9.9 0 0 0 .343.727c.229.188.527.282.895.282z" class="E"/><path d="M74.451 66c.288 0 .494-.055.619-.165s.187-.29.187-.54c0-.241-.062-.416-.187-.524s-.331-.162-.619-.162h0-.222l.273-.743h2.742l.26.743h-.222c-.292 0-.499.053-.622.159s-.184.281-.184.527c0 .254.061.435.184.543s.33.162.622.162h1.911c.288 0 .494-.055.619-.165s.187-.29.187-.54c0-.224-.059-.395-.178-.511s-.292-.175-.521-.175h0-.108l-2.012-5.51v-.019c-.152-.406-.417-.609-.793-.609h0-2.38c-.288 0-.494.055-.619.165s-.187.29-.187.54.062.423.187.533.331.165.619.165h.508l-1.701 4.735h-.108c-.229 0-.402.058-.521.175s-.178.287-.178.511c0 .25.061.43.184.54s.33.165.622.165h1.638zm2.336-3.447h-1.841l.92-2.679.92 2.679zm7.128 3.605c.829 0 1.546-.157 2.149-.47s.905-.669.905-1.066c0-.182-.052-.333-.156-.454s-.234-.181-.39-.181c-.11 0-.412.139-.905.416s-.989.416-1.489.416c-.55 0-.988-.161-1.314-.482s-.489-.747-.489-1.276c0-.504.158-.917.473-1.241s.72-.486 1.216-.486c.398 0 .734.069 1.009.206s.497.35.667.638c.118.203.231.341.336.413s.237.108.394.108c.22 0 .383-.061.489-.184s.159-.313.159-.571h0v-1.041c0-.339-.049-.577-.146-.714s-.26-.206-.489-.206c-.169 0-.308.041-.416.124s-.187.206-.238.371c-.305-.169-.611-.294-.92-.375s-.626-.121-.952-.121c-.965 0-1.765.294-2.399.882s-.952 1.325-.952 2.209c0 .906.321 1.646.962 2.222s1.474.863 2.498.863zm7.998-.032c.749 0 1.419-.134 2.009-.403s.885-.566.885-.892c0-.195-.062-.361-.187-.498s-.274-.206-.448-.206c-.152 0-.453.095-.901.286s-.838.286-1.168.286c-.351 0-.597-.085-.736-.254s-.209-.482-.209-.939h0V61.88h1.936c.288 0 .494-.055.619-.165s.187-.29.187-.54-.061-.421-.184-.527-.33-.159-.622-.159h0-1.936v-1.485c0-.292-.06-.497-.181-.616s-.321-.178-.6-.178-.479.059-.6.178-.181.324-.181.616h0v1.485H89c-.292 0-.497.052-.616.156s-.178.28-.178.53.06.43.181.54.325.165.613.165h.597v1.765c0 .554.03.95.089 1.187s.159.44.298.609c.19.22.451.389.781.508s.713.178 1.149.178zm7.446-6.875c.339 0 .553-.052.644-.156s.136-.371.136-.803c0-.449-.051-.732-.152-.851s-.307-.178-.616-.178c-.334 0-.55.074-.647.222s-.146.493-.146 1.035c0 .292.048.487.143.584s.308.146.638.146zM101.651 66c.288 0 .494-.055.619-.165s.187-.29.187-.54-.061-.421-.184-.527-.33-.159-.622-.159h0-1.365v-4.202c0-.085-.032-.151-.095-.2s-.154-.073-.273-.073h0-1.911c-.292 0-.497.053-.616.159s-.178.284-.178.533.061.428.184.536.326.162.609.162h.717v3.085H97.36c-.296 0-.505.053-.625.159s-.181.281-.181.527.062.43.187.54.331.165.619.165h4.291zm5.548.159c1.028 0 1.862-.288 2.501-.863s.958-1.316.958-2.222-.319-1.64-.958-2.215-1.473-.863-2.501-.863c-1.02 0-1.85.288-2.491.863s-.962 1.314-.962 2.215.319 1.646.958 2.222 1.471.863 2.495.863zm0-1.339c-.495 0-.902-.166-1.222-.498s-.479-.752-.479-1.26.16-.917.479-1.241.727-.486 1.222-.486.909.162 1.228.486.479.737.479 1.241-.161.928-.482 1.26-.73.498-1.225.498zM113.991 66c.284 0 .487-.055.609-.165s.184-.29.184-.54c0-.233-.059-.407-.178-.524s-.298-.175-.54-.175h0-.076v-1.834c0-.423.111-.763.333-1.019s.509-.384.86-.384c.33 0 .566.107.708.321s.213.574.213 1.082h0v1.834h-.076c-.241 0-.422.058-.543.175s-.181.291-.181.524c0 .25.062.43.187.54s.329.165.613.165h1.562c.288 0 .492-.055.613-.165s.181-.29.181-.54c0-.233-.059-.407-.178-.524s-.296-.175-.533-.175h0-.083v-2.12c0-.842-.166-1.468-.498-1.879s-.837-.616-1.514-.616a2.28 2.28 0 0 0-1.051.232c-.303.154-.551.384-.746.689h0v-.495c0-.089-.031-.157-.092-.203s-.151-.07-.27-.07h0-1.079c-.292 0-.499.055-.622.165s-.184.29-.184.54c0 .224.059.395.178.511s.292.175.521.175h.108v3.072h-.076c-.241 0-.421.058-.54.175s-.178.291-.178.524c0 .25.061.43.184.54s.326.165.609.165h1.574z" class="D"/></g><g transform="translate(0 21.4)"><g class="C"><path d="M54.173 0l16.514 17.989 3.92 22.29a7.61 7.61 0 0 1-3.169.686c-2.466 0-4.655-1.168-6.059-2.977-1.404 1.808-3.593 2.977-6.059 2.977-2.499 0-4.712-1.2-6.113-3.05-1.402 1.85-3.614 3.05-6.114 3.05-2.439 0-4.608-1.141-6.013-2.915-1.406 1.774-3.574 2.915-6.013 2.915-.487 0-.964-.046-1.425-.133l4.017-22.844L54.173 0z" fill="#003b7a"/><path d="M33.581 10.138l12.449 13.42 2.994 17.162c-.616.161-1.263.246-1.93.246-2.439 0-4.608-1.141-6.013-2.915-1.406 1.774-3.574 2.915-6.013 2.915-2.503 0-4.72-1.204-6.12-3.059-1.401 1.854-3.617 3.059-6.12 3.059a7.61 7.61 0 0 1-4.48-1.45l2.784-15.958 12.448-13.42z" fill="#0058a0"/><path d="M54.173 13.939l10.671 11.707 2.383 14.055a7.75 7.75 0 0 1-1.847-1.713c-1.404 1.808-3.593 2.977-6.059 2.977-2.499 0-4.712-1.2-6.113-3.05-1.402 1.85-3.614 3.05-6.114 3.05-2.291 0-4.344-1.007-5.749-2.6l2.158-12.719 10.67-11.707z" class="D"/><g opacity=".2"><path fill="#003b7a" d="M54.128 76.727L37.78 58.918 33.742 37.21h29.459l11.405 2.901-4.129 18.808z"/><path fill="#0058a0" d="M33.742 66.691L21.418 53.405l-3.07-14.215 8.554-1.981H49.11l-3.044 16.195z"/><path d="M54.128 62.928l-10.563-11.59-2.609-14.128h26.345l-2.609 14.128z" class="D"/></g></g><g transform="translate(23.443 33.975)"><mask id="N" class="B"><use xlink:href="#F"/></mask><g mask="url(#N)" class="G"><g transform="matrix(1 0 0 -1 -98.102401 12.5662)"><g stroke="#006bb8"><use xlink:href="#M"/></g></g></g></g><g transform="translate(0 39.678)"><mask id="O" class="B"><use xlink:href="#H" href="#F"/></mask><g mask="url(#O)" class="G"><g transform="matrix(1 0 0 -1 -98.102401 12.5662)"><g stroke="#006bb8"><use xlink:href="#M"/></g></g></g></g></g><g class="C"><g transform="translate(40)"><g transform="translate(12 18)"><g class="F"><g stroke-width="1.2"><ellipse opacity=".4" cx="33.941" cy="34.235" rx="9.579" ry="9.671"/><ellipse opacity=".6" cx="33.941" cy="34.235" rx="18.628" ry="18.8"/><ellipse opacity=".8" cx="33.941" cy="34.235" rx="25.414" ry="25.647"/></g><use mask="url(#H)" stroke-width="2.4" stroke-dasharray="2.015999984741211" xlink:href="#G"/></g><path d="M67.868 34c-.152 9.372-4.036 17.829-10.218 23.922L33.941 34z" fill="url(#I)" opacity=".85"/></g><path d="M49.126 14.117c.239 0 .392-.027.458-.081s.099-.151.099-.293h0V6.368h.088c.278 0 .47-.039.575-.117s.157-.215.157-.41c0-.176-.043-.308-.128-.396s-.216-.132-.392-.132h0-2.102c-.327 0-.542.038-.645.114s-.154.214-.154.414c0 .181.06.314.179.399s.311.128.575.128h.806v5.786l-3.691-6.372c-.122-.21-.228-.341-.319-.392s-.248-.077-.472-.077h0-.688l-.293.007-.146.007c-.278 0-.48.04-.604.121s-.187.211-.187.392c0 .195.072.332.216.41s.421.117.831.117h.183v6.599h-.139c-.288 0-.482.035-.582.106s-.15.204-.15.399c0 .176.044.308.132.396s.22.132.396.132h2.175c.356 0 .587-.038.692-.114s.157-.214.157-.414c0-.181-.056-.31-.168-.388s-.3-.117-.564-.117h0-.916V6.983l3.896 6.716c.132.225.226.35.282.377s.204.04.443.04zM90.412 58a.49.49 0 0 0 .374-.139c.088-.093.132-.227.132-.403h0v-1.846c0-.278-.038-.468-.114-.568s-.206-.15-.392-.15c-.2 0-.338.054-.414.161s-.114.349-.114.725h0v1.187h-3.896v-3.245h1.919v.256c0 .337.033.564.099.681s.187.176.363.176.298-.051.366-.154.103-.337.103-.703h0v-1.362c0-.361-.033-.597-.099-.707s-.184-.165-.355-.165-.299.051-.37.154-.106.286-.106.549h0v.388h-1.919v-2.468h3.896v1.047c0 .376.038.618.114.725s.214.161.414.161c.19 0 .322-.049.396-.146s.11-.273.11-.527h0v-1.729c0-.19-.043-.336-.128-.436s-.211-.15-.377-.15h0-6.379c-.186 0-.323.043-.414.128s-.135.219-.135.399c0 .2.055.338.165.414s.348.114.714.114h.469v6.599h-.469c-.376 0-.616.035-.721.106s-.157.204-.157.399c0 .176.045.308.135.396s.223.132.399.132h6.394zM2.651 58c.122 0 .21-.02.264-.059s.098-.12.132-.242h0l1.406-5.054 1.589 5.039c.044.122.095.205.154.249s.144.066.256.066h.52c.093 0 .16-.024.201-.073s.07-.149.084-.3h0l1.04-7.324h.088c.186 0 .325-.04.417-.121s.139-.204.139-.37a.52.52 0 0 0-.125-.355c-.083-.095-.178-.143-.286-.143h0-2.366c-.273 0-.46.037-.56.11s-.15.203-.15.388c0 .171.052.295.157.374s.27.117.494.117h1.15l-.718 5.823-1.428-4.409c-.044-.132-.096-.22-.157-.264s-.162-.066-.304-.066h0-.33c-.146 0-.248.021-.304.062s-.106.14-.15.297h0l-1.26 4.38-.791-5.823h1.033c.22 0 .382-.039.487-.117s.157-.203.157-.374c0-.186-.05-.315-.15-.388s-.284-.11-.553-.11h0-2.37a.36.36 0 0 0-.286.139c-.078.093-.117.212-.117.359 0 .161.048.283.143.366s.238.125.428.125h.088l1.113 7.31c.02.166.052.272.099.319s.118.07.216.07h.549zm41.121 42.33c.19 0 .33-.043.417-.128s.144-.238.168-.458c.391.176.759.305 1.106.388s.696.125 1.047.125c1.021 0 1.836-.248 2.446-.743s.916-1.154.916-1.974c0-.693-.215-1.244-.645-1.652s-1.069-.668-1.919-.78h0l-1.172-.146c-.566-.078-.988-.225-1.263-.439s-.414-.508-.414-.879c0-.474.184-.857.553-1.15s.848-.439 1.439-.439c.386 0 .73.066 1.033.198s.535.32.696.564a2.01 2.01 0 0 1 .205.461c.142.361.342.542.601.542.176 0 .313-.048.41-.143s.146-.228.146-.399h0v-.073l-.103-1.531c-.02-.239-.071-.391-.154-.454s-.232-.095-.447-.095c-.166 0-.283.027-.352.081s-.107.151-.117.293c-.376-.151-.713-.262-1.011-.333s-.581-.106-.85-.106c-.923 0-1.693.254-2.311.762s-.927 1.135-.927 1.882c0 .708.232 1.257.696 1.648s1.201.657 2.212.798h0l1.084.146c.464.068.817.22 1.058.454s.363.544.363.93c0 .464-.197.845-.59 1.143s-.905.447-1.534.447c-.513 0-.953-.093-1.322-.278s-.638-.449-.809-.791a2.73 2.73 0 0 1-.168-.476c-.127-.42-.337-.63-.63-.63-.21 0-.36.049-.45.146s-.135.264-.135.498h0v.132l.095 1.699c.015.269.072.463.172.582s.253.179.458.179z" class="E"/></g><g class="D"><path d="M31.713 123c.332 0 .57-.063.714-.19s.216-.334.216-.623c0-.278-.072-.48-.216-.604s-.382-.187-.714-.187h0-.256l.315-.857h3.164l.3.857h-.256c-.337 0-.576.061-.718.183s-.212.325-.212.608c0 .293.071.502.212.626s.381.187.718.187h2.205c.332 0 .57-.063.714-.19s.216-.334.216-.623c0-.259-.068-.455-.205-.59s-.337-.201-.601-.201h0-.125l-2.322-6.357v-.022c-.176-.469-.481-.703-.916-.703h0H31.2c-.332 0-.57.063-.714.19s-.216.334-.216.623.072.488.216.615.382.19.714.19h.586l-1.963 5.464h-.125c-.264 0-.464.067-.601.201s-.205.331-.205.59c0 .288.071.496.212.623s.381.19.718.19h1.89zm2.695-3.977h-2.124l1.062-3.091 1.062 3.091zM44.97 123c.332 0 .568-.063.707-.19s.209-.334.209-.623-.068-.486-.205-.608-.374-.183-.71-.183h0-1.575v-7.668c0-.098-.038-.175-.114-.231s-.182-.084-.319-.084h0-2.19c-.337 0-.576.063-.718.19s-.212.334-.212.623.072.49.216.619.382.194.714.194h.806v6.357h-1.575c-.337 0-.573.06-.707.179s-.201.323-.201.612.07.496.209.623.372.19.699.19h4.966zm6.665.183c1.001 0 1.841-.166 2.52-.498s1.018-.728 1.018-1.187c0-.21-.057-.382-.172-.516s-.262-.201-.443-.201c-.122 0-.479.148-1.069.443s-1.189.443-1.794.443-1.09-.134-1.454-.403-.609-.674-.736-1.216h4.724c.435 0 .721-.054.861-.161s.209-.305.209-.593c0-.903-.347-1.666-1.04-2.289s-1.567-.934-2.622-.934c-1.182 0-2.142.332-2.882.996s-1.11 1.516-1.11 2.556.37 1.899 1.11 2.563 1.7.996 2.882.996zm1.816-4.277h-3.948c.127-.479.353-.836.677-1.073s.753-.355 1.285-.355c.552 0 1 .125 1.344.374a1.6 1.6 0 0 1 .641 1.055h0zM61.896 123c.332 0 .568-.063.707-.19s.209-.334.209-.623-.07-.486-.209-.608-.375-.183-.707-.183h0-1.729v-2.373c.435-.439.811-.764 1.128-.974s.593-.315.828-.315c.117 0 .326.081.626.242s.56.242.78.242c.308 0 .559-.092.754-.275s.293-.416.293-.699c0-.366-.142-.658-.425-.875s-.667-.326-1.15-.326a3.14 3.14 0 0 0-1.49.366c-.461.244-.958.652-1.49 1.223h0v-1.084c0-.098-.037-.175-.11-.231s-.176-.084-.308-.084h0-1.56c-.342 0-.58.061-.714.183s-.201.327-.201.615.07.494.209.619.375.187.707.187h.315v3.56h-.557c-.342 0-.582.061-.721.183s-.209.325-.209.608.071.496.212.623.381.19.718.19h4.094zm7.969.146c.864 0 1.637-.155 2.318-.465s1.022-.653 1.022-1.029c0-.225-.072-.416-.216-.575s-.316-.238-.516-.238c-.176 0-.522.11-1.04.33s-.967.33-1.348.33c-.405 0-.688-.098-.85-.293s-.242-.557-.242-1.084h0v-1.875h2.234c.332 0 .57-.063.714-.19s.216-.334.216-.623-.071-.486-.212-.608-.381-.183-.718-.183h0-2.234v-1.714c0-.337-.07-.574-.209-.71s-.37-.205-.692-.205-.553.068-.692.205-.209.374-.209.71h0v1.714h-.688c-.337 0-.574.06-.71.179s-.205.323-.205.612.07.496.209.623.375.19.707.19h.688v2.036c0 .64.034 1.096.103 1.37s.183.508.344.703c.22.254.52.449.901.586s.823.205 1.326.205zm6.541.71a.54.54 0 0 0 .396-.168c.112-.112.234-.312.366-.601h0l4.292-9.192a3.2 3.2 0 0 0 .168-.41.97.97 0 0 0 .044-.278.65.65 0 0 0-.264-.527.92.92 0 0 0-.593-.212.54.54 0 0 0-.396.168c-.112.112-.237.317-.374.615h0l-4.299 9.207c-.132.298-.198.518-.198.659 0 .21.087.386.26.527s.372.212.597.212zM28.758 141c.313 0 .537-.063.674-.19s.205-.334.205-.623-.067-.486-.201-.608-.36-.183-.677-.183h0-.754v-1.501h1.245c1.201 0 2.107-.242 2.717-.725s.916-1.196.916-2.139c0-.894-.306-1.57-.919-2.029s-1.517-.688-2.714-.688h0-3.025c-.317 0-.547.065-.688.194s-.212.336-.212.619c0 .259.067.458.201.597s.326.209.575.209h.125v5.464h-.125c-.254 0-.447.067-.579.201s-.198.331-.198.59c0 .288.07.496.209.623s.37.19.692.19h2.534zm.286-4.753h-1.04v-2.314h1.04c.557 0 .985.099 1.285.297s.45.48.45.846c0 .391-.145.684-.436.879s-.724.293-1.3.293h0zM39.392 141c.332 0 .568-.063.707-.19s.209-.334.209-.623-.07-.486-.209-.608-.375-.183-.707-.183h0-1.729v-2.373c.435-.439.811-.764 1.128-.974s.593-.315.828-.315c.117 0 .326.081.626.242s.56.242.78.242c.308 0 .559-.092.754-.275s.293-.416.293-.699c0-.366-.142-.658-.425-.875s-.667-.326-1.15-.326a3.14 3.14 0 0 0-1.49.366c-.461.244-.958.652-1.49 1.223h0v-1.084c0-.098-.037-.175-.11-.231s-.176-.084-.308-.084h0-1.56c-.342 0-.58.061-.714.183s-.201.327-.201.615.07.494.209.619.375.187.707.187h.315v3.56h-.557c-.342 0-.582.061-.721.183s-.209.325-.209.608.071.496.212.623.381.19.718.19h4.094zm7.603.183c1.187 0 2.148-.332 2.886-.996s1.106-1.519 1.106-2.563-.369-1.892-1.106-2.556-1.699-.996-2.886-.996c-1.177 0-2.135.332-2.875.996s-1.11 1.516-1.11 2.556.369 1.899 1.106 2.563 1.697.996 2.878.996zm0-1.545c-.571 0-1.041-.192-1.41-.575s-.553-.868-.553-1.454.184-1.058.553-1.432.839-.56 1.41-.56 1.049.187 1.417.56.553.851.553 1.432-.186 1.071-.557 1.454-.842.575-1.414.575zm9.514 1.545c1.001 0 1.831-.321 2.49-.963a3.21 3.21 0 0 0 .989-2.399c0-1.05-.323-1.91-.97-2.582s-1.478-1.007-2.494-1.007c-.352 0-.688.059-1.011.176s-.601.278-.835.483h0v-2.996c0-.171-.035-.294-.106-.37s-.184-.114-.341-.114h0-1.37c-.337 0-.576.063-.718.19s-.212.334-.212.623c0 .264.07.465.209.604s.341.209.604.209h.117v6.357h-.117c-.264 0-.463.067-.597.201s-.201.331-.201.59c0 .293.07.502.209.626s.375.187.707.187h1.128c.137 0 .243-.028.319-.084s.114-.133.114-.231h0v-.483a2.07 2.07 0 0 0 .853.736c.349.164.76.245 1.234.245zm-.212-1.56a1.51 1.51 0 0 1-1.194-.538c-.312-.359-.469-.822-.469-1.388 0-.552.157-1.007.472-1.366s.712-.538 1.19-.538a1.52 1.52 0 0 1 1.194.542c.317.361.476.815.476 1.362 0 .562-.157 1.023-.472 1.384a1.52 1.52 0 0 1-1.198.542zM67.473 141c.332 0 .568-.063.707-.19s.209-.334.209-.623-.068-.486-.205-.608-.374-.183-.71-.183h0-1.575v-7.668c0-.098-.038-.175-.114-.231s-.182-.084-.319-.084h0-2.19c-.337 0-.576.063-.718.19s-.212.334-.212.623.072.49.216.619.382.194.714.194h.806v6.357h-1.575c-.337 0-.573.06-.707.179s-.201.323-.201.612.07.496.209.623.372.19.699.19h4.966zm6.665.183c1.001 0 1.841-.166 2.52-.498s1.018-.728 1.018-1.187c0-.21-.057-.382-.172-.516s-.262-.201-.443-.201c-.122 0-.479.148-1.069.443s-1.189.443-1.794.443-1.09-.134-1.454-.403-.609-.674-.736-1.216h4.724c.435 0 .721-.054.861-.161s.209-.305.209-.593c0-.903-.347-1.666-1.04-2.289s-1.567-.934-2.622-.934c-1.182 0-2.142.332-2.882.996s-1.11 1.516-1.11 2.556.37 1.899 1.11 2.563 1.7.996 2.882.996zm1.816-4.277h-3.948c.127-.479.353-.836.677-1.073s.753-.355 1.285-.355c.552 0 1 .125 1.344.374a1.6 1.6 0 0 1 .641 1.055h0zM80.84 141c.288 0 .493-.062.615-.187s.183-.333.183-.626c0-.264-.057-.461-.172-.593s-.287-.198-.516-.198h0-.11v-2.563c0-.4.07-.71.209-.93s.331-.33.575-.33a.48.48 0 0 1 .439.242c.098.161.146.405.146.732h0v4.138c0 .098.039.175.117.231s.183.084.315.084h1.245c.288 0 .493-.062.615-.187s.183-.333.183-.626c0-.259-.059-.455-.176-.59s-.288-.201-.513-.201h0-.11v-2.563c0-.405.067-.717.201-.934s.323-.326.568-.326c.195 0 .344.081.447.242s.154.405.154.732h0v4.138c0 .098.037.175.11.231s.176.084.308.084h1.245c.288 0 .492-.062.612-.187s.179-.333.179-.626c0-.259-.057-.455-.172-.59s-.287-.201-.516-.201h0-.103v-2.776c0-.923-.146-1.581-.439-1.974s-.771-.59-1.436-.59c-.308 0-.596.057-.864.172s-.505.282-.71.502c-.156-.229-.339-.399-.549-.509s-.457-.165-.74-.165c-.312 0-.596.065-.85.194s-.471.319-.652.568c0-.229-.035-.385-.106-.465s-.206-.121-.406-.121h0-.989c-.288 0-.494.062-.619.187s-.187.328-.187.612c0 .259.06.458.179.597s.294.209.524.209h.103v3.56h-.103c-.229 0-.402.067-.516.201s-.172.331-.172.59c0 .288.061.496.183.623s.325.19.608.19h1.663z"/><path d="M5.543 6.922a1 1 0 0 1 1.327-.078l.087.078 7.673 7.674.002-5.863a1 1 0 0 1 .875-.992l.125-.008a1 1 0 0 1 .992.875l.008.125v8.278a1 1 0 0 1-.875.992l-.125.008H7.353a1 1 0 0 1-.125-1.992l.125-.008h5.864L5.543 8.336a1 1 0 0 1 0-1.414zm0 103.156a1 1 0 0 0 1.327.078l.087-.078 7.673-7.674.002 5.863a1 1 0 0 0 .875.992l.125.008a1 1 0 0 0 .992-.875l.008-.125v-8.278a1 1 0 0 0-.875-.992l-.125-.008H7.353a1 1 0 0 0-.125 1.992l.125.008h5.864l-7.674 7.675a1 1 0 0 0 0 1.414z" transform="matrix(0 1 -1 0 198.288582 147.788582)" opacity=".9"/><path d="M179.398 123c.332 0 .568-.063.707-.19s.209-.334.209-.623c0-.259-.067-.455-.201-.59s-.333-.201-.597-.201h0-.117v-1.934h.688a.51.51 0 0 1 .278.084c.088.056.166.138.234.245h0l1.794 2.761.022.015c.186.288.444.432.776.432h.901c.332 0 .57-.063.714-.19s.216-.334.216-.623c0-.264-.072-.461-.216-.593s-.358-.198-.641-.198h0-.227l-1.194-1.89-.051-.073c-.122-.205-.247-.347-.374-.425.552-.19.975-.486 1.271-.886s.443-.874.443-1.421c0-.786-.266-1.381-.798-1.783s-1.316-.604-2.351-.604h0-3.376c-.322 0-.555.065-.699.194s-.216.336-.216.619c0 .259.068.458.205.597s.332.209.586.209h.125v5.464h-.125c-.259 0-.455.067-.59.201s-.201.331-.201.59c0 .288.071.496.212.623s.376.19.703.19h1.89zm.901-5.039h-.989v-2.073h1.23c.493 0 .851.082 1.073.245s.333.428.333.795-.122.636-.366.795-.671.238-1.282.238h0zm9.331 5.222c1.001 0 1.841-.166 2.52-.498s1.018-.728 1.018-1.187c0-.21-.057-.382-.172-.516s-.262-.201-.443-.201c-.122 0-.479.148-1.069.443s-1.189.443-1.794.443-1.09-.134-1.454-.403-.609-.674-.736-1.216h4.724c.435 0 .721-.054.861-.161s.209-.305.209-.593c0-.903-.347-1.666-1.04-2.289s-1.567-.934-2.622-.934c-1.182 0-2.142.332-2.882.996s-1.11 1.516-1.11 2.556.37 1.899 1.11 2.563 1.7.996 2.882.996zm1.816-4.277h-3.948c.127-.479.353-.836.677-1.073s.753-.355 1.285-.355c.552 0 1 .125 1.344.374a1.6 1.6 0 0 1 .641 1.055h0zm4.885 4.094c.288 0 .493-.062.615-.187s.183-.333.183-.626c0-.264-.057-.461-.172-.593s-.287-.198-.516-.198h0-.11v-2.563c0-.4.07-.71.209-.93s.331-.33.575-.33a.48.48 0 0 1 .439.242c.098.161.146.405.146.732h0v4.138c0 .098.039.175.117.231s.183.084.315.084h1.245c.288 0 .493-.062.615-.187s.183-.333.183-.626c0-.259-.059-.455-.176-.59s-.288-.201-.513-.201h0-.11v-2.563c0-.405.067-.717.201-.934s.323-.326.568-.326c.195 0 .344.081.447.242s.154.405.154.732h0v4.138c0 .098.037.175.11.231s.176.084.308.084h1.245c.288 0 .492-.062.612-.187s.179-.333.179-.626c0-.259-.057-.455-.172-.59s-.287-.201-.516-.201h0-.103v-2.776c0-.923-.146-1.581-.439-1.974s-.771-.59-1.436-.59c-.308 0-.596.057-.864.172s-.505.282-.71.502c-.156-.229-.339-.399-.549-.509s-.457-.165-.74-.165c-.312 0-.596.065-.85.194s-.471.319-.652.568c0-.229-.035-.385-.106-.465s-.206-.121-.406-.121h0-.989c-.288 0-.494.062-.619.187s-.187.328-.187.612c0 .259.06.458.179.597s.294.209.524.209h.103v3.56h-.103c-.229 0-.402.067-.516.201s-.172.331-.172.59c0 .288.061.496.183.623s.325.19.608.19h1.663zm11.301.183c1.001 0 1.841-.166 2.52-.498s1.018-.728 1.018-1.187c0-.21-.057-.382-.172-.516s-.262-.201-.443-.201c-.122 0-.479.148-1.069.443s-1.189.443-1.794.443-1.09-.134-1.454-.403-.609-.674-.736-1.216h4.724c.435 0 .721-.054.861-.161s.209-.305.209-.593c0-.903-.347-1.666-1.04-2.289s-1.567-.934-2.622-.934c-1.182 0-2.142.332-2.882.996s-1.11 1.516-1.11 2.556.37 1.899 1.11 2.563 1.7.996 2.882.996zm1.816-4.277h-3.948c.127-.479.353-.836.677-1.073s.753-.355 1.285-.355c.552 0 1 .125 1.344.374a1.6 1.6 0 0 1 .641 1.055h0zm6.416 4.277c.469 0 .891-.087 1.267-.26s.684-.424.923-.751h0v.513c0 .098.038.175.114.231a.54.54 0 0 0 .326.084h1.121c.332 0 .568-.063.707-.19s.209-.334.209-.623c0-.259-.066-.455-.198-.59s-.33-.201-.593-.201h0-.125v-7.5c0-.186-.031-.312-.092-.381s-.175-.103-.341-.103h0-2.278c-.337 0-.576.063-.718.19s-.212.334-.212.623.071.49.212.619.381.194.718.194h.974v1.853c-.273-.21-.575-.372-.905-.487s-.668-.172-1.014-.172c-1.006 0-1.835.334-2.487 1.003s-.978 1.511-.978 2.527c0 .977.322 1.791.967 2.443s1.445.978 2.402.978zm.315-1.56a1.51 1.51 0 0 1-1.194-.538c-.312-.359-.469-.822-.469-1.388 0-.552.157-1.007.472-1.366s.712-.538 1.19-.538a1.52 1.52 0 0 1 1.194.542c.317.361.476.815.476 1.362 0 .562-.157 1.023-.472 1.384a1.52 1.52 0 0 1-1.198.542zm9.272-6.409c.391 0 .638-.06.743-.179s.157-.428.157-.927c0-.518-.059-.845-.176-.981s-.354-.205-.71-.205c-.386 0-.635.085-.747.256s-.168.569-.168 1.194c0 .337.055.562.165.674s.355.168.736.168zm2.644 7.786c.332 0 .57-.063.714-.19s.216-.334.216-.623-.071-.486-.212-.608-.381-.183-.718-.183h0-1.575v-4.849c0-.098-.037-.175-.11-.231s-.178-.084-.315-.084h0-2.205c-.337 0-.574.061-.71.183s-.205.327-.205.615.071.494.212.619.376.187.703.187h.828v3.56h-1.575c-.342 0-.582.061-.721.183s-.209.325-.209.608.072.496.216.623.382.19.714.19h4.951zm5.193.183a4.6 4.6 0 0 0 1.377-.212 5.04 5.04 0 0 0 1.289-.615c.078.244.177.413.297.505s.302.139.546.139h.688c.332 0 .57-.062.714-.187s.216-.328.216-.612c0-.259-.07-.458-.209-.597s-.341-.209-.604-.209h0-.117v-2.717c0-.957-.225-1.636-.674-2.036s-1.194-.601-2.234-.601c-.996 0-1.783.116-2.362.348s-.868.546-.868.941c0 .22.071.397.212.531s.327.201.557.201.602-.12 1.102-.359.912-.359 1.234-.359c.415 0 .729.115.941.344s.319.564.319 1.003h0v.139l-.886-.117-.747-.037c-1.05 0-1.865.203-2.446.608s-.872.974-.872 1.707c0 .679.225 1.213.674 1.604s1.067.586 1.853.586zm.593-1.472c-.366 0-.647-.074-.842-.223s-.293-.365-.293-.648c0-.317.153-.566.458-.747s.726-.271 1.263-.271a4.42 4.42 0 0 1 .571.04l.674.121v1.128a3.28 3.28 0 0 1-.879.454c-.298.098-.615.146-.952.146zm9.983 1.436c.864 0 1.637-.155 2.318-.465s1.022-.653 1.022-1.029c0-.225-.072-.416-.216-.575s-.316-.238-.516-.238c-.176 0-.522.11-1.04.33s-.967.33-1.348.33c-.405 0-.688-.098-.85-.293s-.242-.557-.242-1.084h0v-1.875h2.234c.332 0 .57-.063.714-.19s.216-.334.216-.623-.071-.486-.212-.608-.381-.183-.718-.183h0-2.234v-1.714c0-.337-.07-.574-.209-.71s-.37-.205-.692-.205-.553.068-.692.205-.209.374-.209.71h0v1.714h-.688c-.337 0-.574.06-.71.179s-.205.323-.205.612.07.496.209.623.375.19.707.19h.688v2.036c0 .64.034 1.096.103 1.37s.183.508.344.703c.22.254.52.449.901.586s.823.205 1.326.205zm8.591-7.932c.391 0 .638-.06.743-.179s.157-.428.157-.927c0-.518-.059-.845-.176-.981s-.354-.205-.71-.205c-.386 0-.635.085-.747.256s-.168.569-.168 1.194c0 .337.055.562.165.674s.355.168.736.168zm2.644 7.786c.332 0 .57-.063.714-.19s.216-.334.216-.623-.071-.486-.212-.608-.381-.183-.718-.183h0-1.575v-4.849c0-.098-.037-.175-.11-.231s-.178-.084-.315-.084h0-2.205c-.337 0-.574.061-.71.183s-.205.327-.205.615.071.494.212.619.376.187.703.187h.828v3.56h-1.575c-.342 0-.582.061-.721.183s-.209.325-.209.608.072.496.216.623.382.19.714.19h4.951zm6.401.183c1.187 0 2.148-.332 2.886-.996s1.106-1.519 1.106-2.563-.369-1.892-1.106-2.556-1.699-.996-2.886-.996c-1.177 0-2.135.332-2.875.996s-1.11 1.516-1.11 2.556.369 1.899 1.106 2.563 1.697.996 2.878.996zm0-1.545c-.571 0-1.041-.192-1.41-.575s-.553-.868-.553-1.454.184-1.058.553-1.432.839-.56 1.41-.56 1.049.187 1.417.56.553.851.553 1.432-.186 1.071-.557 1.454-.842.575-1.414.575zm7.837 1.362c.327 0 .562-.063.703-.19s.212-.334.212-.623c0-.269-.068-.47-.205-.604s-.344-.201-.623-.201h0-.088v-2.117c0-.488.128-.88.385-1.176s.587-.443.992-.443c.381 0 .653.123.817.37s.245.663.245 1.249h0v2.117h-.088c-.278 0-.487.067-.626.201s-.209.336-.209.604c0 .288.072.496.216.623s.38.19.707.19h1.802c.332 0 .568-.063.707-.19s.209-.334.209-.623c0-.269-.068-.47-.205-.604s-.342-.201-.615-.201h0-.095v-2.446c0-.972-.192-1.694-.575-2.168s-.966-.71-1.747-.71c-.459 0-.863.089-1.212.267s-.636.443-.861.795h0v-.571c0-.103-.035-.181-.106-.234s-.175-.081-.311-.081h0-1.245c-.337 0-.576.063-.718.19s-.212.334-.212.623c0 .259.068.455.205.59s.337.201.601.201h.125v3.545h-.088c-.278 0-.486.067-.623.201s-.205.336-.205.604c0 .288.071.496.212.623s.376.19.703.19h1.816zm-75.106 18.198c1.001 0 1.774-.201 2.318-.604s.817-.973.817-1.71c0-.63-.206-1.105-.619-1.425s-1.171-.56-2.274-.721l-.601-.073c-.879-.117-1.318-.347-1.318-.688 0-.22.105-.392.315-.516s.505-.187.886-.187c.488 0 .975.175 1.461.524s.829.524 1.029.524.347-.057.454-.172.161-.277.161-.487h0v-.901c0-.249-.052-.436-.157-.56s-.258-.187-.458-.187c-.142 0-.27.029-.385.088s-.223.149-.326.271a7.32 7.32 0 0 0-1.029-.238 6.45 6.45 0 0 0-.978-.077c-.923 0-1.633.188-2.131.564s-.747.908-.747 1.597c0 .581.208 1.044.623 1.388s1.047.575 1.897.692l.586.081c1.128.151 1.692.425 1.692.82 0 .22-.105.398-.315.535s-.491.205-.842.205c-.405 0-.767-.054-1.084-.161s-.596-.269-.835-.483c-.073-.073-.164-.186-.271-.337-.181-.278-.415-.417-.703-.417-.264 0-.449.067-.557.201s-.161.363-.161.685h0v.974c0 .308.043.518.128.63s.233.168.443.168a1.15 1.15 0 0 0 .414-.077 1.55 1.55 0 0 0 .392-.223c.337.098.686.172 1.047.223s.737.077 1.128.077zm8.899-.015c1.001 0 1.841-.166 2.52-.498s1.018-.728 1.018-1.187c0-.21-.057-.382-.172-.516s-.262-.201-.443-.201c-.122 0-.479.148-1.069.443s-1.189.443-1.794.443-1.09-.134-1.454-.403-.609-.674-.736-1.216h4.724c.435 0 .721-.054.861-.161s.209-.305.209-.593c0-.903-.347-1.666-1.04-2.289s-1.567-.934-2.622-.934c-1.182 0-2.142.332-2.882.996s-1.11 1.516-1.11 2.556.37 1.899 1.11 2.563 1.7.996 2.882.996zm1.816-4.277H201c.127-.479.353-.836.677-1.073s.753-.355 1.285-.355c.552 0 1 .125 1.344.374a1.6 1.6 0 0 1 .641 1.055h0zm10.605 7.002c.332 0 .568-.061.707-.183s.209-.325.209-.608-.071-.496-.212-.623-.376-.19-.703-.19h0-.439v-6.467h.125c.259 0 .455-.068.59-.205s.201-.337.201-.601c0-.283-.068-.487-.205-.612s-.374-.187-.71-.187h0-1.121c-.142 0-.248.026-.319.077s-.106.126-.106.223h0v.527c-.244-.332-.544-.582-.901-.751a2.76 2.76 0 0 0-1.194-.253c-1.006 0-1.835.32-2.487.959s-.978 1.445-.978 2.417c0 1.016.317 1.857.952 2.523s1.436 1 2.402 1c.4 0 .773-.055 1.117-.165a2.66 2.66 0 0 0 .897-.48h0v1.992h-.93c-.332 0-.568.062-.707.187s-.209.333-.209.626.068.492.205.612.374.179.71.179h3.105zm-3.875-4.482c-.483 0-.881-.178-1.194-.535s-.469-.813-.469-1.37.156-1.013.469-1.37.71-.535 1.194-.535.889.178 1.201.535.469.813.469 1.37-.157 1.007-.472 1.366-.714.538-1.198.538zm8.555 1.743c.459 0 .858-.088 1.198-.264s.626-.439.861-.791h0v.557c0 .103.038.183.114.242a.51.51 0 0 0 .319.088h1.23c.337 0 .576-.062.718-.187s.212-.333.212-.626c0-.254-.07-.449-.209-.586s-.341-.205-.604-.205h0-.117v-4.849c0-.098-.037-.175-.11-.231s-.176-.084-.308-.084h0-1.384c-.337 0-.574.061-.71.183s-.205.327-.205.615c0 .264.067.464.201.601s.333.205.597.205h.117v2.117c0 .488-.131.883-.392 1.183s-.594.45-1 .45c-.381 0-.654-.122-.82-.366s-.249-.667-.249-1.267h0v-3.406c0-.098-.034-.175-.103-.231s-.168-.084-.3-.084h0-1.377c-.342 0-.582.061-.721.183s-.209.327-.209.615c0 .264.068.464.205.601s.337.205.601.205h.125v2.446c0 .977.19 1.702.571 2.175s.964.71 1.75.71zm9.902.015c1.001 0 1.841-.166 2.52-.498s1.018-.728 1.018-1.187c0-.21-.057-.382-.172-.516s-.262-.201-.443-.201c-.122 0-.479.148-1.069.443s-1.189.443-1.794.443-1.09-.134-1.454-.403-.609-.674-.736-1.216h4.724c.435 0 .721-.054.861-.161s.209-.305.209-.593c0-.903-.347-1.666-1.04-2.289s-1.567-.934-2.622-.934c-1.182 0-2.142.332-2.882.996s-1.11 1.516-1.11 2.556.37 1.899 1.11 2.563 1.7.996 2.882.996zm1.816-4.277h-3.948c.127-.479.353-.836.677-1.073s.753-.355 1.285-.355c.552 0 1 .125 1.344.374a1.6 1.6 0 0 1 .641 1.055h0zm5.881 4.094c.327 0 .562-.063.703-.19s.212-.334.212-.623c0-.269-.068-.47-.205-.604s-.344-.201-.623-.201h0-.088v-2.117c0-.488.128-.88.385-1.176s.587-.443.992-.443c.381 0 .653.123.817.37s.245.663.245 1.249h0v2.117h-.088c-.278 0-.487.067-.626.201s-.209.336-.209.604c0 .288.072.496.216.623s.38.19.707.19h1.802c.332 0 .568-.063.707-.19s.209-.334.209-.623c0-.269-.068-.47-.205-.604s-.342-.201-.615-.201h0-.095v-2.446c0-.972-.192-1.694-.575-2.168s-.966-.71-1.747-.71c-.459 0-.863.089-1.212.267s-.636.443-.861.795h0v-.571c0-.103-.035-.181-.106-.234s-.175-.081-.311-.081h0-1.245c-.337 0-.576.063-.718.19s-.212.334-.212.623c0 .259.068.455.205.59s.337.201.601.201h.125v3.545h-.088c-.278 0-.486.067-.623.201s-.205.336-.205.604c0 .288.071.496.212.623s.376.19.703.19h1.816zm10.305.183c.957 0 1.783-.181 2.479-.542s1.044-.771 1.044-1.23c0-.21-.06-.385-.179-.524a.57.57 0 0 0-.45-.209c-.127 0-.475.16-1.044.48s-1.141.48-1.718.48c-.635 0-1.14-.186-1.516-.557s-.564-.862-.564-1.472c0-.581.182-1.058.546-1.432s.831-.56 1.403-.56c.459 0 .847.079 1.165.238a1.84 1.84 0 0 1 .769.736c.137.234.266.393.388.476a.79.79 0 0 0 .454.125c.254 0 .442-.071.564-.212s.183-.361.183-.659h0v-1.201c0-.391-.056-.665-.168-.824s-.3-.238-.564-.238c-.195 0-.355.048-.48.143s-.216.238-.275.428c-.352-.195-.706-.339-1.062-.432s-.723-.139-1.099-.139c-1.113 0-2.036.339-2.769 1.018s-1.099 1.528-1.099 2.549c0 1.045.37 1.899 1.11 2.563s1.7.996 2.882.996zm9.001 0c1.001 0 1.841-.166 2.52-.498s1.018-.728 1.018-1.187c0-.21-.057-.382-.172-.516s-.262-.201-.443-.201c-.122 0-.479.148-1.069.443s-1.189.443-1.794.443-1.09-.134-1.454-.403-.609-.674-.736-1.216h4.724c.435 0 .721-.054.861-.161s.209-.305.209-.593c0-.903-.347-1.666-1.04-2.289s-1.567-.934-2.622-.934c-1.182 0-2.142.332-2.882.996s-1.11 1.516-1.11 2.556.37 1.899 1.11 2.563 1.7.996 2.882.996zm1.816-4.277h-3.948c.127-.479.353-.836.677-1.073s.753-.355 1.285-.355c.552 0 1 .125 1.344.374a1.6 1.6 0 0 1 .641 1.055h0z"/></g></g><g transform="translate(111 155)"><g class="C"><use fill="#000" filter="url(#K)" xlink:href="#J"/><use xlink:href="#J" class="D"/></g><g transform="translate(0 .8)" class="B"><mask id="P"><use xlink:href="#L"/></mask><g mask="url(#P)" class="C"><path d="M91.357 18.556c1.341 0 2.586.191 3.64.669 1.054.382 2.012 1.051 2.778 1.815s1.341 1.719 1.724 2.865c.575 1.051.766 2.292.766 3.629s-.192 2.483-.479 3.629c-.383 1.146-.862 2.006-1.437 2.865-.671.764-1.437 1.433-2.395 1.815-.958.478-2.012.669-3.257.669-.766 0-1.533-.096-2.299-.287-.671-.191-1.245-.382-1.724-.669v6.685h-4.023V19.511l2.969-.669c1.149-.191 2.49-.287 3.736-.287zm-18.295-.096c2.395 0 4.215.764 5.556 2.197s2.012 3.629 2.012 6.59v.764c0 .287 0 .478-.096.764H69.231c.096 1.337.575 2.483 1.437 3.247s2.107 1.146 3.831 1.146a12.15 12.15 0 0 0 2.682-.287l1.916-.573.575 3.247c-.192.096-.479.191-.958.382-.383.096-.862.191-1.341.382l-1.628.287c-.575.096-1.149.096-1.724.096-1.533 0-2.874-.191-3.927-.669-1.149-.478-2.012-1.051-2.778-1.91-.766-.764-1.245-1.719-1.628-2.865-.479-1.146-.671-2.292-.671-3.629 0-1.528.192-2.865.671-4.011s1.054-2.101 1.82-2.865 1.628-1.337 2.586-1.719 1.916-.573 2.969-.573zm34.962-4.775v5.253h6.13v3.343h-6.13v6.972c0 1.337.192 2.388.671 2.961s1.149.86 2.299.86c.766 0 1.341-.096 1.916-.191.575-.191 1.054-.287 1.341-.478l.671 3.152c-.479.191-1.054.382-1.82.573s-1.628.287-2.682.287c-1.245 0-2.299-.191-3.065-.478-.862-.382-1.437-.764-2.012-1.433-.479-.669-.862-1.337-1.054-2.292-.192-.86-.287-1.91-.287-3.056V14.354l4.023-.669zm17.72 4.871c1.437 0 2.586.191 3.544.573s1.724.955 2.299 1.624.958 1.528 1.149 2.483.383 2.006.383 3.247v9.741h-4.023v-9.073c0-.955-.096-1.719-.192-2.388a4.08 4.08 0 0 0-.575-1.624c-.287-.382-.671-.669-1.149-.86s-1.054-.287-1.724-.287c-.479 0-1.054 0-1.628.096s-.958.096-1.245.191v13.943h-4.023l.096-16.713 2.969-.669c1.245-.191 2.586-.287 4.119-.287zM33.215 9.961l.671 3.247-18.487 22.92h-3.353L33.215 9.961zm1.341 6.494l1.341 5.921c.192.669 0 1.433-.479 2.006h0l-8.717 10.887c-.479.478-1.149.86-1.916.86h0-6.035l15.805-19.673zm17.72-6.208v15.185c.479-.573 1.054-1.146 1.628-1.719l1.724-1.815c.575-.573 1.054-1.242 1.628-1.815s.958-1.051 1.245-1.433h4.789l-3.544 3.82-3.927 4.298 7.854 9.359h-4.694l-6.705-8.022v8.022h-4.023V10.916l4.023-.669zM29.671 6.236l2.012.955c.096.096.192.096.287.191h0L9.269 35.555c0-.096-.096-.191-.192-.287h0L7.64 33.454 29.671 6.236zm61.303 15.758c-.383 0-.766 0-1.149.096-.383 0-.766.096-1.245.191v9.837c.383.191.862.478 1.437.669a6.03 6.03 0 0 0 1.82.287c1.437 0 2.49-.478 3.161-1.433.862-1.051 1.149-2.388 1.149-4.011 0-1.815-.383-3.152-1.245-4.202-.766-.955-2.107-1.433-3.927-1.433zM24.882 3.944l2.299 1.146L6.012 31.353l-1.628-2.006L24.882 3.944zm-7.759-2.77a2.69 2.69 0 0 1 2.107 0h0l3.257 1.624-7.184 8.977c-.287-.669-.766-1.242-1.341-1.719-2.012-1.719-4.885-1.337-6.609.669s-1.341 4.966.671 6.59c.575.478 1.245.764 1.916.955h0l-7.184 8.977-2.203-2.865c-.479-.573-.671-1.337-.479-2.006h0L3.234 8.815c.096-.287.192-.573.383-.86.287-.287.575-.573.958-.764h0zm56.131 20.724c-.575 0-1.149.096-1.628.382-.479.191-.862.573-1.149.955s-.575.764-.766 1.242-.287.955-.383 1.433l7.376-.096c0-.573-.096-1.051-.192-1.528-.192-.478-.383-.955-.671-1.242-.287-.382-.671-.669-1.054-.86s-.958-.287-1.533-.287zm-63.985-9.55c.766-.86 2.012-1.051 2.969-.287.958.669 1.054 2.006.287 2.961h0l-.113.118c-.772.757-1.944.896-2.857.168-.862-.764-1.054-2.006-.287-2.961z" transform="translate(10.56 8.32)"/></g></g></g></g><g class="C D"><path d="M285.045 93.807l-26.101.358 26.487-30.105 26.101 22.964-5.967 6.782z"/><path d="M302.286 78.931l8.113-9.21 1.973 1.738 2.938-3.335-1.973-1.738 5.009-5.687-12.531-11.037-4.298 4.879-4.763 1.674 1.851 1.632-.295.335-.051-.045-4.447 5.129 5.129 4.447.042-.048.087.077-4.145 4.706 7.361 6.483z"/></g><path d="M317.063 62.087l6.654-3.781-1.871-1.649.001-.002-10.639-9.37-3.743-3.299-2.91 7.079.07-.039 12.47 10.983-.032.078z" fill="#b8d2e5" class="C"/><path fill="#002c66" d="M240.475 38.623l5.434-9.323 39.497 34.781-6.997 7.946z" class="C"/><path stroke-width="1.12" d="M242.6 22.4h36.8v38.788l-8.386 8.412H242.6z" class="B F"/><path d="M270.6 69.6v-8.8h8.8z" class="E"/><g class="C"><path fill="#b8d2e5" d="M292.992 82.046l13.045.133-14.847-13.053z"/><path d="M292.992 82.046l9.312-3.149-7.38-6.49zm-34.006 15.56l52.548-.033-.007-10.588-47.535.031-.918-2.413-6.351 2.418h-.244l.02.086-1.495.568 3.779 9.932.185-.071.018.071zm-14.221-71.988l3.78 9.932-8.07 3.071-3.78-9.931z" fill="#002c66"/><path d="M237.771 31.52l8.071-3.072-.541-1.42-8.07 3.072.54 1.42zm1.06 2.787l8.071-3.072-.541-1.42-8.07 3.072.54 1.42zm1.097 2.879l8.026-3.055-.54-1.42-8.026 3.055.54 1.42z" class="B"/></g></g></svg>