<svg xmlns="http://www.w3.org/2000/svg" xmlns:xlink="http://www.w3.org/1999/xlink" width="396" height="396" xmlns:v="https://vecta.io/nano"><style><![CDATA[.B{fill:#fff}.C{fill-rule:nonzero}.D{fill:#006bb8}.E{fill:#b5cee0}.F{stroke:#7aafd5}.G{fill:#14ba5a}.H{stroke-width:1.529}.I{stroke-width:1.483}]]></style><defs><path d="M121.615 111H275a5 5 0 0 1 5 5v68a5 5 0 0 1-5 5H121.615a5 5 0 0 1-4.818-3.664L107 150l9.797-35.336a5 5 0 0 1 4.818-3.664z" id="A"/><filter x="-18.8%" y="-41.7%" width="145.7%" height="201.3%" id="B"><feOffset dx="7" dy="7" in="SourceAlpha"/><feGaussianBlur stdDeviation="12"/><feColorMatrix values="0 0 0 0 0.0352941176   0 0 0 0 0.2   0 0 0 0 0.31372549  0 0 0 0.15 0"/></filter><linearGradient x1="87.1768124%" y1="56.4172548%" x2="14.6396479%" y2="27.2739213%" id="C"><stop stop-color="#14ba5a" stop-opacity="0" offset="0%"/><stop stop-color="#14ba5a" offset="100%"/></linearGradient><linearGradient x1="78.3411479%" y1="50%" x2="14.7243746%" y2="27.2739213%" id="D"><stop stop-color="#de3737" stop-opacity="0" offset="0%"/><stop stop-color="#de3737" offset="100%"/></linearGradient><path d="M40.977 12.488l-.001 5.213 6.251 3.903 2.015 8.865H28.893l2.015-8.865 6.225-3.888v-5.228h3.844z" id="E"/><path d="M28.605 34.483l-1.939 35.316 25.314-.393-2.172-34.923H28.605z" id="F"/><path id="G" d="M0 0h43.448v22.176H0z"/><path id="H" d="M0 .176h43.448v22H0z"/><path d="M121.325 221H275a5 5 0 0 1 5 5v50a5 5 0 0 1-5 5H121.325a5 5 0 0 1-4.704-3.305L107 251l9.621-26.695a5 5 0 0 1 4.704-3.305z" id="I"/><filter x="-18.8%" y="-54.2%" width="145.7%" height="231.7%" id="J"><feOffset dx="7" dy="7" in="SourceAlpha"/><feGaussianBlur stdDeviation="12"/><feColorMatrix values="0 0 0 0 0.0352941176   0 0 0 0 0.2   0 0 0 0 0.31372549  0 0 0 0.15 0"/></filter><path id="K" d="M48 25.6h15.2v12H48z"/><path id="L" d="M10.4 40h15.2v12H10.4z"/><path id="M" d="M28 40h25.6v20H28z"/><circle id="N" cx="63.2" cy="50.4" r="16.8"/><path id="O" d="M17.6 15.2h28v22.4h-28z"/><path d="M121.325 313H275a5 5 0 0 1 5 5v50a5 5 0 0 1-5 5H121.325a5 5 0 0 1-4.704-3.305L107 343l9.621-26.695a5 5 0 0 1 4.704-3.305z" id="P"/><path id="Q" d="M0 0h42.145v21.511H0z"/><path id="R" d="M0 0h52v16.44H0z"/><path id="S" d="M.194 0h46v16.44h-46z"/><ellipse id="T" cx="26.941" cy="27.235" rx="26.014" ry="26.247"/><mask id="U" x="0" y="0" width="52.029" height="52.494" class="B"><use xlink:href="#T"/></mask><linearGradient x1="38.7734039%" y1="50%" x2="68.2615887%" y2="25.1426163%" id="V"><stop stop-color="#14ba5a" stop-opacity="0" offset="0%"/><stop stop-color="#14ba5a" offset="100%"/></linearGradient><circle id="W" cx="28.8" cy="28" r="28"/><filter x="-56.2%" y="-67.0%" width="212.5%" height="212.5%" id="X"><feOffset dy="-6" in="SourceAlpha"/><feGaussianBlur stdDeviation="9.5"/><feColorMatrix values="0 0 0 0 0   0 0 0 0 0.419607843   0 0 0 0 0.721568627  0 0 0 0.112543706 0"/></filter><path id="Y" d="M.32 0h53.76v55.68H.32z"/><path id="Z" d="M.048.164c2.997 0 5.654 1.43 7.347 3.638C9.087 1.594 11.744.164 14.741.164s5.654 1.43 7.346 3.638C23.779 1.594 26.436.164 29.433.164c3.021 0 5.696 1.453 7.386 3.691C38.51 1.617 41.185.164 44.206.164c2.944 0 5.56 1.377 7.256 3.519C53.159 1.541 55.777.164 58.72.164c3.016 0 5.688 1.449 7.378 3.681C67.789 1.613 70.461.164 73.477.164c3.028 0 5.708 1.459 7.397 3.706 1.69-2.247 4.37-3.706 7.398-3.706 2.997 0 5.654 1.43 7.346 3.638C97.31 1.594 99.966.164 102.964.164s5.654 1.43 7.346 3.638c1.693-2.208 4.35-3.638 7.347-3.638 3.021 0 5.696 1.453 7.386 3.691 1.69-2.238 4.365-3.691 7.386-3.691 2.944 0 5.56 1.377 7.257 3.519C141.382 1.541 144 .164 146.943.164c3.016 0 5.687 1.449 7.379 3.681 1.69-2.232 4.362-3.681 7.378-3.681 2.977 0 5.618 1.41 7.312 3.593 1.694-2.182 4.336-3.593 7.312-3.593 2.997 0 5.654 1.43 7.346 3.638 1.693-2.208 4.349-3.638 7.346-3.638s5.654 1.43 7.346 3.638c1.693-2.208 4.35-3.638 7.346-3.638 3.022 0 5.696 1.453 7.387 3.691 1.69-2.238 4.365-3.691 7.386-3.691 2.943 0 5.56 1.377 7.257 3.519 1.696-2.141 4.313-3.519 7.257-3.519 3.016 0 5.688 1.449 7.378 3.681 1.691-2.232 4.362-3.681 7.379-3.681"/><path id="a" d="M.047.159a8.96 8.96 0 0 1 7.126 3.529C8.814 1.546 11.392.159 14.299.159s5.484 1.387 7.126 3.529C23.066 1.546 25.643.159 28.55.159a8.96 8.96 0 0 1 7.165 3.581A8.96 8.96 0 0 1 42.881.159c2.855 0 5.394 1.336 7.039 3.413a8.96 8.96 0 0 1 7.04-3.413c2.925 0 5.517 1.405 7.157 3.571 1.64-2.165 4.231-3.571 7.157-3.571 2.937 0 5.536 1.415 7.175 3.595 1.639-2.18 4.239-3.595 7.176-3.595 2.907 0 5.484 1.387 7.126 3.529C94.391 1.546 96.968.159 99.875.159s5.484 1.387 7.126 3.529c1.642-2.142 4.219-3.529 7.126-3.529a8.96 8.96 0 0 1 7.165 3.581c1.639-2.171 4.234-3.581 7.165-3.581 2.855 0 5.394 1.336 7.039 3.413 1.645-2.077 4.184-3.413 7.039-3.413a8.96 8.96 0 0 1 7.157 3.571c1.64-2.165 4.231-3.571 7.156-3.571 2.887 0 5.45 1.368 7.093 3.485 1.643-2.117 4.206-3.485 7.093-3.485 2.907 0 5.484 1.387 7.126 3.529 1.642-2.142 4.219-3.529 7.126-3.529s5.484 1.387 7.126 3.529a8.96 8.96 0 0 1 14.291.052c1.639-2.171 4.234-3.581 7.165-3.581a8.96 8.96 0 0 1 7.039 3.413c1.645-2.077 4.184-3.413 7.039-3.413 2.926 0 5.517 1.405 7.157 3.571 1.64-2.165 4.231-3.571 7.157-3.571"/></defs><g transform="translate(58 3)" fill="none" fill-rule="evenodd"><g class="C"><path d="M18.095 11c.791 0 1.387-.035 1.787-.106s.75-.184 1.047-.341a3.59 3.59 0 0 0 1.527-1.534c.359-.676.538-1.466.538-2.369 0-.854-.157-1.608-.472-2.26a3.45 3.45 0 0 0-1.359-1.505c-.332-.205-.735-.352-1.208-.439s-1.221-.132-2.241-.132h0-1.809c-.327 0-.564.065-.71.194s-.22.336-.22.619c0 .264.068.464.205.601s.337.205.601.205h.125v5.464h-.125c-.264 0-.464.067-.601.201s-.205.331-.205.59c0 .293.071.502.212.626s.381.187.718.187h2.19zm.117-1.604h-.417V3.903l.165-.011.267-.004c.898 0 1.571.227 2.018.681s.67 1.143.67 2.065c0 .938-.22 1.632-.659 2.084s-1.121.677-2.043.677h0zm9.917 1.787c1.001 0 1.841-.166 2.52-.498s1.018-.728 1.018-1.187c0-.21-.057-.382-.172-.516s-.262-.201-.443-.201c-.122 0-.479.148-1.069.443s-1.189.443-1.794.443-1.09-.134-1.454-.403-.609-.674-.736-1.216h4.724c.435 0 .721-.054.861-.161s.209-.305.209-.593c0-.903-.347-1.666-1.04-2.289s-1.567-.934-2.622-.934c-1.182 0-2.142.332-2.882.996s-1.11 1.516-1.11 2.556.37 1.899 1.11 2.563 1.7.996 2.882.996zm1.816-4.277h-3.948c.127-.479.353-.836.677-1.073s.753-.355 1.285-.355c.552 0 1 .125 1.344.374a1.6 1.6 0 0 1 .641 1.055h0zm7.185 4.277c.957 0 1.783-.181 2.479-.542s1.044-.771 1.044-1.23c0-.21-.06-.385-.179-.524a.57.57 0 0 0-.45-.209c-.127 0-.475.16-1.044.48s-1.141.48-1.718.48c-.635 0-1.14-.186-1.516-.557s-.564-.862-.564-1.472c0-.581.182-1.058.546-1.432s.831-.56 1.403-.56c.459 0 .847.079 1.165.238a1.84 1.84 0 0 1 .769.736c.137.234.266.393.388.476a.79.79 0 0 0 .454.125c.254 0 .442-.071.564-.212s.183-.361.183-.659h0V5.119c0-.391-.056-.665-.168-.824s-.3-.238-.564-.238c-.195 0-.355.048-.48.143s-.216.238-.275.428c-.352-.195-.706-.339-1.062-.432s-.723-.139-1.099-.139c-1.113 0-2.036.339-2.769 1.018s-1.099 1.528-1.099 2.549c0 1.045.37 1.899 1.11 2.563s1.7.996 2.882.996zM48.469 11c.332 0 .568-.063.707-.19s.209-.334.209-.623-.068-.486-.205-.608-.374-.183-.71-.183h0-1.575V1.728c0-.098-.038-.175-.114-.231s-.182-.084-.319-.084h0-2.19c-.337 0-.576.063-.718.19s-.212.334-.212.623.072.49.216.619.382.194.714.194h.806v6.357h-1.575c-.337 0-.573.06-.707.179s-.201.323-.201.612.07.496.209.623.372.19.699.19h4.966zm5.317.183a4.6 4.6 0 0 0 1.377-.212 5.04 5.04 0 0 0 1.289-.615c.078.244.177.413.297.505s.302.139.546.139h.688c.332 0 .57-.062.714-.187s.216-.328.216-.612c0-.259-.07-.458-.209-.597s-.341-.209-.604-.209h0-.117V6.679c0-.957-.225-1.636-.674-2.036s-1.194-.601-2.234-.601c-.996 0-1.783.116-2.362.348s-.868.546-.868.941c0 .22.071.397.212.531s.327.201.557.201.602-.12 1.102-.359.912-.359 1.234-.359c.415 0 .729.115.941.344s.319.564.319 1.003h0v.139l-.886-.117-.747-.037c-1.05 0-1.865.203-2.446.608s-.872.974-.872 1.707c0 .679.225 1.213.674 1.604s1.067.586 1.853.586zm.593-1.472c-.366 0-.647-.074-.842-.223s-.293-.365-.293-.648c0-.317.153-.566.458-.747s.726-.271 1.263-.271a4.42 4.42 0 0 1 .571.04l.674.121V9.11a3.28 3.28 0 0 1-.879.454c-.298.098-.615.146-.952.146zM65.395 11c.332 0 .568-.063.707-.19s.209-.334.209-.623-.07-.486-.209-.608-.375-.183-.707-.183h0-1.729V7.023c.435-.439.811-.764 1.128-.974s.593-.315.828-.315c.117 0 .326.081.626.242s.56.242.78.242c.308 0 .559-.092.754-.275s.293-.416.293-.699c0-.366-.142-.658-.425-.875s-.667-.326-1.15-.326a3.14 3.14 0 0 0-1.49.366c-.461.244-.958.652-1.49 1.223h0V4.547c0-.098-.037-.175-.11-.231s-.176-.084-.308-.084h0-1.56c-.342 0-.58.061-.714.183s-.201.327-.201.615.07.494.209.619.375.187.707.187h.315v3.56h-.557c-.342 0-.582.061-.721.183s-.209.325-.209.608.071.496.212.623.381.19.718.19h4.094zm6.394.183a4.6 4.6 0 0 0 1.377-.212 5.04 5.04 0 0 0 1.289-.615c.078.244.177.413.297.505s.302.139.546.139h.688c.332 0 .57-.062.714-.187s.216-.328.216-.612c0-.259-.07-.458-.209-.597s-.341-.209-.604-.209h0-.117V6.679c0-.957-.225-1.636-.674-2.036s-1.194-.601-2.234-.601c-.996 0-1.783.116-2.362.348s-.868.546-.868.941c0 .22.071.397.212.531s.327.201.557.201.602-.12 1.102-.359.912-.359 1.234-.359c.415 0 .729.115.941.344s.319.564.319 1.003h0v.139l-.886-.117-.747-.037c-1.05 0-1.865.203-2.446.608s-.872.974-.872 1.707c0 .679.225 1.213.674 1.604s1.067.586 1.853.586zm.593-1.472c-.366 0-.647-.074-.842-.223s-.293-.365-.293-.648c0-.317.153-.566.458-.747s.726-.271 1.263-.271a4.42 4.42 0 0 1 .571.04l.674.121V9.11a3.28 3.28 0 0 1-.879.454c-.298.098-.615.146-.952.146zm9.983 1.436c.864 0 1.637-.155 2.318-.465s1.022-.653 1.022-1.029c0-.225-.072-.416-.216-.575s-.316-.238-.516-.238c-.176 0-.522.11-1.04.33s-.967.33-1.348.33c-.405 0-.688-.098-.85-.293s-.242-.557-.242-1.084h0V6.247h2.234c.332 0 .57-.063.714-.19s.216-.334.216-.623-.071-.486-.212-.608-.381-.183-.718-.183h0-2.234V2.929c0-.337-.07-.574-.209-.71s-.37-.205-.692-.205-.553.068-.692.205-.209.374-.209.71h0v1.714h-.688c-.337 0-.574.06-.71.179s-.205.323-.205.612.07.496.209.623.375.19.707.19h.688v2.036c0 .64.034 1.096.103 1.37s.183.508.344.703c.22.254.52.449.901.586s.823.205 1.326.205zm8.591-7.932c.391 0 .638-.06.743-.179s.157-.428.157-.927c0-.518-.059-.845-.176-.981s-.354-.205-.71-.205c-.386 0-.635.085-.747.256s-.168.569-.168 1.194c0 .337.055.562.165.674s.355.168.736.168zM93.601 11c.332 0 .57-.063.714-.19s.216-.334.216-.623-.071-.486-.212-.608-.381-.183-.718-.183h0-1.575V4.547c0-.098-.037-.175-.11-.231s-.178-.084-.315-.084h0-2.205c-.337 0-.574.061-.71.183s-.205.327-.205.615.071.494.212.619.376.187.703.187h.828v3.56H88.65c-.342 0-.582.061-.721.183s-.209.325-.209.608.072.496.216.623.382.19.714.19h4.951zm6.328.183c.269 0 .468-.038.597-.114s.275-.28.436-.612h0l2.175-4.622h.125c.264 0 .464-.068.601-.205s.205-.337.205-.601c0-.283-.07-.487-.209-.612s-.38-.187-.721-.187h0-1.721c-.342 0-.582.061-.721.183s-.209.327-.209.615c0 .264.07.464.209.601s.341.205.604.205h.117l-1.384 3.12-1.318-3.12h.125c.259 0 .458-.068.597-.205s.209-.337.209-.601c0-.283-.071-.487-.212-.612s-.381-.187-.718-.187h0-1.86c-.337 0-.576.061-.718.183s-.212.327-.212.615c0 .264.07.464.209.601s.341.205.604.205h.117l2.043 4.622.044.11c.171.41.5.615.989.615zm9.214 0c1.001 0 1.841-.166 2.52-.498s1.018-.728 1.018-1.187c0-.21-.057-.382-.172-.516s-.262-.201-.443-.201c-.122 0-.479.148-1.069.443s-1.189.443-1.794.443-1.09-.134-1.454-.403-.609-.674-.736-1.216h4.724c.435 0 .721-.054.861-.161s.209-.305.209-.593c0-.903-.347-1.666-1.04-2.289s-1.567-.934-2.622-.934c-1.182 0-2.142.332-2.882.996s-1.11 1.516-1.11 2.556.37 1.899 1.11 2.563 1.7.996 2.882.996zm1.816-4.277h-3.948c.127-.479.353-.836.677-1.073s.753-.355 1.285-.355c.552 0 1 .125 1.344.374a1.6 1.6 0 0 1 .641 1.055h0zM19.128 29.183c1.001 0 1.841-.166 2.52-.498s1.018-.728 1.018-1.187c0-.21-.057-.382-.172-.516s-.262-.201-.443-.201c-.122 0-.479.148-1.069.443s-1.189.443-1.794.443-1.09-.134-1.454-.403-.609-.674-.736-1.216h4.724c.435 0 .721-.054.861-.161s.209-.305.209-.593c0-.903-.347-1.666-1.04-2.289s-1.567-.934-2.622-.934c-1.182 0-2.142.332-2.882.996s-1.11 1.516-1.11 2.556.37 1.899 1.11 2.563 1.7.996 2.882.996zm1.816-4.277h-3.948c.127-.479.353-.836.677-1.073s.753-.355 1.285-.355c.552 0 1 .125 1.344.374a1.6 1.6 0 0 1 .641 1.055h0zM26.826 29c.327 0 .562-.063.703-.19s.212-.334.212-.623c0-.269-.068-.47-.205-.604s-.344-.201-.623-.201h0-.088v-2.117c0-.488.128-.88.385-1.176s.587-.443.992-.443c.381 0 .653.123.817.37s.245.663.245 1.249h0v2.117h-.088c-.278 0-.487.067-.626.201s-.209.336-.209.604c0 .288.072.496.216.623s.38.19.707.19h1.802c.332 0 .568-.063.707-.19s.209-.334.209-.623c0-.269-.068-.47-.205-.604s-.342-.201-.615-.201h0-.095v-2.446c0-.972-.192-1.694-.575-2.168s-.966-.71-1.747-.71c-.459 0-.863.089-1.212.267s-.636.443-.861.795h0v-.571c0-.103-.035-.181-.106-.234s-.175-.081-.311-.081h0-1.245c-.337 0-.576.063-.718.19s-.212.334-.212.623c0 .259.068.455.205.59s.337.201.601.201h.125v3.545h-.088c-.278 0-.486.067-.623.201s-.205.336-.205.604c0 .288.071.496.212.623s.376.19.703.19h1.816zm10.093.183c.269 0 .468-.038.597-.114s.275-.28.436-.612h0l2.175-4.622h.125c.264 0 .464-.068.601-.205s.205-.337.205-.601c0-.283-.07-.487-.209-.612s-.38-.187-.721-.187h0-1.721c-.342 0-.582.061-.721.183s-.209.327-.209.615c0 .264.07.464.209.601s.341.205.604.205h.117l-1.384 3.12-1.318-3.12h.125c.259 0 .458-.068.597-.205s.209-.337.209-.601c0-.283-.071-.487-.212-.612s-.381-.187-.718-.187h0-1.86c-.337 0-.576.061-.718.183s-.212.327-.212.615c0 .264.07.464.209.601s.341.205.604.205h.117l2.043 4.622.044.11c.171.41.5.615.989.615zm9.031-7.969c.391 0 .638-.06.743-.179s.157-.428.157-.927c0-.518-.059-.845-.176-.981s-.354-.205-.71-.205c-.386 0-.635.085-.747.256s-.168.569-.168 1.194c0 .337.055.562.165.674s.355.168.736.168zM48.594 29c.332 0 .57-.063.714-.19s.216-.334.216-.623-.071-.486-.212-.608-.381-.183-.718-.183h0-1.575v-4.849c0-.098-.037-.175-.11-.231s-.178-.084-.315-.084h0-2.205c-.337 0-.574.061-.71.183s-.205.327-.205.615.071.494.212.619.376.187.703.187h.828v3.56h-1.575c-.342 0-.582.061-.721.183s-.209.325-.209.608.072.496.216.623.382.19.714.19h4.951zm7.8 0c.332 0 .568-.063.707-.19s.209-.334.209-.623-.07-.486-.209-.608-.375-.183-.707-.183h0-1.729v-2.373c.435-.439.811-.764 1.128-.974s.593-.315.828-.315c.117 0 .326.081.626.242s.56.242.78.242c.308 0 .559-.092.754-.275s.293-.416.293-.699c0-.366-.142-.658-.425-.875s-.667-.326-1.15-.326a3.14 3.14 0 0 0-1.49.366c-.461.244-.958.652-1.49 1.223h0v-1.084c0-.098-.037-.175-.11-.231s-.176-.084-.308-.084h0-1.56c-.342 0-.58.061-.714.183s-.201.327-.201.615.07.494.209.619.375.187.707.187h.315v3.56H52.3c-.342 0-.582.061-.721.183s-.209.325-.209.608.071.496.212.623.381.19.718.19h4.094zm7.603.183c1.187 0 2.148-.332 2.886-.996s1.106-1.519 1.106-2.563-.369-1.892-1.106-2.556-1.699-.996-2.886-.996c-1.177 0-2.135.332-2.875.996s-1.11 1.516-1.11 2.556.369 1.899 1.106 2.563 1.697.996 2.878.996zm0-1.545c-.571 0-1.041-.192-1.41-.575s-.553-.868-.553-1.454.184-1.058.553-1.432.839-.56 1.41-.56 1.049.187 1.417.56.553.851.553 1.432-.186 1.071-.557 1.454-.842.575-1.414.575zM71.833 29c.327 0 .562-.063.703-.19s.212-.334.212-.623c0-.269-.068-.47-.205-.604s-.344-.201-.623-.201h0-.088v-2.117c0-.488.128-.88.385-1.176s.587-.443.992-.443c.381 0 .653.123.817.37s.245.663.245 1.249h0v2.117h-.088c-.278 0-.487.067-.626.201s-.209.336-.209.604c0 .288.072.496.216.623s.38.19.707.19h1.802c.332 0 .568-.063.707-.19s.209-.334.209-.623c0-.269-.068-.47-.205-.604s-.342-.201-.615-.201h0-.095v-2.446c0-.972-.192-1.694-.575-2.168s-.966-.71-1.747-.71c-.459 0-.863.089-1.212.267s-.636.443-.861.795h0v-.571c0-.103-.035-.181-.106-.234s-.175-.081-.311-.081h0-1.245c-.337 0-.576.063-.718.19s-.212.334-.212.623c0 .259.068.455.205.59s.337.201.601.201h.125v3.545h-.088c-.278 0-.486.067-.623.201s-.205.336-.205.604c0 .288.071.496.212.623s.376.19.703.19h1.816zm8.005 0c.288 0 .493-.062.615-.187s.183-.333.183-.626c0-.264-.057-.461-.172-.593s-.287-.198-.516-.198h0-.11v-2.563c0-.4.07-.71.209-.93s.331-.33.575-.33a.48.48 0 0 1 .439.242c.098.161.146.405.146.732h0v4.138c0 .098.039.175.117.231s.183.084.315.084h1.245c.288 0 .493-.062.615-.187s.183-.333.183-.626c0-.259-.059-.455-.176-.59s-.288-.201-.513-.201h0-.11v-2.563c0-.405.067-.717.201-.934s.323-.326.568-.326c.195 0 .344.081.447.242s.154.405.154.732h0v4.138c0 .098.037.175.11.231s.176.084.308.084h1.245c.288 0 .492-.062.612-.187s.179-.333.179-.626c0-.259-.057-.455-.172-.59s-.287-.201-.516-.201h0-.103V24.62c0-.923-.146-1.581-.439-1.974s-.771-.59-1.436-.59c-.308 0-.596.057-.864.172s-.505.282-.71.502c-.156-.229-.339-.399-.549-.509s-.457-.165-.74-.165c-.312 0-.596.065-.85.194s-.471.319-.652.568c0-.229-.035-.385-.106-.465s-.206-.121-.406-.121h0-.989c-.288 0-.494.062-.619.187s-.187.328-.187.612c0 .259.06.458.179.597s.294.209.524.209h.103v3.56h-.103c-.229 0-.402.067-.516.201s-.172.331-.172.59c0 .288.061.496.183.623s.325.19.608.19h1.663zm11.301.183c1.001 0 1.841-.166 2.52-.498s1.018-.728 1.018-1.187c0-.21-.057-.382-.172-.516s-.262-.201-.443-.201c-.122 0-.479.148-1.069.443s-1.189.443-1.794.443-1.09-.134-1.454-.403-.609-.674-.736-1.216h4.724c.435 0 .721-.054.861-.161s.209-.305.209-.593c0-.903-.347-1.666-1.04-2.289s-1.567-.934-2.622-.934c-1.182 0-2.142.332-2.882.996s-1.11 1.516-1.11 2.556.37 1.899 1.11 2.563 1.7.996 2.882.996zm1.816-4.277h-3.948c.127-.479.353-.836.677-1.073s.753-.355 1.285-.355c.552 0 1 .125 1.344.374a1.6 1.6 0 0 1 .641 1.055h0zM98.838 29c.327 0 .562-.063.703-.19s.212-.334.212-.623c0-.269-.068-.47-.205-.604s-.344-.201-.623-.201h0-.088v-2.117c0-.488.128-.88.385-1.176s.587-.443.992-.443c.381 0 .653.123.817.37s.245.663.245 1.249h0v2.117h-.088c-.278 0-.487.067-.626.201s-.209.336-.209.604c0 .288.072.496.216.623s.38.19.707.19h1.802c.332 0 .568-.063.707-.19s.209-.334.209-.623c0-.269-.068-.47-.205-.604s-.342-.201-.615-.201h0-.095v-2.446c0-.972-.192-1.694-.575-2.168s-.966-.71-1.747-.71c-.459 0-.863.089-1.212.267s-.636.443-.861.795h0v-.571c0-.103-.035-.181-.106-.234s-.175-.081-.311-.081h0-1.245c-.337 0-.576.063-.718.19s-.212.334-.212.623c0 .259.068.455.205.59s.337.201.601.201h.125v3.545h-.088c-.278 0-.486.067-.623.201s-.205.336-.205.604c0 .288.071.496.212.623s.376.19.703.19h1.816zm10.532.146c.864 0 1.637-.155 2.318-.465s1.022-.653 1.022-1.029c0-.225-.072-.416-.216-.575s-.316-.238-.516-.238c-.176 0-.522.11-1.04.33s-.967.33-1.348.33c-.405 0-.688-.098-.85-.293s-.242-.557-.242-1.084h0v-1.875h2.234c.332 0 .57-.063.714-.19s.216-.334.216-.623-.071-.486-.212-.608-.381-.183-.718-.183h0-2.234v-1.714c0-.337-.07-.574-.209-.71s-.37-.205-.692-.205-.553.068-.692.205-.209.374-.209.71h0v1.714h-.688c-.337 0-.574.06-.71.179s-.205.323-.205.612.07.496.209.623.375.19.707.19h.688v2.036c0 .64.034 1.096.103 1.37s.183.508.344.703c.22.254.52.449.901.586s.823.205 1.326.205zM18.359 47.183c.469 0 .891-.087 1.267-.26s.684-.424.923-.751h0v.513c0 .098.038.175.114.231a.54.54 0 0 0 .326.084h1.121c.332 0 .568-.063.707-.19s.209-.334.209-.623c0-.259-.066-.455-.198-.59s-.33-.201-.593-.201h0-.125v-7.5c0-.186-.031-.312-.092-.381s-.175-.103-.341-.103h0-2.278c-.337 0-.576.063-.718.19s-.212.334-.212.623.071.49.212.619.381.194.718.194h.974v1.853c-.273-.21-.575-.372-.905-.487s-.668-.172-1.014-.172c-1.006 0-1.835.334-2.487 1.003s-.978 1.511-.978 2.527c0 .977.322 1.791.967 2.443s1.445.978 2.402.978zm.315-1.56a1.51 1.51 0 0 1-1.194-.538c-.312-.359-.469-.822-.469-1.388 0-.552.157-1.007.472-1.366s.712-.538 1.19-.538a1.52 1.52 0 0 1 1.194.542c.317.361.476.815.476 1.362 0 .562-.157 1.023-.472 1.384a1.52 1.52 0 0 1-1.198.542zm9.456 1.56c1.001 0 1.841-.166 2.52-.498s1.018-.728 1.018-1.187c0-.21-.057-.382-.172-.516s-.262-.201-.443-.201c-.122 0-.479.148-1.069.443s-1.189.443-1.794.443-1.09-.134-1.454-.403-.609-.674-.736-1.216h4.724c.435 0 .721-.054.861-.161s.209-.305.209-.593c0-.903-.347-1.666-1.04-2.289s-1.567-.934-2.622-.934c-1.182 0-2.142.332-2.882.996s-1.11 1.516-1.11 2.556.37 1.899 1.11 2.563 1.7.996 2.882.996zm1.816-4.277h-3.948c.127-.479.353-.836.677-1.073s.753-.355 1.285-.355c.552 0 1 .125 1.344.374a1.6 1.6 0 0 1 .641 1.055h0zm7.288 4.292c1.001 0 1.774-.201 2.318-.604s.817-.973.817-1.71c0-.63-.206-1.105-.619-1.425s-1.171-.56-2.274-.721l-.601-.073c-.879-.117-1.318-.347-1.318-.688 0-.22.105-.392.315-.516s.505-.187.886-.187c.488 0 .975.175 1.461.524s.829.524 1.029.524.347-.057.454-.172.161-.277.161-.487h0v-.901c0-.249-.052-.436-.157-.56s-.258-.187-.458-.187c-.142 0-.27.029-.385.088s-.223.149-.326.271a7.32 7.32 0 0 0-1.029-.238 6.45 6.45 0 0 0-.978-.077c-.923 0-1.633.188-2.131.564s-.747.908-.747 1.597c0 .581.208 1.044.623 1.388s1.047.575 1.897.692l.586.081c1.128.151 1.692.425 1.692.82 0 .22-.105.398-.315.535s-.491.205-.842.205c-.405 0-.767-.054-1.084-.161s-.596-.269-.835-.483c-.073-.073-.164-.186-.271-.337-.181-.278-.415-.417-.703-.417-.264 0-.449.067-.557.201s-.161.363-.161.685h0v.974c0 .308.043.518.128.63s.233.168.443.168a1.15 1.15 0 0 0 .414-.077 1.55 1.55 0 0 0 .392-.223c.337.098.686.172 1.047.223s.737.077 1.128.077zm8.899-.015c.957 0 1.783-.181 2.479-.542s1.044-.771 1.044-1.23c0-.21-.06-.385-.179-.524a.57.57 0 0 0-.45-.209c-.127 0-.475.16-1.044.48s-1.141.48-1.718.48c-.635 0-1.14-.186-1.516-.557s-.564-.862-.564-1.472c0-.581.182-1.058.546-1.432s.831-.56 1.403-.56c.459 0 .847.079 1.165.238a1.84 1.84 0 0 1 .769.736c.137.234.266.393.388.476a.79.79 0 0 0 .454.125c.254 0 .442-.071.564-.212s.183-.361.183-.659h0v-1.201c0-.391-.056-.665-.168-.824s-.3-.238-.564-.238c-.195 0-.355.048-.48.143s-.216.238-.275.428c-.352-.195-.706-.339-1.062-.432s-.723-.139-1.099-.139c-1.113 0-2.036.339-2.769 1.018s-1.099 1.528-1.099 2.549c0 1.045.37 1.899 1.11 2.563s1.7.996 2.882.996zM56.394 47c.332 0 .568-.063.707-.19s.209-.334.209-.623-.07-.486-.209-.608-.375-.183-.707-.183h0-1.729v-2.373c.435-.439.811-.764 1.128-.974s.593-.315.828-.315c.117 0 .326.081.626.242s.56.242.78.242c.308 0 .559-.092.754-.275s.293-.416.293-.699c0-.366-.142-.658-.425-.875s-.667-.326-1.15-.326a3.14 3.14 0 0 0-1.49.366c-.461.244-.958.652-1.49 1.223h0v-1.084c0-.098-.037-.175-.11-.231s-.176-.084-.308-.084h0-1.56c-.342 0-.58.061-.714.183s-.201.327-.201.615.07.494.209.619.375.187.707.187h.315v3.56H52.3c-.342 0-.582.061-.721.183s-.209.325-.209.608.071.496.212.623.381.19.718.19h4.094zm7.559-7.786c.391 0 .638-.06.743-.179s.157-.428.157-.927c0-.518-.059-.845-.176-.981s-.354-.205-.71-.205c-.386 0-.635.085-.747.256s-.168.569-.168 1.194c0 .337.055.562.165.674s.355.168.736.168zM66.596 47c.332 0 .57-.063.714-.19s.216-.334.216-.623-.071-.486-.212-.608-.381-.183-.718-.183h0-1.575v-4.849c0-.098-.037-.175-.11-.231s-.178-.084-.315-.084h0-2.205c-.337 0-.574.061-.71.183s-.205.327-.205.615.071.494.212.619.376.187.703.187h.828v3.56h-1.575c-.342 0-.582.061-.721.183s-.209.325-.209.608.072.496.216.623.382.19.714.19h4.951zm5.94 2.908c.337 0 .576-.061.718-.183s.212-.325.212-.608-.072-.496-.216-.623-.382-.19-.714-.19h0-.93v-1.992a2.66 2.66 0 0 0 .897.48 3.63 3.63 0 0 0 1.11.165c.972 0 1.777-.333 2.417-1s.959-1.508.959-2.523c0-.972-.33-1.777-.989-2.417s-1.489-.959-2.49-.959c-.444 0-.844.084-1.198.253s-.656.419-.905.751h0v-.527c0-.098-.034-.172-.103-.223s-.173-.077-.315-.077h0-1.128c-.337 0-.574.061-.71.183s-.205.327-.205.615c0 .264.068.464.205.601s.334.205.593.205h.117v6.467h-.432c-.332 0-.568.063-.707.19s-.209.334-.209.623.068.492.205.612.374.179.71.179h3.105zm.762-4.482c-.483 0-.881-.178-1.194-.535s-.469-.813-.469-1.37.156-1.013.469-1.37.71-.535 1.194-.535.889.178 1.201.535.469.813.469 1.37-.157 1.007-.472 1.366-.714.538-1.198.538zm9.067 1.721c.864 0 1.637-.155 2.318-.465s1.022-.653 1.022-1.029c0-.225-.072-.416-.216-.575s-.316-.238-.516-.238c-.176 0-.522.11-1.04.33s-.967.33-1.348.33c-.405 0-.688-.098-.85-.293s-.242-.557-.242-1.084h0v-1.875h2.234c.332 0 .57-.063.714-.19s.216-.334.216-.623-.071-.486-.212-.608-.381-.183-.718-.183h0-2.234v-1.714c0-.337-.07-.574-.209-.71s-.37-.205-.692-.205-.553.068-.692.205-.209.374-.209.71h0v1.714h-.688c-.337 0-.574.06-.71.179s-.205.323-.205.612.07.496.209.623.375.19.707.19h.688v2.036c0 .64.034 1.096.103 1.37s.183.508.344.703c.22.254.52.449.901.586s.823.205 1.326.205zm8.591-7.932c.391 0 .638-.06.743-.179s.157-.428.157-.927c0-.518-.059-.845-.176-.981s-.354-.205-.71-.205c-.386 0-.635.085-.747.256s-.168.569-.168 1.194c0 .337.055.562.165.674s.355.168.736.168zM93.601 47c.332 0 .57-.063.714-.19s.216-.334.216-.623-.071-.486-.212-.608-.381-.183-.718-.183h0-1.575v-4.849c0-.098-.037-.175-.11-.231s-.178-.084-.315-.084h0-2.205c-.337 0-.574.061-.71.183s-.205.327-.205.615.071.494.212.619.376.187.703.187h.828v3.56H88.65c-.342 0-.582.061-.721.183s-.209.325-.209.608.072.496.216.623.382.19.714.19h4.951zm6.401.183c1.187 0 2.148-.332 2.886-.996s1.106-1.519 1.106-2.563-.369-1.892-1.106-2.556-1.699-.996-2.886-.996c-1.177 0-2.135.332-2.875.996s-1.11 1.516-1.11 2.556.369 1.899 1.106 2.563 1.697.996 2.878.996zm0-1.545c-.571 0-1.041-.192-1.41-.575s-.553-.868-.553-1.454.184-1.058.553-1.432.839-.56 1.41-.56 1.049.187 1.417.56.553.851.553 1.432-.186 1.071-.557 1.454-.842.575-1.414.575zM107.839 47c.327 0 .562-.063.703-.19s.212-.334.212-.623c0-.269-.068-.47-.205-.604s-.344-.201-.623-.201h0-.088v-2.117c0-.488.128-.88.385-1.176s.587-.443.992-.443c.381 0 .653.123.817.37s.245.663.245 1.249h0v2.117h-.088c-.278 0-.487.067-.626.201s-.209.336-.209.604c0 .288.072.496.216.623s.38.19.707.19h1.802c.332 0 .568-.063.707-.19s.209-.334.209-.623c0-.269-.068-.47-.205-.604s-.342-.201-.615-.201h0-.095v-2.446c0-.972-.192-1.694-.575-2.168s-.966-.71-1.747-.71c-.459 0-.863.089-1.212.267s-.636.443-.861.795h0v-.571c0-.103-.035-.181-.106-.234s-.175-.081-.311-.081h0-1.245c-.337 0-.576.063-.718.19s-.212.334-.212.623c0 .259.068.455.205.59s.337.201.601.201h.125v3.545h-.088c-.278 0-.486.067-.623.201s-.205.336-.205.604c0 .288.071.496.212.623s.376.19.703.19h1.816zM31.283 65.183a4.6 4.6 0 0 0 1.377-.212 5.04 5.04 0 0 0 1.289-.615c.078.244.177.413.297.505s.302.139.546.139h.688c.332 0 .57-.062.714-.187s.216-.328.216-.612c0-.259-.07-.458-.209-.597s-.341-.209-.604-.209h0-.117v-2.717c0-.957-.225-1.636-.674-2.036s-1.194-.601-2.234-.601c-.996 0-1.783.116-2.362.348s-.868.546-.868.941c0 .22.071.397.212.531s.327.201.557.201.602-.12 1.102-.359.912-.359 1.234-.359c.415 0 .729.115.941.344s.319.564.319 1.003h0v.139l-.886-.117-.747-.037c-1.05 0-1.865.203-2.446.608s-.872.974-.872 1.707c0 .679.225 1.213.674 1.604s1.067.586 1.853.586zm.593-1.472c-.366 0-.647-.074-.842-.223s-.293-.365-.293-.648c0-.317.153-.566.458-.747s.726-.271 1.263-.271a4.42 4.42 0 0 1 .571.04l.674.121v1.128a3.28 3.28 0 0 1-.879.454c-.298.098-.615.146-.952.146zM40.328 65c.327 0 .562-.063.703-.19s.212-.334.212-.623c0-.269-.068-.47-.205-.604s-.344-.201-.623-.201h0-.088v-2.117c0-.488.128-.88.385-1.176s.587-.443.992-.443c.381 0 .653.123.817.37s.245.663.245 1.249h0v2.117h-.088c-.278 0-.487.067-.626.201s-.209.336-.209.604c0 .288.072.496.216.623s.38.19.707.19h1.802c.332 0 .568-.063.707-.19s.209-.334.209-.623c0-.269-.068-.47-.205-.604s-.342-.201-.615-.201h0-.095v-2.446c0-.972-.192-1.694-.575-2.168s-.966-.71-1.747-.71c-.459 0-.863.089-1.212.267s-.636.443-.861.795h0v-.571c0-.103-.035-.181-.106-.234s-.175-.081-.311-.081h0-1.245c-.337 0-.576.063-.718.19s-.212.334-.212.623c0 .259.068.455.205.59s.337.201.601.201h.125v3.545h-.088c-.278 0-.486.067-.623.201s-.205.336-.205.604c0 .288.071.496.212.623s.376.19.703.19h1.816zm9.536.183c.469 0 .891-.087 1.267-.26s.684-.424.923-.751h0v.513c0 .098.038.175.114.231a.54.54 0 0 0 .326.084h1.121c.332 0 .568-.063.707-.19s.209-.334.209-.623c0-.259-.066-.455-.198-.59s-.33-.201-.593-.201h0-.125v-7.5c0-.186-.031-.312-.092-.381s-.175-.103-.341-.103h0-2.278c-.337 0-.576.063-.718.19s-.212.334-.212.623.071.49.212.619.381.194.718.194h.974v1.853c-.273-.21-.575-.372-.905-.487s-.668-.172-1.014-.172c-1.006 0-1.835.334-2.487 1.003s-.978 1.511-.978 2.527c0 .977.322 1.791.967 2.443s1.445.978 2.402.978zm.315-1.56a1.51 1.51 0 0 1-1.194-.538c-.312-.359-.469-.822-.469-1.388 0-.552.157-1.007.472-1.366s.712-.538 1.19-.538a1.52 1.52 0 0 1 1.194.542c.317.361.476.815.476 1.362 0 .562-.157 1.023-.472 1.384a1.52 1.52 0 0 1-1.198.542zm18.428 1.604c1.138 0 2.012-.243 2.622-.729s.916-1.178.916-2.076c0-.728-.21-1.301-.63-1.721s-1.099-.732-2.036-.937l-.498-.103c-1.24-.259-1.86-.613-1.86-1.062 0-.317.135-.577.406-.78s.626-.304 1.066-.304c.352 0 .657.077.916.231s.464.382.615.685l.059.132c.171.371.43.557.776.557.273 0 .468-.057.582-.172s.172-.316.172-.604h0v-.081l-.029-1.406c-.01-.312-.055-.521-.135-.626s-.262-.157-.546-.157c-.19 0-.332.029-.425.088s-.176.166-.249.322c-.317-.137-.636-.239-.956-.308s-.646-.103-.978-.103c-.996 0-1.808.265-2.435.795s-.941 1.212-.941 2.047c0 .649.183 1.161.549 1.534s1.023.685 1.97.934l.798.198c1.128.269 1.692.664 1.692 1.187 0 .337-.125.598-.374.784s-.598.278-1.047.278c-.493 0-.909-.093-1.249-.278s-.604-.466-.795-.842l-.117-.256c-.215-.459-.481-.688-.798-.688-.298 0-.507.063-.626.19s-.179.352-.179.674h0v.081l.029 1.721c.005.298.068.505.19.623s.337.176.645.176c.181 0 .322-.028.425-.084a.75.75 0 0 0 .271-.275 5.5 5.5 0 0 0 1.014.271c.349.059.746.088 1.19.088zM80.846 65c.308 0 .513-.044.615-.132s.154-.264.154-.527h0v-2.249c0-.332-.063-.57-.19-.714s-.33-.216-.608-.216-.477.071-.597.212-.179.381-.179.718h0v1.304h-3.333v-5.464h.63c.317 0 .547-.063.688-.19s.212-.332.212-.615-.072-.49-.216-.619-.372-.194-.685-.194h0-3.12c-.312 0-.541.065-.685.194s-.216.336-.216.619.068.488.205.615.364.19.681.19h.645v5.464h-.645c-.322 0-.551.061-.685.183s-.201.325-.201.608.068.496.205.623.364.19.681.19h6.643zm5.654.227c1.211 0 2.202-.427 2.974-1.282s1.157-1.953 1.157-3.296c0-1.333-.388-2.429-1.165-3.289s-1.765-1.289-2.966-1.289c-1.211 0-2.203.428-2.977 1.285s-1.161 1.954-1.161 3.292c0 1.328.391 2.423 1.172 3.285s1.77 1.293 2.966 1.293zm0-1.685c-.625 0-1.118-.256-1.479-.769s-.542-1.221-.542-2.124.179-1.609.538-2.117.853-.762 1.483-.762 1.132.254 1.49.762.538 1.213.538 2.117-.181 1.617-.542 2.128-.857.765-1.487.765zm9.243 1.655c1.001 0 1.774-.201 2.318-.604s.817-.973.817-1.71c0-.63-.206-1.105-.619-1.425s-1.171-.56-2.274-.721l-.601-.073c-.879-.117-1.318-.347-1.318-.688 0-.22.105-.392.315-.516s.505-.187.886-.187c.488 0 .975.175 1.461.524s.829.524 1.029.524.347-.057.454-.172.161-.277.161-.487h0v-.901c0-.249-.052-.436-.157-.56s-.258-.187-.458-.187c-.142 0-.27.029-.385.088s-.223.149-.326.271a7.32 7.32 0 0 0-1.029-.238 6.45 6.45 0 0 0-.978-.077c-.923 0-1.633.188-2.131.564s-.747.908-.747 1.597c0 .581.208 1.044.623 1.388s1.047.575 1.897.692l.586.081c1.128.151 1.692.425 1.692.82 0 .22-.105.398-.315.535s-.491.205-.842.205c-.405 0-.767-.054-1.084-.161s-.596-.269-.835-.483c-.073-.073-.164-.186-.271-.337-.181-.278-.415-.417-.703-.417-.264 0-.449.067-.557.201s-.161.363-.161.685h0v.974c0 .308.043.518.128.63s.233.168.443.168a1.15 1.15 0 0 0 .414-.077 1.55 1.55 0 0 0 .392-.223c.337.098.686.172 1.047.223s.737.077 1.128.077z" class="D"/><path d="M240.168 353.728l1.149.669-5.817 9.986-5.817-9.986 1.149-.669 4.003 6.871V359.5h1.33v1.099l4.003-6.871zm-4.003.772v3h-1.33v-3h1.33zm0-5v3h-1.33v-3h1.33zm0-5v3h-1.33v-3h1.33zm0-5v3h-1.33v-3h1.33zm0-5v3h-1.33v-3h1.33zm0-5v3h-1.33v-3h1.33zm0-5v3h-1.33v-3h1.33zm0-5v3h-1.33v-3h1.33zm0-5v3h-1.33v-3h1.33zm0-5v3h-1.33v-3h1.33zm0-5v3h-1.33v-3h1.33zm0-5v3h-1.33v-3h1.33zm0-5v3h-1.33v-3h1.33zm0-5v3h-1.33v-3h1.33zm0-5v3h-1.33v-3h1.33zm0-5v3h-1.33v-3h1.33zm0-5v3h-1.33v-3h1.33zm0-5v3h-1.33v-3h1.33zm0-5v3h-1.33v-3h1.33zm0-5v3h-1.33v-3h1.33zm0-5v3h-1.33v-3h1.33zm0-5v3h-1.33v-3h1.33zm0-5v3h-1.33v-3h1.33zm0-5v3h-1.33v-3h1.33zm0-5v3h-1.33v-3h1.33zm0-5v3h-1.33v-3h1.33zm0-5v3h-1.33v-3h1.33zm0-5v3h-1.33v-3h1.33zm0-5v3h-1.33v-3h1.33zm0-5v3h-1.33v-3h1.33zm0-5v3h-1.33v-3h1.33zm0-5v3h-1.33v-3h1.33zm0-5v3h-1.33v-3h1.33zm0-5v3h-1.33v-3h1.33zm0-5v3h-1.33v-3h1.33zm0-5v3h-1.33v-3h1.33zm0-5v3h-1.33v-3h1.33zm0-5v3h-1.33v-3h1.33zm0-5v3h-1.33v-3h1.33zm0-5v3h-1.33v-3h1.33zm0-5v3h-1.33v-3h1.33zm0-5v3h-1.33v-3h1.33zm0-5v3h-1.33v-3h1.33zm0-5v3h-1.33v-3h1.33zm0-5v3h-1.33v-3h1.33zm0-5v3h-1.33v-3h1.33zm0-5v3h-1.33v-3h1.33zm0-5v3h-1.33v-3h1.33zm0-5v3h-1.33v-3h1.33zm0-5v3h-1.33v-3h1.33zm0-5v3h-1.33v-3h1.33zm0-5v3h-1.33v-3h1.33zm0-5v3h-1.33v-3h1.33zm0-5v3h-1.33v-3h1.33zm0-5v3h-1.33v-3h1.33zm0-5v3h-1.33v-3h1.33zm0-5v3h-1.33v-3h1.33zm0-5v3h-1.33v-3h1.33zm0-5v3h-1.33v-3h1.33zm0-5v3h-1.33v-3h1.33zm0-5v3h-1.33v-3h1.33zm0-5v3h-1.33v-3h1.33zm0-5v3h-1.33v-3h1.33zm0-5v3h-1.33v-3h1.33zm0-5v3h-1.33v-3h1.33zm0-2.665V33.5h-1.33v-.335H232.5v-1.33h3.665zm-5.665 0v1.33h-3v-1.33h3zm-5 0v1.33h-3v-1.33h3zm-5 0v1.33h-3v-1.33h3zm-5 0v1.33h-3v-1.33h3zm-5 0v1.33h-3v-1.33h3zm-5 0v1.33h-3v-1.33h3zm-5 0v1.33h-3v-1.33h3zm-5 0v1.33h-3v-1.33h3zm-5 0v1.33h-3v-1.33h3zm-5 0v1.33h-3v-1.33h3zm-5 0v1.33h-3v-1.33h3zm-5 0v1.33h-3v-1.33h3zm-5 0v1.33h-3v-1.33h3zm-5 0v1.33h-3v-1.33h3zm-5 0v1.33h-3v-1.33h3zm-5 0v1.33h-3v-1.33h3zm-5 0v1.33h-3v-1.33h3zm-5 0v1.33h-3v-1.33h3zm-5 0v1.33h-3v-1.33h3z" class="G"/><use fill="#000" filter="url(#B)" xlink:href="#A"/><use xlink:href="#A" class="B"/></g><g transform="translate(10 99)"><g transform="translate(0 .607)"><g transform="translate(.345 .083)"><g class="C"><g transform="translate(.044 .211)" opacity=".3"><path d="M74.646 7.076c-.146 8.629-3.887 16.415-9.84 22.025L41.975 7.076z" fill="url(#C)" transform="matrix(.866025 -.5 .5 .866025 -1.232146 31.578711)"/><path d="M36.209 7.076c-.146 8.629-3.887 16.415-9.84 22.025L3.538 7.076z" fill="url(#D)" transform="matrix(-.866025 -.5 -.5 .866025 46.129236 12.360292)"/></g><use fill="#002c66" xlink:href="#E"/></g><path fill="#de3737" d="M30.78 22.256h3.765V30.3h-5.652z"/><path d="M47.4 22.256h-3.765V30.3h5.652z" class="G"/><path d="M34.546 22.256V30.3h9.089v-8.044z" class="E"/></g><mask id="b" class="B"><use xlink:href="#F"/></mask><use fill="#b4cddf" xlink:href="#F"/><g mask="url(#b)"><g transform="translate(17.625 36.414)"><g class="E"><path d="M0 0h43.164v14.29H0zm0 57.159h43.164v14.29H0z"/></g><g class="B"><path d="M0 14.29h43.164v14.29H0zm0 28.579h43.164v14.29H0z"/></g></g></g></g><path d="M25.955 30.841H52.46v6.179H25.955zM56 65v9.745c-1.107-.389-2.075-.947-2.836-1.625-1.529 1.362-3.887 2.238-6.539 2.238-2.723 0-5.133-.924-6.656-2.348-1.523 1.423-3.933 2.348-6.656 2.348-2.7 0-5.094-.909-6.619-2.314-.943.868-2.219 1.548-3.693 1.939L23 65h33z" fill="#002c66"/><circle stroke="#006bb8" stroke-width="1.379" cx="39.711" cy="58.746" r="11.435" class="B"/><path d="M39.558 46.621c-6.612 0-11.972 5.36-11.972 11.972s5.36 11.972 11.972 11.972 11.972-5.36 11.972-11.972-5.36-11.972-11.972-11.972zm0 22.407c-1.881 0-3.406-1.257-3.406-2.806h6.813c0 1.549-1.525 2.806-3.406 2.806h0zm5.626-3.736H33.931v-2.041h11.253v2.041zm-.04-3.091H33.963l-.111-.129c-1.152-1.399-1.423-2.129-1.687-2.873-.004-.025 1.397.286 2.39.51a30.21 30.21 0 0 0 1.259.255c-.718-.841-1.144-1.911-1.144-3.004 0-2.4 1.841-4.497 1.177-6.192.646.053 1.338 1.364 1.384 3.414.687-.95.975-2.683.975-3.747 0-1.101.725-2.379 1.451-2.423-.647 1.066.167 1.98.891 4.246.271.851.237 2.284.446 3.193.07-1.887.394-4.641 1.591-5.592-.528 1.197.078 2.695.493 3.416.669 1.162 1.075 2.042 1.075 3.707 0 1.116-.412 2.167-1.107 2.989.791-.148 1.336-.282 1.336-.282l2.567-.501c0 0-.373 1.534-1.806 3.012h0z" class="C D"/><g transform="translate(32.517 66.655)"><mask id="c" class="B"><use xlink:href="#G"/></mask><g mask="url(#c)" class="F H"><g transform="matrix(1 0 0 -1 -118.399553 15.166379)"><use xlink:href="#Z"/></g></g></g><g transform="translate(17.345 67.414)"><mask id="d" class="B"><use xlink:href="#H"/></mask><g mask="url(#d)" class="F H"><g transform="matrix(1 0 0 -1 -118.399553 21.166103)"><use xlink:href="#Z"/></g></g></g></g><g class="C"><use fill="#000" filter="url(#J)" xlink:href="#I"/><use xlink:href="#I" class="B"/></g><g transform="translate(10 213)"><g class="E"><path d="M0 25.6h15.2v12H0z"/><use xlink:href="#K"/></g><use fill-opacity=".2" xlink:href="#K" class="D"/><use xlink:href="#L" class="E"/><use fill-opacity=".1" xlink:href="#L" class="D"/><use xlink:href="#M" class="E"/><use fill-opacity=".2" xlink:href="#M" class="D"/><use xlink:href="#N" class="E"/><use xlink:href="#N" class="D"/><path d="M72.767 49.117c-.04-.375-.099-.813-.219-1.291s-.317-.995-.576-1.55c-.281-.536-.616-1.116-1.075-1.651-.178-.219-.375-.416-.576-.634.317-1.254-.379-2.348-.379-2.348-1.21-.076-1.965.379-2.246.58-.04-.022-.099-.04-.139-.062l-.634-.237-.657-.178a6.41 6.41 0 0 0-.697-.142c-.04 0-.081-.018-.12-.018-.514-1.669-2.027-2.384-2.027-2.384-1.728 1.112-2.067 2.603-2.067 2.603s0 .04-.018.081c-.099.018-.179.058-.277.081l-.379.139c-.12.058-.259.099-.379.157l-.755.379-.693.438c-.04-.018-.062-.04-.062-.04-2.326-.893-4.393.178-4.393.178-.178 2.486.937 4.036 1.156 4.313l-.16.459a9.99 9.99 0 0 0-.379 1.728c-.018.081-.018.178-.04.259-2.144 1.053-2.782 3.241-2.782 3.241 1.79 2.067 3.898 2.184 3.898 2.184a8.94 8.94 0 0 0 .915 1.352c.139.178.295.339.456.518-.657 1.867.099 3.438.099 3.438 2.009.081 3.322-.875 3.599-1.094l.594.178c.616.16 1.254.259 1.87.281h.813c.937 1.349 2.607 1.531 2.607 1.531 1.17-1.254 1.25-2.468 1.25-2.745v-.12l.718-.554c.474-.419.871-.915 1.232-1.433.04-.04.058-.099.099-.139 1.331.081 2.264-.835 2.264-.835-.219-1.389-1.014-2.067-1.17-2.184l-.04-.04-.018-.022c0-.076.018-.157.018-.259.018-.157.018-.295.018-.456v-.576c0-.04 0-.081-.018-.12l-.04-.237c-.018-.16-.058-.299-.081-.459a5.87 5.87 0 0 0-.675-1.669c-.314-.503-.693-.956-1.134-1.352a5.45 5.45 0 0 0-1.429-.911c-.496-.233-1.028-.379-1.572-.441-.259-.04-.536-.04-.794-.04h-.398l-.398.062a4.58 4.58 0 0 0-1.473.554c-.437.259-.813.598-1.13.974a3.97 3.97 0 0 0-.718 1.214c-.157.416-.259.875-.277 1.291v.477c0 .058 0 .099.018.16a3.38 3.38 0 0 0 .657 1.688c.241.317.496.558.794.755s.598.339.915.438a2.4 2.4 0 0 0 .893.12h.419c.04 0 .076-.018.099-.018.04 0 .058-.022.099-.022l.197-.058.361-.139c.117-.062.215-.12.295-.182.022-.018.062-.04.081-.058.099-.076.117-.219.04-.317-.081-.076-.197-.102-.299-.062-.018.022-.04.022-.076.04a1.42 1.42 0 0 1-.259.102c-.102.018-.2.058-.299.076-.058 0-.099.022-.16.022h-.416c-.022 0-.058 0-.081-.022-.219-.04-.456-.099-.675-.197a2.17 2.17 0 0 1-.616-.419 2.41 2.41 0 0 1-.496-.616c-.139-.237-.219-.496-.259-.755-.022-.139-.04-.277-.022-.416v-.219c0-.081.022-.139.04-.219.106-.616.405-1.182.857-1.611a1.61 1.61 0 0 1 .379-.295c.139-.102.277-.182.416-.241s.299-.12.456-.16.321-.076.477-.076c.081 0 .16-.022.241-.022h.237a3.75 3.75 0 0 1 1.513.459c.634.357 1.17.893 1.488 1.55.16.317.281.675.339 1.053l.04.277v.518c0 .099-.018.2-.018.299-.022.099-.022.197-.04.295l-.062.299c-.018.099-.117.379-.178.576s-.335.736-.576 1.053a4.78 4.78 0 0 1-1.87 1.532c-.375.16-.755.299-1.152.357a2.98 2.98 0 0 1-.594.062h-.317c-.099 0-.219 0-.321-.022-.437-.04-.853-.12-1.273-.237a6.53 6.53 0 0 1-1.192-.477c-.755-.408-1.425-.962-1.965-1.63a7.57 7.57 0 0 1-.697-1.072c-.2-.379-.339-.776-.459-1.174-.113-.401-.182-.813-.197-1.232v-.616c0-.197.018-.416.058-.634.022-.219.062-.419.099-.638s.102-.416.16-.634a9.23 9.23 0 0 1 .438-1.192c.357-.755.817-1.433 1.352-1.969.139-.139.277-.259.438-.375a1.94 1.94 0 0 1 .357-.281c.157-.099.317-.197.496-.277l.259-.12c.04-.018.081-.04.139-.058l.139-.062a6.28 6.28 0 0 1 .536-.197c.04-.018.102-.018.142-.04s.099-.018.139-.04.178-.04.277-.081c.04-.018.099-.018.139-.04.04 0 .099-.018.139-.018s.099-.022.139-.022l.16-.04c.04 0 .099-.018.139-.018.062 0 .099-.018.16-.018.04 0 .117-.022.157-.022s.062 0 .099-.018h.139c.062 0 .102 0 .16-.018h.813a8.77 8.77 0 0 1 1.053.117c.667.117 1.309.332 1.91.638a7.13 7.13 0 0 1 1.55 1.014c.018.018.058.04.081.076.018.022.058.04.076.081.062.04.102.099.16.139s.099.099.16.139c.04.062.099.102.139.16a7.34 7.34 0 0 1 1.313 1.849c.018.018.018.04.04.081.018.018.018.04.04.076s.04.102.076.142c.022.04.04.099.062.139l.058.139c.081.178.139.357.2.536l.219.715a.19.19 0 0 0 .178.142c.099 0 .157-.081.157-.182l-.04-.795.006-.004z" class="B C"/><use xlink:href="#O" class="E"/><use fill-opacity=".1" xlink:href="#O" class="D"/><path d="M23.2 12.643h6.854l3.226-8.259L38.118 23.2 46.182 0l2.822 12.643h7.661l4.296-7.448 3.768 7.448h8.87" stroke="#14ba5a" stroke-width="1.067" stroke-dasharray="3.2,1.6"/></g><g class="C"><use fill="#000" filter="url(#J)" xlink:href="#P"/><use xlink:href="#P" class="B"/><g class="D"><path d="M135.355 135c.288 0 .494-.055.619-.165s.187-.29.187-.54c0-.241-.062-.416-.187-.524s-.331-.162-.619-.162h0-.222l.273-.743h2.742l.26.743h-.222c-.292 0-.499.053-.622.159s-.184.281-.184.527c0 .254.061.435.184.543s.33.162.622.162h1.911c.288 0 .494-.055.619-.165s.187-.29.187-.54c0-.224-.059-.395-.178-.511s-.292-.175-.521-.175h0-.108l-2.012-5.51v-.019c-.152-.406-.417-.609-.793-.609h0-2.38c-.288 0-.494.055-.619.165s-.187.29-.187.54.062.423.187.533.331.165.619.165h.508l-1.701 4.735h-.108c-.229 0-.402.058-.521.175s-.178.287-.178.511c0 .25.061.43.184.54s.33.165.622.165h1.638zm2.336-3.447h-1.841l.92-2.679.92 2.679zm6.348 3.593c.398 0 .744-.076 1.038-.229a2 2 0 0 0 .746-.686h0v.482a.25.25 0 0 0 .098.209c.066.051.158.076.276.076h1.066c.292 0 .499-.054.622-.162s.184-.289.184-.543c0-.22-.06-.389-.181-.508s-.295-.178-.524-.178h0-.102v-4.202c0-.085-.032-.151-.095-.2s-.152-.073-.267-.073h0-1.2c-.292 0-.497.053-.616.159s-.178.284-.178.533c0 .229.058.402.175.521s.289.178.517.178h.102v1.834c0 .423-.113.765-.34 1.025s-.515.39-.866.39c-.33 0-.567-.106-.711-.317s-.216-.578-.216-1.098h0v-2.952c0-.085-.03-.151-.089-.2s-.146-.073-.26-.073h0-1.193c-.296 0-.505.053-.625.159s-.181.284-.181.533c0 .229.059.402.178.521s.292.178.521.178h.108v2.12c0 .846.165 1.475.495 1.885s.836.616 1.517.616zm8.779-.019c.749 0 1.419-.134 2.009-.403s.885-.566.885-.892c0-.195-.062-.361-.187-.498s-.274-.206-.448-.206c-.152 0-.453.095-.901.286s-.838.286-1.168.286c-.351 0-.597-.085-.736-.254s-.209-.482-.209-.939h0v-1.625h1.936c.288 0 .494-.055.619-.165s.187-.29.187-.54-.061-.421-.184-.527-.33-.159-.622-.159h0-1.936v-1.485c0-.292-.06-.497-.181-.616s-.321-.178-.6-.178-.479.059-.6.178-.181.324-.181.616h0v1.485h-.597c-.292 0-.497.052-.616.156s-.178.28-.178.53.06.43.181.54.325.165.613.165h.597v1.765c0 .554.03.95.089 1.187s.159.44.298.609c.19.22.451.389.781.508s.713.178 1.149.178zm7.484.032c1.028 0 1.862-.288 2.501-.863s.958-1.316.958-2.222-.319-1.64-.958-2.215-1.473-.863-2.501-.863c-1.02 0-1.85.288-2.491.863s-.962 1.314-.962 2.215.319 1.646.958 2.222 1.471.863 2.495.863zm0-1.339c-.495 0-.902-.166-1.222-.498s-.479-.752-.479-1.26.16-.917.479-1.241.727-.486 1.222-.486.909.162 1.228.486.479.737.479 1.241-.161.928-.482 1.26-.73.498-1.225.498zM166.23 135c.25 0 .427-.054.533-.162s.159-.289.159-.543c0-.229-.05-.4-.149-.514s-.249-.171-.448-.171h0-.095v-2.222c0-.347.06-.616.181-.806a.56.56 0 0 1 .498-.286c.169 0 .296.07.381.209s.127.351.127.635h0v3.586c0 .085.034.151.102.2s.159.073.273.073h1.079c.25 0 .427-.054.533-.162s.159-.289.159-.543c0-.224-.051-.395-.152-.511s-.25-.175-.444-.175h0-.095v-2.222c0-.351.058-.621.175-.809s.28-.282.492-.282a.43.43 0 0 1 .387.209c.089.14.133.351.133.635h0v3.586c0 .085.032.151.095.2s.152.073.267.073h1.079c.25 0 .426-.054.53-.162s.156-.289.156-.543c0-.224-.05-.395-.149-.511s-.249-.175-.448-.175h0-.089v-2.406c0-.8-.127-1.37-.381-1.711s-.669-.511-1.244-.511c-.267 0-.516.05-.749.149s-.438.244-.616.435c-.135-.199-.294-.346-.476-.441s-.396-.143-.641-.143c-.271 0-.516.056-.736.168s-.408.276-.565.492c0-.199-.031-.333-.092-.403s-.179-.105-.352-.105h0-.857c-.25 0-.428.054-.536.162s-.162.285-.162.53c0 .224.052.397.156.517s.255.181.454.181h.089v3.085h-.089c-.199 0-.348.058-.448.175s-.149.287-.149.511c0 .25.053.43.159.54s.281.165.527.165h1.441zm8.626.159c.402 0 .8-.061 1.193-.184a4.37 4.37 0 0 0 1.117-.533c.068.212.153.358.257.438s.261.121.473.121h.597c.288 0 .494-.054.619-.162s.187-.285.187-.53c0-.224-.06-.397-.181-.517s-.295-.181-.524-.181h0-.102v-2.355c0-.829-.195-1.418-.584-1.765s-1.035-.521-1.936-.521c-.863 0-1.546.101-2.047.302s-.752.473-.752.816c0 .19.061.344.184.46s.284.175.482.175.522-.104.955-.311.79-.311 1.07-.311c.36 0 .632.099.816.298s.276.489.276.87h0v.121l-.768-.102-.647-.032c-.91 0-1.617.176-2.12.527s-.755.844-.755 1.479c0 .588.195 1.052.584 1.39s.925.508 1.606.508zm.514-1.276c-.317 0-.561-.065-.73-.194s-.254-.316-.254-.562c0-.275.132-.491.397-.647s.629-.235 1.095-.235a3.83 3.83 0 0 1 .495.035l.584.105v.978c-.25.178-.504.309-.762.394s-.533.127-.825.127zm8.652 1.244c.749 0 1.419-.134 2.009-.403s.885-.566.885-.892c0-.195-.062-.361-.187-.498s-.274-.206-.448-.206c-.152 0-.453.095-.901.286s-.838.286-1.168.286c-.351 0-.597-.085-.736-.254s-.209-.482-.209-.939h0v-1.625h1.936c.288 0 .494-.055.619-.165s.187-.29.187-.54-.061-.421-.184-.527-.33-.159-.622-.159h0-1.936v-1.485c0-.292-.06-.497-.181-.616s-.321-.178-.6-.178-.479.059-.6.178-.181.324-.181.616h0v1.485h-.597c-.292 0-.497.052-.616.156s-.178.28-.178.53.06.43.181.54.325.165.613.165h.597v1.765c0 .554.03.95.089 1.187s.159.44.298.609c.19.22.451.389.781.508s.713.178 1.149.178zm7.604.032c.868 0 1.595-.144 2.184-.432s.882-.631.882-1.028c0-.182-.05-.331-.149-.448a.48.48 0 0 0-.384-.175c-.106 0-.415.128-.927.384s-1.03.384-1.555.384-.945-.116-1.26-.349-.528-.584-.638-1.054h4.094c.377 0 .625-.047.746-.14s.181-.264.181-.514c0-.783-.3-1.444-.901-1.984s-1.358-.809-2.272-.809c-1.024 0-1.857.288-2.498.863s-.962 1.314-.962 2.215.321 1.646.962 2.222 1.474.863 2.498.863zm1.574-3.707h-3.421c.11-.415.306-.725.587-.93s.653-.308 1.114-.308c.478 0 .866.108 1.165.324s.483.521.555.914h0zm5.561 3.707c.406 0 .772-.075 1.098-.225a2.02 2.02 0 0 0 .8-.651h0v.444c0 .085.033.151.098.2s.16.073.282.073h.971c.288 0 .492-.055.613-.165s.181-.29.181-.54c0-.224-.057-.395-.171-.511s-.286-.175-.514-.175h0-.108v-6.5c0-.161-.026-.271-.079-.33s-.151-.089-.295-.089h0-1.974c-.292 0-.499.055-.622.165s-.184.29-.184.54.061.424.184.536.33.168.622.168h.844v1.606a2.78 2.78 0 0 0-.784-.422c-.286-.099-.579-.149-.879-.149-.872 0-1.59.29-2.155.87s-.847 1.31-.847 2.19c0 .846.279 1.552.838 2.117s1.253.847 2.082.847zm.273-1.352a1.31 1.31 0 0 1-1.035-.467c-.271-.311-.406-.712-.406-1.203 0-.478.136-.873.409-1.184s.617-.467 1.031-.467a1.32 1.32 0 0 1 1.035.47c.275.313.413.707.413 1.181 0 .487-.136.887-.409 1.2s-.619.47-1.038.47zm-62.137 19.352c1.028 0 1.862-.288 2.501-.863s.958-1.316.958-2.222-.319-1.64-.958-2.215-1.473-.863-2.501-.863c-1.02 0-1.85.288-2.491.863s-.962 1.314-.962 2.215.319 1.646.958 2.222 1.471.863 2.495.863zm0-1.339c-.495 0-.902-.166-1.222-.498s-.479-.752-.479-1.26.16-.917.479-1.241.727-.486 1.222-.486.909.162 1.228.486.479.737.479 1.241-.161.928-.482 1.26-.73.498-1.225.498zm8.246 1.339c.868 0 1.587-.278 2.158-.835s.857-1.249.857-2.079c0-.91-.28-1.656-.841-2.238s-1.281-.873-2.161-.873c-.305 0-.597.051-.876.152s-.521.241-.724.419h0v-2.596c0-.148-.031-.255-.092-.321s-.16-.098-.295-.098h0-1.187c-.292 0-.499.055-.622.165s-.184.29-.184.54c0 .229.06.403.181.524s.295.181.524.181h.102v5.51h-.102c-.229 0-.401.058-.517.175s-.175.287-.175.511c0 .254.06.435.181.543s.325.162.613.162h.978c.118 0 .211-.024.276-.073s.098-.115.098-.2h0v-.419c.19.284.437.496.74.638s.659.213 1.07.213zm-.184-1.352a1.31 1.31 0 0 1-1.035-.467c-.271-.311-.406-.712-.406-1.203 0-.478.136-.873.409-1.184s.617-.467 1.031-.467a1.32 1.32 0 0 1 1.035.47c.275.313.413.707.413 1.181 0 .487-.136.887-.409 1.2s-.619.47-1.038.47zm7.75 1.365c.868 0 1.537-.175 2.009-.524s.708-.843.708-1.482c0-.546-.179-.957-.536-1.235s-1.015-.486-1.971-.625l-.521-.063c-.762-.102-1.143-.3-1.143-.597 0-.19.091-.34.273-.448s.438-.162.768-.162c.423 0 .845.151 1.266.454s.718.454.892.454.3-.05.394-.149.14-.24.14-.422h0v-.781c0-.216-.045-.378-.136-.486s-.223-.162-.397-.162a.72.72 0 0 0-.333.076c-.099.051-.194.129-.282.235-.305-.093-.602-.162-.892-.206a5.59 5.59 0 0 0-.847-.067c-.8 0-1.416.163-1.847.489s-.647.787-.647 1.384c0 .504.18.905.54 1.203s.908.498 1.644.6l.508.07c.978.131 1.466.368 1.466.711 0 .19-.091.345-.273.463s-.425.178-.73.178c-.351 0-.664-.047-.939-.14s-.516-.233-.724-.419c-.063-.063-.142-.161-.235-.292-.157-.241-.36-.362-.609-.362-.229 0-.389.058-.482.175s-.14.314-.14.594h0v.844c0 .267.037.449.111.546s.202.146.384.146c.123 0 .242-.022.359-.067s.23-.109.34-.194c.292.085.595.149.908.194s.639.067.978.067zm7.712-.013c.868 0 1.595-.144 2.184-.432s.882-.631.882-1.028c0-.182-.05-.331-.149-.448a.48.48 0 0 0-.384-.175c-.106 0-.415.128-.927.384s-1.03.384-1.555.384-.945-.116-1.26-.349-.528-.584-.638-1.054h4.094c.377 0 .625-.047.746-.14s.181-.264.181-.514c0-.783-.3-1.444-.901-1.984s-1.358-.809-2.272-.809c-1.024 0-1.857.288-2.498.863s-.962 1.314-.962 2.215.321 1.646.962 2.222 1.474.863 2.498.863zm1.574-3.707h-3.421c.11-.415.306-.725.587-.93s.653-.308 1.114-.308c.478 0 .866.108 1.165.324s.483.521.555.914h0zm7.319 3.548c.288 0 .492-.055.613-.165s.181-.29.181-.54-.06-.421-.181-.527-.325-.159-.613-.159h0-1.498v-2.057c.377-.381.702-.662.978-.844s.514-.273.717-.273c.102 0 .282.07.543.209s.486.209.676.209c.267 0 .485-.079.654-.238s.254-.361.254-.606c0-.317-.123-.57-.368-.759s-.578-.282-.997-.282a2.72 2.72 0 0 0-1.292.317c-.4.212-.83.565-1.292 1.06h0v-.939c0-.085-.032-.151-.095-.2s-.152-.073-.267-.073h0-1.352c-.296 0-.503.053-.619.159s-.175.284-.175.533.06.428.181.536.325.162.613.162h.273v3.085h-.482c-.296 0-.505.053-.625.159s-.181.281-.181.527.061.43.184.54.33.165.622.165h3.548zm6.525.159c.233 0 .405-.033.517-.098s.238-.242.378-.53h0l1.885-4.005h.108c.229 0 .402-.059.521-.178s.178-.292.178-.521c0-.245-.06-.422-.181-.53s-.329-.162-.625-.162h0-1.492c-.296 0-.505.053-.625.159s-.181.284-.181.533c0 .229.06.402.181.521s.295.178.524.178h.102l-1.2 2.704-1.143-2.704h.108c.224 0 .397-.059.517-.178s.181-.292.181-.521c0-.245-.061-.422-.184-.53s-.33-.162-.622-.162h0-1.612c-.292 0-.499.053-.622.159s-.184.284-.184.533c0 .229.06.402.181.521s.295.178.524.178h.102l1.771 4.005.038.095c.148.355.434.533.857.533zm6.817 0c.402 0 .8-.061 1.193-.184a4.37 4.37 0 0 0 1.117-.533c.068.212.153.358.257.438s.261.121.473.121h.597c.288 0 .494-.054.619-.162s.187-.285.187-.53c0-.224-.06-.397-.181-.517s-.295-.181-.524-.181h0-.102v-2.355c0-.829-.195-1.418-.584-1.765s-1.035-.521-1.936-.521c-.863 0-1.546.101-2.047.302s-.752.473-.752.816c0 .19.061.344.184.46s.284.175.482.175.522-.104.955-.311.79-.311 1.07-.311c.36 0 .632.099.816.298s.276.489.276.87h0v.121l-.768-.102-.647-.032c-.91 0-1.617.176-2.12.527s-.755.844-.755 1.479c0 .588.195 1.052.584 1.39s.925.508 1.606.508zm.514-1.276c-.317 0-.561-.065-.73-.194s-.254-.316-.254-.562c0-.275.132-.491.397-.647s.629-.235 1.095-.235a3.83 3.83 0 0 1 .495.035l.584.105v.978c-.25.178-.504.309-.762.394s-.533.127-.825.127zm8.779 1.276c.868 0 1.587-.278 2.158-.835s.857-1.249.857-2.079c0-.91-.28-1.656-.841-2.238s-1.281-.873-2.161-.873c-.305 0-.597.051-.876.152s-.521.241-.724.419h0v-2.596c0-.148-.031-.255-.092-.321s-.16-.098-.295-.098h0-1.187c-.292 0-.499.055-.622.165s-.184.29-.184.54c0 .229.06.403.181.524s.295.181.524.181h.102v5.51h-.102c-.229 0-.401.058-.517.175s-.175.287-.175.511c0 .254.06.435.181.543s.325.162.613.162h.978c.118 0 .211-.024.276-.073s.098-.115.098-.2h0v-.419c.19.284.437.496.74.638s.659.213 1.07.213zm-.184-1.352a1.31 1.31 0 0 1-1.035-.467c-.271-.311-.406-.712-.406-1.203 0-.478.136-.873.409-1.184s.617-.467 1.031-.467a1.32 1.32 0 0 1 1.035.47c.275.313.413.707.413 1.181 0 .487-.136.887-.409 1.2s-.619.47-1.038.47zm7.503-5.554c.339 0 .553-.052.644-.156s.136-.371.136-.803c0-.449-.051-.732-.152-.851s-.307-.178-.616-.178c-.334 0-.55.074-.647.222s-.146.493-.146 1.035c0 .292.048.487.143.584s.308.146.638.146zm2.292 6.748c.288 0 .494-.055.619-.165s.187-.29.187-.54-.061-.421-.184-.527-.33-.159-.622-.159h0-1.365v-4.202c0-.085-.032-.151-.095-.2s-.154-.073-.273-.073h0-1.911c-.292 0-.497.053-.616.159s-.178.284-.178.533.061.428.184.536.326.162.609.162h.717v3.085h-1.365c-.296 0-.505.053-.625.159s-.181.281-.181.527.062.43.187.54.331.165.619.165h4.291zm7.693 0c.288 0 .492-.055.613-.165s.181-.29.181-.54-.059-.421-.178-.527-.324-.159-.616-.159h0-1.365v-6.646c0-.085-.033-.151-.098-.2s-.158-.073-.276-.073h0-1.898c-.292 0-.499.055-.622.165s-.184.29-.184.54.062.424.187.536.331.168.619.168h.698v5.51h-1.365c-.292 0-.496.052-.613.156s-.175.28-.175.53.06.43.181.54.323.165.606.165h4.304zm5.618-6.748c.339 0 .553-.052.644-.156s.136-.371.136-.803c0-.449-.051-.732-.152-.851s-.307-.178-.616-.178c-.334 0-.55.074-.647.222s-.146.493-.146 1.035c0 .292.048.487.143.584s.308.146.638.146zm2.292 6.748c.288 0 .494-.055.619-.165s.187-.29.187-.54-.061-.421-.184-.527-.33-.159-.622-.159h0-1.365v-4.202c0-.085-.032-.151-.095-.2s-.154-.073-.273-.073h0-1.911c-.292 0-.497.053-.616.159s-.178.284-.178.533.061.428.184.536.326.162.609.162h.717v3.085h-1.365c-.296 0-.505.053-.625.159s-.181.281-.181.527.062.43.187.54.331.165.619.165h4.291zm5.865.127c.749 0 1.419-.134 2.009-.403s.885-.566.885-.892c0-.195-.062-.361-.187-.498s-.274-.206-.448-.206c-.152 0-.453.095-.901.286s-.838.286-1.168.286c-.351 0-.597-.085-.736-.254s-.209-.482-.209-.939h0v-1.625h1.936c.288 0 .494-.055.619-.165s.187-.29.187-.54-.061-.421-.184-.527-.33-.159-.622-.159h0-1.936v-1.485c0-.292-.06-.497-.181-.616s-.321-.178-.6-.178-.479.059-.6.178-.181.324-.181.616h0v1.485h-.597c-.292 0-.497.052-.616.156s-.178.28-.178.53.06.43.181.54.325.165.613.165h.597v1.765c0 .554.03.95.089 1.187s.159.44.298.609c.19.22.451.389.781.508s.713.178 1.149.178zm7.877 2.406c.288 0 .494-.055.619-.165s.187-.288.187-.533-.062-.43-.187-.54-.331-.165-.619-.165h0-.286l2.609-5.605h.108c.229 0 .402-.059.521-.178s.178-.292.178-.521c0-.245-.06-.422-.181-.53s-.329-.162-.625-.162h0-1.492c-.296 0-.505.053-.625.159s-.181.284-.181.533c0 .229.06.402.181.521s.295.178.524.178h.102l-1.2 2.704-1.143-2.704h.108c.224 0 .397-.059.517-.178s.181-.292.181-.521c0-.245-.061-.422-.184-.53s-.33-.162-.622-.162h0-1.612c-.292 0-.499.053-.622.159s-.184.284-.184.533c0 .229.06.402.181.521s.295.178.524.178h.102l1.923 4.329-.597 1.276h-.984c-.292 0-.499.055-.622.165s-.184.29-.184.54.061.428.184.536.33.162.622.162h2.78zm-93.888 15.626c.829 0 1.546-.157 2.149-.47s.905-.669.905-1.066c0-.182-.052-.333-.156-.454s-.234-.181-.39-.181c-.11 0-.412.139-.905.416s-.989.416-1.489.416c-.55 0-.988-.161-1.314-.482s-.489-.747-.489-1.276c0-.504.158-.917.473-1.241s.72-.486 1.216-.486c.398 0 .734.069 1.009.206s.497.35.667.638c.118.203.231.341.336.413s.237.108.394.108c.22 0 .383-.061.489-.184s.159-.313.159-.571h0v-1.041c0-.339-.049-.577-.146-.714s-.26-.206-.489-.206c-.169 0-.308.041-.416.124s-.187.206-.238.371c-.305-.169-.611-.294-.92-.375s-.626-.121-.952-.121c-.965 0-1.765.294-2.399.882s-.952 1.325-.952 2.209c0 .906.321 1.646.962 2.222s1.474.863 2.498.863zm7.681 0c1.028 0 1.862-.288 2.501-.863s.958-1.316.958-2.222-.319-1.64-.958-2.215-1.473-.863-2.501-.863c-1.02 0-1.85.288-2.491.863s-.962 1.314-.962 2.215.319 1.646.958 2.222 1.471.863 2.495.863zm0-1.339c-.495 0-.902-.166-1.222-.498s-.479-.752-.479-1.26.16-.917.479-1.241.727-.486 1.222-.486.909.162 1.228.486.479.737.479 1.241-.161.928-.482 1.26-.73.498-1.225.498zm6.792 1.181c.284 0 .487-.055.609-.165s.184-.29.184-.54c0-.233-.059-.407-.178-.524s-.298-.175-.54-.175h0-.076v-1.834c0-.423.111-.763.333-1.019s.509-.384.86-.384c.33 0 .566.107.708.321s.213.574.213 1.082h0v1.834h-.076c-.241 0-.422.058-.543.175s-.181.291-.181.524c0 .25.062.43.187.54s.329.165.613.165h1.562c.288 0 .492-.055.613-.165s.181-.29.181-.54c0-.233-.059-.407-.178-.524s-.296-.175-.533-.175h0-.083v-2.12c0-.842-.166-1.468-.498-1.879s-.837-.616-1.514-.616a2.28 2.28 0 0 0-1.051.232c-.303.154-.551.384-.746.689h0v-.495c0-.089-.031-.157-.092-.203s-.151-.07-.27-.07h0-1.079c-.292 0-.499.055-.622.165s-.184.29-.184.54c0 .224.059.395.178.511s.292.175.521.175h.108v3.072h-.076c-.241 0-.421.058-.54.175s-.178.291-.178.524c0 .25.061.43.184.54s.326.165.609.165h1.574zm10.48 0c.288 0 .494-.055.619-.165s.187-.29.187-.54-.061-.421-.184-.527-.33-.159-.622-.159h0-1.263v-2.901h1.365c.288 0 .494-.055.619-.165s.187-.288.187-.533-.061-.422-.184-.53-.33-.162-.622-.162h0-1.365v-.209c0-.444.079-.754.238-.93s.435-.263.828-.263c.102 0 .28.019.536.057s.454.057.594.057c.19 0 .342-.053.454-.159s.168-.248.168-.425c0-.267-.126-.463-.378-.59s-.644-.19-1.177-.19c-1.028 0-1.756.175-2.184.524s-.641.938-.641 1.768h0v.362h-.673c-.296 0-.505.053-.625.159s-.181.284-.181.533.061.423.184.533.33.165.622.165h.673v2.901h-.673c-.296 0-.505.053-.625.159s-.181.281-.181.527.061.43.184.54.33.165.622.165h3.498zm6.094-6.748c.339 0 .553-.052.644-.156s.136-.371.136-.803c0-.449-.051-.732-.152-.851s-.307-.178-.616-.178c-.334 0-.55.074-.647.222s-.146.493-.146 1.035c0 .292.048.487.143.584s.308.146.638.146zm2.292 6.748c.288 0 .494-.055.619-.165s.187-.29.187-.54-.061-.421-.184-.527-.33-.159-.622-.159h0-1.365v-4.202c0-.085-.032-.151-.095-.2s-.154-.073-.273-.073h0-1.911c-.292 0-.497.053-.616.159s-.178.284-.178.533.061.428.184.536.326.162.609.162h.717v3.085h-1.365c-.296 0-.505.053-.625.159s-.181.281-.181.527.062.43.187.54.331.165.619.165h4.291zm5.072 2.545c1.113 0 1.921-.209 2.425-.628s.755-1.092.755-2.019h0v-4.374h.108c.224 0 .395-.059.511-.178s.175-.292.175-.521c0-.245-.059-.422-.178-.53s-.324-.162-.616-.162h0-1.035a.47.47 0 0 0-.276.067c-.061.044-.092.109-.092.194h0v.33c-.212-.254-.461-.441-.749-.562s-.622-.181-1.003-.181c-.88 0-1.603.277-2.168.832s-.847 1.261-.847 2.12c0 .834.27 1.516.809 2.047s1.235.797 2.085.797a3.38 3.38 0 0 0 .917-.124 3.89 3.89 0 0 0 .892-.384h0v.286c0 .592-.115 1.003-.346 1.231s-.649.343-1.254.343c-.262 0-.548-.019-.857-.057l-.546-.057c-.216 0-.389.063-.521.19s-.197.292-.197.495c0 .292.162.506.486.641s.83.203 1.52.203zm.203-4.043c-.415 0-.759-.149-1.031-.448s-.409-.676-.409-1.133c0-.465.136-.848.409-1.149s.617-.451 1.031-.451a1.34 1.34 0 0 1 1.038.451c.273.3.409.683.409 1.149 0 .457-.136.835-.409 1.133s-.619.448-1.038.448zm7.414 1.644c.398 0 .744-.076 1.038-.229a2 2 0 0 0 .746-.686h0v.482a.25.25 0 0 0 .098.209c.066.051.158.076.276.076h1.066c.292 0 .499-.054.622-.162s.184-.289.184-.543c0-.22-.06-.389-.181-.508s-.295-.178-.524-.178h0-.102v-4.202c0-.085-.032-.151-.095-.2s-.152-.073-.267-.073h0-1.2c-.292 0-.497.053-.616.159s-.178.284-.178.533c0 .229.058.402.175.521s.289.178.517.178h.102v1.834c0 .423-.113.765-.34 1.025s-.515.39-.866.39c-.33 0-.567-.106-.711-.317s-.216-.578-.216-1.098h0v-2.952c0-.085-.03-.151-.089-.2s-.146-.073-.26-.073h0-1.193c-.296 0-.505.053-.625.159s-.181.284-.181.533c0 .229.059.402.178.521s.292.178.521.178h.108v2.12c0 .846.165 1.475.495 1.885s.836.616 1.517.616zm9.674-.146c.288 0 .492-.055.613-.165s.181-.29.181-.54-.06-.421-.181-.527-.325-.159-.613-.159h0-1.498v-2.057c.377-.381.702-.662.978-.844s.514-.273.717-.273c.102 0 .282.07.543.209s.486.209.676.209c.267 0 .485-.079.654-.238s.254-.361.254-.606c0-.317-.123-.57-.368-.759s-.578-.282-.997-.282a2.72 2.72 0 0 0-1.292.317c-.4.212-.83.565-1.292 1.06h0v-.939c0-.085-.032-.151-.095-.2s-.152-.073-.267-.073h0-1.352c-.296 0-.503.053-.619.159s-.175.284-.175.533.06.428.181.536.325.162.613.162h.273v3.085h-.482c-.296 0-.505.053-.625.159s-.181.281-.181.527.061.43.184.54.33.165.622.165h3.548zm5.542.159c.402 0 .8-.061 1.193-.184a4.37 4.37 0 0 0 1.117-.533c.068.212.153.358.257.438s.261.121.473.121h.597c.288 0 .494-.054.619-.162s.187-.285.187-.53c0-.224-.06-.397-.181-.517s-.295-.181-.524-.181h0-.102v-2.355c0-.829-.195-1.418-.584-1.765s-1.035-.521-1.936-.521c-.863 0-1.546.101-2.047.302s-.752.473-.752.816c0 .19.061.344.184.46s.284.175.482.175.522-.104.955-.311.79-.311 1.07-.311c.36 0 .632.099.816.298s.276.489.276.87h0v.121l-.768-.102-.647-.032c-.91 0-1.617.176-2.12.527s-.755.844-.755 1.479c0 .588.195 1.052.584 1.39s.925.508 1.606.508zm.514-1.276c-.317 0-.561-.065-.73-.194s-.254-.316-.254-.562c0-.275.132-.491.397-.647s.629-.235 1.095-.235a3.83 3.83 0 0 1 .495.035l.584.105v.978c-.25.178-.504.309-.762.394s-.533.127-.825.127zm8.652 1.244c.749 0 1.419-.134 2.009-.403s.885-.566.885-.892c0-.195-.062-.361-.187-.498s-.274-.206-.448-.206c-.152 0-.453.095-.901.286s-.838.286-1.168.286c-.351 0-.597-.085-.736-.254s-.209-.482-.209-.939h0v-1.625h1.936c.288 0 .494-.055.619-.165s.187-.29.187-.54-.061-.421-.184-.527-.33-.159-.622-.159h0-1.936v-1.485c0-.292-.06-.497-.181-.616s-.321-.178-.6-.178-.479.059-.6.178-.181.324-.181.616h0v1.485h-.597c-.292 0-.497.052-.616.156s-.178.28-.178.53.06.43.181.54.325.165.613.165h.597v1.765c0 .554.03.95.089 1.187s.159.44.298.609c.19.22.451.389.781.508s.713.178 1.149.178zm7.446-6.875c.339 0 .553-.052.644-.156s.136-.371.136-.803c0-.449-.051-.732-.152-.851s-.307-.178-.616-.178c-.334 0-.55.074-.647.222s-.146.493-.146 1.035c0 .292.048.487.143.584s.308.146.638.146zm2.292 6.748c.288 0 .494-.055.619-.165s.187-.29.187-.54-.061-.421-.184-.527-.33-.159-.622-.159h0-1.365v-4.202c0-.085-.032-.151-.095-.2s-.154-.073-.273-.073h0-1.911c-.292 0-.497.053-.616.159s-.178.284-.178.533.061.428.184.536.326.162.609.162h.717v3.085h-1.365c-.296 0-.505.053-.625.159s-.181.281-.181.527.062.43.187.54.331.165.619.165h4.291zm5.548.159c1.028 0 1.862-.288 2.501-.863s.958-1.316.958-2.222-.319-1.64-.958-2.215-1.473-.863-2.501-.863c-1.02 0-1.85.288-2.491.863s-.962 1.314-.962 2.215.319 1.646.958 2.222 1.471.863 2.495.863zm0-1.339c-.495 0-.902-.166-1.222-.498s-.479-.752-.479-1.26.16-.917.479-1.241.727-.486 1.222-.486.909.162 1.228.486.479.737.479 1.241-.161.928-.482 1.26-.73.498-1.225.498zm6.792 1.181c.284 0 .487-.055.609-.165s.184-.29.184-.54c0-.233-.059-.407-.178-.524s-.298-.175-.54-.175h0-.076v-1.834c0-.423.111-.763.333-1.019s.509-.384.86-.384c.33 0 .566.107.708.321s.213.574.213 1.082h0v1.834h-.076c-.241 0-.422.058-.543.175s-.181.291-.181.524c0 .25.062.43.187.54s.329.165.613.165h1.562c.288 0 .492-.055.613-.165s.181-.29.181-.54c0-.233-.059-.407-.178-.524s-.296-.175-.533-.175h0-.083v-2.12c0-.842-.166-1.468-.498-1.879s-.837-.616-1.514-.616a2.28 2.28 0 0 0-1.051.232c-.303.154-.551.384-.746.689h0v-.495c0-.089-.031-.157-.092-.203s-.151-.07-.27-.07h0-1.079c-.292 0-.499.055-.622.165s-.184.29-.184.54c0 .224.059.395.178.511s.292.175.521.175h.108v3.072h-.076c-.241 0-.421.058-.54.175s-.178.291-.178.524c0 .25.061.43.184.54s.326.165.609.165h1.574z"/><path d="M135.355 245c.288 0 .494-.055.619-.165s.187-.29.187-.54c0-.241-.062-.416-.187-.524s-.331-.162-.619-.162h0-.222l.273-.743h2.742l.26.743h-.222c-.292 0-.499.053-.622.159s-.184.281-.184.527c0 .254.061.435.184.543s.33.162.622.162h1.911c.288 0 .494-.055.619-.165s.187-.29.187-.54c0-.224-.059-.395-.178-.511s-.292-.175-.521-.175h0-.108l-2.012-5.51v-.019c-.152-.406-.417-.609-.793-.609h0-2.38c-.288 0-.494.055-.619.165s-.187.29-.187.54.062.423.187.533.331.165.619.165h.508l-1.701 4.735h-.108c-.229 0-.402.058-.521.175s-.178.287-.178.511c0 .25.061.43.184.54s.33.165.622.165h1.638zm2.336-3.447h-1.841l.92-2.679.92 2.679zm6.348 3.593c.398 0 .744-.076 1.038-.229a2 2 0 0 0 .746-.686h0v.482a.25.25 0 0 0 .098.209c.066.051.158.076.276.076h1.066c.292 0 .499-.054.622-.162s.184-.289.184-.543c0-.22-.06-.389-.181-.508s-.295-.178-.524-.178h0-.102v-4.202c0-.085-.032-.151-.095-.2s-.152-.073-.267-.073h0-1.2c-.292 0-.497.053-.616.159s-.178.284-.178.533c0 .229.058.402.175.521s.289.178.517.178h.102v1.834c0 .423-.113.765-.34 1.025s-.515.39-.866.39c-.33 0-.567-.106-.711-.317s-.216-.578-.216-1.098h0v-2.952c0-.085-.03-.151-.089-.2s-.146-.073-.26-.073h0-1.193c-.296 0-.505.053-.625.159s-.181.284-.181.533c0 .229.059.402.178.521s.292.178.521.178h.108v2.12c0 .846.165 1.475.495 1.885s.836.616 1.517.616zm8.779-.019c.749 0 1.419-.134 2.009-.403s.885-.566.885-.892c0-.195-.062-.361-.187-.498s-.274-.206-.448-.206c-.152 0-.453.095-.901.286s-.838.286-1.168.286c-.351 0-.597-.085-.736-.254s-.209-.482-.209-.939h0v-1.625h1.936c.288 0 .494-.055.619-.165s.187-.29.187-.54-.061-.421-.184-.527-.33-.159-.622-.159h0-1.936v-1.485c0-.292-.06-.497-.181-.616s-.321-.178-.6-.178-.479.059-.6.178-.181.324-.181.616h0v1.485h-.597c-.292 0-.497.052-.616.156s-.178.28-.178.53.06.43.181.54.325.165.613.165h.597v1.765c0 .554.03.95.089 1.187s.159.44.298.609c.19.22.451.389.781.508s.713.178 1.149.178zm7.484.032c1.028 0 1.862-.288 2.501-.863s.958-1.316.958-2.222-.319-1.64-.958-2.215-1.473-.863-2.501-.863c-1.02 0-1.85.288-2.491.863s-.962 1.314-.962 2.215.319 1.646.958 2.222 1.471.863 2.495.863zm0-1.339c-.495 0-.902-.166-1.222-.498s-.479-.752-.479-1.26.16-.917.479-1.241.727-.486 1.222-.486.909.162 1.228.486.479.737.479 1.241-.161.928-.482 1.26-.73.498-1.225.498zM166.23 245c.25 0 .427-.054.533-.162s.159-.289.159-.543c0-.229-.05-.4-.149-.514s-.249-.171-.448-.171h0-.095v-2.222c0-.347.06-.616.181-.806a.56.56 0 0 1 .498-.286c.169 0 .296.07.381.209s.127.351.127.635h0v3.586c0 .085.034.151.102.2s.159.073.273.073h1.079c.25 0 .427-.054.533-.162s.159-.289.159-.543c0-.224-.051-.395-.152-.511s-.25-.175-.444-.175h0-.095v-2.222c0-.351.058-.621.175-.809s.28-.282.492-.282a.43.43 0 0 1 .387.209c.089.14.133.351.133.635h0v3.586c0 .085.032.151.095.2s.152.073.267.073h1.079c.25 0 .426-.054.53-.162s.156-.289.156-.543c0-.224-.05-.395-.149-.511s-.249-.175-.448-.175h0-.089v-2.406c0-.8-.127-1.37-.381-1.711s-.669-.511-1.244-.511c-.267 0-.516.05-.749.149s-.438.244-.616.435c-.135-.199-.294-.346-.476-.441s-.396-.143-.641-.143c-.271 0-.516.056-.736.168s-.408.276-.565.492c0-.199-.031-.333-.092-.403s-.179-.105-.352-.105h0-.857c-.25 0-.428.054-.536.162s-.162.285-.162.53c0 .224.052.397.156.517s.255.181.454.181h.089v3.085h-.089c-.199 0-.348.058-.448.175s-.149.287-.149.511c0 .25.053.43.159.54s.281.165.527.165h1.441zm8.626.159c.402 0 .8-.061 1.193-.184a4.37 4.37 0 0 0 1.117-.533c.068.212.153.358.257.438s.261.121.473.121h.597c.288 0 .494-.054.619-.162s.187-.285.187-.53c0-.224-.06-.397-.181-.517s-.295-.181-.524-.181h0-.102v-2.355c0-.829-.195-1.418-.584-1.765s-1.035-.521-1.936-.521c-.863 0-1.546.101-2.047.302s-.752.473-.752.816c0 .19.061.344.184.46s.284.175.482.175.522-.104.955-.311.79-.311 1.07-.311c.36 0 .632.099.816.298s.276.489.276.87h0v.121l-.768-.102-.647-.032c-.91 0-1.617.176-2.12.527s-.755.844-.755 1.479c0 .588.195 1.052.584 1.39s.925.508 1.606.508zm.514-1.276c-.317 0-.561-.065-.73-.194s-.254-.316-.254-.562c0-.275.132-.491.397-.647s.629-.235 1.095-.235a3.83 3.83 0 0 1 .495.035l.584.105v.978c-.25.178-.504.309-.762.394s-.533.127-.825.127zm8.652 1.244c.749 0 1.419-.134 2.009-.403s.885-.566.885-.892c0-.195-.062-.361-.187-.498s-.274-.206-.448-.206c-.152 0-.453.095-.901.286s-.838.286-1.168.286c-.351 0-.597-.085-.736-.254s-.209-.482-.209-.939h0v-1.625h1.936c.288 0 .494-.055.619-.165s.187-.29.187-.54-.061-.421-.184-.527-.33-.159-.622-.159h0-1.936v-1.485c0-.292-.06-.497-.181-.616s-.321-.178-.6-.178-.479.059-.6.178-.181.324-.181.616h0v1.485h-.597c-.292 0-.497.052-.616.156s-.178.28-.178.53.06.43.181.54.325.165.613.165h.597v1.765c0 .554.03.95.089 1.187s.159.44.298.609c.19.22.451.389.781.508s.713.178 1.149.178zm7.604.032c.868 0 1.595-.144 2.184-.432s.882-.631.882-1.028c0-.182-.05-.331-.149-.448a.48.48 0 0 0-.384-.175c-.106 0-.415.128-.927.384s-1.03.384-1.555.384-.945-.116-1.26-.349-.528-.584-.638-1.054h4.094c.377 0 .625-.047.746-.14s.181-.264.181-.514c0-.783-.3-1.444-.901-1.984s-1.358-.809-2.272-.809c-1.024 0-1.857.288-2.498.863s-.962 1.314-.962 2.215.321 1.646.962 2.222 1.474.863 2.498.863zm1.574-3.707h-3.421c.11-.415.306-.725.587-.93s.653-.308 1.114-.308c.478 0 .866.108 1.165.324s.483.521.555.914h0zm5.561 3.707c.406 0 .772-.075 1.098-.225a2.02 2.02 0 0 0 .8-.651h0v.444c0 .085.033.151.098.2s.16.073.282.073h.971c.288 0 .492-.055.613-.165s.181-.29.181-.54c0-.224-.057-.395-.171-.511s-.286-.175-.514-.175h0-.108v-6.5c0-.161-.026-.271-.079-.33s-.151-.089-.295-.089h0-1.974c-.292 0-.499.055-.622.165s-.184.29-.184.54.061.424.184.536.33.168.622.168h.844v1.606a2.78 2.78 0 0 0-.784-.422c-.286-.099-.579-.149-.879-.149-.872 0-1.59.29-2.155.87s-.847 1.31-.847 2.19c0 .846.279 1.552.838 2.117s1.253.847 2.082.847zm.273-1.352a1.31 1.31 0 0 1-1.035-.467c-.271-.311-.406-.712-.406-1.203 0-.478.136-.873.409-1.184s.617-.467 1.031-.467a1.32 1.32 0 0 1 1.035.47c.275.313.413.707.413 1.181 0 .487-.136.887-.409 1.2s-.619.47-1.038.47zm-62.683 19.352c.406 0 .772-.075 1.098-.225a2.02 2.02 0 0 0 .8-.651h0v.444c0 .085.033.151.098.2s.16.073.282.073h.971c.288 0 .492-.055.613-.165s.181-.29.181-.54c0-.224-.057-.395-.171-.511s-.286-.175-.514-.175h0-.108v-6.5c0-.161-.026-.271-.079-.33s-.151-.089-.295-.089h0-1.974c-.292 0-.499.055-.622.165s-.184.29-.184.54.061.424.184.536.33.168.622.168h.844v1.606a2.78 2.78 0 0 0-.784-.422c-.286-.099-.579-.149-.879-.149-.872 0-1.59.29-2.155.87s-.847 1.31-.847 2.19c0 .846.279 1.552.838 2.117s1.253.847 2.082.847zm.273-1.352a1.31 1.31 0 0 1-1.035-.467c-.271-.311-.406-.712-.406-1.203 0-.478.136-.873.409-1.184s.617-.467 1.031-.467a1.32 1.32 0 0 1 1.035.47c.275.313.413.707.413 1.181 0 .487-.136.887-.409 1.2s-.619.47-1.038.47zm7.027 1.352c.402 0 .8-.061 1.193-.184a4.37 4.37 0 0 0 1.117-.533c.068.212.153.358.257.438s.261.121.473.121h.597c.288 0 .494-.054.619-.162s.187-.285.187-.53c0-.224-.06-.397-.181-.517s-.295-.181-.524-.181h0-.102v-2.355c0-.829-.195-1.418-.584-1.765s-1.035-.521-1.936-.521c-.863 0-1.546.101-2.047.302s-.752.473-.752.816c0 .19.061.344.184.46s.284.175.482.175.522-.104.955-.311.79-.311 1.07-.311c.36 0 .632.099.816.298s.276.489.276.87h0v.121l-.768-.102-.647-.032c-.91 0-1.617.176-2.12.527s-.755.844-.755 1.479c0 .588.195 1.052.584 1.39s.925.508 1.606.508zm.514-1.276c-.317 0-.561-.065-.73-.194s-.254-.316-.254-.562c0-.275.132-.491.397-.647s.629-.235 1.095-.235a3.83 3.83 0 0 1 .495.035l.584.105v.978c-.25.178-.504.309-.762.394s-.533.127-.825.127zm8.544 1.289c.868 0 1.537-.175 2.009-.524s.708-.843.708-1.482c0-.546-.179-.957-.536-1.235s-1.015-.486-1.971-.625l-.521-.063c-.762-.102-1.143-.3-1.143-.597 0-.19.091-.34.273-.448s.438-.162.768-.162c.423 0 .845.151 1.266.454s.718.454.892.454.3-.05.394-.149.14-.24.14-.422h0v-.781c0-.216-.045-.378-.136-.486s-.223-.162-.397-.162a.72.72 0 0 0-.333.076c-.099.051-.194.129-.282.235-.305-.093-.602-.162-.892-.206a5.59 5.59 0 0 0-.847-.067c-.8 0-1.416.163-1.847.489s-.647.787-.647 1.384c0 .504.18.905.54 1.203s.908.498 1.644.6l.508.07c.978.131 1.466.368 1.466.711 0 .19-.091.345-.273.463s-.425.178-.73.178c-.351 0-.664-.047-.939-.14s-.516-.233-.724-.419c-.063-.063-.142-.161-.235-.292-.157-.241-.36-.362-.609-.362-.229 0-.389.058-.482.175s-.14.314-.14.594h0v.844c0 .267.037.449.111.546s.202.146.384.146c.123 0 .242-.022.359-.067s.23-.109.34-.194c.292.085.595.149.908.194s.639.067.978.067zm6.57-.171c.284 0 .487-.055.609-.165s.184-.29.184-.54c0-.224-.058-.395-.175-.511s-.289-.175-.517-.175h0-.102v-1.847c0-.415.121-.759.362-1.031a1.12 1.12 0 0 1 .87-.409c.322 0 .549.105.682.314s.2.585.2 1.127h0v1.847h-.102c-.229 0-.4.057-.514.171s-.171.286-.171.514c0 .25.06.43.181.54s.323.165.606.165h1.574c.288 0 .492-.055.613-.165s.181-.29.181-.54c0-.224-.058-.395-.175-.511s-.287-.175-.511-.175h0-.108v-2.368c0-.728-.181-1.286-.543-1.676s-.877-.584-1.546-.584c-.377 0-.7.068-.971.203a1.46 1.46 0 0 0-.628.59h0v-2.666c0-.161-.028-.271-.083-.33s-.154-.089-.298-.089h0-1.193c-.292 0-.499.055-.622.165s-.184.29-.184.54c0 .229.06.403.181.524s.293.181.517.181h.108v5.51h-.108c-.224 0-.395.058-.511.175s-.175.287-.175.511c0 .254.059.435.178.543s.324.162.616.162h1.574zm9.268.159c.868 0 1.587-.278 2.158-.835s.857-1.249.857-2.079c0-.91-.28-1.656-.841-2.238s-1.281-.873-2.161-.873c-.305 0-.597.051-.876.152s-.521.241-.724.419h0v-2.596c0-.148-.031-.255-.092-.321s-.16-.098-.295-.098h0-1.187c-.292 0-.499.055-.622.165s-.184.29-.184.54c0 .229.06.403.181.524s.295.181.524.181h.102v5.51h-.102c-.229 0-.401.058-.517.175s-.175.287-.175.511c0 .254.06.435.181.543s.325.162.613.162h.978c.118 0 .211-.024.276-.073s.098-.115.098-.2h0v-.419c.19.284.437.496.74.638s.659.213 1.07.213zm-.184-1.352a1.31 1.31 0 0 1-1.035-.467c-.271-.311-.406-.712-.406-1.203 0-.478.136-.873.409-1.184s.617-.467 1.031-.467a1.32 1.32 0 0 1 1.035.47c.275.313.413.707.413 1.181 0 .487-.136.887-.409 1.2s-.619.47-1.038.47zm7.541 1.352c1.028 0 1.862-.288 2.501-.863s.958-1.316.958-2.222-.319-1.64-.958-2.215-1.473-.863-2.501-.863c-1.02 0-1.85.288-2.491.863s-.962 1.314-.962 2.215.319 1.646.958 2.222 1.471.863 2.495.863zm0-1.339c-.495 0-.902-.166-1.222-.498s-.479-.752-.479-1.26.16-.917.479-1.241.727-.486 1.222-.486.909.162 1.228.486.479.737.479 1.241-.161.928-.482 1.26-.73.498-1.225.498zm6.754 1.339c.402 0 .8-.061 1.193-.184a4.37 4.37 0 0 0 1.117-.533c.068.212.153.358.257.438s.261.121.473.121h.597c.288 0 .494-.054.619-.162s.187-.285.187-.53c0-.224-.06-.397-.181-.517s-.295-.181-.524-.181h0-.102v-2.355c0-.829-.195-1.418-.584-1.765s-1.035-.521-1.936-.521c-.863 0-1.546.101-2.047.302s-.752.473-.752.816c0 .19.061.344.184.46s.284.175.482.175.522-.104.955-.311.79-.311 1.07-.311c.36 0 .632.099.816.298s.276.489.276.87h0v.121l-.768-.102-.647-.032c-.91 0-1.617.176-2.12.527s-.755.844-.755 1.479c0 .588.195 1.052.584 1.39s.925.508 1.606.508zm.514-1.276c-.317 0-.561-.065-.73-.194s-.254-.316-.254-.562c0-.275.132-.491.397-.647s.629-.235 1.095-.235a3.83 3.83 0 0 1 .495.035l.584.105v.978c-.25.178-.504.309-.762.394s-.533.127-.825.127zm9.547 1.117c.288 0 .492-.055.613-.165s.181-.29.181-.54-.06-.421-.181-.527-.325-.159-.613-.159h0-1.498v-2.057c.377-.381.702-.662.978-.844s.514-.273.717-.273c.102 0 .282.07.543.209s.486.209.676.209c.267 0 .485-.079.654-.238s.254-.361.254-.606c0-.317-.123-.57-.368-.759s-.578-.282-.997-.282a2.72 2.72 0 0 0-1.292.317c-.4.212-.83.565-1.292 1.06h0v-.939c0-.085-.032-.151-.095-.2s-.152-.073-.267-.073h0-1.352c-.296 0-.503.053-.619.159s-.175.284-.175.533.06.428.181.536.325.162.613.162h.273v3.085h-.482c-.296 0-.505.053-.625.159s-.181.281-.181.527.061.43.184.54.33.165.622.165h3.548zm6.043.159c.406 0 .772-.075 1.098-.225a2.02 2.02 0 0 0 .8-.651h0v.444c0 .085.033.151.098.2s.16.073.282.073h.971c.288 0 .492-.055.613-.165s.181-.29.181-.54c0-.224-.057-.395-.171-.511s-.286-.175-.514-.175h0-.108v-6.5c0-.161-.026-.271-.079-.33s-.151-.089-.295-.089h0-1.974c-.292 0-.499.055-.622.165s-.184.29-.184.54.061.424.184.536.33.168.622.168h.844v1.606a2.78 2.78 0 0 0-.784-.422c-.286-.099-.579-.149-.879-.149-.872 0-1.59.29-2.155.87s-.847 1.31-.847 2.19c0 .846.279 1.552.838 2.117s1.253.847 2.082.847zm.273-1.352a1.31 1.31 0 0 1-1.035-.467c-.271-.311-.406-.712-.406-1.203 0-.478.136-.873.409-1.184s.617-.467 1.031-.467a1.32 1.32 0 0 1 1.035.47c.275.313.413.707.413 1.181 0 .487-.136.887-.409 1.2s-.619.47-1.038.47zm8.284 1.365c.868 0 1.537-.175 2.009-.524s.708-.843.708-1.482c0-.546-.179-.957-.536-1.235s-1.015-.486-1.971-.625l-.521-.063c-.762-.102-1.143-.3-1.143-.597 0-.19.091-.34.273-.448s.438-.162.768-.162c.423 0 .845.151 1.266.454s.718.454.892.454.3-.05.394-.149.14-.24.14-.422h0v-.781c0-.216-.045-.378-.136-.486s-.223-.162-.397-.162a.72.72 0 0 0-.333.076c-.099.051-.194.129-.282.235-.305-.093-.602-.162-.892-.206a5.59 5.59 0 0 0-.847-.067c-.8 0-1.416.163-1.847.489s-.647.787-.647 1.384c0 .504.18.905.54 1.203s.908.498 1.644.6l.508.07c.978.131 1.466.368 1.466.711 0 .19-.091.345-.273.463s-.425.178-.73.178c-.351 0-.664-.047-.939-.14s-.516-.233-.724-.419c-.063-.063-.142-.161-.235-.292-.157-.241-.36-.362-.609-.362-.229 0-.389.058-.482.175s-.14.314-.14.594h0v.844c0 .267.037.449.111.546s.202.146.384.146c.123 0 .242-.022.359-.067s.23-.109.34-.194c.292.085.595.149.908.194s.639.067.978.067z"/><path d="M135.355 337c.288 0 .494-.055.619-.165s.187-.29.187-.54c0-.241-.062-.416-.187-.524s-.331-.162-.619-.162h0-.222l.273-.743h2.742l.26.743h-.222c-.292 0-.499.053-.622.159s-.184.281-.184.527c0 .254.061.435.184.543s.33.162.622.162h1.911c.288 0 .494-.055.619-.165s.187-.29.187-.54c0-.224-.059-.395-.178-.511s-.292-.175-.521-.175h0-.108l-2.012-5.51v-.019c-.152-.406-.417-.609-.793-.609h0-2.38c-.288 0-.494.055-.619.165s-.187.29-.187.54.062.423.187.533.331.165.619.165h.508l-1.701 4.735h-.108c-.229 0-.402.058-.521.175s-.178.287-.178.511c0 .25.061.43.184.54s.33.165.622.165h1.638zm2.336-3.447h-1.841l.92-2.679.92 2.679zm6.348 3.593c.398 0 .744-.076 1.038-.229a2 2 0 0 0 .746-.686h0v.482a.25.25 0 0 0 .098.209c.066.051.158.076.276.076h1.066c.292 0 .499-.054.622-.162s.184-.289.184-.543c0-.22-.06-.389-.181-.508s-.295-.178-.524-.178h0-.102v-4.202c0-.085-.032-.151-.095-.2s-.152-.073-.267-.073h0-1.2c-.292 0-.497.053-.616.159s-.178.284-.178.533c0 .229.058.402.175.521s.289.178.517.178h.102v1.834c0 .423-.113.765-.34 1.025s-.515.39-.866.39c-.33 0-.567-.106-.711-.317s-.216-.578-.216-1.098h0v-2.952c0-.085-.03-.151-.089-.2s-.146-.073-.26-.073h0-1.193c-.296 0-.505.053-.625.159s-.181.284-.181.533c0 .229.059.402.178.521s.292.178.521.178h.108v2.12c0 .846.165 1.475.495 1.885s.836.616 1.517.616zm8.779-.019c.749 0 1.419-.134 2.009-.403s.885-.566.885-.892c0-.195-.062-.361-.187-.498s-.274-.206-.448-.206c-.152 0-.453.095-.901.286s-.838.286-1.168.286c-.351 0-.597-.085-.736-.254s-.209-.482-.209-.939h0v-1.625h1.936c.288 0 .494-.055.619-.165s.187-.29.187-.54-.061-.421-.184-.527-.33-.159-.622-.159h0-1.936v-1.485c0-.292-.06-.497-.181-.616s-.321-.178-.6-.178-.479.059-.6.178-.181.324-.181.616h0v1.485h-.597c-.292 0-.497.052-.616.156s-.178.28-.178.53.06.43.181.54.325.165.613.165h.597v1.765c0 .554.03.95.089 1.187s.159.44.298.609c.19.22.451.389.781.508s.713.178 1.149.178zm7.484.032c1.028 0 1.862-.288 2.501-.863s.958-1.316.958-2.222-.319-1.64-.958-2.215-1.473-.863-2.501-.863c-1.02 0-1.85.288-2.491.863s-.962 1.314-.962 2.215.319 1.646.958 2.222 1.471.863 2.495.863zm0-1.339c-.495 0-.902-.166-1.222-.498s-.479-.752-.479-1.26.16-.917.479-1.241.727-.486 1.222-.486.909.162 1.228.486.479.737.479 1.241-.161.928-.482 1.26-.73.498-1.225.498zM166.23 337c.25 0 .427-.054.533-.162s.159-.289.159-.543c0-.229-.05-.4-.149-.514s-.249-.171-.448-.171h0-.095v-2.222c0-.347.06-.616.181-.806a.56.56 0 0 1 .498-.286c.169 0 .296.07.381.209s.127.351.127.635h0v3.586c0 .085.034.151.102.2s.159.073.273.073h1.079c.25 0 .427-.054.533-.162s.159-.289.159-.543c0-.224-.051-.395-.152-.511s-.25-.175-.444-.175h0-.095v-2.222c0-.351.058-.621.175-.809s.28-.282.492-.282a.43.43 0 0 1 .387.209c.089.14.133.351.133.635h0v3.586c0 .085.032.151.095.2s.152.073.267.073h1.079c.25 0 .426-.054.53-.162s.156-.289.156-.543c0-.224-.05-.395-.149-.511s-.249-.175-.448-.175h0-.089v-2.406c0-.8-.127-1.37-.381-1.711s-.669-.511-1.244-.511c-.267 0-.516.05-.749.149s-.438.244-.616.435c-.135-.199-.294-.346-.476-.441s-.396-.143-.641-.143c-.271 0-.516.056-.736.168s-.408.276-.565.492c0-.199-.031-.333-.092-.403s-.179-.105-.352-.105h0-.857c-.25 0-.428.054-.536.162s-.162.285-.162.53c0 .224.052.397.156.517s.255.181.454.181h.089v3.085h-.089c-.199 0-.348.058-.448.175s-.149.287-.149.511c0 .25.053.43.159.54s.281.165.527.165h1.441zm8.626.159c.402 0 .8-.061 1.193-.184a4.37 4.37 0 0 0 1.117-.533c.068.212.153.358.257.438s.261.121.473.121h.597c.288 0 .494-.054.619-.162s.187-.285.187-.53c0-.224-.06-.397-.181-.517s-.295-.181-.524-.181h0-.102v-2.355c0-.829-.195-1.418-.584-1.765s-1.035-.521-1.936-.521c-.863 0-1.546.101-2.047.302s-.752.473-.752.816c0 .19.061.344.184.46s.284.175.482.175.522-.104.955-.311.79-.311 1.07-.311c.36 0 .632.099.816.298s.276.489.276.87h0v.121l-.768-.102-.647-.032c-.91 0-1.617.176-2.12.527s-.755.844-.755 1.479c0 .588.195 1.052.584 1.39s.925.508 1.606.508zm.514-1.276c-.317 0-.561-.065-.73-.194s-.254-.316-.254-.562c0-.275.132-.491.397-.647s.629-.235 1.095-.235a3.83 3.83 0 0 1 .495.035l.584.105v.978c-.25.178-.504.309-.762.394s-.533.127-.825.127zm8.652 1.244c.749 0 1.419-.134 2.009-.403s.885-.566.885-.892c0-.195-.062-.361-.187-.498s-.274-.206-.448-.206c-.152 0-.453.095-.901.286s-.838.286-1.168.286c-.351 0-.597-.085-.736-.254s-.209-.482-.209-.939h0v-1.625h1.936c.288 0 .494-.055.619-.165s.187-.29.187-.54-.061-.421-.184-.527-.33-.159-.622-.159h0-1.936v-1.485c0-.292-.06-.497-.181-.616s-.321-.178-.6-.178-.479.059-.6.178-.181.324-.181.616h0v1.485h-.597c-.292 0-.497.052-.616.156s-.178.28-.178.53.06.43.181.54.325.165.613.165h.597v1.765c0 .554.03.95.089 1.187s.159.44.298.609c.19.22.451.389.781.508s.713.178 1.149.178zm7.604.032c.868 0 1.595-.144 2.184-.432s.882-.631.882-1.028c0-.182-.05-.331-.149-.448a.48.48 0 0 0-.384-.175c-.106 0-.415.128-.927.384s-1.03.384-1.555.384-.945-.116-1.26-.349-.528-.584-.638-1.054h4.094c.377 0 .625-.047.746-.14s.181-.264.181-.514c0-.783-.3-1.444-.901-1.984s-1.358-.809-2.272-.809c-1.024 0-1.857.288-2.498.863s-.962 1.314-.962 2.215.321 1.646.962 2.222 1.474.863 2.498.863zm1.574-3.707h-3.421c.11-.415.306-.725.587-.93s.653-.308 1.114-.308c.478 0 .866.108 1.165.324s.483.521.555.914h0zm5.561 3.707c.406 0 .772-.075 1.098-.225a2.02 2.02 0 0 0 .8-.651h0v.444c0 .085.033.151.098.2s.16.073.282.073h.971c.288 0 .492-.055.613-.165s.181-.29.181-.54c0-.224-.057-.395-.171-.511s-.286-.175-.514-.175h0-.108v-6.5c0-.161-.026-.271-.079-.33s-.151-.089-.295-.089h0-1.974c-.292 0-.499.055-.622.165s-.184.29-.184.54.061.424.184.536.33.168.622.168h.844v1.606a2.78 2.78 0 0 0-.784-.422c-.286-.099-.579-.149-.879-.149-.872 0-1.59.29-2.155.87s-.847 1.31-.847 2.19c0 .846.279 1.552.838 2.117s1.253.847 2.082.847zm.273-1.352a1.31 1.31 0 0 1-1.035-.467c-.271-.311-.406-.712-.406-1.203 0-.478.136-.873.409-1.184s.617-.467 1.031-.467a1.32 1.32 0 0 1 1.035.47c.275.313.413.707.413 1.181 0 .487-.136.887-.409 1.2s-.619.47-1.038.47zm15.971 1.39c.986 0 1.743-.211 2.272-.632s.793-1.021.793-1.8c0-.631-.182-1.128-.546-1.492s-.952-.635-1.765-.812l-.432-.089c-1.075-.224-1.612-.531-1.612-.92 0-.275.117-.5.352-.676s.543-.263.924-.263c.305 0 .569.067.793.2s.402.331.533.594l.051.114c.148.322.372.482.673.482.237 0 .405-.05.505-.149s.149-.274.149-.524h0v-.07l-.025-1.219c-.008-.271-.048-.452-.117-.543s-.227-.136-.473-.136c-.165 0-.288.025-.368.076s-.152.144-.216.279c-.275-.118-.551-.207-.828-.267s-.56-.089-.847-.089c-.863 0-1.567.23-2.111.689s-.816 1.051-.816 1.774c0 .563.159 1.006.476 1.33s.887.594 1.708.809l.692.171c.978.233 1.466.576 1.466 1.028 0 .292-.108.518-.324.679s-.518.241-.908.241c-.427 0-.788-.08-1.082-.241s-.524-.404-.689-.73l-.102-.222c-.186-.398-.417-.597-.692-.597-.258 0-.439.055-.543.165s-.156.305-.156.584h0v.07l.025 1.492c.004.258.059.438.165.54s.292.152.559.152c.157 0 .279-.024.368-.073a.65.65 0 0 0 .235-.238c.284.106.577.184.879.235s.646.076 1.031.076zm10.607-.197c.267 0 .444-.038.533-.114s.133-.229.133-.457h0v-1.949c0-.288-.055-.494-.165-.619s-.286-.187-.527-.187-.414.061-.517.184-.156.33-.156.622h0v1.13h-2.888v-4.735h.546c.275 0 .474-.055.597-.165s.184-.288.184-.533-.062-.424-.187-.536-.323-.168-.594-.168h0-2.704c-.271 0-.469.056-.594.168s-.187.291-.187.536.059.423.178.533.315.165.59.165h.559v4.735h-.559c-.279 0-.477.053-.594.159s-.175.281-.175.527.059.43.178.54.315.165.59.165h5.757zm4.9.197c1.049 0 1.909-.37 2.577-1.111s1.003-1.693 1.003-2.856c0-1.155-.336-2.105-1.009-2.85s-1.53-1.117-2.571-1.117c-1.049 0-1.91.371-2.58 1.114s-1.006 1.694-1.006 2.853c0 1.151.339 2.1 1.016 2.847s1.534 1.12 2.571 1.12zm0-1.46c-.542 0-.969-.222-1.282-.667s-.47-1.058-.47-1.841.156-1.394.467-1.834.74-.66 1.285-.66.981.22 1.292.66.467 1.052.467 1.834-.157 1.402-.47 1.844-.743.663-1.289.663zm10.417-.946c.076 0 .147-.036.213-.108a.35.35 0 0 0 .098-.241h0v-.793c0-.097-.026-.171-.079-.222s-.13-.076-.232-.076h0-5.262c-.08 0-.146.028-.197.083s-.076.127-.076.216h0v.793c0 .106.024.19.073.254s.115.095.2.095h5.262zm-103.587 20.368c.868 0 1.587-.278 2.158-.835s.857-1.249.857-2.079c0-.91-.28-1.656-.841-2.238s-1.281-.873-2.161-.873c-.305 0-.597.051-.876.152s-.521.241-.724.419h0v-2.596c0-.148-.031-.255-.092-.321s-.16-.098-.295-.098h0-1.187c-.292 0-.499.055-.622.165s-.184.29-.184.54c0 .229.06.403.181.524s.295.181.524.181h.102v5.51h-.102c-.229 0-.401.058-.517.175s-.175.287-.175.511c0 .254.06.435.181.543s.325.162.613.162h.978c.118 0 .211-.024.276-.073s.098-.115.098-.2h0v-.419c.19.284.437.496.74.638s.659.213 1.07.213zm-.184-1.352a1.31 1.31 0 0 1-1.035-.467c-.271-.311-.406-.712-.406-1.203 0-.478.136-.873.409-1.184s.617-.467 1.031-.467a1.32 1.32 0 0 1 1.035.47c.275.313.413.707.413 1.181 0 .487-.136.887-.409 1.2s-.619.47-1.038.47zm6.494 1.352c.402 0 .8-.061 1.193-.184a4.37 4.37 0 0 0 1.117-.533c.068.212.153.358.257.438s.261.121.473.121h.597c.288 0 .494-.054.619-.162s.187-.285.187-.53c0-.224-.06-.397-.181-.517s-.295-.181-.524-.181h0-.102v-2.355c0-.829-.195-1.418-.584-1.765s-1.035-.521-1.936-.521c-.863 0-1.546.101-2.047.302s-.752.473-.752.816c0 .19.061.344.184.46s.284.175.482.175.522-.104.955-.311.79-.311 1.07-.311c.36 0 .632.099.816.298s.276.489.276.87h0v.121l-.768-.102-.647-.032c-.91 0-1.617.176-2.12.527s-.755.844-.755 1.479c0 .588.195 1.052.584 1.39s.925.508 1.606.508zm.514-1.276c-.317 0-.561-.065-.73-.194s-.254-.316-.254-.562c0-.275.132-.491.397-.647s.629-.235 1.095-.235a3.83 3.83 0 0 1 .495.035l.584.105v.978c-.25.178-.504.309-.762.394s-.533.127-.825.127zm8.544 1.289c.868 0 1.537-.175 2.009-.524s.708-.843.708-1.482c0-.546-.179-.957-.536-1.235s-1.015-.486-1.971-.625l-.521-.063c-.762-.102-1.143-.3-1.143-.597 0-.19.091-.34.273-.448s.438-.162.768-.162c.423 0 .845.151 1.266.454s.718.454.892.454.3-.05.394-.149.14-.24.14-.422h0v-.781c0-.216-.045-.378-.136-.486s-.223-.162-.397-.162a.72.72 0 0 0-.333.076c-.099.051-.194.129-.282.235-.305-.093-.602-.162-.892-.206a5.59 5.59 0 0 0-.847-.067c-.8 0-1.416.163-1.847.489s-.647.787-.647 1.384c0 .504.18.905.54 1.203s.908.498 1.644.6l.508.07c.978.131 1.466.368 1.466.711 0 .19-.091.345-.273.463s-.425.178-.73.178c-.351 0-.664-.047-.939-.14s-.516-.233-.724-.419c-.063-.063-.142-.161-.235-.292-.157-.241-.36-.362-.609-.362-.229 0-.389.058-.482.175s-.14.314-.14.594h0v.844c0 .267.037.449.111.546s.202.146.384.146c.123 0 .242-.022.359-.067s.23-.109.34-.194c.292.085.595.149.908.194s.639.067.978.067zm7.712-.013c.868 0 1.595-.144 2.184-.432s.882-.631.882-1.028c0-.182-.05-.331-.149-.448a.48.48 0 0 0-.384-.175c-.106 0-.415.128-.927.384s-1.03.384-1.555.384-.945-.116-1.26-.349-.528-.584-.638-1.054h4.094c.377 0 .625-.047.746-.14s.181-.264.181-.514c0-.783-.3-1.444-.901-1.984s-1.358-.809-2.272-.809c-1.024 0-1.857.288-2.498.863s-.962 1.314-.962 2.215.321 1.646.962 2.222 1.474.863 2.498.863zm1.574-3.707h-3.421c.11-.415.306-.725.587-.93s.653-.308 1.114-.308c.478 0 .866.108 1.165.324s.483.521.555.914h0zm5.561 3.707c.406 0 .772-.075 1.098-.225a2.02 2.02 0 0 0 .8-.651h0v.444c0 .085.033.151.098.2s.16.073.282.073h.971c.288 0 .492-.055.613-.165s.181-.29.181-.54c0-.224-.057-.395-.171-.511s-.286-.175-.514-.175h0-.108v-6.5c0-.161-.026-.271-.079-.33s-.151-.089-.295-.089h0-1.974c-.292 0-.499.055-.622.165s-.184.29-.184.54.061.424.184.536.33.168.622.168h.844v1.606a2.78 2.78 0 0 0-.784-.422c-.286-.099-.579-.149-.879-.149-.872 0-1.59.29-2.155.87s-.847 1.31-.847 2.19c0 .846.279 1.552.838 2.117s1.253.847 2.082.847zm.273-1.352a1.31 1.31 0 0 1-1.035-.467c-.271-.311-.406-.712-.406-1.203 0-.478.136-.873.409-1.184s.617-.467 1.031-.467a1.32 1.32 0 0 1 1.035.47c.275.313.413.707.413 1.181 0 .487-.136.887-.409 1.2s-.619.47-1.038.47zm15.33 1.352c.406 0 .772-.075 1.098-.225a2.02 2.02 0 0 0 .8-.651h0v.444c0 .085.033.151.098.2s.16.073.282.073h.971c.288 0 .492-.055.613-.165s.181-.29.181-.54c0-.224-.057-.395-.171-.511s-.286-.175-.514-.175h0-.108v-6.5c0-.161-.026-.271-.079-.33s-.151-.089-.295-.089h0-1.974c-.292 0-.499.055-.622.165s-.184.29-.184.54.061.424.184.536.33.168.622.168h.844v1.606a2.78 2.78 0 0 0-.784-.422c-.286-.099-.579-.149-.879-.149-.872 0-1.59.29-2.155.87s-.847 1.31-.847 2.19c0 .846.279 1.552.838 2.117s1.253.847 2.082.847zm.273-1.352a1.31 1.31 0 0 1-1.035-.467c-.271-.311-.406-.712-.406-1.203 0-.478.136-.873.409-1.184s.617-.467 1.031-.467a1.32 1.32 0 0 1 1.035.47c.275.313.413.707.413 1.181 0 .487-.136.887-.409 1.2s-.619.47-1.038.47zm8.195 1.352c.868 0 1.595-.144 2.184-.432s.882-.631.882-1.028c0-.182-.05-.331-.149-.448a.48.48 0 0 0-.384-.175c-.106 0-.415.128-.927.384s-1.03.384-1.555.384-.945-.116-1.26-.349-.528-.584-.638-1.054h4.094c.377 0 .625-.047.746-.14s.181-.264.181-.514c0-.783-.3-1.444-.901-1.984s-1.358-.809-2.272-.809c-1.024 0-1.857.288-2.498.863s-.962 1.314-.962 2.215.321 1.646.962 2.222 1.474.863 2.498.863zm1.574-3.707h-3.421c.11-.415.306-.725.587-.93s.653-.308 1.114-.308c.478 0 .866.108 1.165.324s.483.521.555.914h0zm6.227 3.707c.829 0 1.546-.157 2.149-.47s.905-.669.905-1.066c0-.182-.052-.333-.156-.454s-.234-.181-.39-.181c-.11 0-.412.139-.905.416s-.989.416-1.489.416c-.55 0-.988-.161-1.314-.482s-.489-.747-.489-1.276c0-.504.158-.917.473-1.241s.72-.486 1.216-.486c.398 0 .734.069 1.009.206s.497.35.667.638c.118.203.231.341.336.413s.237.108.394.108c.22 0 .383-.061.489-.184s.159-.313.159-.571h0v-1.041c0-.339-.049-.577-.146-.714s-.26-.206-.489-.206c-.169 0-.308.041-.416.124s-.187.206-.238.371c-.305-.169-.611-.294-.92-.375s-.626-.121-.952-.121c-.965 0-1.765.294-2.399.882s-.952 1.325-.952 2.209c0 .906.321 1.646.962 2.222s1.474.863 2.498.863zm7.643-6.906c.339 0 .553-.052.644-.156s.136-.371.136-.803c0-.449-.051-.732-.152-.851s-.307-.178-.616-.178c-.334 0-.55.074-.647.222s-.146.493-.146 1.035c0 .292.048.487.143.584s.308.146.638.146zm2.292 6.748c.288 0 .494-.055.619-.165s.187-.29.187-.54-.061-.421-.184-.527-.33-.159-.622-.159h0-1.365v-4.202c0-.085-.032-.151-.095-.2s-.154-.073-.273-.073h0-1.911c-.292 0-.497.053-.616.159s-.178.284-.178.533.061.428.184.536.326.162.609.162h.717v3.085h-1.365c-.296 0-.505.053-.625.159s-.181.281-.181.527.062.43.187.54.331.165.619.165h4.291zm5.757.171c.868 0 1.537-.175 2.009-.524s.708-.843.708-1.482c0-.546-.179-.957-.536-1.235s-1.015-.486-1.971-.625l-.521-.063c-.762-.102-1.143-.3-1.143-.597 0-.19.091-.34.273-.448s.438-.162.768-.162c.423 0 .845.151 1.266.454s.718.454.892.454.3-.05.394-.149.14-.24.14-.422h0v-.781c0-.216-.045-.378-.136-.486s-.223-.162-.397-.162a.72.72 0 0 0-.333.076c-.099.051-.194.129-.282.235-.305-.093-.602-.162-.892-.206a5.59 5.59 0 0 0-.847-.067c-.8 0-1.416.163-1.847.489s-.647.787-.647 1.384c0 .504.18.905.54 1.203s.908.498 1.644.6l.508.07c.978.131 1.466.368 1.466.711 0 .19-.091.345-.273.463s-.425.178-.73.178c-.351 0-.664-.047-.939-.14s-.516-.233-.724-.419c-.063-.063-.142-.161-.235-.292-.157-.241-.36-.362-.609-.362-.229 0-.389.058-.482.175s-.14.314-.14.594h0v.844c0 .267.037.449.111.546s.202.146.384.146c.123 0 .242-.022.359-.067s.23-.109.34-.194c.292.085.595.149.908.194s.639.067.978.067zm7.554-6.919c.339 0 .553-.052.644-.156s.136-.371.136-.803c0-.449-.051-.732-.152-.851s-.307-.178-.616-.178c-.334 0-.55.074-.647.222s-.146.493-.146 1.035c0 .292.048.487.143.584s.308.146.638.146zm2.292 6.748c.288 0 .494-.055.619-.165s.187-.29.187-.54-.061-.421-.184-.527-.33-.159-.622-.159h0-1.365v-4.202c0-.085-.032-.151-.095-.2s-.154-.073-.273-.073h0-1.911c-.292 0-.497.053-.616.159s-.178.284-.178.533.061.428.184.536.326.162.609.162h.717v3.085h-1.365c-.296 0-.505.053-.625.159s-.181.281-.181.527.062.43.187.54.331.165.619.165h4.291zm5.548.159c1.028 0 1.862-.288 2.501-.863s.958-1.316.958-2.222-.319-1.64-.958-2.215-1.473-.863-2.501-.863c-1.02 0-1.85.288-2.491.863s-.962 1.314-.962 2.215.319 1.646.958 2.222 1.471.863 2.495.863zm0-1.339c-.495 0-.902-.166-1.222-.498s-.479-.752-.479-1.26.16-.917.479-1.241.727-.486 1.222-.486.909.162 1.228.486.479.737.479 1.241-.161.928-.482 1.26-.73.498-1.225.498zm6.792 1.181c.284 0 .487-.055.609-.165s.184-.29.184-.54c0-.233-.059-.407-.178-.524s-.298-.175-.54-.175h0-.076v-1.834c0-.423.111-.763.333-1.019s.509-.384.86-.384c.33 0 .566.107.708.321s.213.574.213 1.082h0v1.834h-.076c-.241 0-.422.058-.543.175s-.181.291-.181.524c0 .25.062.43.187.54s.329.165.613.165h1.562c.288 0 .492-.055.613-.165s.181-.29.181-.54c0-.233-.059-.407-.178-.524s-.296-.175-.533-.175h0-.083v-2.12c0-.842-.166-1.468-.498-1.879s-.837-.616-1.514-.616a2.28 2.28 0 0 0-1.051.232c-.303.154-.551.384-.746.689h0v-.495c0-.089-.031-.157-.092-.203s-.151-.07-.27-.07h0-1.079c-.292 0-.499.055-.622.165s-.184.29-.184.54c0 .224.059.395.178.511s.292.175.521.175h.108v3.072h-.076c-.241 0-.421.058-.54.175s-.178.291-.178.524c0 .25.061.43.184.54s.326.165.609.165h1.574zm9.02.171c.868 0 1.537-.175 2.009-.524s.708-.843.708-1.482c0-.546-.179-.957-.536-1.235s-1.015-.486-1.971-.625l-.521-.063c-.762-.102-1.143-.3-1.143-.597 0-.19.091-.34.273-.448s.438-.162.768-.162c.423 0 .845.151 1.266.454s.718.454.892.454.3-.05.394-.149.14-.24.14-.422h0v-.781c0-.216-.045-.378-.136-.486s-.223-.162-.397-.162a.72.72 0 0 0-.333.076c-.099.051-.194.129-.282.235-.305-.093-.602-.162-.892-.206a5.59 5.59 0 0 0-.847-.067c-.8 0-1.416.163-1.847.489s-.647.787-.647 1.384c0 .504.18.905.54 1.203s.908.498 1.644.6l.508.07c.978.131 1.466.368 1.466.711 0 .19-.091.345-.273.463s-.425.178-.73.178c-.351 0-.664-.047-.939-.14s-.516-.233-.724-.419c-.063-.063-.142-.161-.235-.292-.157-.241-.36-.362-.609-.362-.229 0-.389.058-.482.175s-.14.314-.14.594h0v.844c0 .267.037.449.111.546s.202.146.384.146c.123 0 .242-.022.359-.067s.23-.109.34-.194c.292.085.595.149.908.194s.639.067.978.067z"/></g></g><g transform="matrix(-1 0 0 1 99 303)"><g transform="matrix(-1 0 0 1 64 16.406098)"><g class="C"><path d="M39.313.594l14.776 16.234 3.493 20.038a11.77 11.77 0 0 1-1.418.085c-2.718 0-5.125-.921-6.648-2.341-1.523 1.42-3.931 2.341-6.648 2.341-2.652 0-5.011-.876-6.539-2.238-1.528 1.362-3.886 2.238-6.538 2.238-2.723 0-5.133-.924-6.656-2.348-.538.503-1.186.943-1.92 1.302l3.325-19.078L39.313.594z" fill="#003b7a"/><path d="M20.889 9.743l11.139 12.111 2.435 14.084c-1.332.639-2.94 1.013-4.673 1.013-2.723 0-5.133-.924-6.656-2.348-1.523 1.423-3.933 2.348-6.656 2.348-2.701 0-5.094-.909-6.619-2.314-.699.644-1.58 1.183-2.59 1.579l2.483-14.363L20.889 9.743z" fill="#0058a0"/><path d="M37.516 13.173l-9.547 10.565-2.112 12.554c1.146.421 2.448.659 3.83.659 2.7 0 5.094-.909 6.619-2.314 1.525 1.404 3.919 2.314 6.619 2.314 2.385 0 4.53-.709 6.05-1.842l-1.912-11.371-9.547-10.565z" class="D"/></g><g transform="translate(16 28)"><mask id="e" class="B"><use xlink:href="#Q"/></mask><g mask="url(#e)" class="F I"><g transform="matrix(1 0 0 -1 -114.847376 14.711298)"><use xlink:href="#a"/></g></g></g><g transform="translate(2 34)"><mask id="f" class="B"><use xlink:href="#S" href="#Q"/></mask><g mask="url(#f)" class="F I"><g transform="matrix(1 0 0 -1 -114.847376 14.711298)"><use xlink:href="#a"/></g></g></g><g opacity=".2" class="C"><path fill="#003b7a" d="M39.557 65.134L24.93 51.113l-3.613-17.09h26.358l10.205 2.284-3.695 14.807z"/><path fill="#0058a0" d="M21.317 56.245L10.29 46.23 7.544 35.516l7.654-1.493h19.87L32.344 46.23z"/><path d="M39.557 53.578l-9.451-8.813-2.334-10.743h23.572l-2.334 10.743z" class="D"/></g><g transform="translate(12 31.594)" class="B"><mask ><use xlink:href="#R"/></mask></g><g transform="translate(0 36.594)" class="B"><mask ><use xlink:href="#S"/></mask></g></g><g transform="translate(21)" class="C"><g transform="translate(11 15)"><g stroke="#14ba5a"><g stroke-width="1.2"><ellipse opacity=".4" cx="26.941" cy="27.235" rx="9.579" ry="9.671"/><ellipse opacity=".6" cx="26.941" cy="27.235" rx="18.628" ry="18.8"/></g><use mask="url(#U)" stroke-width="2.4" stroke-dasharray="2.015999984741211" xlink:href="#T"/></g><path d="M52.868 27c-.116 7.162-3.084 13.624-7.809 18.281L26.941 27z" fill="url(#V)" opacity=".85"/></g><g class="G"><path d="M35.619 9.117c-.239 0-.392-.027-.458-.081s-.099-.151-.099-.293h0V1.368h-.088c-.278 0-.47-.039-.575-.117s-.157-.215-.157-.41c0-.176.043-.308.128-.396s.216-.132.392-.132h2.102c.327 0 .542.038.645.114s.154.214.154.414c0 .181-.06.314-.179.399s-.311.128-.575.128h0-.806v5.786L39.793.782c.122-.21.228-.341.319-.392s.248-.077.472-.077h.688l.293.007.146.007c.278 0 .48.04.604.121s.187.211.187.392c0 .195-.072.332-.216.41s-.421.117-.831.117h0-.183v6.599h.139c.288 0 .482.035.582.106s.15.204.15.399c0 .176-.044.308-.132.396s-.22.132-.396.132h0-2.175c-.356 0-.587-.038-.692-.114s-.157-.214-.157-.414c0-.181.056-.31.168-.388s.3-.117.564-.117h.916V1.983L36.344 8.7c-.132.225-.226.35-.282.377s-.204.04-.443.04z"/><path d="M79.412 14a.49.49 0 0 0 .374-.139c.088-.093.132-.227.132-.403h0v-1.846c0-.278-.038-.468-.114-.568s-.206-.15-.392-.15c-.2 0-.338.054-.414.161s-.114.349-.114.725h0v1.187h-3.896V9.723h1.919v.256c0 .337.033.564.099.681s.187.176.363.176.298-.051.366-.154.103-.337.103-.703h0V8.617c0-.361-.033-.597-.099-.707s-.184-.165-.355-.165-.299.051-.37.154-.106.286-.106.549h0v.388h-1.919V6.368h3.896v1.047c0 .376.038.618.114.725s.214.161.414.161c.19 0 .322-.049.396-.146s.11-.273.11-.527h0V5.899c0-.19-.043-.336-.128-.436s-.211-.15-.377-.15h0-6.379c-.186 0-.323.043-.414.128s-.135.219-.135.399c0 .2.055.338.165.414s.348.114.714.114h.469v6.599h-.469c-.376 0-.616.035-.721.106s-.157.204-.157.399c0 .176.045.308.135.396s.223.132.399.132h6.394zM2.651 14c.122 0 .21-.02.264-.059s.098-.12.132-.242h0l1.406-5.054 1.589 5.039c.044.122.095.205.154.249s.144.066.256.066h.52c.093 0 .16-.024.201-.073s.07-.149.084-.3h0l1.04-7.324h.088c.186 0 .325-.04.417-.121s.139-.204.139-.37a.52.52 0 0 0-.125-.355c-.083-.095-.178-.143-.286-.143h0-2.366c-.273 0-.46.037-.56.11s-.15.203-.15.388c0 .171.052.295.157.374s.27.117.494.117h1.15l-.718 5.823-1.428-4.409c-.044-.132-.096-.22-.157-.264s-.162-.066-.304-.066h0-.33c-.146 0-.248.021-.304.062s-.106.14-.15.297h0l-1.26 4.38-.791-5.823h1.033c.22 0 .382-.039.487-.117s.157-.203.157-.374c0-.186-.05-.315-.15-.388s-.284-.11-.553-.11h0-2.37a.36.36 0 0 0-.286.139c-.078.093-.117.212-.117.359 0 .161.048.283.143.366s.238.125.428.125h.088l1.113 7.31c.02.166.052.272.099.319s.118.07.216.07h.549z" transform="matrix(-1 0 0 1 78 32)"/><path d="M41.148 86.33c-.19 0-.33-.043-.417-.128s-.144-.238-.168-.458c-.391.176-.759.305-1.106.388s-.696.125-1.047.125c-1.021 0-1.836-.248-2.446-.743s-.916-1.154-.916-1.974c0-.693.215-1.244.645-1.652s1.069-.668 1.919-.78h0l1.172-.146c.566-.078.988-.225 1.263-.439s.414-.508.414-.879c0-.474-.184-.857-.553-1.15s-.848-.439-1.439-.439c-.386 0-.73.066-1.033.198s-.535.32-.696.564a2.01 2.01 0 0 0-.205.461c-.142.361-.342.542-.601.542-.176 0-.312-.048-.41-.143s-.146-.228-.146-.399h0v-.073l.103-1.531c.02-.239.071-.391.154-.454s.232-.095.447-.095c.166 0 .283.027.352.081s.107.151.117.293c.376-.151.713-.262 1.011-.333s.581-.106.85-.106c.923 0 1.693.254 2.311.762s.927 1.135.927 1.882c0 .708-.232 1.257-.696 1.648s-1.201.657-2.212.798h0l-1.084.146c-.464.068-.817.22-1.058.454s-.363.544-.363.93c0 .464.197.845.59 1.143s.905.447 1.534.447c.513 0 .953-.093 1.322-.278s.638-.449.809-.791c.054-.107.11-.266.168-.476.127-.42.337-.63.63-.63.21 0 .36.049.45.146s.135.264.135.498h0v.132l-.095 1.699c-.015.269-.072.463-.172.582s-.253.179-.458.179z"/></g></g></g><g transform="translate(206 7)"><g class="C"><use fill="#000" filter="url(#X)" xlink:href="#W"/><use xlink:href="#W" class="D"/></g><g transform="translate(0 .8)" class="B"><mask id="i"><use xlink:href="#Y"/></mask><g mask="url(#i)" class="C"><path d="M91.357 18.556c1.341 0 2.586.191 3.64.669 1.054.382 2.012 1.051 2.778 1.815s1.341 1.719 1.724 2.865c.575 1.051.766 2.292.766 3.629s-.192 2.483-.479 3.629c-.383 1.146-.862 2.006-1.437 2.865-.671.764-1.437 1.433-2.395 1.815-.958.478-2.012.669-3.257.669-.766 0-1.533-.096-2.299-.287-.671-.191-1.245-.382-1.724-.669v6.685h-4.023V19.511l2.969-.669c1.149-.191 2.49-.287 3.736-.287zm-18.295-.096c2.395 0 4.215.764 5.556 2.197s2.012 3.629 2.012 6.59v.764c0 .287 0 .478-.096.764H69.231c.096 1.337.575 2.483 1.437 3.247s2.107 1.146 3.831 1.146a12.15 12.15 0 0 0 2.682-.287l1.916-.573.575 3.247c-.192.096-.479.191-.958.382-.383.096-.862.191-1.341.382l-1.628.287c-.575.096-1.149.096-1.724.096-1.533 0-2.874-.191-3.927-.669-1.149-.478-2.012-1.051-2.778-1.91-.766-.764-1.245-1.719-1.628-2.865-.479-1.146-.671-2.292-.671-3.629 0-1.528.192-2.865.671-4.011s1.054-2.101 1.82-2.865 1.628-1.337 2.586-1.719 1.916-.573 2.969-.573zm34.962-4.775v5.253h6.13v3.343h-6.13v6.972c0 1.337.192 2.388.671 2.961s1.149.86 2.299.86c.766 0 1.341-.096 1.916-.191.575-.191 1.054-.287 1.341-.478l.671 3.152c-.479.191-1.054.382-1.82.573s-1.628.287-2.682.287c-1.245 0-2.299-.191-3.065-.478-.862-.382-1.437-.764-2.012-1.433-.479-.669-.862-1.337-1.054-2.292-.192-.86-.287-1.91-.287-3.056V14.354l4.023-.669zm17.72 4.871c1.437 0 2.586.191 3.544.573s1.724.955 2.299 1.624.958 1.528 1.149 2.483.383 2.006.383 3.247v9.741h-4.023v-9.073c0-.955-.096-1.719-.192-2.388a4.08 4.08 0 0 0-.575-1.624c-.287-.382-.671-.669-1.149-.86s-1.054-.287-1.724-.287c-.479 0-1.054 0-1.628.096s-.958.096-1.245.191v13.943h-4.023l.096-16.713 2.969-.669c1.245-.191 2.586-.287 4.119-.287zM33.215 9.961l.671 3.247-18.487 22.92h-3.353L33.215 9.961zm1.341 6.494l1.341 5.921c.192.669 0 1.433-.479 2.006h0l-8.717 10.887c-.479.478-1.149.86-1.916.86h0-6.035l15.805-19.673zm17.72-6.208v15.185c.479-.573 1.054-1.146 1.628-1.719l1.724-1.815c.575-.573 1.054-1.242 1.628-1.815s.958-1.051 1.245-1.433h4.789l-3.544 3.82-3.927 4.298 7.854 9.359h-4.694l-6.705-8.022v8.022h-4.023V10.916l4.023-.669zM29.671 6.236l2.012.955c.096.096.192.096.287.191h0L9.269 35.555c0-.096-.096-.191-.192-.287h0L7.64 33.454 29.671 6.236zm61.303 15.758c-.383 0-.766 0-1.149.096-.383 0-.766.096-1.245.191v9.837c.383.191.862.478 1.437.669a6.03 6.03 0 0 0 1.82.287c1.437 0 2.49-.478 3.161-1.433.862-1.051 1.149-2.388 1.149-4.011 0-1.815-.383-3.152-1.245-4.202-.766-.955-2.107-1.433-3.927-1.433zM24.882 3.944l2.299 1.146L6.012 31.353l-1.628-2.006L24.882 3.944zm-7.759-2.77a2.69 2.69 0 0 1 2.107 0h0l3.257 1.624-7.184 8.977c-.287-.669-.766-1.242-1.341-1.719-2.012-1.719-4.885-1.337-6.609.669s-1.341 4.966.671 6.59c.575.478 1.245.764 1.916.955h0l-7.184 8.977-2.203-2.865c-.479-.573-.671-1.337-.479-2.006h0L3.234 8.815c.096-.287.192-.573.383-.86.287-.287.575-.573.958-.764h0zm56.131 20.724c-.575 0-1.149.096-1.628.382-.479.191-.862.573-1.149.955s-.575.764-.766 1.242-.287.955-.383 1.433l7.376-.096c0-.573-.096-1.051-.192-1.528-.192-.478-.383-.955-.671-1.242-.287-.382-.671-.669-1.054-.86s-.958-.287-1.533-.287zm-63.985-9.55c.766-.86 2.012-1.051 2.969-.287.958.669 1.054 2.006.287 2.961h0l-.113.118c-.772.757-1.944.896-2.857.168-.862-.764-1.054-2.006-.287-2.961z" transform="translate(10.56 8.32)"/></g></g></g></g></svg>