<svg height="31" viewBox="0 0 99 31" width="99" xmlns="http://www.w3.org/2000/svg"><path d="m67.9415431 13.6182239c.9972899 0 1.9233448.1401756 2.7069298.4906146.7835849.2803513 1.4959348.7709659 2.0658148 1.3316684.5698799.5607024.9972899 1.2615805 1.2822298 2.1026342.42741.7709658.56988 1.6821073.56988 2.6633366s-.14247 1.822283-.356175 2.6633367c-.28494.8410537-.6411149 1.4718439-1.0685249 2.1026342-.4986449.5607025-1.0685249 1.0513171-1.7808748 1.3316683-.7123499.3504391-1.4959349.4906147-2.4219898.4906147-.5698799 0-1.1397599-.0700878-1.7096398-.2102634-.4986449-.1401757-.9260549-.2803513-1.2822299-.4906147v4.9061465h-2.9918697v-16.680898c.56988-.1401757 1.3534649-.3504391 2.2082848-.4906147s1.8521098-.2102634 2.7781647-.2102634zm-13.6058836-.0700878c1.7808748 0 3.1343397.5607024 4.1316296 1.6120195s1.4959348 2.6633367 1.4959348 4.8360587v.5607025c0 .2102634 0 .350439-.071235.5607024h-8.4057291c.071235.9812293.42741 1.822283 1.0685249 2.3829855.6411149.5607024 1.5671698.8410536 2.8493997.8410536.7123499 0 1.3534649-.0700878 1.9945798-.2102634.5698799-.1401756 1.0685249-.2803512 1.4246999-.4205268l.4274099 2.3829854c-.14247.0700878-.356175.1401756-.7123499.2803512-.28494.0700878-.641115.1401757-.9972899.2803513-.356175.0700878-.7835849.1401756-1.2109949.2102634s-.8548199.0700878-1.2822299.0700878c-1.1397598 0-2.1370497-.1401756-2.9206347-.4906147-.8548199-.350439-1.4959348-.7709658-2.0658148-1.4017561-.5698799-.5607024-.9260549-1.2615805-1.2109948-2.1026342-.356175-.8410537-.498645-1.6821074-.498645-2.6633367 0-1.1214049.14247-2.1026342.498645-2.9436879.3561749-.8410536.7835849-1.5419317 1.3534648-2.1026342.56988-.5607024 1.2109949-.9812293 1.9233448-1.2615805.71235-.2803512 1.4246999-.4205268 2.2082848-.4205268zm26.0007724-3.5043904v3.8548294h4.5590395v2.4530733h-4.5590395v5.1164099c0 .9812293.14247 1.7521951.4986449 2.172722.356175.4205268.8548199.6307902 1.7096399.6307902.5698799 0 .9972899-.0700878 1.4246998-.1401756.42741-.1401756.7835849-.2102634.9972899-.350439l.498645 2.3128976c-.356175.1401756-.783585.2803512-1.3534649.4205269-.5698799.1401756-1.2109949.2102634-1.9945798.2102634-.9260549 0-1.7096398-.1401756-2.2795198-.3504391-.6411149-.2803512-1.0685249-.5607024-1.4959348-1.0513171-.356175-.4906146-.641115-.9812293-.7835849-1.6821073-.14247-.6307903-.213705-1.4017562-.213705-2.2428098v-10.8636101zm13.1784737 3.5744782c1.0685248 0 1.9233448.1401756 2.6356947.4205268.7123499.2803513 1.2822299.7008781 1.7096398 1.1914927.42741.4906147.7123499 1.121405.8548199 1.822283.14247.7008781.28494 1.471844.28494 2.3829855v7.1489563h-2.9918697v-6.6583417c0-.7008781-.071235-1.2615805-.14247-1.7521952-.071235-.4906146-.213705-.8410537-.4274099-1.1914927-.213705-.2803512-.498645-.4906146-.85482-.6307902-.3561749-.1401757-.7835849-.2102635-1.2822298-.2102635-.356175 0-.7835849 0-1.2109949.0700878s-.7123499.0700878-.9260549.1401757v10.2328198h-2.9918697l.071235-12.2653662c.5698799-.1401757 1.3534648-.3504391 2.2082848-.4906147.9260549-.1401756 1.9233448-.2102634 3.0631047-.2102634zm-68.8130031-6.30790264.4986449 2.38298543-13.7483536 16.82107371h-2.49322471zm.9972899 4.76597084.9972899 4.3454441c.128223.4415531.0256446.9398774-.2558049 1.3416908l-.1003701.1301531-6.4823843 7.99001c-.3166.3115014-.7457688.5676247-1.2374759.6206953l-.187224.010095h-4.4878045zm13.1784737-4.55570742v11.14396132c.3561749-.4205269.7835849-.8410537 1.2109948-1.2615805.42741-.4205269.85482-.9111415 1.2822299-1.3316684.42741-.4205268.7835849-.9111415 1.2109949-1.3316683s.7123499-.7709659.9260549-1.0513171h3.5617496c-.8548199.9111415-1.7096398 1.8923708-2.6356947 2.8035123-.9260549.9812293-1.9945798 2.2428098-2.9206347 3.1539513l5.8412694 6.8686051h-3.4905146l-4.9864495-5.8873758v5.8873758h-2.9918697v-18.50318107zm-16.8114583-2.94368789 1.4959348.70087807c.04749.0467252.09498.06230027.14247.08825872l.071235.05191689-16.88269331 20.67590303c0-.0525658-.04006968-.1051317-.09015678-.1576976l-.0523132-.0525658-1.06852489-1.3316683zm45.5903954 11.56448811c-.28494 0-.56988 0-.85482.0700878-.2849399 0-.5698799.0700878-.9260549.1401757v7.2190441c.28494.1401756.641115.350439 1.0685249.4906146.42741.1401756.9260549.2102634 1.3534649.2102634 1.0685249 0 1.8521098-.350439 2.3507548-1.0513171.6411149-.7709658.8548199-1.7521951.8548199-2.9436879 0-1.3316683-.28494-2.3128976-.9260549-3.0838635-.56988-.700878-1.5671699-1.0513171-2.9206347-1.0513171zm-49.1521451-13.24659548 1.7096399.84105368-15.74293346 19.2741469-1.21099488-1.4718439 7.62214424-9.3216784zm-4.3715224-2.09484667.1686578.06230027 2.4219898 1.19149272-5.3426245 6.58825385c-.2137049-.49061465-.5698799-.91114149-.9972899-1.26158053-1.49593481-1.26158052-3.63298459-.98122929-4.91521446.49061465-1.28222987 1.47184395-.9972899 3.64456599.49864495 4.83605869.36635139.3003763.78503869.4977665 1.21120256.6363074l.21349729.0645707-5.34262446 6.5882538-1.63840483-2.1026342c-.32055747-.3784742-.4680139-.8704906-.390439-1.3227672l.03426404-.1490767 2.35075476-9.95246863c.07123499-.21026342.14246998-.42052684.28493997-.63079026.17096398-.16821073.34192796-.33642147.54936426-.46874725l.16298567-.0919552 9.33178405-4.41553184c.44324-.18690082.9427644-.20766758 1.398512-.06230027zm40.3451938 15.27135435c-.42741 0-.8548199.0700878-1.2109949.2803513-.3561749.1401756-.6411149.4205268-.8548199.700878s-.42741.5607025-.5698799.9111415c-.14247.350439-.213705.7008781-.28494 1.0513171l5.4850944-.0700878c0-.4205268-.071235-.7709659-.14247-1.1214049-.1424699-.350439-.2849399-.7008781-.4986449-.9111415-.213705-.2803512-.498645-.4906146-.7835849-.6307903-.28494-.1401756-.71235-.2102634-1.1397599-.2102634zm-45.37669043-7.21904409c.67044699.46175496.77298594 1.35810279.30761686 2.04628439l-.09391188.1264376-.10414837.1061803c-.57393974.5386761-1.43368942.6318031-2.10413641.1040831-.64111493-.5607024-.78358492-1.4718439-.21370498-2.17272197.56987995-.63079026 1.49593485-.77096588 2.20828478-.21026342z" fill="#ffffff"/></svg>