<svg xmlns="http://www.w3.org/2000/svg" width="82" height="82"  fill="none" fill-rule="evenodd" xmlns:v="https://vecta.io/nano"><g fill="#14ba5a" fill-rule="nonzero"><path d="M69.075.041a1 1 0 1 1-.152 1.994L68 2a1 1 0 1 1 0-2l1.075.041zm7.887 3.204a1 1 0 1 1-1.281 1.536l-.731-.564a1 1 0 0 1 1.16-1.629l.852.657zm4.576 7.179a1 1 0 0 1-1.934.51l-.269-.882a1 1 0 1 1 1.889-.658l.315 1.03zM82 18.708a1 1 0 1 1-2 0v-1a1 1 0 1 1 2 0v1zm0 8a1 1 0 1 1-2 0v-1a1 1 0 1 1 2 0v1zm0 8a1 1 0 1 1-2 0v-1a1 1 0 1 1 2 0v1zm0 8a1 1 0 1 1-2 0v-1a1 1 0 1 1 2 0v1zm0 8a1 1 0 1 1-2 0v-1a1 1 0 1 1 2 0v1zm0 8a1 1 0 1 1-2 0v-1a1 1 0 1 1 2 0v1zm0 8a1 1 0 1 1-2 0v-1a1 1 0 1 1 2 0v1zm-1.846 8.245a1 1 0 1 1-1.735-.995l.428-.818a1 1 0 1 1 1.807.858l-.499.955zm-6.289 5.763a1 1 0 1 1-.839-1.816l.822-.419a1 1 0 1 1 .976 1.746l-.96.489zM65.584 82a1 1 0 1 1 0-2h1a1 1 0 1 1 0 2h-1zm-8 0a1 1 0 1 1 0-2h1a1 1 0 1 1 0 2h-1zm-8 0a1 1 0 1 1 0-2h1a1 1 0 1 1 0 2h-1zm-8 0a1 1 0 1 1 0-2h1a1 1 0 1 1 0 2h-1zm-8 0a1 1 0 1 1 0-2h1a1 1 0 1 1 0 2h-1zm-8 0a1 1 0 1 1 0-2h1a1 1 0 1 1 0 2h-1zm-8 0a1 1 0 1 1 0-2h1a1 1 0 1 1 0 2h-1zm-8.259-.8a1 1 0 1 1 .668-1.885l.88.274a1 1 0 0 1-.52 1.931l-1.028-.32zm-6.812-5.195a1 1 0 1 1 1.64-1.145l.557.736a1 1 0 0 1-1.547 1.267l-.65-.858zM0 67.876a1 1 0 1 1 2 0v.139l.028.809a1 1 0 0 1-1.995.135L0 68.016v-.14zm0-8a1 1 0 1 1 2 0v1a1 1 0 1 1-2 0v-1zm0-8a1 1 0 1 1 2 0v1a1 1 0 1 1-2 0v-1zm0-8a1 1 0 1 1 2 0v1a1 1 0 1 1-2 0v-1zm0-8a1 1 0 1 1 2 0v1a1 1 0 1 1-2 0v-1zm0-8a1 1 0 1 1 2 0v1a1 1 0 1 1-2 0v-1zm0-8a1 1 0 1 1 2 0v1a1 1 0 1 1-2 0v-1zm.184-8.152a1 1 0 0 1 1.974.323l-.114.916a1 1 0 1 1-1.993-.171l.133-1.068zM4.07 4.131a1 1 0 0 1 1.419 1.41l-.625.679a1 1 0 0 1-1.522-1.297l.729-.792zm7.552-3.93a1 1 0 0 1 .337 1.971l-.903.191a1 1 0 0 1-.489-1.939l1.054-.223zM19.832 0a1 1 0 1 1 0 2h-1a1 1 0 1 1 0-2h1zm8 0a1 1 0 1 1 0 2h-1a1 1 0 1 1 0-2h1zm8 0a1 1 0 1 1 0 2h-1a1 1 0 1 1 0-2h1zm8 0a1 1 0 1 1 0 2h-1a1 1 0 1 1 0-2h1zm8 0a1 1 0 1 1 0 2h-1a1 1 0 1 1 0-2h1zm8 0a1 1 0 1 1 0 2h-1a1 1 0 1 1 0-2h1zm8 0a1 1 0 1 1 0 2h-1a1 1 0 1 1 0-2h1z" opacity=".5"/><circle opacity=".1" cx="41" cy="41" r="21"/></g><g stroke="#14ba5a" stroke-width="2" stroke-linecap="round" stroke-linejoin="round"><path d="M41.5 33.5v15"/><path d="M34 41h15"/></g></svg>