<svg xmlns="http://www.w3.org/2000/svg" width="197" height="82"  fill="none" fill-rule="evenodd" xmlns:v="https://vecta.io/nano"><g fill="#14ba5a" fill-rule="nonzero"><path d="M182.066.035a1 1 0 1 1-.131 1.996L181 2a1 1 0 1 1 0-2l1.066.035zm7.99 2.773a1 1 0 1 1-1.133 1.648l-.786-.503a1 1 0 1 1 1.021-1.72l.899.575zm5.462 6.457a1 1 0 1 1-1.814.843l-.421-.833a1 1 0 1 1 1.753-.962l.482.952zM197 17.586a1 1 0 1 1-2 0v-1a1 1 0 1 1 2 0v1zm0 8a1 1 0 1 1-2 0v-1a1 1 0 1 1 2 0v1zm0 8a1 1 0 1 1-2 0v-1a1 1 0 1 1 2 0v1zm0 8a1 1 0 1 1-2 0v-1a1 1 0 1 1 2 0v1zm0 8a1 1 0 1 1-2 0v-1a1 1 0 1 1 2 0v1zm0 8a1 1 0 1 1-2 0v-1a1 1 0 1 1 2 0v1zm0 8a1 1 0 1 1-2 0v-1a1 1 0 1 1 2 0v1zm-2.029 8.217a1 1 0 1 1-1.745-.977l.428-.829a1 1 0 1 1 1.807.858l-.49.948zm-5.991 6.067a1 1 0 0 1-.999-1.733l.793-.493a1 1 0 0 1 1.112 1.662l-.906.563zM180.828 82a1 1 0 1 1 0-2h.187l.773-.022a1 1 0 1 1 .111 1.997l-.882.025h-.188zm-8 0a1 1 0 1 1 0-2h1a1 1 0 1 1 0 2h-1zm-8 0a1 1 0 1 1 0-2h1a1 1 0 1 1 0 2h-1zm-8 0a1 1 0 1 1 0-2h1a1 1 0 1 1 0 2h-1zm-8 0a1 1 0 1 1 0-2h1a1 1 0 1 1 0 2h-1zm-8 0a1 1 0 1 1 0-2h1a1 1 0 1 1 0 2h-1zm-8 0a1 1 0 1 1 0-2h1a1 1 0 1 1 0 2h-1zm-8 0a1 1 0 1 1 0-2h1a1 1 0 1 1 0 2h-1zm-8 0a1 1 0 1 1 0-2h1a1 1 0 1 1 0 2h-1zm-8 0a1 1 0 1 1 0-2h1a1 1 0 1 1 0 2h-1zm-8 0a1 1 0 1 1 0-2h1a1 1 0 1 1 0 2h-1zm-8 0a1 1 0 1 1 0-2h1a1 1 0 1 1 0 2h-1zm-8 0a1 1 0 1 1 0-2h1a1 1 0 1 1 0 2h-1zm-8 0a1 1 0 1 1 0-2h1a1 1 0 1 1 0 2h-1zm-8 0a1 1 0 1 1 0-2h1a1 1 0 1 1 0 2h-1zm-8 0a1 1 0 1 1 0-2h1a1 1 0 1 1 0 2h-1zm-8 0a1 1 0 1 1 0-2h1a1 1 0 1 1 0 2h-1zm-8 0a1 1 0 1 1 0-2h1a1 1 0 1 1 0 2h-1zm-8 0a1 1 0 1 1 0-2h1a1 1 0 1 1 0 2h-1zm-8 0a1 1 0 1 1 0-2h1a1 1 0 1 1 0 2h-1zm-8 0a1 1 0 1 1 0-2h1a1 1 0 1 1 0 2h-1zm-8.187-.354a1 1 0 0 1 .418-1.956l.918.164a1 1 0 1 1-.286 1.979l-1.05-.188zm-7.524-3.918a1 1 0 0 1 1.361-1.466l.705.612a1 1 0 0 1-1.261 1.553l-.805-.699zM.656 70.547a1 1 0 1 1 1.918-.567l.295.885a1 1 0 1 1-1.875.695l-.337-1.013zM0 62.241a1 1 0 1 1 2 0v1a1 1 0 1 1-2 0v-1zm0-8a1 1 0 1 1 2 0v1a1 1 0 1 1-2 0v-1zm0-8a1 1 0 1 1 2 0v1a1 1 0 1 1-2 0v-1zm0-8a1 1 0 1 1 2 0v1a1 1 0 1 1-2 0v-1zm0-8a1 1 0 1 1 2 0v1a1 1 0 1 1-2 0v-1zm0-8a1 1 0 1 1 2 0v1a1 1 0 1 1-2 0v-1zm.108-8.113a1 1 0 0 1 1.987.232l-.077.931a1 1 0 1 1-1.998-.1l.088-1.063zm3.179-7.846a1 1 0 1 1 1.588 1.216l-.542.759A1 1 0 0 1 2.668 7.15l.62-.868zm6.725-5.125a1 1 0 1 1 .749 1.855l-.853.378a1 1 0 1 1-.871-1.8l.976-.432zM18.345 0a1 1 0 1 1 0 2h-1a1 1 0 1 1 0-2h1zm8 0a1 1 0 1 1 0 2h-1a1 1 0 1 1 0-2h1zm8 0a1 1 0 1 1 0 2h-1a1 1 0 1 1 0-2h1zm8 0a1 1 0 1 1 0 2h-1a1 1 0 1 1 0-2h1zm8 0a1 1 0 1 1 0 2h-1a1 1 0 1 1 0-2h1zm8 0a1 1 0 1 1 0 2h-1a1 1 0 1 1 0-2h1zm8 0a1 1 0 1 1 0 2h-1a1 1 0 1 1 0-2h1zm8 0a1 1 0 1 1 0 2h-1a1 1 0 1 1 0-2h1zm8 0a1 1 0 1 1 0 2h-1a1 1 0 1 1 0-2h1zm8 0a1 1 0 1 1 0 2h-1a1 1 0 1 1 0-2h1zm8 0a1 1 0 1 1 0 2h-1a1 1 0 1 1 0-2h1zm8 0a1 1 0 1 1 0 2h-1a1 1 0 1 1 0-2h1zm8 0a1 1 0 1 1 0 2h-1a1 1 0 1 1 0-2h1zm8 0a1 1 0 1 1 0 2h-1a1 1 0 1 1 0-2h1zm8 0a1 1 0 1 1 0 2h-1a1 1 0 1 1 0-2h1zm8 0a1 1 0 1 1 0 2h-1a1 1 0 1 1 0-2h1zm8 0a1 1 0 1 1 0 2h-1a1 1 0 1 1 0-2h1zm8 0a1 1 0 1 1 0 2h-1a1 1 0 1 1 0-2h1zm8 0a1 1 0 1 1 0 2h-1a1 1 0 1 1 0-2h1zm8 0a1 1 0 1 1 0 2h-1a1 1 0 1 1 0-2h1zm8 0a1 1 0 1 1 0 2h-1a1 1 0 1 1 0-2h1z" opacity=".5"/><path d="M79.446 37l.776-2.549h3.904L84.903 37h2.446l-3.794-10.752h-2.776L77 37h2.446zm4.138-4.453h-2.791l1.384-4.636.194.718 1.212 3.918zm7.529 4.6c1.04 0 1.814-.403 2.322-1.208h.095L93.963 37h1.714V25.604h-2.241v2.622c0 .479.056 1.023.168 1.633h0-.073c-.542-.801-1.328-1.201-2.358-1.201-.981 0-1.752.375-2.311 1.124s-.839 1.796-.839 3.138c0 1.323.275 2.358.824 3.105s1.305 1.121 2.267 1.121zm.784-1.78c-.518 0-.916-.201-1.194-.604s-.417-1.007-.417-1.813.138-1.42.414-1.842a1.31 1.31 0 0 1 1.161-.634c.61 0 1.051.19 1.322.571s.406 1.011.406 1.89h0v.242c-.024.796-.17 1.36-.436 1.692s-.685.498-1.256.498zm8.708 1.78c1.04 0 1.814-.403 2.322-1.208h.095l.432 1.062h1.714V25.604h-2.241v2.622c0 .479.056 1.023.168 1.633h0-.073c-.542-.801-1.328-1.201-2.358-1.201-.981 0-1.752.375-2.311 1.124s-.839 1.796-.839 3.138c0 1.323.275 2.358.824 3.105s1.305 1.121 2.267 1.121zm.784-1.78c-.518 0-.916-.201-1.194-.604s-.417-1.007-.417-1.813.138-1.42.414-1.842a1.31 1.31 0 0 1 1.161-.634c.61 0 1.051.19 1.322.571s.406 1.011.406 1.89h0v.242c-.024.796-.17 1.36-.436 1.692s-.685.498-1.256.498zm10.488 5.237c.786 0 1.473-.212 2.062-.637s1.041-1.064 1.359-1.919h0l3.464-9.236h-2.395l-1.516 4.607a6.28 6.28 0 0 0-.315 1.421h0-.044c-.049-.547-.139-1.021-.271-1.421h0l-1.545-4.607h-2.446l3.252 8.13-.132.403c-.166.488-.397.853-.692 1.095s-.641.363-1.036.363a3.82 3.82 0 0 1-.879-.095h0v1.772c.371.083.75.125 1.135.125zm11.506-3.457c1.255 0 2.234-.376 2.937-1.128s1.055-1.794 1.055-3.127c0-.859-.161-1.609-.483-2.249a3.42 3.42 0 0 0-1.384-1.472c-.601-.342-1.294-.513-2.08-.513-1.265 0-2.246.371-2.944 1.113s-1.047 1.782-1.047 3.12c0 .859.161 1.611.483 2.256s.784 1.139 1.384 1.483 1.294.516 2.08.516zm.029-1.794c-.601 0-1.034-.208-1.3-.623s-.399-1.028-.399-1.838.132-1.425.396-1.827.693-.604 1.289-.604 1.033.203 1.296.608.396 1.013.396 1.824-.131 1.429-.392 1.842-.69.619-1.285.619zm8.672 1.794c.562 0 1.062-.104 1.501-.311s.779-.502 1.018-.883h.117l.3 1.047h1.714v-8.188h-2.234v3.853c0 .967-.139 1.659-.417 2.076s-.73.626-1.355.626c-.459 0-.793-.148-1.003-.443s-.315-.739-.315-1.329h0v-4.783h-2.234v5.339c0 .967.244 1.708.732 2.223s1.213.773 2.175.773zm9.229-.146v-4.167c0-.659.199-1.172.597-1.538s.953-.549 1.666-.549a2.56 2.56 0 0 1 .659.073h0l.168-2.095c-.2-.044-.452-.066-.754-.066-.508 0-.978.14-1.41.421a3.08 3.08 0 0 0-1.029 1.11h0-.11l-.33-1.377h-1.692V37h2.234zM81.622 57.146c1.255 0 2.234-.376 2.937-1.128s1.055-1.794 1.055-3.127c0-.859-.161-1.609-.483-2.249a3.42 3.42 0 0 0-1.384-1.472c-.601-.342-1.294-.513-2.08-.513-1.265 0-2.246.371-2.944 1.113s-1.047 1.782-1.047 3.12c0 .859.161 1.611.483 2.256s.784 1.139 1.384 1.483 1.294.516 2.08.516zm.029-1.794c-.601 0-1.034-.208-1.3-.623s-.399-1.028-.399-1.838.132-1.425.396-1.827.693-.604 1.289-.604 1.033.203 1.296.608.396 1.013.396 1.824-.131 1.429-.392 1.842-.69.619-1.285.619zM89.693 57v-4.167c0-.659.199-1.172.597-1.538s.953-.549 1.666-.549a2.56 2.56 0 0 1 .659.073h0l.168-2.095c-.2-.044-.452-.066-.754-.066-.508 0-.978.14-1.41.421a3.08 3.08 0 0 0-1.029 1.11h0-.11l-.33-1.377h-1.692V57h2.234zm6.973 3.604c1.494 0 2.64-.264 3.439-.791s1.198-1.27 1.198-2.227c0-.747-.236-1.313-.707-1.699s-1.156-.579-2.054-.579h0-1.392c-.82 0-1.23-.161-1.23-.483 0-.215.115-.41.344-.586h0l.33.037.403.022c1.089 0 1.94-.245 2.552-.736s.919-1.176.919-2.054c0-.454-.117-.864-.352-1.23h0l1.282-.33v-1.135h-2.856c-.088-.02-.289-.05-.604-.092s-.587-.062-.817-.062c-1.079 0-1.909.244-2.49.732s-.872 1.179-.872 2.073c0 .557.126 1.04.377 1.45s.592.708 1.022.894c-.342.2-.603.404-.784.612s-.271.468-.271.78a1.14 1.14 0 0 0 .256.707c.171.222.371.382.601.48-.596.142-1.047.378-1.355.71s-.461.745-.461 1.238c0 .718.302 1.276.905 1.674s1.476.597 2.618.597zm.454-7.668c-.415 0-.724-.129-.927-.388s-.304-.61-.304-1.055c0-.986.41-1.479 1.23-1.479.811 0 1.216.493 1.216 1.479 0 .444-.098.796-.293 1.055s-.503.388-.923.388zm-.359 6.211c-.532 0-.946-.088-1.241-.264s-.443-.417-.443-.725a.89.89 0 0 1 .414-.765c.276-.193.619-.289 1.029-.289h1.157c.562 0 .977.059 1.245.176s.403.33.403.637c0 .381-.227.681-.681.901s-1.082.33-1.882.33zm7.976-2c.64 0 1.158-.092 1.556-.275s.785-.511 1.161-.985h.059l.432 1.113h1.56v-5.457c0-.977-.293-1.704-.879-2.183s-1.428-.718-2.527-.718c-1.147 0-2.192.247-3.135.74h0l.74 1.509c.884-.396 1.653-.593 2.307-.593.85 0 1.274.415 1.274 1.245h0v.359l-1.421.044c-1.226.044-2.142.272-2.75.685s-.912 1.053-.912 1.923c0 .83.226 1.47.677 1.919s1.071.674 1.857.674zm.842-1.633c-.723 0-1.084-.315-1.084-.945 0-.439.159-.767.476-.981s.801-.332 1.45-.352h0l.864-.029v.674c0 .493-.155.889-.465 1.187s-.724.447-1.241.447zM114.039 57v-3.853c0-.967.139-1.659.417-2.076s.73-.626 1.355-.626c.459 0 .793.148 1.003.443s.315.739.315 1.329h0V57h2.234v-5.339c0-.972-.247-1.715-.74-2.23s-1.216-.773-2.168-.773c-.557 0-1.053.101-1.49.304a2.36 2.36 0 0 0-1.029.897h0-.125l-.3-1.047h-1.707V57h2.234zm8.745-9.207c.405 0 .709-.096.912-.289s.304-.463.304-.809c0-.728-.405-1.091-1.216-1.091s-1.216.364-1.216 1.091.405 1.099 1.216 1.099zM123.897 57v-8.188h-2.234V57h2.234zm4.563.146c1.162 0 2.035-.22 2.618-.659s.875-1.079.875-1.919c0-.405-.071-.754-.212-1.047s-.361-.552-.659-.776-.767-.466-1.406-.725c-.718-.288-1.183-.505-1.395-.652s-.319-.32-.319-.52c0-.356.33-.535.989-.535a3.61 3.61 0 0 1 1.091.168c.356.112.74.256 1.15.432h0l.674-1.611c-.933-.43-1.892-.645-2.878-.645-1.035 0-1.835.199-2.399.597s-.846.961-.846 1.688c0 .425.067.782.201 1.073s.349.548.645.773.758.469 1.388.732l1.055.487c.264.139.449.264.557.374s.161.253.161.428c0 .469-.405.703-1.216.703-.396 0-.853-.066-1.373-.198s-.988-.295-1.403-.491h0v1.846c.366.156.759.275 1.179.355s.928.121 1.523.121zm7.229 0c.64 0 1.158-.092 1.556-.275s.785-.511 1.161-.985h.059l.432 1.113h1.56v-5.457c0-.977-.293-1.704-.879-2.183s-1.428-.718-2.527-.718c-1.147 0-2.192.247-3.135.74h0l.74 1.509c.884-.396 1.653-.593 2.307-.593.85 0 1.274.415 1.274 1.245h0v.359l-1.421.044c-1.226.044-2.142.272-2.75.685s-.912 1.053-.912 1.923c0 .83.226 1.47.677 1.919s1.071.674 1.857.674zm.842-1.633c-.723 0-1.084-.315-1.084-.945 0-.439.159-.767.476-.981s.801-.332 1.45-.352h0l.864-.029v.674c0 .493-.155.889-.465 1.187s-.724.447-1.241.447zm9.031 1.633c.811 0 1.494-.125 2.051-.374h0V55.11c-.547.171-1.016.256-1.406.256-.293 0-.529-.076-.707-.227s-.267-.386-.267-.703h0v-3.948h2.292v-1.677h-2.292v-1.743h-1.428l-.645 1.729-1.23.747v.945h1.069v3.948c0 .903.204 1.581.612 2.032s1.058.677 1.952.677zm4.827-9.353c.405 0 .709-.096.912-.289s.304-.463.304-.809c0-.728-.405-1.091-1.216-1.091s-1.216.364-1.216 1.091.405 1.099 1.216 1.099zM151.502 57v-8.188h-2.234V57h2.234zm5.793.146c1.255 0 2.234-.376 2.937-1.128s1.055-1.794 1.055-3.127c0-.859-.161-1.609-.483-2.249a3.42 3.42 0 0 0-1.384-1.472c-.601-.342-1.294-.513-2.08-.513-1.265 0-2.246.371-2.944 1.113s-1.047 1.782-1.047 3.12c0 .859.161 1.611.483 2.256s.784 1.139 1.384 1.483 1.294.516 2.08.516zm.029-1.794c-.601 0-1.034-.208-1.3-.623s-.399-1.028-.399-1.838.132-1.425.396-1.827.693-.604 1.289-.604 1.033.203 1.296.608.396 1.013.396 1.824-.131 1.429-.392 1.842-.69.619-1.285.619zM165.367 57v-3.853c0-.967.139-1.659.417-2.076s.73-.626 1.355-.626c.459 0 .793.148 1.003.443s.315.739.315 1.329h0V57h2.234v-5.339c0-.972-.247-1.715-.74-2.23s-1.216-.773-2.168-.773c-.557 0-1.053.101-1.49.304a2.36 2.36 0 0 0-1.029.897h0-.125l-.3-1.047h-1.707V57h2.234z"/><circle opacity=".1" cx="44" cy="42" r="21"/></g><g stroke="#14ba5a" stroke-width="2" stroke-linecap="round" stroke-linejoin="round"><path d="M44.5 34.5v15"/><path d="M37 42h15"/></g></svg>