<svg xmlns="http://www.w3.org/2000/svg" height="48" width="48"  xmlns:v="https://vecta.io/nano"><circle cx="24" cy="24" fill="#14ba5a" r="24"/><path d="M28.22 14.771a1.03 1.03 0 0 0-1.331.595l-6.703 17.531a1.03 1.03 0 1 0 1.927.736l6.703-17.531a1.03 1.03 0 0 0-.595-1.331m7.695 8.106l-5.482-3.379a1.03 1.03 0 1 0-1.083 1.755l5.22 3.218c.005.019.005.04 0 .059l-5.22 3.218a1.03 1.03 0 0 0 .04 1.8 1.03 1.03 0 0 0 1.043-.045l5.482-3.379.085-.085a2.18 2.18 0 0 0 0-3.076zm-16.268 4.87l-5.22-3.218c-.005-.019-.005-.04 0-.059l5.22-3.218a1.03 1.03 0 0 0-.04-1.8 1.03 1.03 0 0 0-1.043.045l-5.482 3.379-.085.085a2.18 2.18 0 0 0 0 3.076l.085.085 5.482 3.379a1.031 1.031 0 0 0 1.082-1.755" fill="#fffffe"/></svg>