<svg xmlns="http://www.w3.org/2000/svg" height="48" width="48"  xmlns:v="https://vecta.io/nano"><circle cx="24" cy="24" fill="#14ba5a" r="24"/><path d="M32.737 26.175l2.888-1.05V22.5l-2.888-1.05c-.262-.787-.525-1.575-1.05-2.363L33 16.463l-1.837-1.837-2.625 1.313c-.788-.525-1.575-.788-2.363-1.05L25.125 12H22.5l-1.05 2.887c-.787.262-1.575.525-2.363 1.05l-2.625-1.312-1.837 1.837 1.313 2.887c-.525.788-.788 1.575-1.05 2.363L12 22.5v2.625l2.887 1.05c.262.788.525 1.575 1.05 2.363l-1.312 2.625L16.463 33l2.887-1.313c.788.525 1.575.787 2.363 1.05l.788 2.888h2.625l1.05-2.888c.788-.263 1.575-.525 2.363-1.05L31.162 33 33 31.162l-1.313-2.887c.525-.525.787-1.312 1.05-2.1zm-8.925 2.887a5.27 5.27 0 0 1-5.25-5.25 5.27 5.27 0 0 1 5.25-5.25 5.27 5.27 0 0 1 5.25 5.25 5.27 5.27 0 0 1-5.25 5.25z" fill="#fff"/></svg>