<svg xmlns="http://www.w3.org/2000/svg" height="48" width="48"  xmlns:v="https://vecta.io/nano"><circle cx="24" cy="24" fill="#14ba5a" r="24"/><path d="M31.334 18c-1.729 0-3.362.672-4.527 1.837l-8.441 7.493a4.04 4.04 0 0 1-2.882 1.189c-2.245 0-4.071-1.813-4.071-4.059s1.825-4.059 4.071-4.059c1.093 0 2.113.42 2.93 1.237l1.357 1.201 1.813-1.609-1.513-1.333A6.45 6.45 0 0 0 15.484 18C11.906 18 9 20.906 9 24.46s2.906 6.46 6.484 6.46c1.729 0 3.362-.672 4.527-1.837l8.441-7.493a4.04 4.04 0 0 1 2.882-1.189c2.245 0 4.071 1.813 4.071 4.059s-1.825 4.059-4.071 4.059c-1.081 0-2.113-.42-2.93-1.237l-1.369-1.213-1.813 1.609 1.525 1.345c1.225 1.213 2.846 1.885 4.587 1.885 3.578 0 6.484-2.894 6.484-6.46S34.912 18 31.334 18z" fill="#fff"/></svg>