<svg xmlns="http://www.w3.org/2000/svg" width="24" height="24"  xmlns:v="https://vecta.io/nano"><path d="M22.079 8.976c-2.267-7.56-5.543-9.323-13.103-7.055S-.347 7.464 1.921 15.024s5.544 9.323 13.103 7.055 9.323-5.544 7.055-13.103m-3.823 4.907l-1.425.477.494 1.476a1.14 1.14 0 0 1-2.162.724l-.494-1.475-2.939.985.494 1.475a1.14 1.14 0 0 1-1.308 1.504 1.14 1.14 0 0 1-.854-.779l-.495-1.475-1.425.478a1.14 1.14 0 0 1-1.42-.727 1.14 1.14 0 0 1 .696-1.436l1.426-.478-.948-2.829-1.425.478a1.14 1.14 0 0 1-1.444-.72 1.14 1.14 0 0 1 .72-1.444l1.425-.478-.494-1.474a1.14 1.14 0 0 1 1.309-1.48 1.14 1.14 0 0 1 .854.756l.494 1.475 2.94-.985-.494-1.475a1.14 1.14 0 0 1 .733-1.404 1.14 1.14 0 0 1 1.43.679l.494 1.475 1.425-.478a1.14 1.14 0 0 1 1.48 1.309 1.14 1.14 0 0 1-.756.854l-1.425.477.948 2.83 1.425-.478a1.14 1.14 0 0 1 1.41.731 1.14 1.14 0 0 1-.685 1.432h0zm-8.2-2.806l.948 2.829 2.94-.984-.947-2.829-2.94.985z" fill="#fff"/></svg>