<svg xmlns="http://www.w3.org/2000/svg" width="24" height="24"  xmlns:v="https://vecta.io/nano"><path d="M12 0C5.374 0 0 5.509 0 12.303c0 5.436 3.438 10.048 8.207 11.675.599.114.793-.268.793-.592v-2.29c-3.338.744-4.033-1.452-4.033-1.452-.546-1.422-1.333-1.8-1.333-1.8-1.089-.764.083-.747.083-.747 1.205.086 1.839 1.268 1.839 1.268 1.07 1.88 2.807 1.337 3.492 1.022.107-.795.418-1.338.762-1.645-2.665-.313-5.467-1.368-5.467-6.081 0-1.344.469-2.441 1.236-3.302-.124-.311-.535-1.563.117-3.256 0 0 1.008-.33 3.301 1.261.957-.273 1.983-.409 3.003-.414 1.02.005 2.047.141 3.006.414 2.291-1.591 3.297-1.261 3.297-1.261.653 1.695.242 2.947.118 3.256.77.861 1.235 1.959 1.235 3.302 0 4.726-2.807 5.766-5.479 6.071.43.381.823 1.13.823 2.278v3.376c0 .327.192.712.801.591C20.566 22.348 24 17.737 24 12.303 24 5.509 18.627 0 12 0z" fill="#fff"/></svg>